{"accessors":[{"bufferView":0,"byteOffset":0,"componentType":5126,"count":1,"max":[0],"min":[0],"type":"SCALAR"},{"bufferView":1,"byteOffset":0,"componentType":5123,"count":600,"type":"SCALAR"},{"bufferView":2,"byteOffset":0,"componentType":5126,"count":121,"max":[0.164520621299744,0.0000000196123881579524,0.127129599452019],"min":[-0.16452062129974,-0.00000001961239,-0.12712959945202],"type":"VEC3"},{"bufferView":3,"byteOffset":0,"componentType":5126,"count":121,"type":"VEC3"},{"bufferView":4,"byteOffset":0,"componentType":5126,"count":121,"type":"VEC4"},{"bufferView":5,"byteOffset":0,"componentType":5126,"count":121,"type":"VEC2"},{"bufferView":6,"byteOffset":0,"componentType":5126,"count":121,"type":"VEC2"},{"bufferView":7,"byteOffset":0,"componentType":5123,"count":447,"type":"SCALAR"},{"bufferView":8,"byteOffset":0,"componentType":5126,"count":92,"max":[0.164520621299744,0.0000000196123881579524,0.127129599452019],"min":[-0.16452062129974,-0.00000001961239,-0.12712959945202],"type":"VEC3"},{"bufferView":9,"byteOffset":0,"componentType":5126,"count":92,"type":"VEC3"},{"bufferView":10,"byteOffset":0,"componentType":5126,"count":92,"type":"VEC4"},{"bufferView":11,"byteOffset":0,"componentType":5126,"count":92,"type":"VEC2"},{"bufferView":12,"byteOffset":0,"componentType":5126,"count":92,"type":"VEC2"},{"bufferView":13,"byteOffset":0,"componentType":5123,"count":300,"type":"SCALAR"},{"bufferView":14,"byteOffset":0,"componentType":5126,"count":64,"max":[0.164520621299744,0.0000000196123881579524,0.127129599452019],"min":[-0.16452062129974,-0.00000001961239,-0.12712959945202],"type":"VEC3"},{"bufferView":15,"byteOffset":0,"componentType":5126,"count":64,"type":"VEC3"},{"bufferView":16,"byteOffset":0,"componentType":5126,"count":64,"type":"VEC4"},{"bufferView":17,"byteOffset":0,"componentType":5126,"count":64,"type":"VEC2"},{"bufferView":18,"byteOffset":0,"componentType":5126,"count":64,"type":"VEC2"},{"bufferView":19,"byteOffset":0,"componentType":5123,"count":147,"type":"SCALAR"},{"bufferView":20,"byteOffset":0,"componentType":5126,"count":36,"max":[0.164520621299744,0.0000000196123881579524,0.127129599452019],"min":[-0.16452062129974,-0.00000001961239,-0.12712959945202],"type":"VEC3"},{"bufferView":21,"byteOffset":0,"componentType":5126,"count":36,"type":"VEC3"},{"bufferView":22,"byteOffset":0,"componentType":5126,"count":36,"type":"VEC4"},{"bufferView":23,"byteOffset":0,"componentType":5126,"count":36,"type":"VEC2"},{"bufferView":24,"byteOffset":0,"componentType":5126,"count":36,"type":"VEC2"}],"animations":[{"channels":[],"name":"Unreal Take","samplers":[]}],"asset":{"generator":"FBX2glTF v0.13.0","version":"2.0"},"bufferViews":[{"buffer":0,"byteLength":4,"byteOffset":0},{"buffer":0,"byteLength":1200,"byteOffset":4,"target":34963},{"buffer":0,"byteLength":1452,"byteOffset":1204,"target":34962},{"buffer":0,"byteLength":1452,"byteOffset":2656,"target":34962},{"buffer":0,"byteLength":1936,"byteOffset":4108,"target":34962},{"buffer":0,"byteLength":968,"byteOffset":6044,"target":34962},{"buffer":0,"byteLength":968,"byteOffset":7012,"target":34962},{"buffer":0,"byteLength":894,"byteOffset":7980,"target":34963},{"buffer":0,"byteLength":1104,"byteOffset":8876,"target":34962},{"buffer":0,"byteLength":1104,"byteOffset":9980,"target":34962},{"buffer":0,"byteLength":1472,"byteOffset":11084,"target":34962},{"buffer":0,"byteLength":736,"byteOffset":12556,"target":34962},{"buffer":0,"byteLength":736,"byteOffset":13292,"target":34962},{"buffer":0,"byteLength":600,"byteOffset":14028,"target":34963},{"buffer":0,"byteLength":768,"byteOffset":14628,"target":34962},{"buffer":0,"byteLength":768,"byteOffset":15396,"target":34962},{"buffer":0,"byteLength":1024,"byteOffset":16164,"target":34962},{"buffer":0,"byteLength":512,"byteOffset":17188,"target":34962},{"buffer":0,"byteLength":512,"byteOffset":17700,"target":34962},{"buffer":0,"byteLength":294,"byteOffset":18212,"target":34963},{"buffer":0,"byteLength":432,"byteOffset":18508,"target":34962},{"buffer":0,"byteLength":432,"byteOffset":18940,"target":34962},{"buffer":0,"byteLength":576,"byteOffset":19372,"target":34962},{"buffer":0,"byteLength":288,"byteOffset":19948,"target":34962},{"buffer":0,"byteLength":288,"byteOffset":20236,"target":34962}],"buffers":[{"byteLength":20524,"uri":"SM__Drawing_A.bin"}],"images":[{"name":"FlatNormal","uri":"FlatNormal.tga"}],"materials":[{"alphaMode":"OPAQUE","doubleSided":false,"extras":{"fromFBX":{"isTruePBR":false,"shadingModel":"Phong"}},"name":"MI_Drawings","normalTexture":{"index":0,"texCoord":0},"pbrMetallicRoughness":{"baseColorFactor":[0.21586050093174,0.21586050093174,0.21586050093174,1],"metallicFactor":0.400000005960464,"roughnessFactor":0.301511347293854}}],"meshes":[{"name":"SM__Drawing_A_LOD0","primitives":[{"attributes":{"NORMAL":3,"POSITION":2,"TANGENT":4,"TEXCOORD_0":5,"TEXCOORD_1":6},"indices":1,"material":0,"mode":4}]},{"name":"SM__Drawing_A_LOD1","primitives":[{"attributes":{"NORMAL":9,"POSITION":8,"TANGENT":10,"TEXCOORD_0":11,"TEXCOORD_1":12},"indices":7,"material":0,"mode":4}]},{"name":"SM__Drawing_A_LOD2","primitives":[{"attributes":{"NORMAL":15,"POSITION":14,"TANGENT":16,"TEXCOORD_0":17,"TEXCOORD_1":18},"indices":13,"material":0,"mode":4}]},{"name":"SM__Drawing_A_LOD3","primitives":[{"attributes":{"NORMAL":21,"POSITION":20,"TANGENT":22,"TEXCOORD_0":23,"TEXCOORD_1":24},"indices":19,"material":0,"mode":4}]}],"nodes":[{"children":[1,2,3,4,5],"name":"Fridge_Drawing_A4","originalUnits":0.00999999977648258,"pivot":[0,0,0],"rotation":[0,0,0,1],"scale":[1,1,1],"translation":[0,0,0]},{"mesh":0,"name":"SM__Drawing_A_LOD0","originalUnits":0.00999999977648258,"pivot":[0,0,0],"rotation":[0,0,0,1],"scale":[1,1,1],"translation":[0,0,0]},{"name":"SM__Drawing_A_ConvexHulls","originalUnits":0.00999999977648258,"pivot":[0,0,0],"rotation":[0,0,0,1],"scale":[1,1,1],"translation":[0,0,0]},{"mesh":1,"name":"SM__Drawing_A_LOD1","originalUnits":0.00999999977648258,"pivot":[0,0,0],"rotation":[0,0,0,1],"scale":[1,1,1],"translation":[0,0,0]},{"mesh":2,"name":"SM__Drawing_A_LOD2","originalUnits":0.00999999977648258,"pivot":[0,0,0],"rotation":[0,0,0,1],"scale":[1,1,1],"translation":[0,0,0]},{"mesh":3,"name":"SM__Drawing_A_LOD3","originalUnits":0.00999999977648258,"pivot":[0,0,0],"rotation":[0,0,0,1],"scale":[1,1,1],"translation":[0,0,0]}],"samplers":[{}],"scene":0,"scenes":[{"name":"Root Scene","nodes":[0]}],"textures":[{"name":"T_Default_N","sampler":0,"source":0}]}