{"accessors":[{"bufferView":0,"byteOffset":0,"componentType":5126,"count":1,"max":[0],"min":[0],"type":"SCALAR"},{"bufferView":1,"byteOffset":0,"componentType":5123,"count":216,"type":"SCALAR"},{"bufferView":2,"byteOffset":0,"componentType":5126,"count":144,"max":[0.0905181840062141,0.0456226654350758,0.137098997831345],"min":[-0.09684344381094,-0.00106441322714,-0.12187138944864],"type":"VEC3"},{"bufferView":3,"byteOffset":0,"componentType":5126,"count":144,"type":"VEC3"},{"bufferView":4,"byteOffset":0,"componentType":5126,"count":144,"type":"VEC4"},{"bufferView":5,"byteOffset":0,"componentType":5126,"count":144,"type":"VEC2"},{"bufferView":6,"byteOffset":0,"componentType":5126,"count":144,"type":"VEC2"},{"bufferView":7,"byteOffset":0,"componentType":5123,"count":162,"type":"SCALAR"},{"bufferView":8,"byteOffset":0,"componentType":5126,"count":112,"max":[0.0905181840062141,0.0456226654350758,0.14090883731842],"min":[-0.10394765436649,-0.00106441322714,-0.12187138944864],"type":"VEC3"},{"bufferView":9,"byteOffset":0,"componentType":5126,"count":112,"type":"VEC3"},{"bufferView":10,"byteOffset":0,"componentType":5126,"count":112,"type":"VEC4"},{"bufferView":11,"byteOffset":0,"componentType":5126,"count":112,"type":"VEC2"},{"bufferView":12,"byteOffset":0,"componentType":5126,"count":112,"type":"VEC2"},{"bufferView":13,"byteOffset":0,"componentType":5123,"count":108,"type":"SCALAR"},{"bufferView":14,"byteOffset":0,"componentType":5126,"count":76,"max":[0.0905181840062141,0.0456226654350758,0.136950090527534],"min":[-0.09590678662062,-0.00106441322714,-0.12187138944864],"type":"VEC3"},{"bufferView":15,"byteOffset":0,"componentType":5126,"count":76,"type":"VEC3"},{"bufferView":16,"byteOffset":0,"componentType":5126,"count":76,"type":"VEC4"},{"bufferView":17,"byteOffset":0,"componentType":5126,"count":76,"type":"VEC2"},{"bufferView":18,"byteOffset":0,"componentType":5126,"count":76,"type":"VEC2"},{"bufferView":19,"byteOffset":0,"componentType":5123,"count":54,"type":"SCALAR"},{"bufferView":20,"byteOffset":0,"componentType":5126,"count":44,"max":[0.150034308433533,0.0483962707221508,0.171841651201248],"min":[-0.09590678662062,-0.00734214531258,-0.14449609816074],"type":"VEC3"},{"bufferView":21,"byteOffset":0,"componentType":5126,"count":44,"type":"VEC3"},{"bufferView":22,"byteOffset":0,"componentType":5126,"count":44,"type":"VEC4"},{"bufferView":23,"byteOffset":0,"componentType":5126,"count":44,"type":"VEC2"},{"bufferView":24,"byteOffset":0,"componentType":5126,"count":44,"type":"VEC2"},{"bufferView":25,"byteOffset":0,"componentType":5123,"count":114,"type":"SCALAR"},{"bufferView":26,"byteOffset":0,"componentType":5126,"count":68,"max":[0.0915181487798691,0.0468472056090832,0.138111993670464],"min":[-0.09812499582767,-0.00206441269256,-0.12343748658895],"type":"VEC3"},{"bufferView":27,"byteOffset":0,"componentType":5126,"count":68,"type":"VEC3"},{"bufferView":28,"byteOffset":0,"componentType":5126,"count":68,"type":"VEC2"},{"bufferView":29,"byteOffset":0,"componentType":5126,"count":68,"type":"VEC2"}],"animations":[{"channels":[],"name":"Unreal Take","samplers":[]}],"asset":{"generator":"FBX2glTF v0.13.0","version":"2.0"},"bufferViews":[{"buffer":0,"byteLength":4,"byteOffset":0},{"buffer":0,"byteLength":432,"byteOffset":4,"target":34963},{"buffer":0,"byteLength":1728,"byteOffset":436,"target":34962},{"buffer":0,"byteLength":1728,"byteOffset":2164,"target":34962},{"buffer":0,"byteLength":2304,"byteOffset":3892,"target":34962},{"buffer":0,"byteLength":1152,"byteOffset":6196,"target":34962},{"buffer":0,"byteLength":1152,"byteOffset":7348,"target":34962},{"buffer":0,"byteLength":324,"byteOffset":8500,"target":34963},{"buffer":0,"byteLength":1344,"byteOffset":8824,"target":34962},{"buffer":0,"byteLength":1344,"byteOffset":10168,"target":34962},{"buffer":0,"byteLength":1792,"byteOffset":11512,"target":34962},{"buffer":0,"byteLength":896,"byteOffset":13304,"target":34962},{"buffer":0,"byteLength":896,"byteOffset":14200,"target":34962},{"buffer":0,"byteLength":216,"byteOffset":15096,"target":34963},{"buffer":0,"byteLength":912,"byteOffset":15312,"target":34962},{"buffer":0,"byteLength":912,"byteOffset":16224,"target":34962},{"buffer":0,"byteLength":1216,"byteOffset":17136,"target":34962},{"buffer":0,"byteLength":608,"byteOffset":18352,"target":34962},{"buffer":0,"byteLength":608,"byteOffset":18960,"target":34962},{"buffer":0,"byteLength":108,"byteOffset":19568,"target":34963},{"buffer":0,"byteLength":528,"byteOffset":19676,"target":34962},{"buffer":0,"byteLength":528,"byteOffset":20204,"target":34962},{"buffer":0,"byteLength":704,"byteOffset":20732,"target":34962},{"buffer":0,"byteLength":352,"byteOffset":21436,"target":34962},{"buffer":0,"byteLength":352,"byteOffset":21788,"target":34962},{"buffer":0,"byteLength":228,"byteOffset":22140,"target":34963},{"buffer":0,"byteLength":816,"byteOffset":22368,"target":34962},{"buffer":0,"byteLength":816,"byteOffset":23184,"target":34962},{"buffer":0,"byteLength":544,"byteOffset":24000,"target":34962},{"buffer":0,"byteLength":544,"byteOffset":24544,"target":34962}],"buffers":[{"byteLength":25088,"uri":"SM_Book_06.bin"}],"images":[{"name":"T_Book_N","uri":"T_Book_N.tga"}],"materials":[{"alphaMode":"OPAQUE","doubleSided":false,"extras":{"fromFBX":{"isTruePBR":false,"shadingModel":"Phong"}},"name":"MI_Books","normalTexture":{"index":0,"texCoord":0},"pbrMetallicRoughness":{"baseColorFactor":[0.21586050093174,0.21586050093174,0.21586050093174,1],"metallicFactor":0.400000005960464,"roughnessFactor":0.301511347293854}},{"alphaMode":"OPAQUE","doubleSided":false,"extras":{"fromFBX":{"isTruePBR":false,"shadingModel":"Lambert"}},"name":"DefaultMaterial","pbrMetallicRoughness":{"baseColorFactor":[0.5,0.5,0.5,1],"metallicFactor":0.200000002980232,"roughnessFactor":0.800000011920929}}],"meshes":[{"name":"SM_Book_06_LOD0","primitives":[{"attributes":{"NORMAL":3,"POSITION":2,"TANGENT":4,"TEXCOORD_0":5,"TEXCOORD_1":6},"indices":1,"material":0,"mode":4}]},{"name":"SM_Book_06_LOD1","primitives":[{"attributes":{"NORMAL":9,"POSITION":8,"TANGENT":10,"TEXCOORD_0":11,"TEXCOORD_1":12},"indices":7,"material":0,"mode":4}]},{"name":"SM_Book_06_LOD2","primitives":[{"attributes":{"NORMAL":15,"POSITION":14,"TANGENT":16,"TEXCOORD_0":17,"TEXCOORD_1":18},"indices":13,"material":0,"mode":4}]},{"name":"SM_Book_06_LOD3","primitives":[{"attributes":{"NORMAL":21,"POSITION":20,"TANGENT":22,"TEXCOORD_0":23,"TEXCOORD_1":24},"indices":19,"material":0,"mode":4}]},{"name":"SM_Book_06_ConvexHulls","primitives":[{"attributes":{"NORMAL":27,"POSITION":26,"TEXCOORD_0":28,"TEXCOORD_1":29},"indices":25,"material":1,"mode":4}]}],"nodes":[{"children":[1,2,3,4,5],"name":"SM_Book14","originalUnits":0.00999999977648258,"pivot":[0,0,0],"rotation":[0,0,0,1],"scale":[1,1,1],"translation":[0,0,0]},{"mesh":0,"name":"SM_Book_06_LOD0","originalUnits":0.00999999977648258,"pivot":[0,0,0],"rotation":[0,0,0,1],"scale":[1,1,1],"translation":[0,0,0]},{"mesh":4,"name":"SM_Book_06_ConvexHulls","originalUnits":0.00999999977648258,"pivot":[0,0,0],"rotation":[0,0,0,1],"scale":[1,1,1],"translation":[0,0,0]},{"mesh":1,"name":"SM_Book_06_LOD1","originalUnits":0.00999999977648258,"pivot":[0,0,0],"rotation":[0,0,0,1],"scale":[1,1,1],"translation":[0,0,0]},{"mesh":2,"name":"SM_Book_06_LOD2","originalUnits":0.00999999977648258,"pivot":[0,0,0],"rotation":[0,0,0,1],"scale":[1,1,1],"translation":[0,0,0]},{"mesh":3,"name":"SM_Book_06_LOD3","originalUnits":0.00999999977648258,"pivot":[0,0,0],"rotation":[0,0,0,1],"scale":[1,1,1],"translation":[0,0,0]}],"samplers":[{}],"scene":0,"scenes":[{"name":"Root Scene","nodes":[0]}],"textures":[{"name":"T_Book_N","sampler":0,"source":0}]}