{"accessors":[{"bufferView":0,"byteOffset":0,"componentType":5126,"count":1,"max":[0],"min":[0],"type":"SCALAR"},{"bufferView":1,"byteOffset":0,"componentType":5123,"count":804,"type":"SCALAR"},{"bufferView":2,"byteOffset":0,"componentType":5126,"count":336,"max":[0.0890840142965317,0.319999933242798,0.0240000020712614],"min":[-0.09639518707991,-0.00000004129351,-0.02399999648333],"type":"VEC3"},{"bufferView":3,"byteOffset":0,"componentType":5126,"count":336,"type":"VEC3"},{"bufferView":4,"byteOffset":0,"componentType":5126,"count":336,"type":"VEC4"},{"bufferView":5,"byteOffset":0,"componentType":5126,"count":336,"type":"VEC2"},{"bufferView":6,"byteOffset":0,"componentType":5126,"count":336,"type":"VEC2"},{"bufferView":7,"byteOffset":0,"componentType":5123,"count":600,"type":"SCALAR"},{"bufferView":8,"byteOffset":0,"componentType":5126,"count":271,"max":[0.0890844985842705,0.319999933242798,0.0241406392306089],"min":[-0.09639518707991,-0.00000004129351,-0.02414069883525],"type":"VEC3"},{"bufferView":9,"byteOffset":0,"componentType":5126,"count":271,"type":"VEC3"},{"bufferView":10,"byteOffset":0,"componentType":5126,"count":271,"type":"VEC4"},{"bufferView":11,"byteOffset":0,"componentType":5126,"count":271,"type":"VEC2"},{"bufferView":12,"byteOffset":0,"componentType":5126,"count":271,"type":"VEC2"},{"bufferView":13,"byteOffset":0,"componentType":5123,"count":402,"type":"SCALAR"},{"bufferView":14,"byteOffset":0,"componentType":5126,"count":187,"max":[0.0890844985842705,0.320005178451538,0.0240300465375185],"min":[-0.09643163532019,-0.00000055067761,-0.02402423322201],"type":"VEC3"},{"bufferView":15,"byteOffset":0,"componentType":5126,"count":187,"type":"VEC3"},{"bufferView":16,"byteOffset":0,"componentType":5126,"count":187,"type":"VEC4"},{"bufferView":17,"byteOffset":0,"componentType":5126,"count":187,"type":"VEC2"},{"bufferView":18,"byteOffset":0,"componentType":5126,"count":187,"type":"VEC2"},{"bufferView":19,"byteOffset":0,"componentType":5123,"count":198,"type":"SCALAR"},{"bufferView":20,"byteOffset":0,"componentType":5126,"count":124,"max":[0.0890493467450142,0.320000350475311,0.024017384275794],"min":[-0.09640865772963,-0.00000055067761,-0.02401745505631],"type":"VEC3"},{"bufferView":21,"byteOffset":0,"componentType":5126,"count":124,"type":"VEC3"},{"bufferView":22,"byteOffset":0,"componentType":5126,"count":124,"type":"VEC4"},{"bufferView":23,"byteOffset":0,"componentType":5126,"count":124,"type":"VEC2"},{"bufferView":24,"byteOffset":0,"componentType":5126,"count":124,"type":"VEC2"},{"bufferView":25,"byteOffset":0,"componentType":5123,"count":60,"type":"SCALAR"},{"bufferView":26,"byteOffset":0,"componentType":5126,"count":40,"max":[0.0900419950485229,0.321249961853027,0.0250000096857548],"min":[-0.09739518910646,-0.00100001203828,-0.02500000409782],"type":"VEC3"},{"bufferView":27,"byteOffset":0,"componentType":5126,"count":40,"type":"VEC3"},{"bufferView":28,"byteOffset":0,"componentType":5126,"count":40,"type":"VEC2"},{"bufferView":29,"byteOffset":0,"componentType":5126,"count":40,"type":"VEC2"}],"animations":[{"channels":[],"name":"Unreal Take","samplers":[]}],"asset":{"generator":"FBX2glTF v0.13.0","version":"2.0"},"bufferViews":[{"buffer":0,"byteLength":4,"byteOffset":0},{"buffer":0,"byteLength":1608,"byteOffset":4,"target":34963},{"buffer":0,"byteLength":4032,"byteOffset":1612,"target":34962},{"buffer":0,"byteLength":4032,"byteOffset":5644,"target":34962},{"buffer":0,"byteLength":5376,"byteOffset":9676,"target":34962},{"buffer":0,"byteLength":2688,"byteOffset":15052,"target":34962},{"buffer":0,"byteLength":2688,"byteOffset":17740,"target":34962},{"buffer":0,"byteLength":1200,"byteOffset":20428,"target":34963},{"buffer":0,"byteLength":3252,"byteOffset":21628,"target":34962},{"buffer":0,"byteLength":3252,"byteOffset":24880,"target":34962},{"buffer":0,"byteLength":4336,"byteOffset":28132,"target":34962},{"buffer":0,"byteLength":2168,"byteOffset":32468,"target":34962},{"buffer":0,"byteLength":2168,"byteOffset":34636,"target":34962},{"buffer":0,"byteLength":804,"byteOffset":36804,"target":34963},{"buffer":0,"byteLength":2244,"byteOffset":37608,"target":34962},{"buffer":0,"byteLength":2244,"byteOffset":39852,"target":34962},{"buffer":0,"byteLength":2992,"byteOffset":42096,"target":34962},{"buffer":0,"byteLength":1496,"byteOffset":45088,"target":34962},{"buffer":0,"byteLength":1496,"byteOffset":46584,"target":34962},{"buffer":0,"byteLength":396,"byteOffset":48080,"target":34963},{"buffer":0,"byteLength":1488,"byteOffset":48476,"target":34962},{"buffer":0,"byteLength":1488,"byteOffset":49964,"target":34962},{"buffer":0,"byteLength":1984,"byteOffset":51452,"target":34962},{"buffer":0,"byteLength":992,"byteOffset":53436,"target":34962},{"buffer":0,"byteLength":992,"byteOffset":54428,"target":34962},{"buffer":0,"byteLength":120,"byteOffset":55420,"target":34963},{"buffer":0,"byteLength":480,"byteOffset":55540,"target":34962},{"buffer":0,"byteLength":480,"byteOffset":56020,"target":34962},{"buffer":0,"byteLength":320,"byteOffset":56500,"target":34962},{"buffer":0,"byteLength":320,"byteOffset":56820,"target":34962}],"buffers":[{"byteLength":57140,"uri":"SM_Book01.bin"}],"images":[{"name":"T_Fill_N","uri":"T_Fill_N.png"}],"materials":[{"alphaMode":"OPAQUE","doubleSided":false,"extras":{"fromFBX":{"isTruePBR":false,"shadingModel":"Phong"}},"name":"MI_Books02","normalTexture":{"index":0,"texCoord":0},"pbrMetallicRoughness":{"baseColorFactor":[0.21586050093174,0.21586050093174,0.21586050093174,1],"metallicFactor":0.400000005960464,"roughnessFactor":0.301511347293854}},{"alphaMode":"OPAQUE","doubleSided":false,"extras":{"fromFBX":{"isTruePBR":false,"shadingModel":"Lambert"}},"name":"DefaultMaterial","pbrMetallicRoughness":{"baseColorFactor":[0.5,0.5,0.5,1],"metallicFactor":0.200000002980232,"roughnessFactor":0.800000011920929}}],"meshes":[{"name":"SM_Book01_LOD0","primitives":[{"attributes":{"NORMAL":3,"POSITION":2,"TANGENT":4,"TEXCOORD_0":5,"TEXCOORD_1":6},"indices":1,"material":0,"mode":4}]},{"name":"SM_Book01_LOD1","primitives":[{"attributes":{"NORMAL":9,"POSITION":8,"TANGENT":10,"TEXCOORD_0":11,"TEXCOORD_1":12},"indices":7,"material":0,"mode":4}]},{"name":"SM_Book01_LOD2","primitives":[{"attributes":{"NORMAL":15,"POSITION":14,"TANGENT":16,"TEXCOORD_0":17,"TEXCOORD_1":18},"indices":13,"material":0,"mode":4}]},{"name":"SM_Book01_LOD3","primitives":[{"attributes":{"NORMAL":21,"POSITION":20,"TANGENT":22,"TEXCOORD_0":23,"TEXCOORD_1":24},"indices":19,"material":0,"mode":4}]},{"name":"SM_Book01_ConvexHulls","primitives":[{"attributes":{"NORMAL":27,"POSITION":26,"TEXCOORD_0":28,"TEXCOORD_1":29},"indices":25,"material":1,"mode":4}]}],"nodes":[{"children":[1,2,3,4,5],"name":"SM_Book_100","originalUnits":0.00999999977648258,"pivot":[0,0,0],"rotation":[0,0,0,1],"scale":[1,1,1],"translation":[0,0,0]},{"mesh":0,"name":"SM_Book01_LOD0","originalUnits":0.00999999977648258,"pivot":[0,0,0],"rotation":[0,0,0,1],"scale":[1,1,1],"translation":[0,0,0]},{"mesh":4,"name":"SM_Book01_ConvexHulls","originalUnits":0.00999999977648258,"pivot":[0,0,0],"rotation":[0,0,0,1],"scale":[1,1,1],"translation":[0,0,0]},{"mesh":1,"name":"SM_Book01_LOD1","originalUnits":0.00999999977648258,"pivot":[0,0,0],"rotation":[0,0,0,1],"scale":[1,1,1],"translation":[0,0,0]},{"mesh":2,"name":"SM_Book01_LOD2","originalUnits":0.00999999977648258,"pivot":[0,0,0],"rotation":[0,0,0,1],"scale":[1,1,1],"translation":[0,0,0]},{"mesh":3,"name":"SM_Book01_LOD3","originalUnits":0.00999999977648258,"pivot":[0,0,0],"rotation":[0,0,0,1],"scale":[1,1,1],"translation":[0,0,0]}],"samplers":[{}],"scene":0,"scenes":[{"name":"Root Scene","nodes":[0]}],"textures":[{"name":"T_Fill_N","sampler":0,"source":0}]}