{"accessors":[{"bufferView":0,"byteOffset":0,"componentType":5126,"count":1,"max":[0],"min":[0],"type":"SCALAR"},{"bufferView":1,"byteOffset":0,"componentType":5123,"count":1200,"type":"SCALAR"},{"bufferView":2,"byteOffset":0,"componentType":5126,"count":290,"max":[0.0689158290624619,0.161309882998466,0.0689133331179619],"min":[-0.0689115151763,0.00133493461180478,-0.06891333311796],"type":"VEC3"},{"bufferView":3,"byteOffset":0,"componentType":5126,"count":290,"type":"VEC3"},{"bufferView":4,"byteOffset":0,"componentType":5126,"count":290,"type":"VEC4"},{"bufferView":5,"byteOffset":0,"componentType":5126,"count":290,"type":"VEC2"},{"bufferView":6,"byteOffset":0,"componentType":5126,"count":290,"type":"VEC2"},{"bufferView":7,"byteOffset":0,"componentType":5123,"count":900,"type":"SCALAR"},{"bufferView":8,"byteOffset":0,"componentType":5126,"count":236,"max":[0.0689158290624619,0.16120557487011,0.0689133331179619],"min":[-0.0689115151763,0.00129886041395366,-0.06891333311796],"type":"VEC3"},{"bufferView":9,"byteOffset":0,"componentType":5126,"count":236,"type":"VEC3"},{"bufferView":10,"byteOffset":0,"componentType":5126,"count":236,"type":"VEC4"},{"bufferView":11,"byteOffset":0,"componentType":5126,"count":236,"type":"VEC2"},{"bufferView":12,"byteOffset":0,"componentType":5126,"count":236,"type":"VEC2"},{"bufferView":13,"byteOffset":0,"componentType":5123,"count":600,"type":"SCALAR"},{"bufferView":14,"byteOffset":0,"componentType":5126,"count":171,"max":[0.0689175650477409,0.161314845085144,0.0687646791338921],"min":[-0.06892370432615,0.00129886041395366,-0.06891333311796],"type":"VEC3"},{"bufferView":15,"byteOffset":0,"componentType":5126,"count":171,"type":"VEC3"},{"bufferView":16,"byteOffset":0,"componentType":5126,"count":171,"type":"VEC4"},{"bufferView":17,"byteOffset":0,"componentType":5126,"count":171,"type":"VEC2"},{"bufferView":18,"byteOffset":0,"componentType":5126,"count":171,"type":"VEC2"},{"bufferView":19,"byteOffset":0,"componentType":5123,"count":300,"type":"SCALAR"},{"bufferView":20,"byteOffset":0,"componentType":5126,"count":100,"max":[0.0681840181350708,0.16119447350502,0.0689762905240059],"min":[-0.06955015659332,0.00159355590585619,-0.06942327320576],"type":"VEC3"},{"bufferView":21,"byteOffset":0,"componentType":5126,"count":100,"type":"VEC3"},{"bufferView":22,"byteOffset":0,"componentType":5126,"count":100,"type":"VEC4"},{"bufferView":23,"byteOffset":0,"componentType":5126,"count":100,"type":"VEC2"},{"bufferView":24,"byteOffset":0,"componentType":5126,"count":100,"type":"VEC2"},{"bufferView":25,"byteOffset":0,"componentType":5123,"count":336,"type":"SCALAR"},{"bufferView":26,"byteOffset":0,"componentType":5126,"count":326,"max":[0.0710758194327354,0.163431972265244,0.0730337426066399],"min":[-0.06620416790247,0.00151981099043041,-0.06508581340313],"type":"VEC3"},{"bufferView":27,"byteOffset":0,"componentType":5126,"count":326,"type":"VEC3"},{"bufferView":28,"byteOffset":0,"componentType":5126,"count":326,"type":"VEC2"},{"bufferView":29,"byteOffset":0,"componentType":5126,"count":326,"type":"VEC2"}],"animations":[{"channels":[],"name":"Unreal Take","samplers":[]}],"asset":{"generator":"FBX2glTF v0.13.0","version":"2.0"},"bufferViews":[{"buffer":0,"byteLength":4,"byteOffset":0},{"buffer":0,"byteLength":2400,"byteOffset":4,"target":34963},{"buffer":0,"byteLength":3480,"byteOffset":2404,"target":34962},{"buffer":0,"byteLength":3480,"byteOffset":5884,"target":34962},{"buffer":0,"byteLength":4640,"byteOffset":9364,"target":34962},{"buffer":0,"byteLength":2320,"byteOffset":14004,"target":34962},{"buffer":0,"byteLength":2320,"byteOffset":16324,"target":34962},{"buffer":0,"byteLength":1800,"byteOffset":18644,"target":34963},{"buffer":0,"byteLength":2832,"byteOffset":20444,"target":34962},{"buffer":0,"byteLength":2832,"byteOffset":23276,"target":34962},{"buffer":0,"byteLength":3776,"byteOffset":26108,"target":34962},{"buffer":0,"byteLength":1888,"byteOffset":29884,"target":34962},{"buffer":0,"byteLength":1888,"byteOffset":31772,"target":34962},{"buffer":0,"byteLength":1200,"byteOffset":33660,"target":34963},{"buffer":0,"byteLength":2052,"byteOffset":34860,"target":34962},{"buffer":0,"byteLength":2052,"byteOffset":36912,"target":34962},{"buffer":0,"byteLength":2736,"byteOffset":38964,"target":34962},{"buffer":0,"byteLength":1368,"byteOffset":41700,"target":34962},{"buffer":0,"byteLength":1368,"byteOffset":43068,"target":34962},{"buffer":0,"byteLength":600,"byteOffset":44436,"target":34963},{"buffer":0,"byteLength":1200,"byteOffset":45036,"target":34962},{"buffer":0,"byteLength":1200,"byteOffset":46236,"target":34962},{"buffer":0,"byteLength":1600,"byteOffset":47436,"target":34962},{"buffer":0,"byteLength":800,"byteOffset":49036,"target":34962},{"buffer":0,"byteLength":800,"byteOffset":49836,"target":34962},{"buffer":0,"byteLength":672,"byteOffset":50636,"target":34963},{"buffer":0,"byteLength":3912,"byteOffset":51308,"target":34962},{"buffer":0,"byteLength":3912,"byteOffset":55220,"target":34962},{"buffer":0,"byteLength":2608,"byteOffset":59132,"target":34962},{"buffer":0,"byteLength":2608,"byteOffset":61740,"target":34962}],"buffers":[{"byteLength":64348,"uri":"SM_Bathroom_Water_Glass.bin"}],"materials":[{"alphaMode":"OPAQUE","doubleSided":false,"extras":{"fromFBX":{"isTruePBR":false,"shadingModel":"Phong"}},"name":"MI_Glass01","pbrMetallicRoughness":{"baseColorFactor":[0.134965002536774,0.1875019967556,0.21875,0],"metallicFactor":0.400000005960464,"roughnessFactor":0.301511347293854}},{"alphaMode":"OPAQUE","doubleSided":false,"extras":{"fromFBX":{"isTruePBR":false,"shadingModel":"Lambert"}},"name":"DefaultMaterial","pbrMetallicRoughness":{"baseColorFactor":[0.5,0.5,0.5,1],"metallicFactor":0.200000002980232,"roughnessFactor":0.800000011920929}}],"meshes":[{"name":"SM_Bathroom_Water_Glass_LOD0","primitives":[{"attributes":{"NORMAL":3,"POSITION":2,"TANGENT":4,"TEXCOORD_0":5,"TEXCOORD_1":6},"indices":1,"material":0,"mode":4}]},{"name":"SM_Bathroom_Water_Glass_LOD1","primitives":[{"attributes":{"NORMAL":9,"POSITION":8,"TANGENT":10,"TEXCOORD_0":11,"TEXCOORD_1":12},"indices":7,"material":0,"mode":4}]},{"name":"SM_Bathroom_Water_Glass_LOD2","primitives":[{"attributes":{"NORMAL":15,"POSITION":14,"TANGENT":16,"TEXCOORD_0":17,"TEXCOORD_1":18},"indices":13,"material":0,"mode":4}]},{"name":"SM_Bathroom_Water_Glass_LOD3","primitives":[{"attributes":{"NORMAL":21,"POSITION":20,"TANGENT":22,"TEXCOORD_0":23,"TEXCOORD_1":24},"indices":19,"material":0,"mode":4}]},{"name":"SM_Bathroom_Water_Glass_ConvexHulls","primitives":[{"attributes":{"NORMAL":27,"POSITION":26,"TEXCOORD_0":28,"TEXCOORD_1":29},"indices":25,"material":1,"mode":4}]}],"nodes":[{"children":[1,2,3,4,5],"name":"Bathroom_Water_Glass_25","originalUnits":0.00999999977648258,"pivot":[0,0,0],"rotation":[0,0,0,1],"scale":[1,1,1],"translation":[0,0,0]},{"mesh":0,"name":"SM_Bathroom_Water_Glass_LOD0","originalUnits":0.00999999977648258,"pivot":[0,0,0],"rotation":[0,0,0,1],"scale":[1,1,1],"translation":[0,0,0]},{"mesh":4,"name":"SM_Bathroom_Water_Glass_ConvexHulls","originalUnits":0.00999999977648258,"pivot":[0,0,0],"rotation":[0,0,0,1],"scale":[1,1,1],"translation":[0,0,0]},{"mesh":1,"name":"SM_Bathroom_Water_Glass_LOD1","originalUnits":0.00999999977648258,"pivot":[0,0,0],"rotation":[0,0,0,1],"scale":[1,1,1],"translation":[0,0,0]},{"mesh":2,"name":"SM_Bathroom_Water_Glass_LOD2","originalUnits":0.00999999977648258,"pivot":[0,0,0],"rotation":[0,0,0,1],"scale":[1,1,1],"translation":[0,0,0]},{"mesh":3,"name":"SM_Bathroom_Water_Glass_LOD3","originalUnits":0.00999999977648258,"pivot":[0,0,0],"rotation":[0,0,0,1],"scale":[1,1,1],"translation":[0,0,0]}],"samplers":[{}],"scene":0,"scenes":[{"name":"Root Scene","nodes":[0]}]}