{"accessors":[{"bufferView":0,"byteOffset":0,"componentType":5126,"count":1,"max":[0],"min":[0],"type":"SCALAR"},{"bufferView":1,"byteOffset":0,"componentType":5123,"count":576,"type":"SCALAR"},{"bufferView":2,"byteOffset":0,"componentType":5126,"count":140,"max":[0.0447338707745075,0.214469581842422,0.0280249044299126],"min":[-0.04508788883686,0.0274951085448265,-0.02802551537752],"type":"VEC3"},{"bufferView":3,"byteOffset":0,"componentType":5126,"count":140,"type":"VEC3"},{"bufferView":4,"byteOffset":0,"componentType":5126,"count":140,"type":"VEC4"},{"bufferView":5,"byteOffset":0,"componentType":5126,"count":140,"type":"VEC2"},{"bufferView":6,"byteOffset":0,"componentType":5126,"count":140,"type":"VEC2"},{"bufferView":7,"byteOffset":0,"componentType":5123,"count":291,"type":"SCALAR"},{"bufferView":8,"byteOffset":0,"componentType":5126,"count":87,"max":[0.0447340905666351,0.214469581842422,0.0280391685664654],"min":[-0.04517577588558,0.0274957194924355,-0.02802551537752],"type":"VEC3"},{"bufferView":9,"byteOffset":0,"componentType":5126,"count":87,"type":"VEC3"},{"bufferView":10,"byteOffset":0,"componentType":5126,"count":87,"type":"VEC4"},{"bufferView":11,"byteOffset":0,"componentType":5126,"count":87,"type":"VEC2"},{"bufferView":12,"byteOffset":0,"componentType":5126,"count":87,"type":"VEC2"},{"bufferView":13,"byteOffset":0,"componentType":5123,"count":120,"type":"SCALAR"},{"bufferView":14,"byteOffset":0,"componentType":5126,"count":49,"max":[0.0447340905666351,0.21447679400444,0.0280391685664654],"min":[-0.04517577588558,0.0274974815547466,-0.02802551537752],"type":"VEC3"},{"bufferView":15,"byteOffset":0,"componentType":5126,"count":49,"type":"VEC3"},{"bufferView":16,"byteOffset":0,"componentType":5126,"count":49,"type":"VEC4"},{"bufferView":17,"byteOffset":0,"componentType":5126,"count":49,"type":"VEC2"},{"bufferView":18,"byteOffset":0,"componentType":5126,"count":49,"type":"VEC2"},{"bufferView":19,"byteOffset":0,"componentType":5123,"count":72,"type":"SCALAR"},{"bufferView":20,"byteOffset":0,"componentType":5126,"count":34,"max":[0.0447340905666351,0.21479457616806,0.0280391685664654],"min":[-0.04517577588558,0.0274974815547466,-0.02802551537752],"type":"VEC3"},{"bufferView":21,"byteOffset":0,"componentType":5126,"count":34,"type":"VEC3"},{"bufferView":22,"byteOffset":0,"componentType":5126,"count":34,"type":"VEC4"},{"bufferView":23,"byteOffset":0,"componentType":5126,"count":34,"type":"VEC2"},{"bufferView":24,"byteOffset":0,"componentType":5126,"count":34,"type":"VEC2"},{"bufferView":25,"byteOffset":0,"componentType":5123,"count":1392,"type":"SCALAR"},{"bufferView":26,"byteOffset":0,"componentType":5126,"count":271,"max":[0.044269997626543,0.203045323491096,0.0442694015800953],"min":[-0.04427001997828,0.0000000000000000000000762084,-0.0442694015801],"type":"VEC3"},{"bufferView":27,"byteOffset":0,"componentType":5126,"count":271,"type":"VEC3"},{"bufferView":28,"byteOffset":0,"componentType":5126,"count":271,"type":"VEC4"},{"bufferView":29,"byteOffset":0,"componentType":5126,"count":271,"type":"VEC2"},{"bufferView":30,"byteOffset":0,"componentType":5126,"count":271,"type":"VEC2"},{"bufferView":31,"byteOffset":0,"componentType":5123,"count":1182,"type":"SCALAR"},{"bufferView":32,"byteOffset":0,"componentType":5126,"count":235,"max":[0.0442227646708488,0.20342081785202,0.0442033894360065],"min":[-0.04422364756465,0.0000000000000000000000762084,-0.04422295466065],"type":"VEC3"},{"bufferView":33,"byteOffset":0,"componentType":5126,"count":235,"type":"VEC3"},{"bufferView":34,"byteOffset":0,"componentType":5126,"count":235,"type":"VEC4"},{"bufferView":35,"byteOffset":0,"componentType":5126,"count":235,"type":"VEC2"},{"bufferView":36,"byteOffset":0,"componentType":5126,"count":235,"type":"VEC2"},{"bufferView":37,"byteOffset":0,"componentType":5123,"count":864,"type":"SCALAR"},{"bufferView":38,"byteOffset":0,"componentType":5126,"count":179,"max":[0.0442666672170162,0.203690230846405,0.0438450239598751],"min":[-0.04426387697458,0.0000000000000000000000762084,-0.04426101595163],"type":"VEC3"},{"bufferView":39,"byteOffset":0,"componentType":5126,"count":179,"type":"VEC3"},{"bufferView":40,"byteOffset":0,"componentType":5126,"count":179,"type":"VEC4"},{"bufferView":41,"byteOffset":0,"componentType":5126,"count":179,"type":"VEC2"},{"bufferView":42,"byteOffset":0,"componentType":5126,"count":179,"type":"VEC2"},{"bufferView":43,"byteOffset":0,"componentType":5123,"count":420,"type":"SCALAR"},{"bufferView":44,"byteOffset":0,"componentType":5126,"count":93,"max":[0.0441474057734013,0.203907042741776,0.0436452217400074],"min":[-0.0441391505301,-0.00000508984704,-0.04413719475269],"type":"VEC3"},{"bufferView":45,"byteOffset":0,"componentType":5126,"count":93,"type":"VEC3"},{"bufferView":46,"byteOffset":0,"componentType":5126,"count":93,"type":"VEC4"},{"bufferView":47,"byteOffset":0,"componentType":5126,"count":93,"type":"VEC2"},{"bufferView":48,"byteOffset":0,"componentType":5126,"count":93,"type":"VEC2"},{"bufferView":49,"byteOffset":0,"componentType":5123,"count":84,"type":"SCALAR"},{"bufferView":50,"byteOffset":0,"componentType":5126,"count":82,"max":[0.0411800481379032,0.215654045343399,0.0440729707479477],"min":[-0.04000801593065,0.0013088941341266,-0.04320507869124],"type":"VEC3"},{"bufferView":51,"byteOffset":0,"componentType":5126,"count":82,"type":"VEC3"},{"bufferView":52,"byteOffset":0,"componentType":5126,"count":82,"type":"VEC2"},{"bufferView":53,"byteOffset":0,"componentType":5126,"count":82,"type":"VEC2"}],"animations":[{"channels":[],"name":"Unreal Take","samplers":[]}],"asset":{"generator":"FBX2glTF v0.13.0","version":"2.0"},"bufferViews":[{"buffer":0,"byteLength":4,"byteOffset":0},{"buffer":0,"byteLength":1152,"byteOffset":4,"target":34963},{"buffer":0,"byteLength":1680,"byteOffset":1156,"target":34962},{"buffer":0,"byteLength":1680,"byteOffset":2836,"target":34962},{"buffer":0,"byteLength":2240,"byteOffset":4516,"target":34962},{"buffer":0,"byteLength":1120,"byteOffset":6756,"target":34962},{"buffer":0,"byteLength":1120,"byteOffset":7876,"target":34962},{"buffer":0,"byteLength":582,"byteOffset":8996,"target":34963},{"buffer":0,"byteLength":1044,"byteOffset":9580,"target":34962},{"buffer":0,"byteLength":1044,"byteOffset":10624,"target":34962},{"buffer":0,"byteLength":1392,"byteOffset":11668,"target":34962},{"buffer":0,"byteLength":696,"byteOffset":13060,"target":34962},{"buffer":0,"byteLength":696,"byteOffset":13756,"target":34962},{"buffer":0,"byteLength":240,"byteOffset":14452,"target":34963},{"buffer":0,"byteLength":588,"byteOffset":14692,"target":34962},{"buffer":0,"byteLength":588,"byteOffset":15280,"target":34962},{"buffer":0,"byteLength":784,"byteOffset":15868,"target":34962},{"buffer":0,"byteLength":392,"byteOffset":16652,"target":34962},{"buffer":0,"byteLength":392,"byteOffset":17044,"target":34962},{"buffer":0,"byteLength":144,"byteOffset":17436,"target":34963},{"buffer":0,"byteLength":408,"byteOffset":17580,"target":34962},{"buffer":0,"byteLength":408,"byteOffset":17988,"target":34962},{"buffer":0,"byteLength":544,"byteOffset":18396,"target":34962},{"buffer":0,"byteLength":272,"byteOffset":18940,"target":34962},{"buffer":0,"byteLength":272,"byteOffset":19212,"target":34962},{"buffer":0,"byteLength":2784,"byteOffset":19484,"target":34963},{"buffer":0,"byteLength":3252,"byteOffset":22268,"target":34962},{"buffer":0,"byteLength":3252,"byteOffset":25520,"target":34962},{"buffer":0,"byteLength":4336,"byteOffset":28772,"target":34962},{"buffer":0,"byteLength":2168,"byteOffset":33108,"target":34962},{"buffer":0,"byteLength":2168,"byteOffset":35276,"target":34962},{"buffer":0,"byteLength":2364,"byteOffset":37444,"target":34963},{"buffer":0,"byteLength":2820,"byteOffset":39808,"target":34962},{"buffer":0,"byteLength":2820,"byteOffset":42628,"target":34962},{"buffer":0,"byteLength":3760,"byteOffset":45448,"target":34962},{"buffer":0,"byteLength":1880,"byteOffset":49208,"target":34962},{"buffer":0,"byteLength":1880,"byteOffset":51088,"target":34962},{"buffer":0,"byteLength":1728,"byteOffset":52968,"target":34963},{"buffer":0,"byteLength":2148,"byteOffset":54696,"target":34962},{"buffer":0,"byteLength":2148,"byteOffset":56844,"target":34962},{"buffer":0,"byteLength":2864,"byteOffset":58992,"target":34962},{"buffer":0,"byteLength":1432,"byteOffset":61856,"target":34962},{"buffer":0,"byteLength":1432,"byteOffset":63288,"target":34962},{"buffer":0,"byteLength":840,"byteOffset":64720,"target":34963},{"buffer":0,"byteLength":1116,"byteOffset":65560,"target":34962},{"buffer":0,"byteLength":1116,"byteOffset":66676,"target":34962},{"buffer":0,"byteLength":1488,"byteOffset":67792,"target":34962},{"buffer":0,"byteLength":744,"byteOffset":69280,"target":34962},{"buffer":0,"byteLength":744,"byteOffset":70024,"target":34962},{"buffer":0,"byteLength":168,"byteOffset":70768,"target":34963},{"buffer":0,"byteLength":984,"byteOffset":70936,"target":34962},{"buffer":0,"byteLength":984,"byteOffset":71920,"target":34962},{"buffer":0,"byteLength":656,"byteOffset":72904,"target":34962},{"buffer":0,"byteLength":656,"byteOffset":73560,"target":34962}],"buffers":[{"byteLength":74216,"uri":"SM_Bottles_04.bin"}],"images":[{"name":"T_Bottles_N","uri":"T_Bottles_N.tga"},{"name":"T_Bottles_Glass_N","uri":"T_Bottles_Glass_N.tga"}],"materials":[{"alphaMode":"OPAQUE","doubleSided":false,"extras":{"fromFBX":{"isTruePBR":false,"shadingModel":"Phong"}},"name":"MI_Bottles","normalTexture":{"index":0,"texCoord":0},"pbrMetallicRoughness":{"baseColorFactor":[0.21586050093174,0.21586050093174,0.21586050093174,1],"metallicFactor":0.400000005960464,"roughnessFactor":0.301511347293854}},{"alphaMode":"OPAQUE","doubleSided":false,"extras":{"fromFBX":{"isTruePBR":false,"shadingModel":"Phong"}},"name":"MI_Bottles_Glass_1","normalTexture":{"index":1,"texCoord":0},"pbrMetallicRoughness":{"baseColorFactor":[0.21586050093174,0.21586050093174,0.21586050093174,1],"metallicFactor":0.400000005960464,"roughnessFactor":0.301511347293854}},{"alphaMode":"OPAQUE","doubleSided":false,"extras":{"fromFBX":{"isTruePBR":false,"shadingModel":"Lambert"}},"name":"DefaultMaterial","pbrMetallicRoughness":{"baseColorFactor":[0.5,0.5,0.5,1],"metallicFactor":0.200000002980232,"roughnessFactor":0.800000011920929}}],"meshes":[{"name":"SM_Bottles_04_LOD0","primitives":[{"attributes":{"NORMAL":3,"POSITION":2,"TANGENT":4,"TEXCOORD_0":5,"TEXCOORD_1":6},"indices":1,"material":0,"mode":4},{"attributes":{"NORMAL":27,"POSITION":26,"TANGENT":28,"TEXCOORD_0":29,"TEXCOORD_1":30},"indices":25,"material":1,"mode":4}]},{"name":"SM_Bottles_04_LOD1","primitives":[{"attributes":{"NORMAL":9,"POSITION":8,"TANGENT":10,"TEXCOORD_0":11,"TEXCOORD_1":12},"indices":7,"material":0,"mode":4},{"attributes":{"NORMAL":33,"POSITION":32,"TANGENT":34,"TEXCOORD_0":35,"TEXCOORD_1":36},"indices":31,"material":1,"mode":4}]},{"name":"SM_Bottles_04_LOD2","primitives":[{"attributes":{"NORMAL":15,"POSITION":14,"TANGENT":16,"TEXCOORD_0":17,"TEXCOORD_1":18},"indices":13,"material":0,"mode":4},{"attributes":{"NORMAL":39,"POSITION":38,"TANGENT":40,"TEXCOORD_0":41,"TEXCOORD_1":42},"indices":37,"material":1,"mode":4}]},{"name":"SM_Bottles_04_LOD3","primitives":[{"attributes":{"NORMAL":21,"POSITION":20,"TANGENT":22,"TEXCOORD_0":23,"TEXCOORD_1":24},"indices":19,"material":0,"mode":4},{"attributes":{"NORMAL":45,"POSITION":44,"TANGENT":46,"TEXCOORD_0":47,"TEXCOORD_1":48},"indices":43,"material":1,"mode":4}]},{"name":"SM_Bottles_04_ConvexHulls","primitives":[{"attributes":{"NORMAL":51,"POSITION":50,"TEXCOORD_0":52,"TEXCOORD_1":53},"indices":49,"material":2,"mode":4}]}],"nodes":[{"children":[1,2,3,4,5],"name":"SM_Bottles_04_68","originalUnits":0.00999999977648258,"pivot":[0,0,0],"rotation":[0,0,0,1],"scale":[1,1,1],"translation":[0,0,0]},{"mesh":0,"name":"SM_Bottles_04_LOD0","originalUnits":0.00999999977648258,"pivot":[0,0,0],"rotation":[0,0,0,1],"scale":[1,1,1],"translation":[0,0,0]},{"mesh":4,"name":"SM_Bottles_04_ConvexHulls","originalUnits":0.00999999977648258,"pivot":[0,0,0],"rotation":[0,0,0,1],"scale":[1,1,1],"translation":[0,0,0]},{"mesh":1,"name":"SM_Bottles_04_LOD1","originalUnits":0.00999999977648258,"pivot":[0,0,0],"rotation":[0,0,0,1],"scale":[1,1,1],"translation":[0,0,0]},{"mesh":2,"name":"SM_Bottles_04_LOD2","originalUnits":0.00999999977648258,"pivot":[0,0,0],"rotation":[0,0,0,1],"scale":[1,1,1],"translation":[0,0,0]},{"mesh":3,"name":"SM_Bottles_04_LOD3","originalUnits":0.00999999977648258,"pivot":[0,0,0],"rotation":[0,0,0,1],"scale":[1,1,1],"translation":[0,0,0]}],"samplers":[{}],"scene":0,"scenes":[{"name":"Root Scene","nodes":[0]}],"textures":[{"name":"T_Bottles_N","sampler":0,"source":0},{"name":"T_Bottles_Glass_N","sampler":0,"source":1}]}