{"accessors":[{"bufferView":0,"byteOffset":0,"componentType":5126,"count":1,"max":[0],"min":[0],"type":"SCALAR"},{"bufferView":1,"byteOffset":0,"componentType":5123,"count":672,"type":"SCALAR"},{"bufferView":2,"byteOffset":0,"componentType":5126,"count":154,"max":[0.0143090449273586,0.301416277885437,0.0387570150196552],"min":[-0.04551269859076,0.0283346474170685,-0.03869841620326],"type":"VEC3"},{"bufferView":3,"byteOffset":0,"componentType":5126,"count":154,"type":"VEC3"},{"bufferView":4,"byteOffset":0,"componentType":5126,"count":154,"type":"VEC4"},{"bufferView":5,"byteOffset":0,"componentType":5126,"count":154,"type":"VEC2"},{"bufferView":6,"byteOffset":0,"componentType":5126,"count":154,"type":"VEC2"},{"bufferView":7,"byteOffset":0,"componentType":5123,"count":378,"type":"SCALAR"},{"bufferView":8,"byteOffset":0,"componentType":5126,"count":102,"max":[0.0143690686672926,0.301416426897049,0.0387570150196552],"min":[-0.04551269859076,0.0283346474170685,-0.03869841620326],"type":"VEC3"},{"bufferView":9,"byteOffset":0,"componentType":5126,"count":102,"type":"VEC3"},{"bufferView":10,"byteOffset":0,"componentType":5126,"count":102,"type":"VEC4"},{"bufferView":11,"byteOffset":0,"componentType":5126,"count":102,"type":"VEC2"},{"bufferView":12,"byteOffset":0,"componentType":5126,"count":102,"type":"VEC2"},{"bufferView":13,"byteOffset":0,"componentType":5123,"count":210,"type":"SCALAR"},{"bufferView":14,"byteOffset":0,"componentType":5126,"count":64,"max":[0.0143690686672926,0.301786005496979,0.0387570150196552],"min":[-0.04551269859076,0.0283311121165752,-0.03869841620326],"type":"VEC3"},{"bufferView":15,"byteOffset":0,"componentType":5126,"count":64,"type":"VEC3"},{"bufferView":16,"byteOffset":0,"componentType":5126,"count":64,"type":"VEC4"},{"bufferView":17,"byteOffset":0,"componentType":5126,"count":64,"type":"VEC2"},{"bufferView":18,"byteOffset":0,"componentType":5126,"count":64,"type":"VEC2"},{"bufferView":19,"byteOffset":0,"componentType":5123,"count":99,"type":"SCALAR"},{"bufferView":20,"byteOffset":0,"componentType":5126,"count":39,"max":[0.014254217967391,0.30193218588829,0.0387570150196552],"min":[-0.04551269859076,0.0283311121165752,-0.03869841620326],"type":"VEC3"},{"bufferView":21,"byteOffset":0,"componentType":5126,"count":39,"type":"VEC3"},{"bufferView":22,"byteOffset":0,"componentType":5126,"count":39,"type":"VEC4"},{"bufferView":23,"byteOffset":0,"componentType":5126,"count":39,"type":"VEC2"},{"bufferView":24,"byteOffset":0,"componentType":5126,"count":39,"type":"VEC2"},{"bufferView":25,"byteOffset":0,"componentType":5123,"count":2016,"type":"SCALAR"},{"bufferView":26,"byteOffset":0,"componentType":5126,"count":409,"max":[0.0459936261177063,0.278624534606934,0.0459860153496265],"min":[-0.04598389193416,0.00073516502743586,-0.04598601534963],"type":"VEC3"},{"bufferView":27,"byteOffset":0,"componentType":5126,"count":409,"type":"VEC3"},{"bufferView":28,"byteOffset":0,"componentType":5126,"count":409,"type":"VEC4"},{"bufferView":29,"byteOffset":0,"componentType":5126,"count":409,"type":"VEC2"},{"bufferView":30,"byteOffset":0,"componentType":5126,"count":409,"type":"VEC2"},{"bufferView":31,"byteOffset":0,"componentType":5123,"count":1638,"type":"SCALAR"},{"bufferView":32,"byteOffset":0,"componentType":5126,"count":345,"max":[0.0459936261177063,0.278798282146454,0.0459860153496265],"min":[-0.04598389193416,0.00073516502743586,-0.04598601534963],"type":"VEC3"},{"bufferView":33,"byteOffset":0,"componentType":5126,"count":345,"type":"VEC3"},{"bufferView":34,"byteOffset":0,"componentType":5126,"count":345,"type":"VEC4"},{"bufferView":35,"byteOffset":0,"componentType":5126,"count":345,"type":"VEC2"},{"bufferView":36,"byteOffset":0,"componentType":5126,"count":345,"type":"VEC2"},{"bufferView":37,"byteOffset":0,"componentType":5123,"count":1134,"type":"SCALAR"},{"bufferView":38,"byteOffset":0,"componentType":5126,"count":252,"max":[0.0459936261177063,0.27901092171669,0.0459860153496265],"min":[-0.04598389193416,0.00073516502743586,-0.04598601534963],"type":"VEC3"},{"bufferView":39,"byteOffset":0,"componentType":5126,"count":252,"type":"VEC3"},{"bufferView":40,"byteOffset":0,"componentType":5126,"count":252,"type":"VEC4"},{"bufferView":41,"byteOffset":0,"componentType":5126,"count":252,"type":"VEC2"},{"bufferView":42,"byteOffset":0,"componentType":5126,"count":252,"type":"VEC2"},{"bufferView":43,"byteOffset":0,"componentType":5123,"count":573,"type":"SCALAR"},{"bufferView":44,"byteOffset":0,"componentType":5126,"count":136,"max":[0.0459936261177063,0.279231041669846,0.0459748357534409],"min":[-0.04596196860075,0.00073516927659511,-0.04600431025028],"type":"VEC3"},{"bufferView":45,"byteOffset":0,"componentType":5126,"count":136,"type":"VEC3"},{"bufferView":46,"byteOffset":0,"componentType":5126,"count":136,"type":"VEC4"},{"bufferView":47,"byteOffset":0,"componentType":5126,"count":136,"type":"VEC2"},{"bufferView":48,"byteOffset":0,"componentType":5126,"count":136,"type":"VEC2"},{"bufferView":49,"byteOffset":0,"componentType":5123,"count":168,"type":"SCALAR"},{"bufferView":50,"byteOffset":0,"componentType":5126,"count":162,"max":[0.0445108562707901,0.302608400583267,0.0441771261394024],"min":[-0.04533464834094,0.00604555336758494,-0.04522805660963],"type":"VEC3"},{"bufferView":51,"byteOffset":0,"componentType":5126,"count":162,"type":"VEC3"},{"bufferView":52,"byteOffset":0,"componentType":5126,"count":162,"type":"VEC2"},{"bufferView":53,"byteOffset":0,"componentType":5126,"count":162,"type":"VEC2"}],"animations":[{"channels":[],"name":"Unreal Take","samplers":[]}],"asset":{"generator":"FBX2glTF v0.13.0","version":"2.0"},"bufferViews":[{"buffer":0,"byteLength":4,"byteOffset":0},{"buffer":0,"byteLength":1344,"byteOffset":4,"target":34963},{"buffer":0,"byteLength":1848,"byteOffset":1348,"target":34962},{"buffer":0,"byteLength":1848,"byteOffset":3196,"target":34962},{"buffer":0,"byteLength":2464,"byteOffset":5044,"target":34962},{"buffer":0,"byteLength":1232,"byteOffset":7508,"target":34962},{"buffer":0,"byteLength":1232,"byteOffset":8740,"target":34962},{"buffer":0,"byteLength":756,"byteOffset":9972,"target":34963},{"buffer":0,"byteLength":1224,"byteOffset":10728,"target":34962},{"buffer":0,"byteLength":1224,"byteOffset":11952,"target":34962},{"buffer":0,"byteLength":1632,"byteOffset":13176,"target":34962},{"buffer":0,"byteLength":816,"byteOffset":14808,"target":34962},{"buffer":0,"byteLength":816,"byteOffset":15624,"target":34962},{"buffer":0,"byteLength":420,"byteOffset":16440,"target":34963},{"buffer":0,"byteLength":768,"byteOffset":16860,"target":34962},{"buffer":0,"byteLength":768,"byteOffset":17628,"target":34962},{"buffer":0,"byteLength":1024,"byteOffset":18396,"target":34962},{"buffer":0,"byteLength":512,"byteOffset":19420,"target":34962},{"buffer":0,"byteLength":512,"byteOffset":19932,"target":34962},{"buffer":0,"byteLength":198,"byteOffset":20444,"target":34963},{"buffer":0,"byteLength":468,"byteOffset":20644,"target":34962},{"buffer":0,"byteLength":468,"byteOffset":21112,"target":34962},{"buffer":0,"byteLength":624,"byteOffset":21580,"target":34962},{"buffer":0,"byteLength":312,"byteOffset":22204,"target":34962},{"buffer":0,"byteLength":312,"byteOffset":22516,"target":34962},{"buffer":0,"byteLength":4032,"byteOffset":22828,"target":34963},{"buffer":0,"byteLength":4908,"byteOffset":26860,"target":34962},{"buffer":0,"byteLength":4908,"byteOffset":31768,"target":34962},{"buffer":0,"byteLength":6544,"byteOffset":36676,"target":34962},{"buffer":0,"byteLength":3272,"byteOffset":43220,"target":34962},{"buffer":0,"byteLength":3272,"byteOffset":46492,"target":34962},{"buffer":0,"byteLength":3276,"byteOffset":49764,"target":34963},{"buffer":0,"byteLength":4140,"byteOffset":53040,"target":34962},{"buffer":0,"byteLength":4140,"byteOffset":57180,"target":34962},{"buffer":0,"byteLength":5520,"byteOffset":61320,"target":34962},{"buffer":0,"byteLength":2760,"byteOffset":66840,"target":34962},{"buffer":0,"byteLength":2760,"byteOffset":69600,"target":34962},{"buffer":0,"byteLength":2268,"byteOffset":72360,"target":34963},{"buffer":0,"byteLength":3024,"byteOffset":74628,"target":34962},{"buffer":0,"byteLength":3024,"byteOffset":77652,"target":34962},{"buffer":0,"byteLength":4032,"byteOffset":80676,"target":34962},{"buffer":0,"byteLength":2016,"byteOffset":84708,"target":34962},{"buffer":0,"byteLength":2016,"byteOffset":86724,"target":34962},{"buffer":0,"byteLength":1146,"byteOffset":88740,"target":34963},{"buffer":0,"byteLength":1632,"byteOffset":89888,"target":34962},{"buffer":0,"byteLength":1632,"byteOffset":91520,"target":34962},{"buffer":0,"byteLength":2176,"byteOffset":93152,"target":34962},{"buffer":0,"byteLength":1088,"byteOffset":95328,"target":34962},{"buffer":0,"byteLength":1088,"byteOffset":96416,"target":34962},{"buffer":0,"byteLength":336,"byteOffset":97504,"target":34963},{"buffer":0,"byteLength":1944,"byteOffset":97840,"target":34962},{"buffer":0,"byteLength":1944,"byteOffset":99784,"target":34962},{"buffer":0,"byteLength":1296,"byteOffset":101728,"target":34962},{"buffer":0,"byteLength":1296,"byteOffset":103024,"target":34962}],"buffers":[{"byteLength":104320,"uri":"SM_Bottles_05.bin"}],"images":[{"name":"T_Bottles_N","uri":"T_Bottles_N.tga"},{"name":"T_Bottles_Glass_N","uri":"T_Bottles_Glass_N.tga"}],"materials":[{"alphaMode":"OPAQUE","doubleSided":false,"extras":{"fromFBX":{"isTruePBR":false,"shadingModel":"Phong"}},"name":"MI_Bottles","normalTexture":{"index":0,"texCoord":0},"pbrMetallicRoughness":{"baseColorFactor":[0.21586050093174,0.21586050093174,0.21586050093174,1],"metallicFactor":0.400000005960464,"roughnessFactor":0.301511347293854}},{"alphaMode":"OPAQUE","doubleSided":false,"extras":{"fromFBX":{"isTruePBR":false,"shadingModel":"Phong"}},"name":"MI_Bottles_Glass_1","normalTexture":{"index":1,"texCoord":0},"pbrMetallicRoughness":{"baseColorFactor":[0.21586050093174,0.21586050093174,0.21586050093174,1],"metallicFactor":0.400000005960464,"roughnessFactor":0.301511347293854}},{"alphaMode":"OPAQUE","doubleSided":false,"extras":{"fromFBX":{"isTruePBR":false,"shadingModel":"Lambert"}},"name":"DefaultMaterial","pbrMetallicRoughness":{"baseColorFactor":[0.5,0.5,0.5,1],"metallicFactor":0.200000002980232,"roughnessFactor":0.800000011920929}}],"meshes":[{"name":"SM_Bottles_05_LOD0","primitives":[{"attributes":{"NORMAL":3,"POSITION":2,"TANGENT":4,"TEXCOORD_0":5,"TEXCOORD_1":6},"indices":1,"material":0,"mode":4},{"attributes":{"NORMAL":27,"POSITION":26,"TANGENT":28,"TEXCOORD_0":29,"TEXCOORD_1":30},"indices":25,"material":1,"mode":4}]},{"name":"SM_Bottles_05_LOD1","primitives":[{"attributes":{"NORMAL":9,"POSITION":8,"TANGENT":10,"TEXCOORD_0":11,"TEXCOORD_1":12},"indices":7,"material":0,"mode":4},{"attributes":{"NORMAL":33,"POSITION":32,"TANGENT":34,"TEXCOORD_0":35,"TEXCOORD_1":36},"indices":31,"material":1,"mode":4}]},{"name":"SM_Bottles_05_LOD2","primitives":[{"attributes":{"NORMAL":15,"POSITION":14,"TANGENT":16,"TEXCOORD_0":17,"TEXCOORD_1":18},"indices":13,"material":0,"mode":4},{"attributes":{"NORMAL":39,"POSITION":38,"TANGENT":40,"TEXCOORD_0":41,"TEXCOORD_1":42},"indices":37,"material":1,"mode":4}]},{"name":"SM_Bottles_05_LOD3","primitives":[{"attributes":{"NORMAL":21,"POSITION":20,"TANGENT":22,"TEXCOORD_0":23,"TEXCOORD_1":24},"indices":19,"material":0,"mode":4},{"attributes":{"NORMAL":45,"POSITION":44,"TANGENT":46,"TEXCOORD_0":47,"TEXCOORD_1":48},"indices":43,"material":1,"mode":4}]},{"name":"SM_Bottles_05_ConvexHulls","primitives":[{"attributes":{"NORMAL":51,"POSITION":50,"TEXCOORD_0":52,"TEXCOORD_1":53},"indices":49,"material":2,"mode":4}]}],"nodes":[{"children":[1,2,3,4,5],"name":"SM_Bottles_71","originalUnits":0.00999999977648258,"pivot":[0,0,0],"rotation":[0,0,0,1],"scale":[1,1,1],"translation":[0,0,0]},{"mesh":0,"name":"SM_Bottles_05_LOD0","originalUnits":0.00999999977648258,"pivot":[0,0,0],"rotation":[0,0,0,1],"scale":[1,1,1],"translation":[0,0,0]},{"mesh":4,"name":"SM_Bottles_05_ConvexHulls","originalUnits":0.00999999977648258,"pivot":[0,0,0],"rotation":[0,0,0,1],"scale":[1,1,1],"translation":[0,0,0]},{"mesh":1,"name":"SM_Bottles_05_LOD1","originalUnits":0.00999999977648258,"pivot":[0,0,0],"rotation":[0,0,0,1],"scale":[1,1,1],"translation":[0,0,0]},{"mesh":2,"name":"SM_Bottles_05_LOD2","originalUnits":0.00999999977648258,"pivot":[0,0,0],"rotation":[0,0,0,1],"scale":[1,1,1],"translation":[0,0,0]},{"mesh":3,"name":"SM_Bottles_05_LOD3","originalUnits":0.00999999977648258,"pivot":[0,0,0],"rotation":[0,0,0,1],"scale":[1,1,1],"translation":[0,0,0]}],"samplers":[{}],"scene":0,"scenes":[{"name":"Root Scene","nodes":[0]}],"textures":[{"name":"T_Bottles_N","sampler":0,"source":0},{"name":"T_Bottles_Glass_N","sampler":0,"source":1}]}