{"accessors":[{"bufferView":0,"byteOffset":0,"componentType":5126,"count":1,"max":[0],"min":[0],"type":"SCALAR"},{"bufferView":1,"byteOffset":0,"componentType":5123,"count":13620,"type":"SCALAR"},{"bufferView":2,"byteOffset":0,"componentType":5126,"count":3731,"max":[0.5065598487854,1.5105220079422,0.645128011703491],"min":[-0.50656008720398,0.0128911873325706,-0.64512777328491],"type":"VEC3"},{"bufferView":3,"byteOffset":0,"componentType":5126,"count":3731,"type":"VEC3"},{"bufferView":4,"byteOffset":0,"componentType":5126,"count":3731,"type":"VEC4"},{"bufferView":5,"byteOffset":0,"componentType":5126,"count":3731,"type":"VEC2"},{"bufferView":6,"byteOffset":0,"componentType":5126,"count":3731,"type":"VEC2"},{"bufferView":7,"byteOffset":0,"componentType":5123,"count":10215,"type":"SCALAR"},{"bufferView":8,"byteOffset":0,"componentType":5126,"count":3007,"max":[0.5065598487854,1.5105220079422,0.645126461982727],"min":[-0.50656235218048,0.0128904385492206,-0.64512592554092],"type":"VEC3"},{"bufferView":9,"byteOffset":0,"componentType":5126,"count":3007,"type":"VEC3"},{"bufferView":10,"byteOffset":0,"componentType":5126,"count":3007,"type":"VEC4"},{"bufferView":11,"byteOffset":0,"componentType":5126,"count":3007,"type":"VEC2"},{"bufferView":12,"byteOffset":0,"componentType":5126,"count":3007,"type":"VEC2"},{"bufferView":13,"byteOffset":0,"componentType":5123,"count":6810,"type":"SCALAR"},{"bufferView":14,"byteOffset":0,"componentType":5126,"count":2196,"max":[0.5065598487854,1.5105220079422,0.645133435726166],"min":[-0.50705593824387,0.0121910441666842,-0.64512807130814],"type":"VEC3"},{"bufferView":15,"byteOffset":0,"componentType":5126,"count":2196,"type":"VEC3"},{"bufferView":16,"byteOffset":0,"componentType":5126,"count":2196,"type":"VEC4"},{"bufferView":17,"byteOffset":0,"componentType":5126,"count":2196,"type":"VEC2"},{"bufferView":18,"byteOffset":0,"componentType":5126,"count":2196,"type":"VEC2"},{"bufferView":19,"byteOffset":0,"componentType":5123,"count":3402,"type":"SCALAR"},{"bufferView":20,"byteOffset":0,"componentType":5126,"count":1263,"max":[0.506559789180756,1.51037931442261,0.645141899585724],"min":[-0.50705593824387,0.0145753920078278,-0.64530956745148],"type":"VEC3"},{"bufferView":21,"byteOffset":0,"componentType":5126,"count":1263,"type":"VEC3"},{"bufferView":22,"byteOffset":0,"componentType":5126,"count":1263,"type":"VEC4"},{"bufferView":23,"byteOffset":0,"componentType":5126,"count":1263,"type":"VEC2"},{"bufferView":24,"byteOffset":0,"componentType":5126,"count":1263,"type":"VEC2"},{"bufferView":25,"byteOffset":0,"componentType":5123,"count":1566,"type":"SCALAR"},{"bufferView":26,"byteOffset":0,"componentType":5126,"count":1552,"max":[0.513762235641479,1.51264691352844,0.649027526378632],"min":[-0.5131202340126,0.00781245157122612,-0.64326465129852],"type":"VEC3"},{"bufferView":27,"byteOffset":0,"componentType":5126,"count":1552,"type":"VEC3"},{"bufferView":28,"byteOffset":0,"componentType":5126,"count":1552,"type":"VEC2"},{"bufferView":29,"byteOffset":0,"componentType":5126,"count":1552,"type":"VEC2"}],"animations":[{"channels":[],"name":"Unreal Take","samplers":[]}],"asset":{"generator":"FBX2glTF v0.13.0","version":"2.0"},"bufferViews":[{"buffer":0,"byteLength":4,"byteOffset":0},{"buffer":0,"byteLength":27240,"byteOffset":4,"target":34963},{"buffer":0,"byteLength":44772,"byteOffset":27244,"target":34962},{"buffer":0,"byteLength":44772,"byteOffset":72016,"target":34962},{"buffer":0,"byteLength":59696,"byteOffset":116788,"target":34962},{"buffer":0,"byteLength":29848,"byteOffset":176484,"target":34962},{"buffer":0,"byteLength":29848,"byteOffset":206332,"target":34962},{"buffer":0,"byteLength":20430,"byteOffset":236180,"target":34963},{"buffer":0,"byteLength":36084,"byteOffset":256612,"target":34962},{"buffer":0,"byteLength":36084,"byteOffset":292696,"target":34962},{"buffer":0,"byteLength":48112,"byteOffset":328780,"target":34962},{"buffer":0,"byteLength":24056,"byteOffset":376892,"target":34962},{"buffer":0,"byteLength":24056,"byteOffset":400948,"target":34962},{"buffer":0,"byteLength":13620,"byteOffset":425004,"target":34963},{"buffer":0,"byteLength":26352,"byteOffset":438624,"target":34962},{"buffer":0,"byteLength":26352,"byteOffset":464976,"target":34962},{"buffer":0,"byteLength":35136,"byteOffset":491328,"target":34962},{"buffer":0,"byteLength":17568,"byteOffset":526464,"target":34962},{"buffer":0,"byteLength":17568,"byteOffset":544032,"target":34962},{"buffer":0,"byteLength":6804,"byteOffset":561600,"target":34963},{"buffer":0,"byteLength":15156,"byteOffset":568404,"target":34962},{"buffer":0,"byteLength":15156,"byteOffset":583560,"target":34962},{"buffer":0,"byteLength":20208,"byteOffset":598716,"target":34962},{"buffer":0,"byteLength":10104,"byteOffset":618924,"target":34962},{"buffer":0,"byteLength":10104,"byteOffset":629028,"target":34962},{"buffer":0,"byteLength":3132,"byteOffset":639132,"target":34963},{"buffer":0,"byteLength":18624,"byteOffset":642264,"target":34962},{"buffer":0,"byteLength":18624,"byteOffset":660888,"target":34962},{"buffer":0,"byteLength":12416,"byteOffset":679512,"target":34962},{"buffer":0,"byteLength":12416,"byteOffset":691928,"target":34962}],"buffers":[{"byteLength":704344,"uri":"SM_Bathroom_Sink.bin"}],"images":[{"name":"T_ToiletParts_N","uri":"T_ToiletParts_N.png"}],"materials":[{"alphaMode":"OPAQUE","doubleSided":false,"extras":{"fromFBX":{"isTruePBR":false,"shadingModel":"Phong"}},"name":"MI_ToiletParts","normalTexture":{"index":0,"texCoord":0},"pbrMetallicRoughness":{"baseColorFactor":[0.21586050093174,0.21586050093174,0.21586050093174,1],"metallicFactor":0.400000005960464,"roughnessFactor":0.301511347293854}},{"alphaMode":"OPAQUE","doubleSided":false,"extras":{"fromFBX":{"isTruePBR":false,"shadingModel":"Lambert"}},"name":"DefaultMaterial","pbrMetallicRoughness":{"baseColorFactor":[0.5,0.5,0.5,1],"metallicFactor":0.200000002980232,"roughnessFactor":0.800000011920929}}],"meshes":[{"name":"SM_Bathroom_Sink_LOD0","primitives":[{"attributes":{"NORMAL":3,"POSITION":2,"TANGENT":4,"TEXCOORD_0":5,"TEXCOORD_1":6},"indices":1,"material":0,"mode":4}]},{"name":"SM_Bathroom_Sink_LOD1","primitives":[{"attributes":{"NORMAL":9,"POSITION":8,"TANGENT":10,"TEXCOORD_0":11,"TEXCOORD_1":12},"indices":7,"material":0,"mode":4}]},{"name":"SM_Bathroom_Sink_LOD2","primitives":[{"attributes":{"NORMAL":15,"POSITION":14,"TANGENT":16,"TEXCOORD_0":17,"TEXCOORD_1":18},"indices":13,"material":0,"mode":4}]},{"name":"SM_Bathroom_Sink_LOD3","primitives":[{"attributes":{"NORMAL":21,"POSITION":20,"TANGENT":22,"TEXCOORD_0":23,"TEXCOORD_1":24},"indices":19,"material":0,"mode":4}]},{"name":"SM_Bathroom_Sink_ConvexHulls","primitives":[{"attributes":{"NORMAL":27,"POSITION":26,"TEXCOORD_0":28,"TEXCOORD_1":29},"indices":25,"material":1,"mode":4}]}],"nodes":[{"children":[1,2,3,4,5],"name":"Bathroom_Sink_20","originalUnits":0.00999999977648258,"pivot":[0,0,0],"rotation":[0,0,0,1],"scale":[1,1,1],"translation":[0,0,0]},{"mesh":0,"name":"SM_Bathroom_Sink_LOD0","originalUnits":0.00999999977648258,"pivot":[0,0,0],"rotation":[0,0,0,1],"scale":[1,1,1],"translation":[0,0,0]},{"mesh":4,"name":"SM_Bathroom_Sink_ConvexHulls","originalUnits":0.00999999977648258,"pivot":[0,0,0],"rotation":[0,0,0,1],"scale":[1,1,1],"translation":[0,0,0]},{"mesh":1,"name":"SM_Bathroom_Sink_LOD1","originalUnits":0.00999999977648258,"pivot":[0,0,0],"rotation":[0,0,0,1],"scale":[1,1,1],"translation":[0,0,0]},{"mesh":2,"name":"SM_Bathroom_Sink_LOD2","originalUnits":0.00999999977648258,"pivot":[0,0,0],"rotation":[0,0,0,1],"scale":[1,1,1],"translation":[0,0,0]},{"mesh":3,"name":"SM_Bathroom_Sink_LOD3","originalUnits":0.00999999977648258,"pivot":[0,0,0],"rotation":[0,0,0,1],"scale":[1,1,1],"translation":[0,0,0]}],"samplers":[{}],"scene":0,"scenes":[{"name":"Root Scene","nodes":[0]}],"textures":[{"name":"T_ToiletParts_N","sampler":0,"source":0}]}