{"accessors":[{"bufferView":0,"byteOffset":0,"componentType":5126,"count":1,"max":[0],"min":[0],"type":"SCALAR"},{"bufferView":1,"byteOffset":0,"componentType":5123,"count":486,"type":"SCALAR"},{"bufferView":2,"byteOffset":0,"componentType":5126,"count":122,"max":[0.0134887294843793,0.314233660697937,0.0349548310041428],"min":[-0.03824463486671,0.051092367619276,-0.03500060364604],"type":"VEC3"},{"bufferView":3,"byteOffset":0,"componentType":5126,"count":122,"type":"VEC3"},{"bufferView":4,"byteOffset":0,"componentType":5126,"count":122,"type":"VEC4"},{"bufferView":5,"byteOffset":0,"componentType":5126,"count":122,"type":"VEC2"},{"bufferView":6,"byteOffset":0,"componentType":5126,"count":122,"type":"VEC2"},{"bufferView":7,"byteOffset":0,"componentType":5123,"count":270,"type":"SCALAR"},{"bufferView":8,"byteOffset":0,"componentType":5126,"count":84,"max":[0.0131083047017455,0.314429730176926,0.0349548310041428],"min":[-0.03824463486671,0.051092367619276,-0.03500060364604],"type":"VEC3"},{"bufferView":9,"byteOffset":0,"componentType":5126,"count":84,"type":"VEC3"},{"bufferView":10,"byteOffset":0,"componentType":5126,"count":84,"type":"VEC4"},{"bufferView":11,"byteOffset":0,"componentType":5126,"count":84,"type":"VEC2"},{"bufferView":12,"byteOffset":0,"componentType":5126,"count":84,"type":"VEC2"},{"bufferView":13,"byteOffset":0,"componentType":5123,"count":162,"type":"SCALAR"},{"bufferView":14,"byteOffset":0,"componentType":5126,"count":60,"max":[0.0132488757371902,0.314524799585342,0.0349548310041428],"min":[-0.03824463486671,0.051092367619276,-0.03500060364604],"type":"VEC3"},{"bufferView":15,"byteOffset":0,"componentType":5126,"count":60,"type":"VEC3"},{"bufferView":16,"byteOffset":0,"componentType":5126,"count":60,"type":"VEC4"},{"bufferView":17,"byteOffset":0,"componentType":5126,"count":60,"type":"VEC2"},{"bufferView":18,"byteOffset":0,"componentType":5126,"count":60,"type":"VEC2"},{"bufferView":19,"byteOffset":0,"componentType":5123,"count":114,"type":"SCALAR"},{"bufferView":20,"byteOffset":0,"componentType":5126,"count":44,"max":[0.0132488757371902,0.314879417419434,0.0349548310041428],"min":[-0.03824463486671,0.0510910786688328,-0.03500060364604],"type":"VEC3"},{"bufferView":21,"byteOffset":0,"componentType":5126,"count":44,"type":"VEC3"},{"bufferView":22,"byteOffset":0,"componentType":5126,"count":44,"type":"VEC4"},{"bufferView":23,"byteOffset":0,"componentType":5126,"count":44,"type":"VEC2"},{"bufferView":24,"byteOffset":0,"componentType":5126,"count":44,"type":"VEC2"},{"bufferView":25,"byteOffset":0,"componentType":5123,"count":2016,"type":"SCALAR"},{"bufferView":26,"byteOffset":0,"componentType":5126,"count":386,"max":[0.0375439152121544,0.280309408903122,0.0375427193939686],"min":[-0.03753907233477,-0.00000030893364,-0.03754271939397],"type":"VEC3"},{"bufferView":27,"byteOffset":0,"componentType":5126,"count":386,"type":"VEC3"},{"bufferView":28,"byteOffset":0,"componentType":5126,"count":386,"type":"VEC4"},{"bufferView":29,"byteOffset":0,"componentType":5126,"count":386,"type":"VEC2"},{"bufferView":30,"byteOffset":0,"componentType":5126,"count":386,"type":"VEC2"},{"bufferView":31,"byteOffset":0,"componentType":5123,"count":1608,"type":"SCALAR"},{"bufferView":32,"byteOffset":0,"componentType":5126,"count":316,"max":[0.0375439152121544,0.280356377363205,0.0375427193939686],"min":[-0.03753907233477,-0.00000030893364,-0.03754271939397],"type":"VEC3"},{"bufferView":33,"byteOffset":0,"componentType":5126,"count":316,"type":"VEC3"},{"bufferView":34,"byteOffset":0,"componentType":5126,"count":316,"type":"VEC4"},{"bufferView":35,"byteOffset":0,"componentType":5126,"count":316,"type":"VEC2"},{"bufferView":36,"byteOffset":0,"componentType":5126,"count":316,"type":"VEC2"},{"bufferView":37,"byteOffset":0,"componentType":5123,"count":1086,"type":"SCALAR"},{"bufferView":38,"byteOffset":0,"componentType":5126,"count":225,"max":[0.0375439152121544,0.280382066965103,0.0375427193939686],"min":[-0.03753907233477,-0.00000030893364,-0.03754271939397],"type":"VEC3"},{"bufferView":39,"byteOffset":0,"componentType":5126,"count":225,"type":"VEC3"},{"bufferView":40,"byteOffset":0,"componentType":5126,"count":225,"type":"VEC4"},{"bufferView":41,"byteOffset":0,"componentType":5126,"count":225,"type":"VEC2"},{"bufferView":42,"byteOffset":0,"componentType":5126,"count":225,"type":"VEC2"},{"bufferView":43,"byteOffset":0,"componentType":5123,"count":510,"type":"SCALAR"},{"bufferView":44,"byteOffset":0,"componentType":5126,"count":114,"max":[0.0381032004952431,0.280432611703873,0.0384626872837543],"min":[-0.03803895413876,-0.0000003081845,-0.03847204893827],"type":"VEC3"},{"bufferView":45,"byteOffset":0,"componentType":5126,"count":114,"type":"VEC3"},{"bufferView":46,"byteOffset":0,"componentType":5126,"count":114,"type":"VEC4"},{"bufferView":47,"byteOffset":0,"componentType":5126,"count":114,"type":"VEC2"},{"bufferView":48,"byteOffset":0,"componentType":5126,"count":114,"type":"VEC2"},{"bufferView":49,"byteOffset":0,"componentType":5123,"count":168,"type":"SCALAR"},{"bufferView":50,"byteOffset":0,"componentType":5126,"count":160,"max":[0.0373595356941223,0.315483748912811,0.0375133268535137],"min":[-0.0367007702589,0.00518826302140951,-0.03489448875189],"type":"VEC3"},{"bufferView":51,"byteOffset":0,"componentType":5126,"count":160,"type":"VEC3"},{"bufferView":52,"byteOffset":0,"componentType":5126,"count":160,"type":"VEC2"},{"bufferView":53,"byteOffset":0,"componentType":5126,"count":160,"type":"VEC2"}],"animations":[{"channels":[],"name":"Unreal Take","samplers":[]}],"asset":{"generator":"FBX2glTF v0.13.0","version":"2.0"},"bufferViews":[{"buffer":0,"byteLength":4,"byteOffset":0},{"buffer":0,"byteLength":972,"byteOffset":4,"target":34963},{"buffer":0,"byteLength":1464,"byteOffset":976,"target":34962},{"buffer":0,"byteLength":1464,"byteOffset":2440,"target":34962},{"buffer":0,"byteLength":1952,"byteOffset":3904,"target":34962},{"buffer":0,"byteLength":976,"byteOffset":5856,"target":34962},{"buffer":0,"byteLength":976,"byteOffset":6832,"target":34962},{"buffer":0,"byteLength":540,"byteOffset":7808,"target":34963},{"buffer":0,"byteLength":1008,"byteOffset":8348,"target":34962},{"buffer":0,"byteLength":1008,"byteOffset":9356,"target":34962},{"buffer":0,"byteLength":1344,"byteOffset":10364,"target":34962},{"buffer":0,"byteLength":672,"byteOffset":11708,"target":34962},{"buffer":0,"byteLength":672,"byteOffset":12380,"target":34962},{"buffer":0,"byteLength":324,"byteOffset":13052,"target":34963},{"buffer":0,"byteLength":720,"byteOffset":13376,"target":34962},{"buffer":0,"byteLength":720,"byteOffset":14096,"target":34962},{"buffer":0,"byteLength":960,"byteOffset":14816,"target":34962},{"buffer":0,"byteLength":480,"byteOffset":15776,"target":34962},{"buffer":0,"byteLength":480,"byteOffset":16256,"target":34962},{"buffer":0,"byteLength":228,"byteOffset":16736,"target":34963},{"buffer":0,"byteLength":528,"byteOffset":16964,"target":34962},{"buffer":0,"byteLength":528,"byteOffset":17492,"target":34962},{"buffer":0,"byteLength":704,"byteOffset":18020,"target":34962},{"buffer":0,"byteLength":352,"byteOffset":18724,"target":34962},{"buffer":0,"byteLength":352,"byteOffset":19076,"target":34962},{"buffer":0,"byteLength":4032,"byteOffset":19428,"target":34963},{"buffer":0,"byteLength":4632,"byteOffset":23460,"target":34962},{"buffer":0,"byteLength":4632,"byteOffset":28092,"target":34962},{"buffer":0,"byteLength":6176,"byteOffset":32724,"target":34962},{"buffer":0,"byteLength":3088,"byteOffset":38900,"target":34962},{"buffer":0,"byteLength":3088,"byteOffset":41988,"target":34962},{"buffer":0,"byteLength":3216,"byteOffset":45076,"target":34963},{"buffer":0,"byteLength":3792,"byteOffset":48292,"target":34962},{"buffer":0,"byteLength":3792,"byteOffset":52084,"target":34962},{"buffer":0,"byteLength":5056,"byteOffset":55876,"target":34962},{"buffer":0,"byteLength":2528,"byteOffset":60932,"target":34962},{"buffer":0,"byteLength":2528,"byteOffset":63460,"target":34962},{"buffer":0,"byteLength":2172,"byteOffset":65988,"target":34963},{"buffer":0,"byteLength":2700,"byteOffset":68160,"target":34962},{"buffer":0,"byteLength":2700,"byteOffset":70860,"target":34962},{"buffer":0,"byteLength":3600,"byteOffset":73560,"target":34962},{"buffer":0,"byteLength":1800,"byteOffset":77160,"target":34962},{"buffer":0,"byteLength":1800,"byteOffset":78960,"target":34962},{"buffer":0,"byteLength":1020,"byteOffset":80760,"target":34963},{"buffer":0,"byteLength":1368,"byteOffset":81780,"target":34962},{"buffer":0,"byteLength":1368,"byteOffset":83148,"target":34962},{"buffer":0,"byteLength":1824,"byteOffset":84516,"target":34962},{"buffer":0,"byteLength":912,"byteOffset":86340,"target":34962},{"buffer":0,"byteLength":912,"byteOffset":87252,"target":34962},{"buffer":0,"byteLength":336,"byteOffset":88164,"target":34963},{"buffer":0,"byteLength":1920,"byteOffset":88500,"target":34962},{"buffer":0,"byteLength":1920,"byteOffset":90420,"target":34962},{"buffer":0,"byteLength":1280,"byteOffset":92340,"target":34962},{"buffer":0,"byteLength":1280,"byteOffset":93620,"target":34962}],"buffers":[{"byteLength":94900,"uri":"SM_Bottles_03.bin"}],"images":[{"name":"T_Bottles_N","uri":"T_Bottles_N.tga"},{"name":"T_Bottles_Glass_N","uri":"T_Bottles_Glass_N.tga"}],"materials":[{"alphaMode":"OPAQUE","doubleSided":false,"extras":{"fromFBX":{"isTruePBR":false,"shadingModel":"Phong"}},"name":"MI_Bottles","normalTexture":{"index":0,"texCoord":0},"pbrMetallicRoughness":{"baseColorFactor":[0.21586050093174,0.21586050093174,0.21586050093174,1],"metallicFactor":0.400000005960464,"roughnessFactor":0.301511347293854}},{"alphaMode":"OPAQUE","doubleSided":false,"extras":{"fromFBX":{"isTruePBR":false,"shadingModel":"Phong"}},"name":"MI_Bottles_Glass_1","normalTexture":{"index":1,"texCoord":0},"pbrMetallicRoughness":{"baseColorFactor":[0.21586050093174,0.21586050093174,0.21586050093174,1],"metallicFactor":0.400000005960464,"roughnessFactor":0.301511347293854}},{"alphaMode":"OPAQUE","doubleSided":false,"extras":{"fromFBX":{"isTruePBR":false,"shadingModel":"Lambert"}},"name":"DefaultMaterial","pbrMetallicRoughness":{"baseColorFactor":[0.5,0.5,0.5,1],"metallicFactor":0.200000002980232,"roughnessFactor":0.800000011920929}}],"meshes":[{"name":"SM_Bottles_03_LOD0","primitives":[{"attributes":{"NORMAL":3,"POSITION":2,"TANGENT":4,"TEXCOORD_0":5,"TEXCOORD_1":6},"indices":1,"material":0,"mode":4},{"attributes":{"NORMAL":27,"POSITION":26,"TANGENT":28,"TEXCOORD_0":29,"TEXCOORD_1":30},"indices":25,"material":1,"mode":4}]},{"name":"SM_Bottles_03_LOD1","primitives":[{"attributes":{"NORMAL":9,"POSITION":8,"TANGENT":10,"TEXCOORD_0":11,"TEXCOORD_1":12},"indices":7,"material":0,"mode":4},{"attributes":{"NORMAL":33,"POSITION":32,"TANGENT":34,"TEXCOORD_0":35,"TEXCOORD_1":36},"indices":31,"material":1,"mode":4}]},{"name":"SM_Bottles_03_LOD2","primitives":[{"attributes":{"NORMAL":15,"POSITION":14,"TANGENT":16,"TEXCOORD_0":17,"TEXCOORD_1":18},"indices":13,"material":0,"mode":4},{"attributes":{"NORMAL":39,"POSITION":38,"TANGENT":40,"TEXCOORD_0":41,"TEXCOORD_1":42},"indices":37,"material":1,"mode":4}]},{"name":"SM_Bottles_03_LOD3","primitives":[{"attributes":{"NORMAL":21,"POSITION":20,"TANGENT":22,"TEXCOORD_0":23,"TEXCOORD_1":24},"indices":19,"material":0,"mode":4},{"attributes":{"NORMAL":45,"POSITION":44,"TANGENT":46,"TEXCOORD_0":47,"TEXCOORD_1":48},"indices":43,"material":1,"mode":4}]},{"name":"SM_Bottles_03_ConvexHulls","primitives":[{"attributes":{"NORMAL":51,"POSITION":50,"TEXCOORD_0":52,"TEXCOORD_1":53},"indices":49,"material":2,"mode":4}]}],"nodes":[{"children":[1,2,3,4,5],"name":"SM_Bottles_03_65","originalUnits":0.00999999977648258,"pivot":[0,0,0],"rotation":[0,0,0,1],"scale":[1,1,1],"translation":[0,0,0]},{"mesh":0,"name":"SM_Bottles_03_LOD0","originalUnits":0.00999999977648258,"pivot":[0,0,0],"rotation":[0,0,0,1],"scale":[1,1,1],"translation":[0,0,0]},{"mesh":4,"name":"SM_Bottles_03_ConvexHulls","originalUnits":0.00999999977648258,"pivot":[0,0,0],"rotation":[0,0,0,1],"scale":[1,1,1],"translation":[0,0,0]},{"mesh":1,"name":"SM_Bottles_03_LOD1","originalUnits":0.00999999977648258,"pivot":[0,0,0],"rotation":[0,0,0,1],"scale":[1,1,1],"translation":[0,0,0]},{"mesh":2,"name":"SM_Bottles_03_LOD2","originalUnits":0.00999999977648258,"pivot":[0,0,0],"rotation":[0,0,0,1],"scale":[1,1,1],"translation":[0,0,0]},{"mesh":3,"name":"SM_Bottles_03_LOD3","originalUnits":0.00999999977648258,"pivot":[0,0,0],"rotation":[0,0,0,1],"scale":[1,1,1],"translation":[0,0,0]}],"samplers":[{}],"scene":0,"scenes":[{"name":"Root Scene","nodes":[0]}],"textures":[{"name":"T_Bottles_N","sampler":0,"source":0},{"name":"T_Bottles_Glass_N","sampler":0,"source":1}]}