{"accessors":[{"bufferView":0,"byteOffset":0,"componentType":5126,"count":1,"max":[0],"min":[0],"type":"SCALAR"},{"bufferView":1,"byteOffset":0,"componentType":5123,"count":8904,"type":"SCALAR"},{"bufferView":2,"byteOffset":0,"componentType":5126,"count":2302,"max":[0.147333323955536,0.724157154560089,0.229494541883469],"min":[-0.14986020326614,-0.00652146199718,-0.14733335375786],"type":"VEC3"},{"bufferView":3,"byteOffset":0,"componentType":5126,"count":2302,"type":"VEC3"},{"bufferView":4,"byteOffset":0,"componentType":5126,"count":2302,"type":"VEC4"},{"bufferView":5,"byteOffset":0,"componentType":5126,"count":2302,"type":"VEC2"},{"bufferView":6,"byteOffset":0,"componentType":5126,"count":2302,"type":"VEC2"},{"bufferView":7,"byteOffset":0,"componentType":5123,"count":7308,"type":"SCALAR"},{"bufferView":8,"byteOffset":0,"componentType":5126,"count":1984,"max":[0.147333323955536,0.724157392978668,0.229494541883469],"min":[-0.14986020326614,-0.00652229972184,-0.14733335375786],"type":"VEC3"},{"bufferView":9,"byteOffset":0,"componentType":5126,"count":1984,"type":"VEC3"},{"bufferView":10,"byteOffset":0,"componentType":5126,"count":1984,"type":"VEC4"},{"bufferView":11,"byteOffset":0,"componentType":5126,"count":1984,"type":"VEC2"},{"bufferView":12,"byteOffset":0,"componentType":5126,"count":1984,"type":"VEC2"},{"bufferView":13,"byteOffset":0,"componentType":5123,"count":5013,"type":"SCALAR"},{"bufferView":14,"byteOffset":0,"componentType":5126,"count":1448,"max":[0.147196993231773,0.724157392978668,0.229494541883469],"min":[-0.14986020326614,-0.00660073151812,-0.14717566967011],"type":"VEC3"},{"bufferView":15,"byteOffset":0,"componentType":5126,"count":1448,"type":"VEC3"},{"bufferView":16,"byteOffset":0,"componentType":5126,"count":1448,"type":"VEC4"},{"bufferView":17,"byteOffset":0,"componentType":5126,"count":1448,"type":"VEC2"},{"bufferView":18,"byteOffset":0,"componentType":5126,"count":1448,"type":"VEC2"},{"bufferView":19,"byteOffset":0,"componentType":5123,"count":2631,"type":"SCALAR"},{"bufferView":20,"byteOffset":0,"componentType":5126,"count":870,"max":[0.147139236330986,0.724366664886475,0.229557529091835],"min":[-0.15052270889282,-0.00718568032607,-0.14859674870968],"type":"VEC3"},{"bufferView":21,"byteOffset":0,"componentType":5126,"count":870,"type":"VEC3"},{"bufferView":22,"byteOffset":0,"componentType":5126,"count":870,"type":"VEC4"},{"bufferView":23,"byteOffset":0,"componentType":5126,"count":870,"type":"VEC2"},{"bufferView":24,"byteOffset":0,"componentType":5126,"count":870,"type":"VEC2"},{"bufferView":25,"byteOffset":0,"componentType":5123,"count":6000,"type":"SCALAR"},{"bufferView":26,"byteOffset":0,"componentType":5126,"count":1184,"max":[0.120358169078827,0.655461966991425,0.12035795301199],"min":[-0.12035831809044,0.446100264787674,-0.1203581020236],"type":"VEC3"},{"bufferView":27,"byteOffset":0,"componentType":5126,"count":1184,"type":"VEC3"},{"bufferView":28,"byteOffset":0,"componentType":5126,"count":1184,"type":"VEC4"},{"bufferView":29,"byteOffset":0,"componentType":5126,"count":1184,"type":"VEC2"},{"bufferView":30,"byteOffset":0,"componentType":5126,"count":1184,"type":"VEC2"},{"bufferView":31,"byteOffset":0,"componentType":5123,"count":3870,"type":"SCALAR"},{"bufferView":32,"byteOffset":0,"componentType":5126,"count":814,"max":[0.120358169078827,0.655461966991425,0.12035795301199],"min":[-0.12035831809044,0.446099996566772,-0.1203581020236],"type":"VEC3"},{"bufferView":33,"byteOffset":0,"componentType":5126,"count":814,"type":"VEC3"},{"bufferView":34,"byteOffset":0,"componentType":5126,"count":814,"type":"VEC4"},{"bufferView":35,"byteOffset":0,"componentType":5126,"count":814,"type":"VEC2"},{"bufferView":36,"byteOffset":0,"componentType":5126,"count":814,"type":"VEC2"},{"bufferView":37,"byteOffset":0,"componentType":5123,"count":2436,"type":"SCALAR"},{"bufferView":38,"byteOffset":0,"componentType":5126,"count":543,"max":[0.120358169078827,0.655461966991425,0.12035795301199],"min":[-0.12035831809044,0.446098685264587,-0.1203581020236],"type":"VEC3"},{"bufferView":39,"byteOffset":0,"componentType":5126,"count":543,"type":"VEC3"},{"bufferView":40,"byteOffset":0,"componentType":5126,"count":543,"type":"VEC4"},{"bufferView":41,"byteOffset":0,"componentType":5126,"count":543,"type":"VEC2"},{"bufferView":42,"byteOffset":0,"componentType":5126,"count":543,"type":"VEC2"},{"bufferView":43,"byteOffset":0,"componentType":5123,"count":1092,"type":"SCALAR"},{"bufferView":44,"byteOffset":0,"componentType":5126,"count":272,"max":[0.12061358243227,0.655731976032257,0.120404295623302],"min":[-0.12028712034226,0.446137011051178,-0.12061320990324],"type":"VEC3"},{"bufferView":45,"byteOffset":0,"componentType":5126,"count":272,"type":"VEC3"},{"bufferView":46,"byteOffset":0,"componentType":5126,"count":272,"type":"VEC4"},{"bufferView":47,"byteOffset":0,"componentType":5126,"count":272,"type":"VEC2"},{"bufferView":48,"byteOffset":0,"componentType":5126,"count":272,"type":"VEC2"},{"bufferView":49,"byteOffset":0,"componentType":5123,"count":168,"type":"SCALAR"},{"bufferView":50,"byteOffset":0,"componentType":5126,"count":168,"max":[0.143927201628685,0.727549135684967,0.228844165802002],"min":[-0.14629793167114,-0.00383460544981,-0.14427193999291],"type":"VEC3"},{"bufferView":51,"byteOffset":0,"componentType":5126,"count":168,"type":"VEC3"},{"bufferView":52,"byteOffset":0,"componentType":5126,"count":168,"type":"VEC2"},{"bufferView":53,"byteOffset":0,"componentType":5126,"count":168,"type":"VEC2"}],"animations":[{"channels":[],"name":"Unreal Take","samplers":[]}],"asset":{"generator":"FBX2glTF v0.13.0","version":"2.0"},"bufferViews":[{"buffer":0,"byteLength":4,"byteOffset":0},{"buffer":0,"byteLength":17808,"byteOffset":4,"target":34963},{"buffer":0,"byteLength":27624,"byteOffset":17812,"target":34962},{"buffer":0,"byteLength":27624,"byteOffset":45436,"target":34962},{"buffer":0,"byteLength":36832,"byteOffset":73060,"target":34962},{"buffer":0,"byteLength":18416,"byteOffset":109892,"target":34962},{"buffer":0,"byteLength":18416,"byteOffset":128308,"target":34962},{"buffer":0,"byteLength":14616,"byteOffset":146724,"target":34963},{"buffer":0,"byteLength":23808,"byteOffset":161340,"target":34962},{"buffer":0,"byteLength":23808,"byteOffset":185148,"target":34962},{"buffer":0,"byteLength":31744,"byteOffset":208956,"target":34962},{"buffer":0,"byteLength":15872,"byteOffset":240700,"target":34962},{"buffer":0,"byteLength":15872,"byteOffset":256572,"target":34962},{"buffer":0,"byteLength":10026,"byteOffset":272444,"target":34963},{"buffer":0,"byteLength":17376,"byteOffset":282472,"target":34962},{"buffer":0,"byteLength":17376,"byteOffset":299848,"target":34962},{"buffer":0,"byteLength":23168,"byteOffset":317224,"target":34962},{"buffer":0,"byteLength":11584,"byteOffset":340392,"target":34962},{"buffer":0,"byteLength":11584,"byteOffset":351976,"target":34962},{"buffer":0,"byteLength":5262,"byteOffset":363560,"target":34963},{"buffer":0,"byteLength":10440,"byteOffset":368824,"target":34962},{"buffer":0,"byteLength":10440,"byteOffset":379264,"target":34962},{"buffer":0,"byteLength":13920,"byteOffset":389704,"target":34962},{"buffer":0,"byteLength":6960,"byteOffset":403624,"target":34962},{"buffer":0,"byteLength":6960,"byteOffset":410584,"target":34962},{"buffer":0,"byteLength":12000,"byteOffset":417544,"target":34963},{"buffer":0,"byteLength":14208,"byteOffset":429544,"target":34962},{"buffer":0,"byteLength":14208,"byteOffset":443752,"target":34962},{"buffer":0,"byteLength":18944,"byteOffset":457960,"target":34962},{"buffer":0,"byteLength":9472,"byteOffset":476904,"target":34962},{"buffer":0,"byteLength":9472,"byteOffset":486376,"target":34962},{"buffer":0,"byteLength":7740,"byteOffset":495848,"target":34963},{"buffer":0,"byteLength":9768,"byteOffset":503588,"target":34962},{"buffer":0,"byteLength":9768,"byteOffset":513356,"target":34962},{"buffer":0,"byteLength":13024,"byteOffset":523124,"target":34962},{"buffer":0,"byteLength":6512,"byteOffset":536148,"target":34962},{"buffer":0,"byteLength":6512,"byteOffset":542660,"target":34962},{"buffer":0,"byteLength":4872,"byteOffset":549172,"target":34963},{"buffer":0,"byteLength":6516,"byteOffset":554044,"target":34962},{"buffer":0,"byteLength":6516,"byteOffset":560560,"target":34962},{"buffer":0,"byteLength":8688,"byteOffset":567076,"target":34962},{"buffer":0,"byteLength":4344,"byteOffset":575764,"target":34962},{"buffer":0,"byteLength":4344,"byteOffset":580108,"target":34962},{"buffer":0,"byteLength":2184,"byteOffset":584452,"target":34963},{"buffer":0,"byteLength":3264,"byteOffset":586636,"target":34962},{"buffer":0,"byteLength":3264,"byteOffset":589900,"target":34962},{"buffer":0,"byteLength":4352,"byteOffset":593164,"target":34962},{"buffer":0,"byteLength":2176,"byteOffset":597516,"target":34962},{"buffer":0,"byteLength":2176,"byteOffset":599692,"target":34962},{"buffer":0,"byteLength":336,"byteOffset":601868,"target":34963},{"buffer":0,"byteLength":2016,"byteOffset":602204,"target":34962},{"buffer":0,"byteLength":2016,"byteOffset":604220,"target":34962},{"buffer":0,"byteLength":1344,"byteOffset":606236,"target":34962},{"buffer":0,"byteLength":1344,"byteOffset":607580,"target":34962}],"buffers":[{"byteLength":608924,"uri":"SM_Blender.bin"}],"images":[{"name":"FlatNormal","uri":"FlatNormal.tga"}],"materials":[{"alphaMode":"OPAQUE","doubleSided":false,"extras":{"fromFBX":{"isTruePBR":false,"shadingModel":"Phong"}},"name":"MI_Kitchen_Props_A","normalTexture":{"index":0,"texCoord":0},"pbrMetallicRoughness":{"baseColorFactor":[0.21586050093174,0.21586050093174,0.21586050093174,1],"metallicFactor":0.400000005960464,"roughnessFactor":0.301511347293854}},{"alphaMode":"OPAQUE","doubleSided":false,"extras":{"fromFBX":{"isTruePBR":false,"shadingModel":"Phong"}},"name":"MM_Glass02","pbrMetallicRoughness":{"baseColorFactor":[0.3515625,0.466287314891815,0.5,0],"metallicFactor":0.400000005960464,"roughnessFactor":0.301511347293854}},{"alphaMode":"OPAQUE","doubleSided":false,"extras":{"fromFBX":{"isTruePBR":false,"shadingModel":"Lambert"}},"name":"DefaultMaterial","pbrMetallicRoughness":{"baseColorFactor":[0.5,0.5,0.5,1],"metallicFactor":0.200000002980232,"roughnessFactor":0.800000011920929}}],"meshes":[{"name":"SM_Blender_LOD0","primitives":[{"attributes":{"NORMAL":3,"POSITION":2,"TANGENT":4,"TEXCOORD_0":5,"TEXCOORD_1":6},"indices":1,"material":0,"mode":4},{"attributes":{"NORMAL":27,"POSITION":26,"TANGENT":28,"TEXCOORD_0":29,"TEXCOORD_1":30},"indices":25,"material":1,"mode":4}]},{"name":"SM_Blender_LOD1","primitives":[{"attributes":{"NORMAL":9,"POSITION":8,"TANGENT":10,"TEXCOORD_0":11,"TEXCOORD_1":12},"indices":7,"material":0,"mode":4},{"attributes":{"NORMAL":33,"POSITION":32,"TANGENT":34,"TEXCOORD_0":35,"TEXCOORD_1":36},"indices":31,"material":1,"mode":4}]},{"name":"SM_Blender_LOD2","primitives":[{"attributes":{"NORMAL":15,"POSITION":14,"TANGENT":16,"TEXCOORD_0":17,"TEXCOORD_1":18},"indices":13,"material":0,"mode":4},{"attributes":{"NORMAL":39,"POSITION":38,"TANGENT":40,"TEXCOORD_0":41,"TEXCOORD_1":42},"indices":37,"material":1,"mode":4}]},{"name":"SM_Blender_LOD3","primitives":[{"attributes":{"NORMAL":21,"POSITION":20,"TANGENT":22,"TEXCOORD_0":23,"TEXCOORD_1":24},"indices":19,"material":0,"mode":4},{"attributes":{"NORMAL":45,"POSITION":44,"TANGENT":46,"TEXCOORD_0":47,"TEXCOORD_1":48},"indices":43,"material":1,"mode":4}]},{"name":"SM_Blender_ConvexHulls","primitives":[{"attributes":{"NORMAL":51,"POSITION":50,"TEXCOORD_0":52,"TEXCOORD_1":53},"indices":49,"material":2,"mode":4}]}],"nodes":[{"children":[1,2,3,4,5],"name":"Kitchen_Props_A_Blender_41","originalUnits":0.00999999977648258,"pivot":[0,0,0],"rotation":[0,0,0,1],"scale":[1,1,1],"translation":[0,0,0]},{"mesh":0,"name":"SM_Blender_LOD0","originalUnits":0.00999999977648258,"pivot":[0,0,0],"rotation":[0,0,0,1],"scale":[1,1,1],"translation":[0,0,0]},{"mesh":4,"name":"SM_Blender_ConvexHulls","originalUnits":0.00999999977648258,"pivot":[0,0,0],"rotation":[0,0,0,1],"scale":[1,1,1],"translation":[0,0,0]},{"mesh":1,"name":"SM_Blender_LOD1","originalUnits":0.00999999977648258,"pivot":[0,0,0],"rotation":[0,0,0,1],"scale":[1,1,1],"translation":[0,0,0]},{"mesh":2,"name":"SM_Blender_LOD2","originalUnits":0.00999999977648258,"pivot":[0,0,0],"rotation":[0,0,0,1],"scale":[1,1,1],"translation":[0,0,0]},{"mesh":3,"name":"SM_Blender_LOD3","originalUnits":0.00999999977648258,"pivot":[0,0,0],"rotation":[0,0,0,1],"scale":[1,1,1],"translation":[0,0,0]}],"samplers":[{}],"scene":0,"scenes":[{"name":"Root Scene","nodes":[0]}],"textures":[{"name":"T_Default_N","sampler":0,"source":0}]}