{"accessors":[{"bufferView":0,"byteOffset":0,"componentType":5126,"count":1,"max":[0],"min":[0],"type":"SCALAR"},{"bufferView":1,"byteOffset":0,"componentType":5123,"count":28158,"type":"SCALAR"},{"bufferView":2,"byteOffset":0,"componentType":5126,"count":4935,"max":[0.919592797756195,1.35503661632538,1.55607712268829],"min":[-0.91959923505783,-0.01644464768469,-1.52946579456329],"type":"VEC3"},{"bufferView":3,"byteOffset":0,"componentType":5126,"count":4935,"type":"VEC3"},{"bufferView":4,"byteOffset":0,"componentType":5126,"count":4935,"type":"VEC4"},{"bufferView":5,"byteOffset":0,"componentType":5126,"count":4935,"type":"VEC2"},{"bufferView":6,"byteOffset":0,"componentType":5126,"count":4935,"type":"VEC2"},{"bufferView":7,"byteOffset":0,"componentType":5123,"count":21120,"type":"SCALAR"},{"bufferView":8,"byteOffset":0,"componentType":5126,"count":3762,"max":[0.919592797756195,1.35503661632538,1.55607712268829],"min":[-0.91959923505783,-0.01644464768469,-1.52946579456329],"type":"VEC3"},{"bufferView":9,"byteOffset":0,"componentType":5126,"count":3762,"type":"VEC3"},{"bufferView":10,"byteOffset":0,"componentType":5126,"count":3762,"type":"VEC4"},{"bufferView":11,"byteOffset":0,"componentType":5126,"count":3762,"type":"VEC2"},{"bufferView":12,"byteOffset":0,"componentType":5126,"count":3762,"type":"VEC2"},{"bufferView":13,"byteOffset":0,"componentType":5123,"count":14076,"type":"SCALAR"},{"bufferView":14,"byteOffset":0,"componentType":5126,"count":2586,"max":[0.919592797756195,1.35444819927216,1.55607712268829],"min":[-0.92018973827362,-0.01708127371967,-1.53106462955475],"type":"VEC3"},{"bufferView":15,"byteOffset":0,"componentType":5126,"count":2586,"type":"VEC3"},{"bufferView":16,"byteOffset":0,"componentType":5126,"count":2586,"type":"VEC4"},{"bufferView":17,"byteOffset":0,"componentType":5126,"count":2586,"type":"VEC2"},{"bufferView":18,"byteOffset":0,"componentType":5126,"count":2586,"type":"VEC2"},{"bufferView":19,"byteOffset":0,"componentType":5123,"count":7038,"type":"SCALAR"},{"bufferView":20,"byteOffset":0,"componentType":5126,"count":1394,"max":[0.920332014560699,1.35498404502869,1.55805063247681],"min":[-0.92256581783295,-0.01945887878537,-1.53106462955475],"type":"VEC3"},{"bufferView":21,"byteOffset":0,"componentType":5126,"count":1394,"type":"VEC3"},{"bufferView":22,"byteOffset":0,"componentType":5126,"count":1394,"type":"VEC4"},{"bufferView":23,"byteOffset":0,"componentType":5126,"count":1394,"type":"VEC2"},{"bufferView":24,"byteOffset":0,"componentType":5126,"count":1394,"type":"VEC2"},{"bufferView":25,"byteOffset":0,"componentType":5123,"count":1122,"type":"SCALAR"},{"bufferView":26,"byteOffset":0,"componentType":5126,"count":1092,"max":[0.93298864364624,1.3808159828186,1.53791761398315],"min":[-0.9346569776535,-0.03615330904722,-1.51804518699646],"type":"VEC3"},{"bufferView":27,"byteOffset":0,"componentType":5126,"count":1092,"type":"VEC3"},{"bufferView":28,"byteOffset":0,"componentType":5126,"count":1092,"type":"VEC2"},{"bufferView":29,"byteOffset":0,"componentType":5126,"count":1092,"type":"VEC2"}],"animations":[{"channels":[],"name":"Unreal Take","samplers":[]}],"asset":{"generator":"FBX2glTF v0.13.0","version":"2.0"},"bufferViews":[{"buffer":0,"byteLength":4,"byteOffset":0},{"buffer":0,"byteLength":56316,"byteOffset":4,"target":34963},{"buffer":0,"byteLength":59220,"byteOffset":56320,"target":34962},{"buffer":0,"byteLength":59220,"byteOffset":115540,"target":34962},{"buffer":0,"byteLength":78960,"byteOffset":174760,"target":34962},{"buffer":0,"byteLength":39480,"byteOffset":253720,"target":34962},{"buffer":0,"byteLength":39480,"byteOffset":293200,"target":34962},{"buffer":0,"byteLength":42240,"byteOffset":332680,"target":34963},{"buffer":0,"byteLength":45144,"byteOffset":374920,"target":34962},{"buffer":0,"byteLength":45144,"byteOffset":420064,"target":34962},{"buffer":0,"byteLength":60192,"byteOffset":465208,"target":34962},{"buffer":0,"byteLength":30096,"byteOffset":525400,"target":34962},{"buffer":0,"byteLength":30096,"byteOffset":555496,"target":34962},{"buffer":0,"byteLength":28152,"byteOffset":585592,"target":34963},{"buffer":0,"byteLength":31032,"byteOffset":613744,"target":34962},{"buffer":0,"byteLength":31032,"byteOffset":644776,"target":34962},{"buffer":0,"byteLength":41376,"byteOffset":675808,"target":34962},{"buffer":0,"byteLength":20688,"byteOffset":717184,"target":34962},{"buffer":0,"byteLength":20688,"byteOffset":737872,"target":34962},{"buffer":0,"byteLength":14076,"byteOffset":758560,"target":34963},{"buffer":0,"byteLength":16728,"byteOffset":772636,"target":34962},{"buffer":0,"byteLength":16728,"byteOffset":789364,"target":34962},{"buffer":0,"byteLength":22304,"byteOffset":806092,"target":34962},{"buffer":0,"byteLength":11152,"byteOffset":828396,"target":34962},{"buffer":0,"byteLength":11152,"byteOffset":839548,"target":34962},{"buffer":0,"byteLength":2244,"byteOffset":850700,"target":34963},{"buffer":0,"byteLength":13104,"byteOffset":852944,"target":34962},{"buffer":0,"byteLength":13104,"byteOffset":866048,"target":34962},{"buffer":0,"byteLength":8736,"byteOffset":879152,"target":34962},{"buffer":0,"byteLength":8736,"byteOffset":887888,"target":34962}],"buffers":[{"byteLength":896624,"uri":"SM_Bathtub.bin"}],"images":[{"name":"T_Fill_N","uri":"T_Fill_N.png"}],"materials":[{"alphaMode":"OPAQUE","doubleSided":false,"extras":{"fromFBX":{"isTruePBR":false,"shadingModel":"Phong"}},"name":"MM_Base01","normalTexture":{"index":0,"texCoord":0},"pbrMetallicRoughness":{"baseColorFactor":[0.21586050093174,0.21586050093174,0.21586050093174,1],"metallicFactor":0.400000005960464,"roughnessFactor":0.301511347293854}},{"alphaMode":"OPAQUE","doubleSided":false,"extras":{"fromFBX":{"isTruePBR":false,"shadingModel":"Lambert"}},"name":"DefaultMaterial","pbrMetallicRoughness":{"baseColorFactor":[0.5,0.5,0.5,1],"metallicFactor":0.200000002980232,"roughnessFactor":0.800000011920929}}],"meshes":[{"name":"SM_Bathtub_LOD0","primitives":[{"attributes":{"NORMAL":3,"POSITION":2,"TANGENT":4,"TEXCOORD_0":5,"TEXCOORD_1":6},"indices":1,"material":0,"mode":4}]},{"name":"SM_Bathtub_LOD1","primitives":[{"attributes":{"NORMAL":9,"POSITION":8,"TANGENT":10,"TEXCOORD_0":11,"TEXCOORD_1":12},"indices":7,"material":0,"mode":4}]},{"name":"SM_Bathtub_LOD2","primitives":[{"attributes":{"NORMAL":15,"POSITION":14,"TANGENT":16,"TEXCOORD_0":17,"TEXCOORD_1":18},"indices":13,"material":0,"mode":4}]},{"name":"SM_Bathtub_LOD3","primitives":[{"attributes":{"NORMAL":21,"POSITION":20,"TANGENT":22,"TEXCOORD_0":23,"TEXCOORD_1":24},"indices":19,"material":0,"mode":4}]},{"name":"SM_Bathtub_ConvexHulls","primitives":[{"attributes":{"NORMAL":27,"POSITION":26,"TEXCOORD_0":28,"TEXCOORD_1":29},"indices":25,"material":1,"mode":4}]}],"nodes":[{"children":[1,2,3,4,5],"name":"Bathroom_Bathtub_2","originalUnits":0.00999999977648258,"pivot":[0,0,0],"rotation":[0,0,0,1],"scale":[1,1,1],"translation":[0,0,0]},{"mesh":0,"name":"SM_Bathtub_LOD0","originalUnits":0.00999999977648258,"pivot":[0,0,0],"rotation":[0,0,0,1],"scale":[1,1,1],"translation":[0,0,0]},{"mesh":4,"name":"SM_Bathtub_ConvexHulls","originalUnits":0.00999999977648258,"pivot":[0,0,0],"rotation":[0,0,0,1],"scale":[1,1,1],"translation":[0,0,0]},{"mesh":1,"name":"SM_Bathtub_LOD1","originalUnits":0.00999999977648258,"pivot":[0,0,0],"rotation":[0,0,0,1],"scale":[1,1,1],"translation":[0,0,0]},{"mesh":2,"name":"SM_Bathtub_LOD2","originalUnits":0.00999999977648258,"pivot":[0,0,0],"rotation":[0,0,0,1],"scale":[1,1,1],"translation":[0,0,0]},{"mesh":3,"name":"SM_Bathtub_LOD3","originalUnits":0.00999999977648258,"pivot":[0,0,0],"rotation":[0,0,0,1],"scale":[1,1,1],"translation":[0,0,0]}],"samplers":[{}],"scene":0,"scenes":[{"name":"Root Scene","nodes":[0]}],"textures":[{"name":"T_Fill_N","sampler":0,"source":0}]}