{"accessors":[{"bufferView":0,"byteOffset":0,"componentType":5126,"count":1,"max":[0],"min":[0],"type":"SCALAR"},{"bufferView":1,"byteOffset":0,"componentType":5123,"count":384,"type":"SCALAR"},{"bufferView":2,"byteOffset":0,"componentType":5126,"count":103,"max":[0.0127440905198455,0.38868311047554,0.0260333251208067],"min":[-0.0299854632467,0.0754885673522949,-0.02450255863369],"type":"VEC3"},{"bufferView":3,"byteOffset":0,"componentType":5126,"count":103,"type":"VEC3"},{"bufferView":4,"byteOffset":0,"componentType":5126,"count":103,"type":"VEC4"},{"bufferView":5,"byteOffset":0,"componentType":5126,"count":103,"type":"VEC2"},{"bufferView":6,"byteOffset":0,"componentType":5126,"count":103,"type":"VEC2"},{"bufferView":7,"byteOffset":0,"componentType":5123,"count":282,"type":"SCALAR"},{"bufferView":8,"byteOffset":0,"componentType":5126,"count":85,"max":[0.0127440905198455,0.388701558113098,0.0260333251208067],"min":[-0.0299854632467,0.0754885673522949,-0.02450255863369],"type":"VEC3"},{"bufferView":9,"byteOffset":0,"componentType":5126,"count":85,"type":"VEC3"},{"bufferView":10,"byteOffset":0,"componentType":5126,"count":85,"type":"VEC4"},{"bufferView":11,"byteOffset":0,"componentType":5126,"count":85,"type":"VEC2"},{"bufferView":12,"byteOffset":0,"componentType":5126,"count":85,"type":"VEC2"},{"bufferView":13,"byteOffset":0,"componentType":5123,"count":138,"type":"SCALAR"},{"bufferView":14,"byteOffset":0,"componentType":5126,"count":52,"max":[0.0127440905198455,0.388835966587067,0.0260333251208067],"min":[-0.0299854632467,0.0754885673522949,-0.02450255863369],"type":"VEC3"},{"bufferView":15,"byteOffset":0,"componentType":5126,"count":52,"type":"VEC3"},{"bufferView":16,"byteOffset":0,"componentType":5126,"count":52,"type":"VEC4"},{"bufferView":17,"byteOffset":0,"componentType":5126,"count":52,"type":"VEC2"},{"bufferView":18,"byteOffset":0,"componentType":5126,"count":52,"type":"VEC2"},{"bufferView":19,"byteOffset":0,"componentType":5123,"count":87,"type":"SCALAR"},{"bufferView":20,"byteOffset":0,"componentType":5126,"count":35,"max":[0.0126347038894892,0.389114767313004,0.0260333251208067],"min":[-0.0299854632467,0.0754880532622337,-0.02450255863369],"type":"VEC3"},{"bufferView":21,"byteOffset":0,"componentType":5126,"count":35,"type":"VEC3"},{"bufferView":22,"byteOffset":0,"componentType":5126,"count":35,"type":"VEC4"},{"bufferView":23,"byteOffset":0,"componentType":5126,"count":35,"type":"VEC2"},{"bufferView":24,"byteOffset":0,"componentType":5126,"count":35,"type":"VEC2"},{"bufferView":25,"byteOffset":0,"componentType":5123,"count":2448,"type":"SCALAR"},{"bufferView":26,"byteOffset":0,"componentType":5126,"count":463,"max":[0.029174767434597,0.369785100221634,0.0291778538376093],"min":[-0.02917970903218,-0.00000121902656,-0.02917785383761],"type":"VEC3"},{"bufferView":27,"byteOffset":0,"componentType":5126,"count":463,"type":"VEC3"},{"bufferView":28,"byteOffset":0,"componentType":5126,"count":463,"type":"VEC4"},{"bufferView":29,"byteOffset":0,"componentType":5126,"count":463,"type":"VEC2"},{"bufferView":30,"byteOffset":0,"componentType":5126,"count":463,"type":"VEC2"},{"bufferView":31,"byteOffset":0,"componentType":5123,"count":1842,"type":"SCALAR"},{"bufferView":32,"byteOffset":0,"componentType":5126,"count":358,"max":[0.029174767434597,0.369794368743896,0.0291778538376093],"min":[-0.02917970903218,-0.00000121902656,-0.02917785383761],"type":"VEC3"},{"bufferView":33,"byteOffset":0,"componentType":5126,"count":358,"type":"VEC3"},{"bufferView":34,"byteOffset":0,"componentType":5126,"count":358,"type":"VEC4"},{"bufferView":35,"byteOffset":0,"componentType":5126,"count":358,"type":"VEC2"},{"bufferView":36,"byteOffset":0,"componentType":5126,"count":358,"type":"VEC2"},{"bufferView":37,"byteOffset":0,"componentType":5123,"count":1275,"type":"SCALAR"},{"bufferView":38,"byteOffset":0,"componentType":5126,"count":268,"max":[0.029174767434597,0.36982050538063,0.0291778538376093],"min":[-0.02917970903218,-0.00000121902656,-0.02917785383761],"type":"VEC3"},{"bufferView":39,"byteOffset":0,"componentType":5126,"count":268,"type":"VEC3"},{"bufferView":40,"byteOffset":0,"componentType":5126,"count":268,"type":"VEC4"},{"bufferView":41,"byteOffset":0,"componentType":5126,"count":268,"type":"VEC2"},{"bufferView":42,"byteOffset":0,"componentType":5126,"count":268,"type":"VEC2"},{"bufferView":43,"byteOffset":0,"componentType":5123,"count":618,"type":"SCALAR"},{"bufferView":44,"byteOffset":0,"componentType":5126,"count":132,"max":[0.029174767434597,0.370228201150894,0.0292620081454515],"min":[-0.02930968254805,0.0000194141466636211,-0.02930684201419],"type":"VEC3"},{"bufferView":45,"byteOffset":0,"componentType":5126,"count":132,"type":"VEC3"},{"bufferView":46,"byteOffset":0,"componentType":5126,"count":132,"type":"VEC4"},{"bufferView":47,"byteOffset":0,"componentType":5126,"count":132,"type":"VEC2"},{"bufferView":48,"byteOffset":0,"componentType":5126,"count":132,"type":"VEC2"},{"bufferView":49,"byteOffset":0,"componentType":5123,"count":84,"type":"SCALAR"},{"bufferView":50,"byteOffset":0,"componentType":5126,"count":84,"max":[0.0264317654073238,0.389891564846039,0.0286351907998323],"min":[-0.0281201004982,0.0038059817161411,-0.02904953435063],"type":"VEC3"},{"bufferView":51,"byteOffset":0,"componentType":5126,"count":84,"type":"VEC3"},{"bufferView":52,"byteOffset":0,"componentType":5126,"count":84,"type":"VEC2"},{"bufferView":53,"byteOffset":0,"componentType":5126,"count":84,"type":"VEC2"}],"animations":[{"channels":[],"name":"Unreal Take","samplers":[]}],"asset":{"generator":"FBX2glTF v0.13.0","version":"2.0"},"bufferViews":[{"buffer":0,"byteLength":4,"byteOffset":0},{"buffer":0,"byteLength":768,"byteOffset":4,"target":34963},{"buffer":0,"byteLength":1236,"byteOffset":772,"target":34962},{"buffer":0,"byteLength":1236,"byteOffset":2008,"target":34962},{"buffer":0,"byteLength":1648,"byteOffset":3244,"target":34962},{"buffer":0,"byteLength":824,"byteOffset":4892,"target":34962},{"buffer":0,"byteLength":824,"byteOffset":5716,"target":34962},{"buffer":0,"byteLength":564,"byteOffset":6540,"target":34963},{"buffer":0,"byteLength":1020,"byteOffset":7104,"target":34962},{"buffer":0,"byteLength":1020,"byteOffset":8124,"target":34962},{"buffer":0,"byteLength":1360,"byteOffset":9144,"target":34962},{"buffer":0,"byteLength":680,"byteOffset":10504,"target":34962},{"buffer":0,"byteLength":680,"byteOffset":11184,"target":34962},{"buffer":0,"byteLength":276,"byteOffset":11864,"target":34963},{"buffer":0,"byteLength":624,"byteOffset":12140,"target":34962},{"buffer":0,"byteLength":624,"byteOffset":12764,"target":34962},{"buffer":0,"byteLength":832,"byteOffset":13388,"target":34962},{"buffer":0,"byteLength":416,"byteOffset":14220,"target":34962},{"buffer":0,"byteLength":416,"byteOffset":14636,"target":34962},{"buffer":0,"byteLength":174,"byteOffset":15052,"target":34963},{"buffer":0,"byteLength":420,"byteOffset":15228,"target":34962},{"buffer":0,"byteLength":420,"byteOffset":15648,"target":34962},{"buffer":0,"byteLength":560,"byteOffset":16068,"target":34962},{"buffer":0,"byteLength":280,"byteOffset":16628,"target":34962},{"buffer":0,"byteLength":280,"byteOffset":16908,"target":34962},{"buffer":0,"byteLength":4896,"byteOffset":17188,"target":34963},{"buffer":0,"byteLength":5556,"byteOffset":22084,"target":34962},{"buffer":0,"byteLength":5556,"byteOffset":27640,"target":34962},{"buffer":0,"byteLength":7408,"byteOffset":33196,"target":34962},{"buffer":0,"byteLength":3704,"byteOffset":40604,"target":34962},{"buffer":0,"byteLength":3704,"byteOffset":44308,"target":34962},{"buffer":0,"byteLength":3684,"byteOffset":48012,"target":34963},{"buffer":0,"byteLength":4296,"byteOffset":51696,"target":34962},{"buffer":0,"byteLength":4296,"byteOffset":55992,"target":34962},{"buffer":0,"byteLength":5728,"byteOffset":60288,"target":34962},{"buffer":0,"byteLength":2864,"byteOffset":66016,"target":34962},{"buffer":0,"byteLength":2864,"byteOffset":68880,"target":34962},{"buffer":0,"byteLength":2550,"byteOffset":71744,"target":34963},{"buffer":0,"byteLength":3216,"byteOffset":74296,"target":34962},{"buffer":0,"byteLength":3216,"byteOffset":77512,"target":34962},{"buffer":0,"byteLength":4288,"byteOffset":80728,"target":34962},{"buffer":0,"byteLength":2144,"byteOffset":85016,"target":34962},{"buffer":0,"byteLength":2144,"byteOffset":87160,"target":34962},{"buffer":0,"byteLength":1236,"byteOffset":89304,"target":34963},{"buffer":0,"byteLength":1584,"byteOffset":90540,"target":34962},{"buffer":0,"byteLength":1584,"byteOffset":92124,"target":34962},{"buffer":0,"byteLength":2112,"byteOffset":93708,"target":34962},{"buffer":0,"byteLength":1056,"byteOffset":95820,"target":34962},{"buffer":0,"byteLength":1056,"byteOffset":96876,"target":34962},{"buffer":0,"byteLength":168,"byteOffset":97932,"target":34963},{"buffer":0,"byteLength":1008,"byteOffset":98100,"target":34962},{"buffer":0,"byteLength":1008,"byteOffset":99108,"target":34962},{"buffer":0,"byteLength":672,"byteOffset":100116,"target":34962},{"buffer":0,"byteLength":672,"byteOffset":100788,"target":34962}],"buffers":[{"byteLength":101460,"uri":"SM_Bottles_02.bin"}],"images":[{"name":"T_Bottles_N","uri":"T_Bottles_N.tga"},{"name":"T_Bottles_Glass_N","uri":"T_Bottles_Glass_N.tga"}],"materials":[{"alphaMode":"OPAQUE","doubleSided":false,"extras":{"fromFBX":{"isTruePBR":false,"shadingModel":"Phong"}},"name":"MI_Bottles","normalTexture":{"index":0,"texCoord":0},"pbrMetallicRoughness":{"baseColorFactor":[0.21586050093174,0.21586050093174,0.21586050093174,1],"metallicFactor":0.400000005960464,"roughnessFactor":0.301511347293854}},{"alphaMode":"OPAQUE","doubleSided":false,"extras":{"fromFBX":{"isTruePBR":false,"shadingModel":"Phong"}},"name":"MI_Bottles_Glass_1","normalTexture":{"index":1,"texCoord":0},"pbrMetallicRoughness":{"baseColorFactor":[0.21586050093174,0.21586050093174,0.21586050093174,1],"metallicFactor":0.400000005960464,"roughnessFactor":0.301511347293854}},{"alphaMode":"OPAQUE","doubleSided":false,"extras":{"fromFBX":{"isTruePBR":false,"shadingModel":"Lambert"}},"name":"DefaultMaterial","pbrMetallicRoughness":{"baseColorFactor":[0.5,0.5,0.5,1],"metallicFactor":0.200000002980232,"roughnessFactor":0.800000011920929}}],"meshes":[{"name":"SM_Bottles_02_LOD0","primitives":[{"attributes":{"NORMAL":3,"POSITION":2,"TANGENT":4,"TEXCOORD_0":5,"TEXCOORD_1":6},"indices":1,"material":0,"mode":4},{"attributes":{"NORMAL":27,"POSITION":26,"TANGENT":28,"TEXCOORD_0":29,"TEXCOORD_1":30},"indices":25,"material":1,"mode":4}]},{"name":"SM_Bottles_02_LOD1","primitives":[{"attributes":{"NORMAL":9,"POSITION":8,"TANGENT":10,"TEXCOORD_0":11,"TEXCOORD_1":12},"indices":7,"material":0,"mode":4},{"attributes":{"NORMAL":33,"POSITION":32,"TANGENT":34,"TEXCOORD_0":35,"TEXCOORD_1":36},"indices":31,"material":1,"mode":4}]},{"name":"SM_Bottles_02_LOD2","primitives":[{"attributes":{"NORMAL":15,"POSITION":14,"TANGENT":16,"TEXCOORD_0":17,"TEXCOORD_1":18},"indices":13,"material":0,"mode":4},{"attributes":{"NORMAL":39,"POSITION":38,"TANGENT":40,"TEXCOORD_0":41,"TEXCOORD_1":42},"indices":37,"material":1,"mode":4}]},{"name":"SM_Bottles_02_LOD3","primitives":[{"attributes":{"NORMAL":21,"POSITION":20,"TANGENT":22,"TEXCOORD_0":23,"TEXCOORD_1":24},"indices":19,"material":0,"mode":4},{"attributes":{"NORMAL":45,"POSITION":44,"TANGENT":46,"TEXCOORD_0":47,"TEXCOORD_1":48},"indices":43,"material":1,"mode":4}]},{"name":"SM_Bottles_02_ConvexHulls","primitives":[{"attributes":{"NORMAL":51,"POSITION":50,"TEXCOORD_0":52,"TEXCOORD_1":53},"indices":49,"material":2,"mode":4}]}],"nodes":[{"children":[1,2,3,4,5],"name":"SM_Bottles_62","originalUnits":0.00999999977648258,"pivot":[0,0,0],"rotation":[0,0,0,1],"scale":[1,1,1],"translation":[0,0,0]},{"mesh":0,"name":"SM_Bottles_02_LOD0","originalUnits":0.00999999977648258,"pivot":[0,0,0],"rotation":[0,0,0,1],"scale":[1,1,1],"translation":[0,0,0]},{"mesh":4,"name":"SM_Bottles_02_ConvexHulls","originalUnits":0.00999999977648258,"pivot":[0,0,0],"rotation":[0,0,0,1],"scale":[1,1,1],"translation":[0,0,0]},{"mesh":1,"name":"SM_Bottles_02_LOD1","originalUnits":0.00999999977648258,"pivot":[0,0,0],"rotation":[0,0,0,1],"scale":[1,1,1],"translation":[0,0,0]},{"mesh":2,"name":"SM_Bottles_02_LOD2","originalUnits":0.00999999977648258,"pivot":[0,0,0],"rotation":[0,0,0,1],"scale":[1,1,1],"translation":[0,0,0]},{"mesh":3,"name":"SM_Bottles_02_LOD3","originalUnits":0.00999999977648258,"pivot":[0,0,0],"rotation":[0,0,0,1],"scale":[1,1,1],"translation":[0,0,0]}],"samplers":[{}],"scene":0,"scenes":[{"name":"Root Scene","nodes":[0]}],"textures":[{"name":"T_Bottles_N","sampler":0,"source":0},{"name":"T_Bottles_Glass_N","sampler":0,"source":1}]}