{"accessors":[{"bufferView":0,"byteOffset":0,"componentType":5126,"count":1,"max":[0],"min":[0],"type":"SCALAR"},{"bufferView":1,"byteOffset":0,"componentType":5123,"count":384,"type":"SCALAR"},{"bufferView":2,"byteOffset":0,"componentType":5126,"count":103,"max":[0.0150268245488405,0.288738042116165,0.0370318554341793],"min":[-0.04422363638878,0.0407491959631443,-0.0395495519042],"type":"VEC3"},{"bufferView":3,"byteOffset":0,"componentType":5126,"count":103,"type":"VEC3"},{"bufferView":4,"byteOffset":0,"componentType":5126,"count":103,"type":"VEC4"},{"bufferView":5,"byteOffset":0,"componentType":5126,"count":103,"type":"VEC2"},{"bufferView":6,"byteOffset":0,"componentType":5126,"count":103,"type":"VEC2"},{"bufferView":7,"byteOffset":0,"componentType":5123,"count":186,"type":"SCALAR"},{"bufferView":8,"byteOffset":0,"componentType":5126,"count":68,"max":[0.0150268245488405,0.289116472005844,0.0370318554341793],"min":[-0.04422363638878,0.0407491959631443,-0.0395495519042],"type":"VEC3"},{"bufferView":9,"byteOffset":0,"componentType":5126,"count":68,"type":"VEC3"},{"bufferView":10,"byteOffset":0,"componentType":5126,"count":68,"type":"VEC4"},{"bufferView":11,"byteOffset":0,"componentType":5126,"count":68,"type":"VEC2"},{"bufferView":12,"byteOffset":0,"componentType":5126,"count":68,"type":"VEC2"},{"bufferView":13,"byteOffset":0,"componentType":5123,"count":156,"type":"SCALAR"},{"bufferView":14,"byteOffset":0,"componentType":5126,"count":58,"max":[0.0150268245488405,0.289265692234039,0.0370318554341793],"min":[-0.04422363638878,0.0407469943165779,-0.0395495519042],"type":"VEC3"},{"bufferView":15,"byteOffset":0,"componentType":5126,"count":58,"type":"VEC3"},{"bufferView":16,"byteOffset":0,"componentType":5126,"count":58,"type":"VEC4"},{"bufferView":17,"byteOffset":0,"componentType":5126,"count":58,"type":"VEC2"},{"bufferView":18,"byteOffset":0,"componentType":5126,"count":58,"type":"VEC2"},{"bufferView":19,"byteOffset":0,"componentType":5123,"count":87,"type":"SCALAR"},{"bufferView":20,"byteOffset":0,"componentType":5126,"count":35,"max":[0.0148489261046052,0.289265692234039,0.0387871749699116],"min":[-0.04422363638878,0.0407469943165779,-0.04038620740175],"type":"VEC3"},{"bufferView":21,"byteOffset":0,"componentType":5126,"count":35,"type":"VEC3"},{"bufferView":22,"byteOffset":0,"componentType":5126,"count":35,"type":"VEC4"},{"bufferView":23,"byteOffset":0,"componentType":5126,"count":35,"type":"VEC2"},{"bufferView":24,"byteOffset":0,"componentType":5126,"count":35,"type":"VEC2"},{"bufferView":25,"byteOffset":0,"componentType":5123,"count":1536,"type":"SCALAR"},{"bufferView":26,"byteOffset":0,"componentType":5126,"count":325,"max":[0.0439330749213696,0.229265108704567,0.0439410358667374],"min":[-0.04394776374102,0.00034149165730923,-0.04394103586674],"type":"VEC3"},{"bufferView":27,"byteOffset":0,"componentType":5126,"count":325,"type":"VEC3"},{"bufferView":28,"byteOffset":0,"componentType":5126,"count":325,"type":"VEC4"},{"bufferView":29,"byteOffset":0,"componentType":5126,"count":325,"type":"VEC2"},{"bufferView":30,"byteOffset":0,"componentType":5126,"count":325,"type":"VEC2"},{"bufferView":31,"byteOffset":0,"componentType":5123,"count":1254,"type":"SCALAR"},{"bufferView":32,"byteOffset":0,"componentType":5126,"count":276,"max":[0.0439330749213696,0.229265108704567,0.0439410358667374],"min":[-0.04394776374102,0.00034149165730923,-0.04394103586674],"type":"VEC3"},{"bufferView":33,"byteOffset":0,"componentType":5126,"count":276,"type":"VEC3"},{"bufferView":34,"byteOffset":0,"componentType":5126,"count":276,"type":"VEC4"},{"bufferView":35,"byteOffset":0,"componentType":5126,"count":276,"type":"VEC2"},{"bufferView":36,"byteOffset":0,"componentType":5126,"count":276,"type":"VEC2"},{"bufferView":37,"byteOffset":0,"componentType":5123,"count":804,"type":"SCALAR"},{"bufferView":38,"byteOffset":0,"componentType":5126,"count":187,"max":[0.0439377576112747,0.229265108704567,0.0440965443849564],"min":[-0.0444469936192,0.00034288808819837,-0.04416394606233],"type":"VEC3"},{"bufferView":39,"byteOffset":0,"componentType":5126,"count":187,"type":"VEC3"},{"bufferView":40,"byteOffset":0,"componentType":5126,"count":187,"type":"VEC4"},{"bufferView":41,"byteOffset":0,"componentType":5126,"count":187,"type":"VEC2"},{"bufferView":42,"byteOffset":0,"componentType":5126,"count":187,"type":"VEC2"},{"bufferView":43,"byteOffset":0,"componentType":5123,"count":390,"type":"SCALAR"},{"bufferView":44,"byteOffset":0,"componentType":5126,"count":100,"max":[0.0445262528955936,0.229335442185402,0.0446262210607529],"min":[-0.0444469936192,0.00034288808819837,-0.04416394606233],"type":"VEC3"},{"bufferView":45,"byteOffset":0,"componentType":5126,"count":100,"type":"VEC3"},{"bufferView":46,"byteOffset":0,"componentType":5126,"count":100,"type":"VEC4"},{"bufferView":47,"byteOffset":0,"componentType":5126,"count":100,"type":"VEC2"},{"bufferView":48,"byteOffset":0,"componentType":5126,"count":100,"type":"VEC2"},{"bufferView":49,"byteOffset":0,"componentType":5123,"count":84,"type":"SCALAR"},{"bufferView":50,"byteOffset":0,"componentType":5126,"count":84,"max":[0.0431067757308483,0.289979845285416,0.0406723842024803],"min":[-0.04316657036543,0.00253797369077802,-0.0435213893652],"type":"VEC3"},{"bufferView":51,"byteOffset":0,"componentType":5126,"count":84,"type":"VEC3"},{"bufferView":52,"byteOffset":0,"componentType":5126,"count":84,"type":"VEC2"},{"bufferView":53,"byteOffset":0,"componentType":5126,"count":84,"type":"VEC2"}],"animations":[{"channels":[],"name":"Unreal Take","samplers":[]}],"asset":{"generator":"FBX2glTF v0.13.0","version":"2.0"},"bufferViews":[{"buffer":0,"byteLength":4,"byteOffset":0},{"buffer":0,"byteLength":768,"byteOffset":4,"target":34963},{"buffer":0,"byteLength":1236,"byteOffset":772,"target":34962},{"buffer":0,"byteLength":1236,"byteOffset":2008,"target":34962},{"buffer":0,"byteLength":1648,"byteOffset":3244,"target":34962},{"buffer":0,"byteLength":824,"byteOffset":4892,"target":34962},{"buffer":0,"byteLength":824,"byteOffset":5716,"target":34962},{"buffer":0,"byteLength":372,"byteOffset":6540,"target":34963},{"buffer":0,"byteLength":816,"byteOffset":6912,"target":34962},{"buffer":0,"byteLength":816,"byteOffset":7728,"target":34962},{"buffer":0,"byteLength":1088,"byteOffset":8544,"target":34962},{"buffer":0,"byteLength":544,"byteOffset":9632,"target":34962},{"buffer":0,"byteLength":544,"byteOffset":10176,"target":34962},{"buffer":0,"byteLength":312,"byteOffset":10720,"target":34963},{"buffer":0,"byteLength":696,"byteOffset":11032,"target":34962},{"buffer":0,"byteLength":696,"byteOffset":11728,"target":34962},{"buffer":0,"byteLength":928,"byteOffset":12424,"target":34962},{"buffer":0,"byteLength":464,"byteOffset":13352,"target":34962},{"buffer":0,"byteLength":464,"byteOffset":13816,"target":34962},{"buffer":0,"byteLength":174,"byteOffset":14280,"target":34963},{"buffer":0,"byteLength":420,"byteOffset":14456,"target":34962},{"buffer":0,"byteLength":420,"byteOffset":14876,"target":34962},{"buffer":0,"byteLength":560,"byteOffset":15296,"target":34962},{"buffer":0,"byteLength":280,"byteOffset":15856,"target":34962},{"buffer":0,"byteLength":280,"byteOffset":16136,"target":34962},{"buffer":0,"byteLength":3072,"byteOffset":16416,"target":34963},{"buffer":0,"byteLength":3900,"byteOffset":19488,"target":34962},{"buffer":0,"byteLength":3900,"byteOffset":23388,"target":34962},{"buffer":0,"byteLength":5200,"byteOffset":27288,"target":34962},{"buffer":0,"byteLength":2600,"byteOffset":32488,"target":34962},{"buffer":0,"byteLength":2600,"byteOffset":35088,"target":34962},{"buffer":0,"byteLength":2508,"byteOffset":37688,"target":34963},{"buffer":0,"byteLength":3312,"byteOffset":40196,"target":34962},{"buffer":0,"byteLength":3312,"byteOffset":43508,"target":34962},{"buffer":0,"byteLength":4416,"byteOffset":46820,"target":34962},{"buffer":0,"byteLength":2208,"byteOffset":51236,"target":34962},{"buffer":0,"byteLength":2208,"byteOffset":53444,"target":34962},{"buffer":0,"byteLength":1608,"byteOffset":55652,"target":34963},{"buffer":0,"byteLength":2244,"byteOffset":57260,"target":34962},{"buffer":0,"byteLength":2244,"byteOffset":59504,"target":34962},{"buffer":0,"byteLength":2992,"byteOffset":61748,"target":34962},{"buffer":0,"byteLength":1496,"byteOffset":64740,"target":34962},{"buffer":0,"byteLength":1496,"byteOffset":66236,"target":34962},{"buffer":0,"byteLength":780,"byteOffset":67732,"target":34963},{"buffer":0,"byteLength":1200,"byteOffset":68512,"target":34962},{"buffer":0,"byteLength":1200,"byteOffset":69712,"target":34962},{"buffer":0,"byteLength":1600,"byteOffset":70912,"target":34962},{"buffer":0,"byteLength":800,"byteOffset":72512,"target":34962},{"buffer":0,"byteLength":800,"byteOffset":73312,"target":34962},{"buffer":0,"byteLength":168,"byteOffset":74112,"target":34963},{"buffer":0,"byteLength":1008,"byteOffset":74280,"target":34962},{"buffer":0,"byteLength":1008,"byteOffset":75288,"target":34962},{"buffer":0,"byteLength":672,"byteOffset":76296,"target":34962},{"buffer":0,"byteLength":672,"byteOffset":76968,"target":34962}],"buffers":[{"byteLength":77640,"uri":"SM_Bottles_08.bin"}],"images":[{"name":"T_Bottles_N","uri":"T_Bottles_N.tga"},{"name":"T_Bottles_Glass_N","uri":"T_Bottles_Glass_N.tga"}],"materials":[{"alphaMode":"OPAQUE","doubleSided":false,"extras":{"fromFBX":{"isTruePBR":false,"shadingModel":"Phong"}},"name":"MI_Bottles","normalTexture":{"index":0,"texCoord":0},"pbrMetallicRoughness":{"baseColorFactor":[0.21586050093174,0.21586050093174,0.21586050093174,1],"metallicFactor":0.400000005960464,"roughnessFactor":0.301511347293854}},{"alphaMode":"OPAQUE","doubleSided":false,"extras":{"fromFBX":{"isTruePBR":false,"shadingModel":"Phong"}},"name":"MI_Bottles_Glass_1","normalTexture":{"index":1,"texCoord":0},"pbrMetallicRoughness":{"baseColorFactor":[0.21586050093174,0.21586050093174,0.21586050093174,1],"metallicFactor":0.400000005960464,"roughnessFactor":0.301511347293854}},{"alphaMode":"OPAQUE","doubleSided":false,"extras":{"fromFBX":{"isTruePBR":false,"shadingModel":"Lambert"}},"name":"DefaultMaterial","pbrMetallicRoughness":{"baseColorFactor":[0.5,0.5,0.5,1],"metallicFactor":0.200000002980232,"roughnessFactor":0.800000011920929}}],"meshes":[{"name":"SM_Bottles_08_LOD0","primitives":[{"attributes":{"NORMAL":3,"POSITION":2,"TANGENT":4,"TEXCOORD_0":5,"TEXCOORD_1":6},"indices":1,"material":0,"mode":4},{"attributes":{"NORMAL":27,"POSITION":26,"TANGENT":28,"TEXCOORD_0":29,"TEXCOORD_1":30},"indices":25,"material":1,"mode":4}]},{"name":"SM_Bottles_08_LOD1","primitives":[{"attributes":{"NORMAL":9,"POSITION":8,"TANGENT":10,"TEXCOORD_0":11,"TEXCOORD_1":12},"indices":7,"material":0,"mode":4},{"attributes":{"NORMAL":33,"POSITION":32,"TANGENT":34,"TEXCOORD_0":35,"TEXCOORD_1":36},"indices":31,"material":1,"mode":4}]},{"name":"SM_Bottles_08_LOD2","primitives":[{"attributes":{"NORMAL":15,"POSITION":14,"TANGENT":16,"TEXCOORD_0":17,"TEXCOORD_1":18},"indices":13,"material":0,"mode":4},{"attributes":{"NORMAL":39,"POSITION":38,"TANGENT":40,"TEXCOORD_0":41,"TEXCOORD_1":42},"indices":37,"material":1,"mode":4}]},{"name":"SM_Bottles_08_LOD3","primitives":[{"attributes":{"NORMAL":21,"POSITION":20,"TANGENT":22,"TEXCOORD_0":23,"TEXCOORD_1":24},"indices":19,"material":0,"mode":4},{"attributes":{"NORMAL":45,"POSITION":44,"TANGENT":46,"TEXCOORD_0":47,"TEXCOORD_1":48},"indices":43,"material":1,"mode":4}]},{"name":"SM_Bottles_08_ConvexHulls","primitives":[{"attributes":{"NORMAL":51,"POSITION":50,"TEXCOORD_0":52,"TEXCOORD_1":53},"indices":49,"material":2,"mode":4}]}],"nodes":[{"children":[1,2,3,4,5],"name":"SM_Bottles_80","originalUnits":0.00999999977648258,"pivot":[0,0,0],"rotation":[0,0,0,1],"scale":[1,1,1],"translation":[0,0,0]},{"mesh":0,"name":"SM_Bottles_08_LOD0","originalUnits":0.00999999977648258,"pivot":[0,0,0],"rotation":[0,0,0,1],"scale":[1,1,1],"translation":[0,0,0]},{"mesh":4,"name":"SM_Bottles_08_ConvexHulls","originalUnits":0.00999999977648258,"pivot":[0,0,0],"rotation":[0,0,0,1],"scale":[1,1,1],"translation":[0,0,0]},{"mesh":1,"name":"SM_Bottles_08_LOD1","originalUnits":0.00999999977648258,"pivot":[0,0,0],"rotation":[0,0,0,1],"scale":[1,1,1],"translation":[0,0,0]},{"mesh":2,"name":"SM_Bottles_08_LOD2","originalUnits":0.00999999977648258,"pivot":[0,0,0],"rotation":[0,0,0,1],"scale":[1,1,1],"translation":[0,0,0]},{"mesh":3,"name":"SM_Bottles_08_LOD3","originalUnits":0.00999999977648258,"pivot":[0,0,0],"rotation":[0,0,0,1],"scale":[1,1,1],"translation":[0,0,0]}],"samplers":[{}],"scene":0,"scenes":[{"name":"Root Scene","nodes":[0]}],"textures":[{"name":"T_Bottles_N","sampler":0,"source":0},{"name":"T_Bottles_Glass_N","sampler":0,"source":1}]}