{"accessors":[{"bufferView":0,"byteOffset":0,"componentType":5126,"count":1,"max":[0],"min":[0],"type":"SCALAR"},{"bufferView":1,"byteOffset":0,"componentType":5123,"count":498,"type":"SCALAR"},{"bufferView":2,"byteOffset":0,"componentType":5126,"count":198,"max":[0.19206802546978,0.0400136858224869,0.136187449097633],"min":[-0.19206802546978,-0.00195449125022,-0.11763852089644],"type":"VEC3"},{"bufferView":3,"byteOffset":0,"componentType":5126,"count":198,"type":"VEC3"},{"bufferView":4,"byteOffset":0,"componentType":5126,"count":198,"type":"VEC4"},{"bufferView":5,"byteOffset":0,"componentType":5126,"count":198,"type":"VEC2"},{"bufferView":6,"byteOffset":0,"componentType":5126,"count":198,"type":"VEC2"},{"bufferView":7,"byteOffset":0,"componentType":5123,"count":375,"type":"SCALAR"},{"bufferView":8,"byteOffset":0,"componentType":5126,"count":157,"max":[0.19206802546978,0.0400136858224869,0.136187449097633],"min":[-0.19194579124451,-0.00195449125022,-0.11753763258457],"type":"VEC3"},{"bufferView":9,"byteOffset":0,"componentType":5126,"count":157,"type":"VEC3"},{"bufferView":10,"byteOffset":0,"componentType":5126,"count":157,"type":"VEC4"},{"bufferView":11,"byteOffset":0,"componentType":5126,"count":157,"type":"VEC2"},{"bufferView":12,"byteOffset":0,"componentType":5126,"count":157,"type":"VEC2"},{"bufferView":13,"byteOffset":0,"componentType":5123,"count":249,"type":"SCALAR"},{"bufferView":14,"byteOffset":0,"componentType":5126,"count":116,"max":[0.192098423838615,0.0400136858224869,0.135912120342255],"min":[-0.19194579124451,-0.00195449125022,-0.11753763258457],"type":"VEC3"},{"bufferView":15,"byteOffset":0,"componentType":5126,"count":116,"type":"VEC3"},{"bufferView":16,"byteOffset":0,"componentType":5126,"count":116,"type":"VEC4"},{"bufferView":17,"byteOffset":0,"componentType":5126,"count":116,"type":"VEC2"},{"bufferView":18,"byteOffset":0,"componentType":5126,"count":116,"type":"VEC2"},{"bufferView":19,"byteOffset":0,"componentType":5123,"count":126,"type":"SCALAR"},{"bufferView":20,"byteOffset":0,"componentType":5126,"count":73,"max":[0.190195381641388,0.039305541664362,0.135970696806908],"min":[-0.19101445376873,-0.00495631899685,-0.11727190762758],"type":"VEC3"},{"bufferView":21,"byteOffset":0,"componentType":5126,"count":73,"type":"VEC3"},{"bufferView":22,"byteOffset":0,"componentType":5126,"count":73,"type":"VEC4"},{"bufferView":23,"byteOffset":0,"componentType":5126,"count":73,"type":"VEC2"},{"bufferView":24,"byteOffset":0,"componentType":5126,"count":73,"type":"VEC2"},{"bufferView":25,"byteOffset":0,"componentType":5123,"count":108,"type":"SCALAR"},{"bufferView":26,"byteOffset":0,"componentType":5126,"count":62,"max":[0.192783981561661,0.0410136878490448,0.13718743622303],"min":[-0.19343747198582,-0.00295450538397,-0.11869421601296],"type":"VEC3"},{"bufferView":27,"byteOffset":0,"componentType":5126,"count":62,"type":"VEC3"},{"bufferView":28,"byteOffset":0,"componentType":5126,"count":62,"type":"VEC2"},{"bufferView":29,"byteOffset":0,"componentType":5126,"count":62,"type":"VEC2"}],"animations":[{"channels":[],"name":"Unreal Take","samplers":[]}],"asset":{"generator":"FBX2glTF v0.13.0","version":"2.0"},"bufferViews":[{"buffer":0,"byteLength":4,"byteOffset":0},{"buffer":0,"byteLength":996,"byteOffset":4,"target":34963},{"buffer":0,"byteLength":2376,"byteOffset":1000,"target":34962},{"buffer":0,"byteLength":2376,"byteOffset":3376,"target":34962},{"buffer":0,"byteLength":3168,"byteOffset":5752,"target":34962},{"buffer":0,"byteLength":1584,"byteOffset":8920,"target":34962},{"buffer":0,"byteLength":1584,"byteOffset":10504,"target":34962},{"buffer":0,"byteLength":750,"byteOffset":12088,"target":34963},{"buffer":0,"byteLength":1884,"byteOffset":12840,"target":34962},{"buffer":0,"byteLength":1884,"byteOffset":14724,"target":34962},{"buffer":0,"byteLength":2512,"byteOffset":16608,"target":34962},{"buffer":0,"byteLength":1256,"byteOffset":19120,"target":34962},{"buffer":0,"byteLength":1256,"byteOffset":20376,"target":34962},{"buffer":0,"byteLength":498,"byteOffset":21632,"target":34963},{"buffer":0,"byteLength":1392,"byteOffset":22132,"target":34962},{"buffer":0,"byteLength":1392,"byteOffset":23524,"target":34962},{"buffer":0,"byteLength":1856,"byteOffset":24916,"target":34962},{"buffer":0,"byteLength":928,"byteOffset":26772,"target":34962},{"buffer":0,"byteLength":928,"byteOffset":27700,"target":34962},{"buffer":0,"byteLength":252,"byteOffset":28628,"target":34963},{"buffer":0,"byteLength":876,"byteOffset":28880,"target":34962},{"buffer":0,"byteLength":876,"byteOffset":29756,"target":34962},{"buffer":0,"byteLength":1168,"byteOffset":30632,"target":34962},{"buffer":0,"byteLength":584,"byteOffset":31800,"target":34962},{"buffer":0,"byteLength":584,"byteOffset":32384,"target":34962},{"buffer":0,"byteLength":216,"byteOffset":32968,"target":34963},{"buffer":0,"byteLength":744,"byteOffset":33184,"target":34962},{"buffer":0,"byteLength":744,"byteOffset":33928,"target":34962},{"buffer":0,"byteLength":496,"byteOffset":34672,"target":34962},{"buffer":0,"byteLength":496,"byteOffset":35168,"target":34962}],"buffers":[{"byteLength":35664,"uri":"SM_BookOpen_01.bin"}],"images":[{"name":"T_Book_N","uri":"T_Book_N.tga"}],"materials":[{"alphaMode":"OPAQUE","doubleSided":false,"extras":{"fromFBX":{"isTruePBR":false,"shadingModel":"Phong"}},"name":"MI_Books","normalTexture":{"index":0,"texCoord":0},"pbrMetallicRoughness":{"baseColorFactor":[0.21586050093174,0.21586050093174,0.21586050093174,1],"metallicFactor":0.400000005960464,"roughnessFactor":0.301511347293854}},{"alphaMode":"OPAQUE","doubleSided":false,"extras":{"fromFBX":{"isTruePBR":false,"shadingModel":"Lambert"}},"name":"DefaultMaterial","pbrMetallicRoughness":{"baseColorFactor":[0.5,0.5,0.5,1],"metallicFactor":0.200000002980232,"roughnessFactor":0.800000011920929}}],"meshes":[{"name":"SM_BookOpen_01_LOD0","primitives":[{"attributes":{"NORMAL":3,"POSITION":2,"TANGENT":4,"TEXCOORD_0":5,"TEXCOORD_1":6},"indices":1,"material":0,"mode":4}]},{"name":"SM_BookOpen_01_LOD1","primitives":[{"attributes":{"NORMAL":9,"POSITION":8,"TANGENT":10,"TEXCOORD_0":11,"TEXCOORD_1":12},"indices":7,"material":0,"mode":4}]},{"name":"SM_BookOpen_01_LOD2","primitives":[{"attributes":{"NORMAL":15,"POSITION":14,"TANGENT":16,"TEXCOORD_0":17,"TEXCOORD_1":18},"indices":13,"material":0,"mode":4}]},{"name":"SM_BookOpen_01_LOD3","primitives":[{"attributes":{"NORMAL":21,"POSITION":20,"TANGENT":22,"TEXCOORD_0":23,"TEXCOORD_1":24},"indices":19,"material":0,"mode":4}]},{"name":"SM_BookOpen_01_ConvexHulls","primitives":[{"attributes":{"NORMAL":27,"POSITION":26,"TEXCOORD_0":28,"TEXCOORD_1":29},"indices":25,"material":1,"mode":4}]}],"nodes":[{"children":[1,2,3,4,5],"name":"SM_BookOpen_01_14","originalUnits":0.00999999977648258,"pivot":[0,0,0],"rotation":[0,0,0,1],"scale":[1,1,1],"translation":[0,0,0]},{"mesh":0,"name":"SM_BookOpen_01_LOD0","originalUnits":0.00999999977648258,"pivot":[0,0,0],"rotation":[0,0,0,1],"scale":[1,1,1],"translation":[0,0,0]},{"mesh":4,"name":"SM_BookOpen_01_ConvexHulls","originalUnits":0.00999999977648258,"pivot":[0,0,0],"rotation":[0,0,0,1],"scale":[1,1,1],"translation":[0,0,0]},{"mesh":1,"name":"SM_BookOpen_01_LOD1","originalUnits":0.00999999977648258,"pivot":[0,0,0],"rotation":[0,0,0,1],"scale":[1,1,1],"translation":[0,0,0]},{"mesh":2,"name":"SM_BookOpen_01_LOD2","originalUnits":0.00999999977648258,"pivot":[0,0,0],"rotation":[0,0,0,1],"scale":[1,1,1],"translation":[0,0,0]},{"mesh":3,"name":"SM_BookOpen_01_LOD3","originalUnits":0.00999999977648258,"pivot":[0,0,0],"rotation":[0,0,0,1],"scale":[1,1,1],"translation":[0,0,0]}],"samplers":[{}],"scene":0,"scenes":[{"name":"Root Scene","nodes":[0]}],"textures":[{"name":"T_Book_N","sampler":0,"source":0}]}