{"accessors":[{"bufferView":0,"byteOffset":0,"componentType":5126,"count":1,"max":[0],"min":[0],"type":"SCALAR"},{"bufferView":1,"byteOffset":0,"componentType":5123,"count":804,"type":"SCALAR"},{"bufferView":2,"byteOffset":0,"componentType":5126,"count":310,"max":[0.0993675664067268,0.351207494735718,0.0312000028789043],"min":[-0.10730198770762,-0.00000004259371,-0.03119999356568],"type":"VEC3"},{"bufferView":3,"byteOffset":0,"componentType":5126,"count":310,"type":"VEC3"},{"bufferView":4,"byteOffset":0,"componentType":5126,"count":310,"type":"VEC4"},{"bufferView":5,"byteOffset":0,"componentType":5126,"count":310,"type":"VEC2"},{"bufferView":6,"byteOffset":0,"componentType":5126,"count":310,"type":"VEC2"},{"bufferView":7,"byteOffset":0,"componentType":5123,"count":600,"type":"SCALAR"},{"bufferView":8,"byteOffset":0,"componentType":5126,"count":250,"max":[0.0993679985404015,0.351207494735718,0.0313406176865101],"min":[-0.10730198770762,-0.00000004259371,-0.03134065121412],"type":"VEC3"},{"bufferView":9,"byteOffset":0,"componentType":5126,"count":250,"type":"VEC3"},{"bufferView":10,"byteOffset":0,"componentType":5126,"count":250,"type":"VEC4"},{"bufferView":11,"byteOffset":0,"componentType":5126,"count":250,"type":"VEC2"},{"bufferView":12,"byteOffset":0,"componentType":5126,"count":250,"type":"VEC2"},{"bufferView":13,"byteOffset":0,"componentType":5123,"count":402,"type":"SCALAR"},{"bufferView":14,"byteOffset":0,"componentType":5126,"count":184,"max":[0.0993679985404015,0.351207494735718,0.0313406176865101],"min":[-0.10730198770762,-0.00000004259371,-0.03122263401747],"type":"VEC3"},{"bufferView":15,"byteOffset":0,"componentType":5126,"count":184,"type":"VEC3"},{"bufferView":16,"byteOffset":0,"componentType":5126,"count":184,"type":"VEC4"},{"bufferView":17,"byteOffset":0,"componentType":5126,"count":184,"type":"VEC2"},{"bufferView":18,"byteOffset":0,"componentType":5126,"count":184,"type":"VEC2"},{"bufferView":19,"byteOffset":0,"componentType":5123,"count":198,"type":"SCALAR"},{"bufferView":20,"byteOffset":0,"componentType":5126,"count":116,"max":[0.099412627518177,0.351341426372528,0.0312272664159536],"min":[-0.10725506395102,-0.00001585815517,-0.03122724965215],"type":"VEC3"},{"bufferView":21,"byteOffset":0,"componentType":5126,"count":116,"type":"VEC3"},{"bufferView":22,"byteOffset":0,"componentType":5126,"count":116,"type":"VEC4"},{"bufferView":23,"byteOffset":0,"componentType":5126,"count":116,"type":"VEC2"},{"bufferView":24,"byteOffset":0,"componentType":5126,"count":116,"type":"VEC2"},{"bufferView":25,"byteOffset":0,"componentType":5123,"count":84,"type":"SCALAR"},{"bufferView":26,"byteOffset":0,"componentType":5126,"count":58,"max":[0.100624956190586,0.352499961853027,0.0324999839067459],"min":[-0.10830198228359,-0.00100004882552,-0.03220000118017],"type":"VEC3"},{"bufferView":27,"byteOffset":0,"componentType":5126,"count":58,"type":"VEC3"},{"bufferView":28,"byteOffset":0,"componentType":5126,"count":58,"type":"VEC2"},{"bufferView":29,"byteOffset":0,"componentType":5126,"count":58,"type":"VEC2"}],"animations":[{"channels":[],"name":"Unreal Take","samplers":[]}],"asset":{"generator":"FBX2glTF v0.13.0","version":"2.0"},"bufferViews":[{"buffer":0,"byteLength":4,"byteOffset":0},{"buffer":0,"byteLength":1608,"byteOffset":4,"target":34963},{"buffer":0,"byteLength":3720,"byteOffset":1612,"target":34962},{"buffer":0,"byteLength":3720,"byteOffset":5332,"target":34962},{"buffer":0,"byteLength":4960,"byteOffset":9052,"target":34962},{"buffer":0,"byteLength":2480,"byteOffset":14012,"target":34962},{"buffer":0,"byteLength":2480,"byteOffset":16492,"target":34962},{"buffer":0,"byteLength":1200,"byteOffset":18972,"target":34963},{"buffer":0,"byteLength":3000,"byteOffset":20172,"target":34962},{"buffer":0,"byteLength":3000,"byteOffset":23172,"target":34962},{"buffer":0,"byteLength":4000,"byteOffset":26172,"target":34962},{"buffer":0,"byteLength":2000,"byteOffset":30172,"target":34962},{"buffer":0,"byteLength":2000,"byteOffset":32172,"target":34962},{"buffer":0,"byteLength":804,"byteOffset":34172,"target":34963},{"buffer":0,"byteLength":2208,"byteOffset":34976,"target":34962},{"buffer":0,"byteLength":2208,"byteOffset":37184,"target":34962},{"buffer":0,"byteLength":2944,"byteOffset":39392,"target":34962},{"buffer":0,"byteLength":1472,"byteOffset":42336,"target":34962},{"buffer":0,"byteLength":1472,"byteOffset":43808,"target":34962},{"buffer":0,"byteLength":396,"byteOffset":45280,"target":34963},{"buffer":0,"byteLength":1392,"byteOffset":45676,"target":34962},{"buffer":0,"byteLength":1392,"byteOffset":47068,"target":34962},{"buffer":0,"byteLength":1856,"byteOffset":48460,"target":34962},{"buffer":0,"byteLength":928,"byteOffset":50316,"target":34962},{"buffer":0,"byteLength":928,"byteOffset":51244,"target":34962},{"buffer":0,"byteLength":168,"byteOffset":52172,"target":34963},{"buffer":0,"byteLength":696,"byteOffset":52340,"target":34962},{"buffer":0,"byteLength":696,"byteOffset":53036,"target":34962},{"buffer":0,"byteLength":464,"byteOffset":53732,"target":34962},{"buffer":0,"byteLength":464,"byteOffset":54196,"target":34962}],"buffers":[{"byteLength":54660,"uri":"SM_Book02.bin"}],"images":[{"name":"T_Fill_N","uri":"T_Fill_N.png"}],"materials":[{"alphaMode":"OPAQUE","doubleSided":false,"extras":{"fromFBX":{"isTruePBR":false,"shadingModel":"Phong"}},"name":"MI_Books02","normalTexture":{"index":0,"texCoord":0},"pbrMetallicRoughness":{"baseColorFactor":[0.21586050093174,0.21586050093174,0.21586050093174,1],"metallicFactor":0.400000005960464,"roughnessFactor":0.301511347293854}},{"alphaMode":"OPAQUE","doubleSided":false,"extras":{"fromFBX":{"isTruePBR":false,"shadingModel":"Lambert"}},"name":"DefaultMaterial","pbrMetallicRoughness":{"baseColorFactor":[0.5,0.5,0.5,1],"metallicFactor":0.200000002980232,"roughnessFactor":0.800000011920929}}],"meshes":[{"name":"SM_Book02_LOD0","primitives":[{"attributes":{"NORMAL":3,"POSITION":2,"TANGENT":4,"TEXCOORD_0":5,"TEXCOORD_1":6},"indices":1,"material":0,"mode":4}]},{"name":"SM_Book02_LOD1","primitives":[{"attributes":{"NORMAL":9,"POSITION":8,"TANGENT":10,"TEXCOORD_0":11,"TEXCOORD_1":12},"indices":7,"material":0,"mode":4}]},{"name":"SM_Book02_LOD2","primitives":[{"attributes":{"NORMAL":15,"POSITION":14,"TANGENT":16,"TEXCOORD_0":17,"TEXCOORD_1":18},"indices":13,"material":0,"mode":4}]},{"name":"SM_Book02_LOD3","primitives":[{"attributes":{"NORMAL":21,"POSITION":20,"TANGENT":22,"TEXCOORD_0":23,"TEXCOORD_1":24},"indices":19,"material":0,"mode":4}]},{"name":"SM_Book02_ConvexHulls","primitives":[{"attributes":{"NORMAL":27,"POSITION":26,"TEXCOORD_0":28,"TEXCOORD_1":29},"indices":25,"material":1,"mode":4}]}],"nodes":[{"children":[1,2,3,4,5],"name":"SM_Book15","originalUnits":0.00999999977648258,"pivot":[0,0,0],"rotation":[0,0,0,1],"scale":[1,1,1],"translation":[0,0,0]},{"mesh":0,"name":"SM_Book02_LOD0","originalUnits":0.00999999977648258,"pivot":[0,0,0],"rotation":[0,0,0,1],"scale":[1,1,1],"translation":[0,0,0]},{"mesh":4,"name":"SM_Book02_ConvexHulls","originalUnits":0.00999999977648258,"pivot":[0,0,0],"rotation":[0,0,0,1],"scale":[1,1,1],"translation":[0,0,0]},{"mesh":1,"name":"SM_Book02_LOD1","originalUnits":0.00999999977648258,"pivot":[0,0,0],"rotation":[0,0,0,1],"scale":[1,1,1],"translation":[0,0,0]},{"mesh":2,"name":"SM_Book02_LOD2","originalUnits":0.00999999977648258,"pivot":[0,0,0],"rotation":[0,0,0,1],"scale":[1,1,1],"translation":[0,0,0]},{"mesh":3,"name":"SM_Book02_LOD3","originalUnits":0.00999999977648258,"pivot":[0,0,0],"rotation":[0,0,0,1],"scale":[1,1,1],"translation":[0,0,0]}],"samplers":[{}],"scene":0,"scenes":[{"name":"Root Scene","nodes":[0]}],"textures":[{"name":"T_Fill_N","sampler":0,"source":0}]}