{"accessors":[{"bufferView":0,"byteOffset":0,"componentType":5126,"count":1,"max":[0],"min":[0],"type":"SCALAR"},{"bufferView":1,"byteOffset":0,"componentType":5123,"count":804,"type":"SCALAR"},{"bufferView":2,"byteOffset":0,"componentType":5126,"count":312,"max":[0.0890840440988541,0.31999996304512,0.0312000010162592],"min":[-0.09639519453049,-0.00000002604646,-0.03119999170303],"type":"VEC3"},{"bufferView":3,"byteOffset":0,"componentType":5126,"count":312,"type":"VEC3"},{"bufferView":4,"byteOffset":0,"componentType":5126,"count":312,"type":"VEC4"},{"bufferView":5,"byteOffset":0,"componentType":5126,"count":312,"type":"VEC2"},{"bufferView":6,"byteOffset":0,"componentType":5126,"count":312,"type":"VEC2"},{"bufferView":7,"byteOffset":0,"componentType":5123,"count":600,"type":"SCALAR"},{"bufferView":8,"byteOffset":0,"componentType":5126,"count":252,"max":[0.0890845581889153,0.31999996304512,0.0313406474888325],"min":[-0.09639519453049,-0.00000002604646,-0.03134066611528],"type":"VEC3"},{"bufferView":9,"byteOffset":0,"componentType":5126,"count":252,"type":"VEC3"},{"bufferView":10,"byteOffset":0,"componentType":5126,"count":252,"type":"VEC4"},{"bufferView":11,"byteOffset":0,"componentType":5126,"count":252,"type":"VEC2"},{"bufferView":12,"byteOffset":0,"componentType":5126,"count":252,"type":"VEC2"},{"bufferView":13,"byteOffset":0,"componentType":5123,"count":402,"type":"SCALAR"},{"bufferView":14,"byteOffset":0,"componentType":5126,"count":186,"max":[0.0890845581889153,0.31999996304512,0.0312251914292574],"min":[-0.09639519453049,-0.00000002604646,-0.03122520074248],"type":"VEC3"},{"bufferView":15,"byteOffset":0,"componentType":5126,"count":186,"type":"VEC3"},{"bufferView":16,"byteOffset":0,"componentType":5126,"count":186,"type":"VEC4"},{"bufferView":17,"byteOffset":0,"componentType":5126,"count":186,"type":"VEC2"},{"bufferView":18,"byteOffset":0,"componentType":5126,"count":186,"type":"VEC2"},{"bufferView":19,"byteOffset":0,"componentType":5123,"count":198,"type":"SCALAR"},{"bufferView":20,"byteOffset":0,"componentType":5126,"count":118,"max":[0.0891326889395714,0.320635676383972,0.0312050022184849],"min":[-0.09647747129202,-0.00002088429392,-0.03122986480594],"type":"VEC3"},{"bufferView":21,"byteOffset":0,"componentType":5126,"count":118,"type":"VEC3"},{"bufferView":22,"byteOffset":0,"componentType":5126,"count":118,"type":"VEC4"},{"bufferView":23,"byteOffset":0,"componentType":5126,"count":118,"type":"VEC2"},{"bufferView":24,"byteOffset":0,"componentType":5126,"count":118,"type":"VEC2"},{"bufferView":25,"byteOffset":0,"componentType":5123,"count":60,"type":"SCALAR"},{"bufferView":26,"byteOffset":0,"componentType":5126,"count":40,"max":[0.0900420174002647,0.321249961853027,0.032200001180172],"min":[-0.09739518910646,-0.00124998914544,-0.03220000118017],"type":"VEC3"},{"bufferView":27,"byteOffset":0,"componentType":5126,"count":40,"type":"VEC3"},{"bufferView":28,"byteOffset":0,"componentType":5126,"count":40,"type":"VEC2"},{"bufferView":29,"byteOffset":0,"componentType":5126,"count":40,"type":"VEC2"}],"animations":[{"channels":[],"name":"Unreal Take","samplers":[]}],"asset":{"generator":"FBX2glTF v0.13.0","version":"2.0"},"bufferViews":[{"buffer":0,"byteLength":4,"byteOffset":0},{"buffer":0,"byteLength":1608,"byteOffset":4,"target":34963},{"buffer":0,"byteLength":3744,"byteOffset":1612,"target":34962},{"buffer":0,"byteLength":3744,"byteOffset":5356,"target":34962},{"buffer":0,"byteLength":4992,"byteOffset":9100,"target":34962},{"buffer":0,"byteLength":2496,"byteOffset":14092,"target":34962},{"buffer":0,"byteLength":2496,"byteOffset":16588,"target":34962},{"buffer":0,"byteLength":1200,"byteOffset":19084,"target":34963},{"buffer":0,"byteLength":3024,"byteOffset":20284,"target":34962},{"buffer":0,"byteLength":3024,"byteOffset":23308,"target":34962},{"buffer":0,"byteLength":4032,"byteOffset":26332,"target":34962},{"buffer":0,"byteLength":2016,"byteOffset":30364,"target":34962},{"buffer":0,"byteLength":2016,"byteOffset":32380,"target":34962},{"buffer":0,"byteLength":804,"byteOffset":34396,"target":34963},{"buffer":0,"byteLength":2232,"byteOffset":35200,"target":34962},{"buffer":0,"byteLength":2232,"byteOffset":37432,"target":34962},{"buffer":0,"byteLength":2976,"byteOffset":39664,"target":34962},{"buffer":0,"byteLength":1488,"byteOffset":42640,"target":34962},{"buffer":0,"byteLength":1488,"byteOffset":44128,"target":34962},{"buffer":0,"byteLength":396,"byteOffset":45616,"target":34963},{"buffer":0,"byteLength":1416,"byteOffset":46012,"target":34962},{"buffer":0,"byteLength":1416,"byteOffset":47428,"target":34962},{"buffer":0,"byteLength":1888,"byteOffset":48844,"target":34962},{"buffer":0,"byteLength":944,"byteOffset":50732,"target":34962},{"buffer":0,"byteLength":944,"byteOffset":51676,"target":34962},{"buffer":0,"byteLength":120,"byteOffset":52620,"target":34963},{"buffer":0,"byteLength":480,"byteOffset":52740,"target":34962},{"buffer":0,"byteLength":480,"byteOffset":53220,"target":34962},{"buffer":0,"byteLength":320,"byteOffset":53700,"target":34962},{"buffer":0,"byteLength":320,"byteOffset":54020,"target":34962}],"buffers":[{"byteLength":54340,"uri":"SM_Book04.bin"}],"images":[{"name":"T_Fill_N","uri":"T_Fill_N.png"}],"materials":[{"alphaMode":"OPAQUE","doubleSided":false,"extras":{"fromFBX":{"isTruePBR":false,"shadingModel":"Phong"}},"name":"MI_Books02","normalTexture":{"index":0,"texCoord":0},"pbrMetallicRoughness":{"baseColorFactor":[0.21586050093174,0.21586050093174,0.21586050093174,1],"metallicFactor":0.400000005960464,"roughnessFactor":0.301511347293854}},{"alphaMode":"OPAQUE","doubleSided":false,"extras":{"fromFBX":{"isTruePBR":false,"shadingModel":"Lambert"}},"name":"DefaultMaterial","pbrMetallicRoughness":{"baseColorFactor":[0.5,0.5,0.5,1],"metallicFactor":0.200000002980232,"roughnessFactor":0.800000011920929}}],"meshes":[{"name":"SM_Book04_LOD0","primitives":[{"attributes":{"NORMAL":3,"POSITION":2,"TANGENT":4,"TEXCOORD_0":5,"TEXCOORD_1":6},"indices":1,"material":0,"mode":4}]},{"name":"SM_Book04_LOD1","primitives":[{"attributes":{"NORMAL":9,"POSITION":8,"TANGENT":10,"TEXCOORD_0":11,"TEXCOORD_1":12},"indices":7,"material":0,"mode":4}]},{"name":"SM_Book04_LOD2","primitives":[{"attributes":{"NORMAL":15,"POSITION":14,"TANGENT":16,"TEXCOORD_0":17,"TEXCOORD_1":18},"indices":13,"material":0,"mode":4}]},{"name":"SM_Book04_LOD3","primitives":[{"attributes":{"NORMAL":21,"POSITION":20,"TANGENT":22,"TEXCOORD_0":23,"TEXCOORD_1":24},"indices":19,"material":0,"mode":4}]},{"name":"SM_Book04_ConvexHulls","primitives":[{"attributes":{"NORMAL":27,"POSITION":26,"TEXCOORD_0":28,"TEXCOORD_1":29},"indices":25,"material":1,"mode":4}]}],"nodes":[{"children":[1,2,3,4,5],"name":"SM_Book_156","originalUnits":0.00999999977648258,"pivot":[0,0,0],"rotation":[0,0,0,1],"scale":[1,1,1],"translation":[0,0,0]},{"mesh":0,"name":"SM_Book04_LOD0","originalUnits":0.00999999977648258,"pivot":[0,0,0],"rotation":[0,0,0,1],"scale":[1,1,1],"translation":[0,0,0]},{"mesh":4,"name":"SM_Book04_ConvexHulls","originalUnits":0.00999999977648258,"pivot":[0,0,0],"rotation":[0,0,0,1],"scale":[1,1,1],"translation":[0,0,0]},{"mesh":1,"name":"SM_Book04_LOD1","originalUnits":0.00999999977648258,"pivot":[0,0,0],"rotation":[0,0,0,1],"scale":[1,1,1],"translation":[0,0,0]},{"mesh":2,"name":"SM_Book04_LOD2","originalUnits":0.00999999977648258,"pivot":[0,0,0],"rotation":[0,0,0,1],"scale":[1,1,1],"translation":[0,0,0]},{"mesh":3,"name":"SM_Book04_LOD3","originalUnits":0.00999999977648258,"pivot":[0,0,0],"rotation":[0,0,0,1],"scale":[1,1,1],"translation":[0,0,0]}],"samplers":[{}],"scene":0,"scenes":[{"name":"Root Scene","nodes":[0]}],"textures":[{"name":"T_Fill_N","sampler":0,"source":0}]}