{"accessors":[{"bufferView":0,"byteOffset":0,"componentType":5126,"count":1,"max":[0],"min":[0],"type":"SCALAR"},{"bufferView":1,"byteOffset":0,"componentType":5123,"count":4638,"type":"SCALAR"},{"bufferView":2,"byteOffset":0,"componentType":5126,"count":918,"max":[0.0935351476073265,0.0258916635066271,0.0852349847555161],"min":[-0.08911067992449,0.00039589992957189,-0.08182798326015],"type":"VEC3"},{"bufferView":3,"byteOffset":0,"componentType":5126,"count":918,"type":"VEC3"},{"bufferView":4,"byteOffset":0,"componentType":5126,"count":918,"type":"VEC4"},{"bufferView":5,"byteOffset":0,"componentType":5126,"count":918,"type":"VEC2"},{"bufferView":6,"byteOffset":0,"componentType":5126,"count":918,"type":"VEC2"},{"bufferView":7,"byteOffset":0,"componentType":5123,"count":3477,"type":"SCALAR"},{"bufferView":8,"byteOffset":0,"componentType":5126,"count":716,"max":[0.0935422852635384,0.0259338691830635,0.0853708833456039],"min":[-0.08911067992449,0.00035013488377444,-0.08182798326015],"type":"VEC3"},{"bufferView":9,"byteOffset":0,"componentType":5126,"count":716,"type":"VEC3"},{"bufferView":10,"byteOffset":0,"componentType":5126,"count":716,"type":"VEC4"},{"bufferView":11,"byteOffset":0,"componentType":5126,"count":716,"type":"VEC2"},{"bufferView":12,"byteOffset":0,"componentType":5126,"count":716,"type":"VEC2"},{"bufferView":13,"byteOffset":0,"componentType":5123,"count":2316,"type":"SCALAR"},{"bufferView":14,"byteOffset":0,"componentType":5126,"count":505,"max":[0.0940952450037003,0.0259338691830635,0.0853799805045128],"min":[-0.08917106688023,0.00033535025431774,-0.08181700855494],"type":"VEC3"},{"bufferView":15,"byteOffset":0,"componentType":5126,"count":505,"type":"VEC3"},{"bufferView":16,"byteOffset":0,"componentType":5126,"count":505,"type":"VEC4"},{"bufferView":17,"byteOffset":0,"componentType":5126,"count":505,"type":"VEC2"},{"bufferView":18,"byteOffset":0,"componentType":5126,"count":505,"type":"VEC2"},{"bufferView":19,"byteOffset":0,"componentType":5123,"count":1161,"type":"SCALAR"},{"bufferView":20,"byteOffset":0,"componentType":5126,"count":276,"max":[0.0940952450037003,0.0254073850810528,0.0853799805045128],"min":[-0.08874604105949,0.00033157190773636,-0.08208811283112],"type":"VEC3"},{"bufferView":21,"byteOffset":0,"componentType":5126,"count":276,"type":"VEC3"},{"bufferView":22,"byteOffset":0,"componentType":5126,"count":276,"type":"VEC4"},{"bufferView":23,"byteOffset":0,"componentType":5126,"count":276,"type":"VEC2"},{"bufferView":24,"byteOffset":0,"componentType":5126,"count":276,"type":"VEC2"},{"bufferView":25,"byteOffset":0,"componentType":5123,"count":84,"type":"SCALAR"},{"bufferView":26,"byteOffset":0,"componentType":5126,"count":80,"max":[0.0923046246170998,0.0257678888738155,0.0825718492269516],"min":[-0.08424630761147,0.00043012329842895,-0.08132018893957],"type":"VEC3"},{"bufferView":27,"byteOffset":0,"componentType":5126,"count":80,"type":"VEC3"},{"bufferView":28,"byteOffset":0,"componentType":5126,"count":80,"type":"VEC2"},{"bufferView":29,"byteOffset":0,"componentType":5126,"count":80,"type":"VEC2"}],"animations":[{"channels":[],"name":"Unreal Take","samplers":[]}],"asset":{"generator":"FBX2glTF v0.13.0","version":"2.0"},"bufferViews":[{"buffer":0,"byteLength":4,"byteOffset":0},{"buffer":0,"byteLength":9276,"byteOffset":4,"target":34963},{"buffer":0,"byteLength":11016,"byteOffset":9280,"target":34962},{"buffer":0,"byteLength":11016,"byteOffset":20296,"target":34962},{"buffer":0,"byteLength":14688,"byteOffset":31312,"target":34962},{"buffer":0,"byteLength":7344,"byteOffset":46000,"target":34962},{"buffer":0,"byteLength":7344,"byteOffset":53344,"target":34962},{"buffer":0,"byteLength":6954,"byteOffset":60688,"target":34963},{"buffer":0,"byteLength":8592,"byteOffset":67644,"target":34962},{"buffer":0,"byteLength":8592,"byteOffset":76236,"target":34962},{"buffer":0,"byteLength":11456,"byteOffset":84828,"target":34962},{"buffer":0,"byteLength":5728,"byteOffset":96284,"target":34962},{"buffer":0,"byteLength":5728,"byteOffset":102012,"target":34962},{"buffer":0,"byteLength":4632,"byteOffset":107740,"target":34963},{"buffer":0,"byteLength":6060,"byteOffset":112372,"target":34962},{"buffer":0,"byteLength":6060,"byteOffset":118432,"target":34962},{"buffer":0,"byteLength":8080,"byteOffset":124492,"target":34962},{"buffer":0,"byteLength":4040,"byteOffset":132572,"target":34962},{"buffer":0,"byteLength":4040,"byteOffset":136612,"target":34962},{"buffer":0,"byteLength":2322,"byteOffset":140652,"target":34963},{"buffer":0,"byteLength":3312,"byteOffset":142976,"target":34962},{"buffer":0,"byteLength":3312,"byteOffset":146288,"target":34962},{"buffer":0,"byteLength":4416,"byteOffset":149600,"target":34962},{"buffer":0,"byteLength":2208,"byteOffset":154016,"target":34962},{"buffer":0,"byteLength":2208,"byteOffset":156224,"target":34962},{"buffer":0,"byteLength":168,"byteOffset":158432,"target":34963},{"buffer":0,"byteLength":960,"byteOffset":158600,"target":34962},{"buffer":0,"byteLength":960,"byteOffset":159560,"target":34962},{"buffer":0,"byteLength":640,"byteOffset":160520,"target":34962},{"buffer":0,"byteLength":640,"byteOffset":161160,"target":34962}],"buffers":[{"byteLength":161800,"uri":"SM_Bread.bin"}],"images":[{"name":"T_BreakfastProps_N","uri":"T_BreakfastProps_N.tga"}],"materials":[{"alphaMode":"OPAQUE","doubleSided":false,"extras":{"fromFBX":{"isTruePBR":false,"shadingModel":"Phong"}},"name":"MI_BreakfastProps","normalTexture":{"index":0,"texCoord":0},"pbrMetallicRoughness":{"baseColorFactor":[0.21586050093174,0.21586050093174,0.21586050093174,1],"metallicFactor":0.400000005960464,"roughnessFactor":0.301511347293854}},{"alphaMode":"OPAQUE","doubleSided":false,"extras":{"fromFBX":{"isTruePBR":false,"shadingModel":"Lambert"}},"name":"DefaultMaterial","pbrMetallicRoughness":{"baseColorFactor":[0.5,0.5,0.5,1],"metallicFactor":0.200000002980232,"roughnessFactor":0.800000011920929}}],"meshes":[{"name":"SM_Bread_LOD0","primitives":[{"attributes":{"NORMAL":3,"POSITION":2,"TANGENT":4,"TEXCOORD_0":5,"TEXCOORD_1":6},"indices":1,"material":0,"mode":4}]},{"name":"SM_Bread_LOD1","primitives":[{"attributes":{"NORMAL":9,"POSITION":8,"TANGENT":10,"TEXCOORD_0":11,"TEXCOORD_1":12},"indices":7,"material":0,"mode":4}]},{"name":"SM_Bread_LOD2","primitives":[{"attributes":{"NORMAL":15,"POSITION":14,"TANGENT":16,"TEXCOORD_0":17,"TEXCOORD_1":18},"indices":13,"material":0,"mode":4}]},{"name":"SM_Bread_LOD3","primitives":[{"attributes":{"NORMAL":21,"POSITION":20,"TANGENT":22,"TEXCOORD_0":23,"TEXCOORD_1":24},"indices":19,"material":0,"mode":4}]},{"name":"SM_Bread_ConvexHulls","primitives":[{"attributes":{"NORMAL":27,"POSITION":26,"TEXCOORD_0":28,"TEXCOORD_1":29},"indices":25,"material":1,"mode":4}]}],"nodes":[{"children":[1,2,3,4,5],"name":"SM_BreakfastProps_Bread6","originalUnits":0.00999999977648258,"pivot":[0,0,0],"rotation":[0,0,0,1],"scale":[1,1,1],"translation":[0,0,0]},{"mesh":0,"name":"SM_Bread_LOD0","originalUnits":0.00999999977648258,"pivot":[0,0,0],"rotation":[0,0,0,1],"scale":[1,1,1],"translation":[0,0,0]},{"mesh":4,"name":"SM_Bread_ConvexHulls","originalUnits":0.00999999977648258,"pivot":[0,0,0],"rotation":[0,0,0,1],"scale":[1,1,1],"translation":[0,0,0]},{"mesh":1,"name":"SM_Bread_LOD1","originalUnits":0.00999999977648258,"pivot":[0,0,0],"rotation":[0,0,0,1],"scale":[1,1,1],"translation":[0,0,0]},{"mesh":2,"name":"SM_Bread_LOD2","originalUnits":0.00999999977648258,"pivot":[0,0,0],"rotation":[0,0,0,1],"scale":[1,1,1],"translation":[0,0,0]},{"mesh":3,"name":"SM_Bread_LOD3","originalUnits":0.00999999977648258,"pivot":[0,0,0],"rotation":[0,0,0,1],"scale":[1,1,1],"translation":[0,0,0]}],"samplers":[{}],"scene":0,"scenes":[{"name":"Root Scene","nodes":[0]}],"textures":[{"name":"T_BreakfastProps_N","sampler":0,"source":0}]}