{"accessors":[{"bufferView":0,"byteOffset":0,"componentType":5126,"count":1,"max":[0],"min":[0],"type":"SCALAR"},{"bufferView":1,"byteOffset":0,"componentType":5123,"count":192,"type":"SCALAR"},{"bufferView":2,"byteOffset":0,"componentType":5126,"count":69,"max":[0.0107445884495974,0.32548975944519,0.035386960953474],"min":[-0.04000977426767,0.0873145908117294,-0.03134093433619],"type":"VEC3"},{"bufferView":3,"byteOffset":0,"componentType":5126,"count":69,"type":"VEC3"},{"bufferView":4,"byteOffset":0,"componentType":5126,"count":69,"type":"VEC4"},{"bufferView":5,"byteOffset":0,"componentType":5126,"count":69,"type":"VEC2"},{"bufferView":6,"byteOffset":0,"componentType":5126,"count":69,"type":"VEC2"},{"bufferView":7,"byteOffset":0,"componentType":5123,"count":174,"type":"SCALAR"},{"bufferView":8,"byteOffset":0,"componentType":5126,"count":64,"max":[0.0107445884495974,0.325541794300079,0.035386960953474],"min":[-0.04000977426767,0.0873145908117294,-0.03134093433619],"type":"VEC3"},{"bufferView":9,"byteOffset":0,"componentType":5126,"count":64,"type":"VEC3"},{"bufferView":10,"byteOffset":0,"componentType":5126,"count":64,"type":"VEC4"},{"bufferView":11,"byteOffset":0,"componentType":5126,"count":64,"type":"VEC2"},{"bufferView":12,"byteOffset":0,"componentType":5126,"count":64,"type":"VEC2"},{"bufferView":13,"byteOffset":0,"componentType":5123,"count":111,"type":"SCALAR"},{"bufferView":14,"byteOffset":0,"componentType":5126,"count":43,"max":[0.011208351701498,0.325805693864822,0.035386960953474],"min":[-0.04017911478877,0.0873125419020653,-0.03134093433619],"type":"VEC3"},{"bufferView":15,"byteOffset":0,"componentType":5126,"count":43,"type":"VEC3"},{"bufferView":16,"byteOffset":0,"componentType":5126,"count":43,"type":"VEC4"},{"bufferView":17,"byteOffset":0,"componentType":5126,"count":43,"type":"VEC2"},{"bufferView":18,"byteOffset":0,"componentType":5126,"count":43,"type":"VEC2"},{"bufferView":19,"byteOffset":0,"componentType":5123,"count":72,"type":"SCALAR"},{"bufferView":20,"byteOffset":0,"componentType":5126,"count":30,"max":[0.0108628505840898,0.326264768838882,0.036071851849556],"min":[-0.04017911478877,0.0873125419020653,-0.03271009027958],"type":"VEC3"},{"bufferView":21,"byteOffset":0,"componentType":5126,"count":30,"type":"VEC3"},{"bufferView":22,"byteOffset":0,"componentType":5126,"count":30,"type":"VEC4"},{"bufferView":23,"byteOffset":0,"componentType":5126,"count":30,"type":"VEC2"},{"bufferView":24,"byteOffset":0,"componentType":5126,"count":30,"type":"VEC2"},{"bufferView":25,"byteOffset":0,"componentType":5123,"count":2064,"type":"SCALAR"},{"bufferView":26,"byteOffset":0,"componentType":5126,"count":419,"max":[0.0385302379727364,0.307946741580963,0.0385259948670864],"min":[-0.0385180786252,0.000458675873233,-0.03852599486709],"type":"VEC3"},{"bufferView":27,"byteOffset":0,"componentType":5126,"count":419,"type":"VEC3"},{"bufferView":28,"byteOffset":0,"componentType":5126,"count":419,"type":"VEC4"},{"bufferView":29,"byteOffset":0,"componentType":5126,"count":419,"type":"VEC2"},{"bufferView":30,"byteOffset":0,"componentType":5126,"count":419,"type":"VEC2"},{"bufferView":31,"byteOffset":0,"componentType":5123,"count":1518,"type":"SCALAR"},{"bufferView":32,"byteOffset":0,"componentType":5126,"count":322,"max":[0.0385302379727364,0.307946741580963,0.0385259948670864],"min":[-0.0385180786252,0.000458675873233,-0.03852599486709],"type":"VEC3"},{"bufferView":33,"byteOffset":0,"componentType":5126,"count":322,"type":"VEC3"},{"bufferView":34,"byteOffset":0,"componentType":5126,"count":322,"type":"VEC4"},{"bufferView":35,"byteOffset":0,"componentType":5126,"count":322,"type":"VEC2"},{"bufferView":36,"byteOffset":0,"componentType":5126,"count":322,"type":"VEC2"},{"bufferView":37,"byteOffset":0,"componentType":5123,"count":1017,"type":"SCALAR"},{"bufferView":38,"byteOffset":0,"componentType":5126,"count":220,"max":[0.0385302379727364,0.307946741580963,0.0385259948670864],"min":[-0.0385180786252,0.00045867878361605,-0.03852599486709],"type":"VEC3"},{"bufferView":39,"byteOffset":0,"componentType":5126,"count":220,"type":"VEC3"},{"bufferView":40,"byteOffset":0,"componentType":5126,"count":220,"type":"VEC4"},{"bufferView":41,"byteOffset":0,"componentType":5126,"count":220,"type":"VEC2"},{"bufferView":42,"byteOffset":0,"componentType":5126,"count":220,"type":"VEC2"},{"bufferView":43,"byteOffset":0,"componentType":5123,"count":489,"type":"SCALAR"},{"bufferView":44,"byteOffset":0,"componentType":5126,"count":115,"max":[0.0392411090433598,0.306921541690826,0.0382812432944775],"min":[-0.03828126192093,0.00045867878361605,-0.03828063234687],"type":"VEC3"},{"bufferView":45,"byteOffset":0,"componentType":5126,"count":115,"type":"VEC3"},{"bufferView":46,"byteOffset":0,"componentType":5126,"count":115,"type":"VEC4"},{"bufferView":47,"byteOffset":0,"componentType":5126,"count":115,"type":"VEC2"},{"bufferView":48,"byteOffset":0,"componentType":5126,"count":115,"type":"VEC2"},{"bufferView":49,"byteOffset":0,"componentType":5123,"count":162,"type":"SCALAR"},{"bufferView":50,"byteOffset":0,"componentType":5126,"count":156,"max":[0.0378827899694443,0.326946377754211,0.0383960194885731],"min":[-0.03987516462803,0.00163303909357637,-0.0372058339417],"type":"VEC3"},{"bufferView":51,"byteOffset":0,"componentType":5126,"count":156,"type":"VEC3"},{"bufferView":52,"byteOffset":0,"componentType":5126,"count":156,"type":"VEC2"},{"bufferView":53,"byteOffset":0,"componentType":5126,"count":156,"type":"VEC2"}],"animations":[{"channels":[],"name":"Unreal Take","samplers":[]}],"asset":{"generator":"FBX2glTF v0.13.0","version":"2.0"},"bufferViews":[{"buffer":0,"byteLength":4,"byteOffset":0},{"buffer":0,"byteLength":384,"byteOffset":4,"target":34963},{"buffer":0,"byteLength":828,"byteOffset":388,"target":34962},{"buffer":0,"byteLength":828,"byteOffset":1216,"target":34962},{"buffer":0,"byteLength":1104,"byteOffset":2044,"target":34962},{"buffer":0,"byteLength":552,"byteOffset":3148,"target":34962},{"buffer":0,"byteLength":552,"byteOffset":3700,"target":34962},{"buffer":0,"byteLength":348,"byteOffset":4252,"target":34963},{"buffer":0,"byteLength":768,"byteOffset":4600,"target":34962},{"buffer":0,"byteLength":768,"byteOffset":5368,"target":34962},{"buffer":0,"byteLength":1024,"byteOffset":6136,"target":34962},{"buffer":0,"byteLength":512,"byteOffset":7160,"target":34962},{"buffer":0,"byteLength":512,"byteOffset":7672,"target":34962},{"buffer":0,"byteLength":222,"byteOffset":8184,"target":34963},{"buffer":0,"byteLength":516,"byteOffset":8408,"target":34962},{"buffer":0,"byteLength":516,"byteOffset":8924,"target":34962},{"buffer":0,"byteLength":688,"byteOffset":9440,"target":34962},{"buffer":0,"byteLength":344,"byteOffset":10128,"target":34962},{"buffer":0,"byteLength":344,"byteOffset":10472,"target":34962},{"buffer":0,"byteLength":144,"byteOffset":10816,"target":34963},{"buffer":0,"byteLength":360,"byteOffset":10960,"target":34962},{"buffer":0,"byteLength":360,"byteOffset":11320,"target":34962},{"buffer":0,"byteLength":480,"byteOffset":11680,"target":34962},{"buffer":0,"byteLength":240,"byteOffset":12160,"target":34962},{"buffer":0,"byteLength":240,"byteOffset":12400,"target":34962},{"buffer":0,"byteLength":4128,"byteOffset":12640,"target":34963},{"buffer":0,"byteLength":5028,"byteOffset":16768,"target":34962},{"buffer":0,"byteLength":5028,"byteOffset":21796,"target":34962},{"buffer":0,"byteLength":6704,"byteOffset":26824,"target":34962},{"buffer":0,"byteLength":3352,"byteOffset":33528,"target":34962},{"buffer":0,"byteLength":3352,"byteOffset":36880,"target":34962},{"buffer":0,"byteLength":3036,"byteOffset":40232,"target":34963},{"buffer":0,"byteLength":3864,"byteOffset":43268,"target":34962},{"buffer":0,"byteLength":3864,"byteOffset":47132,"target":34962},{"buffer":0,"byteLength":5152,"byteOffset":50996,"target":34962},{"buffer":0,"byteLength":2576,"byteOffset":56148,"target":34962},{"buffer":0,"byteLength":2576,"byteOffset":58724,"target":34962},{"buffer":0,"byteLength":2034,"byteOffset":61300,"target":34963},{"buffer":0,"byteLength":2640,"byteOffset":63336,"target":34962},{"buffer":0,"byteLength":2640,"byteOffset":65976,"target":34962},{"buffer":0,"byteLength":3520,"byteOffset":68616,"target":34962},{"buffer":0,"byteLength":1760,"byteOffset":72136,"target":34962},{"buffer":0,"byteLength":1760,"byteOffset":73896,"target":34962},{"buffer":0,"byteLength":978,"byteOffset":75656,"target":34963},{"buffer":0,"byteLength":1380,"byteOffset":76636,"target":34962},{"buffer":0,"byteLength":1380,"byteOffset":78016,"target":34962},{"buffer":0,"byteLength":1840,"byteOffset":79396,"target":34962},{"buffer":0,"byteLength":920,"byteOffset":81236,"target":34962},{"buffer":0,"byteLength":920,"byteOffset":82156,"target":34962},{"buffer":0,"byteLength":324,"byteOffset":83076,"target":34963},{"buffer":0,"byteLength":1872,"byteOffset":83400,"target":34962},{"buffer":0,"byteLength":1872,"byteOffset":85272,"target":34962},{"buffer":0,"byteLength":1248,"byteOffset":87144,"target":34962},{"buffer":0,"byteLength":1248,"byteOffset":88392,"target":34962}],"buffers":[{"byteLength":89640,"uri":"SM_Bottles_01.bin"}],"images":[{"name":"T_Bottles_N","uri":"T_Bottles_N.tga"},{"name":"T_Bottles_Glass_N","uri":"T_Bottles_Glass_N.tga"}],"materials":[{"alphaMode":"OPAQUE","doubleSided":false,"extras":{"fromFBX":{"isTruePBR":false,"shadingModel":"Phong"}},"name":"MI_Bottles","normalTexture":{"index":0,"texCoord":0},"pbrMetallicRoughness":{"baseColorFactor":[0.21586050093174,0.21586050093174,0.21586050093174,1],"metallicFactor":0.400000005960464,"roughnessFactor":0.301511347293854}},{"alphaMode":"OPAQUE","doubleSided":false,"extras":{"fromFBX":{"isTruePBR":false,"shadingModel":"Phong"}},"name":"MI_Bottles_Glass_1","normalTexture":{"index":1,"texCoord":0},"pbrMetallicRoughness":{"baseColorFactor":[0.21586050093174,0.21586050093174,0.21586050093174,1],"metallicFactor":0.400000005960464,"roughnessFactor":0.301511347293854}},{"alphaMode":"OPAQUE","doubleSided":false,"extras":{"fromFBX":{"isTruePBR":false,"shadingModel":"Lambert"}},"name":"DefaultMaterial","pbrMetallicRoughness":{"baseColorFactor":[0.5,0.5,0.5,1],"metallicFactor":0.200000002980232,"roughnessFactor":0.800000011920929}}],"meshes":[{"name":"SM_Bottles_01_LOD0","primitives":[{"attributes":{"NORMAL":3,"POSITION":2,"TANGENT":4,"TEXCOORD_0":5,"TEXCOORD_1":6},"indices":1,"material":0,"mode":4},{"attributes":{"NORMAL":27,"POSITION":26,"TANGENT":28,"TEXCOORD_0":29,"TEXCOORD_1":30},"indices":25,"material":1,"mode":4}]},{"name":"SM_Bottles_01_LOD1","primitives":[{"attributes":{"NORMAL":9,"POSITION":8,"TANGENT":10,"TEXCOORD_0":11,"TEXCOORD_1":12},"indices":7,"material":0,"mode":4},{"attributes":{"NORMAL":33,"POSITION":32,"TANGENT":34,"TEXCOORD_0":35,"TEXCOORD_1":36},"indices":31,"material":1,"mode":4}]},{"name":"SM_Bottles_01_LOD2","primitives":[{"attributes":{"NORMAL":15,"POSITION":14,"TANGENT":16,"TEXCOORD_0":17,"TEXCOORD_1":18},"indices":13,"material":0,"mode":4},{"attributes":{"NORMAL":39,"POSITION":38,"TANGENT":40,"TEXCOORD_0":41,"TEXCOORD_1":42},"indices":37,"material":1,"mode":4}]},{"name":"SM_Bottles_01_LOD3","primitives":[{"attributes":{"NORMAL":21,"POSITION":20,"TANGENT":22,"TEXCOORD_0":23,"TEXCOORD_1":24},"indices":19,"material":0,"mode":4},{"attributes":{"NORMAL":45,"POSITION":44,"TANGENT":46,"TEXCOORD_0":47,"TEXCOORD_1":48},"indices":43,"material":1,"mode":4}]},{"name":"SM_Bottles_01_ConvexHulls","primitives":[{"attributes":{"NORMAL":51,"POSITION":50,"TEXCOORD_0":52,"TEXCOORD_1":53},"indices":49,"material":2,"mode":4}]}],"nodes":[{"children":[1,2,3,4,5],"name":"SM_Bottles_01_59","originalUnits":0.00999999977648258,"pivot":[0,0,0],"rotation":[0,0,0,1],"scale":[1,1,1],"translation":[0,0,0]},{"mesh":0,"name":"SM_Bottles_01_LOD0","originalUnits":0.00999999977648258,"pivot":[0,0,0],"rotation":[0,0,0,1],"scale":[1,1,1],"translation":[0,0,0]},{"mesh":4,"name":"SM_Bottles_01_ConvexHulls","originalUnits":0.00999999977648258,"pivot":[0,0,0],"rotation":[0,0,0,1],"scale":[1,1,1],"translation":[0,0,0]},{"mesh":1,"name":"SM_Bottles_01_LOD1","originalUnits":0.00999999977648258,"pivot":[0,0,0],"rotation":[0,0,0,1],"scale":[1,1,1],"translation":[0,0,0]},{"mesh":2,"name":"SM_Bottles_01_LOD2","originalUnits":0.00999999977648258,"pivot":[0,0,0],"rotation":[0,0,0,1],"scale":[1,1,1],"translation":[0,0,0]},{"mesh":3,"name":"SM_Bottles_01_LOD3","originalUnits":0.00999999977648258,"pivot":[0,0,0],"rotation":[0,0,0,1],"scale":[1,1,1],"translation":[0,0,0]}],"samplers":[{}],"scene":0,"scenes":[{"name":"Root Scene","nodes":[0]}],"textures":[{"name":"T_Bottles_N","sampler":0,"source":0},{"name":"T_Bottles_Glass_N","sampler":0,"source":1}]}