{"accessors":[{"bufferView":0,"byteOffset":0,"componentType":5126,"count":1,"max":[0],"min":[0],"type":"SCALAR"},{"bufferView":1,"byteOffset":0,"componentType":5123,"count":11142,"type":"SCALAR"},{"bufferView":2,"byteOffset":0,"componentType":5126,"count":2091,"max":[0.22298875451088,1.4730943441391,0.0239921305328608],"min":[-0.2246295362711,-0.00755142094567,-0.02394940517843],"type":"VEC3"},{"bufferView":3,"byteOffset":0,"componentType":5126,"count":2091,"type":"VEC3"},{"bufferView":4,"byteOffset":0,"componentType":5126,"count":2091,"type":"VEC4"},{"bufferView":5,"byteOffset":0,"componentType":5126,"count":2091,"type":"VEC2"},{"bufferView":6,"byteOffset":0,"componentType":5126,"count":2091,"type":"VEC2"},{"bufferView":7,"byteOffset":0,"componentType":5123,"count":8358,"type":"SCALAR"},{"bufferView":8,"byteOffset":0,"componentType":5126,"count":1626,"max":[0.22298875451088,1.4730943441391,0.0239921305328608],"min":[-0.2246295362711,-0.00755142094567,-0.02394940517843],"type":"VEC3"},{"bufferView":9,"byteOffset":0,"componentType":5126,"count":1626,"type":"VEC3"},{"bufferView":10,"byteOffset":0,"componentType":5126,"count":1626,"type":"VEC4"},{"bufferView":11,"byteOffset":0,"componentType":5126,"count":1626,"type":"VEC2"},{"bufferView":12,"byteOffset":0,"componentType":5126,"count":1626,"type":"VEC2"},{"bufferView":13,"byteOffset":0,"componentType":5123,"count":5568,"type":"SCALAR"},{"bufferView":14,"byteOffset":0,"componentType":5126,"count":1153,"max":[0.22298875451088,1.4730943441391,0.0240258313715458],"min":[-0.2246295362711,-0.00755142094567,-0.02397102490067],"type":"VEC3"},{"bufferView":15,"byteOffset":0,"componentType":5126,"count":1153,"type":"VEC3"},{"bufferView":16,"byteOffset":0,"componentType":5126,"count":1153,"type":"VEC4"},{"bufferView":17,"byteOffset":0,"componentType":5126,"count":1153,"type":"VEC2"},{"bufferView":18,"byteOffset":0,"componentType":5126,"count":1153,"type":"VEC2"},{"bufferView":19,"byteOffset":0,"componentType":5123,"count":2784,"type":"SCALAR"},{"bufferView":20,"byteOffset":0,"componentType":5126,"count":665,"max":[0.22298875451088,1.47320532798767,0.0240648258477449],"min":[-0.2246295362711,-0.00755142094567,-0.0241011288017],"type":"VEC3"},{"bufferView":21,"byteOffset":0,"componentType":5126,"count":665,"type":"VEC3"},{"bufferView":22,"byteOffset":0,"componentType":5126,"count":665,"type":"VEC4"},{"bufferView":23,"byteOffset":0,"componentType":5126,"count":665,"type":"VEC2"},{"bufferView":24,"byteOffset":0,"componentType":5126,"count":665,"type":"VEC2"},{"bufferView":25,"byteOffset":0,"componentType":5123,"count":168,"type":"SCALAR"},{"bufferView":26,"byteOffset":0,"componentType":5126,"count":160,"max":[0.225678503513336,1.46551728248596,0.0240568052977324],"min":[-0.22929826378822,-0.00780447712168,-0.02647605538368],"type":"VEC3"},{"bufferView":27,"byteOffset":0,"componentType":5126,"count":160,"type":"VEC3"},{"bufferView":28,"byteOffset":0,"componentType":5126,"count":160,"type":"VEC2"},{"bufferView":29,"byteOffset":0,"componentType":5126,"count":160,"type":"VEC2"}],"animations":[{"channels":[],"name":"Unreal Take","samplers":[]}],"asset":{"generator":"FBX2glTF v0.13.0","version":"2.0"},"bufferViews":[{"buffer":0,"byteLength":4,"byteOffset":0},{"buffer":0,"byteLength":22284,"byteOffset":4,"target":34963},{"buffer":0,"byteLength":25092,"byteOffset":22288,"target":34962},{"buffer":0,"byteLength":25092,"byteOffset":47380,"target":34962},{"buffer":0,"byteLength":33456,"byteOffset":72472,"target":34962},{"buffer":0,"byteLength":16728,"byteOffset":105928,"target":34962},{"buffer":0,"byteLength":16728,"byteOffset":122656,"target":34962},{"buffer":0,"byteLength":16716,"byteOffset":139384,"target":34963},{"buffer":0,"byteLength":19512,"byteOffset":156100,"target":34962},{"buffer":0,"byteLength":19512,"byteOffset":175612,"target":34962},{"buffer":0,"byteLength":26016,"byteOffset":195124,"target":34962},{"buffer":0,"byteLength":13008,"byteOffset":221140,"target":34962},{"buffer":0,"byteLength":13008,"byteOffset":234148,"target":34962},{"buffer":0,"byteLength":11136,"byteOffset":247156,"target":34963},{"buffer":0,"byteLength":13836,"byteOffset":258292,"target":34962},{"buffer":0,"byteLength":13836,"byteOffset":272128,"target":34962},{"buffer":0,"byteLength":18448,"byteOffset":285964,"target":34962},{"buffer":0,"byteLength":9224,"byteOffset":304412,"target":34962},{"buffer":0,"byteLength":9224,"byteOffset":313636,"target":34962},{"buffer":0,"byteLength":5568,"byteOffset":322860,"target":34963},{"buffer":0,"byteLength":7980,"byteOffset":328428,"target":34962},{"buffer":0,"byteLength":7980,"byteOffset":336408,"target":34962},{"buffer":0,"byteLength":10640,"byteOffset":344388,"target":34962},{"buffer":0,"byteLength":5320,"byteOffset":355028,"target":34962},{"buffer":0,"byteLength":5320,"byteOffset":360348,"target":34962},{"buffer":0,"byteLength":336,"byteOffset":365668,"target":34963},{"buffer":0,"byteLength":1920,"byteOffset":366004,"target":34962},{"buffer":0,"byteLength":1920,"byteOffset":367924,"target":34962},{"buffer":0,"byteLength":1280,"byteOffset":369844,"target":34962},{"buffer":0,"byteLength":1280,"byteOffset":371124,"target":34962}],"buffers":[{"byteLength":372404,"uri":"SM_Broom.bin"}],"images":[{"name":"FlatNormal","uri":"FlatNormal.tga"}],"materials":[{"alphaMode":"OPAQUE","doubleSided":false,"extras":{"fromFBX":{"isTruePBR":false,"shadingModel":"Phong"}},"name":"MI_Broom","normalTexture":{"index":0,"texCoord":0},"pbrMetallicRoughness":{"baseColorFactor":[0.21586050093174,0.21586050093174,0.21586050093174,1],"metallicFactor":0.400000005960464,"roughnessFactor":0.301511347293854}},{"alphaMode":"OPAQUE","doubleSided":false,"extras":{"fromFBX":{"isTruePBR":false,"shadingModel":"Lambert"}},"name":"DefaultMaterial","pbrMetallicRoughness":{"baseColorFactor":[0.5,0.5,0.5,1],"metallicFactor":0.200000002980232,"roughnessFactor":0.800000011920929}}],"meshes":[{"name":"SM_Broom_LOD0","primitives":[{"attributes":{"NORMAL":3,"POSITION":2,"TANGENT":4,"TEXCOORD_0":5,"TEXCOORD_1":6},"indices":1,"material":0,"mode":4}]},{"name":"SM_Broom_LOD1","primitives":[{"attributes":{"NORMAL":9,"POSITION":8,"TANGENT":10,"TEXCOORD_0":11,"TEXCOORD_1":12},"indices":7,"material":0,"mode":4}]},{"name":"SM_Broom_LOD2","primitives":[{"attributes":{"NORMAL":15,"POSITION":14,"TANGENT":16,"TEXCOORD_0":17,"TEXCOORD_1":18},"indices":13,"material":0,"mode":4}]},{"name":"SM_Broom_LOD3","primitives":[{"attributes":{"NORMAL":21,"POSITION":20,"TANGENT":22,"TEXCOORD_0":23,"TEXCOORD_1":24},"indices":19,"material":0,"mode":4}]},{"name":"SM_Broom_ConvexHulls","primitives":[{"attributes":{"NORMAL":27,"POSITION":26,"TEXCOORD_0":28,"TEXCOORD_1":29},"indices":25,"material":1,"mode":4}]}],"nodes":[{"children":[1,2,3,4,5],"name":"Broom_135","originalUnits":0.00999999977648258,"pivot":[0,0,0],"rotation":[0,0,0,1],"scale":[1,1,1],"translation":[0,0,0]},{"mesh":0,"name":"SM_Broom_LOD0","originalUnits":0.00999999977648258,"pivot":[0,0,0],"rotation":[0,0,0,1],"scale":[1,1,1],"translation":[0,0,0]},{"mesh":4,"name":"SM_Broom_ConvexHulls","originalUnits":0.00999999977648258,"pivot":[0,0,0],"rotation":[0,0,0,1],"scale":[1,1,1],"translation":[0,0,0]},{"mesh":1,"name":"SM_Broom_LOD1","originalUnits":0.00999999977648258,"pivot":[0,0,0],"rotation":[0,0,0,1],"scale":[1,1,1],"translation":[0,0,0]},{"mesh":2,"name":"SM_Broom_LOD2","originalUnits":0.00999999977648258,"pivot":[0,0,0],"rotation":[0,0,0,1],"scale":[1,1,1],"translation":[0,0,0]},{"mesh":3,"name":"SM_Broom_LOD3","originalUnits":0.00999999977648258,"pivot":[0,0,0],"rotation":[0,0,0,1],"scale":[1,1,1],"translation":[0,0,0]}],"samplers":[{}],"scene":0,"scenes":[{"name":"Root Scene","nodes":[0]}],"textures":[{"name":"T_Default_N","sampler":0,"source":0}]}