{"accessors":[{"bufferView":0,"byteOffset":0,"componentType":5126,"count":1,"max":[0],"min":[0],"type":"SCALAR"},{"bufferView":1,"byteOffset":0,"componentType":5123,"count":672,"type":"SCALAR"},{"bufferView":2,"byteOffset":0,"componentType":5126,"count":186,"max":[0.0403954908251762,0.251410186290741,0.0272021405398846],"min":[-0.04015381634235,0.0612823329865932,-0.02720275148749],"type":"VEC3"},{"bufferView":3,"byteOffset":0,"componentType":5126,"count":186,"type":"VEC3"},{"bufferView":4,"byteOffset":0,"componentType":5126,"count":186,"type":"VEC4"},{"bufferView":5,"byteOffset":0,"componentType":5126,"count":186,"type":"VEC2"},{"bufferView":6,"byteOffset":0,"componentType":5126,"count":186,"type":"VEC2"},{"bufferView":7,"byteOffset":0,"componentType":5123,"count":588,"type":"SCALAR"},{"bufferView":8,"byteOffset":0,"componentType":5126,"count":168,"max":[0.0404553078114986,0.251410186290741,0.0272122733294964],"min":[-0.04029983282089,0.0612829402089119,-0.02720921486616],"type":"VEC3"},{"bufferView":9,"byteOffset":0,"componentType":5126,"count":168,"type":"VEC3"},{"bufferView":10,"byteOffset":0,"componentType":5126,"count":168,"type":"VEC4"},{"bufferView":11,"byteOffset":0,"componentType":5126,"count":168,"type":"VEC2"},{"bufferView":12,"byteOffset":0,"componentType":5126,"count":168,"type":"VEC2"},{"bufferView":13,"byteOffset":0,"componentType":5123,"count":267,"type":"SCALAR"},{"bufferView":14,"byteOffset":0,"componentType":5126,"count":99,"max":[0.0404553078114986,0.251409858465195,0.0272122733294964],"min":[-0.04029983282089,0.0612829402089119,-0.02720921486616],"type":"VEC3"},{"bufferView":15,"byteOffset":0,"componentType":5126,"count":99,"type":"VEC3"},{"bufferView":16,"byteOffset":0,"componentType":5126,"count":99,"type":"VEC4"},{"bufferView":17,"byteOffset":0,"componentType":5126,"count":99,"type":"VEC2"},{"bufferView":18,"byteOffset":0,"componentType":5126,"count":99,"type":"VEC2"},{"bufferView":19,"byteOffset":0,"componentType":5123,"count":120,"type":"SCALAR"},{"bufferView":20,"byteOffset":0,"componentType":5126,"count":50,"max":[0.0404553078114986,0.25159677863121,0.0272122733294964],"min":[-0.04029983282089,0.0612829402089119,-0.02720921486616],"type":"VEC3"},{"bufferView":21,"byteOffset":0,"componentType":5126,"count":50,"type":"VEC3"},{"bufferView":22,"byteOffset":0,"componentType":5126,"count":50,"type":"VEC4"},{"bufferView":23,"byteOffset":0,"componentType":5126,"count":50,"type":"VEC2"},{"bufferView":24,"byteOffset":0,"componentType":5126,"count":50,"type":"VEC2"},{"bufferView":25,"byteOffset":0,"componentType":5123,"count":2016,"type":"SCALAR"},{"bufferView":26,"byteOffset":0,"componentType":5126,"count":382,"max":[0.0400195196270943,0.214363068342209,0.0400122031569481],"min":[-0.04000731557608,-0.00000030517543,-0.04001220315695],"type":"VEC3"},{"bufferView":27,"byteOffset":0,"componentType":5126,"count":382,"type":"VEC3"},{"bufferView":28,"byteOffset":0,"componentType":5126,"count":382,"type":"VEC4"},{"bufferView":29,"byteOffset":0,"componentType":5126,"count":382,"type":"VEC2"},{"bufferView":30,"byteOffset":0,"componentType":5126,"count":382,"type":"VEC2"},{"bufferView":31,"byteOffset":0,"componentType":5123,"count":1428,"type":"SCALAR"},{"bufferView":32,"byteOffset":0,"componentType":5126,"count":282,"max":[0.0400327928364277,0.214363068342209,0.0397973544895649],"min":[-0.03979248553514,0.00021973295952193,-0.04009966924787],"type":"VEC3"},{"bufferView":33,"byteOffset":0,"componentType":5126,"count":282,"type":"VEC3"},{"bufferView":34,"byteOffset":0,"componentType":5126,"count":282,"type":"VEC4"},{"bufferView":35,"byteOffset":0,"componentType":5126,"count":282,"type":"VEC2"},{"bufferView":36,"byteOffset":0,"componentType":5126,"count":282,"type":"VEC2"},{"bufferView":37,"byteOffset":0,"componentType":5123,"count":1077,"type":"SCALAR"},{"bufferView":38,"byteOffset":0,"componentType":5126,"count":216,"max":[0.0400327928364277,0.2143624573946,0.039847906678915],"min":[-0.03985358029604,0.00021973295952193,-0.04009966924787],"type":"VEC3"},{"bufferView":39,"byteOffset":0,"componentType":5126,"count":216,"type":"VEC3"},{"bufferView":40,"byteOffset":0,"componentType":5126,"count":216,"type":"VEC4"},{"bufferView":41,"byteOffset":0,"componentType":5126,"count":216,"type":"VEC2"},{"bufferView":42,"byteOffset":0,"componentType":5126,"count":216,"type":"VEC2"},{"bufferView":43,"byteOffset":0,"componentType":5123,"count":552,"type":"SCALAR"},{"bufferView":44,"byteOffset":0,"componentType":5126,"count":120,"max":[0.040030587464571,0.2143624573946,0.0397230163216591],"min":[-0.03971243277192,0.00052708951989188,-0.04006663709879],"type":"VEC3"},{"bufferView":45,"byteOffset":0,"componentType":5126,"count":120,"type":"VEC3"},{"bufferView":46,"byteOffset":0,"componentType":5126,"count":120,"type":"VEC4"},{"bufferView":47,"byteOffset":0,"componentType":5126,"count":120,"type":"VEC2"},{"bufferView":48,"byteOffset":0,"componentType":5126,"count":120,"type":"VEC2"},{"bufferView":49,"byteOffset":0,"componentType":5123,"count":168,"type":"SCALAR"},{"bufferView":50,"byteOffset":0,"componentType":5126,"count":152,"max":[0.0403555035591125,0.252779096364975,0.0387069657444954],"min":[-0.04009630531073,0.00209624692797661,-0.03999345377088],"type":"VEC3"},{"bufferView":51,"byteOffset":0,"componentType":5126,"count":152,"type":"VEC3"},{"bufferView":52,"byteOffset":0,"componentType":5126,"count":152,"type":"VEC2"},{"bufferView":53,"byteOffset":0,"componentType":5126,"count":152,"type":"VEC2"}],"animations":[{"channels":[],"name":"Unreal Take","samplers":[]}],"asset":{"generator":"FBX2glTF v0.13.0","version":"2.0"},"bufferViews":[{"buffer":0,"byteLength":4,"byteOffset":0},{"buffer":0,"byteLength":1344,"byteOffset":4,"target":34963},{"buffer":0,"byteLength":2232,"byteOffset":1348,"target":34962},{"buffer":0,"byteLength":2232,"byteOffset":3580,"target":34962},{"buffer":0,"byteLength":2976,"byteOffset":5812,"target":34962},{"buffer":0,"byteLength":1488,"byteOffset":8788,"target":34962},{"buffer":0,"byteLength":1488,"byteOffset":10276,"target":34962},{"buffer":0,"byteLength":1176,"byteOffset":11764,"target":34963},{"buffer":0,"byteLength":2016,"byteOffset":12940,"target":34962},{"buffer":0,"byteLength":2016,"byteOffset":14956,"target":34962},{"buffer":0,"byteLength":2688,"byteOffset":16972,"target":34962},{"buffer":0,"byteLength":1344,"byteOffset":19660,"target":34962},{"buffer":0,"byteLength":1344,"byteOffset":21004,"target":34962},{"buffer":0,"byteLength":534,"byteOffset":22348,"target":34963},{"buffer":0,"byteLength":1188,"byteOffset":22884,"target":34962},{"buffer":0,"byteLength":1188,"byteOffset":24072,"target":34962},{"buffer":0,"byteLength":1584,"byteOffset":25260,"target":34962},{"buffer":0,"byteLength":792,"byteOffset":26844,"target":34962},{"buffer":0,"byteLength":792,"byteOffset":27636,"target":34962},{"buffer":0,"byteLength":240,"byteOffset":28428,"target":34963},{"buffer":0,"byteLength":600,"byteOffset":28668,"target":34962},{"buffer":0,"byteLength":600,"byteOffset":29268,"target":34962},{"buffer":0,"byteLength":800,"byteOffset":29868,"target":34962},{"buffer":0,"byteLength":400,"byteOffset":30668,"target":34962},{"buffer":0,"byteLength":400,"byteOffset":31068,"target":34962},{"buffer":0,"byteLength":4032,"byteOffset":31468,"target":34963},{"buffer":0,"byteLength":4584,"byteOffset":35500,"target":34962},{"buffer":0,"byteLength":4584,"byteOffset":40084,"target":34962},{"buffer":0,"byteLength":6112,"byteOffset":44668,"target":34962},{"buffer":0,"byteLength":3056,"byteOffset":50780,"target":34962},{"buffer":0,"byteLength":3056,"byteOffset":53836,"target":34962},{"buffer":0,"byteLength":2856,"byteOffset":56892,"target":34963},{"buffer":0,"byteLength":3384,"byteOffset":59748,"target":34962},{"buffer":0,"byteLength":3384,"byteOffset":63132,"target":34962},{"buffer":0,"byteLength":4512,"byteOffset":66516,"target":34962},{"buffer":0,"byteLength":2256,"byteOffset":71028,"target":34962},{"buffer":0,"byteLength":2256,"byteOffset":73284,"target":34962},{"buffer":0,"byteLength":2154,"byteOffset":75540,"target":34963},{"buffer":0,"byteLength":2592,"byteOffset":77696,"target":34962},{"buffer":0,"byteLength":2592,"byteOffset":80288,"target":34962},{"buffer":0,"byteLength":3456,"byteOffset":82880,"target":34962},{"buffer":0,"byteLength":1728,"byteOffset":86336,"target":34962},{"buffer":0,"byteLength":1728,"byteOffset":88064,"target":34962},{"buffer":0,"byteLength":1104,"byteOffset":89792,"target":34963},{"buffer":0,"byteLength":1440,"byteOffset":90896,"target":34962},{"buffer":0,"byteLength":1440,"byteOffset":92336,"target":34962},{"buffer":0,"byteLength":1920,"byteOffset":93776,"target":34962},{"buffer":0,"byteLength":960,"byteOffset":95696,"target":34962},{"buffer":0,"byteLength":960,"byteOffset":96656,"target":34962},{"buffer":0,"byteLength":336,"byteOffset":97616,"target":34963},{"buffer":0,"byteLength":1824,"byteOffset":97952,"target":34962},{"buffer":0,"byteLength":1824,"byteOffset":99776,"target":34962},{"buffer":0,"byteLength":1216,"byteOffset":101600,"target":34962},{"buffer":0,"byteLength":1216,"byteOffset":102816,"target":34962}],"buffers":[{"byteLength":104032,"uri":"SM_Bottles_06.bin"}],"images":[{"name":"T_Bottles_N","uri":"T_Bottles_N.tga"},{"name":"T_Bottles_Glass_N","uri":"T_Bottles_Glass_N.tga"}],"materials":[{"alphaMode":"OPAQUE","doubleSided":false,"extras":{"fromFBX":{"isTruePBR":false,"shadingModel":"Phong"}},"name":"MI_Bottles","normalTexture":{"index":0,"texCoord":0},"pbrMetallicRoughness":{"baseColorFactor":[0.21586050093174,0.21586050093174,0.21586050093174,1],"metallicFactor":0.400000005960464,"roughnessFactor":0.301511347293854}},{"alphaMode":"OPAQUE","doubleSided":false,"extras":{"fromFBX":{"isTruePBR":false,"shadingModel":"Phong"}},"name":"MI_Bottles_Glass_1","normalTexture":{"index":1,"texCoord":0},"pbrMetallicRoughness":{"baseColorFactor":[0.21586050093174,0.21586050093174,0.21586050093174,1],"metallicFactor":0.400000005960464,"roughnessFactor":0.301511347293854}},{"alphaMode":"OPAQUE","doubleSided":false,"extras":{"fromFBX":{"isTruePBR":false,"shadingModel":"Lambert"}},"name":"DefaultMaterial","pbrMetallicRoughness":{"baseColorFactor":[0.5,0.5,0.5,1],"metallicFactor":0.200000002980232,"roughnessFactor":0.800000011920929}}],"meshes":[{"name":"SM_Bottles_06_LOD0","primitives":[{"attributes":{"NORMAL":3,"POSITION":2,"TANGENT":4,"TEXCOORD_0":5,"TEXCOORD_1":6},"indices":1,"material":0,"mode":4},{"attributes":{"NORMAL":27,"POSITION":26,"TANGENT":28,"TEXCOORD_0":29,"TEXCOORD_1":30},"indices":25,"material":1,"mode":4}]},{"name":"SM_Bottles_06_LOD1","primitives":[{"attributes":{"NORMAL":9,"POSITION":8,"TANGENT":10,"TEXCOORD_0":11,"TEXCOORD_1":12},"indices":7,"material":0,"mode":4},{"attributes":{"NORMAL":33,"POSITION":32,"TANGENT":34,"TEXCOORD_0":35,"TEXCOORD_1":36},"indices":31,"material":1,"mode":4}]},{"name":"SM_Bottles_06_LOD2","primitives":[{"attributes":{"NORMAL":15,"POSITION":14,"TANGENT":16,"TEXCOORD_0":17,"TEXCOORD_1":18},"indices":13,"material":0,"mode":4},{"attributes":{"NORMAL":39,"POSITION":38,"TANGENT":40,"TEXCOORD_0":41,"TEXCOORD_1":42},"indices":37,"material":1,"mode":4}]},{"name":"SM_Bottles_06_LOD3","primitives":[{"attributes":{"NORMAL":21,"POSITION":20,"TANGENT":22,"TEXCOORD_0":23,"TEXCOORD_1":24},"indices":19,"material":0,"mode":4},{"attributes":{"NORMAL":45,"POSITION":44,"TANGENT":46,"TEXCOORD_0":47,"TEXCOORD_1":48},"indices":43,"material":1,"mode":4}]},{"name":"SM_Bottles_06_ConvexHulls","primitives":[{"attributes":{"NORMAL":51,"POSITION":50,"TEXCOORD_0":52,"TEXCOORD_1":53},"indices":49,"material":2,"mode":4}]}],"nodes":[{"children":[1,2,3,4,5],"name":"SM_Bottles_74","originalUnits":0.00999999977648258,"pivot":[0,0,0],"rotation":[0,0,0,1],"scale":[1,1,1],"translation":[0,0,0]},{"mesh":0,"name":"SM_Bottles_06_LOD0","originalUnits":0.00999999977648258,"pivot":[0,0,0],"rotation":[0,0,0,1],"scale":[1,1,1],"translation":[0,0,0]},{"mesh":4,"name":"SM_Bottles_06_ConvexHulls","originalUnits":0.00999999977648258,"pivot":[0,0,0],"rotation":[0,0,0,1],"scale":[1,1,1],"translation":[0,0,0]},{"mesh":1,"name":"SM_Bottles_06_LOD1","originalUnits":0.00999999977648258,"pivot":[0,0,0],"rotation":[0,0,0,1],"scale":[1,1,1],"translation":[0,0,0]},{"mesh":2,"name":"SM_Bottles_06_LOD2","originalUnits":0.00999999977648258,"pivot":[0,0,0],"rotation":[0,0,0,1],"scale":[1,1,1],"translation":[0,0,0]},{"mesh":3,"name":"SM_Bottles_06_LOD3","originalUnits":0.00999999977648258,"pivot":[0,0,0],"rotation":[0,0,0,1],"scale":[1,1,1],"translation":[0,0,0]}],"samplers":[{}],"scene":0,"scenes":[{"name":"Root Scene","nodes":[0]}],"textures":[{"name":"T_Bottles_N","sampler":0,"source":0},{"name":"T_Bottles_Glass_N","sampler":0,"source":1}]}