{"accessors":[{"bufferView":0,"byteOffset":0,"componentType":5126,"count":1,"max":[0],"min":[0],"type":"SCALAR"},{"bufferView":1,"byteOffset":0,"componentType":5123,"count":966,"type":"SCALAR"},{"bufferView":2,"byteOffset":0,"componentType":5126,"count":365,"max":[0.183066472411156,0.572174489498138,0.522296071052551],"min":[-0.18306632339954,-0.5721743106842,-0.52229577302933],"type":"VEC3"},{"bufferView":3,"byteOffset":0,"componentType":5126,"count":365,"type":"VEC3"},{"bufferView":4,"byteOffset":0,"componentType":5126,"count":365,"type":"VEC4"},{"bufferView":5,"byteOffset":0,"componentType":5126,"count":365,"type":"VEC2"},{"bufferView":6,"byteOffset":0,"componentType":5126,"count":365,"type":"VEC2"},{"bufferView":7,"byteOffset":0,"componentType":5123,"count":714,"type":"SCALAR"},{"bufferView":8,"byteOffset":0,"componentType":5126,"count":311,"max":[0.183066472411156,0.572174489498138,0.522296071052551],"min":[-0.18214166164398,-0.5721743106842,-0.52229577302933],"type":"VEC3"},{"bufferView":9,"byteOffset":0,"componentType":5126,"count":311,"type":"VEC3"},{"bufferView":10,"byteOffset":0,"componentType":5126,"count":311,"type":"VEC4"},{"bufferView":11,"byteOffset":0,"componentType":5126,"count":311,"type":"VEC2"},{"bufferView":12,"byteOffset":0,"componentType":5126,"count":311,"type":"VEC2"},{"bufferView":13,"byteOffset":0,"componentType":5123,"count":492,"type":"SCALAR"},{"bufferView":14,"byteOffset":0,"componentType":5126,"count":240,"max":[0.183066472411156,0.572174489498138,0.522296071052551],"min":[-0.18236544728279,-0.5721743106842,-0.52229577302933],"type":"VEC3"},{"bufferView":15,"byteOffset":0,"componentType":5126,"count":240,"type":"VEC3"},{"bufferView":16,"byteOffset":0,"componentType":5126,"count":240,"type":"VEC4"},{"bufferView":17,"byteOffset":0,"componentType":5126,"count":240,"type":"VEC2"},{"bufferView":18,"byteOffset":0,"componentType":5126,"count":240,"type":"VEC2"},{"bufferView":19,"byteOffset":0,"componentType":5123,"count":240,"type":"SCALAR"},{"bufferView":20,"byteOffset":0,"componentType":5126,"count":158,"max":[0.183049485087395,0.57646656036377,0.525622248649597],"min":[-0.18119461834431,-0.5721743106842,-0.52508544921875],"type":"VEC3"},{"bufferView":21,"byteOffset":0,"componentType":5126,"count":158,"type":"VEC3"},{"bufferView":22,"byteOffset":0,"componentType":5126,"count":158,"type":"VEC4"},{"bufferView":23,"byteOffset":0,"componentType":5126,"count":158,"type":"VEC2"},{"bufferView":24,"byteOffset":0,"componentType":5126,"count":158,"type":"VEC2"},{"bufferView":25,"byteOffset":0,"componentType":5123,"count":30,"type":"SCALAR"},{"bufferView":26,"byteOffset":0,"componentType":5126,"count":12,"max":[-0.08500844985247,0.45432186126709,0.350141555070877],"min":[-0.08500923216343,-0.34708276391029,-0.39653101563454],"type":"VEC3"},{"bufferView":27,"byteOffset":0,"componentType":5126,"count":12,"type":"VEC3"},{"bufferView":28,"byteOffset":0,"componentType":5126,"count":12,"type":"VEC4"},{"bufferView":29,"byteOffset":0,"componentType":5126,"count":12,"type":"VEC2"},{"bufferView":30,"byteOffset":0,"componentType":5126,"count":12,"type":"VEC2"},{"bufferView":31,"byteOffset":0,"componentType":5123,"count":30,"type":"SCALAR"},{"bufferView":32,"byteOffset":0,"componentType":5126,"count":12,"max":[-0.08500844985247,0.45432186126709,0.350141555070877],"min":[-0.08500923216343,-0.34708276391029,-0.39653101563454],"type":"VEC3"},{"bufferView":33,"byteOffset":0,"componentType":5126,"count":12,"type":"VEC3"},{"bufferView":34,"byteOffset":0,"componentType":5126,"count":12,"type":"VEC4"},{"bufferView":35,"byteOffset":0,"componentType":5126,"count":12,"type":"VEC2"},{"bufferView":36,"byteOffset":0,"componentType":5126,"count":12,"type":"VEC2"},{"bufferView":37,"byteOffset":0,"componentType":5123,"count":6,"type":"SCALAR"},{"bufferView":38,"byteOffset":0,"componentType":5126,"count":4,"max":[-0.08499719202518,0.454511106014252,0.350146859884262],"min":[-0.08500044047832,-0.34694990515709,-0.39640554785728],"type":"VEC3"},{"bufferView":39,"byteOffset":0,"componentType":5126,"count":4,"type":"VEC3"},{"bufferView":40,"byteOffset":0,"componentType":5126,"count":4,"type":"VEC4"},{"bufferView":41,"byteOffset":0,"componentType":5126,"count":4,"type":"VEC2"},{"bufferView":42,"byteOffset":0,"componentType":5126,"count":4,"type":"VEC2"},{"bufferView":43,"byteOffset":0,"componentType":5123,"count":6,"type":"SCALAR"},{"bufferView":44,"byteOffset":0,"componentType":5126,"count":4,"max":[-0.08499719202518,0.454511106014252,0.350146859884262],"min":[-0.08500044047832,-0.34694990515709,-0.39640554785728],"type":"VEC3"},{"bufferView":45,"byteOffset":0,"componentType":5126,"count":4,"type":"VEC3"},{"bufferView":46,"byteOffset":0,"componentType":5126,"count":4,"type":"VEC4"},{"bufferView":47,"byteOffset":0,"componentType":5126,"count":4,"type":"VEC2"},{"bufferView":48,"byteOffset":0,"componentType":5126,"count":4,"type":"VEC2"},{"bufferView":49,"byteOffset":0,"componentType":5123,"count":306,"type":"SCALAR"},{"bufferView":50,"byteOffset":0,"componentType":5126,"count":296,"max":[0.192910730838776,0.583438277244568,0.523112416267395],"min":[-0.17851108312607,-0.58305680751801,-0.52537304162979],"type":"VEC3"},{"bufferView":51,"byteOffset":0,"componentType":5126,"count":296,"type":"VEC3"},{"bufferView":52,"byteOffset":0,"componentType":5126,"count":296,"type":"VEC2"},{"bufferView":53,"byteOffset":0,"componentType":5126,"count":296,"type":"VEC2"}],"animations":[{"channels":[],"name":"Unreal Take","samplers":[]}],"asset":{"generator":"FBX2glTF v0.13.0","version":"2.0"},"bufferViews":[{"buffer":0,"byteLength":4,"byteOffset":0},{"buffer":0,"byteLength":1932,"byteOffset":4,"target":34963},{"buffer":0,"byteLength":4380,"byteOffset":1936,"target":34962},{"buffer":0,"byteLength":4380,"byteOffset":6316,"target":34962},{"buffer":0,"byteLength":5840,"byteOffset":10696,"target":34962},{"buffer":0,"byteLength":2920,"byteOffset":16536,"target":34962},{"buffer":0,"byteLength":2920,"byteOffset":19456,"target":34962},{"buffer":0,"byteLength":1428,"byteOffset":22376,"target":34963},{"buffer":0,"byteLength":3732,"byteOffset":23804,"target":34962},{"buffer":0,"byteLength":3732,"byteOffset":27536,"target":34962},{"buffer":0,"byteLength":4976,"byteOffset":31268,"target":34962},{"buffer":0,"byteLength":2488,"byteOffset":36244,"target":34962},{"buffer":0,"byteLength":2488,"byteOffset":38732,"target":34962},{"buffer":0,"byteLength":984,"byteOffset":41220,"target":34963},{"buffer":0,"byteLength":2880,"byteOffset":42204,"target":34962},{"buffer":0,"byteLength":2880,"byteOffset":45084,"target":34962},{"buffer":0,"byteLength":3840,"byteOffset":47964,"target":34962},{"buffer":0,"byteLength":1920,"byteOffset":51804,"target":34962},{"buffer":0,"byteLength":1920,"byteOffset":53724,"target":34962},{"buffer":0,"byteLength":480,"byteOffset":55644,"target":34963},{"buffer":0,"byteLength":1896,"byteOffset":56124,"target":34962},{"buffer":0,"byteLength":1896,"byteOffset":58020,"target":34962},{"buffer":0,"byteLength":2528,"byteOffset":59916,"target":34962},{"buffer":0,"byteLength":1264,"byteOffset":62444,"target":34962},{"buffer":0,"byteLength":1264,"byteOffset":63708,"target":34962},{"buffer":0,"byteLength":60,"byteOffset":64972,"target":34963},{"buffer":0,"byteLength":144,"byteOffset":65032,"target":34962},{"buffer":0,"byteLength":144,"byteOffset":65176,"target":34962},{"buffer":0,"byteLength":192,"byteOffset":65320,"target":34962},{"buffer":0,"byteLength":96,"byteOffset":65512,"target":34962},{"buffer":0,"byteLength":96,"byteOffset":65608,"target":34962},{"buffer":0,"byteLength":60,"byteOffset":65704,"target":34963},{"buffer":0,"byteLength":144,"byteOffset":65764,"target":34962},{"buffer":0,"byteLength":144,"byteOffset":65908,"target":34962},{"buffer":0,"byteLength":192,"byteOffset":66052,"target":34962},{"buffer":0,"byteLength":96,"byteOffset":66244,"target":34962},{"buffer":0,"byteLength":96,"byteOffset":66340,"target":34962},{"buffer":0,"byteLength":12,"byteOffset":66436,"target":34963},{"buffer":0,"byteLength":48,"byteOffset":66448,"target":34962},{"buffer":0,"byteLength":48,"byteOffset":66496,"target":34962},{"buffer":0,"byteLength":64,"byteOffset":66544,"target":34962},{"buffer":0,"byteLength":32,"byteOffset":66608,"target":34962},{"buffer":0,"byteLength":32,"byteOffset":66640,"target":34962},{"buffer":0,"byteLength":12,"byteOffset":66672,"target":34963},{"buffer":0,"byteLength":48,"byteOffset":66684,"target":34962},{"buffer":0,"byteLength":48,"byteOffset":66732,"target":34962},{"buffer":0,"byteLength":64,"byteOffset":66780,"target":34962},{"buffer":0,"byteLength":32,"byteOffset":66844,"target":34962},{"buffer":0,"byteLength":32,"byteOffset":66876,"target":34962},{"buffer":0,"byteLength":612,"byteOffset":66908,"target":34963},{"buffer":0,"byteLength":3552,"byteOffset":67520,"target":34962},{"buffer":0,"byteLength":3552,"byteOffset":71072,"target":34962},{"buffer":0,"byteLength":2368,"byteOffset":74624,"target":34962},{"buffer":0,"byteLength":2368,"byteOffset":76992,"target":34962}],"buffers":[{"byteLength":79360,"uri":"SM_BTWindow.bin"}],"images":[{"name":"T_Fill_N","uri":"T_Fill_N.png"}],"materials":[{"alphaMode":"OPAQUE","doubleSided":false,"extras":{"fromFBX":{"isTruePBR":false,"shadingModel":"Phong"}},"name":"MM_Base01","normalTexture":{"index":0,"texCoord":0},"pbrMetallicRoughness":{"baseColorFactor":[0.21586050093174,0.21586050093174,0.21586050093174,1],"metallicFactor":0.400000005960464,"roughnessFactor":0.301511347293854}},{"alphaMode":"OPAQUE","doubleSided":false,"extras":{"fromFBX":{"isTruePBR":false,"shadingModel":"Phong"}},"name":"MM_Mirror_base","pbrMetallicRoughness":{"baseColorFactor":[1,1,1,1],"metallicFactor":0.400000005960464,"roughnessFactor":0.301511347293854}},{"alphaMode":"OPAQUE","doubleSided":false,"extras":{"fromFBX":{"isTruePBR":false,"shadingModel":"Lambert"}},"name":"DefaultMaterial","pbrMetallicRoughness":{"baseColorFactor":[0.5,0.5,0.5,1],"metallicFactor":0.200000002980232,"roughnessFactor":0.800000011920929}}],"meshes":[{"name":"SM_BTWindow_LOD0","primitives":[{"attributes":{"NORMAL":3,"POSITION":2,"TANGENT":4,"TEXCOORD_0":5,"TEXCOORD_1":6},"indices":1,"material":0,"mode":4},{"attributes":{"NORMAL":27,"POSITION":26,"TANGENT":28,"TEXCOORD_0":29,"TEXCOORD_1":30},"indices":25,"material":1,"mode":4}]},{"name":"SM_BTWindow_LOD1","primitives":[{"attributes":{"NORMAL":9,"POSITION":8,"TANGENT":10,"TEXCOORD_0":11,"TEXCOORD_1":12},"indices":7,"material":0,"mode":4},{"attributes":{"NORMAL":33,"POSITION":32,"TANGENT":34,"TEXCOORD_0":35,"TEXCOORD_1":36},"indices":31,"material":1,"mode":4}]},{"name":"SM_BTWindow_LOD2","primitives":[{"attributes":{"NORMAL":15,"POSITION":14,"TANGENT":16,"TEXCOORD_0":17,"TEXCOORD_1":18},"indices":13,"material":0,"mode":4},{"attributes":{"NORMAL":39,"POSITION":38,"TANGENT":40,"TEXCOORD_0":41,"TEXCOORD_1":42},"indices":37,"material":1,"mode":4}]},{"name":"SM_BTWindow_LOD3","primitives":[{"attributes":{"NORMAL":21,"POSITION":20,"TANGENT":22,"TEXCOORD_0":23,"TEXCOORD_1":24},"indices":19,"material":0,"mode":4},{"attributes":{"NORMAL":45,"POSITION":44,"TANGENT":46,"TEXCOORD_0":47,"TEXCOORD_1":48},"indices":43,"material":1,"mode":4}]},{"name":"SM_BTWindow_ConvexHulls","primitives":[{"attributes":{"NORMAL":51,"POSITION":50,"TEXCOORD_0":52,"TEXCOORD_1":53},"indices":49,"material":2,"mode":4}]}],"nodes":[{"children":[1,2,3,4,5],"name":"Bathroom_Mirror_23","originalUnits":0.00999999977648258,"pivot":[0,0,0],"rotation":[0,0,0,1],"scale":[1,1,1],"translation":[0,0,0]},{"mesh":0,"name":"SM_BTWindow_LOD0","originalUnits":0.00999999977648258,"pivot":[0,0,0],"rotation":[0,0,0,1],"scale":[1,1,1],"translation":[0,0,0]},{"mesh":4,"name":"SM_BTWindow_ConvexHulls","originalUnits":0.00999999977648258,"pivot":[0,0,0],"rotation":[0,0,0,1],"scale":[1,1,1],"translation":[0,0,0]},{"mesh":1,"name":"SM_BTWindow_LOD1","originalUnits":0.00999999977648258,"pivot":[0,0,0],"rotation":[0,0,0,1],"scale":[1,1,1],"translation":[0,0,0]},{"mesh":2,"name":"SM_BTWindow_LOD2","originalUnits":0.00999999977648258,"pivot":[0,0,0],"rotation":[0,0,0,1],"scale":[1,1,1],"translation":[0,0,0]},{"mesh":3,"name":"SM_BTWindow_LOD3","originalUnits":0.00999999977648258,"pivot":[0,0,0],"rotation":[0,0,0,1],"scale":[1,1,1],"translation":[0,0,0]}],"samplers":[{}],"scene":0,"scenes":[{"name":"Root Scene","nodes":[0]}],"textures":[{"name":"T_Fill_N","sampler":0,"source":0}]}