{"accessors":[{"bufferView":0,"byteOffset":0,"componentType":5126,"count":1,"max":[0],"min":[0],"type":"SCALAR"},{"bufferView":1,"byteOffset":0,"componentType":5123,"count":804,"type":"SCALAR"},{"bufferView":2,"byteOffset":0,"componentType":5126,"count":316,"max":[0.0890840142965317,0.319999933242798,0.0096000200137496],"min":[-0.09639518707991,-0.00000004129351,-0.00959999207407],"type":"VEC3"},{"bufferView":3,"byteOffset":0,"componentType":5126,"count":316,"type":"VEC3"},{"bufferView":4,"byteOffset":0,"componentType":5126,"count":316,"type":"VEC4"},{"bufferView":5,"byteOffset":0,"componentType":5126,"count":316,"type":"VEC2"},{"bufferView":6,"byteOffset":0,"componentType":5126,"count":316,"type":"VEC2"},{"bufferView":7,"byteOffset":0,"componentType":5123,"count":600,"type":"SCALAR"},{"bufferView":8,"byteOffset":0,"componentType":5126,"count":248,"max":[0.0890848934650421,0.319999933242798,0.00972792878746986],"min":[-0.09639518707991,-0.00000004129351,-0.00972792971879],"type":"VEC3"},{"bufferView":9,"byteOffset":0,"componentType":5126,"count":248,"type":"VEC3"},{"bufferView":10,"byteOffset":0,"componentType":5126,"count":248,"type":"VEC4"},{"bufferView":11,"byteOffset":0,"componentType":5126,"count":248,"type":"VEC2"},{"bufferView":12,"byteOffset":0,"componentType":5126,"count":248,"type":"VEC2"},{"bufferView":13,"byteOffset":0,"componentType":5123,"count":402,"type":"SCALAR"},{"bufferView":14,"byteOffset":0,"componentType":5126,"count":182,"max":[0.0890848934650421,0.319999903440475,0.0096166180446744],"min":[-0.09639518707991,-0.00000004129351,-0.0096068456769],"type":"VEC3"},{"bufferView":15,"byteOffset":0,"componentType":5126,"count":182,"type":"VEC3"},{"bufferView":16,"byteOffset":0,"componentType":5126,"count":182,"type":"VEC4"},{"bufferView":17,"byteOffset":0,"componentType":5126,"count":182,"type":"VEC2"},{"bufferView":18,"byteOffset":0,"componentType":5126,"count":182,"type":"VEC2"},{"bufferView":19,"byteOffset":0,"componentType":5123,"count":198,"type":"SCALAR"},{"bufferView":20,"byteOffset":0,"componentType":5126,"count":116,"max":[0.0890648663043976,0.319999903440475,0.00960301142185926],"min":[-0.096395149827,-0.00019685055304,-0.00960296485573],"type":"VEC3"},{"bufferView":21,"byteOffset":0,"componentType":5126,"count":116,"type":"VEC3"},{"bufferView":22,"byteOffset":0,"componentType":5126,"count":116,"type":"VEC4"},{"bufferView":23,"byteOffset":0,"componentType":5126,"count":116,"type":"VEC2"},{"bufferView":24,"byteOffset":0,"componentType":5126,"count":116,"type":"VEC2"},{"bufferView":25,"byteOffset":0,"componentType":5123,"count":54,"type":"SCALAR"},{"bufferView":26,"byteOffset":0,"componentType":5126,"count":36,"max":[0.0900419950485229,0.321249961853027,0.0109375091269612],"min":[-0.09750001877546,-0.00125001149718,-0.01061248034239],"type":"VEC3"},{"bufferView":27,"byteOffset":0,"componentType":5126,"count":36,"type":"VEC3"},{"bufferView":28,"byteOffset":0,"componentType":5126,"count":36,"type":"VEC2"},{"bufferView":29,"byteOffset":0,"componentType":5126,"count":36,"type":"VEC2"}],"animations":[{"channels":[],"name":"Unreal Take","samplers":[]}],"asset":{"generator":"FBX2glTF v0.13.0","version":"2.0"},"bufferViews":[{"buffer":0,"byteLength":4,"byteOffset":0},{"buffer":0,"byteLength":1608,"byteOffset":4,"target":34963},{"buffer":0,"byteLength":3792,"byteOffset":1612,"target":34962},{"buffer":0,"byteLength":3792,"byteOffset":5404,"target":34962},{"buffer":0,"byteLength":5056,"byteOffset":9196,"target":34962},{"buffer":0,"byteLength":2528,"byteOffset":14252,"target":34962},{"buffer":0,"byteLength":2528,"byteOffset":16780,"target":34962},{"buffer":0,"byteLength":1200,"byteOffset":19308,"target":34963},{"buffer":0,"byteLength":2976,"byteOffset":20508,"target":34962},{"buffer":0,"byteLength":2976,"byteOffset":23484,"target":34962},{"buffer":0,"byteLength":3968,"byteOffset":26460,"target":34962},{"buffer":0,"byteLength":1984,"byteOffset":30428,"target":34962},{"buffer":0,"byteLength":1984,"byteOffset":32412,"target":34962},{"buffer":0,"byteLength":804,"byteOffset":34396,"target":34963},{"buffer":0,"byteLength":2184,"byteOffset":35200,"target":34962},{"buffer":0,"byteLength":2184,"byteOffset":37384,"target":34962},{"buffer":0,"byteLength":2912,"byteOffset":39568,"target":34962},{"buffer":0,"byteLength":1456,"byteOffset":42480,"target":34962},{"buffer":0,"byteLength":1456,"byteOffset":43936,"target":34962},{"buffer":0,"byteLength":396,"byteOffset":45392,"target":34963},{"buffer":0,"byteLength":1392,"byteOffset":45788,"target":34962},{"buffer":0,"byteLength":1392,"byteOffset":47180,"target":34962},{"buffer":0,"byteLength":1856,"byteOffset":48572,"target":34962},{"buffer":0,"byteLength":928,"byteOffset":50428,"target":34962},{"buffer":0,"byteLength":928,"byteOffset":51356,"target":34962},{"buffer":0,"byteLength":108,"byteOffset":52284,"target":34963},{"buffer":0,"byteLength":432,"byteOffset":52392,"target":34962},{"buffer":0,"byteLength":432,"byteOffset":52824,"target":34962},{"buffer":0,"byteLength":288,"byteOffset":53256,"target":34962},{"buffer":0,"byteLength":288,"byteOffset":53544,"target":34962}],"buffers":[{"byteLength":53832,"uri":"SM_Book03.bin"}],"images":[{"name":"T_Fill_N","uri":"T_Fill_N.png"}],"materials":[{"alphaMode":"OPAQUE","doubleSided":false,"extras":{"fromFBX":{"isTruePBR":false,"shadingModel":"Phong"}},"name":"MI_Books02","normalTexture":{"index":0,"texCoord":0},"pbrMetallicRoughness":{"baseColorFactor":[0.21586050093174,0.21586050093174,0.21586050093174,1],"metallicFactor":0.400000005960464,"roughnessFactor":0.301511347293854}},{"alphaMode":"OPAQUE","doubleSided":false,"extras":{"fromFBX":{"isTruePBR":false,"shadingModel":"Lambert"}},"name":"DefaultMaterial","pbrMetallicRoughness":{"baseColorFactor":[0.5,0.5,0.5,1],"metallicFactor":0.200000002980232,"roughnessFactor":0.800000011920929}}],"meshes":[{"name":"SM_Book03_LOD0","primitives":[{"attributes":{"NORMAL":3,"POSITION":2,"TANGENT":4,"TEXCOORD_0":5,"TEXCOORD_1":6},"indices":1,"material":0,"mode":4}]},{"name":"SM_Book03_LOD1","primitives":[{"attributes":{"NORMAL":9,"POSITION":8,"TANGENT":10,"TEXCOORD_0":11,"TEXCOORD_1":12},"indices":7,"material":0,"mode":4}]},{"name":"SM_Book03_LOD2","primitives":[{"attributes":{"NORMAL":15,"POSITION":14,"TANGENT":16,"TEXCOORD_0":17,"TEXCOORD_1":18},"indices":13,"material":0,"mode":4}]},{"name":"SM_Book03_LOD3","primitives":[{"attributes":{"NORMAL":21,"POSITION":20,"TANGENT":22,"TEXCOORD_0":23,"TEXCOORD_1":24},"indices":19,"material":0,"mode":4}]},{"name":"SM_Book03_ConvexHulls","primitives":[{"attributes":{"NORMAL":27,"POSITION":26,"TEXCOORD_0":28,"TEXCOORD_1":29},"indices":25,"material":1,"mode":4}]}],"nodes":[{"children":[1,2,3,4,5],"name":"SM_Book13","originalUnits":0.00999999977648258,"pivot":[0,0,0],"rotation":[0,0,0,1],"scale":[1,1,1],"translation":[0,0,0]},{"mesh":0,"name":"SM_Book03_LOD0","originalUnits":0.00999999977648258,"pivot":[0,0,0],"rotation":[0,0,0,1],"scale":[1,1,1],"translation":[0,0,0]},{"mesh":4,"name":"SM_Book03_ConvexHulls","originalUnits":0.00999999977648258,"pivot":[0,0,0],"rotation":[0,0,0,1],"scale":[1,1,1],"translation":[0,0,0]},{"mesh":1,"name":"SM_Book03_LOD1","originalUnits":0.00999999977648258,"pivot":[0,0,0],"rotation":[0,0,0,1],"scale":[1,1,1],"translation":[0,0,0]},{"mesh":2,"name":"SM_Book03_LOD2","originalUnits":0.00999999977648258,"pivot":[0,0,0],"rotation":[0,0,0,1],"scale":[1,1,1],"translation":[0,0,0]},{"mesh":3,"name":"SM_Book03_LOD3","originalUnits":0.00999999977648258,"pivot":[0,0,0],"rotation":[0,0,0,1],"scale":[1,1,1],"translation":[0,0,0]}],"samplers":[{}],"scene":0,"scenes":[{"name":"Root Scene","nodes":[0]}],"textures":[{"name":"T_Fill_N","sampler":0,"source":0}]}