{"accessors":[{"bufferView":0,"byteOffset":0,"componentType":5126,"count":1,"max":[0],"min":[0],"type":"SCALAR"},{"bufferView":1,"byteOffset":0,"componentType":5123,"count":2346,"type":"SCALAR"},{"bufferView":2,"byteOffset":0,"componentType":5126,"count":818,"max":[0.389999985694885,2.65036177635193,0.727999866008759],"min":[-0.13987478613853,-0.0000000146245,-0.7279999256134],"type":"VEC3"},{"bufferView":3,"byteOffset":0,"componentType":5126,"count":818,"type":"VEC3"},{"bufferView":4,"byteOffset":0,"componentType":5126,"count":818,"type":"VEC4"},{"bufferView":5,"byteOffset":0,"componentType":5126,"count":818,"type":"VEC2"},{"bufferView":6,"byteOffset":0,"componentType":5126,"count":818,"type":"VEC2"},{"bufferView":7,"byteOffset":0,"componentType":5123,"count":1758,"type":"SCALAR"},{"bufferView":8,"byteOffset":0,"componentType":5126,"count":693,"max":[0.389999985694885,2.65036177635193,0.727999866008759],"min":[-0.13987478613853,-0.00000236516507,-0.7279999256134],"type":"VEC3"},{"bufferView":9,"byteOffset":0,"componentType":5126,"count":693,"type":"VEC3"},{"bufferView":10,"byteOffset":0,"componentType":5126,"count":693,"type":"VEC4"},{"bufferView":11,"byteOffset":0,"componentType":5126,"count":693,"type":"VEC2"},{"bufferView":12,"byteOffset":0,"componentType":5126,"count":693,"type":"VEC2"},{"bufferView":13,"byteOffset":0,"componentType":5123,"count":1170,"type":"SCALAR"},{"bufferView":14,"byteOffset":0,"componentType":5126,"count":541,"max":[0.390000015497208,2.65036177635193,0.728014767169952],"min":[-0.13987511396408,-0.00000236516507,-0.7280148267746],"type":"VEC3"},{"bufferView":15,"byteOffset":0,"componentType":5126,"count":541,"type":"VEC3"},{"bufferView":16,"byteOffset":0,"componentType":5126,"count":541,"type":"VEC4"},{"bufferView":17,"byteOffset":0,"componentType":5126,"count":541,"type":"VEC2"},{"bufferView":18,"byteOffset":0,"componentType":5126,"count":541,"type":"VEC2"},{"bufferView":19,"byteOffset":0,"componentType":5123,"count":588,"type":"SCALAR"},{"bufferView":20,"byteOffset":0,"componentType":5126,"count":336,"max":[0.389703780412674,2.65040373802185,0.728101193904877],"min":[-0.1394667327404,-0.00160624354612,-0.72810119390488],"type":"VEC3"},{"bufferView":21,"byteOffset":0,"componentType":5126,"count":336,"type":"VEC3"},{"bufferView":22,"byteOffset":0,"componentType":5126,"count":336,"type":"VEC4"},{"bufferView":23,"byteOffset":0,"componentType":5126,"count":336,"type":"VEC2"},{"bufferView":24,"byteOffset":0,"componentType":5126,"count":336,"type":"VEC2"},{"bufferView":25,"byteOffset":0,"componentType":5123,"count":84,"type":"SCALAR"},{"bufferView":26,"byteOffset":0,"componentType":5126,"count":48,"max":[0.391124993562698,2.6512496471405,0.728999674320221],"min":[-0.14062534272671,-0.0012443694286,-0.72899979352951],"type":"VEC3"},{"bufferView":27,"byteOffset":0,"componentType":5126,"count":48,"type":"VEC3"},{"bufferView":28,"byteOffset":0,"componentType":5126,"count":48,"type":"VEC2"},{"bufferView":29,"byteOffset":0,"componentType":5126,"count":48,"type":"VEC2"}],"animations":[{"channels":[],"name":"Unreal Take","samplers":[]}],"asset":{"generator":"FBX2glTF v0.13.0","version":"2.0"},"bufferViews":[{"buffer":0,"byteLength":4,"byteOffset":0},{"buffer":0,"byteLength":4692,"byteOffset":4,"target":34963},{"buffer":0,"byteLength":9816,"byteOffset":4696,"target":34962},{"buffer":0,"byteLength":9816,"byteOffset":14512,"target":34962},{"buffer":0,"byteLength":13088,"byteOffset":24328,"target":34962},{"buffer":0,"byteLength":6544,"byteOffset":37416,"target":34962},{"buffer":0,"byteLength":6544,"byteOffset":43960,"target":34962},{"buffer":0,"byteLength":3516,"byteOffset":50504,"target":34963},{"buffer":0,"byteLength":8316,"byteOffset":54020,"target":34962},{"buffer":0,"byteLength":8316,"byteOffset":62336,"target":34962},{"buffer":0,"byteLength":11088,"byteOffset":70652,"target":34962},{"buffer":0,"byteLength":5544,"byteOffset":81740,"target":34962},{"buffer":0,"byteLength":5544,"byteOffset":87284,"target":34962},{"buffer":0,"byteLength":2340,"byteOffset":92828,"target":34963},{"buffer":0,"byteLength":6492,"byteOffset":95168,"target":34962},{"buffer":0,"byteLength":6492,"byteOffset":101660,"target":34962},{"buffer":0,"byteLength":8656,"byteOffset":108152,"target":34962},{"buffer":0,"byteLength":4328,"byteOffset":116808,"target":34962},{"buffer":0,"byteLength":4328,"byteOffset":121136,"target":34962},{"buffer":0,"byteLength":1176,"byteOffset":125464,"target":34963},{"buffer":0,"byteLength":4032,"byteOffset":126640,"target":34962},{"buffer":0,"byteLength":4032,"byteOffset":130672,"target":34962},{"buffer":0,"byteLength":5376,"byteOffset":134704,"target":34962},{"buffer":0,"byteLength":2688,"byteOffset":140080,"target":34962},{"buffer":0,"byteLength":2688,"byteOffset":142768,"target":34962},{"buffer":0,"byteLength":168,"byteOffset":145456,"target":34963},{"buffer":0,"byteLength":576,"byteOffset":145624,"target":34962},{"buffer":0,"byteLength":576,"byteOffset":146200,"target":34962},{"buffer":0,"byteLength":384,"byteOffset":146776,"target":34962},{"buffer":0,"byteLength":384,"byteOffset":147160,"target":34962}],"buffers":[{"byteLength":147544,"uri":"SM_Bookshelf.bin"}],"images":[{"name":"T_BookShelf_N","uri":"T_BookShelf_N.png"}],"materials":[{"alphaMode":"OPAQUE","doubleSided":false,"extras":{"fromFBX":{"isTruePBR":false,"shadingModel":"Phong"}},"name":"MI_BookShelf","normalTexture":{"index":0,"texCoord":0},"pbrMetallicRoughness":{"baseColorFactor":[0.21586050093174,0.21586050093174,0.21586050093174,1],"metallicFactor":0.400000005960464,"roughnessFactor":0.301511347293854}},{"alphaMode":"OPAQUE","doubleSided":false,"extras":{"fromFBX":{"isTruePBR":false,"shadingModel":"Lambert"}},"name":"DefaultMaterial","pbrMetallicRoughness":{"baseColorFactor":[0.5,0.5,0.5,1],"metallicFactor":0.200000002980232,"roughnessFactor":0.800000011920929}}],"meshes":[{"name":"SM_Bookshelf_LOD0","primitives":[{"attributes":{"NORMAL":3,"POSITION":2,"TANGENT":4,"TEXCOORD_0":5,"TEXCOORD_1":6},"indices":1,"material":0,"mode":4}]},{"name":"SM_Bookshelf_LOD1","primitives":[{"attributes":{"NORMAL":9,"POSITION":8,"TANGENT":10,"TEXCOORD_0":11,"TEXCOORD_1":12},"indices":7,"material":0,"mode":4}]},{"name":"SM_Bookshelf_LOD2","primitives":[{"attributes":{"NORMAL":15,"POSITION":14,"TANGENT":16,"TEXCOORD_0":17,"TEXCOORD_1":18},"indices":13,"material":0,"mode":4}]},{"name":"SM_Bookshelf_LOD3","primitives":[{"attributes":{"NORMAL":21,"POSITION":20,"TANGENT":22,"TEXCOORD_0":23,"TEXCOORD_1":24},"indices":19,"material":0,"mode":4}]},{"name":"SM_Bookshelf_ConvexHulls","primitives":[{"attributes":{"NORMAL":27,"POSITION":26,"TEXCOORD_0":28,"TEXCOORD_1":29},"indices":25,"material":1,"mode":4}]}],"nodes":[{"children":[1,2,3,4,5],"name":"SM_Bookshelf4","originalUnits":0.00999999977648258,"pivot":[0,0,0],"rotation":[0,0,0,1],"scale":[1,1,1],"translation":[0,0,0]},{"mesh":0,"name":"SM_Bookshelf_LOD0","originalUnits":0.00999999977648258,"pivot":[0,0,0],"rotation":[0,0,0,1],"scale":[1,1,1],"translation":[0,0,0]},{"mesh":4,"name":"SM_Bookshelf_ConvexHulls","originalUnits":0.00999999977648258,"pivot":[0,0,0],"rotation":[0,0,0,1],"scale":[1,1,1],"translation":[0,0,0]},{"mesh":1,"name":"SM_Bookshelf_LOD1","originalUnits":0.00999999977648258,"pivot":[0,0,0],"rotation":[0,0,0,1],"scale":[1,1,1],"translation":[0,0,0]},{"mesh":2,"name":"SM_Bookshelf_LOD2","originalUnits":0.00999999977648258,"pivot":[0,0,0],"rotation":[0,0,0,1],"scale":[1,1,1],"translation":[0,0,0]},{"mesh":3,"name":"SM_Bookshelf_LOD3","originalUnits":0.00999999977648258,"pivot":[0,0,0],"rotation":[0,0,0,1],"scale":[1,1,1],"translation":[0,0,0]}],"samplers":[{}],"scene":0,"scenes":[{"name":"Root Scene","nodes":[0]}],"textures":[{"name":"T_BookShelf_N","sampler":0,"source":0}]}