{"accessors":[{"bufferView":0,"byteOffset":0,"componentType":5126,"count":1,"max":[0],"min":[0],"type":"SCALAR"},{"bufferView":1,"byteOffset":0,"componentType":5123,"count":576,"type":"SCALAR"},{"bufferView":2,"byteOffset":0,"componentType":5126,"count":137,"max":[0.0128710577264428,0.295106470584869,0.0280435178428888],"min":[-0.03391114249825,0.0643327161669731,-0.02994964085519],"type":"VEC3"},{"bufferView":3,"byteOffset":0,"componentType":5126,"count":137,"type":"VEC3"},{"bufferView":4,"byteOffset":0,"componentType":5126,"count":137,"type":"VEC4"},{"bufferView":5,"byteOffset":0,"componentType":5126,"count":137,"type":"VEC2"},{"bufferView":6,"byteOffset":0,"componentType":5126,"count":137,"type":"VEC2"},{"bufferView":7,"byteOffset":0,"componentType":5123,"count":561,"type":"SCALAR"},{"bufferView":8,"byteOffset":0,"componentType":5126,"count":134,"max":[0.0128710577264428,0.295106470584869,0.0280435178428888],"min":[-0.03391114249825,0.0643327161669731,-0.02994964085519],"type":"VEC3"},{"bufferView":9,"byteOffset":0,"componentType":5126,"count":134,"type":"VEC3"},{"bufferView":10,"byteOffset":0,"componentType":5126,"count":134,"type":"VEC4"},{"bufferView":11,"byteOffset":0,"componentType":5126,"count":134,"type":"VEC2"},{"bufferView":12,"byteOffset":0,"componentType":5126,"count":134,"type":"VEC2"},{"bufferView":13,"byteOffset":0,"componentType":5123,"count":348,"type":"SCALAR"},{"bufferView":14,"byteOffset":0,"componentType":5126,"count":88,"max":[0.0134188001975417,0.295106470584869,0.0280435178428888],"min":[-0.03391114249825,0.0643312856554985,-0.02994964085519],"type":"VEC3"},{"bufferView":15,"byteOffset":0,"componentType":5126,"count":88,"type":"VEC3"},{"bufferView":16,"byteOffset":0,"componentType":5126,"count":88,"type":"VEC4"},{"bufferView":17,"byteOffset":0,"componentType":5126,"count":88,"type":"VEC2"},{"bufferView":18,"byteOffset":0,"componentType":5126,"count":88,"type":"VEC2"},{"bufferView":19,"byteOffset":0,"componentType":5123,"count":132,"type":"SCALAR"},{"bufferView":20,"byteOffset":0,"componentType":5126,"count":44,"max":[0.0127861285582185,0.295693725347519,0.0280435178428888],"min":[-0.03391114249825,0.0643312856554985,-0.03056796267629],"type":"VEC3"},{"bufferView":21,"byteOffset":0,"componentType":5126,"count":44,"type":"VEC3"},{"bufferView":22,"byteOffset":0,"componentType":5126,"count":44,"type":"VEC4"},{"bufferView":23,"byteOffset":0,"componentType":5126,"count":44,"type":"VEC2"},{"bufferView":24,"byteOffset":0,"componentType":5126,"count":44,"type":"VEC2"},{"bufferView":25,"byteOffset":0,"componentType":5123,"count":1632,"type":"SCALAR"},{"bufferView":26,"byteOffset":0,"componentType":5126,"count":342,"max":[0.0334765315055847,0.244671583175659,0.0334835760295391],"min":[-0.03349366411567,0.00026122739654965,-0.03348357602954],"type":"VEC3"},{"bufferView":27,"byteOffset":0,"componentType":5126,"count":342,"type":"VEC3"},{"bufferView":28,"byteOffset":0,"componentType":5126,"count":342,"type":"VEC4"},{"bufferView":29,"byteOffset":0,"componentType":5126,"count":342,"type":"VEC2"},{"bufferView":30,"byteOffset":0,"componentType":5126,"count":342,"type":"VEC2"},{"bufferView":31,"byteOffset":0,"componentType":5123,"count":1092,"type":"SCALAR"},{"bufferView":32,"byteOffset":0,"componentType":5126,"count":237,"max":[0.0334765315055847,0.244671583175659,0.0334835760295391],"min":[-0.03349366411567,0.00026153327780775,-0.03348357602954],"type":"VEC3"},{"bufferView":33,"byteOffset":0,"componentType":5126,"count":237,"type":"VEC3"},{"bufferView":34,"byteOffset":0,"componentType":5126,"count":237,"type":"VEC4"},{"bufferView":35,"byteOffset":0,"componentType":5126,"count":237,"type":"VEC2"},{"bufferView":36,"byteOffset":0,"componentType":5126,"count":237,"type":"VEC2"},{"bufferView":37,"byteOffset":0,"componentType":5123,"count":756,"type":"SCALAR"},{"bufferView":38,"byteOffset":0,"componentType":5126,"count":172,"max":[0.0336353480815887,0.244706556200981,0.0334835760295391],"min":[-0.03386379405856,0.00026153327780775,-0.03365188837051],"type":"VEC3"},{"bufferView":39,"byteOffset":0,"componentType":5126,"count":172,"type":"VEC3"},{"bufferView":40,"byteOffset":0,"componentType":5126,"count":172,"type":"VEC4"},{"bufferView":41,"byteOffset":0,"componentType":5126,"count":172,"type":"VEC2"},{"bufferView":42,"byteOffset":0,"componentType":5126,"count":172,"type":"VEC2"},{"bufferView":43,"byteOffset":0,"componentType":5123,"count":420,"type":"SCALAR"},{"bufferView":44,"byteOffset":0,"componentType":5126,"count":105,"max":[0.0343949757516384,0.244684979319572,0.0340209268033504],"min":[-0.03386379405856,0.00026153327780775,-0.03365188837051],"type":"VEC3"},{"bufferView":45,"byteOffset":0,"componentType":5126,"count":105,"type":"VEC3"},{"bufferView":46,"byteOffset":0,"componentType":5126,"count":105,"type":"VEC4"},{"bufferView":47,"byteOffset":0,"componentType":5126,"count":105,"type":"VEC2"},{"bufferView":48,"byteOffset":0,"componentType":5126,"count":105,"type":"VEC2"},{"bufferView":49,"byteOffset":0,"componentType":5123,"count":84,"type":"SCALAR"},{"bufferView":50,"byteOffset":0,"componentType":5126,"count":84,"max":[0.0332506522536278,0.296193689107895,0.0321408770978451],"min":[-0.03332136571407,0.00219447049312294,-0.03180659562349],"type":"VEC3"},{"bufferView":51,"byteOffset":0,"componentType":5126,"count":84,"type":"VEC3"},{"bufferView":52,"byteOffset":0,"componentType":5126,"count":84,"type":"VEC2"},{"bufferView":53,"byteOffset":0,"componentType":5126,"count":84,"type":"VEC2"}],"animations":[{"channels":[],"name":"Unreal Take","samplers":[]}],"asset":{"generator":"FBX2glTF v0.13.0","version":"2.0"},"bufferViews":[{"buffer":0,"byteLength":4,"byteOffset":0},{"buffer":0,"byteLength":1152,"byteOffset":4,"target":34963},{"buffer":0,"byteLength":1644,"byteOffset":1156,"target":34962},{"buffer":0,"byteLength":1644,"byteOffset":2800,"target":34962},{"buffer":0,"byteLength":2192,"byteOffset":4444,"target":34962},{"buffer":0,"byteLength":1096,"byteOffset":6636,"target":34962},{"buffer":0,"byteLength":1096,"byteOffset":7732,"target":34962},{"buffer":0,"byteLength":1122,"byteOffset":8828,"target":34963},{"buffer":0,"byteLength":1608,"byteOffset":9952,"target":34962},{"buffer":0,"byteLength":1608,"byteOffset":11560,"target":34962},{"buffer":0,"byteLength":2144,"byteOffset":13168,"target":34962},{"buffer":0,"byteLength":1072,"byteOffset":15312,"target":34962},{"buffer":0,"byteLength":1072,"byteOffset":16384,"target":34962},{"buffer":0,"byteLength":696,"byteOffset":17456,"target":34963},{"buffer":0,"byteLength":1056,"byteOffset":18152,"target":34962},{"buffer":0,"byteLength":1056,"byteOffset":19208,"target":34962},{"buffer":0,"byteLength":1408,"byteOffset":20264,"target":34962},{"buffer":0,"byteLength":704,"byteOffset":21672,"target":34962},{"buffer":0,"byteLength":704,"byteOffset":22376,"target":34962},{"buffer":0,"byteLength":264,"byteOffset":23080,"target":34963},{"buffer":0,"byteLength":528,"byteOffset":23344,"target":34962},{"buffer":0,"byteLength":528,"byteOffset":23872,"target":34962},{"buffer":0,"byteLength":704,"byteOffset":24400,"target":34962},{"buffer":0,"byteLength":352,"byteOffset":25104,"target":34962},{"buffer":0,"byteLength":352,"byteOffset":25456,"target":34962},{"buffer":0,"byteLength":3264,"byteOffset":25808,"target":34963},{"buffer":0,"byteLength":4104,"byteOffset":29072,"target":34962},{"buffer":0,"byteLength":4104,"byteOffset":33176,"target":34962},{"buffer":0,"byteLength":5472,"byteOffset":37280,"target":34962},{"buffer":0,"byteLength":2736,"byteOffset":42752,"target":34962},{"buffer":0,"byteLength":2736,"byteOffset":45488,"target":34962},{"buffer":0,"byteLength":2184,"byteOffset":48224,"target":34963},{"buffer":0,"byteLength":2844,"byteOffset":50408,"target":34962},{"buffer":0,"byteLength":2844,"byteOffset":53252,"target":34962},{"buffer":0,"byteLength":3792,"byteOffset":56096,"target":34962},{"buffer":0,"byteLength":1896,"byteOffset":59888,"target":34962},{"buffer":0,"byteLength":1896,"byteOffset":61784,"target":34962},{"buffer":0,"byteLength":1512,"byteOffset":63680,"target":34963},{"buffer":0,"byteLength":2064,"byteOffset":65192,"target":34962},{"buffer":0,"byteLength":2064,"byteOffset":67256,"target":34962},{"buffer":0,"byteLength":2752,"byteOffset":69320,"target":34962},{"buffer":0,"byteLength":1376,"byteOffset":72072,"target":34962},{"buffer":0,"byteLength":1376,"byteOffset":73448,"target":34962},{"buffer":0,"byteLength":840,"byteOffset":74824,"target":34963},{"buffer":0,"byteLength":1260,"byteOffset":75664,"target":34962},{"buffer":0,"byteLength":1260,"byteOffset":76924,"target":34962},{"buffer":0,"byteLength":1680,"byteOffset":78184,"target":34962},{"buffer":0,"byteLength":840,"byteOffset":79864,"target":34962},{"buffer":0,"byteLength":840,"byteOffset":80704,"target":34962},{"buffer":0,"byteLength":168,"byteOffset":81544,"target":34963},{"buffer":0,"byteLength":1008,"byteOffset":81712,"target":34962},{"buffer":0,"byteLength":1008,"byteOffset":82720,"target":34962},{"buffer":0,"byteLength":672,"byteOffset":83728,"target":34962},{"buffer":0,"byteLength":672,"byteOffset":84400,"target":34962}],"buffers":[{"byteLength":85072,"uri":"SM_Bottles_07.bin"}],"images":[{"name":"T_Bottles_N","uri":"T_Bottles_N.tga"},{"name":"T_Bottles_Glass_N","uri":"T_Bottles_Glass_N.tga"}],"materials":[{"alphaMode":"OPAQUE","doubleSided":false,"extras":{"fromFBX":{"isTruePBR":false,"shadingModel":"Phong"}},"name":"MI_Bottles","normalTexture":{"index":0,"texCoord":0},"pbrMetallicRoughness":{"baseColorFactor":[0.21586050093174,0.21586050093174,0.21586050093174,1],"metallicFactor":0.400000005960464,"roughnessFactor":0.301511347293854}},{"alphaMode":"OPAQUE","doubleSided":false,"extras":{"fromFBX":{"isTruePBR":false,"shadingModel":"Phong"}},"name":"MI_Bottles_Glass_1","normalTexture":{"index":1,"texCoord":0},"pbrMetallicRoughness":{"baseColorFactor":[0.21586050093174,0.21586050093174,0.21586050093174,1],"metallicFactor":0.400000005960464,"roughnessFactor":0.301511347293854}},{"alphaMode":"OPAQUE","doubleSided":false,"extras":{"fromFBX":{"isTruePBR":false,"shadingModel":"Lambert"}},"name":"DefaultMaterial","pbrMetallicRoughness":{"baseColorFactor":[0.5,0.5,0.5,1],"metallicFactor":0.200000002980232,"roughnessFactor":0.800000011920929}}],"meshes":[{"name":"SM_Bottles_07_LOD0","primitives":[{"attributes":{"NORMAL":3,"POSITION":2,"TANGENT":4,"TEXCOORD_0":5,"TEXCOORD_1":6},"indices":1,"material":0,"mode":4},{"attributes":{"NORMAL":27,"POSITION":26,"TANGENT":28,"TEXCOORD_0":29,"TEXCOORD_1":30},"indices":25,"material":1,"mode":4}]},{"name":"SM_Bottles_07_LOD1","primitives":[{"attributes":{"NORMAL":9,"POSITION":8,"TANGENT":10,"TEXCOORD_0":11,"TEXCOORD_1":12},"indices":7,"material":0,"mode":4},{"attributes":{"NORMAL":33,"POSITION":32,"TANGENT":34,"TEXCOORD_0":35,"TEXCOORD_1":36},"indices":31,"material":1,"mode":4}]},{"name":"SM_Bottles_07_LOD2","primitives":[{"attributes":{"NORMAL":15,"POSITION":14,"TANGENT":16,"TEXCOORD_0":17,"TEXCOORD_1":18},"indices":13,"material":0,"mode":4},{"attributes":{"NORMAL":39,"POSITION":38,"TANGENT":40,"TEXCOORD_0":41,"TEXCOORD_1":42},"indices":37,"material":1,"mode":4}]},{"name":"SM_Bottles_07_LOD3","primitives":[{"attributes":{"NORMAL":21,"POSITION":20,"TANGENT":22,"TEXCOORD_0":23,"TEXCOORD_1":24},"indices":19,"material":0,"mode":4},{"attributes":{"NORMAL":45,"POSITION":44,"TANGENT":46,"TEXCOORD_0":47,"TEXCOORD_1":48},"indices":43,"material":1,"mode":4}]},{"name":"SM_Bottles_07_ConvexHulls","primitives":[{"attributes":{"NORMAL":51,"POSITION":50,"TEXCOORD_0":52,"TEXCOORD_1":53},"indices":49,"material":2,"mode":4}]}],"nodes":[{"children":[1,2,3,4,5],"name":"SM_Bottles_77","originalUnits":0.00999999977648258,"pivot":[0,0,0],"rotation":[0,0,0,1],"scale":[1,1,1],"translation":[0,0,0]},{"mesh":0,"name":"SM_Bottles_07_LOD0","originalUnits":0.00999999977648258,"pivot":[0,0,0],"rotation":[0,0,0,1],"scale":[1,1,1],"translation":[0,0,0]},{"mesh":4,"name":"SM_Bottles_07_ConvexHulls","originalUnits":0.00999999977648258,"pivot":[0,0,0],"rotation":[0,0,0,1],"scale":[1,1,1],"translation":[0,0,0]},{"mesh":1,"name":"SM_Bottles_07_LOD1","originalUnits":0.00999999977648258,"pivot":[0,0,0],"rotation":[0,0,0,1],"scale":[1,1,1],"translation":[0,0,0]},{"mesh":2,"name":"SM_Bottles_07_LOD2","originalUnits":0.00999999977648258,"pivot":[0,0,0],"rotation":[0,0,0,1],"scale":[1,1,1],"translation":[0,0,0]},{"mesh":3,"name":"SM_Bottles_07_LOD3","originalUnits":0.00999999977648258,"pivot":[0,0,0],"rotation":[0,0,0,1],"scale":[1,1,1],"translation":[0,0,0]}],"samplers":[{}],"scene":0,"scenes":[{"name":"Root Scene","nodes":[0]}],"textures":[{"name":"T_Bottles_N","sampler":0,"source":0},{"name":"T_Bottles_Glass_N","sampler":0,"source":1}]}