{"accessors":[{"bufferView":0,"byteOffset":0,"componentType":5126,"count":1,"max":[0],"min":[0],"type":"SCALAR"},{"bufferView":1,"byteOffset":0,"componentType":5123,"count":660,"type":"SCALAR"},{"bufferView":2,"byteOffset":0,"componentType":5126,"count":184,"max":[0.00554101262241602,0.0123211313039064,0.0947983786463737],"min":[-0.00554101495072,0.00140806974377483,-0.08406983315945],"type":"VEC3"},{"bufferView":3,"byteOffset":0,"componentType":5126,"count":184,"type":"VEC3"},{"bufferView":4,"byteOffset":0,"componentType":5126,"count":184,"type":"VEC4"},{"bufferView":5,"byteOffset":0,"componentType":5126,"count":184,"type":"VEC2"},{"bufferView":6,"byteOffset":0,"componentType":5126,"count":184,"type":"VEC2"},{"bufferView":7,"byteOffset":0,"componentType":5123,"count":492,"type":"SCALAR"},{"bufferView":8,"byteOffset":0,"componentType":5126,"count":156,"max":[0.00554101262241602,0.0123211313039064,0.0947983786463737],"min":[-0.00554101495072,0.00140806881245226,-0.08406983315945],"type":"VEC3"},{"bufferView":9,"byteOffset":0,"componentType":5126,"count":156,"type":"VEC3"},{"bufferView":10,"byteOffset":0,"componentType":5126,"count":156,"type":"VEC4"},{"bufferView":11,"byteOffset":0,"componentType":5126,"count":156,"type":"VEC2"},{"bufferView":12,"byteOffset":0,"componentType":5126,"count":156,"type":"VEC2"},{"bufferView":13,"byteOffset":0,"componentType":5123,"count":330,"type":"SCALAR"},{"bufferView":14,"byteOffset":0,"componentType":5126,"count":118,"max":[0.00554101262241602,0.0123217655345798,0.0953849330544472],"min":[-0.00554108479992,0.00140811130404472,-0.08426313847303],"type":"VEC3"},{"bufferView":15,"byteOffset":0,"componentType":5126,"count":118,"type":"VEC3"},{"bufferView":16,"byteOffset":0,"componentType":5126,"count":118,"type":"VEC4"},{"bufferView":17,"byteOffset":0,"componentType":5126,"count":118,"type":"VEC2"},{"bufferView":18,"byteOffset":0,"componentType":5126,"count":118,"type":"VEC2"},{"bufferView":19,"byteOffset":0,"componentType":5123,"count":162,"type":"SCALAR"},{"bufferView":20,"byteOffset":0,"componentType":5126,"count":66,"max":[0.00554101262241602,0.0123522980138659,0.0964119210839272],"min":[-0.00562132662162,0.00129669869784266,-0.08429977297783],"type":"VEC3"},{"bufferView":21,"byteOffset":0,"componentType":5126,"count":66,"type":"VEC3"},{"bufferView":22,"byteOffset":0,"componentType":5126,"count":66,"type":"VEC4"},{"bufferView":23,"byteOffset":0,"componentType":5126,"count":66,"type":"VEC2"},{"bufferView":24,"byteOffset":0,"componentType":5126,"count":66,"type":"VEC2"},{"bufferView":25,"byteOffset":0,"componentType":5123,"count":84,"type":"SCALAR"},{"bufferView":26,"byteOffset":0,"componentType":5126,"count":74,"max":[0.00580134661868215,0.0128633258864284,0.0919963717460632],"min":[-0.0062241521664,0.0008658769656904,-0.08442374318838],"type":"VEC3"},{"bufferView":27,"byteOffset":0,"componentType":5126,"count":74,"type":"VEC3"},{"bufferView":28,"byteOffset":0,"componentType":5126,"count":74,"type":"VEC2"},{"bufferView":29,"byteOffset":0,"componentType":5126,"count":74,"type":"VEC2"}],"animations":[{"channels":[],"name":"Unreal Take","samplers":[]}],"asset":{"generator":"FBX2glTF v0.13.0","version":"2.0"},"bufferViews":[{"buffer":0,"byteLength":4,"byteOffset":0},{"buffer":0,"byteLength":1320,"byteOffset":4,"target":34963},{"buffer":0,"byteLength":2208,"byteOffset":1324,"target":34962},{"buffer":0,"byteLength":2208,"byteOffset":3532,"target":34962},{"buffer":0,"byteLength":2944,"byteOffset":5740,"target":34962},{"buffer":0,"byteLength":1472,"byteOffset":8684,"target":34962},{"buffer":0,"byteLength":1472,"byteOffset":10156,"target":34962},{"buffer":0,"byteLength":984,"byteOffset":11628,"target":34963},{"buffer":0,"byteLength":1872,"byteOffset":12612,"target":34962},{"buffer":0,"byteLength":1872,"byteOffset":14484,"target":34962},{"buffer":0,"byteLength":2496,"byteOffset":16356,"target":34962},{"buffer":0,"byteLength":1248,"byteOffset":18852,"target":34962},{"buffer":0,"byteLength":1248,"byteOffset":20100,"target":34962},{"buffer":0,"byteLength":660,"byteOffset":21348,"target":34963},{"buffer":0,"byteLength":1416,"byteOffset":22008,"target":34962},{"buffer":0,"byteLength":1416,"byteOffset":23424,"target":34962},{"buffer":0,"byteLength":1888,"byteOffset":24840,"target":34962},{"buffer":0,"byteLength":944,"byteOffset":26728,"target":34962},{"buffer":0,"byteLength":944,"byteOffset":27672,"target":34962},{"buffer":0,"byteLength":324,"byteOffset":28616,"target":34963},{"buffer":0,"byteLength":792,"byteOffset":28940,"target":34962},{"buffer":0,"byteLength":792,"byteOffset":29732,"target":34962},{"buffer":0,"byteLength":1056,"byteOffset":30524,"target":34962},{"buffer":0,"byteLength":528,"byteOffset":31580,"target":34962},{"buffer":0,"byteLength":528,"byteOffset":32108,"target":34962},{"buffer":0,"byteLength":168,"byteOffset":32636,"target":34963},{"buffer":0,"byteLength":888,"byteOffset":32804,"target":34962},{"buffer":0,"byteLength":888,"byteOffset":33692,"target":34962},{"buffer":0,"byteLength":592,"byteOffset":34580,"target":34962},{"buffer":0,"byteLength":592,"byteOffset":35172,"target":34962}],"buffers":[{"byteLength":35764,"uri":"SM_Crayon02.bin"}],"images":[{"name":"T_OfficeSupplies_N","uri":"T_OfficeSupplies_N.tga"}],"materials":[{"alphaMode":"OPAQUE","doubleSided":false,"extras":{"fromFBX":{"isTruePBR":false,"shadingModel":"Phong"}},"name":"MI_OfficeSupplies","normalTexture":{"index":0,"texCoord":0},"pbrMetallicRoughness":{"baseColorFactor":[0.21586050093174,0.21586050093174,0.21586050093174,1],"metallicFactor":0.400000005960464,"roughnessFactor":0.301511347293854}},{"alphaMode":"OPAQUE","doubleSided":false,"extras":{"fromFBX":{"isTruePBR":false,"shadingModel":"Lambert"}},"name":"DefaultMaterial","pbrMetallicRoughness":{"baseColorFactor":[0.5,0.5,0.5,1],"metallicFactor":0.200000002980232,"roughnessFactor":0.800000011920929}}],"meshes":[{"name":"SM_Crayon02_LOD0","primitives":[{"attributes":{"NORMAL":3,"POSITION":2,"TANGENT":4,"TEXCOORD_0":5,"TEXCOORD_1":6},"indices":1,"material":0,"mode":4}]},{"name":"SM_Crayon02_LOD1","primitives":[{"attributes":{"NORMAL":9,"POSITION":8,"TANGENT":10,"TEXCOORD_0":11,"TEXCOORD_1":12},"indices":7,"material":0,"mode":4}]},{"name":"SM_Crayon02_LOD2","primitives":[{"attributes":{"NORMAL":15,"POSITION":14,"TANGENT":16,"TEXCOORD_0":17,"TEXCOORD_1":18},"indices":13,"material":0,"mode":4}]},{"name":"SM_Crayon02_LOD3","primitives":[{"attributes":{"NORMAL":21,"POSITION":20,"TANGENT":22,"TEXCOORD_0":23,"TEXCOORD_1":24},"indices":19,"material":0,"mode":4}]},{"name":"SM_Crayon02_ConvexHulls","primitives":[{"attributes":{"NORMAL":27,"POSITION":26,"TEXCOORD_0":28,"TEXCOORD_1":29},"indices":25,"material":1,"mode":4}]}],"nodes":[{"children":[1,2,3,4,5],"name":"SM_Crayon10","originalUnits":0.00999999977648258,"pivot":[0,0,0],"rotation":[0,0,0,1],"scale":[1,1,1],"translation":[0,0,0]},{"mesh":0,"name":"SM_Crayon02_LOD0","originalUnits":0.00999999977648258,"pivot":[0,0,0],"rotation":[0,0,0,1],"scale":[1,1,1],"translation":[0,0,0]},{"mesh":4,"name":"SM_Crayon02_ConvexHulls","originalUnits":0.00999999977648258,"pivot":[0,0,0],"rotation":[0,0,0,1],"scale":[1,1,1],"translation":[0,0,0]},{"mesh":1,"name":"SM_Crayon02_LOD1","originalUnits":0.00999999977648258,"pivot":[0,0,0],"rotation":[0,0,0,1],"scale":[1,1,1],"translation":[0,0,0]},{"mesh":2,"name":"SM_Crayon02_LOD2","originalUnits":0.00999999977648258,"pivot":[0,0,0],"rotation":[0,0,0,1],"scale":[1,1,1],"translation":[0,0,0]},{"mesh":3,"name":"SM_Crayon02_LOD3","originalUnits":0.00999999977648258,"pivot":[0,0,0],"rotation":[0,0,0,1],"scale":[1,1,1],"translation":[0,0,0]}],"samplers":[{}],"scene":0,"scenes":[{"name":"Root Scene","nodes":[0]}],"textures":[{"name":"T_OfficeSupplies_N","sampler":0,"source":0}]}