{"accessors":[{"bufferView":0,"byteOffset":0,"componentType":5126,"count":1,"max":[0],"min":[0],"type":"SCALAR"},{"bufferView":1,"byteOffset":0,"componentType":5123,"count":14544,"type":"SCALAR"},{"bufferView":2,"byteOffset":0,"componentType":5126,"count":2860,"max":[0.0783606395125389,0.17000375688076,0.0785524919629097],"min":[-0.0783606171608,-0.17000375688076,-0.07855249196291],"type":"VEC3"},{"bufferView":3,"byteOffset":0,"componentType":5126,"count":2860,"type":"VEC3"},{"bufferView":4,"byteOffset":0,"componentType":5126,"count":2860,"type":"VEC4"},{"bufferView":5,"byteOffset":0,"componentType":5126,"count":2860,"type":"VEC2"},{"bufferView":6,"byteOffset":0,"componentType":5126,"count":2860,"type":"VEC2"},{"bufferView":7,"byteOffset":0,"componentType":5123,"count":10908,"type":"SCALAR"},{"bufferView":8,"byteOffset":0,"componentType":5126,"count":2197,"max":[0.0783606395125389,0.170071348547935,0.0785524919629097],"min":[-0.0783606171608,-0.17000375688076,-0.07855249196291],"type":"VEC3"},{"bufferView":9,"byteOffset":0,"componentType":5126,"count":2197,"type":"VEC3"},{"bufferView":10,"byteOffset":0,"componentType":5126,"count":2197,"type":"VEC4"},{"bufferView":11,"byteOffset":0,"componentType":5126,"count":2197,"type":"VEC2"},{"bufferView":12,"byteOffset":0,"componentType":5126,"count":2197,"type":"VEC2"},{"bufferView":13,"byteOffset":0,"componentType":5123,"count":7272,"type":"SCALAR"},{"bufferView":14,"byteOffset":0,"componentType":5126,"count":1522,"max":[0.0779960975050926,0.170039102435112,0.0787468925118446],"min":[-0.07844509929419,-0.17000375688076,-0.07868321985006],"type":"VEC3"},{"bufferView":15,"byteOffset":0,"componentType":5126,"count":1522,"type":"VEC3"},{"bufferView":16,"byteOffset":0,"componentType":5126,"count":1522,"type":"VEC4"},{"bufferView":17,"byteOffset":0,"componentType":5126,"count":1522,"type":"VEC2"},{"bufferView":18,"byteOffset":0,"componentType":5126,"count":1522,"type":"VEC2"},{"bufferView":19,"byteOffset":0,"componentType":5123,"count":3636,"type":"SCALAR"},{"bufferView":20,"byteOffset":0,"componentType":5126,"count":841,"max":[0.0780351310968399,0.170100569725037,0.0789536237716675],"min":[-0.07769863307476,-0.17000375688076,-0.07868321985006],"type":"VEC3"},{"bufferView":21,"byteOffset":0,"componentType":5126,"count":841,"type":"VEC3"},{"bufferView":22,"byteOffset":0,"componentType":5126,"count":841,"type":"VEC4"},{"bufferView":23,"byteOffset":0,"componentType":5126,"count":841,"type":"VEC2"},{"bufferView":24,"byteOffset":0,"componentType":5126,"count":841,"type":"VEC2"},{"bufferView":25,"byteOffset":0,"componentType":5123,"count":84,"type":"SCALAR"},{"bufferView":26,"byteOffset":0,"componentType":5126,"count":84,"max":[0.0764383599162102,0.157267212867737,0.0738004669547081],"min":[-0.07558093219996,-0.16657407581806,-0.07569164037704],"type":"VEC3"},{"bufferView":27,"byteOffset":0,"componentType":5126,"count":84,"type":"VEC3"},{"bufferView":28,"byteOffset":0,"componentType":5126,"count":84,"type":"VEC2"},{"bufferView":29,"byteOffset":0,"componentType":5126,"count":84,"type":"VEC2"}],"animations":[{"channels":[],"name":"Unreal Take","samplers":[]}],"asset":{"generator":"FBX2glTF v0.13.0","version":"2.0"},"bufferViews":[{"buffer":0,"byteLength":4,"byteOffset":0},{"buffer":0,"byteLength":29088,"byteOffset":4,"target":34963},{"buffer":0,"byteLength":34320,"byteOffset":29092,"target":34962},{"buffer":0,"byteLength":34320,"byteOffset":63412,"target":34962},{"buffer":0,"byteLength":45760,"byteOffset":97732,"target":34962},{"buffer":0,"byteLength":22880,"byteOffset":143492,"target":34962},{"buffer":0,"byteLength":22880,"byteOffset":166372,"target":34962},{"buffer":0,"byteLength":21816,"byteOffset":189252,"target":34963},{"buffer":0,"byteLength":26364,"byteOffset":211068,"target":34962},{"buffer":0,"byteLength":26364,"byteOffset":237432,"target":34962},{"buffer":0,"byteLength":35152,"byteOffset":263796,"target":34962},{"buffer":0,"byteLength":17576,"byteOffset":298948,"target":34962},{"buffer":0,"byteLength":17576,"byteOffset":316524,"target":34962},{"buffer":0,"byteLength":14544,"byteOffset":334100,"target":34963},{"buffer":0,"byteLength":18264,"byteOffset":348644,"target":34962},{"buffer":0,"byteLength":18264,"byteOffset":366908,"target":34962},{"buffer":0,"byteLength":24352,"byteOffset":385172,"target":34962},{"buffer":0,"byteLength":12176,"byteOffset":409524,"target":34962},{"buffer":0,"byteLength":12176,"byteOffset":421700,"target":34962},{"buffer":0,"byteLength":7272,"byteOffset":433876,"target":34963},{"buffer":0,"byteLength":10092,"byteOffset":441148,"target":34962},{"buffer":0,"byteLength":10092,"byteOffset":451240,"target":34962},{"buffer":0,"byteLength":13456,"byteOffset":461332,"target":34962},{"buffer":0,"byteLength":6728,"byteOffset":474788,"target":34962},{"buffer":0,"byteLength":6728,"byteOffset":481516,"target":34962},{"buffer":0,"byteLength":168,"byteOffset":488244,"target":34963},{"buffer":0,"byteLength":1008,"byteOffset":488412,"target":34962},{"buffer":0,"byteLength":1008,"byteOffset":489420,"target":34962},{"buffer":0,"byteLength":672,"byteOffset":490428,"target":34962},{"buffer":0,"byteLength":672,"byteOffset":491100,"target":34962}],"buffers":[{"byteLength":491772,"uri":"SM_Ceramic_Bottle_B.bin"}],"images":[{"name":"FlatNormal","uri":"FlatNormal.tga"}],"materials":[{"alphaMode":"OPAQUE","doubleSided":false,"extras":{"fromFBX":{"isTruePBR":false,"shadingModel":"Phong"}},"name":"MI_Ceramic_Bottle_B","normalTexture":{"index":0,"texCoord":0},"pbrMetallicRoughness":{"baseColorFactor":[0.21586050093174,0.21586050093174,0.21586050093174,1],"metallicFactor":0.400000005960464,"roughnessFactor":0.301511347293854}},{"alphaMode":"OPAQUE","doubleSided":false,"extras":{"fromFBX":{"isTruePBR":false,"shadingModel":"Lambert"}},"name":"DefaultMaterial","pbrMetallicRoughness":{"baseColorFactor":[0.5,0.5,0.5,1],"metallicFactor":0.200000002980232,"roughnessFactor":0.800000011920929}}],"meshes":[{"name":"SM_Ceramic_Bottle_B_LOD0","primitives":[{"attributes":{"NORMAL":3,"POSITION":2,"TANGENT":4,"TEXCOORD_0":5,"TEXCOORD_1":6},"indices":1,"material":0,"mode":4}]},{"name":"SM_Ceramic_Bottle_B_LOD1","primitives":[{"attributes":{"NORMAL":9,"POSITION":8,"TANGENT":10,"TEXCOORD_0":11,"TEXCOORD_1":12},"indices":7,"material":0,"mode":4}]},{"name":"SM_Ceramic_Bottle_B_LOD2","primitives":[{"attributes":{"NORMAL":15,"POSITION":14,"TANGENT":16,"TEXCOORD_0":17,"TEXCOORD_1":18},"indices":13,"material":0,"mode":4}]},{"name":"SM_Ceramic_Bottle_B_LOD3","primitives":[{"attributes":{"NORMAL":21,"POSITION":20,"TANGENT":22,"TEXCOORD_0":23,"TEXCOORD_1":24},"indices":19,"material":0,"mode":4}]},{"name":"SM_Ceramic_Bottle_B_ConvexHulls","primitives":[{"attributes":{"NORMAL":27,"POSITION":26,"TEXCOORD_0":28,"TEXCOORD_1":29},"indices":25,"material":1,"mode":4}]}],"nodes":[{"children":[1,2,3,4,5],"name":"Ceramic_Bottle_B_37","originalUnits":0.00999999977648258,"pivot":[0,0,0],"rotation":[0,0,0,1],"scale":[1,1,1],"translation":[0,0,0]},{"mesh":0,"name":"SM_Ceramic_Bottle_B_LOD0","originalUnits":0.00999999977648258,"pivot":[0,0,0],"rotation":[0,0,0,1],"scale":[1,1,1],"translation":[0,0,0]},{"mesh":4,"name":"SM_Ceramic_Bottle_B_ConvexHulls","originalUnits":0.00999999977648258,"pivot":[0,0,0],"rotation":[0,0,0,1],"scale":[1,1,1],"translation":[0,0,0]},{"mesh":1,"name":"SM_Ceramic_Bottle_B_LOD1","originalUnits":0.00999999977648258,"pivot":[0,0,0],"rotation":[0,0,0,1],"scale":[1,1,1],"translation":[0,0,0]},{"mesh":2,"name":"SM_Ceramic_Bottle_B_LOD2","originalUnits":0.00999999977648258,"pivot":[0,0,0],"rotation":[0,0,0,1],"scale":[1,1,1],"translation":[0,0,0]},{"mesh":3,"name":"SM_Ceramic_Bottle_B_LOD3","originalUnits":0.00999999977648258,"pivot":[0,0,0],"rotation":[0,0,0,1],"scale":[1,1,1],"translation":[0,0,0]}],"samplers":[{}],"scene":0,"scenes":[{"name":"Root Scene","nodes":[0]}],"textures":[{"name":"T_Default_N","sampler":0,"source":0}]}