{"accessors":[{"bufferView":0,"byteOffset":0,"componentType":5126,"count":1,"max":[0],"min":[0],"type":"SCALAR"},{"bufferView":1,"byteOffset":0,"componentType":5123,"count":780,"type":"SCALAR"},{"bufferView":2,"byteOffset":0,"componentType":5126,"count":145,"max":[-0.10418939590454,0.149424433708191,0.149424493312836],"min":[-0.11633297801018,-0.14942441880703,-0.14942440390587],"type":"VEC3"},{"bufferView":3,"byteOffset":0,"componentType":5126,"count":145,"type":"VEC3"},{"bufferView":4,"byteOffset":0,"componentType":5126,"count":145,"type":"VEC4"},{"bufferView":5,"byteOffset":0,"componentType":5126,"count":145,"type":"VEC2"},{"bufferView":6,"byteOffset":0,"componentType":5126,"count":145,"type":"VEC2"},{"bufferView":7,"byteOffset":0,"componentType":5123,"count":186,"type":"SCALAR"},{"bufferView":8,"byteOffset":0,"componentType":5126,"count":46,"max":[-0.10418939590454,0.149474814534187,0.149638503789902],"min":[-0.11677360534668,-0.14942441880703,-0.14951834082603],"type":"VEC3"},{"bufferView":9,"byteOffset":0,"componentType":5126,"count":46,"type":"VEC3"},{"bufferView":10,"byteOffset":0,"componentType":5126,"count":46,"type":"VEC4"},{"bufferView":11,"byteOffset":0,"componentType":5126,"count":46,"type":"VEC2"},{"bufferView":12,"byteOffset":0,"componentType":5126,"count":46,"type":"VEC2"},{"bufferView":13,"byteOffset":0,"componentType":5123,"count":108,"type":"SCALAR"},{"bufferView":14,"byteOffset":0,"componentType":5126,"count":33,"max":[-0.10418939590454,0.149474814534187,0.149638503789902],"min":[-0.11677360534668,-0.14979906380177,-0.14951834082603],"type":"VEC3"},{"bufferView":15,"byteOffset":0,"componentType":5126,"count":33,"type":"VEC3"},{"bufferView":16,"byteOffset":0,"componentType":5126,"count":33,"type":"VEC4"},{"bufferView":17,"byteOffset":0,"componentType":5126,"count":33,"type":"VEC2"},{"bufferView":18,"byteOffset":0,"componentType":5126,"count":33,"type":"VEC2"},{"bufferView":19,"byteOffset":0,"componentType":5123,"count":63,"type":"SCALAR"},{"bufferView":20,"byteOffset":0,"componentType":5126,"count":25,"max":[-0.10418939590454,0.149474814534187,0.149638503789902],"min":[-0.11240618675947,-0.14979906380177,-0.14870703220367],"type":"VEC3"},{"bufferView":21,"byteOffset":0,"componentType":5126,"count":25,"type":"VEC3"},{"bufferView":22,"byteOffset":0,"componentType":5126,"count":25,"type":"VEC4"},{"bufferView":23,"byteOffset":0,"componentType":5126,"count":25,"type":"VEC2"},{"bufferView":24,"byteOffset":0,"componentType":5126,"count":25,"type":"VEC2"},{"bufferView":25,"byteOffset":0,"componentType":5123,"count":3714,"type":"SCALAR"},{"bufferView":26,"byteOffset":0,"componentType":5126,"count":1008,"max":[0.0992114394903183,0.226669117808342,0.226669237017632],"min":[-0.10916747897863,-0.22666907310486,-0.22666907310486],"type":"VEC3"},{"bufferView":27,"byteOffset":0,"componentType":5126,"count":1008,"type":"VEC3"},{"bufferView":28,"byteOffset":0,"componentType":5126,"count":1008,"type":"VEC4"},{"bufferView":29,"byteOffset":0,"componentType":5126,"count":1008,"type":"VEC2"},{"bufferView":30,"byteOffset":0,"componentType":5126,"count":1008,"type":"VEC2"},{"bufferView":31,"byteOffset":0,"componentType":5123,"count":3186,"type":"SCALAR"},{"bufferView":32,"byteOffset":0,"componentType":5126,"count":872,"max":[0.0992114394903183,0.226669117808342,0.226669237017632],"min":[-0.10916747897863,-0.22666907310486,-0.22666907310486],"type":"VEC3"},{"bufferView":33,"byteOffset":0,"componentType":5126,"count":872,"type":"VEC3"},{"bufferView":34,"byteOffset":0,"componentType":5126,"count":872,"type":"VEC4"},{"bufferView":35,"byteOffset":0,"componentType":5126,"count":872,"type":"VEC2"},{"bufferView":36,"byteOffset":0,"componentType":5126,"count":872,"type":"VEC2"},{"bufferView":37,"byteOffset":0,"componentType":5123,"count":2139,"type":"SCALAR"},{"bufferView":38,"byteOffset":0,"componentType":5126,"count":610,"max":[0.0993013456463814,0.226669117808342,0.226993799209595],"min":[-0.10928039997816,-0.22666907310486,-0.22699363529682],"type":"VEC3"},{"bufferView":39,"byteOffset":0,"componentType":5126,"count":610,"type":"VEC3"},{"bufferView":40,"byteOffset":0,"componentType":5126,"count":610,"type":"VEC4"},{"bufferView":41,"byteOffset":0,"componentType":5126,"count":610,"type":"VEC2"},{"bufferView":42,"byteOffset":0,"componentType":5126,"count":610,"type":"VEC2"},{"bufferView":43,"byteOffset":0,"componentType":5123,"count":1062,"type":"SCALAR"},{"bufferView":44,"byteOffset":0,"componentType":5126,"count":316,"max":[0.099348172545433,0.227395340800285,0.230437785387039],"min":[-0.11008446663618,-0.22666907310486,-0.22955928742886],"type":"VEC3"},{"bufferView":45,"byteOffset":0,"componentType":5126,"count":316,"type":"VEC3"},{"bufferView":46,"byteOffset":0,"componentType":5126,"count":316,"type":"VEC4"},{"bufferView":47,"byteOffset":0,"componentType":5126,"count":316,"type":"VEC2"},{"bufferView":48,"byteOffset":0,"componentType":5126,"count":316,"type":"VEC2"},{"bufferView":49,"byteOffset":0,"componentType":5123,"count":336,"type":"SCALAR"},{"bufferView":50,"byteOffset":0,"componentType":5126,"count":304,"max":[0.1013498082757,0.228807598352432,0.228807613253593],"min":[-0.11247605830431,-0.22880747914314,-0.22426776587963],"type":"VEC3"},{"bufferView":51,"byteOffset":0,"componentType":5126,"count":304,"type":"VEC3"},{"bufferView":52,"byteOffset":0,"componentType":5126,"count":304,"type":"VEC2"},{"bufferView":53,"byteOffset":0,"componentType":5126,"count":304,"type":"VEC2"}],"animations":[{"channels":[],"name":"Unreal Take","samplers":[]}],"asset":{"generator":"FBX2glTF v0.13.0","version":"2.0"},"bufferViews":[{"buffer":0,"byteLength":4,"byteOffset":0},{"buffer":0,"byteLength":1560,"byteOffset":4,"target":34963},{"buffer":0,"byteLength":1740,"byteOffset":1564,"target":34962},{"buffer":0,"byteLength":1740,"byteOffset":3304,"target":34962},{"buffer":0,"byteLength":2320,"byteOffset":5044,"target":34962},{"buffer":0,"byteLength":1160,"byteOffset":7364,"target":34962},{"buffer":0,"byteLength":1160,"byteOffset":8524,"target":34962},{"buffer":0,"byteLength":372,"byteOffset":9684,"target":34963},{"buffer":0,"byteLength":552,"byteOffset":10056,"target":34962},{"buffer":0,"byteLength":552,"byteOffset":10608,"target":34962},{"buffer":0,"byteLength":736,"byteOffset":11160,"target":34962},{"buffer":0,"byteLength":368,"byteOffset":11896,"target":34962},{"buffer":0,"byteLength":368,"byteOffset":12264,"target":34962},{"buffer":0,"byteLength":216,"byteOffset":12632,"target":34963},{"buffer":0,"byteLength":396,"byteOffset":12848,"target":34962},{"buffer":0,"byteLength":396,"byteOffset":13244,"target":34962},{"buffer":0,"byteLength":528,"byteOffset":13640,"target":34962},{"buffer":0,"byteLength":264,"byteOffset":14168,"target":34962},{"buffer":0,"byteLength":264,"byteOffset":14432,"target":34962},{"buffer":0,"byteLength":126,"byteOffset":14696,"target":34963},{"buffer":0,"byteLength":300,"byteOffset":14824,"target":34962},{"buffer":0,"byteLength":300,"byteOffset":15124,"target":34962},{"buffer":0,"byteLength":400,"byteOffset":15424,"target":34962},{"buffer":0,"byteLength":200,"byteOffset":15824,"target":34962},{"buffer":0,"byteLength":200,"byteOffset":16024,"target":34962},{"buffer":0,"byteLength":7428,"byteOffset":16224,"target":34963},{"buffer":0,"byteLength":12096,"byteOffset":23652,"target":34962},{"buffer":0,"byteLength":12096,"byteOffset":35748,"target":34962},{"buffer":0,"byteLength":16128,"byteOffset":47844,"target":34962},{"buffer":0,"byteLength":8064,"byteOffset":63972,"target":34962},{"buffer":0,"byteLength":8064,"byteOffset":72036,"target":34962},{"buffer":0,"byteLength":6372,"byteOffset":80100,"target":34963},{"buffer":0,"byteLength":10464,"byteOffset":86472,"target":34962},{"buffer":0,"byteLength":10464,"byteOffset":96936,"target":34962},{"buffer":0,"byteLength":13952,"byteOffset":107400,"target":34962},{"buffer":0,"byteLength":6976,"byteOffset":121352,"target":34962},{"buffer":0,"byteLength":6976,"byteOffset":128328,"target":34962},{"buffer":0,"byteLength":4278,"byteOffset":135304,"target":34963},{"buffer":0,"byteLength":7320,"byteOffset":139584,"target":34962},{"buffer":0,"byteLength":7320,"byteOffset":146904,"target":34962},{"buffer":0,"byteLength":9760,"byteOffset":154224,"target":34962},{"buffer":0,"byteLength":4880,"byteOffset":163984,"target":34962},{"buffer":0,"byteLength":4880,"byteOffset":168864,"target":34962},{"buffer":0,"byteLength":2124,"byteOffset":173744,"target":34963},{"buffer":0,"byteLength":3792,"byteOffset":175868,"target":34962},{"buffer":0,"byteLength":3792,"byteOffset":179660,"target":34962},{"buffer":0,"byteLength":5056,"byteOffset":183452,"target":34962},{"buffer":0,"byteLength":2528,"byteOffset":188508,"target":34962},{"buffer":0,"byteLength":2528,"byteOffset":191036,"target":34962},{"buffer":0,"byteLength":672,"byteOffset":193564,"target":34963},{"buffer":0,"byteLength":3648,"byteOffset":194236,"target":34962},{"buffer":0,"byteLength":3648,"byteOffset":197884,"target":34962},{"buffer":0,"byteLength":2432,"byteOffset":201532,"target":34962},{"buffer":0,"byteLength":2432,"byteOffset":203964,"target":34962}],"buffers":[{"byteLength":206396,"uri":"SM_Clock.bin"}],"images":[{"name":"FlatNormal","uri":"FlatNormal.tga"}],"materials":[{"alphaMode":"OPAQUE","doubleSided":false,"extras":{"fromFBX":{"isTruePBR":false,"shadingModel":"Phong"}},"name":"MI_FoodPot_Glass","pbrMetallicRoughness":{"baseColorFactor":[0.21586050093174,0.21586050093174,0.21586050093174,0],"metallicFactor":0.400000005960464,"roughnessFactor":0.301511347293854}},{"alphaMode":"OPAQUE","doubleSided":false,"extras":{"fromFBX":{"isTruePBR":false,"shadingModel":"Phong"}},"name":"MI_Kitchen_Props_A","normalTexture":{"index":0,"texCoord":0},"pbrMetallicRoughness":{"baseColorFactor":[0.21586050093174,0.21586050093174,0.21586050093174,1],"metallicFactor":0.400000005960464,"roughnessFactor":0.301511347293854}},{"alphaMode":"OPAQUE","doubleSided":false,"extras":{"fromFBX":{"isTruePBR":false,"shadingModel":"Lambert"}},"name":"DefaultMaterial","pbrMetallicRoughness":{"baseColorFactor":[0.5,0.5,0.5,1],"metallicFactor":0.200000002980232,"roughnessFactor":0.800000011920929}}],"meshes":[{"name":"SM_Clock_LOD0","primitives":[{"attributes":{"NORMAL":3,"POSITION":2,"TANGENT":4,"TEXCOORD_0":5,"TEXCOORD_1":6},"indices":1,"material":0,"mode":4},{"attributes":{"NORMAL":27,"POSITION":26,"TANGENT":28,"TEXCOORD_0":29,"TEXCOORD_1":30},"indices":25,"material":1,"mode":4}]},{"name":"SM_Clock_LOD1","primitives":[{"attributes":{"NORMAL":9,"POSITION":8,"TANGENT":10,"TEXCOORD_0":11,"TEXCOORD_1":12},"indices":7,"material":0,"mode":4},{"attributes":{"NORMAL":33,"POSITION":32,"TANGENT":34,"TEXCOORD_0":35,"TEXCOORD_1":36},"indices":31,"material":1,"mode":4}]},{"name":"SM_Clock_LOD2","primitives":[{"attributes":{"NORMAL":15,"POSITION":14,"TANGENT":16,"TEXCOORD_0":17,"TEXCOORD_1":18},"indices":13,"material":0,"mode":4},{"attributes":{"NORMAL":39,"POSITION":38,"TANGENT":40,"TEXCOORD_0":41,"TEXCOORD_1":42},"indices":37,"material":1,"mode":4}]},{"name":"SM_Clock_LOD3","primitives":[{"attributes":{"NORMAL":21,"POSITION":20,"TANGENT":22,"TEXCOORD_0":23,"TEXCOORD_1":24},"indices":19,"material":0,"mode":4},{"attributes":{"NORMAL":45,"POSITION":44,"TANGENT":46,"TEXCOORD_0":47,"TEXCOORD_1":48},"indices":43,"material":1,"mode":4}]},{"name":"SM_Clock_ConvexHulls","primitives":[{"attributes":{"NORMAL":51,"POSITION":50,"TEXCOORD_0":52,"TEXCOORD_1":53},"indices":49,"material":2,"mode":4}]}],"nodes":[{"children":[1,2,3,4,5],"name":"Kitchen_Props_A_Clock2_152","originalUnits":0.00999999977648258,"pivot":[0,0,0],"rotation":[0,0,0,1],"scale":[1,1,1],"translation":[0,0,0]},{"mesh":0,"name":"SM_Clock_LOD0","originalUnits":0.00999999977648258,"pivot":[0,0,0],"rotation":[0,0,0,1],"scale":[1,1,1],"translation":[0,0,0]},{"mesh":4,"name":"SM_Clock_ConvexHulls","originalUnits":0.00999999977648258,"pivot":[0,0,0],"rotation":[0,0,0,1],"scale":[1,1,1],"translation":[0,0,0]},{"mesh":1,"name":"SM_Clock_LOD1","originalUnits":0.00999999977648258,"pivot":[0,0,0],"rotation":[0,0,0,1],"scale":[1,1,1],"translation":[0,0,0]},{"mesh":2,"name":"SM_Clock_LOD2","originalUnits":0.00999999977648258,"pivot":[0,0,0],"rotation":[0,0,0,1],"scale":[1,1,1],"translation":[0,0,0]},{"mesh":3,"name":"SM_Clock_LOD3","originalUnits":0.00999999977648258,"pivot":[0,0,0],"rotation":[0,0,0,1],"scale":[1,1,1],"translation":[0,0,0]}],"samplers":[{}],"scene":0,"scenes":[{"name":"Root Scene","nodes":[0]}],"textures":[{"name":"T_Default_N","sampler":0,"source":0}]}