{"accessors":[{"bufferView":0,"byteOffset":0,"componentType":5126,"count":1,"max":[0],"min":[0],"type":"SCALAR"},{"bufferView":1,"byteOffset":0,"componentType":5123,"count":660,"type":"SCALAR"},{"bufferView":2,"byteOffset":0,"componentType":5126,"count":188,"max":[0.00395151739940047,0.0123211313039064,0.0947983786463737],"min":[-0.00713050924242,0.00140806951094419,-0.08406983315945],"type":"VEC3"},{"bufferView":3,"byteOffset":0,"componentType":5126,"count":188,"type":"VEC3"},{"bufferView":4,"byteOffset":0,"componentType":5126,"count":188,"type":"VEC4"},{"bufferView":5,"byteOffset":0,"componentType":5126,"count":188,"type":"VEC2"},{"bufferView":6,"byteOffset":0,"componentType":5126,"count":188,"type":"VEC2"},{"bufferView":7,"byteOffset":0,"componentType":5123,"count":492,"type":"SCALAR"},{"bufferView":8,"byteOffset":0,"componentType":5126,"count":160,"max":[0.00395151739940047,0.0123211313039064,0.0947983786463737],"min":[-0.00713050924242,0.00140806869603693,-0.08406983315945],"type":"VEC3"},{"bufferView":9,"byteOffset":0,"componentType":5126,"count":160,"type":"VEC3"},{"bufferView":10,"byteOffset":0,"componentType":5126,"count":160,"type":"VEC4"},{"bufferView":11,"byteOffset":0,"componentType":5126,"count":160,"type":"VEC2"},{"bufferView":12,"byteOffset":0,"componentType":5126,"count":160,"type":"VEC2"},{"bufferView":13,"byteOffset":0,"componentType":5123,"count":330,"type":"SCALAR"},{"bufferView":14,"byteOffset":0,"componentType":5126,"count":118,"max":[0.00395151739940047,0.0123217711225152,0.095500074326992],"min":[-0.00713057955727,0.00140811107121408,-0.08427038788795],"type":"VEC3"},{"bufferView":15,"byteOffset":0,"componentType":5126,"count":118,"type":"VEC3"},{"bufferView":16,"byteOffset":0,"componentType":5126,"count":118,"type":"VEC4"},{"bufferView":17,"byteOffset":0,"componentType":5126,"count":118,"type":"VEC2"},{"bufferView":18,"byteOffset":0,"componentType":5126,"count":118,"type":"VEC2"},{"bufferView":19,"byteOffset":0,"componentType":5123,"count":162,"type":"SCALAR"},{"bufferView":20,"byteOffset":0,"componentType":5126,"count":66,"max":[0.00395151739940047,0.0123526295647025,0.0965015515685081],"min":[-0.00721086002886,0.00129670347087085,-0.08430323749781],"type":"VEC3"},{"bufferView":21,"byteOffset":0,"componentType":5126,"count":66,"type":"VEC3"},{"bufferView":22,"byteOffset":0,"componentType":5126,"count":66,"type":"VEC4"},{"bufferView":23,"byteOffset":0,"componentType":5126,"count":66,"type":"VEC2"},{"bufferView":24,"byteOffset":0,"componentType":5126,"count":66,"type":"VEC2"},{"bufferView":25,"byteOffset":0,"componentType":5123,"count":84,"type":"SCALAR"},{"bufferView":26,"byteOffset":0,"componentType":5126,"count":74,"max":[0.00421185977756977,0.0128633258864284,0.092000387609005],"min":[-0.00781364645809,0.00086587620899081,-0.08442372828722],"type":"VEC3"},{"bufferView":27,"byteOffset":0,"componentType":5126,"count":74,"type":"VEC3"},{"bufferView":28,"byteOffset":0,"componentType":5126,"count":74,"type":"VEC2"},{"bufferView":29,"byteOffset":0,"componentType":5126,"count":74,"type":"VEC2"}],"animations":[{"channels":[],"name":"Unreal Take","samplers":[]}],"asset":{"generator":"FBX2glTF v0.13.0","version":"2.0"},"bufferViews":[{"buffer":0,"byteLength":4,"byteOffset":0},{"buffer":0,"byteLength":1320,"byteOffset":4,"target":34963},{"buffer":0,"byteLength":2256,"byteOffset":1324,"target":34962},{"buffer":0,"byteLength":2256,"byteOffset":3580,"target":34962},{"buffer":0,"byteLength":3008,"byteOffset":5836,"target":34962},{"buffer":0,"byteLength":1504,"byteOffset":8844,"target":34962},{"buffer":0,"byteLength":1504,"byteOffset":10348,"target":34962},{"buffer":0,"byteLength":984,"byteOffset":11852,"target":34963},{"buffer":0,"byteLength":1920,"byteOffset":12836,"target":34962},{"buffer":0,"byteLength":1920,"byteOffset":14756,"target":34962},{"buffer":0,"byteLength":2560,"byteOffset":16676,"target":34962},{"buffer":0,"byteLength":1280,"byteOffset":19236,"target":34962},{"buffer":0,"byteLength":1280,"byteOffset":20516,"target":34962},{"buffer":0,"byteLength":660,"byteOffset":21796,"target":34963},{"buffer":0,"byteLength":1416,"byteOffset":22456,"target":34962},{"buffer":0,"byteLength":1416,"byteOffset":23872,"target":34962},{"buffer":0,"byteLength":1888,"byteOffset":25288,"target":34962},{"buffer":0,"byteLength":944,"byteOffset":27176,"target":34962},{"buffer":0,"byteLength":944,"byteOffset":28120,"target":34962},{"buffer":0,"byteLength":324,"byteOffset":29064,"target":34963},{"buffer":0,"byteLength":792,"byteOffset":29388,"target":34962},{"buffer":0,"byteLength":792,"byteOffset":30180,"target":34962},{"buffer":0,"byteLength":1056,"byteOffset":30972,"target":34962},{"buffer":0,"byteLength":528,"byteOffset":32028,"target":34962},{"buffer":0,"byteLength":528,"byteOffset":32556,"target":34962},{"buffer":0,"byteLength":168,"byteOffset":33084,"target":34963},{"buffer":0,"byteLength":888,"byteOffset":33252,"target":34962},{"buffer":0,"byteLength":888,"byteOffset":34140,"target":34962},{"buffer":0,"byteLength":592,"byteOffset":35028,"target":34962},{"buffer":0,"byteLength":592,"byteOffset":35620,"target":34962}],"buffers":[{"byteLength":36212,"uri":"SM_Crayon04.bin"}],"images":[{"name":"T_OfficeSupplies_N","uri":"T_OfficeSupplies_N.tga"}],"materials":[{"alphaMode":"OPAQUE","doubleSided":false,"extras":{"fromFBX":{"isTruePBR":false,"shadingModel":"Phong"}},"name":"MI_OfficeSupplies","normalTexture":{"index":0,"texCoord":0},"pbrMetallicRoughness":{"baseColorFactor":[0.21586050093174,0.21586050093174,0.21586050093174,1],"metallicFactor":0.400000005960464,"roughnessFactor":0.301511347293854}},{"alphaMode":"OPAQUE","doubleSided":false,"extras":{"fromFBX":{"isTruePBR":false,"shadingModel":"Lambert"}},"name":"DefaultMaterial","pbrMetallicRoughness":{"baseColorFactor":[0.5,0.5,0.5,1],"metallicFactor":0.200000002980232,"roughnessFactor":0.800000011920929}}],"meshes":[{"name":"SM_Crayon04_LOD0","primitives":[{"attributes":{"NORMAL":3,"POSITION":2,"TANGENT":4,"TEXCOORD_0":5,"TEXCOORD_1":6},"indices":1,"material":0,"mode":4}]},{"name":"SM_Crayon04_LOD1","primitives":[{"attributes":{"NORMAL":9,"POSITION":8,"TANGENT":10,"TEXCOORD_0":11,"TEXCOORD_1":12},"indices":7,"material":0,"mode":4}]},{"name":"SM_Crayon04_LOD2","primitives":[{"attributes":{"NORMAL":15,"POSITION":14,"TANGENT":16,"TEXCOORD_0":17,"TEXCOORD_1":18},"indices":13,"material":0,"mode":4}]},{"name":"SM_Crayon04_LOD3","primitives":[{"attributes":{"NORMAL":21,"POSITION":20,"TANGENT":22,"TEXCOORD_0":23,"TEXCOORD_1":24},"indices":19,"material":0,"mode":4}]},{"name":"SM_Crayon04_ConvexHulls","primitives":[{"attributes":{"NORMAL":27,"POSITION":26,"TEXCOORD_0":28,"TEXCOORD_1":29},"indices":25,"material":1,"mode":4}]}],"nodes":[{"children":[1,2,3,4,5],"name":"SM_Crayon12","originalUnits":0.00999999977648258,"pivot":[0,0,0],"rotation":[0,0,0,1],"scale":[1,1,1],"translation":[0,0,0]},{"mesh":0,"name":"SM_Crayon04_LOD0","originalUnits":0.00999999977648258,"pivot":[0,0,0],"rotation":[0,0,0,1],"scale":[1,1,1],"translation":[0,0,0]},{"mesh":4,"name":"SM_Crayon04_ConvexHulls","originalUnits":0.00999999977648258,"pivot":[0,0,0],"rotation":[0,0,0,1],"scale":[1,1,1],"translation":[0,0,0]},{"mesh":1,"name":"SM_Crayon04_LOD1","originalUnits":0.00999999977648258,"pivot":[0,0,0],"rotation":[0,0,0,1],"scale":[1,1,1],"translation":[0,0,0]},{"mesh":2,"name":"SM_Crayon04_LOD2","originalUnits":0.00999999977648258,"pivot":[0,0,0],"rotation":[0,0,0,1],"scale":[1,1,1],"translation":[0,0,0]},{"mesh":3,"name":"SM_Crayon04_LOD3","originalUnits":0.00999999977648258,"pivot":[0,0,0],"rotation":[0,0,0,1],"scale":[1,1,1],"translation":[0,0,0]}],"samplers":[{}],"scene":0,"scenes":[{"name":"Root Scene","nodes":[0]}],"textures":[{"name":"T_OfficeSupplies_N","sampler":0,"source":0}]}