{"accessors":[{"bufferView":0,"byteOffset":0,"componentType":5126,"count":1,"max":[0],"min":[0],"type":"SCALAR"},{"bufferView":1,"byteOffset":0,"componentType":5123,"count":13608,"type":"SCALAR"},{"bufferView":2,"byteOffset":0,"componentType":5126,"count":2631,"max":[0.0410189032554626,0.127526715397835,0.0408383347094059],"min":[-0.04101889207959,-0.12752671539784,-0.04083833470941],"type":"VEC3"},{"bufferView":3,"byteOffset":0,"componentType":5126,"count":2631,"type":"VEC3"},{"bufferView":4,"byteOffset":0,"componentType":5126,"count":2631,"type":"VEC4"},{"bufferView":5,"byteOffset":0,"componentType":5126,"count":2631,"type":"VEC2"},{"bufferView":6,"byteOffset":0,"componentType":5126,"count":2631,"type":"VEC2"},{"bufferView":7,"byteOffset":0,"componentType":5123,"count":10206,"type":"SCALAR"},{"bufferView":8,"byteOffset":0,"componentType":5126,"count":2012,"max":[0.0410189032554626,0.127526715397835,0.0408383347094059],"min":[-0.04101889207959,-0.12752671539784,-0.04083833470941],"type":"VEC3"},{"bufferView":9,"byteOffset":0,"componentType":5126,"count":2012,"type":"VEC3"},{"bufferView":10,"byteOffset":0,"componentType":5126,"count":2012,"type":"VEC4"},{"bufferView":11,"byteOffset":0,"componentType":5126,"count":2012,"type":"VEC2"},{"bufferView":12,"byteOffset":0,"componentType":5126,"count":2012,"type":"VEC2"},{"bufferView":13,"byteOffset":0,"componentType":5123,"count":6804,"type":"SCALAR"},{"bufferView":14,"byteOffset":0,"componentType":5126,"count":1383,"max":[0.0410189032554626,0.127526715397835,0.0407797954976559],"min":[-0.04101889207959,-0.12752671539784,-0.04083833470941],"type":"VEC3"},{"bufferView":15,"byteOffset":0,"componentType":5126,"count":1383,"type":"VEC3"},{"bufferView":16,"byteOffset":0,"componentType":5126,"count":1383,"type":"VEC4"},{"bufferView":17,"byteOffset":0,"componentType":5126,"count":1383,"type":"VEC2"},{"bufferView":18,"byteOffset":0,"componentType":5126,"count":1383,"type":"VEC2"},{"bufferView":19,"byteOffset":0,"componentType":5123,"count":3402,"type":"SCALAR"},{"bufferView":20,"byteOffset":0,"componentType":5126,"count":744,"max":[0.0409605205059052,0.127521052956581,0.0408650375902653],"min":[-0.04062642902136,-0.12754340469837,-0.04080521315336],"type":"VEC3"},{"bufferView":21,"byteOffset":0,"componentType":5126,"count":744,"type":"VEC3"},{"bufferView":22,"byteOffset":0,"componentType":5126,"count":744,"type":"VEC4"},{"bufferView":23,"byteOffset":0,"componentType":5126,"count":744,"type":"VEC2"},{"bufferView":24,"byteOffset":0,"componentType":5126,"count":744,"type":"VEC2"},{"bufferView":25,"byteOffset":0,"componentType":5123,"count":84,"type":"SCALAR"},{"bufferView":26,"byteOffset":0,"componentType":5126,"count":84,"max":[0.0394776798784733,0.128721565008163,0.0401264950633049],"min":[-0.03973667323589,-0.12536637485027,-0.03997677564621],"type":"VEC3"},{"bufferView":27,"byteOffset":0,"componentType":5126,"count":84,"type":"VEC3"},{"bufferView":28,"byteOffset":0,"componentType":5126,"count":84,"type":"VEC2"},{"bufferView":29,"byteOffset":0,"componentType":5126,"count":84,"type":"VEC2"}],"animations":[{"channels":[],"name":"Unreal Take","samplers":[]}],"asset":{"generator":"FBX2glTF v0.13.0","version":"2.0"},"bufferViews":[{"buffer":0,"byteLength":4,"byteOffset":0},{"buffer":0,"byteLength":27216,"byteOffset":4,"target":34963},{"buffer":0,"byteLength":31572,"byteOffset":27220,"target":34962},{"buffer":0,"byteLength":31572,"byteOffset":58792,"target":34962},{"buffer":0,"byteLength":42096,"byteOffset":90364,"target":34962},{"buffer":0,"byteLength":21048,"byteOffset":132460,"target":34962},{"buffer":0,"byteLength":21048,"byteOffset":153508,"target":34962},{"buffer":0,"byteLength":20412,"byteOffset":174556,"target":34963},{"buffer":0,"byteLength":24144,"byteOffset":194968,"target":34962},{"buffer":0,"byteLength":24144,"byteOffset":219112,"target":34962},{"buffer":0,"byteLength":32192,"byteOffset":243256,"target":34962},{"buffer":0,"byteLength":16096,"byteOffset":275448,"target":34962},{"buffer":0,"byteLength":16096,"byteOffset":291544,"target":34962},{"buffer":0,"byteLength":13608,"byteOffset":307640,"target":34963},{"buffer":0,"byteLength":16596,"byteOffset":321248,"target":34962},{"buffer":0,"byteLength":16596,"byteOffset":337844,"target":34962},{"buffer":0,"byteLength":22128,"byteOffset":354440,"target":34962},{"buffer":0,"byteLength":11064,"byteOffset":376568,"target":34962},{"buffer":0,"byteLength":11064,"byteOffset":387632,"target":34962},{"buffer":0,"byteLength":6804,"byteOffset":398696,"target":34963},{"buffer":0,"byteLength":8928,"byteOffset":405500,"target":34962},{"buffer":0,"byteLength":8928,"byteOffset":414428,"target":34962},{"buffer":0,"byteLength":11904,"byteOffset":423356,"target":34962},{"buffer":0,"byteLength":5952,"byteOffset":435260,"target":34962},{"buffer":0,"byteLength":5952,"byteOffset":441212,"target":34962},{"buffer":0,"byteLength":168,"byteOffset":447164,"target":34963},{"buffer":0,"byteLength":1008,"byteOffset":447332,"target":34962},{"buffer":0,"byteLength":1008,"byteOffset":448340,"target":34962},{"buffer":0,"byteLength":672,"byteOffset":449348,"target":34962},{"buffer":0,"byteLength":672,"byteOffset":450020,"target":34962}],"buffers":[{"byteLength":450692,"uri":"SM_Ceramic_Bottle_A.bin"}],"images":[{"name":"FlatNormal","uri":"FlatNormal.tga"}],"materials":[{"alphaMode":"OPAQUE","doubleSided":false,"extras":{"fromFBX":{"isTruePBR":false,"shadingModel":"Phong"}},"name":"MI_Ceramic_Bottle_A","normalTexture":{"index":0,"texCoord":0},"pbrMetallicRoughness":{"baseColorFactor":[0.21586050093174,0.21586050093174,0.21586050093174,1],"metallicFactor":0.400000005960464,"roughnessFactor":0.301511347293854}},{"alphaMode":"OPAQUE","doubleSided":false,"extras":{"fromFBX":{"isTruePBR":false,"shadingModel":"Lambert"}},"name":"DefaultMaterial","pbrMetallicRoughness":{"baseColorFactor":[0.5,0.5,0.5,1],"metallicFactor":0.200000002980232,"roughnessFactor":0.800000011920929}}],"meshes":[{"name":"SM_Ceramic_Bottle_A_LOD0","primitives":[{"attributes":{"NORMAL":3,"POSITION":2,"TANGENT":4,"TEXCOORD_0":5,"TEXCOORD_1":6},"indices":1,"material":0,"mode":4}]},{"name":"SM_Ceramic_Bottle_A_LOD1","primitives":[{"attributes":{"NORMAL":9,"POSITION":8,"TANGENT":10,"TEXCOORD_0":11,"TEXCOORD_1":12},"indices":7,"material":0,"mode":4}]},{"name":"SM_Ceramic_Bottle_A_LOD2","primitives":[{"attributes":{"NORMAL":15,"POSITION":14,"TANGENT":16,"TEXCOORD_0":17,"TEXCOORD_1":18},"indices":13,"material":0,"mode":4}]},{"name":"SM_Ceramic_Bottle_A_LOD3","primitives":[{"attributes":{"NORMAL":21,"POSITION":20,"TANGENT":22,"TEXCOORD_0":23,"TEXCOORD_1":24},"indices":19,"material":0,"mode":4}]},{"name":"SM_Ceramic_Bottle_A_ConvexHulls","primitives":[{"attributes":{"NORMAL":27,"POSITION":26,"TEXCOORD_0":28,"TEXCOORD_1":29},"indices":25,"material":1,"mode":4}]}],"nodes":[{"children":[1,2,3,4,5],"name":"Ceramic_Bottle_A2","originalUnits":0.00999999977648258,"pivot":[0,0,0],"rotation":[0,0,0,1],"scale":[1,1,1],"translation":[0,0,0]},{"mesh":0,"name":"SM_Ceramic_Bottle_A_LOD0","originalUnits":0.00999999977648258,"pivot":[0,0,0],"rotation":[0,0,0,1],"scale":[1,1,1],"translation":[0,0,0]},{"mesh":4,"name":"SM_Ceramic_Bottle_A_ConvexHulls","originalUnits":0.00999999977648258,"pivot":[0,0,0],"rotation":[0,0,0,1],"scale":[1,1,1],"translation":[0,0,0]},{"mesh":1,"name":"SM_Ceramic_Bottle_A_LOD1","originalUnits":0.00999999977648258,"pivot":[0,0,0],"rotation":[0,0,0,1],"scale":[1,1,1],"translation":[0,0,0]},{"mesh":2,"name":"SM_Ceramic_Bottle_A_LOD2","originalUnits":0.00999999977648258,"pivot":[0,0,0],"rotation":[0,0,0,1],"scale":[1,1,1],"translation":[0,0,0]},{"mesh":3,"name":"SM_Ceramic_Bottle_A_LOD3","originalUnits":0.00999999977648258,"pivot":[0,0,0],"rotation":[0,0,0,1],"scale":[1,1,1],"translation":[0,0,0]}],"samplers":[{}],"scene":0,"scenes":[{"name":"Root Scene","nodes":[0]}],"textures":[{"name":"T_Default_N","sampler":0,"source":0}]}