{"accessors":[{"bufferView":0,"byteOffset":0,"componentType":5126,"count":1,"max":[0],"min":[0],"type":"SCALAR"},{"bufferView":1,"byteOffset":0,"componentType":5123,"count":3636,"type":"SCALAR"},{"bufferView":2,"byteOffset":0,"componentType":5126,"count":1022,"max":[0.0874943435192108,0.374900937080383,0.0824655145406723],"min":[-0.07743804901838,-0.00000000923134,-0.0824648141861],"type":"VEC3"},{"bufferView":3,"byteOffset":0,"componentType":5126,"count":1022,"type":"VEC3"},{"bufferView":4,"byteOffset":0,"componentType":5126,"count":1022,"type":"VEC4"},{"bufferView":5,"byteOffset":0,"componentType":5126,"count":1022,"type":"VEC2"},{"bufferView":6,"byteOffset":0,"componentType":5126,"count":1022,"type":"VEC2"},{"bufferView":7,"byteOffset":0,"componentType":5123,"count":2724,"type":"SCALAR"},{"bufferView":8,"byteOffset":0,"componentType":5126,"count":793,"max":[0.0874943435192108,0.375375926494598,0.0824655145406723],"min":[-0.0776142552495,-0.00000000924591,-0.08264122158289],"type":"VEC3"},{"bufferView":9,"byteOffset":0,"componentType":5126,"count":793,"type":"VEC3"},{"bufferView":10,"byteOffset":0,"componentType":5126,"count":793,"type":"VEC4"},{"bufferView":11,"byteOffset":0,"componentType":5126,"count":793,"type":"VEC2"},{"bufferView":12,"byteOffset":0,"componentType":5126,"count":793,"type":"VEC2"},{"bufferView":13,"byteOffset":0,"componentType":5123,"count":1818,"type":"SCALAR"},{"bufferView":14,"byteOffset":0,"componentType":5126,"count":572,"max":[0.0874943435192108,0.377203464508057,0.0824655145406723],"min":[-0.07986787706614,-0.00000000301678,-0.08444072306156],"type":"VEC3"},{"bufferView":15,"byteOffset":0,"componentType":5126,"count":572,"type":"VEC3"},{"bufferView":16,"byteOffset":0,"componentType":5126,"count":572,"type":"VEC4"},{"bufferView":17,"byteOffset":0,"componentType":5126,"count":572,"type":"VEC2"},{"bufferView":18,"byteOffset":0,"componentType":5126,"count":572,"type":"VEC2"},{"bufferView":19,"byteOffset":0,"componentType":5123,"count":906,"type":"SCALAR"},{"bufferView":20,"byteOffset":0,"componentType":5126,"count":325,"max":[0.0892093926668167,0.379289746284485,0.0824655145406723],"min":[-0.07986787706614,-0.00038868215051,-0.08444072306156],"type":"VEC3"},{"bufferView":21,"byteOffset":0,"componentType":5126,"count":325,"type":"VEC3"},{"bufferView":22,"byteOffset":0,"componentType":5126,"count":325,"type":"VEC4"},{"bufferView":23,"byteOffset":0,"componentType":5126,"count":325,"type":"VEC2"},{"bufferView":24,"byteOffset":0,"componentType":5126,"count":325,"type":"VEC2"},{"bufferView":25,"byteOffset":0,"componentType":5123,"count":324,"type":"SCALAR"},{"bufferView":26,"byteOffset":0,"componentType":5126,"count":308,"max":[0.0878107249736786,0.376061201095581,0.0714576914906502],"min":[-0.07953840494156,-0.00203052093275,-0.0846871137619],"type":"VEC3"},{"bufferView":27,"byteOffset":0,"componentType":5126,"count":308,"type":"VEC3"},{"bufferView":28,"byteOffset":0,"componentType":5126,"count":308,"type":"VEC2"},{"bufferView":29,"byteOffset":0,"componentType":5126,"count":308,"type":"VEC2"}],"animations":[{"channels":[],"name":"Unreal Take","samplers":[]}],"asset":{"generator":"FBX2glTF v0.13.0","version":"2.0"},"bufferViews":[{"buffer":0,"byteLength":4,"byteOffset":0},{"buffer":0,"byteLength":7272,"byteOffset":4,"target":34963},{"buffer":0,"byteLength":12264,"byteOffset":7276,"target":34962},{"buffer":0,"byteLength":12264,"byteOffset":19540,"target":34962},{"buffer":0,"byteLength":16352,"byteOffset":31804,"target":34962},{"buffer":0,"byteLength":8176,"byteOffset":48156,"target":34962},{"buffer":0,"byteLength":8176,"byteOffset":56332,"target":34962},{"buffer":0,"byteLength":5448,"byteOffset":64508,"target":34963},{"buffer":0,"byteLength":9516,"byteOffset":69956,"target":34962},{"buffer":0,"byteLength":9516,"byteOffset":79472,"target":34962},{"buffer":0,"byteLength":12688,"byteOffset":88988,"target":34962},{"buffer":0,"byteLength":6344,"byteOffset":101676,"target":34962},{"buffer":0,"byteLength":6344,"byteOffset":108020,"target":34962},{"buffer":0,"byteLength":3636,"byteOffset":114364,"target":34963},{"buffer":0,"byteLength":6864,"byteOffset":118000,"target":34962},{"buffer":0,"byteLength":6864,"byteOffset":124864,"target":34962},{"buffer":0,"byteLength":9152,"byteOffset":131728,"target":34962},{"buffer":0,"byteLength":4576,"byteOffset":140880,"target":34962},{"buffer":0,"byteLength":4576,"byteOffset":145456,"target":34962},{"buffer":0,"byteLength":1812,"byteOffset":150032,"target":34963},{"buffer":0,"byteLength":3900,"byteOffset":151844,"target":34962},{"buffer":0,"byteLength":3900,"byteOffset":155744,"target":34962},{"buffer":0,"byteLength":5200,"byteOffset":159644,"target":34962},{"buffer":0,"byteLength":2600,"byteOffset":164844,"target":34962},{"buffer":0,"byteLength":2600,"byteOffset":167444,"target":34962},{"buffer":0,"byteLength":648,"byteOffset":170044,"target":34963},{"buffer":0,"byteLength":3696,"byteOffset":170692,"target":34962},{"buffer":0,"byteLength":3696,"byteOffset":174388,"target":34962},{"buffer":0,"byteLength":2464,"byteOffset":178084,"target":34962},{"buffer":0,"byteLength":2464,"byteOffset":180548,"target":34962}],"buffers":[{"byteLength":183012,"uri":"SM_Candle.bin"}],"images":[{"name":"T_Candle_N","uri":"T_Candle_N.tga"}],"materials":[{"alphaMode":"OPAQUE","doubleSided":false,"extras":{"fromFBX":{"isTruePBR":false,"shadingModel":"Phong"}},"name":"MI_Candle","normalTexture":{"index":0,"texCoord":0},"pbrMetallicRoughness":{"baseColorFactor":[0.21586050093174,0.21586050093174,0.21586050093174,1],"metallicFactor":0.400000005960464,"roughnessFactor":0.301511347293854}},{"alphaMode":"OPAQUE","doubleSided":false,"extras":{"fromFBX":{"isTruePBR":false,"shadingModel":"Lambert"}},"name":"DefaultMaterial","pbrMetallicRoughness":{"baseColorFactor":[0.5,0.5,0.5,1],"metallicFactor":0.200000002980232,"roughnessFactor":0.800000011920929}}],"meshes":[{"name":"SM_Candle_LOD0","primitives":[{"attributes":{"NORMAL":3,"POSITION":2,"TANGENT":4,"TEXCOORD_0":5,"TEXCOORD_1":6},"indices":1,"material":0,"mode":4}]},{"name":"SM_Candle_LOD1","primitives":[{"attributes":{"NORMAL":9,"POSITION":8,"TANGENT":10,"TEXCOORD_0":11,"TEXCOORD_1":12},"indices":7,"material":0,"mode":4}]},{"name":"SM_Candle_LOD2","primitives":[{"attributes":{"NORMAL":15,"POSITION":14,"TANGENT":16,"TEXCOORD_0":17,"TEXCOORD_1":18},"indices":13,"material":0,"mode":4}]},{"name":"SM_Candle_LOD3","primitives":[{"attributes":{"NORMAL":21,"POSITION":20,"TANGENT":22,"TEXCOORD_0":23,"TEXCOORD_1":24},"indices":19,"material":0,"mode":4}]},{"name":"SM_Candle_ConvexHulls","primitives":[{"attributes":{"NORMAL":27,"POSITION":26,"TEXCOORD_0":28,"TEXCOORD_1":29},"indices":25,"material":1,"mode":4}]}],"nodes":[{"children":[1,2,3,4,5],"name":"SM_Candle10","originalUnits":0.00999999977648258,"pivot":[0,0,0],"rotation":[0,0,0,1],"scale":[1,1,1],"translation":[0,0,0]},{"mesh":0,"name":"SM_Candle_LOD0","originalUnits":0.00999999977648258,"pivot":[0,0,0],"rotation":[0,0,0,1],"scale":[1,1,1],"translation":[0,0,0]},{"mesh":4,"name":"SM_Candle_ConvexHulls","originalUnits":0.00999999977648258,"pivot":[0,0,0],"rotation":[0,0,0,1],"scale":[1,1,1],"translation":[0,0,0]},{"mesh":1,"name":"SM_Candle_LOD1","originalUnits":0.00999999977648258,"pivot":[0,0,0],"rotation":[0,0,0,1],"scale":[1,1,1],"translation":[0,0,0]},{"mesh":2,"name":"SM_Candle_LOD2","originalUnits":0.00999999977648258,"pivot":[0,0,0],"rotation":[0,0,0,1],"scale":[1,1,1],"translation":[0,0,0]},{"mesh":3,"name":"SM_Candle_LOD3","originalUnits":0.00999999977648258,"pivot":[0,0,0],"rotation":[0,0,0,1],"scale":[1,1,1],"translation":[0,0,0]}],"samplers":[{}],"scene":0,"scenes":[{"name":"Root Scene","nodes":[0]}],"textures":[{"name":"T_Candle_N","sampler":0,"source":0}]}