{"accessors":[{"bufferView":0,"byteOffset":0,"componentType":5126,"count":1,"max":[0],"min":[0],"type":"SCALAR"},{"bufferView":1,"byteOffset":0,"componentType":5123,"count":1740,"type":"SCALAR"},{"bufferView":2,"byteOffset":0,"componentType":5126,"count":792,"max":[7.97346305847168,-0.02086947672069,9.11136245727539],"min":[-6.75822973251343,-0.15734273195267,-10.522029876709],"type":"VEC3"},{"bufferView":3,"byteOffset":0,"componentType":5126,"count":792,"type":"VEC3"},{"bufferView":4,"byteOffset":0,"componentType":5126,"count":792,"type":"VEC4"},{"bufferView":5,"byteOffset":0,"componentType":5126,"count":792,"type":"VEC2"},{"bufferView":6,"byteOffset":0,"componentType":5126,"count":792,"type":"VEC2"},{"bufferView":7,"byteOffset":0,"componentType":5123,"count":1302,"type":"SCALAR"},{"bufferView":8,"byteOffset":0,"componentType":5126,"count":657,"max":[7.97346305847168,-0.02086947672069,9.11136245727539],"min":[-6.75822973251343,-0.15734273195267,-10.522029876709],"type":"VEC3"},{"bufferView":9,"byteOffset":0,"componentType":5126,"count":657,"type":"VEC3"},{"bufferView":10,"byteOffset":0,"componentType":5126,"count":657,"type":"VEC4"},{"bufferView":11,"byteOffset":0,"componentType":5126,"count":657,"type":"VEC2"},{"bufferView":12,"byteOffset":0,"componentType":5126,"count":657,"type":"VEC2"},{"bufferView":13,"byteOffset":0,"componentType":5123,"count":870,"type":"SCALAR"},{"bufferView":14,"byteOffset":0,"componentType":5126,"count":470,"max":[7.97346305847168,-0.02086947672069,9.11136245727539],"min":[-6.75822973251343,-0.15734273195267,-10.522029876709],"type":"VEC3"},{"bufferView":15,"byteOffset":0,"componentType":5126,"count":470,"type":"VEC3"},{"bufferView":16,"byteOffset":0,"componentType":5126,"count":470,"type":"VEC4"},{"bufferView":17,"byteOffset":0,"componentType":5126,"count":470,"type":"VEC2"},{"bufferView":18,"byteOffset":0,"componentType":5126,"count":470,"type":"VEC2"},{"bufferView":19,"byteOffset":0,"componentType":5123,"count":432,"type":"SCALAR"},{"bufferView":20,"byteOffset":0,"componentType":5126,"count":251,"max":[7.97346305847168,-0.02086947672069,9.11136245727539],"min":[-6.75822973251343,-0.15902836620808,-10.522029876709],"type":"VEC3"},{"bufferView":21,"byteOffset":0,"componentType":5126,"count":251,"type":"VEC3"},{"bufferView":22,"byteOffset":0,"componentType":5126,"count":251,"type":"VEC4"},{"bufferView":23,"byteOffset":0,"componentType":5126,"count":251,"type":"VEC2"},{"bufferView":24,"byteOffset":0,"componentType":5126,"count":251,"type":"VEC2"},{"bufferView":25,"byteOffset":0,"componentType":5123,"count":1104,"type":"SCALAR"},{"bufferView":26,"byteOffset":0,"componentType":5126,"count":1082,"max":[7.98092317581177,-0.01813312992454,9.11832809448242],"min":[-6.76575183868408,-0.16091261804104,-10.5287914276123],"type":"VEC3"},{"bufferView":27,"byteOffset":0,"componentType":5126,"count":1082,"type":"VEC3"},{"bufferView":28,"byteOffset":0,"componentType":5126,"count":1082,"type":"VEC2"},{"bufferView":29,"byteOffset":0,"componentType":5126,"count":1082,"type":"VEC2"}],"animations":[{"channels":[],"name":"Unreal Take","samplers":[]}],"asset":{"generator":"FBX2glTF v0.13.0","version":"2.0"},"bufferViews":[{"buffer":0,"byteLength":4,"byteOffset":0},{"buffer":0,"byteLength":3480,"byteOffset":4,"target":34963},{"buffer":0,"byteLength":9504,"byteOffset":3484,"target":34962},{"buffer":0,"byteLength":9504,"byteOffset":12988,"target":34962},{"buffer":0,"byteLength":12672,"byteOffset":22492,"target":34962},{"buffer":0,"byteLength":6336,"byteOffset":35164,"target":34962},{"buffer":0,"byteLength":6336,"byteOffset":41500,"target":34962},{"buffer":0,"byteLength":2604,"byteOffset":47836,"target":34963},{"buffer":0,"byteLength":7884,"byteOffset":50440,"target":34962},{"buffer":0,"byteLength":7884,"byteOffset":58324,"target":34962},{"buffer":0,"byteLength":10512,"byteOffset":66208,"target":34962},{"buffer":0,"byteLength":5256,"byteOffset":76720,"target":34962},{"buffer":0,"byteLength":5256,"byteOffset":81976,"target":34962},{"buffer":0,"byteLength":1740,"byteOffset":87232,"target":34963},{"buffer":0,"byteLength":5640,"byteOffset":88972,"target":34962},{"buffer":0,"byteLength":5640,"byteOffset":94612,"target":34962},{"buffer":0,"byteLength":7520,"byteOffset":100252,"target":34962},{"buffer":0,"byteLength":3760,"byteOffset":107772,"target":34962},{"buffer":0,"byteLength":3760,"byteOffset":111532,"target":34962},{"buffer":0,"byteLength":864,"byteOffset":115292,"target":34963},{"buffer":0,"byteLength":3012,"byteOffset":116156,"target":34962},{"buffer":0,"byteLength":3012,"byteOffset":119168,"target":34962},{"buffer":0,"byteLength":4016,"byteOffset":122180,"target":34962},{"buffer":0,"byteLength":2008,"byteOffset":126196,"target":34962},{"buffer":0,"byteLength":2008,"byteOffset":128204,"target":34962},{"buffer":0,"byteLength":2208,"byteOffset":130212,"target":34963},{"buffer":0,"byteLength":12984,"byteOffset":132420,"target":34962},{"buffer":0,"byteLength":12984,"byteOffset":145404,"target":34962},{"buffer":0,"byteLength":8656,"byteOffset":158388,"target":34962},{"buffer":0,"byteLength":8656,"byteOffset":167044,"target":34962}],"buffers":[{"byteLength":175700,"uri":"SM_Crown_Molding.bin"}],"images":[{"name":"Detail_Normal_01","uri":"Detail_Normal_01.tga"}],"materials":[{"alphaMode":"OPAQUE","doubleSided":false,"extras":{"fromFBX":{"isTruePBR":false,"shadingModel":"Phong"}},"name":"MI_Molding_Trim","normalTexture":{"index":0,"texCoord":0},"pbrMetallicRoughness":{"baseColorFactor":[0.21586050093174,0.21586050093174,0.21586050093174,1],"metallicFactor":0.400000005960464,"roughnessFactor":0.301511347293854}},{"alphaMode":"OPAQUE","doubleSided":false,"extras":{"fromFBX":{"isTruePBR":false,"shadingModel":"Lambert"}},"name":"DefaultMaterial","pbrMetallicRoughness":{"baseColorFactor":[0.5,0.5,0.5,1],"metallicFactor":0.200000002980232,"roughnessFactor":0.800000011920929}}],"meshes":[{"name":"SM_Crown_Molding_LOD0","primitives":[{"attributes":{"NORMAL":3,"POSITION":2,"TANGENT":4,"TEXCOORD_0":5,"TEXCOORD_1":6},"indices":1,"material":0,"mode":4}]},{"name":"SM_Crown_Molding_LOD1","primitives":[{"attributes":{"NORMAL":9,"POSITION":8,"TANGENT":10,"TEXCOORD_0":11,"TEXCOORD_1":12},"indices":7,"material":0,"mode":4}]},{"name":"SM_Crown_Molding_LOD2","primitives":[{"attributes":{"NORMAL":15,"POSITION":14,"TANGENT":16,"TEXCOORD_0":17,"TEXCOORD_1":18},"indices":13,"material":0,"mode":4}]},{"name":"SM_Crown_Molding_LOD3","primitives":[{"attributes":{"NORMAL":21,"POSITION":20,"TANGENT":22,"TEXCOORD_0":23,"TEXCOORD_1":24},"indices":19,"material":0,"mode":4}]},{"name":"SM_Crown_Molding_ConvexHulls","primitives":[{"attributes":{"NORMAL":27,"POSITION":26,"TEXCOORD_0":28,"TEXCOORD_1":29},"indices":25,"material":1,"mode":4}]}],"nodes":[{"children":[1,2,3,4,5],"name":"Crown_Molding_SM_7","originalUnits":0.00999999977648258,"pivot":[0,0,0],"rotation":[0,0,0,1],"scale":[1,1,1],"translation":[0,0,0]},{"mesh":0,"name":"SM_Crown_Molding_LOD0","originalUnits":0.00999999977648258,"pivot":[0,0,0],"rotation":[0,0,0,1],"scale":[1,1,1],"translation":[0,0,0]},{"mesh":4,"name":"SM_Crown_Molding_ConvexHulls","originalUnits":0.00999999977648258,"pivot":[0,0,0],"rotation":[0,0,0,1],"scale":[1,1,1],"translation":[0,0,0]},{"mesh":1,"name":"SM_Crown_Molding_LOD1","originalUnits":0.00999999977648258,"pivot":[0,0,0],"rotation":[0,0,0,1],"scale":[1,1,1],"translation":[0,0,0]},{"mesh":2,"name":"SM_Crown_Molding_LOD2","originalUnits":0.00999999977648258,"pivot":[0,0,0],"rotation":[0,0,0,1],"scale":[1,1,1],"translation":[0,0,0]},{"mesh":3,"name":"SM_Crown_Molding_LOD3","originalUnits":0.00999999977648258,"pivot":[0,0,0],"rotation":[0,0,0,1],"scale":[1,1,1],"translation":[0,0,0]}],"samplers":[{}],"scene":0,"scenes":[{"name":"Root Scene","nodes":[0]}],"textures":[{"name":"T_Detail01_N","sampler":0,"source":0}]}