{"accessors":[{"bufferView":0,"byteOffset":0,"componentType":5126,"count":1,"max":[0],"min":[0],"type":"SCALAR"},{"bufferView":1,"byteOffset":0,"componentType":5123,"count":396,"type":"SCALAR"},{"bufferView":2,"byteOffset":0,"componentType":5126,"count":92,"max":[1.4072642326355,0.00953724794089794,0.808575749397278],"min":[-1.4072642326355,0.00000227579835154756,-0.89190900325775],"type":"VEC3"},{"bufferView":3,"byteOffset":0,"componentType":5126,"count":92,"type":"VEC3"},{"bufferView":4,"byteOffset":0,"componentType":5126,"count":92,"type":"VEC4"},{"bufferView":5,"byteOffset":0,"componentType":5126,"count":92,"type":"VEC2"},{"bufferView":6,"byteOffset":0,"componentType":5126,"count":92,"type":"VEC2"},{"bufferView":7,"byteOffset":0,"componentType":5123,"count":294,"type":"SCALAR"},{"bufferView":8,"byteOffset":0,"componentType":5126,"count":71,"max":[1.4072642326355,0.00953742489218712,0.808575749397278],"min":[-1.4072642326355,0.00000227579835154756,-0.89190900325775],"type":"VEC3"},{"bufferView":9,"byteOffset":0,"componentType":5126,"count":71,"type":"VEC3"},{"bufferView":10,"byteOffset":0,"componentType":5126,"count":71,"type":"VEC4"},{"bufferView":11,"byteOffset":0,"componentType":5126,"count":71,"type":"VEC2"},{"bufferView":12,"byteOffset":0,"componentType":5126,"count":71,"type":"VEC2"},{"bufferView":13,"byteOffset":0,"componentType":5123,"count":198,"type":"SCALAR"},{"bufferView":14,"byteOffset":0,"componentType":5126,"count":53,"max":[1.4072642326355,0.00953742489218712,0.808575749397278],"min":[-1.4072642326355,0.00000227579835154756,-0.89190900325775],"type":"VEC3"},{"bufferView":15,"byteOffset":0,"componentType":5126,"count":53,"type":"VEC3"},{"bufferView":16,"byteOffset":0,"componentType":5126,"count":53,"type":"VEC4"},{"bufferView":17,"byteOffset":0,"componentType":5126,"count":53,"type":"VEC2"},{"bufferView":18,"byteOffset":0,"componentType":5126,"count":53,"type":"VEC2"},{"bufferView":19,"byteOffset":0,"componentType":5123,"count":96,"type":"SCALAR"},{"bufferView":20,"byteOffset":0,"componentType":5126,"count":33,"max":[1.4072642326355,0.00956226326525211,0.809347867965698],"min":[-1.4072642326355,0.00000227579835154756,-0.89352071285248],"type":"VEC3"},{"bufferView":21,"byteOffset":0,"componentType":5126,"count":33,"type":"VEC3"},{"bufferView":22,"byteOffset":0,"componentType":5126,"count":33,"type":"VEC4"},{"bufferView":23,"byteOffset":0,"componentType":5126,"count":33,"type":"VEC2"},{"bufferView":24,"byteOffset":0,"componentType":5126,"count":33,"type":"VEC2"},{"bufferView":25,"byteOffset":0,"componentType":5123,"count":60,"type":"SCALAR"},{"bufferView":26,"byteOffset":0,"componentType":5126,"count":46,"max":[1.41124737262726,0.0105372602120042,0.80957555770874],"min":[-1.41124677658081,-0.00112393358722,-0.89301657676697],"type":"VEC3"},{"bufferView":27,"byteOffset":0,"componentType":5126,"count":46,"type":"VEC3"},{"bufferView":28,"byteOffset":0,"componentType":5126,"count":46,"type":"VEC2"},{"bufferView":29,"byteOffset":0,"componentType":5126,"count":46,"type":"VEC2"}],"animations":[{"channels":[],"name":"Unreal Take","samplers":[]}],"asset":{"generator":"FBX2glTF v0.13.0","version":"2.0"},"bufferViews":[{"buffer":0,"byteLength":4,"byteOffset":0},{"buffer":0,"byteLength":792,"byteOffset":4,"target":34963},{"buffer":0,"byteLength":1104,"byteOffset":796,"target":34962},{"buffer":0,"byteLength":1104,"byteOffset":1900,"target":34962},{"buffer":0,"byteLength":1472,"byteOffset":3004,"target":34962},{"buffer":0,"byteLength":736,"byteOffset":4476,"target":34962},{"buffer":0,"byteLength":736,"byteOffset":5212,"target":34962},{"buffer":0,"byteLength":588,"byteOffset":5948,"target":34963},{"buffer":0,"byteLength":852,"byteOffset":6536,"target":34962},{"buffer":0,"byteLength":852,"byteOffset":7388,"target":34962},{"buffer":0,"byteLength":1136,"byteOffset":8240,"target":34962},{"buffer":0,"byteLength":568,"byteOffset":9376,"target":34962},{"buffer":0,"byteLength":568,"byteOffset":9944,"target":34962},{"buffer":0,"byteLength":396,"byteOffset":10512,"target":34963},{"buffer":0,"byteLength":636,"byteOffset":10908,"target":34962},{"buffer":0,"byteLength":636,"byteOffset":11544,"target":34962},{"buffer":0,"byteLength":848,"byteOffset":12180,"target":34962},{"buffer":0,"byteLength":424,"byteOffset":13028,"target":34962},{"buffer":0,"byteLength":424,"byteOffset":13452,"target":34962},{"buffer":0,"byteLength":192,"byteOffset":13876,"target":34963},{"buffer":0,"byteLength":396,"byteOffset":14068,"target":34962},{"buffer":0,"byteLength":396,"byteOffset":14464,"target":34962},{"buffer":0,"byteLength":528,"byteOffset":14860,"target":34962},{"buffer":0,"byteLength":264,"byteOffset":15388,"target":34962},{"buffer":0,"byteLength":264,"byteOffset":15652,"target":34962},{"buffer":0,"byteLength":120,"byteOffset":15916,"target":34963},{"buffer":0,"byteLength":552,"byteOffset":16036,"target":34962},{"buffer":0,"byteLength":552,"byteOffset":16588,"target":34962},{"buffer":0,"byteLength":368,"byteOffset":17140,"target":34962},{"buffer":0,"byteLength":368,"byteOffset":17508,"target":34962}],"buffers":[{"byteLength":17876,"uri":"SM_Carpet_03.bin"}],"images":[{"name":"T_Carpet_05_N","uri":"T_Carpet_05_N.tga"}],"materials":[{"alphaMode":"OPAQUE","doubleSided":false,"extras":{"fromFBX":{"isTruePBR":false,"shadingModel":"Phong"}},"name":"MI_Carpet","normalTexture":{"index":0,"texCoord":0},"pbrMetallicRoughness":{"baseColorFactor":[0.21586050093174,0.21586050093174,0.21586050093174,1],"metallicFactor":0.400000005960464,"roughnessFactor":0.301511347293854}},{"alphaMode":"OPAQUE","doubleSided":false,"extras":{"fromFBX":{"isTruePBR":false,"shadingModel":"Lambert"}},"name":"DefaultMaterial","pbrMetallicRoughness":{"baseColorFactor":[0.5,0.5,0.5,1],"metallicFactor":0.200000002980232,"roughnessFactor":0.800000011920929}}],"meshes":[{"name":"SM_Carpet_03_LOD0","primitives":[{"attributes":{"NORMAL":3,"POSITION":2,"TANGENT":4,"TEXCOORD_0":5,"TEXCOORD_1":6},"indices":1,"material":0,"mode":4}]},{"name":"SM_Carpet_03_LOD1","primitives":[{"attributes":{"NORMAL":9,"POSITION":8,"TANGENT":10,"TEXCOORD_0":11,"TEXCOORD_1":12},"indices":7,"material":0,"mode":4}]},{"name":"SM_Carpet_03_LOD2","primitives":[{"attributes":{"NORMAL":15,"POSITION":14,"TANGENT":16,"TEXCOORD_0":17,"TEXCOORD_1":18},"indices":13,"material":0,"mode":4}]},{"name":"SM_Carpet_03_LOD3","primitives":[{"attributes":{"NORMAL":21,"POSITION":20,"TANGENT":22,"TEXCOORD_0":23,"TEXCOORD_1":24},"indices":19,"material":0,"mode":4}]},{"name":"SM_Carpet_03_ConvexHulls","primitives":[{"attributes":{"NORMAL":27,"POSITION":26,"TEXCOORD_0":28,"TEXCOORD_1":29},"indices":25,"material":1,"mode":4}]}],"nodes":[{"children":[1,2,3,4,5],"name":"SM_Carpet_6","originalUnits":0.00999999977648258,"pivot":[0,0,0],"rotation":[0,0,0,1],"scale":[1,1,1],"translation":[0,0,0]},{"mesh":0,"name":"SM_Carpet_03_LOD0","originalUnits":0.00999999977648258,"pivot":[0,0,0],"rotation":[0,0,0,1],"scale":[1,1,1],"translation":[0,0,0]},{"mesh":4,"name":"SM_Carpet_03_ConvexHulls","originalUnits":0.00999999977648258,"pivot":[0,0,0],"rotation":[0,0,0,1],"scale":[1,1,1],"translation":[0,0,0]},{"mesh":1,"name":"SM_Carpet_03_LOD1","originalUnits":0.00999999977648258,"pivot":[0,0,0],"rotation":[0,0,0,1],"scale":[1,1,1],"translation":[0,0,0]},{"mesh":2,"name":"SM_Carpet_03_LOD2","originalUnits":0.00999999977648258,"pivot":[0,0,0],"rotation":[0,0,0,1],"scale":[1,1,1],"translation":[0,0,0]},{"mesh":3,"name":"SM_Carpet_03_LOD3","originalUnits":0.00999999977648258,"pivot":[0,0,0],"rotation":[0,0,0,1],"scale":[1,1,1],"translation":[0,0,0]}],"samplers":[{}],"scene":0,"scenes":[{"name":"Root Scene","nodes":[0]}],"textures":[{"name":"T_Carpet_N","sampler":0,"source":0}]}