{"accessors":[{"bufferView":0,"byteOffset":0,"componentType":5126,"count":1,"max":[0],"min":[0],"type":"SCALAR"},{"bufferView":1,"byteOffset":0,"componentType":5123,"count":564,"type":"SCALAR"},{"bufferView":2,"byteOffset":0,"componentType":5126,"count":166,"max":[0.123094469308853,0.359584540128708,0.0382157228887081],"min":[-0.12309450656176,0.00060298416065052,-0.03821595013142],"type":"VEC3"},{"bufferView":3,"byteOffset":0,"componentType":5126,"count":166,"type":"VEC3"},{"bufferView":4,"byteOffset":0,"componentType":5126,"count":166,"type":"VEC4"},{"bufferView":5,"byteOffset":0,"componentType":5126,"count":166,"type":"VEC2"},{"bufferView":6,"byteOffset":0,"componentType":5126,"count":166,"type":"VEC2"},{"bufferView":7,"byteOffset":0,"componentType":5123,"count":420,"type":"SCALAR"},{"bufferView":8,"byteOffset":0,"componentType":5126,"count":125,"max":[0.123094469308853,0.359584540128708,0.0382157228887081],"min":[-0.12309450656176,0.00060298416065052,-0.03821595013142],"type":"VEC3"},{"bufferView":9,"byteOffset":0,"componentType":5126,"count":125,"type":"VEC3"},{"bufferView":10,"byteOffset":0,"componentType":5126,"count":125,"type":"VEC4"},{"bufferView":11,"byteOffset":0,"componentType":5126,"count":125,"type":"VEC2"},{"bufferView":12,"byteOffset":0,"componentType":5126,"count":125,"type":"VEC2"},{"bufferView":13,"byteOffset":0,"componentType":5123,"count":282,"type":"SCALAR"},{"bufferView":14,"byteOffset":0,"componentType":5126,"count":99,"max":[0.123094469308853,0.359997808933258,0.0382533334195614],"min":[-0.12331949919462,0.00060157378902658,-0.03821595013142],"type":"VEC3"},{"bufferView":15,"byteOffset":0,"componentType":5126,"count":99,"type":"VEC3"},{"bufferView":16,"byteOffset":0,"componentType":5126,"count":99,"type":"VEC4"},{"bufferView":17,"byteOffset":0,"componentType":5126,"count":99,"type":"VEC2"},{"bufferView":18,"byteOffset":0,"componentType":5126,"count":99,"type":"VEC2"},{"bufferView":19,"byteOffset":0,"componentType":5123,"count":138,"type":"SCALAR"},{"bufferView":20,"byteOffset":0,"componentType":5126,"count":65,"max":[0.123103730380535,0.359997808933258,0.0382165499031544],"min":[-0.1237585246563,0.00059318024432286,-0.03826779872179],"type":"VEC3"},{"bufferView":21,"byteOffset":0,"componentType":5126,"count":65,"type":"VEC3"},{"bufferView":22,"byteOffset":0,"componentType":5126,"count":65,"type":"VEC4"},{"bufferView":23,"byteOffset":0,"componentType":5126,"count":65,"type":"VEC2"},{"bufferView":24,"byteOffset":0,"componentType":5126,"count":65,"type":"VEC2"},{"bufferView":25,"byteOffset":0,"componentType":5123,"count":36,"type":"SCALAR"},{"bufferView":26,"byteOffset":0,"componentType":5126,"count":26,"max":[0.124234721064568,0.361249953508377,0.0392157137393951],"min":[-0.12437501549721,-0.00062501471257,-0.03921594470739],"type":"VEC3"},{"bufferView":27,"byteOffset":0,"componentType":5126,"count":26,"type":"VEC3"},{"bufferView":28,"byteOffset":0,"componentType":5126,"count":26,"type":"VEC2"},{"bufferView":29,"byteOffset":0,"componentType":5126,"count":26,"type":"VEC2"}],"animations":[{"channels":[],"name":"Unreal Take","samplers":[]}],"asset":{"generator":"FBX2glTF v0.13.0","version":"2.0"},"bufferViews":[{"buffer":0,"byteLength":4,"byteOffset":0},{"buffer":0,"byteLength":1128,"byteOffset":4,"target":34963},{"buffer":0,"byteLength":1992,"byteOffset":1132,"target":34962},{"buffer":0,"byteLength":1992,"byteOffset":3124,"target":34962},{"buffer":0,"byteLength":2656,"byteOffset":5116,"target":34962},{"buffer":0,"byteLength":1328,"byteOffset":7772,"target":34962},{"buffer":0,"byteLength":1328,"byteOffset":9100,"target":34962},{"buffer":0,"byteLength":840,"byteOffset":10428,"target":34963},{"buffer":0,"byteLength":1500,"byteOffset":11268,"target":34962},{"buffer":0,"byteLength":1500,"byteOffset":12768,"target":34962},{"buffer":0,"byteLength":2000,"byteOffset":14268,"target":34962},{"buffer":0,"byteLength":1000,"byteOffset":16268,"target":34962},{"buffer":0,"byteLength":1000,"byteOffset":17268,"target":34962},{"buffer":0,"byteLength":564,"byteOffset":18268,"target":34963},{"buffer":0,"byteLength":1188,"byteOffset":18832,"target":34962},{"buffer":0,"byteLength":1188,"byteOffset":20020,"target":34962},{"buffer":0,"byteLength":1584,"byteOffset":21208,"target":34962},{"buffer":0,"byteLength":792,"byteOffset":22792,"target":34962},{"buffer":0,"byteLength":792,"byteOffset":23584,"target":34962},{"buffer":0,"byteLength":276,"byteOffset":24376,"target":34963},{"buffer":0,"byteLength":780,"byteOffset":24652,"target":34962},{"buffer":0,"byteLength":780,"byteOffset":25432,"target":34962},{"buffer":0,"byteLength":1040,"byteOffset":26212,"target":34962},{"buffer":0,"byteLength":520,"byteOffset":27252,"target":34962},{"buffer":0,"byteLength":520,"byteOffset":27772,"target":34962},{"buffer":0,"byteLength":72,"byteOffset":28292,"target":34963},{"buffer":0,"byteLength":312,"byteOffset":28364,"target":34962},{"buffer":0,"byteLength":312,"byteOffset":28676,"target":34962},{"buffer":0,"byteLength":208,"byteOffset":28988,"target":34962},{"buffer":0,"byteLength":208,"byteOffset":29196,"target":34962}],"buffers":[{"byteLength":29404,"uri":"SM_Cereal_Box.bin"}],"images":[{"name":"FlatNormal","uri":"FlatNormal.tga"}],"materials":[{"alphaMode":"OPAQUE","doubleSided":false,"extras":{"fromFBX":{"isTruePBR":false,"shadingModel":"Phong"}},"name":"MI_Cereal_Boxes_MI","normalTexture":{"index":0,"texCoord":0},"pbrMetallicRoughness":{"baseColorFactor":[0.21586050093174,0.21586050093174,0.21586050093174,1],"metallicFactor":0.400000005960464,"roughnessFactor":0.301511347293854}},{"alphaMode":"OPAQUE","doubleSided":false,"extras":{"fromFBX":{"isTruePBR":false,"shadingModel":"Lambert"}},"name":"DefaultMaterial","pbrMetallicRoughness":{"baseColorFactor":[0.5,0.5,0.5,1],"metallicFactor":0.200000002980232,"roughnessFactor":0.800000011920929}}],"meshes":[{"name":"SM_Cereal_Box_LOD0","primitives":[{"attributes":{"NORMAL":3,"POSITION":2,"TANGENT":4,"TEXCOORD_0":5,"TEXCOORD_1":6},"indices":1,"material":0,"mode":4}]},{"name":"SM_Cereal_Box_LOD1","primitives":[{"attributes":{"NORMAL":9,"POSITION":8,"TANGENT":10,"TEXCOORD_0":11,"TEXCOORD_1":12},"indices":7,"material":0,"mode":4}]},{"name":"SM_Cereal_Box_LOD2","primitives":[{"attributes":{"NORMAL":15,"POSITION":14,"TANGENT":16,"TEXCOORD_0":17,"TEXCOORD_1":18},"indices":13,"material":0,"mode":4}]},{"name":"SM_Cereal_Box_LOD3","primitives":[{"attributes":{"NORMAL":21,"POSITION":20,"TANGENT":22,"TEXCOORD_0":23,"TEXCOORD_1":24},"indices":19,"material":0,"mode":4}]},{"name":"SM_Cereal_Box_ConvexHulls","primitives":[{"attributes":{"NORMAL":27,"POSITION":26,"TEXCOORD_0":28,"TEXCOORD_1":29},"indices":25,"material":1,"mode":4}]}],"nodes":[{"children":[1,2,3,4,5],"name":"SM_Cereal_Box5","originalUnits":0.00999999977648258,"pivot":[0,0,0],"rotation":[0,0,0,1],"scale":[1,1,1],"translation":[0,0,0]},{"mesh":0,"name":"SM_Cereal_Box_LOD0","originalUnits":0.00999999977648258,"pivot":[0,0,0],"rotation":[0,0,0,1],"scale":[1,1,1],"translation":[0,0,0]},{"mesh":4,"name":"SM_Cereal_Box_ConvexHulls","originalUnits":0.00999999977648258,"pivot":[0,0,0],"rotation":[0,0,0,1],"scale":[1,1,1],"translation":[0,0,0]},{"mesh":1,"name":"SM_Cereal_Box_LOD1","originalUnits":0.00999999977648258,"pivot":[0,0,0],"rotation":[0,0,0,1],"scale":[1,1,1],"translation":[0,0,0]},{"mesh":2,"name":"SM_Cereal_Box_LOD2","originalUnits":0.00999999977648258,"pivot":[0,0,0],"rotation":[0,0,0,1],"scale":[1,1,1],"translation":[0,0,0]},{"mesh":3,"name":"SM_Cereal_Box_LOD3","originalUnits":0.00999999977648258,"pivot":[0,0,0],"rotation":[0,0,0,1],"scale":[1,1,1],"translation":[0,0,0]}],"samplers":[{}],"scene":0,"scenes":[{"name":"Root Scene","nodes":[0]}],"textures":[{"name":"T_Default_N","sampler":0,"source":0}]}