{"accessors":[{"bufferView":0,"byteOffset":0,"componentType":5126,"count":1,"max":[0],"min":[0],"type":"SCALAR"},{"bufferView":1,"byteOffset":0,"componentType":5123,"count":4800,"type":"SCALAR"},{"bufferView":2,"byteOffset":0,"componentType":5126,"count":1086,"max":[1.42133927345276,0.0364680550992489,0.0364680252969265],"min":[-1.42133927345276,-0.03646805509925,-0.03646802902222],"type":"VEC3"},{"bufferView":3,"byteOffset":0,"componentType":5126,"count":1086,"type":"VEC3"},{"bufferView":4,"byteOffset":0,"componentType":5126,"count":1086,"type":"VEC4"},{"bufferView":5,"byteOffset":0,"componentType":5126,"count":1086,"type":"VEC2"},{"bufferView":6,"byteOffset":0,"componentType":5126,"count":1086,"type":"VEC2"},{"bufferView":7,"byteOffset":0,"componentType":5123,"count":3600,"type":"SCALAR"},{"bufferView":8,"byteOffset":0,"componentType":5126,"count":886,"max":[1.42133927345276,0.0364680550992489,0.0364680252969265],"min":[-1.42133927345276,-0.03646805509925,-0.03646802902222],"type":"VEC3"},{"bufferView":9,"byteOffset":0,"componentType":5126,"count":886,"type":"VEC3"},{"bufferView":10,"byteOffset":0,"componentType":5126,"count":886,"type":"VEC4"},{"bufferView":11,"byteOffset":0,"componentType":5126,"count":886,"type":"VEC2"},{"bufferView":12,"byteOffset":0,"componentType":5126,"count":886,"type":"VEC2"},{"bufferView":13,"byteOffset":0,"componentType":5123,"count":2400,"type":"SCALAR"},{"bufferView":14,"byteOffset":0,"componentType":5126,"count":646,"max":[1.42122077941895,0.0364680550992489,0.0364680252969265],"min":[-1.42122340202332,-0.03646805509925,-0.03646802902222],"type":"VEC3"},{"bufferView":15,"byteOffset":0,"componentType":5126,"count":646,"type":"VEC3"},{"bufferView":16,"byteOffset":0,"componentType":5126,"count":646,"type":"VEC4"},{"bufferView":17,"byteOffset":0,"componentType":5126,"count":646,"type":"VEC2"},{"bufferView":18,"byteOffset":0,"componentType":5126,"count":646,"type":"VEC2"},{"bufferView":19,"byteOffset":0,"componentType":5123,"count":1200,"type":"SCALAR"},{"bufferView":20,"byteOffset":0,"componentType":5126,"count":409,"max":[1.42286491394043,0.0373586155474186,0.036529429256916],"min":[-1.42290854454041,-0.03758604824543,-0.03686570748687],"type":"VEC3"},{"bufferView":21,"byteOffset":0,"componentType":5126,"count":409,"type":"VEC3"},{"bufferView":22,"byteOffset":0,"componentType":5126,"count":409,"type":"VEC4"},{"bufferView":23,"byteOffset":0,"componentType":5126,"count":409,"type":"VEC2"},{"bufferView":24,"byteOffset":0,"componentType":5126,"count":409,"type":"VEC2"},{"bufferView":25,"byteOffset":0,"componentType":5123,"count":276,"type":"SCALAR"},{"bufferView":26,"byteOffset":0,"componentType":5126,"count":224,"max":[1.41465699672699,0.0357257090508938,0.0355627872049809],"min":[-1.41863965988159,-0.03395967930555,-0.03374307230115],"type":"VEC3"},{"bufferView":27,"byteOffset":0,"componentType":5126,"count":224,"type":"VEC3"},{"bufferView":28,"byteOffset":0,"componentType":5126,"count":224,"type":"VEC2"},{"bufferView":29,"byteOffset":0,"componentType":5126,"count":224,"type":"VEC2"}],"animations":[{"channels":[],"name":"Unreal Take","samplers":[]}],"asset":{"generator":"FBX2glTF v0.13.0","version":"2.0"},"bufferViews":[{"buffer":0,"byteLength":4,"byteOffset":0},{"buffer":0,"byteLength":9600,"byteOffset":4,"target":34963},{"buffer":0,"byteLength":13032,"byteOffset":9604,"target":34962},{"buffer":0,"byteLength":13032,"byteOffset":22636,"target":34962},{"buffer":0,"byteLength":17376,"byteOffset":35668,"target":34962},{"buffer":0,"byteLength":8688,"byteOffset":53044,"target":34962},{"buffer":0,"byteLength":8688,"byteOffset":61732,"target":34962},{"buffer":0,"byteLength":7200,"byteOffset":70420,"target":34963},{"buffer":0,"byteLength":10632,"byteOffset":77620,"target":34962},{"buffer":0,"byteLength":10632,"byteOffset":88252,"target":34962},{"buffer":0,"byteLength":14176,"byteOffset":98884,"target":34962},{"buffer":0,"byteLength":7088,"byteOffset":113060,"target":34962},{"buffer":0,"byteLength":7088,"byteOffset":120148,"target":34962},{"buffer":0,"byteLength":4800,"byteOffset":127236,"target":34963},{"buffer":0,"byteLength":7752,"byteOffset":132036,"target":34962},{"buffer":0,"byteLength":7752,"byteOffset":139788,"target":34962},{"buffer":0,"byteLength":10336,"byteOffset":147540,"target":34962},{"buffer":0,"byteLength":5168,"byteOffset":157876,"target":34962},{"buffer":0,"byteLength":5168,"byteOffset":163044,"target":34962},{"buffer":0,"byteLength":2400,"byteOffset":168212,"target":34963},{"buffer":0,"byteLength":4908,"byteOffset":170612,"target":34962},{"buffer":0,"byteLength":4908,"byteOffset":175520,"target":34962},{"buffer":0,"byteLength":6544,"byteOffset":180428,"target":34962},{"buffer":0,"byteLength":3272,"byteOffset":186972,"target":34962},{"buffer":0,"byteLength":3272,"byteOffset":190244,"target":34962},{"buffer":0,"byteLength":552,"byteOffset":193516,"target":34963},{"buffer":0,"byteLength":2688,"byteOffset":194068,"target":34962},{"buffer":0,"byteLength":2688,"byteOffset":196756,"target":34962},{"buffer":0,"byteLength":1792,"byteOffset":199444,"target":34962},{"buffer":0,"byteLength":1792,"byteOffset":201236,"target":34962}],"buffers":[{"byteLength":203028,"uri":"SM_Curtain_Rod.bin"}],"materials":[{"alphaMode":"OPAQUE","doubleSided":false,"extras":{"fromFBX":{"isTruePBR":false,"shadingModel":"Phong"}},"name":"MM_Metal_Can_A","pbrMetallicRoughness":{"baseColorFactor":[0,0,0,1],"metallicFactor":0.400000005960464,"roughnessFactor":0.301511347293854}},{"alphaMode":"OPAQUE","doubleSided":false,"extras":{"fromFBX":{"isTruePBR":false,"shadingModel":"Lambert"}},"name":"DefaultMaterial","pbrMetallicRoughness":{"baseColorFactor":[0.5,0.5,0.5,1],"metallicFactor":0.200000002980232,"roughnessFactor":0.800000011920929}}],"meshes":[{"name":"SM_Curtain_Rod_LOD0","primitives":[{"attributes":{"NORMAL":3,"POSITION":2,"TANGENT":4,"TEXCOORD_0":5,"TEXCOORD_1":6},"indices":1,"material":0,"mode":4}]},{"name":"SM_Curtain_Rod_LOD1","primitives":[{"attributes":{"NORMAL":9,"POSITION":8,"TANGENT":10,"TEXCOORD_0":11,"TEXCOORD_1":12},"indices":7,"material":0,"mode":4}]},{"name":"SM_Curtain_Rod_LOD2","primitives":[{"attributes":{"NORMAL":15,"POSITION":14,"TANGENT":16,"TEXCOORD_0":17,"TEXCOORD_1":18},"indices":13,"material":0,"mode":4}]},{"name":"SM_Curtain_Rod_LOD3","primitives":[{"attributes":{"NORMAL":21,"POSITION":20,"TANGENT":22,"TEXCOORD_0":23,"TEXCOORD_1":24},"indices":19,"material":0,"mode":4}]},{"name":"SM_Curtain_Rod_ConvexHulls","primitives":[{"attributes":{"NORMAL":27,"POSITION":26,"TEXCOORD_0":28,"TEXCOORD_1":29},"indices":25,"material":1,"mode":4}]}],"nodes":[{"children":[1,2,3,4,5],"name":"Curtain_Rod2","originalUnits":0.00999999977648258,"pivot":[0,0,0],"rotation":[0,0,0,1],"scale":[1,1,1],"translation":[0,0,0]},{"mesh":0,"name":"SM_Curtain_Rod_LOD0","originalUnits":0.00999999977648258,"pivot":[0,0,0],"rotation":[0,0,0,1],"scale":[1,1,1],"translation":[0,0,0]},{"mesh":4,"name":"SM_Curtain_Rod_ConvexHulls","originalUnits":0.00999999977648258,"pivot":[0,0,0],"rotation":[0,0,0,1],"scale":[1,1,1],"translation":[0,0,0]},{"mesh":1,"name":"SM_Curtain_Rod_LOD1","originalUnits":0.00999999977648258,"pivot":[0,0,0],"rotation":[0,0,0,1],"scale":[1,1,1],"translation":[0,0,0]},{"mesh":2,"name":"SM_Curtain_Rod_LOD2","originalUnits":0.00999999977648258,"pivot":[0,0,0],"rotation":[0,0,0,1],"scale":[1,1,1],"translation":[0,0,0]},{"mesh":3,"name":"SM_Curtain_Rod_LOD3","originalUnits":0.00999999977648258,"pivot":[0,0,0],"rotation":[0,0,0,1],"scale":[1,1,1],"translation":[0,0,0]}],"samplers":[{}],"scene":0,"scenes":[{"name":"Root Scene","nodes":[0]}]}