{"accessors":[{"bufferView":0,"byteOffset":0,"componentType":5126,"count":1,"max":[0],"min":[0],"type":"SCALAR"},{"bufferView":1,"byteOffset":0,"componentType":5123,"count":420,"type":"SCALAR"},{"bufferView":2,"byteOffset":0,"componentType":5126,"count":100,"max":[1.12494885921478,0.0273924861103296,1.12494850158691],"min":[-1.12494850158691,0.00000259675084635091,-1.12494885921478],"type":"VEC3"},{"bufferView":3,"byteOffset":0,"componentType":5126,"count":100,"type":"VEC3"},{"bufferView":4,"byteOffset":0,"componentType":5126,"count":100,"type":"VEC4"},{"bufferView":5,"byteOffset":0,"componentType":5126,"count":100,"type":"VEC2"},{"bufferView":6,"byteOffset":0,"componentType":5126,"count":100,"type":"VEC2"},{"bufferView":7,"byteOffset":0,"componentType":5123,"count":312,"type":"SCALAR"},{"bufferView":8,"byteOffset":0,"componentType":5126,"count":82,"max":[1.12494885921478,0.0276300068944693,1.12494850158691],"min":[-1.12494850158691,0.00000259675084635091,-1.12494885921478],"type":"VEC3"},{"bufferView":9,"byteOffset":0,"componentType":5126,"count":82,"type":"VEC3"},{"bufferView":10,"byteOffset":0,"componentType":5126,"count":82,"type":"VEC4"},{"bufferView":11,"byteOffset":0,"componentType":5126,"count":82,"type":"VEC2"},{"bufferView":12,"byteOffset":0,"componentType":5126,"count":82,"type":"VEC2"},{"bufferView":13,"byteOffset":0,"componentType":5123,"count":207,"type":"SCALAR"},{"bufferView":14,"byteOffset":0,"componentType":5126,"count":76,"max":[1.14287662506104,0.0276300068944693,1.12494850158691],"min":[-1.13981068134308,-0.02852705866098,-1.12728083133698],"type":"VEC3"},{"bufferView":15,"byteOffset":0,"componentType":5126,"count":76,"type":"VEC3"},{"bufferView":16,"byteOffset":0,"componentType":5126,"count":76,"type":"VEC4"},{"bufferView":17,"byteOffset":0,"componentType":5126,"count":76,"type":"VEC2"},{"bufferView":18,"byteOffset":0,"componentType":5126,"count":76,"type":"VEC2"},{"bufferView":19,"byteOffset":0,"componentType":5123,"count":102,"type":"SCALAR"},{"bufferView":20,"byteOffset":0,"componentType":5126,"count":53,"max":[1.15233480930328,0.0370403788983822,1.15061736106873],"min":[-1.13981068134308,-0.02852705866098,-1.16191053390503],"type":"VEC3"},{"bufferView":21,"byteOffset":0,"componentType":5126,"count":53,"type":"VEC3"},{"bufferView":22,"byteOffset":0,"componentType":5126,"count":53,"type":"VEC4"},{"bufferView":23,"byteOffset":0,"componentType":5126,"count":53,"type":"VEC2"},{"bufferView":24,"byteOffset":0,"componentType":5126,"count":53,"type":"VEC2"},{"bufferView":25,"byteOffset":0,"componentType":5123,"count":270,"type":"SCALAR"},{"bufferView":26,"byteOffset":0,"componentType":5126,"count":218,"max":[1.11823725700378,0.032896101474762,1.13152742385864],"min":[-1.13152706623077,-0.00657605100423,-1.13149154186249],"type":"VEC3"},{"bufferView":27,"byteOffset":0,"componentType":5126,"count":218,"type":"VEC3"},{"bufferView":28,"byteOffset":0,"componentType":5126,"count":218,"type":"VEC2"},{"bufferView":29,"byteOffset":0,"componentType":5126,"count":218,"type":"VEC2"}],"animations":[{"channels":[],"name":"Unreal Take","samplers":[]}],"asset":{"generator":"FBX2glTF v0.13.0","version":"2.0"},"bufferViews":[{"buffer":0,"byteLength":4,"byteOffset":0},{"buffer":0,"byteLength":840,"byteOffset":4,"target":34963},{"buffer":0,"byteLength":1200,"byteOffset":844,"target":34962},{"buffer":0,"byteLength":1200,"byteOffset":2044,"target":34962},{"buffer":0,"byteLength":1600,"byteOffset":3244,"target":34962},{"buffer":0,"byteLength":800,"byteOffset":4844,"target":34962},{"buffer":0,"byteLength":800,"byteOffset":5644,"target":34962},{"buffer":0,"byteLength":624,"byteOffset":6444,"target":34963},{"buffer":0,"byteLength":984,"byteOffset":7068,"target":34962},{"buffer":0,"byteLength":984,"byteOffset":8052,"target":34962},{"buffer":0,"byteLength":1312,"byteOffset":9036,"target":34962},{"buffer":0,"byteLength":656,"byteOffset":10348,"target":34962},{"buffer":0,"byteLength":656,"byteOffset":11004,"target":34962},{"buffer":0,"byteLength":414,"byteOffset":11660,"target":34963},{"buffer":0,"byteLength":912,"byteOffset":12076,"target":34962},{"buffer":0,"byteLength":912,"byteOffset":12988,"target":34962},{"buffer":0,"byteLength":1216,"byteOffset":13900,"target":34962},{"buffer":0,"byteLength":608,"byteOffset":15116,"target":34962},{"buffer":0,"byteLength":608,"byteOffset":15724,"target":34962},{"buffer":0,"byteLength":204,"byteOffset":16332,"target":34963},{"buffer":0,"byteLength":636,"byteOffset":16536,"target":34962},{"buffer":0,"byteLength":636,"byteOffset":17172,"target":34962},{"buffer":0,"byteLength":848,"byteOffset":17808,"target":34962},{"buffer":0,"byteLength":424,"byteOffset":18656,"target":34962},{"buffer":0,"byteLength":424,"byteOffset":19080,"target":34962},{"buffer":0,"byteLength":540,"byteOffset":19504,"target":34963},{"buffer":0,"byteLength":2616,"byteOffset":20044,"target":34962},{"buffer":0,"byteLength":2616,"byteOffset":22660,"target":34962},{"buffer":0,"byteLength":1744,"byteOffset":25276,"target":34962},{"buffer":0,"byteLength":1744,"byteOffset":27020,"target":34962}],"buffers":[{"byteLength":28764,"uri":"SM_Carpet_01.bin"}],"images":[{"name":"T_Carpet_05_N","uri":"T_Carpet_05_N.tga"}],"materials":[{"alphaMode":"OPAQUE","doubleSided":false,"extras":{"fromFBX":{"isTruePBR":false,"shadingModel":"Phong"}},"name":"MI_Carpet","normalTexture":{"index":0,"texCoord":0},"pbrMetallicRoughness":{"baseColorFactor":[0.21586050093174,0.21586050093174,0.21586050093174,1],"metallicFactor":0.400000005960464,"roughnessFactor":0.301511347293854}},{"alphaMode":"OPAQUE","doubleSided":false,"extras":{"fromFBX":{"isTruePBR":false,"shadingModel":"Lambert"}},"name":"DefaultMaterial","pbrMetallicRoughness":{"baseColorFactor":[0.5,0.5,0.5,1],"metallicFactor":0.200000002980232,"roughnessFactor":0.800000011920929}}],"meshes":[{"name":"SM_Carpet_01_LOD0","primitives":[{"attributes":{"NORMAL":3,"POSITION":2,"TANGENT":4,"TEXCOORD_0":5,"TEXCOORD_1":6},"indices":1,"material":0,"mode":4}]},{"name":"SM_Carpet_01_LOD1","primitives":[{"attributes":{"NORMAL":9,"POSITION":8,"TANGENT":10,"TEXCOORD_0":11,"TEXCOORD_1":12},"indices":7,"material":0,"mode":4}]},{"name":"SM_Carpet_01_LOD2","primitives":[{"attributes":{"NORMAL":15,"POSITION":14,"TANGENT":16,"TEXCOORD_0":17,"TEXCOORD_1":18},"indices":13,"material":0,"mode":4}]},{"name":"SM_Carpet_01_LOD3","primitives":[{"attributes":{"NORMAL":21,"POSITION":20,"TANGENT":22,"TEXCOORD_0":23,"TEXCOORD_1":24},"indices":19,"material":0,"mode":4}]},{"name":"SM_Carpet_01_ConvexHulls","primitives":[{"attributes":{"NORMAL":27,"POSITION":26,"TEXCOORD_0":28,"TEXCOORD_1":29},"indices":25,"material":1,"mode":4}]}],"nodes":[{"children":[1,2,3,4,5],"name":"SM_Carpet_02_21","originalUnits":0.00999999977648258,"pivot":[0,0,0],"rotation":[0,0,0,1],"scale":[1,1,1],"translation":[0,0,0]},{"mesh":0,"name":"SM_Carpet_01_LOD0","originalUnits":0.00999999977648258,"pivot":[0,0,0],"rotation":[0,0,0,1],"scale":[1,1,1],"translation":[0,0,0]},{"mesh":4,"name":"SM_Carpet_01_ConvexHulls","originalUnits":0.00999999977648258,"pivot":[0,0,0],"rotation":[0,0,0,1],"scale":[1,1,1],"translation":[0,0,0]},{"mesh":1,"name":"SM_Carpet_01_LOD1","originalUnits":0.00999999977648258,"pivot":[0,0,0],"rotation":[0,0,0,1],"scale":[1,1,1],"translation":[0,0,0]},{"mesh":2,"name":"SM_Carpet_01_LOD2","originalUnits":0.00999999977648258,"pivot":[0,0,0],"rotation":[0,0,0,1],"scale":[1,1,1],"translation":[0,0,0]},{"mesh":3,"name":"SM_Carpet_01_LOD3","originalUnits":0.00999999977648258,"pivot":[0,0,0],"rotation":[0,0,0,1],"scale":[1,1,1],"translation":[0,0,0]}],"samplers":[{}],"scene":0,"scenes":[{"name":"Root Scene","nodes":[0]}],"textures":[{"name":"T_Carpet_N","sampler":0,"source":0}]}