{"accessors":[{"bufferView":0,"byteOffset":0,"componentType":5126,"count":1,"max":[0],"min":[0],"type":"SCALAR"},{"bufferView":1,"byteOffset":0,"componentType":5123,"count":6438,"type":"SCALAR"},{"bufferView":2,"byteOffset":0,"componentType":5126,"count":1171,"max":[0.480904668569565,0.35009092092514,0.0370899625122547],"min":[-0.48090472817421,-0.35009089112282,-0.03709004446864],"type":"VEC3"},{"bufferView":3,"byteOffset":0,"componentType":5126,"count":1171,"type":"VEC3"},{"bufferView":4,"byteOffset":0,"componentType":5126,"count":1171,"type":"VEC4"},{"bufferView":5,"byteOffset":0,"componentType":5126,"count":1171,"type":"VEC2"},{"bufferView":6,"byteOffset":0,"componentType":5126,"count":1171,"type":"VEC2"},{"bufferView":7,"byteOffset":0,"componentType":5123,"count":4830,"type":"SCALAR"},{"bufferView":8,"byteOffset":0,"componentType":5126,"count":861,"max":[0.480975240468979,0.350066930055618,0.0360995978116989],"min":[-0.48090472817421,-0.35026857256889,-0.03709004446864],"type":"VEC3"},{"bufferView":9,"byteOffset":0,"componentType":5126,"count":861,"type":"VEC3"},{"bufferView":10,"byteOffset":0,"componentType":5126,"count":861,"type":"VEC4"},{"bufferView":11,"byteOffset":0,"componentType":5126,"count":861,"type":"VEC2"},{"bufferView":12,"byteOffset":0,"componentType":5126,"count":861,"type":"VEC2"},{"bufferView":13,"byteOffset":0,"componentType":5123,"count":3216,"type":"SCALAR"},{"bufferView":14,"byteOffset":0,"componentType":5126,"count":576,"max":[0.480975240468979,0.350069612264633,0.0362635590136051],"min":[-0.48090472817421,-0.35026857256889,-0.03714491426945],"type":"VEC3"},{"bufferView":15,"byteOffset":0,"componentType":5126,"count":576,"type":"VEC3"},{"bufferView":16,"byteOffset":0,"componentType":5126,"count":576,"type":"VEC4"},{"bufferView":17,"byteOffset":0,"componentType":5126,"count":576,"type":"VEC2"},{"bufferView":18,"byteOffset":0,"componentType":5126,"count":576,"type":"VEC2"},{"bufferView":19,"byteOffset":0,"componentType":5123,"count":1608,"type":"SCALAR"},{"bufferView":20,"byteOffset":0,"componentType":5126,"count":298,"max":[0.480975240468979,0.350069612264633,0.0362635590136051],"min":[-0.48090472817421,-0.35009098052978,-0.03798282146454],"type":"VEC3"},{"bufferView":21,"byteOffset":0,"componentType":5126,"count":298,"type":"VEC3"},{"bufferView":22,"byteOffset":0,"componentType":5126,"count":298,"type":"VEC4"},{"bufferView":23,"byteOffset":0,"componentType":5126,"count":298,"type":"VEC2"},{"bufferView":24,"byteOffset":0,"componentType":5126,"count":298,"type":"VEC2"},{"bufferView":25,"byteOffset":0,"componentType":5123,"count":330,"type":"SCALAR"},{"bufferView":26,"byteOffset":0,"componentType":5126,"count":300,"max":[0.485619336366653,0.354982554912567,0.0415739379823208],"min":[-0.47671699523926,-0.35169345140457,-0.04250197857618],"type":"VEC3"},{"bufferView":27,"byteOffset":0,"componentType":5126,"count":300,"type":"VEC3"},{"bufferView":28,"byteOffset":0,"componentType":5126,"count":300,"type":"VEC2"},{"bufferView":29,"byteOffset":0,"componentType":5126,"count":300,"type":"VEC2"}],"animations":[{"channels":[],"name":"Unreal Take","samplers":[]}],"asset":{"generator":"FBX2glTF v0.13.0","version":"2.0"},"bufferViews":[{"buffer":0,"byteLength":4,"byteOffset":0},{"buffer":0,"byteLength":12876,"byteOffset":4,"target":34963},{"buffer":0,"byteLength":14052,"byteOffset":12880,"target":34962},{"buffer":0,"byteLength":14052,"byteOffset":26932,"target":34962},{"buffer":0,"byteLength":18736,"byteOffset":40984,"target":34962},{"buffer":0,"byteLength":9368,"byteOffset":59720,"target":34962},{"buffer":0,"byteLength":9368,"byteOffset":69088,"target":34962},{"buffer":0,"byteLength":9660,"byteOffset":78456,"target":34963},{"buffer":0,"byteLength":10332,"byteOffset":88116,"target":34962},{"buffer":0,"byteLength":10332,"byteOffset":98448,"target":34962},{"buffer":0,"byteLength":13776,"byteOffset":108780,"target":34962},{"buffer":0,"byteLength":6888,"byteOffset":122556,"target":34962},{"buffer":0,"byteLength":6888,"byteOffset":129444,"target":34962},{"buffer":0,"byteLength":6432,"byteOffset":136332,"target":34963},{"buffer":0,"byteLength":6912,"byteOffset":142764,"target":34962},{"buffer":0,"byteLength":6912,"byteOffset":149676,"target":34962},{"buffer":0,"byteLength":9216,"byteOffset":156588,"target":34962},{"buffer":0,"byteLength":4608,"byteOffset":165804,"target":34962},{"buffer":0,"byteLength":4608,"byteOffset":170412,"target":34962},{"buffer":0,"byteLength":3216,"byteOffset":175020,"target":34963},{"buffer":0,"byteLength":3576,"byteOffset":178236,"target":34962},{"buffer":0,"byteLength":3576,"byteOffset":181812,"target":34962},{"buffer":0,"byteLength":4768,"byteOffset":185388,"target":34962},{"buffer":0,"byteLength":2384,"byteOffset":190156,"target":34962},{"buffer":0,"byteLength":2384,"byteOffset":192540,"target":34962},{"buffer":0,"byteLength":660,"byteOffset":194924,"target":34963},{"buffer":0,"byteLength":3600,"byteOffset":195584,"target":34962},{"buffer":0,"byteLength":3600,"byteOffset":199184,"target":34962},{"buffer":0,"byteLength":2400,"byteOffset":202784,"target":34962},{"buffer":0,"byteLength":2400,"byteOffset":205184,"target":34962}],"buffers":[{"byteLength":207584,"uri":"SM_Curtain_A.bin"}],"images":[{"name":"Detail_Normal_01","uri":"Detail_Normal_01.tga"}],"materials":[{"alphaMode":"OPAQUE","doubleSided":false,"extras":{"fromFBX":{"isTruePBR":false,"shadingModel":"Phong"}},"name":"MI_Curtain_Towels","normalTexture":{"index":0,"texCoord":0},"pbrMetallicRoughness":{"baseColorFactor":[0.21586050093174,0.21586050093174,0.21586050093174,1],"metallicFactor":0.400000005960464,"roughnessFactor":0.301511347293854}},{"alphaMode":"OPAQUE","doubleSided":false,"extras":{"fromFBX":{"isTruePBR":false,"shadingModel":"Lambert"}},"name":"DefaultMaterial","pbrMetallicRoughness":{"baseColorFactor":[0.5,0.5,0.5,1],"metallicFactor":0.200000002980232,"roughnessFactor":0.800000011920929}}],"meshes":[{"name":"SM_Curtain_A_LOD0","primitives":[{"attributes":{"NORMAL":3,"POSITION":2,"TANGENT":4,"TEXCOORD_0":5,"TEXCOORD_1":6},"indices":1,"material":0,"mode":4}]},{"name":"SM_Curtain_A_LOD1","primitives":[{"attributes":{"NORMAL":9,"POSITION":8,"TANGENT":10,"TEXCOORD_0":11,"TEXCOORD_1":12},"indices":7,"material":0,"mode":4}]},{"name":"SM_Curtain_A_LOD2","primitives":[{"attributes":{"NORMAL":15,"POSITION":14,"TANGENT":16,"TEXCOORD_0":17,"TEXCOORD_1":18},"indices":13,"material":0,"mode":4}]},{"name":"SM_Curtain_A_LOD3","primitives":[{"attributes":{"NORMAL":21,"POSITION":20,"TANGENT":22,"TEXCOORD_0":23,"TEXCOORD_1":24},"indices":19,"material":0,"mode":4}]},{"name":"SM_Curtain_A_ConvexHulls","primitives":[{"attributes":{"NORMAL":27,"POSITION":26,"TEXCOORD_0":28,"TEXCOORD_1":29},"indices":25,"material":1,"mode":4}]}],"nodes":[{"children":[1,2,3,4,5],"name":"Curtain_Towels_Curtain_A_7","originalUnits":0.00999999977648258,"pivot":[0,0,0],"rotation":[0,0,0,1],"scale":[1,1,1],"translation":[0,0,0]},{"mesh":0,"name":"SM_Curtain_A_LOD0","originalUnits":0.00999999977648258,"pivot":[0,0,0],"rotation":[0,0,0,1],"scale":[1,1,1],"translation":[0,0,0]},{"mesh":4,"name":"SM_Curtain_A_ConvexHulls","originalUnits":0.00999999977648258,"pivot":[0,0,0],"rotation":[0,0,0,1],"scale":[1,1,1],"translation":[0,0,0]},{"mesh":1,"name":"SM_Curtain_A_LOD1","originalUnits":0.00999999977648258,"pivot":[0,0,0],"rotation":[0,0,0,1],"scale":[1,1,1],"translation":[0,0,0]},{"mesh":2,"name":"SM_Curtain_A_LOD2","originalUnits":0.00999999977648258,"pivot":[0,0,0],"rotation":[0,0,0,1],"scale":[1,1,1],"translation":[0,0,0]},{"mesh":3,"name":"SM_Curtain_A_LOD3","originalUnits":0.00999999977648258,"pivot":[0,0,0],"rotation":[0,0,0,1],"scale":[1,1,1],"translation":[0,0,0]}],"samplers":[{}],"scene":0,"scenes":[{"name":"Root Scene","nodes":[0]}],"textures":[{"name":"T_Detail01_N","sampler":0,"source":0}]}