{"accessors":[{"bufferView":0,"byteOffset":0,"componentType":5126,"count":1,"max":[0],"min":[0],"type":"SCALAR"},{"bufferView":1,"byteOffset":0,"componentType":5123,"count":26592,"type":"SCALAR"},{"bufferView":2,"byteOffset":0,"componentType":5126,"count":5439,"max":[0.180464580655098,0.0150032639503479,0.256479859352112],"min":[-0.1804645806551,-0.01500328723341,-0.25647988915443],"type":"VEC3"},{"bufferView":3,"byteOffset":0,"componentType":5126,"count":5439,"type":"VEC3"},{"bufferView":4,"byteOffset":0,"componentType":5126,"count":5439,"type":"VEC4"},{"bufferView":5,"byteOffset":0,"componentType":5126,"count":5439,"type":"VEC2"},{"bufferView":6,"byteOffset":0,"componentType":5126,"count":5439,"type":"VEC2"},{"bufferView":7,"byteOffset":0,"componentType":5123,"count":19944,"type":"SCALAR"},{"bufferView":8,"byteOffset":0,"componentType":5126,"count":4286,"max":[0.180464580655098,0.0149867413565516,0.256479859352112],"min":[-0.1804645806551,-0.01499909348786,-0.256471991539],"type":"VEC3"},{"bufferView":9,"byteOffset":0,"componentType":5126,"count":4286,"type":"VEC3"},{"bufferView":10,"byteOffset":0,"componentType":5126,"count":4286,"type":"VEC4"},{"bufferView":11,"byteOffset":0,"componentType":5126,"count":4286,"type":"VEC2"},{"bufferView":12,"byteOffset":0,"componentType":5126,"count":4286,"type":"VEC2"},{"bufferView":13,"byteOffset":0,"componentType":5123,"count":13296,"type":"SCALAR"},{"bufferView":14,"byteOffset":0,"componentType":5126,"count":2922,"max":[0.180464580655098,0.0149783715605736,0.256479859352112],"min":[-0.18049323558807,-0.01500727143139,-0.25646418333054],"type":"VEC3"},{"bufferView":15,"byteOffset":0,"componentType":5126,"count":2922,"type":"VEC3"},{"bufferView":16,"byteOffset":0,"componentType":5126,"count":2922,"type":"VEC4"},{"bufferView":17,"byteOffset":0,"componentType":5126,"count":2922,"type":"VEC2"},{"bufferView":18,"byteOffset":0,"componentType":5126,"count":2922,"type":"VEC2"},{"bufferView":19,"byteOffset":0,"componentType":5123,"count":6648,"type":"SCALAR"},{"bufferView":20,"byteOffset":0,"componentType":5126,"count":1522,"max":[0.180510386824608,0.0149783715605736,0.256479859352112],"min":[-0.18060846626759,-0.01504477579147,-0.25646153092384],"type":"VEC3"},{"bufferView":21,"byteOffset":0,"componentType":5126,"count":1522,"type":"VEC3"},{"bufferView":22,"byteOffset":0,"componentType":5126,"count":1522,"type":"VEC4"},{"bufferView":23,"byteOffset":0,"componentType":5126,"count":1522,"type":"VEC2"},{"bufferView":24,"byteOffset":0,"componentType":5126,"count":1522,"type":"VEC2"},{"bufferView":25,"byteOffset":0,"componentType":5123,"count":84,"type":"SCALAR"},{"bufferView":26,"byteOffset":0,"componentType":5126,"count":68,"max":[0.183198824524879,0.0185509566217661,0.260070234537125],"min":[-0.1833870112896,-0.01726607233286,-0.25958460569382],"type":"VEC3"},{"bufferView":27,"byteOffset":0,"componentType":5126,"count":68,"type":"VEC3"},{"bufferView":28,"byteOffset":0,"componentType":5126,"count":68,"type":"VEC2"},{"bufferView":29,"byteOffset":0,"componentType":5126,"count":68,"type":"VEC2"}],"animations":[{"channels":[],"name":"Unreal Take","samplers":[]}],"asset":{"generator":"FBX2glTF v0.13.0","version":"2.0"},"bufferViews":[{"buffer":0,"byteLength":4,"byteOffset":0},{"buffer":0,"byteLength":53184,"byteOffset":4,"target":34963},{"buffer":0,"byteLength":65268,"byteOffset":53188,"target":34962},{"buffer":0,"byteLength":65268,"byteOffset":118456,"target":34962},{"buffer":0,"byteLength":87024,"byteOffset":183724,"target":34962},{"buffer":0,"byteLength":43512,"byteOffset":270748,"target":34962},{"buffer":0,"byteLength":43512,"byteOffset":314260,"target":34962},{"buffer":0,"byteLength":39888,"byteOffset":357772,"target":34963},{"buffer":0,"byteLength":51432,"byteOffset":397660,"target":34962},{"buffer":0,"byteLength":51432,"byteOffset":449092,"target":34962},{"buffer":0,"byteLength":68576,"byteOffset":500524,"target":34962},{"buffer":0,"byteLength":34288,"byteOffset":569100,"target":34962},{"buffer":0,"byteLength":34288,"byteOffset":603388,"target":34962},{"buffer":0,"byteLength":26592,"byteOffset":637676,"target":34963},{"buffer":0,"byteLength":35064,"byteOffset":664268,"target":34962},{"buffer":0,"byteLength":35064,"byteOffset":699332,"target":34962},{"buffer":0,"byteLength":46752,"byteOffset":734396,"target":34962},{"buffer":0,"byteLength":23376,"byteOffset":781148,"target":34962},{"buffer":0,"byteLength":23376,"byteOffset":804524,"target":34962},{"buffer":0,"byteLength":13296,"byteOffset":827900,"target":34963},{"buffer":0,"byteLength":18264,"byteOffset":841196,"target":34962},{"buffer":0,"byteLength":18264,"byteOffset":859460,"target":34962},{"buffer":0,"byteLength":24352,"byteOffset":877724,"target":34962},{"buffer":0,"byteLength":12176,"byteOffset":902076,"target":34962},{"buffer":0,"byteLength":12176,"byteOffset":914252,"target":34962},{"buffer":0,"byteLength":168,"byteOffset":926428,"target":34963},{"buffer":0,"byteLength":816,"byteOffset":926596,"target":34962},{"buffer":0,"byteLength":816,"byteOffset":927412,"target":34962},{"buffer":0,"byteLength":544,"byteOffset":928228,"target":34962},{"buffer":0,"byteLength":544,"byteOffset":928772,"target":34962}],"buffers":[{"byteLength":929316,"uri":"SM_Cutting_Board.bin"}],"images":[{"name":"FlatNormal","uri":"FlatNormal.tga"}],"materials":[{"alphaMode":"OPAQUE","doubleSided":false,"extras":{"fromFBX":{"isTruePBR":false,"shadingModel":"Phong"}},"name":"MI_Cutting_board","normalTexture":{"index":0,"texCoord":0},"pbrMetallicRoughness":{"baseColorFactor":[0.21586050093174,0.21586050093174,0.21586050093174,1],"metallicFactor":0.400000005960464,"roughnessFactor":0.301511347293854}},{"alphaMode":"OPAQUE","doubleSided":false,"extras":{"fromFBX":{"isTruePBR":false,"shadingModel":"Lambert"}},"name":"DefaultMaterial","pbrMetallicRoughness":{"baseColorFactor":[0.5,0.5,0.5,1],"metallicFactor":0.200000002980232,"roughnessFactor":0.800000011920929}}],"meshes":[{"name":"SM_Cutting_Board_LOD0","primitives":[{"attributes":{"NORMAL":3,"POSITION":2,"TANGENT":4,"TEXCOORD_0":5,"TEXCOORD_1":6},"indices":1,"material":0,"mode":4}]},{"name":"SM_Cutting_Board_LOD1","primitives":[{"attributes":{"NORMAL":9,"POSITION":8,"TANGENT":10,"TEXCOORD_0":11,"TEXCOORD_1":12},"indices":7,"material":0,"mode":4}]},{"name":"SM_Cutting_Board_LOD2","primitives":[{"attributes":{"NORMAL":15,"POSITION":14,"TANGENT":16,"TEXCOORD_0":17,"TEXCOORD_1":18},"indices":13,"material":0,"mode":4}]},{"name":"SM_Cutting_Board_LOD3","primitives":[{"attributes":{"NORMAL":21,"POSITION":20,"TANGENT":22,"TEXCOORD_0":23,"TEXCOORD_1":24},"indices":19,"material":0,"mode":4}]},{"name":"SM_Cutting_Board_ConvexHulls","primitives":[{"attributes":{"NORMAL":27,"POSITION":26,"TEXCOORD_0":28,"TEXCOORD_1":29},"indices":25,"material":1,"mode":4}]}],"nodes":[{"children":[1,2,3,4,5],"name":"Cutting_Board2_24","originalUnits":0.00999999977648258,"pivot":[0,0,0],"rotation":[0,0,0,1],"scale":[1,1,1],"translation":[0,0,0]},{"mesh":0,"name":"SM_Cutting_Board_LOD0","originalUnits":0.00999999977648258,"pivot":[0,0,0],"rotation":[0,0,0,1],"scale":[1,1,1],"translation":[0,0,0]},{"mesh":4,"name":"SM_Cutting_Board_ConvexHulls","originalUnits":0.00999999977648258,"pivot":[0,0,0],"rotation":[0,0,0,1],"scale":[1,1,1],"translation":[0,0,0]},{"mesh":1,"name":"SM_Cutting_Board_LOD1","originalUnits":0.00999999977648258,"pivot":[0,0,0],"rotation":[0,0,0,1],"scale":[1,1,1],"translation":[0,0,0]},{"mesh":2,"name":"SM_Cutting_Board_LOD2","originalUnits":0.00999999977648258,"pivot":[0,0,0],"rotation":[0,0,0,1],"scale":[1,1,1],"translation":[0,0,0]},{"mesh":3,"name":"SM_Cutting_Board_LOD3","originalUnits":0.00999999977648258,"pivot":[0,0,0],"rotation":[0,0,0,1],"scale":[1,1,1],"translation":[0,0,0]}],"samplers":[{}],"scene":0,"scenes":[{"name":"Root Scene","nodes":[0]}],"textures":[{"name":"T_Default_N","sampler":0,"source":0}]}