{"accessors":[{"bufferView":0,"byteOffset":0,"componentType":5126,"count":1,"max":[0],"min":[0],"type":"SCALAR"},{"bufferView":1,"byteOffset":0,"componentType":5123,"count":3108,"type":"SCALAR"},{"bufferView":2,"byteOffset":0,"componentType":5126,"count":566,"max":[0.0909082964062691,0.160457536578178,0.0244911070913076],"min":[-0.09090826660395,-0.16045747697353,-0.02449110895395],"type":"VEC3"},{"bufferView":3,"byteOffset":0,"componentType":5126,"count":566,"type":"VEC3"},{"bufferView":4,"byteOffset":0,"componentType":5126,"count":566,"type":"VEC4"},{"bufferView":5,"byteOffset":0,"componentType":5126,"count":566,"type":"VEC2"},{"bufferView":6,"byteOffset":0,"componentType":5126,"count":566,"type":"VEC2"},{"bufferView":7,"byteOffset":0,"componentType":5123,"count":2328,"type":"SCALAR"},{"bufferView":8,"byteOffset":0,"componentType":5126,"count":436,"max":[0.0909082964062691,0.160457536578178,0.0244911070913076],"min":[-0.09090826660395,-0.16054098308086,-0.02449110895395],"type":"VEC3"},{"bufferView":9,"byteOffset":0,"componentType":5126,"count":436,"type":"VEC3"},{"bufferView":10,"byteOffset":0,"componentType":5126,"count":436,"type":"VEC4"},{"bufferView":11,"byteOffset":0,"componentType":5126,"count":436,"type":"VEC2"},{"bufferView":12,"byteOffset":0,"componentType":5126,"count":436,"type":"VEC2"},{"bufferView":13,"byteOffset":0,"componentType":5123,"count":1554,"type":"SCALAR"},{"bufferView":14,"byteOffset":0,"componentType":5126,"count":306,"max":[0.0909082964062691,0.16036069393158,0.0250194538384676],"min":[-0.09090826660395,-0.16054098308086,-0.02449110895395],"type":"VEC3"},{"bufferView":15,"byteOffset":0,"componentType":5126,"count":306,"type":"VEC3"},{"bufferView":16,"byteOffset":0,"componentType":5126,"count":306,"type":"VEC4"},{"bufferView":17,"byteOffset":0,"componentType":5126,"count":306,"type":"VEC2"},{"bufferView":18,"byteOffset":0,"componentType":5126,"count":306,"type":"VEC2"},{"bufferView":19,"byteOffset":0,"componentType":5123,"count":774,"type":"SCALAR"},{"bufferView":20,"byteOffset":0,"componentType":5126,"count":160,"max":[0.0909409150481224,0.161089986562729,0.024907099083066],"min":[-0.09163754433393,-0.16140612959862,-0.02464377321303],"type":"VEC3"},{"bufferView":21,"byteOffset":0,"componentType":5126,"count":160,"type":"VEC3"},{"bufferView":22,"byteOffset":0,"componentType":5126,"count":160,"type":"VEC4"},{"bufferView":23,"byteOffset":0,"componentType":5126,"count":160,"type":"VEC2"},{"bufferView":24,"byteOffset":0,"componentType":5126,"count":160,"type":"VEC2"},{"bufferView":25,"byteOffset":0,"componentType":5123,"count":336,"type":"SCALAR"},{"bufferView":26,"byteOffset":0,"componentType":5126,"count":316,"max":[0.0923467501997948,0.161543771624565,0.0252264235168695],"min":[-0.09028984606266,-0.16194978356361,-0.0262935180217],"type":"VEC3"},{"bufferView":27,"byteOffset":0,"componentType":5126,"count":316,"type":"VEC3"},{"bufferView":28,"byteOffset":0,"componentType":5126,"count":316,"type":"VEC2"},{"bufferView":29,"byteOffset":0,"componentType":5126,"count":316,"type":"VEC2"}],"animations":[{"channels":[],"name":"Unreal Take","samplers":[]}],"asset":{"generator":"FBX2glTF v0.13.0","version":"2.0"},"bufferViews":[{"buffer":0,"byteLength":4,"byteOffset":0},{"buffer":0,"byteLength":6216,"byteOffset":4,"target":34963},{"buffer":0,"byteLength":6792,"byteOffset":6220,"target":34962},{"buffer":0,"byteLength":6792,"byteOffset":13012,"target":34962},{"buffer":0,"byteLength":9056,"byteOffset":19804,"target":34962},{"buffer":0,"byteLength":4528,"byteOffset":28860,"target":34962},{"buffer":0,"byteLength":4528,"byteOffset":33388,"target":34962},{"buffer":0,"byteLength":4656,"byteOffset":37916,"target":34963},{"buffer":0,"byteLength":5232,"byteOffset":42572,"target":34962},{"buffer":0,"byteLength":5232,"byteOffset":47804,"target":34962},{"buffer":0,"byteLength":6976,"byteOffset":53036,"target":34962},{"buffer":0,"byteLength":3488,"byteOffset":60012,"target":34962},{"buffer":0,"byteLength":3488,"byteOffset":63500,"target":34962},{"buffer":0,"byteLength":3108,"byteOffset":66988,"target":34963},{"buffer":0,"byteLength":3672,"byteOffset":70096,"target":34962},{"buffer":0,"byteLength":3672,"byteOffset":73768,"target":34962},{"buffer":0,"byteLength":4896,"byteOffset":77440,"target":34962},{"buffer":0,"byteLength":2448,"byteOffset":82336,"target":34962},{"buffer":0,"byteLength":2448,"byteOffset":84784,"target":34962},{"buffer":0,"byteLength":1548,"byteOffset":87232,"target":34963},{"buffer":0,"byteLength":1920,"byteOffset":88780,"target":34962},{"buffer":0,"byteLength":1920,"byteOffset":90700,"target":34962},{"buffer":0,"byteLength":2560,"byteOffset":92620,"target":34962},{"buffer":0,"byteLength":1280,"byteOffset":95180,"target":34962},{"buffer":0,"byteLength":1280,"byteOffset":96460,"target":34962},{"buffer":0,"byteLength":672,"byteOffset":97740,"target":34963},{"buffer":0,"byteLength":3792,"byteOffset":98412,"target":34962},{"buffer":0,"byteLength":3792,"byteOffset":102204,"target":34962},{"buffer":0,"byteLength":2528,"byteOffset":105996,"target":34962},{"buffer":0,"byteLength":2528,"byteOffset":108524,"target":34962}],"buffers":[{"byteLength":111052,"uri":"SM_Curtain_Towels_Towel_A.bin"}],"images":[{"name":"Detail_Normal_01","uri":"Detail_Normal_01.tga"}],"materials":[{"alphaMode":"OPAQUE","doubleSided":false,"extras":{"fromFBX":{"isTruePBR":false,"shadingModel":"Phong"}},"name":"MI_Curtain_Towels","normalTexture":{"index":0,"texCoord":0},"pbrMetallicRoughness":{"baseColorFactor":[0.21586050093174,0.21586050093174,0.21586050093174,1],"metallicFactor":0.400000005960464,"roughnessFactor":0.301511347293854}},{"alphaMode":"OPAQUE","doubleSided":false,"extras":{"fromFBX":{"isTruePBR":false,"shadingModel":"Lambert"}},"name":"DefaultMaterial","pbrMetallicRoughness":{"baseColorFactor":[0.5,0.5,0.5,1],"metallicFactor":0.200000002980232,"roughnessFactor":0.800000011920929}}],"meshes":[{"name":"SM_Curtain_Towels_Towel_A_LOD0","primitives":[{"attributes":{"NORMAL":3,"POSITION":2,"TANGENT":4,"TEXCOORD_0":5,"TEXCOORD_1":6},"indices":1,"material":0,"mode":4}]},{"name":"SM_Curtain_Towels_Towel_A_LOD1","primitives":[{"attributes":{"NORMAL":9,"POSITION":8,"TANGENT":10,"TEXCOORD_0":11,"TEXCOORD_1":12},"indices":7,"material":0,"mode":4}]},{"name":"SM_Curtain_Towels_Towel_A_LOD2","primitives":[{"attributes":{"NORMAL":15,"POSITION":14,"TANGENT":16,"TEXCOORD_0":17,"TEXCOORD_1":18},"indices":13,"material":0,"mode":4}]},{"name":"SM_Curtain_Towels_Towel_A_LOD3","primitives":[{"attributes":{"NORMAL":21,"POSITION":20,"TANGENT":22,"TEXCOORD_0":23,"TEXCOORD_1":24},"indices":19,"material":0,"mode":4}]},{"name":"SM_Curtain_Towels_Towel_A_ConvexHulls","primitives":[{"attributes":{"NORMAL":27,"POSITION":26,"TEXCOORD_0":28,"TEXCOORD_1":29},"indices":25,"material":1,"mode":4}]}],"nodes":[{"children":[1,2,3,4,5],"name":"Curtain_Towels_Towel_A3","originalUnits":0.00999999977648258,"pivot":[0,0,0],"rotation":[0,0,0,1],"scale":[1,1,1],"translation":[0,0,0]},{"mesh":0,"name":"SM_Curtain_Towels_Towel_A_LOD0","originalUnits":0.00999999977648258,"pivot":[0,0,0],"rotation":[0,0,0,1],"scale":[1,1,1],"translation":[0,0,0]},{"mesh":4,"name":"SM_Curtain_Towels_Towel_A_ConvexHulls","originalUnits":0.00999999977648258,"pivot":[0,0,0],"rotation":[0,0,0,1],"scale":[1,1,1],"translation":[0,0,0]},{"mesh":1,"name":"SM_Curtain_Towels_Towel_A_LOD1","originalUnits":0.00999999977648258,"pivot":[0,0,0],"rotation":[0,0,0,1],"scale":[1,1,1],"translation":[0,0,0]},{"mesh":2,"name":"SM_Curtain_Towels_Towel_A_LOD2","originalUnits":0.00999999977648258,"pivot":[0,0,0],"rotation":[0,0,0,1],"scale":[1,1,1],"translation":[0,0,0]},{"mesh":3,"name":"SM_Curtain_Towels_Towel_A_LOD3","originalUnits":0.00999999977648258,"pivot":[0,0,0],"rotation":[0,0,0,1],"scale":[1,1,1],"translation":[0,0,0]}],"samplers":[{}],"scene":0,"scenes":[{"name":"Root Scene","nodes":[0]}],"textures":[{"name":"T_Detail01_N","sampler":0,"source":0}]}