{"accessors":[{"bufferView":0,"byteOffset":0,"componentType":5126,"count":1,"max":[0],"min":[0],"type":"SCALAR"},{"bufferView":1,"byteOffset":0,"componentType":5123,"count":3468,"type":"SCALAR"},{"bufferView":2,"byteOffset":0,"componentType":5126,"count":629,"max":[0.105938397347927,0.160430759191513,0.0270967576652765],"min":[-0.10593836754561,-0.16043077409267,-0.02709671854973],"type":"VEC3"},{"bufferView":3,"byteOffset":0,"componentType":5126,"count":629,"type":"VEC3"},{"bufferView":4,"byteOffset":0,"componentType":5126,"count":629,"type":"VEC4"},{"bufferView":5,"byteOffset":0,"componentType":5126,"count":629,"type":"VEC2"},{"bufferView":6,"byteOffset":0,"componentType":5126,"count":629,"type":"VEC2"},{"bufferView":7,"byteOffset":0,"componentType":5123,"count":2598,"type":"SCALAR"},{"bufferView":8,"byteOffset":0,"componentType":5126,"count":484,"max":[0.105938397347927,0.160430759191513,0.0270967576652765],"min":[-0.10593836754561,-0.16043077409267,-0.02709671854973],"type":"VEC3"},{"bufferView":9,"byteOffset":0,"componentType":5126,"count":484,"type":"VEC3"},{"bufferView":10,"byteOffset":0,"componentType":5126,"count":484,"type":"VEC4"},{"bufferView":11,"byteOffset":0,"componentType":5126,"count":484,"type":"VEC2"},{"bufferView":12,"byteOffset":0,"componentType":5126,"count":484,"type":"VEC2"},{"bufferView":13,"byteOffset":0,"componentType":5123,"count":1734,"type":"SCALAR"},{"bufferView":14,"byteOffset":0,"componentType":5126,"count":340,"max":[0.105898343026638,0.160430759191513,0.0271580722182989],"min":[-0.10588055104017,-0.16043077409267,-0.02709671854973],"type":"VEC3"},{"bufferView":15,"byteOffset":0,"componentType":5126,"count":340,"type":"VEC3"},{"bufferView":16,"byteOffset":0,"componentType":5126,"count":340,"type":"VEC4"},{"bufferView":17,"byteOffset":0,"componentType":5126,"count":340,"type":"VEC2"},{"bufferView":18,"byteOffset":0,"componentType":5126,"count":340,"type":"VEC2"},{"bufferView":19,"byteOffset":0,"componentType":5123,"count":864,"type":"SCALAR"},{"bufferView":20,"byteOffset":0,"componentType":5126,"count":183,"max":[0.106578759849072,0.160292789340019,0.0271593946963549],"min":[-0.10686966776848,-0.16060429811478,-0.02663998492062],"type":"VEC3"},{"bufferView":21,"byteOffset":0,"componentType":5126,"count":183,"type":"VEC3"},{"bufferView":22,"byteOffset":0,"componentType":5126,"count":183,"type":"VEC4"},{"bufferView":23,"byteOffset":0,"componentType":5126,"count":183,"type":"VEC2"},{"bufferView":24,"byteOffset":0,"componentType":5126,"count":183,"type":"VEC2"},{"bufferView":25,"byteOffset":0,"componentType":5123,"count":336,"type":"SCALAR"},{"bufferView":26,"byteOffset":0,"componentType":5126,"count":324,"max":[0.107258096337318,0.162706658244133,0.029546158388257],"min":[-0.10710291564465,-0.16283328831196,-0.02907731197774],"type":"VEC3"},{"bufferView":27,"byteOffset":0,"componentType":5126,"count":324,"type":"VEC3"},{"bufferView":28,"byteOffset":0,"componentType":5126,"count":324,"type":"VEC2"},{"bufferView":29,"byteOffset":0,"componentType":5126,"count":324,"type":"VEC2"}],"animations":[{"channels":[],"name":"Unreal Take","samplers":[]}],"asset":{"generator":"FBX2glTF v0.13.0","version":"2.0"},"bufferViews":[{"buffer":0,"byteLength":4,"byteOffset":0},{"buffer":0,"byteLength":6936,"byteOffset":4,"target":34963},{"buffer":0,"byteLength":7548,"byteOffset":6940,"target":34962},{"buffer":0,"byteLength":7548,"byteOffset":14488,"target":34962},{"buffer":0,"byteLength":10064,"byteOffset":22036,"target":34962},{"buffer":0,"byteLength":5032,"byteOffset":32100,"target":34962},{"buffer":0,"byteLength":5032,"byteOffset":37132,"target":34962},{"buffer":0,"byteLength":5196,"byteOffset":42164,"target":34963},{"buffer":0,"byteLength":5808,"byteOffset":47360,"target":34962},{"buffer":0,"byteLength":5808,"byteOffset":53168,"target":34962},{"buffer":0,"byteLength":7744,"byteOffset":58976,"target":34962},{"buffer":0,"byteLength":3872,"byteOffset":66720,"target":34962},{"buffer":0,"byteLength":3872,"byteOffset":70592,"target":34962},{"buffer":0,"byteLength":3468,"byteOffset":74464,"target":34963},{"buffer":0,"byteLength":4080,"byteOffset":77932,"target":34962},{"buffer":0,"byteLength":4080,"byteOffset":82012,"target":34962},{"buffer":0,"byteLength":5440,"byteOffset":86092,"target":34962},{"buffer":0,"byteLength":2720,"byteOffset":91532,"target":34962},{"buffer":0,"byteLength":2720,"byteOffset":94252,"target":34962},{"buffer":0,"byteLength":1728,"byteOffset":96972,"target":34963},{"buffer":0,"byteLength":2196,"byteOffset":98700,"target":34962},{"buffer":0,"byteLength":2196,"byteOffset":100896,"target":34962},{"buffer":0,"byteLength":2928,"byteOffset":103092,"target":34962},{"buffer":0,"byteLength":1464,"byteOffset":106020,"target":34962},{"buffer":0,"byteLength":1464,"byteOffset":107484,"target":34962},{"buffer":0,"byteLength":672,"byteOffset":108948,"target":34963},{"buffer":0,"byteLength":3888,"byteOffset":109620,"target":34962},{"buffer":0,"byteLength":3888,"byteOffset":113508,"target":34962},{"buffer":0,"byteLength":2592,"byteOffset":117396,"target":34962},{"buffer":0,"byteLength":2592,"byteOffset":119988,"target":34962}],"buffers":[{"byteLength":122580,"uri":"SM_Curtain_Towels_Towel_B.bin"}],"images":[{"name":"Detail_Normal_01","uri":"Detail_Normal_01.tga"}],"materials":[{"alphaMode":"OPAQUE","doubleSided":false,"extras":{"fromFBX":{"isTruePBR":false,"shadingModel":"Phong"}},"name":"MI_Curtain_Towels","normalTexture":{"index":0,"texCoord":0},"pbrMetallicRoughness":{"baseColorFactor":[0.21586050093174,0.21586050093174,0.21586050093174,1],"metallicFactor":0.400000005960464,"roughnessFactor":0.301511347293854}},{"alphaMode":"OPAQUE","doubleSided":false,"extras":{"fromFBX":{"isTruePBR":false,"shadingModel":"Lambert"}},"name":"DefaultMaterial","pbrMetallicRoughness":{"baseColorFactor":[0.5,0.5,0.5,1],"metallicFactor":0.200000002980232,"roughnessFactor":0.800000011920929}}],"meshes":[{"name":"SM_Curtain_Towels_Towel_B_LOD0","primitives":[{"attributes":{"NORMAL":3,"POSITION":2,"TANGENT":4,"TEXCOORD_0":5,"TEXCOORD_1":6},"indices":1,"material":0,"mode":4}]},{"name":"SM_Curtain_Towels_Towel_B_LOD1","primitives":[{"attributes":{"NORMAL":9,"POSITION":8,"TANGENT":10,"TEXCOORD_0":11,"TEXCOORD_1":12},"indices":7,"material":0,"mode":4}]},{"name":"SM_Curtain_Towels_Towel_B_LOD2","primitives":[{"attributes":{"NORMAL":15,"POSITION":14,"TANGENT":16,"TEXCOORD_0":17,"TEXCOORD_1":18},"indices":13,"material":0,"mode":4}]},{"name":"SM_Curtain_Towels_Towel_B_LOD3","primitives":[{"attributes":{"NORMAL":21,"POSITION":20,"TANGENT":22,"TEXCOORD_0":23,"TEXCOORD_1":24},"indices":19,"material":0,"mode":4}]},{"name":"SM_Curtain_Towels_Towel_B_ConvexHulls","primitives":[{"attributes":{"NORMAL":27,"POSITION":26,"TEXCOORD_0":28,"TEXCOORD_1":29},"indices":25,"material":1,"mode":4}]}],"nodes":[{"children":[1,2,3,4,5],"name":"Curtain_Towels_Towel_B2_20","originalUnits":0.00999999977648258,"pivot":[0,0,0],"rotation":[0,0,0,1],"scale":[1,1,1],"translation":[0,0,0]},{"mesh":0,"name":"SM_Curtain_Towels_Towel_B_LOD0","originalUnits":0.00999999977648258,"pivot":[0,0,0],"rotation":[0,0,0,1],"scale":[1,1,1],"translation":[0,0,0]},{"mesh":4,"name":"SM_Curtain_Towels_Towel_B_ConvexHulls","originalUnits":0.00999999977648258,"pivot":[0,0,0],"rotation":[0,0,0,1],"scale":[1,1,1],"translation":[0,0,0]},{"mesh":1,"name":"SM_Curtain_Towels_Towel_B_LOD1","originalUnits":0.00999999977648258,"pivot":[0,0,0],"rotation":[0,0,0,1],"scale":[1,1,1],"translation":[0,0,0]},{"mesh":2,"name":"SM_Curtain_Towels_Towel_B_LOD2","originalUnits":0.00999999977648258,"pivot":[0,0,0],"rotation":[0,0,0,1],"scale":[1,1,1],"translation":[0,0,0]},{"mesh":3,"name":"SM_Curtain_Towels_Towel_B_LOD3","originalUnits":0.00999999977648258,"pivot":[0,0,0],"rotation":[0,0,0,1],"scale":[1,1,1],"translation":[0,0,0]}],"samplers":[{}],"scene":0,"scenes":[{"name":"Root Scene","nodes":[0]}],"textures":[{"name":"T_Detail01_N","sampler":0,"source":0}]}