{"accessors":[{"bufferView":0,"byteOffset":0,"componentType":5126,"count":1,"max":[0],"min":[0],"type":"SCALAR"},{"bufferView":1,"byteOffset":0,"componentType":5123,"count":534,"type":"SCALAR"},{"bufferView":2,"byteOffset":0,"componentType":5126,"count":300,"max":[0.508538722991943,0.530413508415222,1.17618322372437],"min":[-0.50853955745697,-0.53041344881058,-1.17618334293365],"type":"VEC3"},{"bufferView":3,"byteOffset":0,"componentType":5126,"count":300,"type":"VEC3"},{"bufferView":4,"byteOffset":0,"componentType":5126,"count":300,"type":"VEC4"},{"bufferView":5,"byteOffset":0,"componentType":5126,"count":300,"type":"VEC2"},{"bufferView":6,"byteOffset":0,"componentType":5126,"count":300,"type":"VEC2"},{"bufferView":7,"byteOffset":0,"componentType":5123,"count":402,"type":"SCALAR"},{"bufferView":8,"byteOffset":0,"componentType":5126,"count":256,"max":[0.508538722991943,0.530413508415222,1.17618322372437],"min":[-0.50853955745697,-0.53999841213226,-1.17618334293365],"type":"VEC3"},{"bufferView":9,"byteOffset":0,"componentType":5126,"count":256,"type":"VEC3"},{"bufferView":10,"byteOffset":0,"componentType":5126,"count":256,"type":"VEC4"},{"bufferView":11,"byteOffset":0,"componentType":5126,"count":256,"type":"VEC2"},{"bufferView":12,"byteOffset":0,"componentType":5126,"count":256,"type":"VEC2"},{"bufferView":13,"byteOffset":0,"componentType":5123,"count":264,"type":"SCALAR"},{"bufferView":14,"byteOffset":0,"componentType":5126,"count":178,"max":[0.508538722991943,0.530413508415222,1.17618322372437],"min":[-0.50853955745697,-0.36960837244987,-1.17618334293365],"type":"VEC3"},{"bufferView":15,"byteOffset":0,"componentType":5126,"count":178,"type":"VEC3"},{"bufferView":16,"byteOffset":0,"componentType":5126,"count":178,"type":"VEC4"},{"bufferView":17,"byteOffset":0,"componentType":5126,"count":178,"type":"VEC2"},{"bufferView":18,"byteOffset":0,"componentType":5126,"count":178,"type":"VEC2"},{"bufferView":19,"byteOffset":0,"componentType":5123,"count":132,"type":"SCALAR"},{"bufferView":20,"byteOffset":0,"componentType":5126,"count":102,"max":[0.508538722991943,0.530413508415222,1.21758508682251],"min":[-0.62239706516266,-0.40059143304825,-1.17618334293365],"type":"VEC3"},{"bufferView":21,"byteOffset":0,"componentType":5126,"count":102,"type":"VEC3"},{"bufferView":22,"byteOffset":0,"componentType":5126,"count":102,"type":"VEC4"},{"bufferView":23,"byteOffset":0,"componentType":5126,"count":102,"type":"VEC2"},{"bufferView":24,"byteOffset":0,"componentType":5126,"count":102,"type":"VEC2"},{"bufferView":25,"byteOffset":0,"componentType":5123,"count":168,"type":"SCALAR"},{"bufferView":26,"byteOffset":0,"componentType":5126,"count":158,"max":[0.533438622951508,0.530413508415222,1.19011163711548],"min":[-0.50723206996918,-0.56205463409424,-1.18903052806854],"type":"VEC3"},{"bufferView":27,"byteOffset":0,"componentType":5126,"count":158,"type":"VEC3"},{"bufferView":28,"byteOffset":0,"componentType":5126,"count":158,"type":"VEC2"},{"bufferView":29,"byteOffset":0,"componentType":5126,"count":158,"type":"VEC2"}],"animations":[{"channels":[],"name":"Unreal Take","samplers":[]}],"asset":{"generator":"FBX2glTF v0.13.0","version":"2.0"},"bufferViews":[{"buffer":0,"byteLength":4,"byteOffset":0},{"buffer":0,"byteLength":1068,"byteOffset":4,"target":34963},{"buffer":0,"byteLength":3600,"byteOffset":1072,"target":34962},{"buffer":0,"byteLength":3600,"byteOffset":4672,"target":34962},{"buffer":0,"byteLength":4800,"byteOffset":8272,"target":34962},{"buffer":0,"byteLength":2400,"byteOffset":13072,"target":34962},{"buffer":0,"byteLength":2400,"byteOffset":15472,"target":34962},{"buffer":0,"byteLength":804,"byteOffset":17872,"target":34963},{"buffer":0,"byteLength":3072,"byteOffset":18676,"target":34962},{"buffer":0,"byteLength":3072,"byteOffset":21748,"target":34962},{"buffer":0,"byteLength":4096,"byteOffset":24820,"target":34962},{"buffer":0,"byteLength":2048,"byteOffset":28916,"target":34962},{"buffer":0,"byteLength":2048,"byteOffset":30964,"target":34962},{"buffer":0,"byteLength":528,"byteOffset":33012,"target":34963},{"buffer":0,"byteLength":2136,"byteOffset":33540,"target":34962},{"buffer":0,"byteLength":2136,"byteOffset":35676,"target":34962},{"buffer":0,"byteLength":2848,"byteOffset":37812,"target":34962},{"buffer":0,"byteLength":1424,"byteOffset":40660,"target":34962},{"buffer":0,"byteLength":1424,"byteOffset":42084,"target":34962},{"buffer":0,"byteLength":264,"byteOffset":43508,"target":34963},{"buffer":0,"byteLength":1224,"byteOffset":43772,"target":34962},{"buffer":0,"byteLength":1224,"byteOffset":44996,"target":34962},{"buffer":0,"byteLength":1632,"byteOffset":46220,"target":34962},{"buffer":0,"byteLength":816,"byteOffset":47852,"target":34962},{"buffer":0,"byteLength":816,"byteOffset":48668,"target":34962},{"buffer":0,"byteLength":336,"byteOffset":49484,"target":34963},{"buffer":0,"byteLength":1896,"byteOffset":49820,"target":34962},{"buffer":0,"byteLength":1896,"byteOffset":51716,"target":34962},{"buffer":0,"byteLength":1264,"byteOffset":53612,"target":34962},{"buffer":0,"byteLength":1264,"byteOffset":54876,"target":34962}],"buffers":[{"byteLength":56140,"uri":"SM_Desk02.bin"}],"images":[{"name":"T_Furniture_N","uri":"T_Furniture_N.png"}],"materials":[{"alphaMode":"OPAQUE","doubleSided":false,"extras":{"fromFBX":{"isTruePBR":false,"shadingModel":"Phong"}},"name":"MI_Furniture","normalTexture":{"index":0,"texCoord":0},"pbrMetallicRoughness":{"baseColorFactor":[0.21586050093174,0.21586050093174,0.21586050093174,1],"metallicFactor":0.400000005960464,"roughnessFactor":0.301511347293854}},{"alphaMode":"OPAQUE","doubleSided":false,"extras":{"fromFBX":{"isTruePBR":false,"shadingModel":"Lambert"}},"name":"DefaultMaterial","pbrMetallicRoughness":{"baseColorFactor":[0.5,0.5,0.5,1],"metallicFactor":0.200000002980232,"roughnessFactor":0.800000011920929}}],"meshes":[{"name":"SM_Desk02_LOD0","primitives":[{"attributes":{"NORMAL":3,"POSITION":2,"TANGENT":4,"TEXCOORD_0":5,"TEXCOORD_1":6},"indices":1,"material":0,"mode":4}]},{"name":"SM_Desk02_LOD1","primitives":[{"attributes":{"NORMAL":9,"POSITION":8,"TANGENT":10,"TEXCOORD_0":11,"TEXCOORD_1":12},"indices":7,"material":0,"mode":4}]},{"name":"SM_Desk02_LOD2","primitives":[{"attributes":{"NORMAL":15,"POSITION":14,"TANGENT":16,"TEXCOORD_0":17,"TEXCOORD_1":18},"indices":13,"material":0,"mode":4}]},{"name":"SM_Desk02_LOD3","primitives":[{"attributes":{"NORMAL":21,"POSITION":20,"TANGENT":22,"TEXCOORD_0":23,"TEXCOORD_1":24},"indices":19,"material":0,"mode":4}]},{"name":"SM_Desk02_ConvexHulls","primitives":[{"attributes":{"NORMAL":27,"POSITION":26,"TEXCOORD_0":28,"TEXCOORD_1":29},"indices":25,"material":1,"mode":4}]}],"nodes":[{"children":[1,2,3,4,5],"name":"Assets_Proxy_Entryway_Desk_Proxy_170","originalUnits":0.00999999977648258,"pivot":[0,0,0],"rotation":[0,0,0,1],"scale":[1,1,1],"translation":[0,0,0]},{"mesh":0,"name":"SM_Desk02_LOD0","originalUnits":0.00999999977648258,"pivot":[0,0,0],"rotation":[0,0,0,1],"scale":[1,1,1],"translation":[0,0,0]},{"mesh":4,"name":"SM_Desk02_ConvexHulls","originalUnits":0.00999999977648258,"pivot":[0,0,0],"rotation":[0,0,0,1],"scale":[1,1,1],"translation":[0,0,0]},{"mesh":1,"name":"SM_Desk02_LOD1","originalUnits":0.00999999977648258,"pivot":[0,0,0],"rotation":[0,0,0,1],"scale":[1,1,1],"translation":[0,0,0]},{"mesh":2,"name":"SM_Desk02_LOD2","originalUnits":0.00999999977648258,"pivot":[0,0,0],"rotation":[0,0,0,1],"scale":[1,1,1],"translation":[0,0,0]},{"mesh":3,"name":"SM_Desk02_LOD3","originalUnits":0.00999999977648258,"pivot":[0,0,0],"rotation":[0,0,0,1],"scale":[1,1,1],"translation":[0,0,0]}],"samplers":[{}],"scene":0,"scenes":[{"name":"Root Scene","nodes":[0]}],"textures":[{"name":"T_Furniture_N","sampler":0,"source":0}]}