{"accessors":[{"bufferView":0,"byteOffset":0,"componentType":5126,"count":1,"max":[0],"min":[0],"type":"SCALAR"},{"bufferView":1,"byteOffset":0,"componentType":5123,"count":888,"type":"SCALAR"},{"bufferView":2,"byteOffset":0,"componentType":5126,"count":360,"max":[0.833154499530792,2.97580981254578,0.0843737423419952],"min":[-0.78694915771484,-0.00000009381162,-0.08437334001064],"type":"VEC3"},{"bufferView":3,"byteOffset":0,"componentType":5126,"count":360,"type":"VEC3"},{"bufferView":4,"byteOffset":0,"componentType":5126,"count":360,"type":"VEC4"},{"bufferView":5,"byteOffset":0,"componentType":5126,"count":360,"type":"VEC2"},{"bufferView":6,"byteOffset":0,"componentType":5126,"count":360,"type":"VEC2"},{"bufferView":7,"byteOffset":0,"componentType":5123,"count":666,"type":"SCALAR"},{"bufferView":8,"byteOffset":0,"componentType":5126,"count":286,"max":[0.833154499530792,2.97580981254578,0.0843738913536072],"min":[-0.78694927692413,-0.00000012901192,-0.08437348902225],"type":"VEC3"},{"bufferView":9,"byteOffset":0,"componentType":5126,"count":286,"type":"VEC3"},{"bufferView":10,"byteOffset":0,"componentType":5126,"count":286,"type":"VEC4"},{"bufferView":11,"byteOffset":0,"componentType":5126,"count":286,"type":"VEC2"},{"bufferView":12,"byteOffset":0,"componentType":5126,"count":286,"type":"VEC2"},{"bufferView":13,"byteOffset":0,"componentType":5123,"count":444,"type":"SCALAR"},{"bufferView":14,"byteOffset":0,"componentType":5126,"count":212,"max":[0.833154499530792,2.97581100463867,0.0843738242983818],"min":[-0.78694975376129,-0.00000012901192,-0.08437344431877],"type":"VEC3"},{"bufferView":15,"byteOffset":0,"componentType":5126,"count":212,"type":"VEC3"},{"bufferView":16,"byteOffset":0,"componentType":5126,"count":212,"type":"VEC4"},{"bufferView":17,"byteOffset":0,"componentType":5126,"count":212,"type":"VEC2"},{"bufferView":18,"byteOffset":0,"componentType":5126,"count":212,"type":"VEC2"},{"bufferView":19,"byteOffset":0,"componentType":5123,"count":222,"type":"SCALAR"},{"bufferView":20,"byteOffset":0,"componentType":5126,"count":134,"max":[0.833154499530792,2.97581100463867,0.0843738242983818],"min":[-0.78694975376129,-0.00504997279495,-0.08437344431877],"type":"VEC3"},{"bufferView":21,"byteOffset":0,"componentType":5126,"count":134,"type":"VEC3"},{"bufferView":22,"byteOffset":0,"componentType":5126,"count":134,"type":"VEC4"},{"bufferView":23,"byteOffset":0,"componentType":5126,"count":134,"type":"VEC2"},{"bufferView":24,"byteOffset":0,"componentType":5126,"count":134,"type":"VEC2"},{"bufferView":25,"byteOffset":0,"componentType":5123,"count":210,"type":"SCALAR"},{"bufferView":26,"byteOffset":0,"componentType":5126,"count":174,"max":[0.847985982894897,2.99085998535156,0.0938527062535286],"min":[-0.80173110961914,-0.01122612226754,-0.09150239080191],"type":"VEC3"},{"bufferView":27,"byteOffset":0,"componentType":5126,"count":174,"type":"VEC3"},{"bufferView":28,"byteOffset":0,"componentType":5126,"count":174,"type":"VEC2"},{"bufferView":29,"byteOffset":0,"componentType":5126,"count":174,"type":"VEC2"}],"animations":[{"channels":[],"name":"Unreal Take","samplers":[]}],"asset":{"generator":"FBX2glTF v0.13.0","version":"2.0"},"bufferViews":[{"buffer":0,"byteLength":4,"byteOffset":0},{"buffer":0,"byteLength":1776,"byteOffset":4,"target":34963},{"buffer":0,"byteLength":4320,"byteOffset":1780,"target":34962},{"buffer":0,"byteLength":4320,"byteOffset":6100,"target":34962},{"buffer":0,"byteLength":5760,"byteOffset":10420,"target":34962},{"buffer":0,"byteLength":2880,"byteOffset":16180,"target":34962},{"buffer":0,"byteLength":2880,"byteOffset":19060,"target":34962},{"buffer":0,"byteLength":1332,"byteOffset":21940,"target":34963},{"buffer":0,"byteLength":3432,"byteOffset":23272,"target":34962},{"buffer":0,"byteLength":3432,"byteOffset":26704,"target":34962},{"buffer":0,"byteLength":4576,"byteOffset":30136,"target":34962},{"buffer":0,"byteLength":2288,"byteOffset":34712,"target":34962},{"buffer":0,"byteLength":2288,"byteOffset":37000,"target":34962},{"buffer":0,"byteLength":888,"byteOffset":39288,"target":34963},{"buffer":0,"byteLength":2544,"byteOffset":40176,"target":34962},{"buffer":0,"byteLength":2544,"byteOffset":42720,"target":34962},{"buffer":0,"byteLength":3392,"byteOffset":45264,"target":34962},{"buffer":0,"byteLength":1696,"byteOffset":48656,"target":34962},{"buffer":0,"byteLength":1696,"byteOffset":50352,"target":34962},{"buffer":0,"byteLength":444,"byteOffset":52048,"target":34963},{"buffer":0,"byteLength":1608,"byteOffset":52492,"target":34962},{"buffer":0,"byteLength":1608,"byteOffset":54100,"target":34962},{"buffer":0,"byteLength":2144,"byteOffset":55708,"target":34962},{"buffer":0,"byteLength":1072,"byteOffset":57852,"target":34962},{"buffer":0,"byteLength":1072,"byteOffset":58924,"target":34962},{"buffer":0,"byteLength":420,"byteOffset":59996,"target":34963},{"buffer":0,"byteLength":2088,"byteOffset":60416,"target":34962},{"buffer":0,"byteLength":2088,"byteOffset":62504,"target":34962},{"buffer":0,"byteLength":1392,"byteOffset":64592,"target":34962},{"buffer":0,"byteLength":1392,"byteOffset":65984,"target":34962}],"buffers":[{"byteLength":67376,"uri":"SM_Door_Frame_A.bin"}],"images":[{"name":"T_Doors_N","uri":"T_Doors_N.png"}],"materials":[{"alphaMode":"OPAQUE","doubleSided":false,"extras":{"fromFBX":{"isTruePBR":false,"shadingModel":"Phong"}},"name":"MI_Door","normalTexture":{"index":0,"texCoord":0},"pbrMetallicRoughness":{"baseColorFactor":[0.21586050093174,0.21586050093174,0.21586050093174,1],"metallicFactor":0.400000005960464,"roughnessFactor":0.301511347293854}},{"alphaMode":"OPAQUE","doubleSided":false,"extras":{"fromFBX":{"isTruePBR":false,"shadingModel":"Lambert"}},"name":"DefaultMaterial","pbrMetallicRoughness":{"baseColorFactor":[0.5,0.5,0.5,1],"metallicFactor":0.200000002980232,"roughnessFactor":0.800000011920929}}],"meshes":[{"name":"SM_Door_Frame_A_LOD0","primitives":[{"attributes":{"NORMAL":3,"POSITION":2,"TANGENT":4,"TEXCOORD_0":5,"TEXCOORD_1":6},"indices":1,"material":0,"mode":4}]},{"name":"SM_Door_Frame_A_LOD1","primitives":[{"attributes":{"NORMAL":9,"POSITION":8,"TANGENT":10,"TEXCOORD_0":11,"TEXCOORD_1":12},"indices":7,"material":0,"mode":4}]},{"name":"SM_Door_Frame_A_LOD2","primitives":[{"attributes":{"NORMAL":15,"POSITION":14,"TANGENT":16,"TEXCOORD_0":17,"TEXCOORD_1":18},"indices":13,"material":0,"mode":4}]},{"name":"SM_Door_Frame_A_LOD3","primitives":[{"attributes":{"NORMAL":21,"POSITION":20,"TANGENT":22,"TEXCOORD_0":23,"TEXCOORD_1":24},"indices":19,"material":0,"mode":4}]},{"name":"SM_Door_Frame_A_ConvexHulls","primitives":[{"attributes":{"NORMAL":27,"POSITION":26,"TEXCOORD_0":28,"TEXCOORD_1":29},"indices":25,"material":1,"mode":4}]}],"nodes":[{"children":[1,2,3,4,5],"name":"Door_Frame_A_26","originalUnits":0.00999999977648258,"pivot":[0,0,0],"rotation":[0,0,0,1],"scale":[1,1,1],"translation":[0,0,0]},{"mesh":0,"name":"SM_Door_Frame_A_LOD0","originalUnits":0.00999999977648258,"pivot":[0,0,0],"rotation":[0,0,0,1],"scale":[1,1,1],"translation":[0,0,0]},{"mesh":4,"name":"SM_Door_Frame_A_ConvexHulls","originalUnits":0.00999999977648258,"pivot":[0,0,0],"rotation":[0,0,0,1],"scale":[1,1,1],"translation":[0,0,0]},{"mesh":1,"name":"SM_Door_Frame_A_LOD1","originalUnits":0.00999999977648258,"pivot":[0,0,0],"rotation":[0,0,0,1],"scale":[1,1,1],"translation":[0,0,0]},{"mesh":2,"name":"SM_Door_Frame_A_LOD2","originalUnits":0.00999999977648258,"pivot":[0,0,0],"rotation":[0,0,0,1],"scale":[1,1,1],"translation":[0,0,0]},{"mesh":3,"name":"SM_Door_Frame_A_LOD3","originalUnits":0.00999999977648258,"pivot":[0,0,0],"rotation":[0,0,0,1],"scale":[1,1,1],"translation":[0,0,0]}],"samplers":[{}],"scene":0,"scenes":[{"name":"Root Scene","nodes":[0]}],"textures":[{"name":"T_Doors_N","sampler":0,"source":0}]}