{"accessors":[{"bufferView":0,"byteOffset":0,"componentType":5126,"count":1,"max":[0],"min":[0],"type":"SCALAR"},{"bufferView":1,"byteOffset":0,"componentType":5123,"count":1320,"type":"SCALAR"},{"bufferView":2,"byteOffset":0,"componentType":5126,"count":242,"max":[0.289819955825806,0.0941156968474388,0.289819896221161],"min":[-0.28981998562813,-0.00480033457279,-0.28981989622116],"type":"VEC3"},{"bufferView":3,"byteOffset":0,"componentType":5126,"count":242,"type":"VEC3"},{"bufferView":4,"byteOffset":0,"componentType":5126,"count":242,"type":"VEC4"},{"bufferView":5,"byteOffset":0,"componentType":5126,"count":242,"type":"VEC2"},{"bufferView":6,"byteOffset":0,"componentType":5126,"count":242,"type":"VEC2"},{"bufferView":7,"byteOffset":0,"componentType":5123,"count":990,"type":"SCALAR"},{"bufferView":8,"byteOffset":0,"componentType":5126,"count":187,"max":[0.289819955825806,0.0941156968474388,0.289819896221161],"min":[-0.28981998562813,-0.0049438062124,-0.28981989622116],"type":"VEC3"},{"bufferView":9,"byteOffset":0,"componentType":5126,"count":187,"type":"VEC3"},{"bufferView":10,"byteOffset":0,"componentType":5126,"count":187,"type":"VEC4"},{"bufferView":11,"byteOffset":0,"componentType":5126,"count":187,"type":"VEC2"},{"bufferView":12,"byteOffset":0,"componentType":5126,"count":187,"type":"VEC2"},{"bufferView":13,"byteOffset":0,"componentType":5123,"count":660,"type":"SCALAR"},{"bufferView":14,"byteOffset":0,"componentType":5126,"count":132,"max":[0.289819955825806,0.0941156968474388,0.289819896221161],"min":[-0.28981998562813,-0.0049438062124,-0.28981989622116],"type":"VEC3"},{"bufferView":15,"byteOffset":0,"componentType":5126,"count":132,"type":"VEC3"},{"bufferView":16,"byteOffset":0,"componentType":5126,"count":132,"type":"VEC4"},{"bufferView":17,"byteOffset":0,"componentType":5126,"count":132,"type":"VEC2"},{"bufferView":18,"byteOffset":0,"componentType":5126,"count":132,"type":"VEC2"},{"bufferView":19,"byteOffset":0,"componentType":5123,"count":330,"type":"SCALAR"},{"bufferView":20,"byteOffset":0,"componentType":5126,"count":77,"max":[0.289819955825806,0.0941155329346657,0.289819896221161],"min":[-0.28981998562813,-0.00595542695373,-0.28981989622116],"type":"VEC3"},{"bufferView":21,"byteOffset":0,"componentType":5126,"count":77,"type":"VEC3"},{"bufferView":22,"byteOffset":0,"componentType":5126,"count":77,"type":"VEC4"},{"bufferView":23,"byteOffset":0,"componentType":5126,"count":77,"type":"VEC2"},{"bufferView":24,"byteOffset":0,"componentType":5126,"count":77,"type":"VEC2"},{"bufferView":25,"byteOffset":0,"componentType":5123,"count":336,"type":"SCALAR"},{"bufferView":26,"byteOffset":0,"componentType":5126,"count":326,"max":[0.274679750204086,0.0970895439386368,0.278328686952591],"min":[-0.28665083646774,-0.00480026565492,-0.28650617599487],"type":"VEC3"},{"bufferView":27,"byteOffset":0,"componentType":5126,"count":326,"type":"VEC3"},{"bufferView":28,"byteOffset":0,"componentType":5126,"count":326,"type":"VEC2"},{"bufferView":29,"byteOffset":0,"componentType":5126,"count":326,"type":"VEC2"}],"animations":[{"channels":[],"name":"Unreal Take","samplers":[]}],"asset":{"generator":"FBX2glTF v0.13.0","version":"2.0"},"bufferViews":[{"buffer":0,"byteLength":4,"byteOffset":0},{"buffer":0,"byteLength":2640,"byteOffset":4,"target":34963},{"buffer":0,"byteLength":2904,"byteOffset":2644,"target":34962},{"buffer":0,"byteLength":2904,"byteOffset":5548,"target":34962},{"buffer":0,"byteLength":3872,"byteOffset":8452,"target":34962},{"buffer":0,"byteLength":1936,"byteOffset":12324,"target":34962},{"buffer":0,"byteLength":1936,"byteOffset":14260,"target":34962},{"buffer":0,"byteLength":1980,"byteOffset":16196,"target":34963},{"buffer":0,"byteLength":2244,"byteOffset":18176,"target":34962},{"buffer":0,"byteLength":2244,"byteOffset":20420,"target":34962},{"buffer":0,"byteLength":2992,"byteOffset":22664,"target":34962},{"buffer":0,"byteLength":1496,"byteOffset":25656,"target":34962},{"buffer":0,"byteLength":1496,"byteOffset":27152,"target":34962},{"buffer":0,"byteLength":1320,"byteOffset":28648,"target":34963},{"buffer":0,"byteLength":1584,"byteOffset":29968,"target":34962},{"buffer":0,"byteLength":1584,"byteOffset":31552,"target":34962},{"buffer":0,"byteLength":2112,"byteOffset":33136,"target":34962},{"buffer":0,"byteLength":1056,"byteOffset":35248,"target":34962},{"buffer":0,"byteLength":1056,"byteOffset":36304,"target":34962},{"buffer":0,"byteLength":660,"byteOffset":37360,"target":34963},{"buffer":0,"byteLength":924,"byteOffset":38020,"target":34962},{"buffer":0,"byteLength":924,"byteOffset":38944,"target":34962},{"buffer":0,"byteLength":1232,"byteOffset":39868,"target":34962},{"buffer":0,"byteLength":616,"byteOffset":41100,"target":34962},{"buffer":0,"byteLength":616,"byteOffset":41716,"target":34962},{"buffer":0,"byteLength":672,"byteOffset":42332,"target":34963},{"buffer":0,"byteLength":3912,"byteOffset":43004,"target":34962},{"buffer":0,"byteLength":3912,"byteOffset":46916,"target":34962},{"buffer":0,"byteLength":2608,"byteOffset":50828,"target":34962},{"buffer":0,"byteLength":2608,"byteOffset":53436,"target":34962}],"buffers":[{"byteLength":56044,"uri":"SM_Dining_Set_Bowl.bin"}],"images":[{"name":"Detail_Normal_01","uri":"Detail_Normal_01.tga"}],"materials":[{"alphaMode":"OPAQUE","doubleSided":false,"extras":{"fromFBX":{"isTruePBR":false,"shadingModel":"Phong"}},"name":"MI_Dining_Set","normalTexture":{"index":0,"texCoord":0},"pbrMetallicRoughness":{"baseColorFactor":[0.21586050093174,0.21586050093174,0.21586050093174,1],"metallicFactor":0.400000005960464,"roughnessFactor":0.301511347293854}},{"alphaMode":"OPAQUE","doubleSided":false,"extras":{"fromFBX":{"isTruePBR":false,"shadingModel":"Lambert"}},"name":"DefaultMaterial","pbrMetallicRoughness":{"baseColorFactor":[0.5,0.5,0.5,1],"metallicFactor":0.200000002980232,"roughnessFactor":0.800000011920929}}],"meshes":[{"name":"SM_Dining_Set_Bowl_LOD0","primitives":[{"attributes":{"NORMAL":3,"POSITION":2,"TANGENT":4,"TEXCOORD_0":5,"TEXCOORD_1":6},"indices":1,"material":0,"mode":4}]},{"name":"SM_Dining_Set_Bowl_LOD1","primitives":[{"attributes":{"NORMAL":9,"POSITION":8,"TANGENT":10,"TEXCOORD_0":11,"TEXCOORD_1":12},"indices":7,"material":0,"mode":4}]},{"name":"SM_Dining_Set_Bowl_LOD2","primitives":[{"attributes":{"NORMAL":15,"POSITION":14,"TANGENT":16,"TEXCOORD_0":17,"TEXCOORD_1":18},"indices":13,"material":0,"mode":4}]},{"name":"SM_Dining_Set_Bowl_LOD3","primitives":[{"attributes":{"NORMAL":21,"POSITION":20,"TANGENT":22,"TEXCOORD_0":23,"TEXCOORD_1":24},"indices":19,"material":0,"mode":4}]},{"name":"SM_Dining_Set_Bowl_ConvexHulls","primitives":[{"attributes":{"NORMAL":27,"POSITION":26,"TEXCOORD_0":28,"TEXCOORD_1":29},"indices":25,"material":1,"mode":4}]}],"nodes":[{"children":[1,2,3,4,5],"name":"Dining_Set_Bowl_18","originalUnits":0.00999999977648258,"pivot":[0,0,0],"rotation":[0,0,0,1],"scale":[1,1,1],"translation":[0,0,0]},{"mesh":0,"name":"SM_Dining_Set_Bowl_LOD0","originalUnits":0.00999999977648258,"pivot":[0,0,0],"rotation":[0,0,0,1],"scale":[1,1,1],"translation":[0,0,0]},{"mesh":4,"name":"SM_Dining_Set_Bowl_ConvexHulls","originalUnits":0.00999999977648258,"pivot":[0,0,0],"rotation":[0,0,0,1],"scale":[1,1,1],"translation":[0,0,0]},{"mesh":1,"name":"SM_Dining_Set_Bowl_LOD1","originalUnits":0.00999999977648258,"pivot":[0,0,0],"rotation":[0,0,0,1],"scale":[1,1,1],"translation":[0,0,0]},{"mesh":2,"name":"SM_Dining_Set_Bowl_LOD2","originalUnits":0.00999999977648258,"pivot":[0,0,0],"rotation":[0,0,0,1],"scale":[1,1,1],"translation":[0,0,0]},{"mesh":3,"name":"SM_Dining_Set_Bowl_LOD3","originalUnits":0.00999999977648258,"pivot":[0,0,0],"rotation":[0,0,0,1],"scale":[1,1,1],"translation":[0,0,0]}],"samplers":[{}],"scene":0,"scenes":[{"name":"Root Scene","nodes":[0]}],"textures":[{"name":"T_Detail01_N","sampler":0,"source":0}]}