{"accessors":[{"bufferView":0,"byteOffset":0,"componentType":5126,"count":1,"max":[0],"min":[0],"type":"SCALAR"},{"bufferView":1,"byteOffset":0,"componentType":5123,"count":2136,"type":"SCALAR"},{"bufferView":2,"byteOffset":0,"componentType":5126,"count":479,"max":[1.16410148143768,2.60197710990906,0.0000000000000369763254574624],"min":[-0.00000031715356,0,-0.10123027861118],"type":"VEC3"},{"bufferView":3,"byteOffset":0,"componentType":5126,"count":479,"type":"VEC3"},{"bufferView":4,"byteOffset":0,"componentType":5126,"count":479,"type":"VEC4"},{"bufferView":5,"byteOffset":0,"componentType":5126,"count":479,"type":"VEC2"},{"bufferView":6,"byteOffset":0,"componentType":5126,"count":479,"type":"VEC2"},{"bufferView":7,"byteOffset":0,"componentType":5123,"count":1602,"type":"SCALAR"},{"bufferView":8,"byteOffset":0,"componentType":5126,"count":362,"max":[1.16410112380981,2.60197806358337,0.00000000000000255957220682604],"min":[-0.00000094739636,0,-0.10112109035254],"type":"VEC3"},{"bufferView":9,"byteOffset":0,"componentType":5126,"count":362,"type":"VEC3"},{"bufferView":10,"byteOffset":0,"componentType":5126,"count":362,"type":"VEC4"},{"bufferView":11,"byteOffset":0,"componentType":5126,"count":362,"type":"VEC2"},{"bufferView":12,"byteOffset":0,"componentType":5126,"count":362,"type":"VEC2"},{"bufferView":13,"byteOffset":0,"componentType":5123,"count":1068,"type":"SCALAR"},{"bufferView":14,"byteOffset":0,"componentType":5126,"count":273,"max":[1.16410112380981,2.60197806358337,0.00000000000000255957220682604],"min":[-0.00000094739636,0,-0.10214588046074],"type":"VEC3"},{"bufferView":15,"byteOffset":0,"componentType":5126,"count":273,"type":"VEC3"},{"bufferView":16,"byteOffset":0,"componentType":5126,"count":273,"type":"VEC4"},{"bufferView":17,"byteOffset":0,"componentType":5126,"count":273,"type":"VEC2"},{"bufferView":18,"byteOffset":0,"componentType":5126,"count":273,"type":"VEC2"},{"bufferView":19,"byteOffset":0,"componentType":5123,"count":534,"type":"SCALAR"},{"bufferView":20,"byteOffset":0,"componentType":5126,"count":181,"max":[1.16410112380981,2.60197806358337,0.00000000000000255957220682604],"min":[-0.00000094739636,0,-0.1011264026165],"type":"VEC3"},{"bufferView":21,"byteOffset":0,"componentType":5126,"count":181,"type":"VEC3"},{"bufferView":22,"byteOffset":0,"componentType":5126,"count":181,"type":"VEC4"},{"bufferView":23,"byteOffset":0,"componentType":5126,"count":181,"type":"VEC2"},{"bufferView":24,"byteOffset":0,"componentType":5126,"count":181,"type":"VEC2"},{"bufferView":25,"byteOffset":0,"componentType":5123,"count":96,"type":"SCALAR"},{"bufferView":26,"byteOffset":0,"componentType":5126,"count":78,"max":[1.17298197746277,2.61019444465637,0.0155053744092584],"min":[0.0158111471682787,-0.00795646477491,-0.09613331407309],"type":"VEC3"},{"bufferView":27,"byteOffset":0,"componentType":5126,"count":78,"type":"VEC3"},{"bufferView":28,"byteOffset":0,"componentType":5126,"count":78,"type":"VEC2"},{"bufferView":29,"byteOffset":0,"componentType":5126,"count":78,"type":"VEC2"}],"animations":[{"channels":[],"name":"Unreal Take","samplers":[]}],"asset":{"generator":"FBX2glTF v0.13.0","version":"2.0"},"bufferViews":[{"buffer":0,"byteLength":4,"byteOffset":0},{"buffer":0,"byteLength":4272,"byteOffset":4,"target":34963},{"buffer":0,"byteLength":5748,"byteOffset":4276,"target":34962},{"buffer":0,"byteLength":5748,"byteOffset":10024,"target":34962},{"buffer":0,"byteLength":7664,"byteOffset":15772,"target":34962},{"buffer":0,"byteLength":3832,"byteOffset":23436,"target":34962},{"buffer":0,"byteLength":3832,"byteOffset":27268,"target":34962},{"buffer":0,"byteLength":3204,"byteOffset":31100,"target":34963},{"buffer":0,"byteLength":4344,"byteOffset":34304,"target":34962},{"buffer":0,"byteLength":4344,"byteOffset":38648,"target":34962},{"buffer":0,"byteLength":5792,"byteOffset":42992,"target":34962},{"buffer":0,"byteLength":2896,"byteOffset":48784,"target":34962},{"buffer":0,"byteLength":2896,"byteOffset":51680,"target":34962},{"buffer":0,"byteLength":2136,"byteOffset":54576,"target":34963},{"buffer":0,"byteLength":3276,"byteOffset":56712,"target":34962},{"buffer":0,"byteLength":3276,"byteOffset":59988,"target":34962},{"buffer":0,"byteLength":4368,"byteOffset":63264,"target":34962},{"buffer":0,"byteLength":2184,"byteOffset":67632,"target":34962},{"buffer":0,"byteLength":2184,"byteOffset":69816,"target":34962},{"buffer":0,"byteLength":1068,"byteOffset":72000,"target":34963},{"buffer":0,"byteLength":2172,"byteOffset":73068,"target":34962},{"buffer":0,"byteLength":2172,"byteOffset":75240,"target":34962},{"buffer":0,"byteLength":2896,"byteOffset":77412,"target":34962},{"buffer":0,"byteLength":1448,"byteOffset":80308,"target":34962},{"buffer":0,"byteLength":1448,"byteOffset":81756,"target":34962},{"buffer":0,"byteLength":192,"byteOffset":83204,"target":34963},{"buffer":0,"byteLength":936,"byteOffset":83396,"target":34962},{"buffer":0,"byteLength":936,"byteOffset":84332,"target":34962},{"buffer":0,"byteLength":624,"byteOffset":85268,"target":34962},{"buffer":0,"byteLength":624,"byteOffset":85892,"target":34962}],"buffers":[{"byteLength":86516,"uri":"SM_Door.bin"}],"images":[{"name":"T_Doors_N","uri":"T_Doors_N.png"}],"materials":[{"alphaMode":"OPAQUE","doubleSided":false,"extras":{"fromFBX":{"isTruePBR":false,"shadingModel":"Phong"}},"name":"MI_Door","normalTexture":{"index":0,"texCoord":0},"pbrMetallicRoughness":{"baseColorFactor":[0.21586050093174,0.21586050093174,0.21586050093174,1],"metallicFactor":0.400000005960464,"roughnessFactor":0.301511347293854}},{"alphaMode":"OPAQUE","doubleSided":false,"extras":{"fromFBX":{"isTruePBR":false,"shadingModel":"Lambert"}},"name":"DefaultMaterial","pbrMetallicRoughness":{"baseColorFactor":[0.5,0.5,0.5,1],"metallicFactor":0.200000002980232,"roughnessFactor":0.800000011920929}}],"meshes":[{"name":"SM_Door_LOD0","primitives":[{"attributes":{"NORMAL":3,"POSITION":2,"TANGENT":4,"TEXCOORD_0":5,"TEXCOORD_1":6},"indices":1,"material":0,"mode":4}]},{"name":"SM_Door_LOD1","primitives":[{"attributes":{"NORMAL":9,"POSITION":8,"TANGENT":10,"TEXCOORD_0":11,"TEXCOORD_1":12},"indices":7,"material":0,"mode":4}]},{"name":"SM_Door_LOD2","primitives":[{"attributes":{"NORMAL":15,"POSITION":14,"TANGENT":16,"TEXCOORD_0":17,"TEXCOORD_1":18},"indices":13,"material":0,"mode":4}]},{"name":"SM_Door_LOD3","primitives":[{"attributes":{"NORMAL":21,"POSITION":20,"TANGENT":22,"TEXCOORD_0":23,"TEXCOORD_1":24},"indices":19,"material":0,"mode":4}]},{"name":"SM_Door_ConvexHulls","primitives":[{"attributes":{"NORMAL":27,"POSITION":26,"TEXCOORD_0":28,"TEXCOORD_1":29},"indices":25,"material":1,"mode":4}]}],"nodes":[{"children":[1,2,3,4,5],"name":"Assets_Proxy_Door_Proxy_208","originalUnits":0.00999999977648258,"pivot":[0,0,0],"rotation":[0,0,0,1],"scale":[1,1,1],"translation":[0,0,0]},{"mesh":0,"name":"SM_Door_LOD0","originalUnits":0.00999999977648258,"pivot":[0,0,0],"rotation":[0,0,0,1],"scale":[1,1,1],"translation":[0,0,0]},{"mesh":4,"name":"SM_Door_ConvexHulls","originalUnits":0.00999999977648258,"pivot":[0,0,0],"rotation":[0,0,0,1],"scale":[1,1,1],"translation":[0,0,0]},{"mesh":1,"name":"SM_Door_LOD1","originalUnits":0.00999999977648258,"pivot":[0,0,0],"rotation":[0,0,0,1],"scale":[1,1,1],"translation":[0,0,0]},{"mesh":2,"name":"SM_Door_LOD2","originalUnits":0.00999999977648258,"pivot":[0,0,0],"rotation":[0,0,0,1],"scale":[1,1,1],"translation":[0,0,0]},{"mesh":3,"name":"SM_Door_LOD3","originalUnits":0.00999999977648258,"pivot":[0,0,0],"rotation":[0,0,0,1],"scale":[1,1,1],"translation":[0,0,0]}],"samplers":[{}],"scene":0,"scenes":[{"name":"Root Scene","nodes":[0]}],"textures":[{"name":"T_Doors_N","sampler":0,"source":0}]}