{"accessors":[{"bufferView":0,"byteOffset":0,"componentType":5126,"count":1,"max":[0],"min":[0],"type":"SCALAR"},{"bufferView":1,"byteOffset":0,"componentType":5123,"count":444,"type":"SCALAR"},{"bufferView":2,"byteOffset":0,"componentType":5126,"count":180,"max":[1.2546306848526,2.70528173446655,0.0000000118526752856951],"min":[-0.09942744672298,-0.00000001185264,-0.04283583536744],"type":"VEC3"},{"bufferView":3,"byteOffset":0,"componentType":5126,"count":180,"type":"VEC3"},{"bufferView":4,"byteOffset":0,"componentType":5126,"count":180,"type":"VEC4"},{"bufferView":5,"byteOffset":0,"componentType":5126,"count":180,"type":"VEC2"},{"bufferView":6,"byteOffset":0,"componentType":5126,"count":180,"type":"VEC2"},{"bufferView":7,"byteOffset":0,"componentType":5123,"count":330,"type":"SCALAR"},{"bufferView":8,"byteOffset":0,"componentType":5126,"count":142,"max":[1.2546306848526,2.70528173446655,0.0000000118526441994504],"min":[-0.09942773729563,-0.00000001185264,-0.04283583536744],"type":"VEC3"},{"bufferView":9,"byteOffset":0,"componentType":5126,"count":142,"type":"VEC3"},{"bufferView":10,"byteOffset":0,"componentType":5126,"count":142,"type":"VEC4"},{"bufferView":11,"byteOffset":0,"componentType":5126,"count":142,"type":"VEC2"},{"bufferView":12,"byteOffset":0,"componentType":5126,"count":142,"type":"VEC2"},{"bufferView":13,"byteOffset":0,"componentType":5123,"count":222,"type":"SCALAR"},{"bufferView":14,"byteOffset":0,"componentType":5126,"count":106,"max":[1.25463056564331,2.70528244972229,0.0000000118526424230936],"min":[-0.09942869096994,-0.00000001185264,-0.04283583536744],"type":"VEC3"},{"bufferView":15,"byteOffset":0,"componentType":5126,"count":106,"type":"VEC3"},{"bufferView":16,"byteOffset":0,"componentType":5126,"count":106,"type":"VEC4"},{"bufferView":17,"byteOffset":0,"componentType":5126,"count":106,"type":"VEC2"},{"bufferView":18,"byteOffset":0,"componentType":5126,"count":106,"type":"VEC2"},{"bufferView":19,"byteOffset":0,"componentType":5123,"count":108,"type":"SCALAR"},{"bufferView":20,"byteOffset":0,"componentType":5126,"count":66,"max":[1.25463056564331,2.70528244972229,0.0000000118526424230936],"min":[-0.09942869096994,-0.00000655835356,-0.04283583536744],"type":"VEC3"},{"bufferView":21,"byteOffset":0,"componentType":5126,"count":66,"type":"VEC3"},{"bufferView":22,"byteOffset":0,"componentType":5126,"count":66,"type":"VEC4"},{"bufferView":23,"byteOffset":0,"componentType":5126,"count":66,"type":"VEC2"},{"bufferView":24,"byteOffset":0,"componentType":5126,"count":66,"type":"VEC2"},{"bufferView":25,"byteOffset":0,"componentType":5123,"count":126,"type":"SCALAR"},{"bufferView":26,"byteOffset":0,"componentType":5126,"count":106,"max":[1.25723218917847,2.70786428451538,0.00138611532747746],"min":[-0.10061667114496,-0.00261292653158,-0.04612786322832],"type":"VEC3"},{"bufferView":27,"byteOffset":0,"componentType":5126,"count":106,"type":"VEC3"},{"bufferView":28,"byteOffset":0,"componentType":5126,"count":106,"type":"VEC2"},{"bufferView":29,"byteOffset":0,"componentType":5126,"count":106,"type":"VEC2"}],"animations":[{"channels":[],"name":"Unreal Take","samplers":[]}],"asset":{"generator":"FBX2glTF v0.13.0","version":"2.0"},"bufferViews":[{"buffer":0,"byteLength":4,"byteOffset":0},{"buffer":0,"byteLength":888,"byteOffset":4,"target":34963},{"buffer":0,"byteLength":2160,"byteOffset":892,"target":34962},{"buffer":0,"byteLength":2160,"byteOffset":3052,"target":34962},{"buffer":0,"byteLength":2880,"byteOffset":5212,"target":34962},{"buffer":0,"byteLength":1440,"byteOffset":8092,"target":34962},{"buffer":0,"byteLength":1440,"byteOffset":9532,"target":34962},{"buffer":0,"byteLength":660,"byteOffset":10972,"target":34963},{"buffer":0,"byteLength":1704,"byteOffset":11632,"target":34962},{"buffer":0,"byteLength":1704,"byteOffset":13336,"target":34962},{"buffer":0,"byteLength":2272,"byteOffset":15040,"target":34962},{"buffer":0,"byteLength":1136,"byteOffset":17312,"target":34962},{"buffer":0,"byteLength":1136,"byteOffset":18448,"target":34962},{"buffer":0,"byteLength":444,"byteOffset":19584,"target":34963},{"buffer":0,"byteLength":1272,"byteOffset":20028,"target":34962},{"buffer":0,"byteLength":1272,"byteOffset":21300,"target":34962},{"buffer":0,"byteLength":1696,"byteOffset":22572,"target":34962},{"buffer":0,"byteLength":848,"byteOffset":24268,"target":34962},{"buffer":0,"byteLength":848,"byteOffset":25116,"target":34962},{"buffer":0,"byteLength":216,"byteOffset":25964,"target":34963},{"buffer":0,"byteLength":792,"byteOffset":26180,"target":34962},{"buffer":0,"byteLength":792,"byteOffset":26972,"target":34962},{"buffer":0,"byteLength":1056,"byteOffset":27764,"target":34962},{"buffer":0,"byteLength":528,"byteOffset":28820,"target":34962},{"buffer":0,"byteLength":528,"byteOffset":29348,"target":34962},{"buffer":0,"byteLength":252,"byteOffset":29876,"target":34963},{"buffer":0,"byteLength":1272,"byteOffset":30128,"target":34962},{"buffer":0,"byteLength":1272,"byteOffset":31400,"target":34962},{"buffer":0,"byteLength":848,"byteOffset":32672,"target":34962},{"buffer":0,"byteLength":848,"byteOffset":33520,"target":34962}],"buffers":[{"byteLength":34368,"uri":"SM_Door_Frame.bin"}],"images":[{"name":"T_Doors_N","uri":"T_Doors_N.png"}],"materials":[{"alphaMode":"OPAQUE","doubleSided":false,"extras":{"fromFBX":{"isTruePBR":false,"shadingModel":"Phong"}},"name":"MI_Door","normalTexture":{"index":0,"texCoord":0},"pbrMetallicRoughness":{"baseColorFactor":[0.21586050093174,0.21586050093174,0.21586050093174,1],"metallicFactor":0.400000005960464,"roughnessFactor":0.301511347293854}},{"alphaMode":"OPAQUE","doubleSided":false,"extras":{"fromFBX":{"isTruePBR":false,"shadingModel":"Lambert"}},"name":"DefaultMaterial","pbrMetallicRoughness":{"baseColorFactor":[0.5,0.5,0.5,1],"metallicFactor":0.200000002980232,"roughnessFactor":0.800000011920929}}],"meshes":[{"name":"SM_Door_Frame_LOD0","primitives":[{"attributes":{"NORMAL":3,"POSITION":2,"TANGENT":4,"TEXCOORD_0":5,"TEXCOORD_1":6},"indices":1,"material":0,"mode":4}]},{"name":"SM_Door_Frame_LOD1","primitives":[{"attributes":{"NORMAL":9,"POSITION":8,"TANGENT":10,"TEXCOORD_0":11,"TEXCOORD_1":12},"indices":7,"material":0,"mode":4}]},{"name":"SM_Door_Frame_LOD2","primitives":[{"attributes":{"NORMAL":15,"POSITION":14,"TANGENT":16,"TEXCOORD_0":17,"TEXCOORD_1":18},"indices":13,"material":0,"mode":4}]},{"name":"SM_Door_Frame_LOD3","primitives":[{"attributes":{"NORMAL":21,"POSITION":20,"TANGENT":22,"TEXCOORD_0":23,"TEXCOORD_1":24},"indices":19,"material":0,"mode":4}]},{"name":"SM_Door_Frame_ConvexHulls","primitives":[{"attributes":{"NORMAL":27,"POSITION":26,"TEXCOORD_0":28,"TEXCOORD_1":29},"indices":25,"material":1,"mode":4}]}],"nodes":[{"children":[1,2,3,4,5],"name":"Door_Frame_A2","originalUnits":0.00999999977648258,"pivot":[0,0,0],"rotation":[0,0,0,1],"scale":[1,1,1],"translation":[0,0,0]},{"mesh":0,"name":"SM_Door_Frame_LOD0","originalUnits":0.00999999977648258,"pivot":[0,0,0],"rotation":[0,0,0,1],"scale":[1,1,1],"translation":[0,0,0]},{"mesh":4,"name":"SM_Door_Frame_ConvexHulls","originalUnits":0.00999999977648258,"pivot":[0,0,0],"rotation":[0,0,0,1],"scale":[1,1,1],"translation":[0,0,0]},{"mesh":1,"name":"SM_Door_Frame_LOD1","originalUnits":0.00999999977648258,"pivot":[0,0,0],"rotation":[0,0,0,1],"scale":[1,1,1],"translation":[0,0,0]},{"mesh":2,"name":"SM_Door_Frame_LOD2","originalUnits":0.00999999977648258,"pivot":[0,0,0],"rotation":[0,0,0,1],"scale":[1,1,1],"translation":[0,0,0]},{"mesh":3,"name":"SM_Door_Frame_LOD3","originalUnits":0.00999999977648258,"pivot":[0,0,0],"rotation":[0,0,0,1],"scale":[1,1,1],"translation":[0,0,0]}],"samplers":[{}],"scene":0,"scenes":[{"name":"Root Scene","nodes":[0]}],"textures":[{"name":"T_Doors_N","sampler":0,"source":0}]}