{"accessors":[{"bufferView":0,"byteOffset":0,"componentType":5126,"count":1,"max":[0],"min":[0],"type":"SCALAR"},{"bufferView":1,"byteOffset":0,"componentType":5123,"count":2568,"type":"SCALAR"},{"bufferView":2,"byteOffset":0,"componentType":5126,"count":611,"max":[0.549434661865234,0.50964629650116,0.783604621887207],"min":[-0.53915643692017,-0.50964623689652,-0.78360462188721],"type":"VEC3"},{"bufferView":3,"byteOffset":0,"componentType":5126,"count":611,"type":"VEC3"},{"bufferView":4,"byteOffset":0,"componentType":5126,"count":611,"type":"VEC4"},{"bufferView":5,"byteOffset":0,"componentType":5126,"count":611,"type":"VEC2"},{"bufferView":6,"byteOffset":0,"componentType":5126,"count":611,"type":"VEC2"},{"bufferView":7,"byteOffset":0,"componentType":5123,"count":1926,"type":"SCALAR"},{"bufferView":8,"byteOffset":0,"componentType":5126,"count":496,"max":[0.549444735050201,0.50964629650116,0.783610761165619],"min":[-0.53900498151779,-0.50964623689652,-0.78361541032791],"type":"VEC3"},{"bufferView":9,"byteOffset":0,"componentType":5126,"count":496,"type":"VEC3"},{"bufferView":10,"byteOffset":0,"componentType":5126,"count":496,"type":"VEC4"},{"bufferView":11,"byteOffset":0,"componentType":5126,"count":496,"type":"VEC2"},{"bufferView":12,"byteOffset":0,"componentType":5126,"count":496,"type":"VEC2"},{"bufferView":13,"byteOffset":0,"componentType":5123,"count":1284,"type":"SCALAR"},{"bufferView":14,"byteOffset":0,"componentType":5126,"count":381,"max":[0.549444735050201,0.50964629650116,0.783610761165619],"min":[-0.54105043411255,-0.50964623689652,-0.78361541032791],"type":"VEC3"},{"bufferView":15,"byteOffset":0,"componentType":5126,"count":381,"type":"VEC3"},{"bufferView":16,"byteOffset":0,"componentType":5126,"count":381,"type":"VEC4"},{"bufferView":17,"byteOffset":0,"componentType":5126,"count":381,"type":"VEC2"},{"bufferView":18,"byteOffset":0,"componentType":5126,"count":381,"type":"VEC2"},{"bufferView":19,"byteOffset":0,"componentType":5123,"count":642,"type":"SCALAR"},{"bufferView":20,"byteOffset":0,"componentType":5126,"count":271,"max":[0.549444735050201,0.509733021259308,0.783722460269928],"min":[-0.54047429561615,-0.50964623689652,-0.78368210792542],"type":"VEC3"},{"bufferView":21,"byteOffset":0,"componentType":5126,"count":271,"type":"VEC3"},{"bufferView":22,"byteOffset":0,"componentType":5126,"count":271,"type":"VEC4"},{"bufferView":23,"byteOffset":0,"componentType":5126,"count":271,"type":"VEC2"},{"bufferView":24,"byteOffset":0,"componentType":5126,"count":271,"type":"VEC2"},{"bufferView":25,"byteOffset":0,"componentType":5123,"count":162,"type":"SCALAR"},{"bufferView":26,"byteOffset":0,"componentType":5126,"count":148,"max":[0.562989234924316,0.509646236896515,0.797156631946564],"min":[-0.56052738428116,-0.52908211946487,-0.7970358133316],"type":"VEC3"},{"bufferView":27,"byteOffset":0,"componentType":5126,"count":148,"type":"VEC3"},{"bufferView":28,"byteOffset":0,"componentType":5126,"count":148,"type":"VEC2"},{"bufferView":29,"byteOffset":0,"componentType":5126,"count":148,"type":"VEC2"}],"animations":[{"channels":[],"name":"Unreal Take","samplers":[]}],"asset":{"generator":"FBX2glTF v0.13.0","version":"2.0"},"bufferViews":[{"buffer":0,"byteLength":4,"byteOffset":0},{"buffer":0,"byteLength":5136,"byteOffset":4,"target":34963},{"buffer":0,"byteLength":7332,"byteOffset":5140,"target":34962},{"buffer":0,"byteLength":7332,"byteOffset":12472,"target":34962},{"buffer":0,"byteLength":9776,"byteOffset":19804,"target":34962},{"buffer":0,"byteLength":4888,"byteOffset":29580,"target":34962},{"buffer":0,"byteLength":4888,"byteOffset":34468,"target":34962},{"buffer":0,"byteLength":3852,"byteOffset":39356,"target":34963},{"buffer":0,"byteLength":5952,"byteOffset":43208,"target":34962},{"buffer":0,"byteLength":5952,"byteOffset":49160,"target":34962},{"buffer":0,"byteLength":7936,"byteOffset":55112,"target":34962},{"buffer":0,"byteLength":3968,"byteOffset":63048,"target":34962},{"buffer":0,"byteLength":3968,"byteOffset":67016,"target":34962},{"buffer":0,"byteLength":2568,"byteOffset":70984,"target":34963},{"buffer":0,"byteLength":4572,"byteOffset":73552,"target":34962},{"buffer":0,"byteLength":4572,"byteOffset":78124,"target":34962},{"buffer":0,"byteLength":6096,"byteOffset":82696,"target":34962},{"buffer":0,"byteLength":3048,"byteOffset":88792,"target":34962},{"buffer":0,"byteLength":3048,"byteOffset":91840,"target":34962},{"buffer":0,"byteLength":1284,"byteOffset":94888,"target":34963},{"buffer":0,"byteLength":3252,"byteOffset":96172,"target":34962},{"buffer":0,"byteLength":3252,"byteOffset":99424,"target":34962},{"buffer":0,"byteLength":4336,"byteOffset":102676,"target":34962},{"buffer":0,"byteLength":2168,"byteOffset":107012,"target":34962},{"buffer":0,"byteLength":2168,"byteOffset":109180,"target":34962},{"buffer":0,"byteLength":324,"byteOffset":111348,"target":34963},{"buffer":0,"byteLength":1776,"byteOffset":111672,"target":34962},{"buffer":0,"byteLength":1776,"byteOffset":113448,"target":34962},{"buffer":0,"byteLength":1184,"byteOffset":115224,"target":34962},{"buffer":0,"byteLength":1184,"byteOffset":116408,"target":34962}],"buffers":[{"byteLength":117592,"uri":"SM_Desk.bin"}],"images":[{"name":"T_Furniture_N","uri":"T_Furniture_N.png"}],"materials":[{"alphaMode":"OPAQUE","doubleSided":false,"extras":{"fromFBX":{"isTruePBR":false,"shadingModel":"Phong"}},"name":"MI_Furniture","normalTexture":{"index":0,"texCoord":0},"pbrMetallicRoughness":{"baseColorFactor":[0.21586050093174,0.21586050093174,0.21586050093174,1],"metallicFactor":0.400000005960464,"roughnessFactor":0.301511347293854}},{"alphaMode":"OPAQUE","doubleSided":false,"extras":{"fromFBX":{"isTruePBR":false,"shadingModel":"Lambert"}},"name":"DefaultMaterial","pbrMetallicRoughness":{"baseColorFactor":[0.5,0.5,0.5,1],"metallicFactor":0.200000002980232,"roughnessFactor":0.800000011920929}}],"meshes":[{"name":"SM_Desk_LOD0","primitives":[{"attributes":{"NORMAL":3,"POSITION":2,"TANGENT":4,"TEXCOORD_0":5,"TEXCOORD_1":6},"indices":1,"material":0,"mode":4}]},{"name":"SM_Desk_LOD1","primitives":[{"attributes":{"NORMAL":9,"POSITION":8,"TANGENT":10,"TEXCOORD_0":11,"TEXCOORD_1":12},"indices":7,"material":0,"mode":4}]},{"name":"SM_Desk_LOD2","primitives":[{"attributes":{"NORMAL":15,"POSITION":14,"TANGENT":16,"TEXCOORD_0":17,"TEXCOORD_1":18},"indices":13,"material":0,"mode":4}]},{"name":"SM_Desk_LOD3","primitives":[{"attributes":{"NORMAL":21,"POSITION":20,"TANGENT":22,"TEXCOORD_0":23,"TEXCOORD_1":24},"indices":19,"material":0,"mode":4}]},{"name":"SM_Desk_ConvexHulls","primitives":[{"attributes":{"NORMAL":27,"POSITION":26,"TEXCOORD_0":28,"TEXCOORD_1":29},"indices":25,"material":1,"mode":4}]}],"nodes":[{"children":[1,2,3,4,5],"name":"Assets_Proxy_LR_Desk_Proxy2_155","originalUnits":0.00999999977648258,"pivot":[0,0,0],"rotation":[0,0,0,1],"scale":[1,1,1],"translation":[0,0,0]},{"mesh":0,"name":"SM_Desk_LOD0","originalUnits":0.00999999977648258,"pivot":[0,0,0],"rotation":[0,0,0,1],"scale":[1,1,1],"translation":[0,0,0]},{"mesh":4,"name":"SM_Desk_ConvexHulls","originalUnits":0.00999999977648258,"pivot":[0,0,0],"rotation":[0,0,0,1],"scale":[1,1,1],"translation":[0,0,0]},{"mesh":1,"name":"SM_Desk_LOD1","originalUnits":0.00999999977648258,"pivot":[0,0,0],"rotation":[0,0,0,1],"scale":[1,1,1],"translation":[0,0,0]},{"mesh":2,"name":"SM_Desk_LOD2","originalUnits":0.00999999977648258,"pivot":[0,0,0],"rotation":[0,0,0,1],"scale":[1,1,1],"translation":[0,0,0]},{"mesh":3,"name":"SM_Desk_LOD3","originalUnits":0.00999999977648258,"pivot":[0,0,0],"rotation":[0,0,0,1],"scale":[1,1,1],"translation":[0,0,0]}],"samplers":[{}],"scene":0,"scenes":[{"name":"Root Scene","nodes":[0]}],"textures":[{"name":"T_Furniture_N","sampler":0,"source":0}]}