{"accessors":[{"bufferView":0,"byteOffset":0,"componentType":5126,"count":1,"max":[0],"min":[0],"type":"SCALAR"},{"bufferView":1,"byteOffset":0,"componentType":5123,"count":18000,"type":"SCALAR"},{"bufferView":2,"byteOffset":0,"componentType":5126,"count":3506,"max":[0.0516158491373062,0.149982824921608,0.0516160912811756],"min":[-0.05161588639021,-0.00157132116146,-0.05161606520414],"type":"VEC3"},{"bufferView":3,"byteOffset":0,"componentType":5126,"count":3506,"type":"VEC3"},{"bufferView":4,"byteOffset":0,"componentType":5126,"count":3506,"type":"VEC4"},{"bufferView":5,"byteOffset":0,"componentType":5126,"count":3506,"type":"VEC2"},{"bufferView":6,"byteOffset":0,"componentType":5126,"count":3506,"type":"VEC2"},{"bufferView":7,"byteOffset":0,"componentType":5123,"count":13497,"type":"SCALAR"},{"bufferView":8,"byteOffset":0,"componentType":5126,"count":2728,"max":[0.0516158491373062,0.149982824921608,0.0517325215041637],"min":[-0.05171440541744,-0.00157132116146,-0.05161606520414],"type":"VEC3"},{"bufferView":9,"byteOffset":0,"componentType":5126,"count":2728,"type":"VEC3"},{"bufferView":10,"byteOffset":0,"componentType":5126,"count":2728,"type":"VEC4"},{"bufferView":11,"byteOffset":0,"componentType":5126,"count":2728,"type":"VEC2"},{"bufferView":12,"byteOffset":0,"componentType":5126,"count":2728,"type":"VEC2"},{"bufferView":13,"byteOffset":0,"componentType":5123,"count":9000,"type":"SCALAR"},{"bufferView":14,"byteOffset":0,"componentType":5126,"count":1896,"max":[0.0516158491373062,0.150009453296661,0.0520210973918438],"min":[-0.05171440541744,-0.0015985686332,-0.05161606520414],"type":"VEC3"},{"bufferView":15,"byteOffset":0,"componentType":5126,"count":1896,"type":"VEC3"},{"bufferView":16,"byteOffset":0,"componentType":5126,"count":1896,"type":"VEC4"},{"bufferView":17,"byteOffset":0,"componentType":5126,"count":1896,"type":"VEC2"},{"bufferView":18,"byteOffset":0,"componentType":5126,"count":1896,"type":"VEC2"},{"bufferView":19,"byteOffset":0,"componentType":5123,"count":4500,"type":"SCALAR"},{"bufferView":20,"byteOffset":0,"componentType":5126,"count":979,"max":[0.0516158491373062,0.150365993380547,0.0520210973918438],"min":[-0.05229511111975,-0.00195785076357,-0.05203416198492],"type":"VEC3"},{"bufferView":21,"byteOffset":0,"componentType":5126,"count":979,"type":"VEC3"},{"bufferView":22,"byteOffset":0,"componentType":5126,"count":979,"type":"VEC4"},{"bufferView":23,"byteOffset":0,"componentType":5126,"count":979,"type":"VEC2"},{"bufferView":24,"byteOffset":0,"componentType":5126,"count":979,"type":"VEC2"},{"bufferView":25,"byteOffset":0,"componentType":5123,"count":84,"type":"SCALAR"},{"bufferView":26,"byteOffset":0,"componentType":5126,"count":76,"max":[0.0503823980689049,0.148099675774574,0.0509165897965431],"min":[-0.0512236431241,0.00037465753848664,-0.05104768276215],"type":"VEC3"},{"bufferView":27,"byteOffset":0,"componentType":5126,"count":76,"type":"VEC3"},{"bufferView":28,"byteOffset":0,"componentType":5126,"count":76,"type":"VEC2"},{"bufferView":29,"byteOffset":0,"componentType":5126,"count":76,"type":"VEC2"}],"animations":[{"channels":[],"name":"Unreal Take","samplers":[]}],"asset":{"generator":"FBX2glTF v0.13.0","version":"2.0"},"bufferViews":[{"buffer":0,"byteLength":4,"byteOffset":0},{"buffer":0,"byteLength":36000,"byteOffset":4,"target":34963},{"buffer":0,"byteLength":42072,"byteOffset":36004,"target":34962},{"buffer":0,"byteLength":42072,"byteOffset":78076,"target":34962},{"buffer":0,"byteLength":56096,"byteOffset":120148,"target":34962},{"buffer":0,"byteLength":28048,"byteOffset":176244,"target":34962},{"buffer":0,"byteLength":28048,"byteOffset":204292,"target":34962},{"buffer":0,"byteLength":26994,"byteOffset":232340,"target":34963},{"buffer":0,"byteLength":32736,"byteOffset":259336,"target":34962},{"buffer":0,"byteLength":32736,"byteOffset":292072,"target":34962},{"buffer":0,"byteLength":43648,"byteOffset":324808,"target":34962},{"buffer":0,"byteLength":21824,"byteOffset":368456,"target":34962},{"buffer":0,"byteLength":21824,"byteOffset":390280,"target":34962},{"buffer":0,"byteLength":18000,"byteOffset":412104,"target":34963},{"buffer":0,"byteLength":22752,"byteOffset":430104,"target":34962},{"buffer":0,"byteLength":22752,"byteOffset":452856,"target":34962},{"buffer":0,"byteLength":30336,"byteOffset":475608,"target":34962},{"buffer":0,"byteLength":15168,"byteOffset":505944,"target":34962},{"buffer":0,"byteLength":15168,"byteOffset":521112,"target":34962},{"buffer":0,"byteLength":9000,"byteOffset":536280,"target":34963},{"buffer":0,"byteLength":11748,"byteOffset":545280,"target":34962},{"buffer":0,"byteLength":11748,"byteOffset":557028,"target":34962},{"buffer":0,"byteLength":15664,"byteOffset":568776,"target":34962},{"buffer":0,"byteLength":7832,"byteOffset":584440,"target":34962},{"buffer":0,"byteLength":7832,"byteOffset":592272,"target":34962},{"buffer":0,"byteLength":168,"byteOffset":600104,"target":34963},{"buffer":0,"byteLength":912,"byteOffset":600272,"target":34962},{"buffer":0,"byteLength":912,"byteOffset":601184,"target":34962},{"buffer":0,"byteLength":608,"byteOffset":602096,"target":34962},{"buffer":0,"byteLength":608,"byteOffset":602704,"target":34962}],"buffers":[{"byteLength":603312,"uri":"SM_FoodCan05.bin"}],"images":[{"name":"FlatNormal","uri":"FlatNormal.tga"}],"materials":[{"alphaMode":"OPAQUE","doubleSided":false,"extras":{"fromFBX":{"isTruePBR":false,"shadingModel":"Phong"}},"name":"MI_Canned_Foods","normalTexture":{"index":0,"texCoord":0},"pbrMetallicRoughness":{"baseColorFactor":[0.21586050093174,0.21586050093174,0.21586050093174,1],"metallicFactor":0.400000005960464,"roughnessFactor":0.301511347293854}},{"alphaMode":"OPAQUE","doubleSided":false,"extras":{"fromFBX":{"isTruePBR":false,"shadingModel":"Lambert"}},"name":"DefaultMaterial","pbrMetallicRoughness":{"baseColorFactor":[0.5,0.5,0.5,1],"metallicFactor":0.200000002980232,"roughnessFactor":0.800000011920929}}],"meshes":[{"name":"SM_FoodCan05_LOD0","primitives":[{"attributes":{"NORMAL":3,"POSITION":2,"TANGENT":4,"TEXCOORD_0":5,"TEXCOORD_1":6},"indices":1,"material":0,"mode":4}]},{"name":"SM_FoodCan05_LOD1","primitives":[{"attributes":{"NORMAL":9,"POSITION":8,"TANGENT":10,"TEXCOORD_0":11,"TEXCOORD_1":12},"indices":7,"material":0,"mode":4}]},{"name":"SM_FoodCan05_LOD2","primitives":[{"attributes":{"NORMAL":15,"POSITION":14,"TANGENT":16,"TEXCOORD_0":17,"TEXCOORD_1":18},"indices":13,"material":0,"mode":4}]},{"name":"SM_FoodCan05_LOD3","primitives":[{"attributes":{"NORMAL":21,"POSITION":20,"TANGENT":22,"TEXCOORD_0":23,"TEXCOORD_1":24},"indices":19,"material":0,"mode":4}]},{"name":"SM_FoodCan05_ConvexHulls","primitives":[{"attributes":{"NORMAL":27,"POSITION":26,"TEXCOORD_0":28,"TEXCOORD_1":29},"indices":25,"material":1,"mode":4}]}],"nodes":[{"children":[1,2,3,4,5],"name":"SM_FoodCan11_60","originalUnits":0.00999999977648258,"pivot":[0,0,0],"rotation":[0,0,0,1],"scale":[1,1,1],"translation":[0,0,0]},{"mesh":0,"name":"SM_FoodCan05_LOD0","originalUnits":0.00999999977648258,"pivot":[0,0,0],"rotation":[0,0,0,1],"scale":[1,1,1],"translation":[0,0,0]},{"mesh":4,"name":"SM_FoodCan05_ConvexHulls","originalUnits":0.00999999977648258,"pivot":[0,0,0],"rotation":[0,0,0,1],"scale":[1,1,1],"translation":[0,0,0]},{"mesh":1,"name":"SM_FoodCan05_LOD1","originalUnits":0.00999999977648258,"pivot":[0,0,0],"rotation":[0,0,0,1],"scale":[1,1,1],"translation":[0,0,0]},{"mesh":2,"name":"SM_FoodCan05_LOD2","originalUnits":0.00999999977648258,"pivot":[0,0,0],"rotation":[0,0,0,1],"scale":[1,1,1],"translation":[0,0,0]},{"mesh":3,"name":"SM_FoodCan05_LOD3","originalUnits":0.00999999977648258,"pivot":[0,0,0],"rotation":[0,0,0,1],"scale":[1,1,1],"translation":[0,0,0]}],"samplers":[{}],"scene":0,"scenes":[{"name":"Root Scene","nodes":[0]}],"textures":[{"name":"T_Default_N","sampler":0,"source":0}]}