{"accessors":[{"bufferView":0,"byteOffset":0,"componentType":5126,"count":1,"max":[0],"min":[0],"type":"SCALAR"},{"bufferView":1,"byteOffset":0,"componentType":5123,"count":450,"type":"SCALAR"},{"bufferView":2,"byteOffset":0,"componentType":5126,"count":112,"max":[0.0343476682901382,0.0601027198135853,0.033578310161829],"min":[-0.03389576822519,-0.00205864803866,-0.03566762432456],"type":"VEC3"},{"bufferView":3,"byteOffset":0,"componentType":5126,"count":112,"type":"VEC3"},{"bufferView":4,"byteOffset":0,"componentType":5126,"count":112,"type":"VEC4"},{"bufferView":5,"byteOffset":0,"componentType":5126,"count":112,"type":"VEC2"},{"bufferView":6,"byteOffset":0,"componentType":5126,"count":112,"type":"VEC2"},{"bufferView":7,"byteOffset":0,"componentType":5123,"count":336,"type":"SCALAR"},{"bufferView":8,"byteOffset":0,"componentType":5126,"count":91,"max":[0.0345858596265316,0.0601027198135853,0.033578310161829],"min":[-0.03389576822519,-0.00205864803866,-0.03566762432456],"type":"VEC3"},{"bufferView":9,"byteOffset":0,"componentType":5126,"count":91,"type":"VEC3"},{"bufferView":10,"byteOffset":0,"componentType":5126,"count":91,"type":"VEC4"},{"bufferView":11,"byteOffset":0,"componentType":5126,"count":91,"type":"VEC2"},{"bufferView":12,"byteOffset":0,"componentType":5126,"count":91,"type":"VEC2"},{"bufferView":13,"byteOffset":0,"componentType":5123,"count":222,"type":"SCALAR"},{"bufferView":14,"byteOffset":0,"componentType":5126,"count":66,"max":[0.0345858596265316,0.060364942997694,0.033669538795948],"min":[-0.03389576822519,-0.00205864803866,-0.03559776395559],"type":"VEC3"},{"bufferView":15,"byteOffset":0,"componentType":5126,"count":66,"type":"VEC3"},{"bufferView":16,"byteOffset":0,"componentType":5126,"count":66,"type":"VEC4"},{"bufferView":17,"byteOffset":0,"componentType":5126,"count":66,"type":"VEC2"},{"bufferView":18,"byteOffset":0,"componentType":5126,"count":66,"type":"VEC2"},{"bufferView":19,"byteOffset":0,"componentType":5123,"count":114,"type":"SCALAR"},{"bufferView":20,"byteOffset":0,"componentType":5126,"count":41,"max":[0.0340110249817371,0.0612836554646492,0.0337141416966915],"min":[-0.03548934683204,-0.00205864803866,-0.03206457942724],"type":"VEC3"},{"bufferView":21,"byteOffset":0,"componentType":5126,"count":41,"type":"VEC3"},{"bufferView":22,"byteOffset":0,"componentType":5126,"count":41,"type":"VEC4"},{"bufferView":23,"byteOffset":0,"componentType":5126,"count":41,"type":"VEC2"},{"bufferView":24,"byteOffset":0,"componentType":5126,"count":41,"type":"VEC2"},{"bufferView":25,"byteOffset":0,"componentType":5123,"count":84,"type":"SCALAR"},{"bufferView":26,"byteOffset":0,"componentType":5126,"count":84,"max":[0.0318589806556702,0.0598169043660164,0.0305168237537146],"min":[-0.03254516422749,-0.00194539036602,-0.02900113351643],"type":"VEC3"},{"bufferView":27,"byteOffset":0,"componentType":5126,"count":84,"type":"VEC3"},{"bufferView":28,"byteOffset":0,"componentType":5126,"count":84,"type":"VEC2"},{"bufferView":29,"byteOffset":0,"componentType":5126,"count":84,"type":"VEC2"}],"animations":[{"channels":[],"name":"Unreal Take","samplers":[]}],"asset":{"generator":"FBX2glTF v0.13.0","version":"2.0"},"bufferViews":[{"buffer":0,"byteLength":4,"byteOffset":0},{"buffer":0,"byteLength":900,"byteOffset":4,"target":34963},{"buffer":0,"byteLength":1344,"byteOffset":904,"target":34962},{"buffer":0,"byteLength":1344,"byteOffset":2248,"target":34962},{"buffer":0,"byteLength":1792,"byteOffset":3592,"target":34962},{"buffer":0,"byteLength":896,"byteOffset":5384,"target":34962},{"buffer":0,"byteLength":896,"byteOffset":6280,"target":34962},{"buffer":0,"byteLength":672,"byteOffset":7176,"target":34963},{"buffer":0,"byteLength":1092,"byteOffset":7848,"target":34962},{"buffer":0,"byteLength":1092,"byteOffset":8940,"target":34962},{"buffer":0,"byteLength":1456,"byteOffset":10032,"target":34962},{"buffer":0,"byteLength":728,"byteOffset":11488,"target":34962},{"buffer":0,"byteLength":728,"byteOffset":12216,"target":34962},{"buffer":0,"byteLength":444,"byteOffset":12944,"target":34963},{"buffer":0,"byteLength":792,"byteOffset":13388,"target":34962},{"buffer":0,"byteLength":792,"byteOffset":14180,"target":34962},{"buffer":0,"byteLength":1056,"byteOffset":14972,"target":34962},{"buffer":0,"byteLength":528,"byteOffset":16028,"target":34962},{"buffer":0,"byteLength":528,"byteOffset":16556,"target":34962},{"buffer":0,"byteLength":228,"byteOffset":17084,"target":34963},{"buffer":0,"byteLength":492,"byteOffset":17312,"target":34962},{"buffer":0,"byteLength":492,"byteOffset":17804,"target":34962},{"buffer":0,"byteLength":656,"byteOffset":18296,"target":34962},{"buffer":0,"byteLength":328,"byteOffset":18952,"target":34962},{"buffer":0,"byteLength":328,"byteOffset":19280,"target":34962},{"buffer":0,"byteLength":168,"byteOffset":19608,"target":34963},{"buffer":0,"byteLength":1008,"byteOffset":19776,"target":34962},{"buffer":0,"byteLength":1008,"byteOffset":20784,"target":34962},{"buffer":0,"byteLength":672,"byteOffset":21792,"target":34962},{"buffer":0,"byteLength":672,"byteOffset":22464,"target":34962}],"buffers":[{"byteLength":23136,"uri":"SM_Food_SM_Clementine.bin"}],"images":[{"name":"T_Food_N","uri":"T_Food_N.tga"}],"materials":[{"alphaMode":"OPAQUE","doubleSided":false,"extras":{"fromFBX":{"isTruePBR":false,"shadingModel":"Phong"}},"name":"MI_Food","normalTexture":{"index":0,"texCoord":0},"pbrMetallicRoughness":{"baseColorFactor":[0.21586050093174,0.21586050093174,0.21586050093174,1],"metallicFactor":0.400000005960464,"roughnessFactor":0.301511347293854}},{"alphaMode":"OPAQUE","doubleSided":false,"extras":{"fromFBX":{"isTruePBR":false,"shadingModel":"Lambert"}},"name":"DefaultMaterial","pbrMetallicRoughness":{"baseColorFactor":[0.5,0.5,0.5,1],"metallicFactor":0.200000002980232,"roughnessFactor":0.800000011920929}}],"meshes":[{"name":"SM_Food_SM_Clementine_LOD0","primitives":[{"attributes":{"NORMAL":3,"POSITION":2,"TANGENT":4,"TEXCOORD_0":5,"TEXCOORD_1":6},"indices":1,"material":0,"mode":4}]},{"name":"SM_Food_SM_Clementine_LOD1","primitives":[{"attributes":{"NORMAL":9,"POSITION":8,"TANGENT":10,"TEXCOORD_0":11,"TEXCOORD_1":12},"indices":7,"material":0,"mode":4}]},{"name":"SM_Food_SM_Clementine_LOD2","primitives":[{"attributes":{"NORMAL":15,"POSITION":14,"TANGENT":16,"TEXCOORD_0":17,"TEXCOORD_1":18},"indices":13,"material":0,"mode":4}]},{"name":"SM_Food_SM_Clementine_LOD3","primitives":[{"attributes":{"NORMAL":21,"POSITION":20,"TANGENT":22,"TEXCOORD_0":23,"TEXCOORD_1":24},"indices":19,"material":0,"mode":4}]},{"name":"SM_Food_SM_Clementine_ConvexHulls","primitives":[{"attributes":{"NORMAL":27,"POSITION":26,"TEXCOORD_0":28,"TEXCOORD_1":29},"indices":25,"material":1,"mode":4}]}],"nodes":[{"children":[1,2,3,4,5],"name":"SM_Food_SM_Clementine_146","originalUnits":0.00999999977648258,"pivot":[0,0,0],"rotation":[0,0,0,1],"scale":[1,1,1],"translation":[0,0,0]},{"mesh":0,"name":"SM_Food_SM_Clementine_LOD0","originalUnits":0.00999999977648258,"pivot":[0,0,0],"rotation":[0,0,0,1],"scale":[1,1,1],"translation":[0,0,0]},{"mesh":4,"name":"SM_Food_SM_Clementine_ConvexHulls","originalUnits":0.00999999977648258,"pivot":[0,0,0],"rotation":[0,0,0,1],"scale":[1,1,1],"translation":[0,0,0]},{"mesh":1,"name":"SM_Food_SM_Clementine_LOD1","originalUnits":0.00999999977648258,"pivot":[0,0,0],"rotation":[0,0,0,1],"scale":[1,1,1],"translation":[0,0,0]},{"mesh":2,"name":"SM_Food_SM_Clementine_LOD2","originalUnits":0.00999999977648258,"pivot":[0,0,0],"rotation":[0,0,0,1],"scale":[1,1,1],"translation":[0,0,0]},{"mesh":3,"name":"SM_Food_SM_Clementine_LOD3","originalUnits":0.00999999977648258,"pivot":[0,0,0],"rotation":[0,0,0,1],"scale":[1,1,1],"translation":[0,0,0]}],"samplers":[{}],"scene":0,"scenes":[{"name":"Root Scene","nodes":[0]}],"textures":[{"name":"T_Food_N","sampler":0,"source":0}]}