{"accessors":[{"bufferView":0,"byteOffset":0,"componentType":5126,"count":1,"max":[0],"min":[0],"type":"SCALAR"},{"bufferView":1,"byteOffset":0,"componentType":5123,"count":1584,"type":"SCALAR"},{"bufferView":2,"byteOffset":0,"componentType":5126,"count":314,"max":[0.0477740354835987,0.101314701139927,0.0477749593555927],"min":[-0.04777525737882,-0.00000000001448,-0.04777493700385],"type":"VEC3"},{"bufferView":3,"byteOffset":0,"componentType":5126,"count":314,"type":"VEC3"},{"bufferView":4,"byteOffset":0,"componentType":5126,"count":314,"type":"VEC4"},{"bufferView":5,"byteOffset":0,"componentType":5126,"count":314,"type":"VEC2"},{"bufferView":6,"byteOffset":0,"componentType":5126,"count":314,"type":"VEC2"},{"bufferView":7,"byteOffset":0,"componentType":5123,"count":1134,"type":"SCALAR"},{"bufferView":8,"byteOffset":0,"componentType":5126,"count":233,"max":[0.0477740354835987,0.101315230131149,0.0477749593555927],"min":[-0.0477843657136,0.000000360843870339522,-0.04778394475579],"type":"VEC3"},{"bufferView":9,"byteOffset":0,"componentType":5126,"count":233,"type":"VEC3"},{"bufferView":10,"byteOffset":0,"componentType":5126,"count":233,"type":"VEC4"},{"bufferView":11,"byteOffset":0,"componentType":5126,"count":233,"type":"VEC2"},{"bufferView":12,"byteOffset":0,"componentType":5126,"count":233,"type":"VEC2"},{"bufferView":13,"byteOffset":0,"componentType":5123,"count":762,"type":"SCALAR"},{"bufferView":14,"byteOffset":0,"componentType":5126,"count":166,"max":[0.0477873608469963,0.101351089775562,0.0480081178247929],"min":[-0.0477843657136,0.000000282108345572851,-0.04778394475579],"type":"VEC3"},{"bufferView":15,"byteOffset":0,"componentType":5126,"count":166,"type":"VEC3"},{"bufferView":16,"byteOffset":0,"componentType":5126,"count":166,"type":"VEC4"},{"bufferView":17,"byteOffset":0,"componentType":5126,"count":166,"type":"VEC2"},{"bufferView":18,"byteOffset":0,"componentType":5126,"count":166,"type":"VEC2"},{"bufferView":19,"byteOffset":0,"componentType":5123,"count":387,"type":"SCALAR"},{"bufferView":20,"byteOffset":0,"componentType":5126,"count":93,"max":[0.0482347793877125,0.101351089775562,0.0480081178247929],"min":[-0.04871621355414,0.0000237493095482932,-0.04761374369264],"type":"VEC3"},{"bufferView":21,"byteOffset":0,"componentType":5126,"count":93,"type":"VEC3"},{"bufferView":22,"byteOffset":0,"componentType":5126,"count":93,"type":"VEC4"},{"bufferView":23,"byteOffset":0,"componentType":5126,"count":93,"type":"VEC2"},{"bufferView":24,"byteOffset":0,"componentType":5126,"count":93,"type":"VEC2"},{"bufferView":25,"byteOffset":0,"componentType":5123,"count":1212,"type":"SCALAR"},{"bufferView":26,"byteOffset":0,"componentType":5126,"count":302,"max":[0.0443194396793842,0.107815757393837,0.0477749593555927],"min":[-0.0448407009244,0.0100774317979813,-0.04457974806428],"type":"VEC3"},{"bufferView":27,"byteOffset":0,"componentType":5126,"count":302,"type":"VEC3"},{"bufferView":28,"byteOffset":0,"componentType":5126,"count":302,"type":"VEC4"},{"bufferView":29,"byteOffset":0,"componentType":5126,"count":302,"type":"VEC2"},{"bufferView":30,"byteOffset":0,"componentType":5126,"count":302,"type":"VEC2"},{"bufferView":31,"byteOffset":0,"componentType":5123,"count":960,"type":"SCALAR"},{"bufferView":32,"byteOffset":0,"componentType":5126,"count":277,"max":[0.0443194396793842,0.107815757393837,0.0477749593555927],"min":[-0.04484069719911,0.0100442646071315,-0.04457974806428],"type":"VEC3"},{"bufferView":33,"byteOffset":0,"componentType":5126,"count":277,"type":"VEC3"},{"bufferView":34,"byteOffset":0,"componentType":5126,"count":277,"type":"VEC4"},{"bufferView":35,"byteOffset":0,"componentType":5126,"count":277,"type":"VEC2"},{"bufferView":36,"byteOffset":0,"componentType":5126,"count":277,"type":"VEC2"},{"bufferView":37,"byteOffset":0,"componentType":5123,"count":636,"type":"SCALAR"},{"bufferView":38,"byteOffset":0,"componentType":5126,"count":221,"max":[0.0449051782488823,0.10781666636467,0.0480081178247929],"min":[-0.04484069719911,0.00987355597317219,-0.04476074129343],"type":"VEC3"},{"bufferView":39,"byteOffset":0,"componentType":5126,"count":221,"type":"VEC3"},{"bufferView":40,"byteOffset":0,"componentType":5126,"count":221,"type":"VEC4"},{"bufferView":41,"byteOffset":0,"componentType":5126,"count":221,"type":"VEC2"},{"bufferView":42,"byteOffset":0,"componentType":5126,"count":221,"type":"VEC2"},{"bufferView":43,"byteOffset":0,"componentType":5123,"count":309,"type":"SCALAR"},{"bufferView":44,"byteOffset":0,"componentType":5126,"count":128,"max":[0.044700987637043,0.107834622263908,0.0480081178247929],"min":[-0.04466082528234,0.00987355597317219,-0.0446639098227],"type":"VEC3"},{"bufferView":45,"byteOffset":0,"componentType":5126,"count":128,"type":"VEC3"},{"bufferView":46,"byteOffset":0,"componentType":5126,"count":128,"type":"VEC4"},{"bufferView":47,"byteOffset":0,"componentType":5126,"count":128,"type":"VEC2"},{"bufferView":48,"byteOffset":0,"componentType":5126,"count":128,"type":"VEC2"},{"bufferView":49,"byteOffset":0,"componentType":5123,"count":84,"type":"SCALAR"},{"bufferView":50,"byteOffset":0,"componentType":5126,"count":78,"max":[0.0473531410098076,0.107121273875237,0.0450815707445145],"min":[-0.04697268456221,0.00276540638878942,-0.04712615534663],"type":"VEC3"},{"bufferView":51,"byteOffset":0,"componentType":5126,"count":78,"type":"VEC3"},{"bufferView":52,"byteOffset":0,"componentType":5126,"count":78,"type":"VEC2"},{"bufferView":53,"byteOffset":0,"componentType":5126,"count":78,"type":"VEC2"}],"animations":[{"channels":[],"name":"Unreal Take","samplers":[]}],"asset":{"generator":"FBX2glTF v0.13.0","version":"2.0"},"bufferViews":[{"buffer":0,"byteLength":4,"byteOffset":0},{"buffer":0,"byteLength":3168,"byteOffset":4,"target":34963},{"buffer":0,"byteLength":3768,"byteOffset":3172,"target":34962},{"buffer":0,"byteLength":3768,"byteOffset":6940,"target":34962},{"buffer":0,"byteLength":5024,"byteOffset":10708,"target":34962},{"buffer":0,"byteLength":2512,"byteOffset":15732,"target":34962},{"buffer":0,"byteLength":2512,"byteOffset":18244,"target":34962},{"buffer":0,"byteLength":2268,"byteOffset":20756,"target":34963},{"buffer":0,"byteLength":2796,"byteOffset":23024,"target":34962},{"buffer":0,"byteLength":2796,"byteOffset":25820,"target":34962},{"buffer":0,"byteLength":3728,"byteOffset":28616,"target":34962},{"buffer":0,"byteLength":1864,"byteOffset":32344,"target":34962},{"buffer":0,"byteLength":1864,"byteOffset":34208,"target":34962},{"buffer":0,"byteLength":1524,"byteOffset":36072,"target":34963},{"buffer":0,"byteLength":1992,"byteOffset":37596,"target":34962},{"buffer":0,"byteLength":1992,"byteOffset":39588,"target":34962},{"buffer":0,"byteLength":2656,"byteOffset":41580,"target":34962},{"buffer":0,"byteLength":1328,"byteOffset":44236,"target":34962},{"buffer":0,"byteLength":1328,"byteOffset":45564,"target":34962},{"buffer":0,"byteLength":774,"byteOffset":46892,"target":34963},{"buffer":0,"byteLength":1116,"byteOffset":47668,"target":34962},{"buffer":0,"byteLength":1116,"byteOffset":48784,"target":34962},{"buffer":0,"byteLength":1488,"byteOffset":49900,"target":34962},{"buffer":0,"byteLength":744,"byteOffset":51388,"target":34962},{"buffer":0,"byteLength":744,"byteOffset":52132,"target":34962},{"buffer":0,"byteLength":2424,"byteOffset":52876,"target":34963},{"buffer":0,"byteLength":3624,"byteOffset":55300,"target":34962},{"buffer":0,"byteLength":3624,"byteOffset":58924,"target":34962},{"buffer":0,"byteLength":4832,"byteOffset":62548,"target":34962},{"buffer":0,"byteLength":2416,"byteOffset":67380,"target":34962},{"buffer":0,"byteLength":2416,"byteOffset":69796,"target":34962},{"buffer":0,"byteLength":1920,"byteOffset":72212,"target":34963},{"buffer":0,"byteLength":3324,"byteOffset":74132,"target":34962},{"buffer":0,"byteLength":3324,"byteOffset":77456,"target":34962},{"buffer":0,"byteLength":4432,"byteOffset":80780,"target":34962},{"buffer":0,"byteLength":2216,"byteOffset":85212,"target":34962},{"buffer":0,"byteLength":2216,"byteOffset":87428,"target":34962},{"buffer":0,"byteLength":1272,"byteOffset":89644,"target":34963},{"buffer":0,"byteLength":2652,"byteOffset":90916,"target":34962},{"buffer":0,"byteLength":2652,"byteOffset":93568,"target":34962},{"buffer":0,"byteLength":3536,"byteOffset":96220,"target":34962},{"buffer":0,"byteLength":1768,"byteOffset":99756,"target":34962},{"buffer":0,"byteLength":1768,"byteOffset":101524,"target":34962},{"buffer":0,"byteLength":618,"byteOffset":103292,"target":34963},{"buffer":0,"byteLength":1536,"byteOffset":103912,"target":34962},{"buffer":0,"byteLength":1536,"byteOffset":105448,"target":34962},{"buffer":0,"byteLength":2048,"byteOffset":106984,"target":34962},{"buffer":0,"byteLength":1024,"byteOffset":109032,"target":34962},{"buffer":0,"byteLength":1024,"byteOffset":110056,"target":34962},{"buffer":0,"byteLength":168,"byteOffset":111080,"target":34963},{"buffer":0,"byteLength":936,"byteOffset":111248,"target":34962},{"buffer":0,"byteLength":936,"byteOffset":112184,"target":34962},{"buffer":0,"byteLength":624,"byteOffset":113120,"target":34962},{"buffer":0,"byteLength":624,"byteOffset":113744,"target":34962}],"buffers":[{"byteLength":114368,"uri":"SM_FoodPot_07.bin"}],"images":[{"name":"T_FoodPot_Jelly_N","uri":"T_FoodPot_Jelly_N.tga"},{"name":"T_FoodPot_N","uri":"T_FoodPot_N.tga"}],"materials":[{"alphaMode":"OPAQUE","doubleSided":false,"extras":{"fromFBX":{"isTruePBR":false,"shadingModel":"Phong"}},"name":"MI_FoodPotJelly","normalTexture":{"index":0,"texCoord":0},"pbrMetallicRoughness":{"baseColorFactor":[0.21586050093174,0.21586050093174,0.21586050093174,1],"metallicFactor":0.400000005960464,"roughnessFactor":0.301511347293854}},{"alphaMode":"OPAQUE","doubleSided":false,"extras":{"fromFBX":{"isTruePBR":false,"shadingModel":"Phong"}},"name":"MI_FoodPot","normalTexture":{"index":1,"texCoord":0},"pbrMetallicRoughness":{"baseColorFactor":[0.21586050093174,0.21586050093174,0.21586050093174,1],"metallicFactor":0.400000005960464,"roughnessFactor":0.301511347293854}},{"alphaMode":"OPAQUE","doubleSided":false,"extras":{"fromFBX":{"isTruePBR":false,"shadingModel":"Lambert"}},"name":"DefaultMaterial","pbrMetallicRoughness":{"baseColorFactor":[0.5,0.5,0.5,1],"metallicFactor":0.200000002980232,"roughnessFactor":0.800000011920929}}],"meshes":[{"name":"SM_FoodPot_07_LOD0","primitives":[{"attributes":{"NORMAL":3,"POSITION":2,"TANGENT":4,"TEXCOORD_0":5,"TEXCOORD_1":6},"indices":1,"material":0,"mode":4},{"attributes":{"NORMAL":27,"POSITION":26,"TANGENT":28,"TEXCOORD_0":29,"TEXCOORD_1":30},"indices":25,"material":1,"mode":4}]},{"name":"SM_FoodPot_07_LOD1","primitives":[{"attributes":{"NORMAL":9,"POSITION":8,"TANGENT":10,"TEXCOORD_0":11,"TEXCOORD_1":12},"indices":7,"material":0,"mode":4},{"attributes":{"NORMAL":33,"POSITION":32,"TANGENT":34,"TEXCOORD_0":35,"TEXCOORD_1":36},"indices":31,"material":1,"mode":4}]},{"name":"SM_FoodPot_07_LOD2","primitives":[{"attributes":{"NORMAL":15,"POSITION":14,"TANGENT":16,"TEXCOORD_0":17,"TEXCOORD_1":18},"indices":13,"material":0,"mode":4},{"attributes":{"NORMAL":39,"POSITION":38,"TANGENT":40,"TEXCOORD_0":41,"TEXCOORD_1":42},"indices":37,"material":1,"mode":4}]},{"name":"SM_FoodPot_07_LOD3","primitives":[{"attributes":{"NORMAL":21,"POSITION":20,"TANGENT":22,"TEXCOORD_0":23,"TEXCOORD_1":24},"indices":19,"material":0,"mode":4},{"attributes":{"NORMAL":45,"POSITION":44,"TANGENT":46,"TEXCOORD_0":47,"TEXCOORD_1":48},"indices":43,"material":1,"mode":4}]},{"name":"SM_FoodPot_07_ConvexHulls","primitives":[{"attributes":{"NORMAL":51,"POSITION":50,"TEXCOORD_0":52,"TEXCOORD_1":53},"indices":49,"material":2,"mode":4}]}],"nodes":[{"children":[1,2,3,4,5],"name":"SM_FoodPot_50","originalUnits":0.00999999977648258,"pivot":[0,0,0],"rotation":[0,0,0,1],"scale":[1,1,1],"translation":[0,0,0]},{"mesh":0,"name":"SM_FoodPot_07_LOD0","originalUnits":0.00999999977648258,"pivot":[0,0,0],"rotation":[0,0,0,1],"scale":[1,1,1],"translation":[0,0,0]},{"mesh":4,"name":"SM_FoodPot_07_ConvexHulls","originalUnits":0.00999999977648258,"pivot":[0,0,0],"rotation":[0,0,0,1],"scale":[1,1,1],"translation":[0,0,0]},{"mesh":1,"name":"SM_FoodPot_07_LOD1","originalUnits":0.00999999977648258,"pivot":[0,0,0],"rotation":[0,0,0,1],"scale":[1,1,1],"translation":[0,0,0]},{"mesh":2,"name":"SM_FoodPot_07_LOD2","originalUnits":0.00999999977648258,"pivot":[0,0,0],"rotation":[0,0,0,1],"scale":[1,1,1],"translation":[0,0,0]},{"mesh":3,"name":"SM_FoodPot_07_LOD3","originalUnits":0.00999999977648258,"pivot":[0,0,0],"rotation":[0,0,0,1],"scale":[1,1,1],"translation":[0,0,0]}],"samplers":[{}],"scene":0,"scenes":[{"name":"Root Scene","nodes":[0]}],"textures":[{"name":"T_FoodPot_Jelly_N","sampler":0,"source":0},{"name":"T_FoodPot_N","sampler":0,"source":1}]}