{"accessors":[{"bufferView":0,"byteOffset":0,"componentType":5126,"count":1,"max":[0],"min":[0],"type":"SCALAR"},{"bufferView":1,"byteOffset":0,"componentType":5123,"count":1380,"type":"SCALAR"},{"bufferView":2,"byteOffset":0,"componentType":5126,"count":437,"max":[0.0884000584483147,0.348912626504898,0.0884033069014549],"min":[-0.08840013295412,0.00294951698742807,-0.08839598298073],"type":"VEC3"},{"bufferView":3,"byteOffset":0,"componentType":5126,"count":437,"type":"VEC3"},{"bufferView":4,"byteOffset":0,"componentType":5126,"count":437,"type":"VEC4"},{"bufferView":5,"byteOffset":0,"componentType":5126,"count":437,"type":"VEC2"},{"bufferView":6,"byteOffset":0,"componentType":5126,"count":437,"type":"VEC2"},{"bufferView":7,"byteOffset":0,"componentType":5123,"count":1035,"type":"SCALAR"},{"bufferView":8,"byteOffset":0,"componentType":5126,"count":371,"max":[0.0884000584483147,0.348912626504898,0.0884033069014549],"min":[-0.08840013295412,0.00135453208349645,-0.08839598298073],"type":"VEC3"},{"bufferView":9,"byteOffset":0,"componentType":5126,"count":371,"type":"VEC3"},{"bufferView":10,"byteOffset":0,"componentType":5126,"count":371,"type":"VEC4"},{"bufferView":11,"byteOffset":0,"componentType":5126,"count":371,"type":"VEC2"},{"bufferView":12,"byteOffset":0,"componentType":5126,"count":371,"type":"VEC2"},{"bufferView":13,"byteOffset":0,"componentType":5123,"count":687,"type":"SCALAR"},{"bufferView":14,"byteOffset":0,"componentType":5126,"count":271,"max":[0.0881299301981926,0.349064141511917,0.0902599319815636],"min":[-0.08812651783228,-0.0007555722259,-0.08779363334179],"type":"VEC3"},{"bufferView":15,"byteOffset":0,"componentType":5126,"count":271,"type":"VEC3"},{"bufferView":16,"byteOffset":0,"componentType":5126,"count":271,"type":"VEC4"},{"bufferView":17,"byteOffset":0,"componentType":5126,"count":271,"type":"VEC2"},{"bufferView":18,"byteOffset":0,"componentType":5126,"count":271,"type":"VEC2"},{"bufferView":19,"byteOffset":0,"componentType":5123,"count":345,"type":"SCALAR"},{"bufferView":20,"byteOffset":0,"componentType":5126,"count":152,"max":[0.0922690629959106,0.349114835262299,0.0905945673584938],"min":[-0.08812651783228,-0.00378265115432,-0.09374033659697],"type":"VEC3"},{"bufferView":21,"byteOffset":0,"componentType":5126,"count":152,"type":"VEC3"},{"bufferView":22,"byteOffset":0,"componentType":5126,"count":152,"type":"VEC4"},{"bufferView":23,"byteOffset":0,"componentType":5126,"count":152,"type":"VEC2"},{"bufferView":24,"byteOffset":0,"componentType":5126,"count":152,"type":"VEC2"},{"bufferView":25,"byteOffset":0,"componentType":5123,"count":336,"type":"SCALAR"},{"bufferView":26,"byteOffset":0,"componentType":5126,"count":316,"max":[0.0814780592918396,0.348912626504898,0.0875529646873474],"min":[-0.08686727285385,0.00154992577154189,-0.0825130790472],"type":"VEC3"},{"bufferView":27,"byteOffset":0,"componentType":5126,"count":316,"type":"VEC3"},{"bufferView":28,"byteOffset":0,"componentType":5126,"count":316,"type":"VEC2"},{"bufferView":29,"byteOffset":0,"componentType":5126,"count":316,"type":"VEC2"}],"animations":[{"channels":[],"name":"Unreal Take","samplers":[]}],"asset":{"generator":"FBX2glTF v0.13.0","version":"2.0"},"bufferViews":[{"buffer":0,"byteLength":4,"byteOffset":0},{"buffer":0,"byteLength":2760,"byteOffset":4,"target":34963},{"buffer":0,"byteLength":5244,"byteOffset":2764,"target":34962},{"buffer":0,"byteLength":5244,"byteOffset":8008,"target":34962},{"buffer":0,"byteLength":6992,"byteOffset":13252,"target":34962},{"buffer":0,"byteLength":3496,"byteOffset":20244,"target":34962},{"buffer":0,"byteLength":3496,"byteOffset":23740,"target":34962},{"buffer":0,"byteLength":2070,"byteOffset":27236,"target":34963},{"buffer":0,"byteLength":4452,"byteOffset":29308,"target":34962},{"buffer":0,"byteLength":4452,"byteOffset":33760,"target":34962},{"buffer":0,"byteLength":5936,"byteOffset":38212,"target":34962},{"buffer":0,"byteLength":2968,"byteOffset":44148,"target":34962},{"buffer":0,"byteLength":2968,"byteOffset":47116,"target":34962},{"buffer":0,"byteLength":1374,"byteOffset":50084,"target":34963},{"buffer":0,"byteLength":3252,"byteOffset":51460,"target":34962},{"buffer":0,"byteLength":3252,"byteOffset":54712,"target":34962},{"buffer":0,"byteLength":4336,"byteOffset":57964,"target":34962},{"buffer":0,"byteLength":2168,"byteOffset":62300,"target":34962},{"buffer":0,"byteLength":2168,"byteOffset":64468,"target":34962},{"buffer":0,"byteLength":690,"byteOffset":66636,"target":34963},{"buffer":0,"byteLength":1824,"byteOffset":67328,"target":34962},{"buffer":0,"byteLength":1824,"byteOffset":69152,"target":34962},{"buffer":0,"byteLength":2432,"byteOffset":70976,"target":34962},{"buffer":0,"byteLength":1216,"byteOffset":73408,"target":34962},{"buffer":0,"byteLength":1216,"byteOffset":74624,"target":34962},{"buffer":0,"byteLength":672,"byteOffset":75840,"target":34963},{"buffer":0,"byteLength":3792,"byteOffset":76512,"target":34962},{"buffer":0,"byteLength":3792,"byteOffset":80304,"target":34962},{"buffer":0,"byteLength":2528,"byteOffset":84096,"target":34962},{"buffer":0,"byteLength":2528,"byteOffset":86624,"target":34962}],"buffers":[{"byteLength":89152,"uri":"SM_FlowerPot_05.bin"}],"images":[{"name":"T_FlowerPot_N","uri":"T_FlowerPot_N.tga"}],"materials":[{"alphaMode":"OPAQUE","doubleSided":false,"extras":{"fromFBX":{"isTruePBR":false,"shadingModel":"Phong"}},"name":"MI_FlowerPot","normalTexture":{"index":0,"texCoord":0},"pbrMetallicRoughness":{"baseColorFactor":[0.21586050093174,0.21586050093174,0.21586050093174,1],"metallicFactor":0.400000005960464,"roughnessFactor":0.301511347293854}},{"alphaMode":"OPAQUE","doubleSided":false,"extras":{"fromFBX":{"isTruePBR":false,"shadingModel":"Lambert"}},"name":"DefaultMaterial","pbrMetallicRoughness":{"baseColorFactor":[0.5,0.5,0.5,1],"metallicFactor":0.200000002980232,"roughnessFactor":0.800000011920929}}],"meshes":[{"name":"SM_FlowerPot_05_LOD0","primitives":[{"attributes":{"NORMAL":3,"POSITION":2,"TANGENT":4,"TEXCOORD_0":5,"TEXCOORD_1":6},"indices":1,"material":0,"mode":4}]},{"name":"SM_FlowerPot_05_LOD1","primitives":[{"attributes":{"NORMAL":9,"POSITION":8,"TANGENT":10,"TEXCOORD_0":11,"TEXCOORD_1":12},"indices":7,"material":0,"mode":4}]},{"name":"SM_FlowerPot_05_LOD2","primitives":[{"attributes":{"NORMAL":15,"POSITION":14,"TANGENT":16,"TEXCOORD_0":17,"TEXCOORD_1":18},"indices":13,"material":0,"mode":4}]},{"name":"SM_FlowerPot_05_LOD3","primitives":[{"attributes":{"NORMAL":21,"POSITION":20,"TANGENT":22,"TEXCOORD_0":23,"TEXCOORD_1":24},"indices":19,"material":0,"mode":4}]},{"name":"SM_FlowerPot_05_ConvexHulls","primitives":[{"attributes":{"NORMAL":27,"POSITION":26,"TEXCOORD_0":28,"TEXCOORD_1":29},"indices":25,"material":1,"mode":4}]}],"nodes":[{"children":[1,2,3,4,5],"name":"SM_FlowerPot_6","originalUnits":0.00999999977648258,"pivot":[0,0,0],"rotation":[0,0,0,1],"scale":[1,1,1],"translation":[0,0,0]},{"mesh":0,"name":"SM_FlowerPot_05_LOD0","originalUnits":0.00999999977648258,"pivot":[0,0,0],"rotation":[0,0,0,1],"scale":[1,1,1],"translation":[0,0,0]},{"mesh":4,"name":"SM_FlowerPot_05_ConvexHulls","originalUnits":0.00999999977648258,"pivot":[0,0,0],"rotation":[0,0,0,1],"scale":[1,1,1],"translation":[0,0,0]},{"mesh":1,"name":"SM_FlowerPot_05_LOD1","originalUnits":0.00999999977648258,"pivot":[0,0,0],"rotation":[0,0,0,1],"scale":[1,1,1],"translation":[0,0,0]},{"mesh":2,"name":"SM_FlowerPot_05_LOD2","originalUnits":0.00999999977648258,"pivot":[0,0,0],"rotation":[0,0,0,1],"scale":[1,1,1],"translation":[0,0,0]},{"mesh":3,"name":"SM_FlowerPot_05_LOD3","originalUnits":0.00999999977648258,"pivot":[0,0,0],"rotation":[0,0,0,1],"scale":[1,1,1],"translation":[0,0,0]}],"samplers":[{}],"scene":0,"scenes":[{"name":"Root Scene","nodes":[0]}],"textures":[{"name":"T_FlowerPot_N","sampler":0,"source":0}]}