{"accessors":[{"bufferView":0,"byteOffset":0,"componentType":5126,"count":1,"max":[0],"min":[0],"type":"SCALAR"},{"bufferView":1,"byteOffset":0,"componentType":5123,"count":3600,"type":"SCALAR"},{"bufferView":2,"byteOffset":0,"componentType":5126,"count":692,"max":[0.0521081387996674,0.172612935304642,0.0521081499755383],"min":[-0.05210814252496,-0,-0.05210814997554],"type":"VEC3"},{"bufferView":3,"byteOffset":0,"componentType":5126,"count":692,"type":"VEC3"},{"bufferView":4,"byteOffset":0,"componentType":5126,"count":692,"type":"VEC4"},{"bufferView":5,"byteOffset":0,"componentType":5126,"count":692,"type":"VEC2"},{"bufferView":6,"byteOffset":0,"componentType":5126,"count":692,"type":"VEC2"},{"bufferView":7,"byteOffset":0,"componentType":5123,"count":2682,"type":"SCALAR"},{"bufferView":8,"byteOffset":0,"componentType":5126,"count":533,"max":[0.0521081574261189,0.172612935304642,0.0521080903708935],"min":[-0.05210965126753,-0,-0.05210810154676],"type":"VEC3"},{"bufferView":9,"byteOffset":0,"componentType":5126,"count":533,"type":"VEC3"},{"bufferView":10,"byteOffset":0,"componentType":5126,"count":533,"type":"VEC4"},{"bufferView":11,"byteOffset":0,"componentType":5126,"count":533,"type":"VEC2"},{"bufferView":12,"byteOffset":0,"componentType":5126,"count":533,"type":"VEC2"},{"bufferView":13,"byteOffset":0,"componentType":5123,"count":1878,"type":"SCALAR"},{"bufferView":14,"byteOffset":0,"componentType":5126,"count":395,"max":[0.0521081574261189,0.172612935304642,0.0521072335541248],"min":[-0.05210754275322,0.000000652788514798885,-0.05210873112082],"type":"VEC3"},{"bufferView":15,"byteOffset":0,"componentType":5126,"count":395,"type":"VEC3"},{"bufferView":16,"byteOffset":0,"componentType":5126,"count":395,"type":"VEC4"},{"bufferView":17,"byteOffset":0,"componentType":5126,"count":395,"type":"VEC2"},{"bufferView":18,"byteOffset":0,"componentType":5126,"count":395,"type":"VEC2"},{"bufferView":19,"byteOffset":0,"componentType":5123,"count":1020,"type":"SCALAR"},{"bufferView":20,"byteOffset":0,"componentType":5126,"count":244,"max":[0.0521075129508972,0.172612935304642,0.0539487637579441],"min":[-0.05313991010189,0.00000838401501823682,-0.05341865122318],"type":"VEC3"},{"bufferView":21,"byteOffset":0,"componentType":5126,"count":244,"type":"VEC3"},{"bufferView":22,"byteOffset":0,"componentType":5126,"count":244,"type":"VEC4"},{"bufferView":23,"byteOffset":0,"componentType":5126,"count":244,"type":"VEC2"},{"bufferView":24,"byteOffset":0,"componentType":5126,"count":244,"type":"VEC2"},{"bufferView":25,"byteOffset":0,"componentType":5123,"count":2304,"type":"SCALAR"},{"bufferView":26,"byteOffset":0,"componentType":5126,"count":496,"max":[0.0491284169256687,0.175779059529305,0.0494970642030239],"min":[-0.05331357941031,0.0022209498565644,-0.04890746623278],"type":"VEC3"},{"bufferView":27,"byteOffset":0,"componentType":5126,"count":496,"type":"VEC3"},{"bufferView":28,"byteOffset":0,"componentType":5126,"count":496,"type":"VEC4"},{"bufferView":29,"byteOffset":0,"componentType":5126,"count":496,"type":"VEC2"},{"bufferView":30,"byteOffset":0,"componentType":5126,"count":496,"type":"VEC2"},{"bufferView":31,"byteOffset":0,"componentType":5123,"count":1746,"type":"SCALAR"},{"bufferView":32,"byteOffset":0,"componentType":5126,"count":403,"max":[0.0491284169256687,0.175779059529305,0.0494970642030239],"min":[-0.05331357941031,0.0022209498565644,-0.04890746623278],"type":"VEC3"},{"bufferView":33,"byteOffset":0,"componentType":5126,"count":403,"type":"VEC3"},{"bufferView":34,"byteOffset":0,"componentType":5126,"count":403,"type":"VEC4"},{"bufferView":35,"byteOffset":0,"componentType":5126,"count":403,"type":"VEC2"},{"bufferView":36,"byteOffset":0,"componentType":5126,"count":403,"type":"VEC2"},{"bufferView":37,"byteOffset":0,"componentType":5123,"count":1074,"type":"SCALAR"},{"bufferView":38,"byteOffset":0,"componentType":5126,"count":288,"max":[0.0491284169256687,0.175786525011063,0.0494970642030239],"min":[-0.05331357941031,0.00209228321909904,-0.04890746623278],"type":"VEC3"},{"bufferView":39,"byteOffset":0,"componentType":5126,"count":288,"type":"VEC3"},{"bufferView":40,"byteOffset":0,"componentType":5126,"count":288,"type":"VEC4"},{"bufferView":41,"byteOffset":0,"componentType":5126,"count":288,"type":"VEC2"},{"bufferView":42,"byteOffset":0,"componentType":5126,"count":288,"type":"VEC2"},{"bufferView":43,"byteOffset":0,"componentType":5123,"count":453,"type":"SCALAR"},{"bufferView":44,"byteOffset":0,"componentType":5126,"count":139,"max":[0.0491284169256687,0.175941079854965,0.0494970642030239],"min":[-0.05331357195973,0.00206593424081802,-0.04988435283303],"type":"VEC3"},{"bufferView":45,"byteOffset":0,"componentType":5126,"count":139,"type":"VEC3"},{"bufferView":46,"byteOffset":0,"componentType":5126,"count":139,"type":"VEC4"},{"bufferView":47,"byteOffset":0,"componentType":5126,"count":139,"type":"VEC2"},{"bufferView":48,"byteOffset":0,"componentType":5126,"count":139,"type":"VEC2"},{"bufferView":49,"byteOffset":0,"componentType":5123,"count":84,"type":"SCALAR"},{"bufferView":50,"byteOffset":0,"componentType":5126,"count":84,"max":[0.0476280972361565,0.17177526652813,0.0514210686087608],"min":[-0.05151734128594,0.00469451304525137,-0.05161952972412],"type":"VEC3"},{"bufferView":51,"byteOffset":0,"componentType":5126,"count":84,"type":"VEC3"},{"bufferView":52,"byteOffset":0,"componentType":5126,"count":84,"type":"VEC2"},{"bufferView":53,"byteOffset":0,"componentType":5126,"count":84,"type":"VEC2"}],"animations":[{"channels":[],"name":"Unreal Take","samplers":[]}],"asset":{"generator":"FBX2glTF v0.13.0","version":"2.0"},"bufferViews":[{"buffer":0,"byteLength":4,"byteOffset":0},{"buffer":0,"byteLength":7200,"byteOffset":4,"target":34963},{"buffer":0,"byteLength":8304,"byteOffset":7204,"target":34962},{"buffer":0,"byteLength":8304,"byteOffset":15508,"target":34962},{"buffer":0,"byteLength":11072,"byteOffset":23812,"target":34962},{"buffer":0,"byteLength":5536,"byteOffset":34884,"target":34962},{"buffer":0,"byteLength":5536,"byteOffset":40420,"target":34962},{"buffer":0,"byteLength":5364,"byteOffset":45956,"target":34963},{"buffer":0,"byteLength":6396,"byteOffset":51320,"target":34962},{"buffer":0,"byteLength":6396,"byteOffset":57716,"target":34962},{"buffer":0,"byteLength":8528,"byteOffset":64112,"target":34962},{"buffer":0,"byteLength":4264,"byteOffset":72640,"target":34962},{"buffer":0,"byteLength":4264,"byteOffset":76904,"target":34962},{"buffer":0,"byteLength":3756,"byteOffset":81168,"target":34963},{"buffer":0,"byteLength":4740,"byteOffset":84924,"target":34962},{"buffer":0,"byteLength":4740,"byteOffset":89664,"target":34962},{"buffer":0,"byteLength":6320,"byteOffset":94404,"target":34962},{"buffer":0,"byteLength":3160,"byteOffset":100724,"target":34962},{"buffer":0,"byteLength":3160,"byteOffset":103884,"target":34962},{"buffer":0,"byteLength":2040,"byteOffset":107044,"target":34963},{"buffer":0,"byteLength":2928,"byteOffset":109084,"target":34962},{"buffer":0,"byteLength":2928,"byteOffset":112012,"target":34962},{"buffer":0,"byteLength":3904,"byteOffset":114940,"target":34962},{"buffer":0,"byteLength":1952,"byteOffset":118844,"target":34962},{"buffer":0,"byteLength":1952,"byteOffset":120796,"target":34962},{"buffer":0,"byteLength":4608,"byteOffset":122748,"target":34963},{"buffer":0,"byteLength":5952,"byteOffset":127356,"target":34962},{"buffer":0,"byteLength":5952,"byteOffset":133308,"target":34962},{"buffer":0,"byteLength":7936,"byteOffset":139260,"target":34962},{"buffer":0,"byteLength":3968,"byteOffset":147196,"target":34962},{"buffer":0,"byteLength":3968,"byteOffset":151164,"target":34962},{"buffer":0,"byteLength":3492,"byteOffset":155132,"target":34963},{"buffer":0,"byteLength":4836,"byteOffset":158624,"target":34962},{"buffer":0,"byteLength":4836,"byteOffset":163460,"target":34962},{"buffer":0,"byteLength":6448,"byteOffset":168296,"target":34962},{"buffer":0,"byteLength":3224,"byteOffset":174744,"target":34962},{"buffer":0,"byteLength":3224,"byteOffset":177968,"target":34962},{"buffer":0,"byteLength":2148,"byteOffset":181192,"target":34963},{"buffer":0,"byteLength":3456,"byteOffset":183340,"target":34962},{"buffer":0,"byteLength":3456,"byteOffset":186796,"target":34962},{"buffer":0,"byteLength":4608,"byteOffset":190252,"target":34962},{"buffer":0,"byteLength":2304,"byteOffset":194860,"target":34962},{"buffer":0,"byteLength":2304,"byteOffset":197164,"target":34962},{"buffer":0,"byteLength":906,"byteOffset":199468,"target":34963},{"buffer":0,"byteLength":1668,"byteOffset":200376,"target":34962},{"buffer":0,"byteLength":1668,"byteOffset":202044,"target":34962},{"buffer":0,"byteLength":2224,"byteOffset":203712,"target":34962},{"buffer":0,"byteLength":1112,"byteOffset":205936,"target":34962},{"buffer":0,"byteLength":1112,"byteOffset":207048,"target":34962},{"buffer":0,"byteLength":168,"byteOffset":208160,"target":34963},{"buffer":0,"byteLength":1008,"byteOffset":208328,"target":34962},{"buffer":0,"byteLength":1008,"byteOffset":209336,"target":34962},{"buffer":0,"byteLength":672,"byteOffset":210344,"target":34962},{"buffer":0,"byteLength":672,"byteOffset":211016,"target":34962}],"buffers":[{"byteLength":211688,"uri":"SM_FoodPot_04.bin"}],"images":[{"name":"T_FoodPot_N","uri":"T_FoodPot_N.tga"}],"materials":[{"alphaMode":"OPAQUE","doubleSided":false,"extras":{"fromFBX":{"isTruePBR":false,"shadingModel":"Phong"}},"name":"MI_FoodPot_Glass","pbrMetallicRoughness":{"baseColorFactor":[0.21586050093174,0.21586050093174,0.21586050093174,0],"metallicFactor":0.400000005960464,"roughnessFactor":0.301511347293854}},{"alphaMode":"OPAQUE","doubleSided":false,"extras":{"fromFBX":{"isTruePBR":false,"shadingModel":"Phong"}},"name":"MI_FoodPot","normalTexture":{"index":0,"texCoord":0},"pbrMetallicRoughness":{"baseColorFactor":[0.21586050093174,0.21586050093174,0.21586050093174,1],"metallicFactor":0.400000005960464,"roughnessFactor":0.301511347293854}},{"alphaMode":"OPAQUE","doubleSided":false,"extras":{"fromFBX":{"isTruePBR":false,"shadingModel":"Lambert"}},"name":"DefaultMaterial","pbrMetallicRoughness":{"baseColorFactor":[0.5,0.5,0.5,1],"metallicFactor":0.200000002980232,"roughnessFactor":0.800000011920929}}],"meshes":[{"name":"SM_FoodPot_04_LOD0","primitives":[{"attributes":{"NORMAL":3,"POSITION":2,"TANGENT":4,"TEXCOORD_0":5,"TEXCOORD_1":6},"indices":1,"material":0,"mode":4},{"attributes":{"NORMAL":27,"POSITION":26,"TANGENT":28,"TEXCOORD_0":29,"TEXCOORD_1":30},"indices":25,"material":1,"mode":4}]},{"name":"SM_FoodPot_04_LOD1","primitives":[{"attributes":{"NORMAL":9,"POSITION":8,"TANGENT":10,"TEXCOORD_0":11,"TEXCOORD_1":12},"indices":7,"material":0,"mode":4},{"attributes":{"NORMAL":33,"POSITION":32,"TANGENT":34,"TEXCOORD_0":35,"TEXCOORD_1":36},"indices":31,"material":1,"mode":4}]},{"name":"SM_FoodPot_04_LOD2","primitives":[{"attributes":{"NORMAL":15,"POSITION":14,"TANGENT":16,"TEXCOORD_0":17,"TEXCOORD_1":18},"indices":13,"material":0,"mode":4},{"attributes":{"NORMAL":39,"POSITION":38,"TANGENT":40,"TEXCOORD_0":41,"TEXCOORD_1":42},"indices":37,"material":1,"mode":4}]},{"name":"SM_FoodPot_04_LOD3","primitives":[{"attributes":{"NORMAL":21,"POSITION":20,"TANGENT":22,"TEXCOORD_0":23,"TEXCOORD_1":24},"indices":19,"material":0,"mode":4},{"attributes":{"NORMAL":45,"POSITION":44,"TANGENT":46,"TEXCOORD_0":47,"TEXCOORD_1":48},"indices":43,"material":1,"mode":4}]},{"name":"SM_FoodPot_04_ConvexHulls","primitives":[{"attributes":{"NORMAL":51,"POSITION":50,"TEXCOORD_0":52,"TEXCOORD_1":53},"indices":49,"material":2,"mode":4}]}],"nodes":[{"children":[1,2,3,4,5],"name":"SM_FoodPot_40","originalUnits":0.00999999977648258,"pivot":[0,0,0],"rotation":[0,0,0,1],"scale":[1,1,1],"translation":[0,0,0]},{"mesh":0,"name":"SM_FoodPot_04_LOD0","originalUnits":0.00999999977648258,"pivot":[0,0,0],"rotation":[0,0,0,1],"scale":[1,1,1],"translation":[0,0,0]},{"mesh":4,"name":"SM_FoodPot_04_ConvexHulls","originalUnits":0.00999999977648258,"pivot":[0,0,0],"rotation":[0,0,0,1],"scale":[1,1,1],"translation":[0,0,0]},{"mesh":1,"name":"SM_FoodPot_04_LOD1","originalUnits":0.00999999977648258,"pivot":[0,0,0],"rotation":[0,0,0,1],"scale":[1,1,1],"translation":[0,0,0]},{"mesh":2,"name":"SM_FoodPot_04_LOD2","originalUnits":0.00999999977648258,"pivot":[0,0,0],"rotation":[0,0,0,1],"scale":[1,1,1],"translation":[0,0,0]},{"mesh":3,"name":"SM_FoodPot_04_LOD3","originalUnits":0.00999999977648258,"pivot":[0,0,0],"rotation":[0,0,0,1],"scale":[1,1,1],"translation":[0,0,0]}],"samplers":[{}],"scene":0,"scenes":[{"name":"Root Scene","nodes":[0]}],"textures":[{"name":"T_FoodPot_N","sampler":0,"source":0}]}