{"accessors":[{"bufferView":0,"byteOffset":0,"componentType":5126,"count":1,"max":[0],"min":[0],"type":"SCALAR"},{"bufferView":1,"byteOffset":0,"componentType":5123,"count":1020,"type":"SCALAR"},{"bufferView":2,"byteOffset":0,"componentType":5126,"count":235,"max":[0.0419036671519279,0.0876328349113464,0.0419036820530891],"min":[-0.04190307483077,-0.00000000449283,-0.04190368205309],"type":"VEC3"},{"bufferView":3,"byteOffset":0,"componentType":5126,"count":235,"type":"VEC3"},{"bufferView":4,"byteOffset":0,"componentType":5126,"count":235,"type":"VEC4"},{"bufferView":5,"byteOffset":0,"componentType":5126,"count":235,"type":"VEC2"},{"bufferView":6,"byteOffset":0,"componentType":5126,"count":235,"type":"VEC2"},{"bufferView":7,"byteOffset":0,"componentType":5123,"count":765,"type":"SCALAR"},{"bufferView":8,"byteOffset":0,"componentType":5126,"count":193,"max":[0.0425111092627048,0.0876328349113464,0.0419111512601376],"min":[-0.04240957647562,-0.00000000446626,-0.04189934581518],"type":"VEC3"},{"bufferView":9,"byteOffset":0,"componentType":5126,"count":193,"type":"VEC3"},{"bufferView":10,"byteOffset":0,"componentType":5126,"count":193,"type":"VEC4"},{"bufferView":11,"byteOffset":0,"componentType":5126,"count":193,"type":"VEC2"},{"bufferView":12,"byteOffset":0,"componentType":5126,"count":193,"type":"VEC2"},{"bufferView":13,"byteOffset":0,"componentType":5123,"count":510,"type":"SCALAR"},{"bufferView":14,"byteOffset":0,"componentType":5126,"count":153,"max":[0.0425111092627048,0.0876520872116089,0.0427153035998344],"min":[-0.04233377054334,-0.0000017856994,-0.04189934581518],"type":"VEC3"},{"bufferView":15,"byteOffset":0,"componentType":5126,"count":153,"type":"VEC3"},{"bufferView":16,"byteOffset":0,"componentType":5126,"count":153,"type":"VEC4"},{"bufferView":17,"byteOffset":0,"componentType":5126,"count":153,"type":"VEC2"},{"bufferView":18,"byteOffset":0,"componentType":5126,"count":153,"type":"VEC2"},{"bufferView":19,"byteOffset":0,"componentType":5123,"count":255,"type":"SCALAR"},{"bufferView":20,"byteOffset":0,"componentType":5126,"count":90,"max":[0.0420114025473595,0.0877189636230469,0.0428619012236595],"min":[-0.04230821505189,-0.00005196747588,-0.04295008257031],"type":"VEC3"},{"bufferView":21,"byteOffset":0,"componentType":5126,"count":90,"type":"VEC3"},{"bufferView":22,"byteOffset":0,"componentType":5126,"count":90,"type":"VEC4"},{"bufferView":23,"byteOffset":0,"componentType":5126,"count":90,"type":"VEC2"},{"bufferView":24,"byteOffset":0,"componentType":5126,"count":90,"type":"VEC2"},{"bufferView":25,"byteOffset":0,"componentType":5123,"count":324,"type":"SCALAR"},{"bufferView":26,"byteOffset":0,"componentType":5126,"count":294,"max":[0.0389851294457912,0.0875647738575935,0.0389630943536758],"min":[-0.04164021834731,-0.000876183738,-0.03959107398987],"type":"VEC3"},{"bufferView":27,"byteOffset":0,"componentType":5126,"count":294,"type":"VEC3"},{"bufferView":28,"byteOffset":0,"componentType":5126,"count":294,"type":"VEC2"},{"bufferView":29,"byteOffset":0,"componentType":5126,"count":294,"type":"VEC2"}],"animations":[{"channels":[],"name":"Unreal Take","samplers":[]}],"asset":{"generator":"FBX2glTF v0.13.0","version":"2.0"},"bufferViews":[{"buffer":0,"byteLength":4,"byteOffset":0},{"buffer":0,"byteLength":2040,"byteOffset":4,"target":34963},{"buffer":0,"byteLength":2820,"byteOffset":2044,"target":34962},{"buffer":0,"byteLength":2820,"byteOffset":4864,"target":34962},{"buffer":0,"byteLength":3760,"byteOffset":7684,"target":34962},{"buffer":0,"byteLength":1880,"byteOffset":11444,"target":34962},{"buffer":0,"byteLength":1880,"byteOffset":13324,"target":34962},{"buffer":0,"byteLength":1530,"byteOffset":15204,"target":34963},{"buffer":0,"byteLength":2316,"byteOffset":16736,"target":34962},{"buffer":0,"byteLength":2316,"byteOffset":19052,"target":34962},{"buffer":0,"byteLength":3088,"byteOffset":21368,"target":34962},{"buffer":0,"byteLength":1544,"byteOffset":24456,"target":34962},{"buffer":0,"byteLength":1544,"byteOffset":26000,"target":34962},{"buffer":0,"byteLength":1020,"byteOffset":27544,"target":34963},{"buffer":0,"byteLength":1836,"byteOffset":28564,"target":34962},{"buffer":0,"byteLength":1836,"byteOffset":30400,"target":34962},{"buffer":0,"byteLength":2448,"byteOffset":32236,"target":34962},{"buffer":0,"byteLength":1224,"byteOffset":34684,"target":34962},{"buffer":0,"byteLength":1224,"byteOffset":35908,"target":34962},{"buffer":0,"byteLength":510,"byteOffset":37132,"target":34963},{"buffer":0,"byteLength":1080,"byteOffset":37644,"target":34962},{"buffer":0,"byteLength":1080,"byteOffset":38724,"target":34962},{"buffer":0,"byteLength":1440,"byteOffset":39804,"target":34962},{"buffer":0,"byteLength":720,"byteOffset":41244,"target":34962},{"buffer":0,"byteLength":720,"byteOffset":41964,"target":34962},{"buffer":0,"byteLength":648,"byteOffset":42684,"target":34963},{"buffer":0,"byteLength":3528,"byteOffset":43332,"target":34962},{"buffer":0,"byteLength":3528,"byteOffset":46860,"target":34962},{"buffer":0,"byteLength":2352,"byteOffset":50388,"target":34962},{"buffer":0,"byteLength":2352,"byteOffset":52740,"target":34962}],"buffers":[{"byteLength":55092,"uri":"SM_FoodPot_06.bin"}],"images":[{"name":"T_FoodPot_N","uri":"T_FoodPot_N.tga"}],"materials":[{"alphaMode":"OPAQUE","doubleSided":false,"extras":{"fromFBX":{"isTruePBR":false,"shadingModel":"Phong"}},"name":"MI_FoodPot","normalTexture":{"index":0,"texCoord":0},"pbrMetallicRoughness":{"baseColorFactor":[0.21586050093174,0.21586050093174,0.21586050093174,1],"metallicFactor":0.400000005960464,"roughnessFactor":0.301511347293854}},{"alphaMode":"OPAQUE","doubleSided":false,"extras":{"fromFBX":{"isTruePBR":false,"shadingModel":"Lambert"}},"name":"DefaultMaterial","pbrMetallicRoughness":{"baseColorFactor":[0.5,0.5,0.5,1],"metallicFactor":0.200000002980232,"roughnessFactor":0.800000011920929}}],"meshes":[{"name":"SM_FoodPot_06_LOD0","primitives":[{"attributes":{"NORMAL":3,"POSITION":2,"TANGENT":4,"TEXCOORD_0":5,"TEXCOORD_1":6},"indices":1,"material":0,"mode":4}]},{"name":"SM_FoodPot_06_LOD1","primitives":[{"attributes":{"NORMAL":9,"POSITION":8,"TANGENT":10,"TEXCOORD_0":11,"TEXCOORD_1":12},"indices":7,"material":0,"mode":4}]},{"name":"SM_FoodPot_06_LOD2","primitives":[{"attributes":{"NORMAL":15,"POSITION":14,"TANGENT":16,"TEXCOORD_0":17,"TEXCOORD_1":18},"indices":13,"material":0,"mode":4}]},{"name":"SM_FoodPot_06_LOD3","primitives":[{"attributes":{"NORMAL":21,"POSITION":20,"TANGENT":22,"TEXCOORD_0":23,"TEXCOORD_1":24},"indices":19,"material":0,"mode":4}]},{"name":"SM_FoodPot_06_ConvexHulls","primitives":[{"attributes":{"NORMAL":27,"POSITION":26,"TEXCOORD_0":28,"TEXCOORD_1":29},"indices":25,"material":1,"mode":4}]}],"nodes":[{"children":[1,2,3,4,5],"name":"SM_FoodPot_8","originalUnits":0.00999999977648258,"pivot":[0,0,0],"rotation":[0,0,0,1],"scale":[1,1,1],"translation":[0,0,0]},{"mesh":0,"name":"SM_FoodPot_06_LOD0","originalUnits":0.00999999977648258,"pivot":[0,0,0],"rotation":[0,0,0,1],"scale":[1,1,1],"translation":[0,0,0]},{"mesh":4,"name":"SM_FoodPot_06_ConvexHulls","originalUnits":0.00999999977648258,"pivot":[0,0,0],"rotation":[0,0,0,1],"scale":[1,1,1],"translation":[0,0,0]},{"mesh":1,"name":"SM_FoodPot_06_LOD1","originalUnits":0.00999999977648258,"pivot":[0,0,0],"rotation":[0,0,0,1],"scale":[1,1,1],"translation":[0,0,0]},{"mesh":2,"name":"SM_FoodPot_06_LOD2","originalUnits":0.00999999977648258,"pivot":[0,0,0],"rotation":[0,0,0,1],"scale":[1,1,1],"translation":[0,0,0]},{"mesh":3,"name":"SM_FoodPot_06_LOD3","originalUnits":0.00999999977648258,"pivot":[0,0,0],"rotation":[0,0,0,1],"scale":[1,1,1],"translation":[0,0,0]}],"samplers":[{}],"scene":0,"scenes":[{"name":"Root Scene","nodes":[0]}],"textures":[{"name":"T_FoodPot_N","sampler":0,"source":0}]}