{"accessors":[{"bufferView":0,"byteOffset":0,"componentType":5126,"count":1,"max":[0],"min":[0],"type":"SCALAR"},{"bufferView":1,"byteOffset":0,"componentType":5123,"count":270,"type":"SCALAR"},{"bufferView":2,"byteOffset":0,"componentType":5126,"count":116,"max":[0.356712341308594,0.406896620988846,0.0100055783987045],"min":[-0.35671228170395,-0.00000007113365,-0.0100055783987],"type":"VEC3"},{"bufferView":3,"byteOffset":0,"componentType":5126,"count":116,"type":"VEC3"},{"bufferView":4,"byteOffset":0,"componentType":5126,"count":116,"type":"VEC4"},{"bufferView":5,"byteOffset":0,"componentType":5126,"count":116,"type":"VEC2"},{"bufferView":6,"byteOffset":0,"componentType":5126,"count":116,"type":"VEC2"},{"bufferView":7,"byteOffset":0,"componentType":5123,"count":204,"type":"SCALAR"},{"bufferView":8,"byteOffset":0,"componentType":5126,"count":94,"max":[0.356738209724426,0.406911462545395,0.0101912766695023],"min":[-0.35672798752785,-0.00000885498412,-0.00823205895722],"type":"VEC3"},{"bufferView":9,"byteOffset":0,"componentType":5126,"count":94,"type":"VEC3"},{"bufferView":10,"byteOffset":0,"componentType":5126,"count":94,"type":"VEC4"},{"bufferView":11,"byteOffset":0,"componentType":5126,"count":94,"type":"VEC2"},{"bufferView":12,"byteOffset":0,"componentType":5126,"count":94,"type":"VEC2"},{"bufferView":13,"byteOffset":0,"componentType":5123,"count":132,"type":"SCALAR"},{"bufferView":14,"byteOffset":0,"componentType":5126,"count":66,"max":[0.372082650661469,0.408974230289459,0.0101912766695023],"min":[-0.36614528298378,-0.00001964340117,-0.00822515878826],"type":"VEC3"},{"bufferView":15,"byteOffset":0,"componentType":5126,"count":66,"type":"VEC3"},{"bufferView":16,"byteOffset":0,"componentType":5126,"count":66,"type":"VEC4"},{"bufferView":17,"byteOffset":0,"componentType":5126,"count":66,"type":"VEC2"},{"bufferView":18,"byteOffset":0,"componentType":5126,"count":66,"type":"VEC2"},{"bufferView":19,"byteOffset":0,"componentType":5123,"count":69,"type":"SCALAR"},{"bufferView":20,"byteOffset":0,"componentType":5126,"count":41,"max":[0.372082650661469,0.409343630075455,0.0157153252512217],"min":[-0.37395519018173,-0.00653630401939,-0.01641104742885],"type":"VEC3"},{"bufferView":21,"byteOffset":0,"componentType":5126,"count":41,"type":"VEC3"},{"bufferView":22,"byteOffset":0,"componentType":5126,"count":41,"type":"VEC4"},{"bufferView":23,"byteOffset":0,"componentType":5126,"count":41,"type":"VEC2"},{"bufferView":24,"byteOffset":0,"componentType":5126,"count":41,"type":"VEC2"},{"bufferView":25,"byteOffset":0,"componentType":5123,"count":198,"type":"SCALAR"},{"bufferView":26,"byteOffset":0,"componentType":5126,"count":152,"max":[0.358663141727448,0.409633249044418,0.0115563850849867],"min":[-0.3586630821228,-0.00196962221526,-0.01216725166887],"type":"VEC3"},{"bufferView":27,"byteOffset":0,"componentType":5126,"count":152,"type":"VEC3"},{"bufferView":28,"byteOffset":0,"componentType":5126,"count":152,"type":"VEC2"},{"bufferView":29,"byteOffset":0,"componentType":5126,"count":152,"type":"VEC2"}],"animations":[{"channels":[],"name":"Unreal Take","samplers":[]}],"asset":{"generator":"FBX2glTF v0.13.0","version":"2.0"},"bufferViews":[{"buffer":0,"byteLength":4,"byteOffset":0},{"buffer":0,"byteLength":540,"byteOffset":4,"target":34963},{"buffer":0,"byteLength":1392,"byteOffset":544,"target":34962},{"buffer":0,"byteLength":1392,"byteOffset":1936,"target":34962},{"buffer":0,"byteLength":1856,"byteOffset":3328,"target":34962},{"buffer":0,"byteLength":928,"byteOffset":5184,"target":34962},{"buffer":0,"byteLength":928,"byteOffset":6112,"target":34962},{"buffer":0,"byteLength":408,"byteOffset":7040,"target":34963},{"buffer":0,"byteLength":1128,"byteOffset":7448,"target":34962},{"buffer":0,"byteLength":1128,"byteOffset":8576,"target":34962},{"buffer":0,"byteLength":1504,"byteOffset":9704,"target":34962},{"buffer":0,"byteLength":752,"byteOffset":11208,"target":34962},{"buffer":0,"byteLength":752,"byteOffset":11960,"target":34962},{"buffer":0,"byteLength":264,"byteOffset":12712,"target":34963},{"buffer":0,"byteLength":792,"byteOffset":12976,"target":34962},{"buffer":0,"byteLength":792,"byteOffset":13768,"target":34962},{"buffer":0,"byteLength":1056,"byteOffset":14560,"target":34962},{"buffer":0,"byteLength":528,"byteOffset":15616,"target":34962},{"buffer":0,"byteLength":528,"byteOffset":16144,"target":34962},{"buffer":0,"byteLength":138,"byteOffset":16672,"target":34963},{"buffer":0,"byteLength":492,"byteOffset":16812,"target":34962},{"buffer":0,"byteLength":492,"byteOffset":17304,"target":34962},{"buffer":0,"byteLength":656,"byteOffset":17796,"target":34962},{"buffer":0,"byteLength":328,"byteOffset":18452,"target":34962},{"buffer":0,"byteLength":328,"byteOffset":18780,"target":34962},{"buffer":0,"byteLength":396,"byteOffset":19108,"target":34963},{"buffer":0,"byteLength":1824,"byteOffset":19504,"target":34962},{"buffer":0,"byteLength":1824,"byteOffset":21328,"target":34962},{"buffer":0,"byteLength":1216,"byteOffset":23152,"target":34962},{"buffer":0,"byteLength":1216,"byteOffset":24368,"target":34962}],"buffers":[{"byteLength":25584,"uri":"SM_Frames_02.bin"}],"images":[{"name":"T_Frames_N","uri":"T_Frames_N.tga"}],"materials":[{"alphaMode":"OPAQUE","doubleSided":false,"extras":{"fromFBX":{"isTruePBR":false,"shadingModel":"Phong"}},"name":"MI_Frame","normalTexture":{"index":0,"texCoord":0},"pbrMetallicRoughness":{"baseColorFactor":[0.21586050093174,0.21586050093174,0.21586050093174,1],"metallicFactor":0.400000005960464,"roughnessFactor":0.301511347293854}},{"alphaMode":"OPAQUE","doubleSided":false,"extras":{"fromFBX":{"isTruePBR":false,"shadingModel":"Lambert"}},"name":"DefaultMaterial","pbrMetallicRoughness":{"baseColorFactor":[0.5,0.5,0.5,1],"metallicFactor":0.200000002980232,"roughnessFactor":0.800000011920929}}],"meshes":[{"name":"SM_Frames_02_LOD0","primitives":[{"attributes":{"NORMAL":3,"POSITION":2,"TANGENT":4,"TEXCOORD_0":5,"TEXCOORD_1":6},"indices":1,"material":0,"mode":4}]},{"name":"SM_Frames_02_LOD1","primitives":[{"attributes":{"NORMAL":9,"POSITION":8,"TANGENT":10,"TEXCOORD_0":11,"TEXCOORD_1":12},"indices":7,"material":0,"mode":4}]},{"name":"SM_Frames_02_LOD2","primitives":[{"attributes":{"NORMAL":15,"POSITION":14,"TANGENT":16,"TEXCOORD_0":17,"TEXCOORD_1":18},"indices":13,"material":0,"mode":4}]},{"name":"SM_Frames_02_LOD3","primitives":[{"attributes":{"NORMAL":21,"POSITION":20,"TANGENT":22,"TEXCOORD_0":23,"TEXCOORD_1":24},"indices":19,"material":0,"mode":4}]},{"name":"SM_Frames_02_ConvexHulls","primitives":[{"attributes":{"NORMAL":27,"POSITION":26,"TEXCOORD_0":28,"TEXCOORD_1":29},"indices":25,"material":1,"mode":4}]}],"nodes":[{"children":[1,2,3,4,5],"name":"SM_Frames_13","originalUnits":0.00999999977648258,"pivot":[0,0,0],"rotation":[0,0,0,1],"scale":[1,1,1],"translation":[0,0,0]},{"mesh":0,"name":"SM_Frames_02_LOD0","originalUnits":0.00999999977648258,"pivot":[0,0,0],"rotation":[0,0,0,1],"scale":[1,1,1],"translation":[0,0,0]},{"mesh":4,"name":"SM_Frames_02_ConvexHulls","originalUnits":0.00999999977648258,"pivot":[0,0,0],"rotation":[0,0,0,1],"scale":[1,1,1],"translation":[0,0,0]},{"mesh":1,"name":"SM_Frames_02_LOD1","originalUnits":0.00999999977648258,"pivot":[0,0,0],"rotation":[0,0,0,1],"scale":[1,1,1],"translation":[0,0,0]},{"mesh":2,"name":"SM_Frames_02_LOD2","originalUnits":0.00999999977648258,"pivot":[0,0,0],"rotation":[0,0,0,1],"scale":[1,1,1],"translation":[0,0,0]},{"mesh":3,"name":"SM_Frames_02_LOD3","originalUnits":0.00999999977648258,"pivot":[0,0,0],"rotation":[0,0,0,1],"scale":[1,1,1],"translation":[0,0,0]}],"samplers":[{}],"scene":0,"scenes":[{"name":"Root Scene","nodes":[0]}],"textures":[{"name":"T_Frames_N","sampler":0,"source":0}]}