{"accessors":[{"bufferView":0,"byteOffset":0,"componentType":5126,"count":1,"max":[0],"min":[0],"type":"SCALAR"},{"bufferView":1,"byteOffset":0,"componentType":5123,"count":1164,"type":"SCALAR"},{"bufferView":2,"byteOffset":0,"componentType":5126,"count":291,"max":[0.0453149117529392,0.178212374448776,0.0453135631978512],"min":[-0.04531373083591,0.0204347632825375,-0.04531356319785],"type":"VEC3"},{"bufferView":3,"byteOffset":0,"componentType":5126,"count":291,"type":"VEC3"},{"bufferView":4,"byteOffset":0,"componentType":5126,"count":291,"type":"VEC4"},{"bufferView":5,"byteOffset":0,"componentType":5126,"count":291,"type":"VEC2"},{"bufferView":6,"byteOffset":0,"componentType":5126,"count":291,"type":"VEC2"},{"bufferView":7,"byteOffset":0,"componentType":5123,"count":942,"type":"SCALAR"},{"bufferView":8,"byteOffset":0,"componentType":5126,"count":280,"max":[0.0456943586468697,0.178212374448776,0.0456932187080383],"min":[-0.04569314420223,0.0204347632825375,-0.0456930398941],"type":"VEC3"},{"bufferView":9,"byteOffset":0,"componentType":5126,"count":280,"type":"VEC3"},{"bufferView":10,"byteOffset":0,"componentType":5126,"count":280,"type":"VEC4"},{"bufferView":11,"byteOffset":0,"componentType":5126,"count":280,"type":"VEC2"},{"bufferView":12,"byteOffset":0,"componentType":5126,"count":280,"type":"VEC2"},{"bufferView":13,"byteOffset":0,"componentType":5123,"count":576,"type":"SCALAR"},{"bufferView":14,"byteOffset":0,"componentType":5126,"count":214,"max":[0.0456212274730206,0.178251668810844,0.0456932187080383],"min":[-0.04561914876103,0.0204347632825375,-0.04564110562205],"type":"VEC3"},{"bufferView":15,"byteOffset":0,"componentType":5126,"count":214,"type":"VEC3"},{"bufferView":16,"byteOffset":0,"componentType":5126,"count":214,"type":"VEC4"},{"bufferView":17,"byteOffset":0,"componentType":5126,"count":214,"type":"VEC2"},{"bufferView":18,"byteOffset":0,"componentType":5126,"count":214,"type":"VEC2"},{"bufferView":19,"byteOffset":0,"componentType":5123,"count":264,"type":"SCALAR"},{"bufferView":20,"byteOffset":0,"componentType":5126,"count":92,"max":[0.0458628460764885,0.178253814578056,0.0454208366572857],"min":[-0.04568248987198,0.0204347632825375,-0.04564437642694],"type":"VEC3"},{"bufferView":21,"byteOffset":0,"componentType":5126,"count":92,"type":"VEC3"},{"bufferView":22,"byteOffset":0,"componentType":5126,"count":92,"type":"VEC4"},{"bufferView":23,"byteOffset":0,"componentType":5126,"count":92,"type":"VEC2"},{"bufferView":24,"byteOffset":0,"componentType":5126,"count":92,"type":"VEC2"},{"bufferView":25,"byteOffset":0,"componentType":5123,"count":396,"type":"SCALAR"},{"bufferView":26,"byteOffset":0,"componentType":5126,"count":105,"max":[0.0426202304661274,0.175278335809708,0.0426832512021065],"min":[-0.04286866262555,-0.00000003372056,-0.04280593246222],"type":"VEC3"},{"bufferView":27,"byteOffset":0,"componentType":5126,"count":105,"type":"VEC3"},{"bufferView":28,"byteOffset":0,"componentType":5126,"count":105,"type":"VEC4"},{"bufferView":29,"byteOffset":0,"componentType":5126,"count":105,"type":"VEC2"},{"bufferView":30,"byteOffset":0,"componentType":5126,"count":105,"type":"VEC2"},{"bufferView":31,"byteOffset":0,"componentType":5123,"count":228,"type":"SCALAR"},{"bufferView":32,"byteOffset":0,"componentType":5126,"count":75,"max":[0.0426202304661274,0.175278335809708,0.0426832512021065],"min":[-0.04286866262555,-0.00000003372056,-0.04280593246222],"type":"VEC3"},{"bufferView":33,"byteOffset":0,"componentType":5126,"count":75,"type":"VEC3"},{"bufferView":34,"byteOffset":0,"componentType":5126,"count":75,"type":"VEC4"},{"bufferView":35,"byteOffset":0,"componentType":5126,"count":75,"type":"VEC2"},{"bufferView":36,"byteOffset":0,"componentType":5126,"count":75,"type":"VEC2"},{"bufferView":37,"byteOffset":0,"componentType":5123,"count":204,"type":"SCALAR"},{"bufferView":38,"byteOffset":0,"componentType":5126,"count":70,"max":[0.0426202304661274,0.175278335809708,0.0426892749965191],"min":[-0.04286865517497,-0.00000028755593,-0.04280593246222],"type":"VEC3"},{"bufferView":39,"byteOffset":0,"componentType":5126,"count":70,"type":"VEC3"},{"bufferView":40,"byteOffset":0,"componentType":5126,"count":70,"type":"VEC4"},{"bufferView":41,"byteOffset":0,"componentType":5126,"count":70,"type":"VEC2"},{"bufferView":42,"byteOffset":0,"componentType":5126,"count":70,"type":"VEC2"},{"bufferView":43,"byteOffset":0,"componentType":5123,"count":126,"type":"SCALAR"},{"bufferView":44,"byteOffset":0,"componentType":5126,"count":44,"max":[0.0426202304661274,0.175279960036278,0.0427619554102421],"min":[-0.04286865517497,-0.00002823702744,-0.04317142441869],"type":"VEC3"},{"bufferView":45,"byteOffset":0,"componentType":5126,"count":44,"type":"VEC3"},{"bufferView":46,"byteOffset":0,"componentType":5126,"count":44,"type":"VEC4"},{"bufferView":47,"byteOffset":0,"componentType":5126,"count":44,"type":"VEC2"},{"bufferView":48,"byteOffset":0,"componentType":5126,"count":44,"type":"VEC2"},{"bufferView":49,"byteOffset":0,"componentType":5123,"count":84,"type":"SCALAR"},{"bufferView":50,"byteOffset":0,"componentType":5126,"count":82,"max":[0.0429824441671371,0.174762323498726,0.0427830591797829],"min":[-0.0428217574954,0.00284966314211488,-0.0428086258471],"type":"VEC3"},{"bufferView":51,"byteOffset":0,"componentType":5126,"count":82,"type":"VEC3"},{"bufferView":52,"byteOffset":0,"componentType":5126,"count":82,"type":"VEC2"},{"bufferView":53,"byteOffset":0,"componentType":5126,"count":82,"type":"VEC2"}],"animations":[{"channels":[],"name":"Unreal Take","samplers":[]}],"asset":{"generator":"FBX2glTF v0.13.0","version":"2.0"},"bufferViews":[{"buffer":0,"byteLength":4,"byteOffset":0},{"buffer":0,"byteLength":2328,"byteOffset":4,"target":34963},{"buffer":0,"byteLength":3492,"byteOffset":2332,"target":34962},{"buffer":0,"byteLength":3492,"byteOffset":5824,"target":34962},{"buffer":0,"byteLength":4656,"byteOffset":9316,"target":34962},{"buffer":0,"byteLength":2328,"byteOffset":13972,"target":34962},{"buffer":0,"byteLength":2328,"byteOffset":16300,"target":34962},{"buffer":0,"byteLength":1884,"byteOffset":18628,"target":34963},{"buffer":0,"byteLength":3360,"byteOffset":20512,"target":34962},{"buffer":0,"byteLength":3360,"byteOffset":23872,"target":34962},{"buffer":0,"byteLength":4480,"byteOffset":27232,"target":34962},{"buffer":0,"byteLength":2240,"byteOffset":31712,"target":34962},{"buffer":0,"byteLength":2240,"byteOffset":33952,"target":34962},{"buffer":0,"byteLength":1152,"byteOffset":36192,"target":34963},{"buffer":0,"byteLength":2568,"byteOffset":37344,"target":34962},{"buffer":0,"byteLength":2568,"byteOffset":39912,"target":34962},{"buffer":0,"byteLength":3424,"byteOffset":42480,"target":34962},{"buffer":0,"byteLength":1712,"byteOffset":45904,"target":34962},{"buffer":0,"byteLength":1712,"byteOffset":47616,"target":34962},{"buffer":0,"byteLength":528,"byteOffset":49328,"target":34963},{"buffer":0,"byteLength":1104,"byteOffset":49856,"target":34962},{"buffer":0,"byteLength":1104,"byteOffset":50960,"target":34962},{"buffer":0,"byteLength":1472,"byteOffset":52064,"target":34962},{"buffer":0,"byteLength":736,"byteOffset":53536,"target":34962},{"buffer":0,"byteLength":736,"byteOffset":54272,"target":34962},{"buffer":0,"byteLength":792,"byteOffset":55008,"target":34963},{"buffer":0,"byteLength":1260,"byteOffset":55800,"target":34962},{"buffer":0,"byteLength":1260,"byteOffset":57060,"target":34962},{"buffer":0,"byteLength":1680,"byteOffset":58320,"target":34962},{"buffer":0,"byteLength":840,"byteOffset":60000,"target":34962},{"buffer":0,"byteLength":840,"byteOffset":60840,"target":34962},{"buffer":0,"byteLength":456,"byteOffset":61680,"target":34963},{"buffer":0,"byteLength":900,"byteOffset":62136,"target":34962},{"buffer":0,"byteLength":900,"byteOffset":63036,"target":34962},{"buffer":0,"byteLength":1200,"byteOffset":63936,"target":34962},{"buffer":0,"byteLength":600,"byteOffset":65136,"target":34962},{"buffer":0,"byteLength":600,"byteOffset":65736,"target":34962},{"buffer":0,"byteLength":408,"byteOffset":66336,"target":34963},{"buffer":0,"byteLength":840,"byteOffset":66744,"target":34962},{"buffer":0,"byteLength":840,"byteOffset":67584,"target":34962},{"buffer":0,"byteLength":1120,"byteOffset":68424,"target":34962},{"buffer":0,"byteLength":560,"byteOffset":69544,"target":34962},{"buffer":0,"byteLength":560,"byteOffset":70104,"target":34962},{"buffer":0,"byteLength":252,"byteOffset":70664,"target":34963},{"buffer":0,"byteLength":528,"byteOffset":70916,"target":34962},{"buffer":0,"byteLength":528,"byteOffset":71444,"target":34962},{"buffer":0,"byteLength":704,"byteOffset":71972,"target":34962},{"buffer":0,"byteLength":352,"byteOffset":72676,"target":34962},{"buffer":0,"byteLength":352,"byteOffset":73028,"target":34962},{"buffer":0,"byteLength":168,"byteOffset":73380,"target":34963},{"buffer":0,"byteLength":984,"byteOffset":73548,"target":34962},{"buffer":0,"byteLength":984,"byteOffset":74532,"target":34962},{"buffer":0,"byteLength":656,"byteOffset":75516,"target":34962},{"buffer":0,"byteLength":656,"byteOffset":76172,"target":34962}],"buffers":[{"byteLength":76828,"uri":"SM_FoodPot_13.bin"}],"images":[{"name":"T_FoodPot_N","uri":"T_FoodPot_N.tga"},{"name":"T_FoodPot_Jelly_N","uri":"T_FoodPot_Jelly_N.tga"}],"materials":[{"alphaMode":"OPAQUE","doubleSided":false,"extras":{"fromFBX":{"isTruePBR":false,"shadingModel":"Phong"}},"name":"MI_FoodPot","normalTexture":{"index":0,"texCoord":0},"pbrMetallicRoughness":{"baseColorFactor":[0.21586050093174,0.21586050093174,0.21586050093174,1],"metallicFactor":0.400000005960464,"roughnessFactor":0.301511347293854}},{"alphaMode":"OPAQUE","doubleSided":false,"extras":{"fromFBX":{"isTruePBR":false,"shadingModel":"Phong"}},"name":"MI_FoodPotJelly","normalTexture":{"index":1,"texCoord":0},"pbrMetallicRoughness":{"baseColorFactor":[0.21586050093174,0.21586050093174,0.21586050093174,1],"metallicFactor":0.400000005960464,"roughnessFactor":0.301511347293854}},{"alphaMode":"OPAQUE","doubleSided":false,"extras":{"fromFBX":{"isTruePBR":false,"shadingModel":"Lambert"}},"name":"DefaultMaterial","pbrMetallicRoughness":{"baseColorFactor":[0.5,0.5,0.5,1],"metallicFactor":0.200000002980232,"roughnessFactor":0.800000011920929}}],"meshes":[{"name":"SM_FoodPot_13_LOD0","primitives":[{"attributes":{"NORMAL":3,"POSITION":2,"TANGENT":4,"TEXCOORD_0":5,"TEXCOORD_1":6},"indices":1,"material":0,"mode":4},{"attributes":{"NORMAL":27,"POSITION":26,"TANGENT":28,"TEXCOORD_0":29,"TEXCOORD_1":30},"indices":25,"material":1,"mode":4}]},{"name":"SM_FoodPot_13_LOD1","primitives":[{"attributes":{"NORMAL":9,"POSITION":8,"TANGENT":10,"TEXCOORD_0":11,"TEXCOORD_1":12},"indices":7,"material":0,"mode":4},{"attributes":{"NORMAL":33,"POSITION":32,"TANGENT":34,"TEXCOORD_0":35,"TEXCOORD_1":36},"indices":31,"material":1,"mode":4}]},{"name":"SM_FoodPot_13_LOD2","primitives":[{"attributes":{"NORMAL":15,"POSITION":14,"TANGENT":16,"TEXCOORD_0":17,"TEXCOORD_1":18},"indices":13,"material":0,"mode":4},{"attributes":{"NORMAL":39,"POSITION":38,"TANGENT":40,"TEXCOORD_0":41,"TEXCOORD_1":42},"indices":37,"material":1,"mode":4}]},{"name":"SM_FoodPot_13_LOD3","primitives":[{"attributes":{"NORMAL":21,"POSITION":20,"TANGENT":22,"TEXCOORD_0":23,"TEXCOORD_1":24},"indices":19,"material":0,"mode":4},{"attributes":{"NORMAL":45,"POSITION":44,"TANGENT":46,"TEXCOORD_0":47,"TEXCOORD_1":48},"indices":43,"material":1,"mode":4}]},{"name":"SM_FoodPot_13_ConvexHulls","primitives":[{"attributes":{"NORMAL":51,"POSITION":50,"TEXCOORD_0":52,"TEXCOORD_1":53},"indices":49,"material":2,"mode":4}]}],"nodes":[{"children":[1,2,3,4,5],"name":"SM_FoodPot_54","originalUnits":0.00999999977648258,"pivot":[0,0,0],"rotation":[0,0,0,1],"scale":[1,1,1],"translation":[0,0,0]},{"mesh":0,"name":"SM_FoodPot_13_LOD0","originalUnits":0.00999999977648258,"pivot":[0,0,0],"rotation":[0,0,0,1],"scale":[1,1,1],"translation":[0,0,0]},{"mesh":4,"name":"SM_FoodPot_13_ConvexHulls","originalUnits":0.00999999977648258,"pivot":[0,0,0],"rotation":[0,0,0,1],"scale":[1,1,1],"translation":[0,0,0]},{"mesh":1,"name":"SM_FoodPot_13_LOD1","originalUnits":0.00999999977648258,"pivot":[0,0,0],"rotation":[0,0,0,1],"scale":[1,1,1],"translation":[0,0,0]},{"mesh":2,"name":"SM_FoodPot_13_LOD2","originalUnits":0.00999999977648258,"pivot":[0,0,0],"rotation":[0,0,0,1],"scale":[1,1,1],"translation":[0,0,0]},{"mesh":3,"name":"SM_FoodPot_13_LOD3","originalUnits":0.00999999977648258,"pivot":[0,0,0],"rotation":[0,0,0,1],"scale":[1,1,1],"translation":[0,0,0]}],"samplers":[{}],"scene":0,"scenes":[{"name":"Root Scene","nodes":[0]}],"textures":[{"name":"T_FoodPot_N","sampler":0,"source":0},{"name":"T_FoodPot_Jelly_N","sampler":0,"source":1}]}