{"accessors":[{"bufferView":0,"byteOffset":0,"componentType":5126,"count":1,"max":[0],"min":[0],"type":"SCALAR"},{"bufferView":1,"byteOffset":0,"componentType":5123,"count":3900,"type":"SCALAR"},{"bufferView":2,"byteOffset":0,"componentType":5126,"count":798,"max":[0.115637391805649,0.455020308494568,0.115639634430408],"min":[-0.1156374886632,0.0000487430261273403,-0.11563719809055],"type":"VEC3"},{"bufferView":3,"byteOffset":0,"componentType":5126,"count":798,"type":"VEC3"},{"bufferView":4,"byteOffset":0,"componentType":5126,"count":798,"type":"VEC4"},{"bufferView":5,"byteOffset":0,"componentType":5126,"count":798,"type":"VEC2"},{"bufferView":6,"byteOffset":0,"componentType":5126,"count":798,"type":"VEC2"},{"bufferView":7,"byteOffset":0,"componentType":5123,"count":2922,"type":"SCALAR"},{"bufferView":8,"byteOffset":0,"componentType":5126,"count":631,"max":[0.115637391805649,0.455020308494568,0.115639634430408],"min":[-0.1156374886632,0.0000487430261273403,-0.11563719809055],"type":"VEC3"},{"bufferView":9,"byteOffset":0,"componentType":5126,"count":631,"type":"VEC3"},{"bufferView":10,"byteOffset":0,"componentType":5126,"count":631,"type":"VEC4"},{"bufferView":11,"byteOffset":0,"componentType":5126,"count":631,"type":"VEC2"},{"bufferView":12,"byteOffset":0,"componentType":5126,"count":631,"type":"VEC2"},{"bufferView":13,"byteOffset":0,"componentType":5123,"count":1950,"type":"SCALAR"},{"bufferView":14,"byteOffset":0,"componentType":5126,"count":462,"max":[0.115637391805649,0.455020308494568,0.115639634430408],"min":[-0.1156374886632,0.0000487430261273403,-0.11563719809055],"type":"VEC3"},{"bufferView":15,"byteOffset":0,"componentType":5126,"count":462,"type":"VEC3"},{"bufferView":16,"byteOffset":0,"componentType":5126,"count":462,"type":"VEC4"},{"bufferView":17,"byteOffset":0,"componentType":5126,"count":462,"type":"VEC2"},{"bufferView":18,"byteOffset":0,"componentType":5126,"count":462,"type":"VEC2"},{"bufferView":19,"byteOffset":0,"componentType":5123,"count":975,"type":"SCALAR"},{"bufferView":20,"byteOffset":0,"componentType":5126,"count":246,"max":[0.115991234779358,0.455045282840729,0.115639634430408],"min":[-0.11583460867405,-0.00311063276604,-0.11587286740542],"type":"VEC3"},{"bufferView":21,"byteOffset":0,"componentType":5126,"count":246,"type":"VEC3"},{"bufferView":22,"byteOffset":0,"componentType":5126,"count":246,"type":"VEC4"},{"bufferView":23,"byteOffset":0,"componentType":5126,"count":246,"type":"VEC2"},{"bufferView":24,"byteOffset":0,"componentType":5126,"count":246,"type":"VEC2"},{"bufferView":25,"byteOffset":0,"componentType":5123,"count":330,"type":"SCALAR"},{"bufferView":26,"byteOffset":0,"componentType":5126,"count":318,"max":[0.113136447966099,0.451894015073776,0.114295721054077],"min":[-0.11308514326811,0.00132012099493295,-0.11399481445551],"type":"VEC3"},{"bufferView":27,"byteOffset":0,"componentType":5126,"count":318,"type":"VEC3"},{"bufferView":28,"byteOffset":0,"componentType":5126,"count":318,"type":"VEC2"},{"bufferView":29,"byteOffset":0,"componentType":5126,"count":318,"type":"VEC2"}],"animations":[{"channels":[],"name":"Unreal Take","samplers":[]}],"asset":{"generator":"FBX2glTF v0.13.0","version":"2.0"},"bufferViews":[{"buffer":0,"byteLength":4,"byteOffset":0},{"buffer":0,"byteLength":7800,"byteOffset":4,"target":34963},{"buffer":0,"byteLength":9576,"byteOffset":7804,"target":34962},{"buffer":0,"byteLength":9576,"byteOffset":17380,"target":34962},{"buffer":0,"byteLength":12768,"byteOffset":26956,"target":34962},{"buffer":0,"byteLength":6384,"byteOffset":39724,"target":34962},{"buffer":0,"byteLength":6384,"byteOffset":46108,"target":34962},{"buffer":0,"byteLength":5844,"byteOffset":52492,"target":34963},{"buffer":0,"byteLength":7572,"byteOffset":58336,"target":34962},{"buffer":0,"byteLength":7572,"byteOffset":65908,"target":34962},{"buffer":0,"byteLength":10096,"byteOffset":73480,"target":34962},{"buffer":0,"byteLength":5048,"byteOffset":83576,"target":34962},{"buffer":0,"byteLength":5048,"byteOffset":88624,"target":34962},{"buffer":0,"byteLength":3900,"byteOffset":93672,"target":34963},{"buffer":0,"byteLength":5544,"byteOffset":97572,"target":34962},{"buffer":0,"byteLength":5544,"byteOffset":103116,"target":34962},{"buffer":0,"byteLength":7392,"byteOffset":108660,"target":34962},{"buffer":0,"byteLength":3696,"byteOffset":116052,"target":34962},{"buffer":0,"byteLength":3696,"byteOffset":119748,"target":34962},{"buffer":0,"byteLength":1950,"byteOffset":123444,"target":34963},{"buffer":0,"byteLength":2952,"byteOffset":125396,"target":34962},{"buffer":0,"byteLength":2952,"byteOffset":128348,"target":34962},{"buffer":0,"byteLength":3936,"byteOffset":131300,"target":34962},{"buffer":0,"byteLength":1968,"byteOffset":135236,"target":34962},{"buffer":0,"byteLength":1968,"byteOffset":137204,"target":34962},{"buffer":0,"byteLength":660,"byteOffset":139172,"target":34963},{"buffer":0,"byteLength":3816,"byteOffset":139832,"target":34962},{"buffer":0,"byteLength":3816,"byteOffset":143648,"target":34962},{"buffer":0,"byteLength":2544,"byteOffset":147464,"target":34962},{"buffer":0,"byteLength":2544,"byteOffset":150008,"target":34962}],"buffers":[{"byteLength":152552,"uri":"SM_FlowerPot_04.bin"}],"images":[{"name":"T_FlowerPot_N","uri":"T_FlowerPot_N.tga"}],"materials":[{"alphaMode":"OPAQUE","doubleSided":false,"extras":{"fromFBX":{"isTruePBR":false,"shadingModel":"Phong"}},"name":"MI_FlowerPot","normalTexture":{"index":0,"texCoord":0},"pbrMetallicRoughness":{"baseColorFactor":[0.21586050093174,0.21586050093174,0.21586050093174,1],"metallicFactor":0.400000005960464,"roughnessFactor":0.301511347293854}},{"alphaMode":"OPAQUE","doubleSided":false,"extras":{"fromFBX":{"isTruePBR":false,"shadingModel":"Lambert"}},"name":"DefaultMaterial","pbrMetallicRoughness":{"baseColorFactor":[0.5,0.5,0.5,1],"metallicFactor":0.200000002980232,"roughnessFactor":0.800000011920929}}],"meshes":[{"name":"SM_FlowerPot_04_LOD0","primitives":[{"attributes":{"NORMAL":3,"POSITION":2,"TANGENT":4,"TEXCOORD_0":5,"TEXCOORD_1":6},"indices":1,"material":0,"mode":4}]},{"name":"SM_FlowerPot_04_LOD1","primitives":[{"attributes":{"NORMAL":9,"POSITION":8,"TANGENT":10,"TEXCOORD_0":11,"TEXCOORD_1":12},"indices":7,"material":0,"mode":4}]},{"name":"SM_FlowerPot_04_LOD2","primitives":[{"attributes":{"NORMAL":15,"POSITION":14,"TANGENT":16,"TEXCOORD_0":17,"TEXCOORD_1":18},"indices":13,"material":0,"mode":4}]},{"name":"SM_FlowerPot_04_LOD3","primitives":[{"attributes":{"NORMAL":21,"POSITION":20,"TANGENT":22,"TEXCOORD_0":23,"TEXCOORD_1":24},"indices":19,"material":0,"mode":4}]},{"name":"SM_FlowerPot_04_ConvexHulls","primitives":[{"attributes":{"NORMAL":27,"POSITION":26,"TEXCOORD_0":28,"TEXCOORD_1":29},"indices":25,"material":1,"mode":4}]}],"nodes":[{"children":[1,2,3,4,5],"name":"SM_FlowerPot_20","originalUnits":0.00999999977648258,"pivot":[0,0,0],"rotation":[0,0,0,1],"scale":[1,1,1],"translation":[0,0,0]},{"mesh":0,"name":"SM_FlowerPot_04_LOD0","originalUnits":0.00999999977648258,"pivot":[0,0,0],"rotation":[0,0,0,1],"scale":[1,1,1],"translation":[0,0,0]},{"mesh":4,"name":"SM_FlowerPot_04_ConvexHulls","originalUnits":0.00999999977648258,"pivot":[0,0,0],"rotation":[0,0,0,1],"scale":[1,1,1],"translation":[0,0,0]},{"mesh":1,"name":"SM_FlowerPot_04_LOD1","originalUnits":0.00999999977648258,"pivot":[0,0,0],"rotation":[0,0,0,1],"scale":[1,1,1],"translation":[0,0,0]},{"mesh":2,"name":"SM_FlowerPot_04_LOD2","originalUnits":0.00999999977648258,"pivot":[0,0,0],"rotation":[0,0,0,1],"scale":[1,1,1],"translation":[0,0,0]},{"mesh":3,"name":"SM_FlowerPot_04_LOD3","originalUnits":0.00999999977648258,"pivot":[0,0,0],"rotation":[0,0,0,1],"scale":[1,1,1],"translation":[0,0,0]}],"samplers":[{}],"scene":0,"scenes":[{"name":"Root Scene","nodes":[0]}],"textures":[{"name":"T_FlowerPot_N","sampler":0,"source":0}]}