{"accessors":[{"bufferView":0,"byteOffset":0,"componentType":5126,"count":1,"max":[0],"min":[0],"type":"SCALAR"},{"bufferView":1,"byteOffset":0,"componentType":5123,"count":1080,"type":"SCALAR"},{"bufferView":2,"byteOffset":0,"componentType":5126,"count":266,"max":[0.0139608103781939,0.00177090638317168,0.0140377022325993],"min":[-0.01396080199629,-0.00177090847865,-0.01403770782053],"type":"VEC3"},{"bufferView":3,"byteOffset":0,"componentType":5126,"count":266,"type":"VEC3"},{"bufferView":4,"byteOffset":0,"componentType":5126,"count":266,"type":"VEC4"},{"bufferView":5,"byteOffset":0,"componentType":5126,"count":266,"type":"VEC2"},{"bufferView":6,"byteOffset":0,"componentType":5126,"count":266,"type":"VEC2"},{"bufferView":7,"byteOffset":0,"componentType":5123,"count":810,"type":"SCALAR"},{"bufferView":8,"byteOffset":0,"componentType":5126,"count":221,"max":[0.0138982897624373,0.00177171907853335,0.0140377022325993],"min":[-0.01389828138053,-0.00177097821143,-0.01403770782053],"type":"VEC3"},{"bufferView":9,"byteOffset":0,"componentType":5126,"count":221,"type":"VEC3"},{"bufferView":10,"byteOffset":0,"componentType":5126,"count":221,"type":"VEC4"},{"bufferView":11,"byteOffset":0,"componentType":5126,"count":221,"type":"VEC2"},{"bufferView":12,"byteOffset":0,"componentType":5126,"count":221,"type":"VEC2"},{"bufferView":13,"byteOffset":0,"componentType":5123,"count":540,"type":"SCALAR"},{"bufferView":14,"byteOffset":0,"componentType":5126,"count":147,"max":[0.0138982897624373,0.00177636533044279,0.014057177118957],"min":[-0.01389828138053,-0.00177090731449,-0.01405573729426],"type":"VEC3"},{"bufferView":15,"byteOffset":0,"componentType":5126,"count":147,"type":"VEC3"},{"bufferView":16,"byteOffset":0,"componentType":5126,"count":147,"type":"VEC4"},{"bufferView":17,"byteOffset":0,"componentType":5126,"count":147,"type":"VEC2"},{"bufferView":18,"byteOffset":0,"componentType":5126,"count":147,"type":"VEC2"},{"bufferView":19,"byteOffset":0,"componentType":5123,"count":270,"type":"SCALAR"},{"bufferView":20,"byteOffset":0,"componentType":5126,"count":87,"max":[0.0139314867556095,0.00179712916724384,0.014057177118957],"min":[-0.01393300015479,-0.00177085725591,-0.01405573729426],"type":"VEC3"},{"bufferView":21,"byteOffset":0,"componentType":5126,"count":87,"type":"VEC3"},{"bufferView":22,"byteOffset":0,"componentType":5126,"count":87,"type":"VEC4"},{"bufferView":23,"byteOffset":0,"componentType":5126,"count":87,"type":"VEC2"},{"bufferView":24,"byteOffset":0,"componentType":5126,"count":87,"type":"VEC2"},{"bufferView":25,"byteOffset":0,"componentType":5123,"count":90,"type":"SCALAR"},{"bufferView":26,"byteOffset":0,"componentType":5126,"count":72,"max":[0.0183959025889635,0.00468750158324838,0.0150377005338669],"min":[-0.01765086874366,-0.00277090421878,-0.01766397804022],"type":"VEC3"},{"bufferView":27,"byteOffset":0,"componentType":5126,"count":72,"type":"VEC3"},{"bufferView":28,"byteOffset":0,"componentType":5126,"count":72,"type":"VEC2"},{"bufferView":29,"byteOffset":0,"componentType":5126,"count":72,"type":"VEC2"}],"animations":[{"channels":[],"name":"Unreal Take","samplers":[]}],"asset":{"generator":"FBX2glTF v0.13.0","version":"2.0"},"bufferViews":[{"buffer":0,"byteLength":4,"byteOffset":0},{"buffer":0,"byteLength":2160,"byteOffset":4,"target":34963},{"buffer":0,"byteLength":3192,"byteOffset":2164,"target":34962},{"buffer":0,"byteLength":3192,"byteOffset":5356,"target":34962},{"buffer":0,"byteLength":4256,"byteOffset":8548,"target":34962},{"buffer":0,"byteLength":2128,"byteOffset":12804,"target":34962},{"buffer":0,"byteLength":2128,"byteOffset":14932,"target":34962},{"buffer":0,"byteLength":1620,"byteOffset":17060,"target":34963},{"buffer":0,"byteLength":2652,"byteOffset":18680,"target":34962},{"buffer":0,"byteLength":2652,"byteOffset":21332,"target":34962},{"buffer":0,"byteLength":3536,"byteOffset":23984,"target":34962},{"buffer":0,"byteLength":1768,"byteOffset":27520,"target":34962},{"buffer":0,"byteLength":1768,"byteOffset":29288,"target":34962},{"buffer":0,"byteLength":1080,"byteOffset":31056,"target":34963},{"buffer":0,"byteLength":1764,"byteOffset":32136,"target":34962},{"buffer":0,"byteLength":1764,"byteOffset":33900,"target":34962},{"buffer":0,"byteLength":2352,"byteOffset":35664,"target":34962},{"buffer":0,"byteLength":1176,"byteOffset":38016,"target":34962},{"buffer":0,"byteLength":1176,"byteOffset":39192,"target":34962},{"buffer":0,"byteLength":540,"byteOffset":40368,"target":34963},{"buffer":0,"byteLength":1044,"byteOffset":40908,"target":34962},{"buffer":0,"byteLength":1044,"byteOffset":41952,"target":34962},{"buffer":0,"byteLength":1392,"byteOffset":42996,"target":34962},{"buffer":0,"byteLength":696,"byteOffset":44388,"target":34962},{"buffer":0,"byteLength":696,"byteOffset":45084,"target":34962},{"buffer":0,"byteLength":180,"byteOffset":45780,"target":34963},{"buffer":0,"byteLength":864,"byteOffset":45960,"target":34962},{"buffer":0,"byteLength":864,"byteOffset":46824,"target":34962},{"buffer":0,"byteLength":576,"byteOffset":47688,"target":34962},{"buffer":0,"byteLength":576,"byteOffset":48264,"target":34962}],"buffers":[{"byteLength":48840,"uri":"SM_Fridge_Magnet_A.bin"}],"materials":[{"alphaMode":"OPAQUE","doubleSided":false,"extras":{"fromFBX":{"isTruePBR":false,"shadingModel":"Phong"}},"name":"MM_Magnet_D","pbrMetallicRoughness":{"baseColorFactor":[0.989583015441895,0,0.0777610018849373,1],"metallicFactor":0.400000005960464,"roughnessFactor":0.301511347293854}},{"alphaMode":"OPAQUE","doubleSided":false,"extras":{"fromFBX":{"isTruePBR":false,"shadingModel":"Lambert"}},"name":"DefaultMaterial","pbrMetallicRoughness":{"baseColorFactor":[0.5,0.5,0.5,1],"metallicFactor":0.200000002980232,"roughnessFactor":0.800000011920929}}],"meshes":[{"name":"SM_Fridge_Magnet_A_LOD0","primitives":[{"attributes":{"NORMAL":3,"POSITION":2,"TANGENT":4,"TEXCOORD_0":5,"TEXCOORD_1":6},"indices":1,"material":0,"mode":4}]},{"name":"SM_Fridge_Magnet_A_LOD1","primitives":[{"attributes":{"NORMAL":9,"POSITION":8,"TANGENT":10,"TEXCOORD_0":11,"TEXCOORD_1":12},"indices":7,"material":0,"mode":4}]},{"name":"SM_Fridge_Magnet_A_LOD2","primitives":[{"attributes":{"NORMAL":15,"POSITION":14,"TANGENT":16,"TEXCOORD_0":17,"TEXCOORD_1":18},"indices":13,"material":0,"mode":4}]},{"name":"SM_Fridge_Magnet_A_LOD3","primitives":[{"attributes":{"NORMAL":21,"POSITION":20,"TANGENT":22,"TEXCOORD_0":23,"TEXCOORD_1":24},"indices":19,"material":0,"mode":4}]},{"name":"SM_Fridge_Magnet_A_ConvexHulls","primitives":[{"attributes":{"NORMAL":27,"POSITION":26,"TEXCOORD_0":28,"TEXCOORD_1":29},"indices":25,"material":1,"mode":4}]}],"nodes":[{"children":[1,2,3,4,5],"name":"Fridge_Magnet_A9","originalUnits":0.00999999977648258,"pivot":[0,0,0],"rotation":[0,0,0,1],"scale":[1,1,1],"translation":[0,0,0]},{"mesh":0,"name":"SM_Fridge_Magnet_A_LOD0","originalUnits":0.00999999977648258,"pivot":[0,0,0],"rotation":[0,0,0,1],"scale":[1,1,1],"translation":[0,0,0]},{"mesh":4,"name":"SM_Fridge_Magnet_A_ConvexHulls","originalUnits":0.00999999977648258,"pivot":[0,0,0],"rotation":[0,0,0,1],"scale":[1,1,1],"translation":[0,0,0]},{"mesh":1,"name":"SM_Fridge_Magnet_A_LOD1","originalUnits":0.00999999977648258,"pivot":[0,0,0],"rotation":[0,0,0,1],"scale":[1,1,1],"translation":[0,0,0]},{"mesh":2,"name":"SM_Fridge_Magnet_A_LOD2","originalUnits":0.00999999977648258,"pivot":[0,0,0],"rotation":[0,0,0,1],"scale":[1,1,1],"translation":[0,0,0]},{"mesh":3,"name":"SM_Fridge_Magnet_A_LOD3","originalUnits":0.00999999977648258,"pivot":[0,0,0],"rotation":[0,0,0,1],"scale":[1,1,1],"translation":[0,0,0]}],"samplers":[{}],"scene":0,"scenes":[{"name":"Root Scene","nodes":[0]}]}