{"accessors":[{"bufferView":0,"byteOffset":0,"componentType":5126,"count":1,"max":[0],"min":[0],"type":"SCALAR"},{"bufferView":1,"byteOffset":0,"componentType":5123,"count":18000,"type":"SCALAR"},{"bufferView":2,"byteOffset":0,"componentType":5126,"count":3506,"max":[0.0516331568360329,0.149982824921608,0.0516334101557732],"min":[-0.05163311213255,-0.00157132116146,-0.05163316428661],"type":"VEC3"},{"bufferView":3,"byteOffset":0,"componentType":5126,"count":3506,"type":"VEC3"},{"bufferView":4,"byteOffset":0,"componentType":5126,"count":3506,"type":"VEC4"},{"bufferView":5,"byteOffset":0,"componentType":5126,"count":3506,"type":"VEC2"},{"bufferView":6,"byteOffset":0,"componentType":5126,"count":3506,"type":"VEC2"},{"bufferView":7,"byteOffset":0,"componentType":5123,"count":13497,"type":"SCALAR"},{"bufferView":8,"byteOffset":0,"componentType":5126,"count":2729,"max":[0.0516331568360329,0.149982824921608,0.0516013316810131],"min":[-0.05156012251973,-0.00157132116146,-0.05160104110837],"type":"VEC3"},{"bufferView":9,"byteOffset":0,"componentType":5126,"count":2729,"type":"VEC3"},{"bufferView":10,"byteOffset":0,"componentType":5126,"count":2729,"type":"VEC4"},{"bufferView":11,"byteOffset":0,"componentType":5126,"count":2729,"type":"VEC2"},{"bufferView":12,"byteOffset":0,"componentType":5126,"count":2729,"type":"VEC2"},{"bufferView":13,"byteOffset":0,"componentType":5123,"count":9000,"type":"SCALAR"},{"bufferView":14,"byteOffset":0,"componentType":5126,"count":1900,"max":[0.0518469847738743,0.150006622076035,0.0518705174326897],"min":[-0.05203671008348,-0.0016016199952,-0.05160104110837],"type":"VEC3"},{"bufferView":15,"byteOffset":0,"componentType":5126,"count":1900,"type":"VEC3"},{"bufferView":16,"byteOffset":0,"componentType":5126,"count":1900,"type":"VEC4"},{"bufferView":17,"byteOffset":0,"componentType":5126,"count":1900,"type":"VEC2"},{"bufferView":18,"byteOffset":0,"componentType":5126,"count":1900,"type":"VEC2"},{"bufferView":19,"byteOffset":0,"componentType":5123,"count":4497,"type":"SCALAR"},{"bufferView":20,"byteOffset":0,"componentType":5126,"count":977,"max":[0.0521265491843224,0.150384292006493,0.0524117797613144],"min":[-0.05203671008348,-0.001992338337,-0.0517280139029],"type":"VEC3"},{"bufferView":21,"byteOffset":0,"componentType":5126,"count":977,"type":"VEC3"},{"bufferView":22,"byteOffset":0,"componentType":5126,"count":977,"type":"VEC4"},{"bufferView":23,"byteOffset":0,"componentType":5126,"count":977,"type":"VEC2"},{"bufferView":24,"byteOffset":0,"componentType":5126,"count":977,"type":"VEC2"},{"bufferView":25,"byteOffset":0,"componentType":5123,"count":84,"type":"SCALAR"},{"bufferView":26,"byteOffset":0,"componentType":5126,"count":78,"max":[0.050765436142683,0.148064792156219,0.0498104654252529],"min":[-0.05113560706377,0.0003757847007364,-0.05035329610109],"type":"VEC3"},{"bufferView":27,"byteOffset":0,"componentType":5126,"count":78,"type":"VEC3"},{"bufferView":28,"byteOffset":0,"componentType":5126,"count":78,"type":"VEC2"},{"bufferView":29,"byteOffset":0,"componentType":5126,"count":78,"type":"VEC2"}],"animations":[{"channels":[],"name":"Unreal Take","samplers":[]}],"asset":{"generator":"FBX2glTF v0.13.0","version":"2.0"},"bufferViews":[{"buffer":0,"byteLength":4,"byteOffset":0},{"buffer":0,"byteLength":36000,"byteOffset":4,"target":34963},{"buffer":0,"byteLength":42072,"byteOffset":36004,"target":34962},{"buffer":0,"byteLength":42072,"byteOffset":78076,"target":34962},{"buffer":0,"byteLength":56096,"byteOffset":120148,"target":34962},{"buffer":0,"byteLength":28048,"byteOffset":176244,"target":34962},{"buffer":0,"byteLength":28048,"byteOffset":204292,"target":34962},{"buffer":0,"byteLength":26994,"byteOffset":232340,"target":34963},{"buffer":0,"byteLength":32748,"byteOffset":259336,"target":34962},{"buffer":0,"byteLength":32748,"byteOffset":292084,"target":34962},{"buffer":0,"byteLength":43664,"byteOffset":324832,"target":34962},{"buffer":0,"byteLength":21832,"byteOffset":368496,"target":34962},{"buffer":0,"byteLength":21832,"byteOffset":390328,"target":34962},{"buffer":0,"byteLength":18000,"byteOffset":412160,"target":34963},{"buffer":0,"byteLength":22800,"byteOffset":430160,"target":34962},{"buffer":0,"byteLength":22800,"byteOffset":452960,"target":34962},{"buffer":0,"byteLength":30400,"byteOffset":475760,"target":34962},{"buffer":0,"byteLength":15200,"byteOffset":506160,"target":34962},{"buffer":0,"byteLength":15200,"byteOffset":521360,"target":34962},{"buffer":0,"byteLength":8994,"byteOffset":536560,"target":34963},{"buffer":0,"byteLength":11724,"byteOffset":545556,"target":34962},{"buffer":0,"byteLength":11724,"byteOffset":557280,"target":34962},{"buffer":0,"byteLength":15632,"byteOffset":569004,"target":34962},{"buffer":0,"byteLength":7816,"byteOffset":584636,"target":34962},{"buffer":0,"byteLength":7816,"byteOffset":592452,"target":34962},{"buffer":0,"byteLength":168,"byteOffset":600268,"target":34963},{"buffer":0,"byteLength":936,"byteOffset":600436,"target":34962},{"buffer":0,"byteLength":936,"byteOffset":601372,"target":34962},{"buffer":0,"byteLength":624,"byteOffset":602308,"target":34962},{"buffer":0,"byteLength":624,"byteOffset":602932,"target":34962}],"buffers":[{"byteLength":603556,"uri":"SM_FoodCan04.bin"}],"images":[{"name":"FlatNormal","uri":"FlatNormal.tga"}],"materials":[{"alphaMode":"OPAQUE","doubleSided":false,"extras":{"fromFBX":{"isTruePBR":false,"shadingModel":"Phong"}},"name":"MI_Canned_Foods","normalTexture":{"index":0,"texCoord":0},"pbrMetallicRoughness":{"baseColorFactor":[0.21586050093174,0.21586050093174,0.21586050093174,1],"metallicFactor":0.400000005960464,"roughnessFactor":0.301511347293854}},{"alphaMode":"OPAQUE","doubleSided":false,"extras":{"fromFBX":{"isTruePBR":false,"shadingModel":"Lambert"}},"name":"DefaultMaterial","pbrMetallicRoughness":{"baseColorFactor":[0.5,0.5,0.5,1],"metallicFactor":0.200000002980232,"roughnessFactor":0.800000011920929}}],"meshes":[{"name":"SM_FoodCan04_LOD0","primitives":[{"attributes":{"NORMAL":3,"POSITION":2,"TANGENT":4,"TEXCOORD_0":5,"TEXCOORD_1":6},"indices":1,"material":0,"mode":4}]},{"name":"SM_FoodCan04_LOD1","primitives":[{"attributes":{"NORMAL":9,"POSITION":8,"TANGENT":10,"TEXCOORD_0":11,"TEXCOORD_1":12},"indices":7,"material":0,"mode":4}]},{"name":"SM_FoodCan04_LOD2","primitives":[{"attributes":{"NORMAL":15,"POSITION":14,"TANGENT":16,"TEXCOORD_0":17,"TEXCOORD_1":18},"indices":13,"material":0,"mode":4}]},{"name":"SM_FoodCan04_LOD3","primitives":[{"attributes":{"NORMAL":21,"POSITION":20,"TANGENT":22,"TEXCOORD_0":23,"TEXCOORD_1":24},"indices":19,"material":0,"mode":4}]},{"name":"SM_FoodCan04_ConvexHulls","primitives":[{"attributes":{"NORMAL":27,"POSITION":26,"TEXCOORD_0":28,"TEXCOORD_1":29},"indices":25,"material":1,"mode":4}]}],"nodes":[{"children":[1,2,3,4,5],"name":"SM_FoodCan22","originalUnits":0.00999999977648258,"pivot":[0,0,0],"rotation":[0,0,0,1],"scale":[1,1,1],"translation":[0,0,0]},{"mesh":0,"name":"SM_FoodCan04_LOD0","originalUnits":0.00999999977648258,"pivot":[0,0,0],"rotation":[0,0,0,1],"scale":[1,1,1],"translation":[0,0,0]},{"mesh":4,"name":"SM_FoodCan04_ConvexHulls","originalUnits":0.00999999977648258,"pivot":[0,0,0],"rotation":[0,0,0,1],"scale":[1,1,1],"translation":[0,0,0]},{"mesh":1,"name":"SM_FoodCan04_LOD1","originalUnits":0.00999999977648258,"pivot":[0,0,0],"rotation":[0,0,0,1],"scale":[1,1,1],"translation":[0,0,0]},{"mesh":2,"name":"SM_FoodCan04_LOD2","originalUnits":0.00999999977648258,"pivot":[0,0,0],"rotation":[0,0,0,1],"scale":[1,1,1],"translation":[0,0,0]},{"mesh":3,"name":"SM_FoodCan04_LOD3","originalUnits":0.00999999977648258,"pivot":[0,0,0],"rotation":[0,0,0,1],"scale":[1,1,1],"translation":[0,0,0]}],"samplers":[{}],"scene":0,"scenes":[{"name":"Root Scene","nodes":[0]}],"textures":[{"name":"T_Default_N","sampler":0,"source":0}]}