{"accessors":[{"bufferView":0,"byteOffset":0,"componentType":5126,"count":1,"max":[0],"min":[0],"type":"SCALAR"},{"bufferView":1,"byteOffset":0,"componentType":5123,"count":591,"type":"SCALAR"},{"bufferView":2,"byteOffset":0,"componentType":5126,"count":165,"max":[0.0482720695436001,0.130828708410263,0.0542440749704838],"min":[-0.0496124252677,0.0191118251532316,-0.04925902560353],"type":"VEC3"},{"bufferView":3,"byteOffset":0,"componentType":5126,"count":165,"type":"VEC3"},{"bufferView":4,"byteOffset":0,"componentType":5126,"count":165,"type":"VEC4"},{"bufferView":5,"byteOffset":0,"componentType":5126,"count":165,"type":"VEC2"},{"bufferView":6,"byteOffset":0,"componentType":5126,"count":165,"type":"VEC2"},{"bufferView":7,"byteOffset":0,"componentType":5123,"count":375,"type":"SCALAR"},{"bufferView":8,"byteOffset":0,"componentType":5126,"count":129,"max":[0.0482720695436001,0.130974367260933,0.0542440749704838],"min":[-0.0496124252677,0.0191118251532316,-0.04934984445572],"type":"VEC3"},{"bufferView":9,"byteOffset":0,"componentType":5126,"count":129,"type":"VEC3"},{"bufferView":10,"byteOffset":0,"componentType":5126,"count":129,"type":"VEC4"},{"bufferView":11,"byteOffset":0,"componentType":5126,"count":129,"type":"VEC2"},{"bufferView":12,"byteOffset":0,"componentType":5126,"count":129,"type":"VEC2"},{"bufferView":13,"byteOffset":0,"componentType":5123,"count":285,"type":"SCALAR"},{"bufferView":14,"byteOffset":0,"componentType":5126,"count":99,"max":[0.0482952333986759,0.130856066942215,0.0543243028223515],"min":[-0.0496124252677,0.0189320202916861,-0.04934984445572],"type":"VEC3"},{"bufferView":15,"byteOffset":0,"componentType":5126,"count":99,"type":"VEC3"},{"bufferView":16,"byteOffset":0,"componentType":5126,"count":99,"type":"VEC4"},{"bufferView":17,"byteOffset":0,"componentType":5126,"count":99,"type":"VEC2"},{"bufferView":18,"byteOffset":0,"componentType":5126,"count":99,"type":"VEC2"},{"bufferView":19,"byteOffset":0,"componentType":5123,"count":171,"type":"SCALAR"},{"bufferView":20,"byteOffset":0,"componentType":5126,"count":61,"max":[0.0487298667430878,0.130856066942215,0.0543243028223515],"min":[-0.0496124252677,0.0189320202916861,-0.05014697834849],"type":"VEC3"},{"bufferView":21,"byteOffset":0,"componentType":5126,"count":61,"type":"VEC3"},{"bufferView":22,"byteOffset":0,"componentType":5126,"count":61,"type":"VEC4"},{"bufferView":23,"byteOffset":0,"componentType":5126,"count":61,"type":"VEC2"},{"bufferView":24,"byteOffset":0,"componentType":5126,"count":61,"type":"VEC2"},{"bufferView":25,"byteOffset":0,"componentType":5123,"count":1053,"type":"SCALAR"},{"bufferView":26,"byteOffset":0,"componentType":5126,"count":221,"max":[0.0533331148326397,0.122814349830151,0.0542440749704838],"min":[-0.05329406261444,-0.00000089327017,-0.05421981215477],"type":"VEC3"},{"bufferView":27,"byteOffset":0,"componentType":5126,"count":221,"type":"VEC3"},{"bufferView":28,"byteOffset":0,"componentType":5126,"count":221,"type":"VEC4"},{"bufferView":29,"byteOffset":0,"componentType":5126,"count":221,"type":"VEC2"},{"bufferView":30,"byteOffset":0,"componentType":5126,"count":221,"type":"VEC2"},{"bufferView":31,"byteOffset":0,"componentType":5123,"count":855,"type":"SCALAR"},{"bufferView":32,"byteOffset":0,"componentType":5126,"count":187,"max":[0.0533331148326397,0.122814349830151,0.0542440749704838],"min":[-0.05329406261444,-0.00000089327017,-0.05426195636392],"type":"VEC3"},{"bufferView":33,"byteOffset":0,"componentType":5126,"count":187,"type":"VEC3"},{"bufferView":34,"byteOffset":0,"componentType":5126,"count":187,"type":"VEC4"},{"bufferView":35,"byteOffset":0,"componentType":5126,"count":187,"type":"VEC2"},{"bufferView":36,"byteOffset":0,"componentType":5126,"count":187,"type":"VEC2"},{"bufferView":37,"byteOffset":0,"componentType":5123,"count":534,"type":"SCALAR"},{"bufferView":38,"byteOffset":0,"componentType":5126,"count":120,"max":[0.0532323122024536,0.122814334928989,0.0543243028223515],"min":[-0.05329406261444,-0.00067553267581,-0.0544724278152],"type":"VEC3"},{"bufferView":39,"byteOffset":0,"componentType":5126,"count":120,"type":"VEC3"},{"bufferView":40,"byteOffset":0,"componentType":5126,"count":120,"type":"VEC4"},{"bufferView":41,"byteOffset":0,"componentType":5126,"count":120,"type":"VEC2"},{"bufferView":42,"byteOffset":0,"componentType":5126,"count":120,"type":"VEC2"},{"bufferView":43,"byteOffset":0,"componentType":5123,"count":237,"type":"SCALAR"},{"bufferView":44,"byteOffset":0,"componentType":5126,"count":64,"max":[0.0534804910421371,0.122251972556114,0.0543243028223515],"min":[-0.05338841676712,-0.00041720431182,-0.05442467704415],"type":"VEC3"},{"bufferView":45,"byteOffset":0,"componentType":5126,"count":64,"type":"VEC3"},{"bufferView":46,"byteOffset":0,"componentType":5126,"count":64,"type":"VEC4"},{"bufferView":47,"byteOffset":0,"componentType":5126,"count":64,"type":"VEC2"},{"bufferView":48,"byteOffset":0,"componentType":5126,"count":64,"type":"VEC2"},{"bufferView":49,"byteOffset":0,"componentType":5123,"count":84,"type":"SCALAR"},{"bufferView":50,"byteOffset":0,"componentType":5126,"count":76,"max":[0.053295973688364,0.128775730729103,0.0540429353713989],"min":[-0.05307884514332,0.00068572832969948,-0.0542084723711],"type":"VEC3"},{"bufferView":51,"byteOffset":0,"componentType":5126,"count":76,"type":"VEC3"},{"bufferView":52,"byteOffset":0,"componentType":5126,"count":76,"type":"VEC2"},{"bufferView":53,"byteOffset":0,"componentType":5126,"count":76,"type":"VEC2"}],"animations":[{"channels":[],"name":"Unreal Take","samplers":[]}],"asset":{"generator":"FBX2glTF v0.13.0","version":"2.0"},"bufferViews":[{"buffer":0,"byteLength":4,"byteOffset":0},{"buffer":0,"byteLength":1182,"byteOffset":4,"target":34963},{"buffer":0,"byteLength":1980,"byteOffset":1188,"target":34962},{"buffer":0,"byteLength":1980,"byteOffset":3168,"target":34962},{"buffer":0,"byteLength":2640,"byteOffset":5148,"target":34962},{"buffer":0,"byteLength":1320,"byteOffset":7788,"target":34962},{"buffer":0,"byteLength":1320,"byteOffset":9108,"target":34962},{"buffer":0,"byteLength":750,"byteOffset":10428,"target":34963},{"buffer":0,"byteLength":1548,"byteOffset":11180,"target":34962},{"buffer":0,"byteLength":1548,"byteOffset":12728,"target":34962},{"buffer":0,"byteLength":2064,"byteOffset":14276,"target":34962},{"buffer":0,"byteLength":1032,"byteOffset":16340,"target":34962},{"buffer":0,"byteLength":1032,"byteOffset":17372,"target":34962},{"buffer":0,"byteLength":570,"byteOffset":18404,"target":34963},{"buffer":0,"byteLength":1188,"byteOffset":18976,"target":34962},{"buffer":0,"byteLength":1188,"byteOffset":20164,"target":34962},{"buffer":0,"byteLength":1584,"byteOffset":21352,"target":34962},{"buffer":0,"byteLength":792,"byteOffset":22936,"target":34962},{"buffer":0,"byteLength":792,"byteOffset":23728,"target":34962},{"buffer":0,"byteLength":342,"byteOffset":24520,"target":34963},{"buffer":0,"byteLength":732,"byteOffset":24864,"target":34962},{"buffer":0,"byteLength":732,"byteOffset":25596,"target":34962},{"buffer":0,"byteLength":976,"byteOffset":26328,"target":34962},{"buffer":0,"byteLength":488,"byteOffset":27304,"target":34962},{"buffer":0,"byteLength":488,"byteOffset":27792,"target":34962},{"buffer":0,"byteLength":2106,"byteOffset":28280,"target":34963},{"buffer":0,"byteLength":2652,"byteOffset":30388,"target":34962},{"buffer":0,"byteLength":2652,"byteOffset":33040,"target":34962},{"buffer":0,"byteLength":3536,"byteOffset":35692,"target":34962},{"buffer":0,"byteLength":1768,"byteOffset":39228,"target":34962},{"buffer":0,"byteLength":1768,"byteOffset":40996,"target":34962},{"buffer":0,"byteLength":1710,"byteOffset":42764,"target":34963},{"buffer":0,"byteLength":2244,"byteOffset":44476,"target":34962},{"buffer":0,"byteLength":2244,"byteOffset":46720,"target":34962},{"buffer":0,"byteLength":2992,"byteOffset":48964,"target":34962},{"buffer":0,"byteLength":1496,"byteOffset":51956,"target":34962},{"buffer":0,"byteLength":1496,"byteOffset":53452,"target":34962},{"buffer":0,"byteLength":1068,"byteOffset":54948,"target":34963},{"buffer":0,"byteLength":1440,"byteOffset":56016,"target":34962},{"buffer":0,"byteLength":1440,"byteOffset":57456,"target":34962},{"buffer":0,"byteLength":1920,"byteOffset":58896,"target":34962},{"buffer":0,"byteLength":960,"byteOffset":60816,"target":34962},{"buffer":0,"byteLength":960,"byteOffset":61776,"target":34962},{"buffer":0,"byteLength":474,"byteOffset":62736,"target":34963},{"buffer":0,"byteLength":768,"byteOffset":63212,"target":34962},{"buffer":0,"byteLength":768,"byteOffset":63980,"target":34962},{"buffer":0,"byteLength":1024,"byteOffset":64748,"target":34962},{"buffer":0,"byteLength":512,"byteOffset":65772,"target":34962},{"buffer":0,"byteLength":512,"byteOffset":66284,"target":34962},{"buffer":0,"byteLength":168,"byteOffset":66796,"target":34963},{"buffer":0,"byteLength":912,"byteOffset":66964,"target":34962},{"buffer":0,"byteLength":912,"byteOffset":67876,"target":34962},{"buffer":0,"byteLength":608,"byteOffset":68788,"target":34962},{"buffer":0,"byteLength":608,"byteOffset":69396,"target":34962}],"buffers":[{"byteLength":70004,"uri":"SM_FoodPot_09.bin"}],"images":[{"name":"T_FoodPot_N","uri":"T_FoodPot_N.tga"},{"name":"T_FoodPot_Jelly_N","uri":"T_FoodPot_Jelly_N.tga"}],"materials":[{"alphaMode":"OPAQUE","doubleSided":false,"extras":{"fromFBX":{"isTruePBR":false,"shadingModel":"Phong"}},"name":"MI_FoodPot","normalTexture":{"index":0,"texCoord":0},"pbrMetallicRoughness":{"baseColorFactor":[0.21586050093174,0.21586050093174,0.21586050093174,1],"metallicFactor":0.400000005960464,"roughnessFactor":0.301511347293854}},{"alphaMode":"OPAQUE","doubleSided":false,"extras":{"fromFBX":{"isTruePBR":false,"shadingModel":"Phong"}},"name":"MI_FoodPotJelly","normalTexture":{"index":1,"texCoord":0},"pbrMetallicRoughness":{"baseColorFactor":[0.21586050093174,0.21586050093174,0.21586050093174,1],"metallicFactor":0.400000005960464,"roughnessFactor":0.301511347293854}},{"alphaMode":"OPAQUE","doubleSided":false,"extras":{"fromFBX":{"isTruePBR":false,"shadingModel":"Lambert"}},"name":"DefaultMaterial","pbrMetallicRoughness":{"baseColorFactor":[0.5,0.5,0.5,1],"metallicFactor":0.200000002980232,"roughnessFactor":0.800000011920929}}],"meshes":[{"name":"SM_FoodPot_09_LOD0","primitives":[{"attributes":{"NORMAL":3,"POSITION":2,"TANGENT":4,"TEXCOORD_0":5,"TEXCOORD_1":6},"indices":1,"material":0,"mode":4},{"attributes":{"NORMAL":27,"POSITION":26,"TANGENT":28,"TEXCOORD_0":29,"TEXCOORD_1":30},"indices":25,"material":1,"mode":4}]},{"name":"SM_FoodPot_09_LOD1","primitives":[{"attributes":{"NORMAL":9,"POSITION":8,"TANGENT":10,"TEXCOORD_0":11,"TEXCOORD_1":12},"indices":7,"material":0,"mode":4},{"attributes":{"NORMAL":33,"POSITION":32,"TANGENT":34,"TEXCOORD_0":35,"TEXCOORD_1":36},"indices":31,"material":1,"mode":4}]},{"name":"SM_FoodPot_09_LOD2","primitives":[{"attributes":{"NORMAL":15,"POSITION":14,"TANGENT":16,"TEXCOORD_0":17,"TEXCOORD_1":18},"indices":13,"material":0,"mode":4},{"attributes":{"NORMAL":39,"POSITION":38,"TANGENT":40,"TEXCOORD_0":41,"TEXCOORD_1":42},"indices":37,"material":1,"mode":4}]},{"name":"SM_FoodPot_09_LOD3","primitives":[{"attributes":{"NORMAL":21,"POSITION":20,"TANGENT":22,"TEXCOORD_0":23,"TEXCOORD_1":24},"indices":19,"material":0,"mode":4},{"attributes":{"NORMAL":45,"POSITION":44,"TANGENT":46,"TEXCOORD_0":47,"TEXCOORD_1":48},"indices":43,"material":1,"mode":4}]},{"name":"SM_FoodPot_09_ConvexHulls","primitives":[{"attributes":{"NORMAL":51,"POSITION":50,"TEXCOORD_0":52,"TEXCOORD_1":53},"indices":49,"material":2,"mode":4}]}],"nodes":[{"children":[1,2,3,4,5],"name":"SM_FoodPot_52","originalUnits":0.00999999977648258,"pivot":[0,0,0],"rotation":[0,0,0,1],"scale":[1,1,1],"translation":[0,0,0]},{"mesh":0,"name":"SM_FoodPot_09_LOD0","originalUnits":0.00999999977648258,"pivot":[0,0,0],"rotation":[0,0,0,1],"scale":[1,1,1],"translation":[0,0,0]},{"mesh":4,"name":"SM_FoodPot_09_ConvexHulls","originalUnits":0.00999999977648258,"pivot":[0,0,0],"rotation":[0,0,0,1],"scale":[1,1,1],"translation":[0,0,0]},{"mesh":1,"name":"SM_FoodPot_09_LOD1","originalUnits":0.00999999977648258,"pivot":[0,0,0],"rotation":[0,0,0,1],"scale":[1,1,1],"translation":[0,0,0]},{"mesh":2,"name":"SM_FoodPot_09_LOD2","originalUnits":0.00999999977648258,"pivot":[0,0,0],"rotation":[0,0,0,1],"scale":[1,1,1],"translation":[0,0,0]},{"mesh":3,"name":"SM_FoodPot_09_LOD3","originalUnits":0.00999999977648258,"pivot":[0,0,0],"rotation":[0,0,0,1],"scale":[1,1,1],"translation":[0,0,0]}],"samplers":[{}],"scene":0,"scenes":[{"name":"Root Scene","nodes":[0]}],"textures":[{"name":"T_FoodPot_N","sampler":0,"source":0},{"name":"T_FoodPot_Jelly_N","sampler":0,"source":1}]}