{"accessors":[{"bufferView":0,"byteOffset":0,"componentType":5126,"count":1,"max":[0],"min":[0],"type":"SCALAR"},{"bufferView":1,"byteOffset":0,"componentType":5123,"count":1254,"type":"SCALAR"},{"bufferView":2,"byteOffset":0,"componentType":5126,"count":284,"max":[0.102725967764854,0.0276595316827297,0.016401743516326],"min":[-0.1072528809309,-0.00720467418432,-0.01693860813975],"type":"VEC3"},{"bufferView":3,"byteOffset":0,"componentType":5126,"count":284,"type":"VEC3"},{"bufferView":4,"byteOffset":0,"componentType":5126,"count":284,"type":"VEC4"},{"bufferView":5,"byteOffset":0,"componentType":5126,"count":284,"type":"VEC2"},{"bufferView":6,"byteOffset":0,"componentType":5126,"count":284,"type":"VEC2"},{"bufferView":7,"byteOffset":0,"componentType":5123,"count":942,"type":"SCALAR"},{"bufferView":8,"byteOffset":0,"componentType":5126,"count":227,"max":[0.102725967764854,0.0275731943547726,0.0164510309696198],"min":[-0.1072528809309,-0.00672424351797,-0.01642654649913],"type":"VEC3"},{"bufferView":9,"byteOffset":0,"componentType":5126,"count":227,"type":"VEC3"},{"bufferView":10,"byteOffset":0,"componentType":5126,"count":227,"type":"VEC4"},{"bufferView":11,"byteOffset":0,"componentType":5126,"count":227,"type":"VEC2"},{"bufferView":12,"byteOffset":0,"componentType":5126,"count":227,"type":"VEC2"},{"bufferView":13,"byteOffset":0,"componentType":5123,"count":624,"type":"SCALAR"},{"bufferView":14,"byteOffset":0,"componentType":5126,"count":164,"max":[0.102725967764854,0.0279143191874027,0.0164510309696198],"min":[-0.10775312781334,-0.00633720681071,-0.01643159799278],"type":"VEC3"},{"bufferView":15,"byteOffset":0,"componentType":5126,"count":164,"type":"VEC3"},{"bufferView":16,"byteOffset":0,"componentType":5126,"count":164,"type":"VEC4"},{"bufferView":17,"byteOffset":0,"componentType":5126,"count":164,"type":"VEC2"},{"bufferView":18,"byteOffset":0,"componentType":5126,"count":164,"type":"VEC2"},{"bufferView":19,"byteOffset":0,"componentType":5123,"count":312,"type":"SCALAR"},{"bufferView":20,"byteOffset":0,"componentType":5126,"count":94,"max":[0.102725967764854,0.027504675090313,0.0173437036573887],"min":[-0.10869762301445,-0.0060114050284,-0.01641452126205],"type":"VEC3"},{"bufferView":21,"byteOffset":0,"componentType":5126,"count":94,"type":"VEC3"},{"bufferView":22,"byteOffset":0,"componentType":5126,"count":94,"type":"VEC4"},{"bufferView":23,"byteOffset":0,"componentType":5126,"count":94,"type":"VEC2"},{"bufferView":24,"byteOffset":0,"componentType":5126,"count":94,"type":"VEC2"},{"bufferView":25,"byteOffset":0,"componentType":5123,"count":84,"type":"SCALAR"},{"bufferView":26,"byteOffset":0,"componentType":5126,"count":84,"max":[0.103318504989147,0.0282232109457254,0.0158939380198717],"min":[-0.10495200008154,-0.00634174514562,-0.01515349559486],"type":"VEC3"},{"bufferView":27,"byteOffset":0,"componentType":5126,"count":84,"type":"VEC3"},{"bufferView":28,"byteOffset":0,"componentType":5126,"count":84,"type":"VEC2"},{"bufferView":29,"byteOffset":0,"componentType":5126,"count":84,"type":"VEC2"}],"animations":[{"channels":[],"name":"Unreal Take","samplers":[]}],"asset":{"generator":"FBX2glTF v0.13.0","version":"2.0"},"bufferViews":[{"buffer":0,"byteLength":4,"byteOffset":0},{"buffer":0,"byteLength":2508,"byteOffset":4,"target":34963},{"buffer":0,"byteLength":3408,"byteOffset":2512,"target":34962},{"buffer":0,"byteLength":3408,"byteOffset":5920,"target":34962},{"buffer":0,"byteLength":4544,"byteOffset":9328,"target":34962},{"buffer":0,"byteLength":2272,"byteOffset":13872,"target":34962},{"buffer":0,"byteLength":2272,"byteOffset":16144,"target":34962},{"buffer":0,"byteLength":1884,"byteOffset":18416,"target":34963},{"buffer":0,"byteLength":2724,"byteOffset":20300,"target":34962},{"buffer":0,"byteLength":2724,"byteOffset":23024,"target":34962},{"buffer":0,"byteLength":3632,"byteOffset":25748,"target":34962},{"buffer":0,"byteLength":1816,"byteOffset":29380,"target":34962},{"buffer":0,"byteLength":1816,"byteOffset":31196,"target":34962},{"buffer":0,"byteLength":1248,"byteOffset":33012,"target":34963},{"buffer":0,"byteLength":1968,"byteOffset":34260,"target":34962},{"buffer":0,"byteLength":1968,"byteOffset":36228,"target":34962},{"buffer":0,"byteLength":2624,"byteOffset":38196,"target":34962},{"buffer":0,"byteLength":1312,"byteOffset":40820,"target":34962},{"buffer":0,"byteLength":1312,"byteOffset":42132,"target":34962},{"buffer":0,"byteLength":624,"byteOffset":43444,"target":34963},{"buffer":0,"byteLength":1128,"byteOffset":44068,"target":34962},{"buffer":0,"byteLength":1128,"byteOffset":45196,"target":34962},{"buffer":0,"byteLength":1504,"byteOffset":46324,"target":34962},{"buffer":0,"byteLength":752,"byteOffset":47828,"target":34962},{"buffer":0,"byteLength":752,"byteOffset":48580,"target":34962},{"buffer":0,"byteLength":168,"byteOffset":49332,"target":34963},{"buffer":0,"byteLength":1008,"byteOffset":49500,"target":34962},{"buffer":0,"byteLength":1008,"byteOffset":50508,"target":34962},{"buffer":0,"byteLength":672,"byteOffset":51516,"target":34962},{"buffer":0,"byteLength":672,"byteOffset":52188,"target":34962}],"buffers":[{"byteLength":52860,"uri":"SM_Food_SM_Carrot_01.bin"}],"images":[{"name":"T_Food_N","uri":"T_Food_N.tga"}],"materials":[{"alphaMode":"OPAQUE","doubleSided":false,"extras":{"fromFBX":{"isTruePBR":false,"shadingModel":"Phong"}},"name":"MI_Food","normalTexture":{"index":0,"texCoord":0},"pbrMetallicRoughness":{"baseColorFactor":[0.21586050093174,0.21586050093174,0.21586050093174,1],"metallicFactor":0.400000005960464,"roughnessFactor":0.301511347293854}},{"alphaMode":"OPAQUE","doubleSided":false,"extras":{"fromFBX":{"isTruePBR":false,"shadingModel":"Lambert"}},"name":"DefaultMaterial","pbrMetallicRoughness":{"baseColorFactor":[0.5,0.5,0.5,1],"metallicFactor":0.200000002980232,"roughnessFactor":0.800000011920929}}],"meshes":[{"name":"SM_Food_SM_Carrot_01_LOD0","primitives":[{"attributes":{"NORMAL":3,"POSITION":2,"TANGENT":4,"TEXCOORD_0":5,"TEXCOORD_1":6},"indices":1,"material":0,"mode":4}]},{"name":"SM_Food_SM_Carrot_01_LOD1","primitives":[{"attributes":{"NORMAL":9,"POSITION":8,"TANGENT":10,"TEXCOORD_0":11,"TEXCOORD_1":12},"indices":7,"material":0,"mode":4}]},{"name":"SM_Food_SM_Carrot_01_LOD2","primitives":[{"attributes":{"NORMAL":15,"POSITION":14,"TANGENT":16,"TEXCOORD_0":17,"TEXCOORD_1":18},"indices":13,"material":0,"mode":4}]},{"name":"SM_Food_SM_Carrot_01_LOD3","primitives":[{"attributes":{"NORMAL":21,"POSITION":20,"TANGENT":22,"TEXCOORD_0":23,"TEXCOORD_1":24},"indices":19,"material":0,"mode":4}]},{"name":"SM_Food_SM_Carrot_01_ConvexHulls","primitives":[{"attributes":{"NORMAL":27,"POSITION":26,"TEXCOORD_0":28,"TEXCOORD_1":29},"indices":25,"material":1,"mode":4}]}],"nodes":[{"children":[1,2,3,4,5],"name":"SM_Food_SM_Carrot_3","originalUnits":0.00999999977648258,"pivot":[0,0,0],"rotation":[0,0,0,1],"scale":[1,1,1],"translation":[0,0,0]},{"mesh":0,"name":"SM_Food_SM_Carrot_01_LOD0","originalUnits":0.00999999977648258,"pivot":[0,0,0],"rotation":[0,0,0,1],"scale":[1,1,1],"translation":[0,0,0]},{"mesh":4,"name":"SM_Food_SM_Carrot_01_ConvexHulls","originalUnits":0.00999999977648258,"pivot":[0,0,0],"rotation":[0,0,0,1],"scale":[1,1,1],"translation":[0,0,0]},{"mesh":1,"name":"SM_Food_SM_Carrot_01_LOD1","originalUnits":0.00999999977648258,"pivot":[0,0,0],"rotation":[0,0,0,1],"scale":[1,1,1],"translation":[0,0,0]},{"mesh":2,"name":"SM_Food_SM_Carrot_01_LOD2","originalUnits":0.00999999977648258,"pivot":[0,0,0],"rotation":[0,0,0,1],"scale":[1,1,1],"translation":[0,0,0]},{"mesh":3,"name":"SM_Food_SM_Carrot_01_LOD3","originalUnits":0.00999999977648258,"pivot":[0,0,0],"rotation":[0,0,0,1],"scale":[1,1,1],"translation":[0,0,0]}],"samplers":[{}],"scene":0,"scenes":[{"name":"Root Scene","nodes":[0]}],"textures":[{"name":"T_Food_N","sampler":0,"source":0}]}