{"accessors":[{"bufferView":0,"byteOffset":0,"componentType":5126,"count":1,"max":[0],"min":[0],"type":"SCALAR"},{"bufferView":1,"byteOffset":0,"componentType":5123,"count":384,"type":"SCALAR"},{"bufferView":2,"byteOffset":0,"componentType":5126,"count":105,"max":[0.0350390523672104,0.111082978546619,0.0350390560925007],"min":[-0.03503906726837,-0.00000000417698,-0.0350390560925],"type":"VEC3"},{"bufferView":3,"byteOffset":0,"componentType":5126,"count":105,"type":"VEC3"},{"bufferView":4,"byteOffset":0,"componentType":5126,"count":105,"type":"VEC4"},{"bufferView":5,"byteOffset":0,"componentType":5126,"count":105,"type":"VEC2"},{"bufferView":6,"byteOffset":0,"componentType":5126,"count":105,"type":"VEC2"},{"bufferView":7,"byteOffset":0,"componentType":5123,"count":312,"type":"SCALAR"},{"bufferView":8,"byteOffset":0,"componentType":5126,"count":92,"max":[0.0350390523672104,0.111083015799522,0.0350390560925007],"min":[-0.03503906726837,-0.00000000417698,-0.0350390560925],"type":"VEC3"},{"bufferView":9,"byteOffset":0,"componentType":5126,"count":92,"type":"VEC3"},{"bufferView":10,"byteOffset":0,"componentType":5126,"count":92,"type":"VEC4"},{"bufferView":11,"byteOffset":0,"componentType":5126,"count":92,"type":"VEC2"},{"bufferView":12,"byteOffset":0,"componentType":5126,"count":92,"type":"VEC2"},{"bufferView":13,"byteOffset":0,"componentType":5123,"count":255,"type":"SCALAR"},{"bufferView":14,"byteOffset":0,"componentType":5126,"count":77,"max":[0.0350390523672104,0.111083015799522,0.0350390560925007],"min":[-0.03507196903229,-0.00000000397253,-0.0350390560925],"type":"VEC3"},{"bufferView":15,"byteOffset":0,"componentType":5126,"count":77,"type":"VEC3"},{"bufferView":16,"byteOffset":0,"componentType":5126,"count":77,"type":"VEC4"},{"bufferView":17,"byteOffset":0,"componentType":5126,"count":77,"type":"VEC2"},{"bufferView":18,"byteOffset":0,"componentType":5126,"count":77,"type":"VEC2"},{"bufferView":19,"byteOffset":0,"componentType":5123,"count":141,"type":"SCALAR"},{"bufferView":20,"byteOffset":0,"componentType":5126,"count":45,"max":[0.0359358228743076,0.111087530851364,0.0357649810612202],"min":[-0.03636590018868,-0.00010327424388,-0.0350390560925],"type":"VEC3"},{"bufferView":21,"byteOffset":0,"componentType":5126,"count":45,"type":"VEC3"},{"bufferView":22,"byteOffset":0,"componentType":5126,"count":45,"type":"VEC4"},{"bufferView":23,"byteOffset":0,"componentType":5126,"count":45,"type":"VEC2"},{"bufferView":24,"byteOffset":0,"componentType":5126,"count":45,"type":"VEC2"},{"bufferView":25,"byteOffset":0,"componentType":5123,"count":1176,"type":"SCALAR"},{"bufferView":26,"byteOffset":0,"componentType":5126,"count":295,"max":[0.0371734388172626,0.118922606110573,0.0371731519699097],"min":[-0.0371740758419,0.00272334692999721,-0.03717315196991],"type":"VEC3"},{"bufferView":27,"byteOffset":0,"componentType":5126,"count":295,"type":"VEC3"},{"bufferView":28,"byteOffset":0,"componentType":5126,"count":295,"type":"VEC4"},{"bufferView":29,"byteOffset":0,"componentType":5126,"count":295,"type":"VEC2"},{"bufferView":30,"byteOffset":0,"componentType":5126,"count":295,"type":"VEC2"},{"bufferView":31,"byteOffset":0,"componentType":5123,"count":858,"type":"SCALAR"},{"bufferView":32,"byteOffset":0,"componentType":5126,"count":257,"max":[0.0371734388172626,0.118922606110573,0.0371731519699097],"min":[-0.03730970993638,0.00272334692999721,-0.03728652000427],"type":"VEC3"},{"bufferView":33,"byteOffset":0,"componentType":5126,"count":257,"type":"VEC3"},{"bufferView":34,"byteOffset":0,"componentType":5126,"count":257,"type":"VEC4"},{"bufferView":35,"byteOffset":0,"componentType":5126,"count":257,"type":"VEC2"},{"bufferView":36,"byteOffset":0,"componentType":5126,"count":257,"type":"VEC2"},{"bufferView":37,"byteOffset":0,"componentType":5123,"count":525,"type":"SCALAR"},{"bufferView":38,"byteOffset":0,"componentType":5126,"count":188,"max":[0.0377453193068504,0.119138695299625,0.0371737740933895],"min":[-0.03730970993638,0.00272334692999721,-0.03728652000427],"type":"VEC3"},{"bufferView":39,"byteOffset":0,"componentType":5126,"count":188,"type":"VEC3"},{"bufferView":40,"byteOffset":0,"componentType":5126,"count":188,"type":"VEC4"},{"bufferView":41,"byteOffset":0,"componentType":5126,"count":188,"type":"VEC2"},{"bufferView":42,"byteOffset":0,"componentType":5126,"count":188,"type":"VEC2"},{"bufferView":43,"byteOffset":0,"componentType":5123,"count":249,"type":"SCALAR"},{"bufferView":44,"byteOffset":0,"componentType":5126,"count":92,"max":[0.037913653999567,0.11880711466074,0.0371731519699097],"min":[-0.03736137226224,0.0014186785556376,-0.03732892870903],"type":"VEC3"},{"bufferView":45,"byteOffset":0,"componentType":5126,"count":92,"type":"VEC3"},{"bufferView":46,"byteOffset":0,"componentType":5126,"count":92,"type":"VEC4"},{"bufferView":47,"byteOffset":0,"componentType":5126,"count":92,"type":"VEC2"},{"bufferView":48,"byteOffset":0,"componentType":5126,"count":92,"type":"VEC2"},{"bufferView":49,"byteOffset":0,"componentType":5123,"count":84,"type":"SCALAR"},{"bufferView":50,"byteOffset":0,"componentType":5126,"count":74,"max":[0.0364565066993237,0.117076978087425,0.0364152900874615],"min":[-0.0348620377481,0.00167280773166567,-0.03550317138433],"type":"VEC3"},{"bufferView":51,"byteOffset":0,"componentType":5126,"count":74,"type":"VEC3"},{"bufferView":52,"byteOffset":0,"componentType":5126,"count":74,"type":"VEC2"},{"bufferView":53,"byteOffset":0,"componentType":5126,"count":74,"type":"VEC2"}],"animations":[{"channels":[],"name":"Unreal Take","samplers":[]}],"asset":{"generator":"FBX2glTF v0.13.0","version":"2.0"},"bufferViews":[{"buffer":0,"byteLength":4,"byteOffset":0},{"buffer":0,"byteLength":768,"byteOffset":4,"target":34963},{"buffer":0,"byteLength":1260,"byteOffset":772,"target":34962},{"buffer":0,"byteLength":1260,"byteOffset":2032,"target":34962},{"buffer":0,"byteLength":1680,"byteOffset":3292,"target":34962},{"buffer":0,"byteLength":840,"byteOffset":4972,"target":34962},{"buffer":0,"byteLength":840,"byteOffset":5812,"target":34962},{"buffer":0,"byteLength":624,"byteOffset":6652,"target":34963},{"buffer":0,"byteLength":1104,"byteOffset":7276,"target":34962},{"buffer":0,"byteLength":1104,"byteOffset":8380,"target":34962},{"buffer":0,"byteLength":1472,"byteOffset":9484,"target":34962},{"buffer":0,"byteLength":736,"byteOffset":10956,"target":34962},{"buffer":0,"byteLength":736,"byteOffset":11692,"target":34962},{"buffer":0,"byteLength":510,"byteOffset":12428,"target":34963},{"buffer":0,"byteLength":924,"byteOffset":12940,"target":34962},{"buffer":0,"byteLength":924,"byteOffset":13864,"target":34962},{"buffer":0,"byteLength":1232,"byteOffset":14788,"target":34962},{"buffer":0,"byteLength":616,"byteOffset":16020,"target":34962},{"buffer":0,"byteLength":616,"byteOffset":16636,"target":34962},{"buffer":0,"byteLength":282,"byteOffset":17252,"target":34963},{"buffer":0,"byteLength":540,"byteOffset":17536,"target":34962},{"buffer":0,"byteLength":540,"byteOffset":18076,"target":34962},{"buffer":0,"byteLength":720,"byteOffset":18616,"target":34962},{"buffer":0,"byteLength":360,"byteOffset":19336,"target":34962},{"buffer":0,"byteLength":360,"byteOffset":19696,"target":34962},{"buffer":0,"byteLength":2352,"byteOffset":20056,"target":34963},{"buffer":0,"byteLength":3540,"byteOffset":22408,"target":34962},{"buffer":0,"byteLength":3540,"byteOffset":25948,"target":34962},{"buffer":0,"byteLength":4720,"byteOffset":29488,"target":34962},{"buffer":0,"byteLength":2360,"byteOffset":34208,"target":34962},{"buffer":0,"byteLength":2360,"byteOffset":36568,"target":34962},{"buffer":0,"byteLength":1716,"byteOffset":38928,"target":34963},{"buffer":0,"byteLength":3084,"byteOffset":40644,"target":34962},{"buffer":0,"byteLength":3084,"byteOffset":43728,"target":34962},{"buffer":0,"byteLength":4112,"byteOffset":46812,"target":34962},{"buffer":0,"byteLength":2056,"byteOffset":50924,"target":34962},{"buffer":0,"byteLength":2056,"byteOffset":52980,"target":34962},{"buffer":0,"byteLength":1050,"byteOffset":55036,"target":34963},{"buffer":0,"byteLength":2256,"byteOffset":56088,"target":34962},{"buffer":0,"byteLength":2256,"byteOffset":58344,"target":34962},{"buffer":0,"byteLength":3008,"byteOffset":60600,"target":34962},{"buffer":0,"byteLength":1504,"byteOffset":63608,"target":34962},{"buffer":0,"byteLength":1504,"byteOffset":65112,"target":34962},{"buffer":0,"byteLength":498,"byteOffset":66616,"target":34963},{"buffer":0,"byteLength":1104,"byteOffset":67116,"target":34962},{"buffer":0,"byteLength":1104,"byteOffset":68220,"target":34962},{"buffer":0,"byteLength":1472,"byteOffset":69324,"target":34962},{"buffer":0,"byteLength":736,"byteOffset":70796,"target":34962},{"buffer":0,"byteLength":736,"byteOffset":71532,"target":34962},{"buffer":0,"byteLength":168,"byteOffset":72268,"target":34963},{"buffer":0,"byteLength":888,"byteOffset":72436,"target":34962},{"buffer":0,"byteLength":888,"byteOffset":73324,"target":34962},{"buffer":0,"byteLength":592,"byteOffset":74212,"target":34962},{"buffer":0,"byteLength":592,"byteOffset":74804,"target":34962}],"buffers":[{"byteLength":75396,"uri":"SM_FoodPot_11.bin"}],"images":[{"name":"T_FoodPot_Jelly_N","uri":"T_FoodPot_Jelly_N.tga"},{"name":"T_FoodPot_N","uri":"T_FoodPot_N.tga"}],"materials":[{"alphaMode":"OPAQUE","doubleSided":false,"extras":{"fromFBX":{"isTruePBR":false,"shadingModel":"Phong"}},"name":"MI_FoodPotJelly","normalTexture":{"index":0,"texCoord":0},"pbrMetallicRoughness":{"baseColorFactor":[0.21586050093174,0.21586050093174,0.21586050093174,1],"metallicFactor":0.400000005960464,"roughnessFactor":0.301511347293854}},{"alphaMode":"OPAQUE","doubleSided":false,"extras":{"fromFBX":{"isTruePBR":false,"shadingModel":"Phong"}},"name":"MI_FoodPot","normalTexture":{"index":1,"texCoord":0},"pbrMetallicRoughness":{"baseColorFactor":[0.21586050093174,0.21586050093174,0.21586050093174,1],"metallicFactor":0.400000005960464,"roughnessFactor":0.301511347293854}},{"alphaMode":"OPAQUE","doubleSided":false,"extras":{"fromFBX":{"isTruePBR":false,"shadingModel":"Lambert"}},"name":"DefaultMaterial","pbrMetallicRoughness":{"baseColorFactor":[0.5,0.5,0.5,1],"metallicFactor":0.200000002980232,"roughnessFactor":0.800000011920929}}],"meshes":[{"name":"SM_FoodPot_11_LOD0","primitives":[{"attributes":{"NORMAL":3,"POSITION":2,"TANGENT":4,"TEXCOORD_0":5,"TEXCOORD_1":6},"indices":1,"material":0,"mode":4},{"attributes":{"NORMAL":27,"POSITION":26,"TANGENT":28,"TEXCOORD_0":29,"TEXCOORD_1":30},"indices":25,"material":1,"mode":4}]},{"name":"SM_FoodPot_11_LOD1","primitives":[{"attributes":{"NORMAL":9,"POSITION":8,"TANGENT":10,"TEXCOORD_0":11,"TEXCOORD_1":12},"indices":7,"material":0,"mode":4},{"attributes":{"NORMAL":33,"POSITION":32,"TANGENT":34,"TEXCOORD_0":35,"TEXCOORD_1":36},"indices":31,"material":1,"mode":4}]},{"name":"SM_FoodPot_11_LOD2","primitives":[{"attributes":{"NORMAL":15,"POSITION":14,"TANGENT":16,"TEXCOORD_0":17,"TEXCOORD_1":18},"indices":13,"material":0,"mode":4},{"attributes":{"NORMAL":39,"POSITION":38,"TANGENT":40,"TEXCOORD_0":41,"TEXCOORD_1":42},"indices":37,"material":1,"mode":4}]},{"name":"SM_FoodPot_11_LOD3","primitives":[{"attributes":{"NORMAL":21,"POSITION":20,"TANGENT":22,"TEXCOORD_0":23,"TEXCOORD_1":24},"indices":19,"material":0,"mode":4},{"attributes":{"NORMAL":45,"POSITION":44,"TANGENT":46,"TEXCOORD_0":47,"TEXCOORD_1":48},"indices":43,"material":1,"mode":4}]},{"name":"SM_FoodPot_11_ConvexHulls","primitives":[{"attributes":{"NORMAL":51,"POSITION":50,"TEXCOORD_0":52,"TEXCOORD_1":53},"indices":49,"material":2,"mode":4}]}],"nodes":[{"children":[1,2,3,4,5],"name":"SM_FoodPot_9","originalUnits":0.00999999977648258,"pivot":[0,0,0],"rotation":[0,0,0,1],"scale":[1,1,1],"translation":[0,0,0]},{"mesh":0,"name":"SM_FoodPot_11_LOD0","originalUnits":0.00999999977648258,"pivot":[0,0,0],"rotation":[0,0,0,1],"scale":[1,1,1],"translation":[0,0,0]},{"mesh":4,"name":"SM_FoodPot_11_ConvexHulls","originalUnits":0.00999999977648258,"pivot":[0,0,0],"rotation":[0,0,0,1],"scale":[1,1,1],"translation":[0,0,0]},{"mesh":1,"name":"SM_FoodPot_11_LOD1","originalUnits":0.00999999977648258,"pivot":[0,0,0],"rotation":[0,0,0,1],"scale":[1,1,1],"translation":[0,0,0]},{"mesh":2,"name":"SM_FoodPot_11_LOD2","originalUnits":0.00999999977648258,"pivot":[0,0,0],"rotation":[0,0,0,1],"scale":[1,1,1],"translation":[0,0,0]},{"mesh":3,"name":"SM_FoodPot_11_LOD3","originalUnits":0.00999999977648258,"pivot":[0,0,0],"rotation":[0,0,0,1],"scale":[1,1,1],"translation":[0,0,0]}],"samplers":[{}],"scene":0,"scenes":[{"name":"Root Scene","nodes":[0]}],"textures":[{"name":"T_FoodPot_Jelly_N","sampler":0,"source":0},{"name":"T_FoodPot_N","sampler":0,"source":1}]}