{"accessors":[{"bufferView":0,"byteOffset":0,"componentType":5126,"count":1,"max":[0],"min":[0],"type":"SCALAR"},{"bufferView":1,"byteOffset":0,"componentType":5123,"count":741,"type":"SCALAR"},{"bufferView":2,"byteOffset":0,"componentType":5126,"count":147,"max":[0.0765442326664925,0.00772192236036062,0.0803471133112907],"min":[-0.08868692070246,-0.00415551289916,-0.08460904657841],"type":"VEC3"},{"bufferView":3,"byteOffset":0,"componentType":5126,"count":147,"type":"VEC3"},{"bufferView":4,"byteOffset":0,"componentType":5126,"count":147,"type":"VEC4"},{"bufferView":5,"byteOffset":0,"componentType":5126,"count":147,"type":"VEC2"},{"bufferView":6,"byteOffset":0,"componentType":5126,"count":147,"type":"VEC2"},{"bufferView":7,"byteOffset":0,"componentType":5123,"count":558,"type":"SCALAR"},{"bufferView":8,"byteOffset":0,"componentType":5126,"count":115,"max":[0.0765442326664925,0.00773450592532754,0.0802405402064323],"min":[-0.08868692070246,-0.00415551289916,-0.08460904657841],"type":"VEC3"},{"bufferView":9,"byteOffset":0,"componentType":5126,"count":115,"type":"VEC3"},{"bufferView":10,"byteOffset":0,"componentType":5126,"count":115,"type":"VEC4"},{"bufferView":11,"byteOffset":0,"componentType":5126,"count":115,"type":"VEC2"},{"bufferView":12,"byteOffset":0,"componentType":5126,"count":115,"type":"VEC2"},{"bufferView":13,"byteOffset":0,"componentType":5123,"count":369,"type":"SCALAR"},{"bufferView":14,"byteOffset":0,"componentType":5126,"count":80,"max":[0.0765442326664925,0.00796480383723974,0.0802405402064323],"min":[-0.08936120569706,-0.00415551289916,-0.08460904657841],"type":"VEC3"},{"bufferView":15,"byteOffset":0,"componentType":5126,"count":80,"type":"VEC3"},{"bufferView":16,"byteOffset":0,"componentType":5126,"count":80,"type":"VEC4"},{"bufferView":17,"byteOffset":0,"componentType":5126,"count":80,"type":"VEC2"},{"bufferView":18,"byteOffset":0,"componentType":5126,"count":80,"type":"VEC2"},{"bufferView":19,"byteOffset":0,"componentType":5123,"count":183,"type":"SCALAR"},{"bufferView":20,"byteOffset":0,"componentType":5126,"count":49,"max":[0.0728717371821404,0.00768126873299479,0.0804123729467392],"min":[-0.08936120569706,-0.0098064430058,-0.08362190425396],"type":"VEC3"},{"bufferView":21,"byteOffset":0,"componentType":5126,"count":49,"type":"VEC3"},{"bufferView":22,"byteOffset":0,"componentType":5126,"count":49,"type":"VEC4"},{"bufferView":23,"byteOffset":0,"componentType":5126,"count":49,"type":"VEC2"},{"bufferView":24,"byteOffset":0,"componentType":5126,"count":49,"type":"VEC2"},{"bufferView":25,"byteOffset":0,"componentType":5123,"count":306,"type":"SCALAR"},{"bufferView":26,"byteOffset":0,"componentType":5126,"count":276,"max":[0.075573168694973,0.0073493211530149,0.0815736576914787],"min":[-0.089997805655,-0.00465345522389,-0.08407559990883],"type":"VEC3"},{"bufferView":27,"byteOffset":0,"componentType":5126,"count":276,"type":"VEC3"},{"bufferView":28,"byteOffset":0,"componentType":5126,"count":276,"type":"VEC2"},{"bufferView":29,"byteOffset":0,"componentType":5126,"count":276,"type":"VEC2"}],"animations":[{"channels":[],"name":"Unreal Take","samplers":[]}],"asset":{"generator":"FBX2glTF v0.13.0","version":"2.0"},"bufferViews":[{"buffer":0,"byteLength":4,"byteOffset":0},{"buffer":0,"byteLength":1482,"byteOffset":4,"target":34963},{"buffer":0,"byteLength":1764,"byteOffset":1488,"target":34962},{"buffer":0,"byteLength":1764,"byteOffset":3252,"target":34962},{"buffer":0,"byteLength":2352,"byteOffset":5016,"target":34962},{"buffer":0,"byteLength":1176,"byteOffset":7368,"target":34962},{"buffer":0,"byteLength":1176,"byteOffset":8544,"target":34962},{"buffer":0,"byteLength":1116,"byteOffset":9720,"target":34963},{"buffer":0,"byteLength":1380,"byteOffset":10836,"target":34962},{"buffer":0,"byteLength":1380,"byteOffset":12216,"target":34962},{"buffer":0,"byteLength":1840,"byteOffset":13596,"target":34962},{"buffer":0,"byteLength":920,"byteOffset":15436,"target":34962},{"buffer":0,"byteLength":920,"byteOffset":16356,"target":34962},{"buffer":0,"byteLength":738,"byteOffset":17276,"target":34963},{"buffer":0,"byteLength":960,"byteOffset":18016,"target":34962},{"buffer":0,"byteLength":960,"byteOffset":18976,"target":34962},{"buffer":0,"byteLength":1280,"byteOffset":19936,"target":34962},{"buffer":0,"byteLength":640,"byteOffset":21216,"target":34962},{"buffer":0,"byteLength":640,"byteOffset":21856,"target":34962},{"buffer":0,"byteLength":366,"byteOffset":22496,"target":34963},{"buffer":0,"byteLength":588,"byteOffset":22864,"target":34962},{"buffer":0,"byteLength":588,"byteOffset":23452,"target":34962},{"buffer":0,"byteLength":784,"byteOffset":24040,"target":34962},{"buffer":0,"byteLength":392,"byteOffset":24824,"target":34962},{"buffer":0,"byteLength":392,"byteOffset":25216,"target":34962},{"buffer":0,"byteLength":612,"byteOffset":25608,"target":34963},{"buffer":0,"byteLength":3312,"byteOffset":26220,"target":34962},{"buffer":0,"byteLength":3312,"byteOffset":29532,"target":34962},{"buffer":0,"byteLength":2208,"byteOffset":32844,"target":34962},{"buffer":0,"byteLength":2208,"byteOffset":35052,"target":34962}],"buffers":[{"byteLength":37260,"uri":"SM_Food_SM_Egg.bin"}],"images":[{"name":"T_Food_N","uri":"T_Food_N.tga"}],"materials":[{"alphaMode":"OPAQUE","doubleSided":false,"extras":{"fromFBX":{"isTruePBR":false,"shadingModel":"Phong"}},"name":"MI_Food","normalTexture":{"index":0,"texCoord":0},"pbrMetallicRoughness":{"baseColorFactor":[0.21586050093174,0.21586050093174,0.21586050093174,1],"metallicFactor":0.400000005960464,"roughnessFactor":0.301511347293854}},{"alphaMode":"OPAQUE","doubleSided":false,"extras":{"fromFBX":{"isTruePBR":false,"shadingModel":"Lambert"}},"name":"DefaultMaterial","pbrMetallicRoughness":{"baseColorFactor":[0.5,0.5,0.5,1],"metallicFactor":0.200000002980232,"roughnessFactor":0.800000011920929}}],"meshes":[{"name":"SM_Food_SM_Egg_LOD0","primitives":[{"attributes":{"NORMAL":3,"POSITION":2,"TANGENT":4,"TEXCOORD_0":5,"TEXCOORD_1":6},"indices":1,"material":0,"mode":4}]},{"name":"SM_Food_SM_Egg_LOD1","primitives":[{"attributes":{"NORMAL":9,"POSITION":8,"TANGENT":10,"TEXCOORD_0":11,"TEXCOORD_1":12},"indices":7,"material":0,"mode":4}]},{"name":"SM_Food_SM_Egg_LOD2","primitives":[{"attributes":{"NORMAL":15,"POSITION":14,"TANGENT":16,"TEXCOORD_0":17,"TEXCOORD_1":18},"indices":13,"material":0,"mode":4}]},{"name":"SM_Food_SM_Egg_LOD3","primitives":[{"attributes":{"NORMAL":21,"POSITION":20,"TANGENT":22,"TEXCOORD_0":23,"TEXCOORD_1":24},"indices":19,"material":0,"mode":4}]},{"name":"SM_Food_SM_Egg_ConvexHulls","primitives":[{"attributes":{"NORMAL":27,"POSITION":26,"TEXCOORD_0":28,"TEXCOORD_1":29},"indices":25,"material":1,"mode":4}]}],"nodes":[{"children":[1,2,3,4,5],"name":"SM_Food_SM_Egg4","originalUnits":0.00999999977648258,"pivot":[0,0,0],"rotation":[0,0,0,1],"scale":[1,1,1],"translation":[0,0,0]},{"mesh":0,"name":"SM_Food_SM_Egg_LOD0","originalUnits":0.00999999977648258,"pivot":[0,0,0],"rotation":[0,0,0,1],"scale":[1,1,1],"translation":[0,0,0]},{"mesh":4,"name":"SM_Food_SM_Egg_ConvexHulls","originalUnits":0.00999999977648258,"pivot":[0,0,0],"rotation":[0,0,0,1],"scale":[1,1,1],"translation":[0,0,0]},{"mesh":1,"name":"SM_Food_SM_Egg_LOD1","originalUnits":0.00999999977648258,"pivot":[0,0,0],"rotation":[0,0,0,1],"scale":[1,1,1],"translation":[0,0,0]},{"mesh":2,"name":"SM_Food_SM_Egg_LOD2","originalUnits":0.00999999977648258,"pivot":[0,0,0],"rotation":[0,0,0,1],"scale":[1,1,1],"translation":[0,0,0]},{"mesh":3,"name":"SM_Food_SM_Egg_LOD3","originalUnits":0.00999999977648258,"pivot":[0,0,0],"rotation":[0,0,0,1],"scale":[1,1,1],"translation":[0,0,0]}],"samplers":[{}],"scene":0,"scenes":[{"name":"Root Scene","nodes":[0]}],"textures":[{"name":"T_Food_N","sampler":0,"source":0}]}