{"accessors":[{"bufferView":0,"byteOffset":0,"componentType":5126,"count":1,"max":[0],"min":[0],"type":"SCALAR"},{"bufferView":1,"byteOffset":0,"componentType":5123,"count":5700,"type":"SCALAR"},{"bufferView":2,"byteOffset":0,"componentType":5126,"count":1092,"max":[0.102082602679729,0.454715669155121,0.102282702922821],"min":[-0.10208267718554,0.00269270944409072,-0.10147947818041],"type":"VEC3"},{"bufferView":3,"byteOffset":0,"componentType":5126,"count":1092,"type":"VEC3"},{"bufferView":4,"byteOffset":0,"componentType":5126,"count":1092,"type":"VEC4"},{"bufferView":5,"byteOffset":0,"componentType":5126,"count":1092,"type":"VEC2"},{"bufferView":6,"byteOffset":0,"componentType":5126,"count":1092,"type":"VEC2"},{"bufferView":7,"byteOffset":0,"componentType":5123,"count":4272,"type":"SCALAR"},{"bufferView":8,"byteOffset":0,"componentType":5126,"count":845,"max":[0.102082602679729,0.454715669155121,0.102282702922821],"min":[-0.10208267718554,0.00269270944409072,-0.10147947818041],"type":"VEC3"},{"bufferView":9,"byteOffset":0,"componentType":5126,"count":845,"type":"VEC3"},{"bufferView":10,"byteOffset":0,"componentType":5126,"count":845,"type":"VEC4"},{"bufferView":11,"byteOffset":0,"componentType":5126,"count":845,"type":"VEC2"},{"bufferView":12,"byteOffset":0,"componentType":5126,"count":845,"type":"VEC2"},{"bufferView":13,"byteOffset":0,"componentType":5123,"count":2850,"type":"SCALAR"},{"bufferView":14,"byteOffset":0,"componentType":5126,"count":603,"max":[0.102082602679729,0.454715669155121,0.102282702922821],"min":[-0.10208267718554,0.00269270944409072,-0.10152374953032],"type":"VEC3"},{"bufferView":15,"byteOffset":0,"componentType":5126,"count":603,"type":"VEC3"},{"bufferView":16,"byteOffset":0,"componentType":5126,"count":603,"type":"VEC4"},{"bufferView":17,"byteOffset":0,"componentType":5126,"count":603,"type":"VEC2"},{"bufferView":18,"byteOffset":0,"componentType":5126,"count":603,"type":"VEC2"},{"bufferView":19,"byteOffset":0,"componentType":5123,"count":1422,"type":"SCALAR"},{"bufferView":20,"byteOffset":0,"componentType":5126,"count":325,"max":[0.101611465215683,0.454900503158569,0.102282702922821],"min":[-0.10162466019392,0.0026727756485343,-0.10278794914484],"type":"VEC3"},{"bufferView":21,"byteOffset":0,"componentType":5126,"count":325,"type":"VEC3"},{"bufferView":22,"byteOffset":0,"componentType":5126,"count":325,"type":"VEC4"},{"bufferView":23,"byteOffset":0,"componentType":5126,"count":325,"type":"VEC2"},{"bufferView":24,"byteOffset":0,"componentType":5126,"count":325,"type":"VEC2"},{"bufferView":25,"byteOffset":0,"componentType":5123,"count":336,"type":"SCALAR"},{"bufferView":26,"byteOffset":0,"componentType":5126,"count":328,"max":[0.100502371788025,0.456808567047119,0.101960845291615],"min":[-0.1001236140728,0.00269272527657449,-0.10147947818041],"type":"VEC3"},{"bufferView":27,"byteOffset":0,"componentType":5126,"count":328,"type":"VEC3"},{"bufferView":28,"byteOffset":0,"componentType":5126,"count":328,"type":"VEC2"},{"bufferView":29,"byteOffset":0,"componentType":5126,"count":328,"type":"VEC2"}],"animations":[{"channels":[],"name":"Unreal Take","samplers":[]}],"asset":{"generator":"FBX2glTF v0.13.0","version":"2.0"},"bufferViews":[{"buffer":0,"byteLength":4,"byteOffset":0},{"buffer":0,"byteLength":11400,"byteOffset":4,"target":34963},{"buffer":0,"byteLength":13104,"byteOffset":11404,"target":34962},{"buffer":0,"byteLength":13104,"byteOffset":24508,"target":34962},{"buffer":0,"byteLength":17472,"byteOffset":37612,"target":34962},{"buffer":0,"byteLength":8736,"byteOffset":55084,"target":34962},{"buffer":0,"byteLength":8736,"byteOffset":63820,"target":34962},{"buffer":0,"byteLength":8544,"byteOffset":72556,"target":34963},{"buffer":0,"byteLength":10140,"byteOffset":81100,"target":34962},{"buffer":0,"byteLength":10140,"byteOffset":91240,"target":34962},{"buffer":0,"byteLength":13520,"byteOffset":101380,"target":34962},{"buffer":0,"byteLength":6760,"byteOffset":114900,"target":34962},{"buffer":0,"byteLength":6760,"byteOffset":121660,"target":34962},{"buffer":0,"byteLength":5700,"byteOffset":128420,"target":34963},{"buffer":0,"byteLength":7236,"byteOffset":134120,"target":34962},{"buffer":0,"byteLength":7236,"byteOffset":141356,"target":34962},{"buffer":0,"byteLength":9648,"byteOffset":148592,"target":34962},{"buffer":0,"byteLength":4824,"byteOffset":158240,"target":34962},{"buffer":0,"byteLength":4824,"byteOffset":163064,"target":34962},{"buffer":0,"byteLength":2844,"byteOffset":167888,"target":34963},{"buffer":0,"byteLength":3900,"byteOffset":170732,"target":34962},{"buffer":0,"byteLength":3900,"byteOffset":174632,"target":34962},{"buffer":0,"byteLength":5200,"byteOffset":178532,"target":34962},{"buffer":0,"byteLength":2600,"byteOffset":183732,"target":34962},{"buffer":0,"byteLength":2600,"byteOffset":186332,"target":34962},{"buffer":0,"byteLength":672,"byteOffset":188932,"target":34963},{"buffer":0,"byteLength":3936,"byteOffset":189604,"target":34962},{"buffer":0,"byteLength":3936,"byteOffset":193540,"target":34962},{"buffer":0,"byteLength":2624,"byteOffset":197476,"target":34962},{"buffer":0,"byteLength":2624,"byteOffset":200100,"target":34962}],"buffers":[{"byteLength":202724,"uri":"SM_FlowerPot_03.bin"}],"images":[{"name":"T_FlowerPot_N","uri":"T_FlowerPot_N.tga"}],"materials":[{"alphaMode":"OPAQUE","doubleSided":false,"extras":{"fromFBX":{"isTruePBR":false,"shadingModel":"Phong"}},"name":"MI_FlowerPot","normalTexture":{"index":0,"texCoord":0},"pbrMetallicRoughness":{"baseColorFactor":[0.21586050093174,0.21586050093174,0.21586050093174,1],"metallicFactor":0.400000005960464,"roughnessFactor":0.301511347293854}},{"alphaMode":"OPAQUE","doubleSided":false,"extras":{"fromFBX":{"isTruePBR":false,"shadingModel":"Lambert"}},"name":"DefaultMaterial","pbrMetallicRoughness":{"baseColorFactor":[0.5,0.5,0.5,1],"metallicFactor":0.200000002980232,"roughnessFactor":0.800000011920929}}],"meshes":[{"name":"SM_FlowerPot_03_LOD0","primitives":[{"attributes":{"NORMAL":3,"POSITION":2,"TANGENT":4,"TEXCOORD_0":5,"TEXCOORD_1":6},"indices":1,"material":0,"mode":4}]},{"name":"SM_FlowerPot_03_LOD1","primitives":[{"attributes":{"NORMAL":9,"POSITION":8,"TANGENT":10,"TEXCOORD_0":11,"TEXCOORD_1":12},"indices":7,"material":0,"mode":4}]},{"name":"SM_FlowerPot_03_LOD2","primitives":[{"attributes":{"NORMAL":15,"POSITION":14,"TANGENT":16,"TEXCOORD_0":17,"TEXCOORD_1":18},"indices":13,"material":0,"mode":4}]},{"name":"SM_FlowerPot_03_LOD3","primitives":[{"attributes":{"NORMAL":21,"POSITION":20,"TANGENT":22,"TEXCOORD_0":23,"TEXCOORD_1":24},"indices":19,"material":0,"mode":4}]},{"name":"SM_FlowerPot_03_ConvexHulls","primitives":[{"attributes":{"NORMAL":27,"POSITION":26,"TEXCOORD_0":28,"TEXCOORD_1":29},"indices":25,"material":1,"mode":4}]}],"nodes":[{"children":[1,2,3,4,5],"name":"SM_FlowerPot_21","originalUnits":0.00999999977648258,"pivot":[0,0,0],"rotation":[0,0,0,1],"scale":[1,1,1],"translation":[0,0,0]},{"mesh":0,"name":"SM_FlowerPot_03_LOD0","originalUnits":0.00999999977648258,"pivot":[0,0,0],"rotation":[0,0,0,1],"scale":[1,1,1],"translation":[0,0,0]},{"mesh":4,"name":"SM_FlowerPot_03_ConvexHulls","originalUnits":0.00999999977648258,"pivot":[0,0,0],"rotation":[0,0,0,1],"scale":[1,1,1],"translation":[0,0,0]},{"mesh":1,"name":"SM_FlowerPot_03_LOD1","originalUnits":0.00999999977648258,"pivot":[0,0,0],"rotation":[0,0,0,1],"scale":[1,1,1],"translation":[0,0,0]},{"mesh":2,"name":"SM_FlowerPot_03_LOD2","originalUnits":0.00999999977648258,"pivot":[0,0,0],"rotation":[0,0,0,1],"scale":[1,1,1],"translation":[0,0,0]},{"mesh":3,"name":"SM_FlowerPot_03_LOD3","originalUnits":0.00999999977648258,"pivot":[0,0,0],"rotation":[0,0,0,1],"scale":[1,1,1],"translation":[0,0,0]}],"samplers":[{}],"scene":0,"scenes":[{"name":"Root Scene","nodes":[0]}],"textures":[{"name":"T_FlowerPot_N","sampler":0,"source":0}]}