{"accessors":[{"bufferView":0,"byteOffset":0,"componentType":5126,"count":1,"max":[0],"min":[0],"type":"SCALAR"},{"bufferView":1,"byteOffset":0,"componentType":5123,"count":390,"type":"SCALAR"},{"bufferView":2,"byteOffset":0,"componentType":5126,"count":124,"max":[0.0236529838293791,0.0577213503420353,0.0391035079956055],"min":[-0.03917326778173,-0.00156688061543,-0.04102560132742],"type":"VEC3"},{"bufferView":3,"byteOffset":0,"componentType":5126,"count":124,"type":"VEC3"},{"bufferView":4,"byteOffset":0,"componentType":5126,"count":124,"type":"VEC4"},{"bufferView":5,"byteOffset":0,"componentType":5126,"count":124,"type":"VEC2"},{"bufferView":6,"byteOffset":0,"componentType":5126,"count":124,"type":"VEC2"},{"bufferView":7,"byteOffset":0,"componentType":5123,"count":294,"type":"SCALAR"},{"bufferView":8,"byteOffset":0,"componentType":5126,"count":103,"max":[0.0239487122744322,0.0577213503420353,0.0391035079956055],"min":[-0.03917326778173,-0.00182534917258,-0.04102560132742],"type":"VEC3"},{"bufferView":9,"byteOffset":0,"componentType":5126,"count":103,"type":"VEC3"},{"bufferView":10,"byteOffset":0,"componentType":5126,"count":103,"type":"VEC4"},{"bufferView":11,"byteOffset":0,"componentType":5126,"count":103,"type":"VEC2"},{"bufferView":12,"byteOffset":0,"componentType":5126,"count":103,"type":"VEC2"},{"bufferView":13,"byteOffset":0,"componentType":5123,"count":192,"type":"SCALAR"},{"bufferView":14,"byteOffset":0,"componentType":5126,"count":77,"max":[0.0236529838293791,0.0565180592238903,0.0391035079956055],"min":[-0.03799295797944,0.00049978535389527,-0.04102560132742],"type":"VEC3"},{"bufferView":15,"byteOffset":0,"componentType":5126,"count":77,"type":"VEC3"},{"bufferView":16,"byteOffset":0,"componentType":5126,"count":77,"type":"VEC4"},{"bufferView":17,"byteOffset":0,"componentType":5126,"count":77,"type":"VEC2"},{"bufferView":18,"byteOffset":0,"componentType":5126,"count":77,"type":"VEC2"},{"bufferView":19,"byteOffset":0,"componentType":5123,"count":96,"type":"SCALAR"},{"bufferView":20,"byteOffset":0,"componentType":5126,"count":48,"max":[0.0250523891299963,0.057568471878767,0.0413213670253754],"min":[-0.04023460298777,-0.00114393385593,-0.04369060322642],"type":"VEC3"},{"bufferView":21,"byteOffset":0,"componentType":5126,"count":48,"type":"VEC3"},{"bufferView":22,"byteOffset":0,"componentType":5126,"count":48,"type":"VEC4"},{"bufferView":23,"byteOffset":0,"componentType":5126,"count":48,"type":"VEC2"},{"bufferView":24,"byteOffset":0,"componentType":5126,"count":48,"type":"VEC2"},{"bufferView":25,"byteOffset":0,"componentType":5123,"count":84,"type":"SCALAR"},{"bufferView":26,"byteOffset":0,"componentType":5126,"count":84,"max":[0.0204703342169523,0.0569089315831661,0.03885493054986],"min":[-0.03627874702215,0.00062124786200001,-0.03466400876641],"type":"VEC3"},{"bufferView":27,"byteOffset":0,"componentType":5126,"count":84,"type":"VEC3"},{"bufferView":28,"byteOffset":0,"componentType":5126,"count":84,"type":"VEC2"},{"bufferView":29,"byteOffset":0,"componentType":5126,"count":84,"type":"VEC2"}],"animations":[{"channels":[],"name":"Unreal Take","samplers":[]}],"asset":{"generator":"FBX2glTF v0.13.0","version":"2.0"},"bufferViews":[{"buffer":0,"byteLength":4,"byteOffset":0},{"buffer":0,"byteLength":780,"byteOffset":4,"target":34963},{"buffer":0,"byteLength":1488,"byteOffset":784,"target":34962},{"buffer":0,"byteLength":1488,"byteOffset":2272,"target":34962},{"buffer":0,"byteLength":1984,"byteOffset":3760,"target":34962},{"buffer":0,"byteLength":992,"byteOffset":5744,"target":34962},{"buffer":0,"byteLength":992,"byteOffset":6736,"target":34962},{"buffer":0,"byteLength":588,"byteOffset":7728,"target":34963},{"buffer":0,"byteLength":1236,"byteOffset":8316,"target":34962},{"buffer":0,"byteLength":1236,"byteOffset":9552,"target":34962},{"buffer":0,"byteLength":1648,"byteOffset":10788,"target":34962},{"buffer":0,"byteLength":824,"byteOffset":12436,"target":34962},{"buffer":0,"byteLength":824,"byteOffset":13260,"target":34962},{"buffer":0,"byteLength":384,"byteOffset":14084,"target":34963},{"buffer":0,"byteLength":924,"byteOffset":14468,"target":34962},{"buffer":0,"byteLength":924,"byteOffset":15392,"target":34962},{"buffer":0,"byteLength":1232,"byteOffset":16316,"target":34962},{"buffer":0,"byteLength":616,"byteOffset":17548,"target":34962},{"buffer":0,"byteLength":616,"byteOffset":18164,"target":34962},{"buffer":0,"byteLength":192,"byteOffset":18780,"target":34963},{"buffer":0,"byteLength":576,"byteOffset":18972,"target":34962},{"buffer":0,"byteLength":576,"byteOffset":19548,"target":34962},{"buffer":0,"byteLength":768,"byteOffset":20124,"target":34962},{"buffer":0,"byteLength":384,"byteOffset":20892,"target":34962},{"buffer":0,"byteLength":384,"byteOffset":21276,"target":34962},{"buffer":0,"byteLength":168,"byteOffset":21660,"target":34963},{"buffer":0,"byteLength":1008,"byteOffset":21828,"target":34962},{"buffer":0,"byteLength":1008,"byteOffset":22836,"target":34962},{"buffer":0,"byteLength":672,"byteOffset":23844,"target":34962},{"buffer":0,"byteLength":672,"byteOffset":24516,"target":34962}],"buffers":[{"byteLength":25188,"uri":"SM_Food_SM_Lemon.bin"}],"images":[{"name":"T_Food_N","uri":"T_Food_N.tga"}],"materials":[{"alphaMode":"OPAQUE","doubleSided":false,"extras":{"fromFBX":{"isTruePBR":false,"shadingModel":"Phong"}},"name":"MI_Food","normalTexture":{"index":0,"texCoord":0},"pbrMetallicRoughness":{"baseColorFactor":[0.21586050093174,0.21586050093174,0.21586050093174,1],"metallicFactor":0.400000005960464,"roughnessFactor":0.301511347293854}},{"alphaMode":"OPAQUE","doubleSided":false,"extras":{"fromFBX":{"isTruePBR":false,"shadingModel":"Lambert"}},"name":"DefaultMaterial","pbrMetallicRoughness":{"baseColorFactor":[0.5,0.5,0.5,1],"metallicFactor":0.200000002980232,"roughnessFactor":0.800000011920929}}],"meshes":[{"name":"SM_Food_SM_Lemon_LOD0","primitives":[{"attributes":{"NORMAL":3,"POSITION":2,"TANGENT":4,"TEXCOORD_0":5,"TEXCOORD_1":6},"indices":1,"material":0,"mode":4}]},{"name":"SM_Food_SM_Lemon_LOD1","primitives":[{"attributes":{"NORMAL":9,"POSITION":8,"TANGENT":10,"TEXCOORD_0":11,"TEXCOORD_1":12},"indices":7,"material":0,"mode":4}]},{"name":"SM_Food_SM_Lemon_LOD2","primitives":[{"attributes":{"NORMAL":15,"POSITION":14,"TANGENT":16,"TEXCOORD_0":17,"TEXCOORD_1":18},"indices":13,"material":0,"mode":4}]},{"name":"SM_Food_SM_Lemon_LOD3","primitives":[{"attributes":{"NORMAL":21,"POSITION":20,"TANGENT":22,"TEXCOORD_0":23,"TEXCOORD_1":24},"indices":19,"material":0,"mode":4}]},{"name":"SM_Food_SM_Lemon_ConvexHulls","primitives":[{"attributes":{"NORMAL":27,"POSITION":26,"TEXCOORD_0":28,"TEXCOORD_1":29},"indices":25,"material":1,"mode":4}]}],"nodes":[{"children":[1,2,3,4,5],"name":"SM_Food_SM_Lemon_156","originalUnits":0.00999999977648258,"pivot":[0,0,0],"rotation":[0,0,0,1],"scale":[1,1,1],"translation":[0,0,0]},{"mesh":0,"name":"SM_Food_SM_Lemon_LOD0","originalUnits":0.00999999977648258,"pivot":[0,0,0],"rotation":[0,0,0,1],"scale":[1,1,1],"translation":[0,0,0]},{"mesh":4,"name":"SM_Food_SM_Lemon_ConvexHulls","originalUnits":0.00999999977648258,"pivot":[0,0,0],"rotation":[0,0,0,1],"scale":[1,1,1],"translation":[0,0,0]},{"mesh":1,"name":"SM_Food_SM_Lemon_LOD1","originalUnits":0.00999999977648258,"pivot":[0,0,0],"rotation":[0,0,0,1],"scale":[1,1,1],"translation":[0,0,0]},{"mesh":2,"name":"SM_Food_SM_Lemon_LOD2","originalUnits":0.00999999977648258,"pivot":[0,0,0],"rotation":[0,0,0,1],"scale":[1,1,1],"translation":[0,0,0]},{"mesh":3,"name":"SM_Food_SM_Lemon_LOD3","originalUnits":0.00999999977648258,"pivot":[0,0,0],"rotation":[0,0,0,1],"scale":[1,1,1],"translation":[0,0,0]}],"samplers":[{}],"scene":0,"scenes":[{"name":"Root Scene","nodes":[0]}],"textures":[{"name":"T_Food_N","sampler":0,"source":0}]}