{"accessors":[{"bufferView":0,"byteOffset":0,"componentType":5126,"count":1,"max":[0],"min":[0],"type":"SCALAR"},{"bufferView":1,"byteOffset":0,"componentType":5123,"count":1044,"type":"SCALAR"},{"bufferView":2,"byteOffset":0,"componentType":5126,"count":252,"max":[0.0436295792460442,0.0709499046206474,0.0423064231872559],"min":[-0.04567225277424,-0.00482527213171,-0.04615581035614],"type":"VEC3"},{"bufferView":3,"byteOffset":0,"componentType":5126,"count":252,"type":"VEC3"},{"bufferView":4,"byteOffset":0,"componentType":5126,"count":252,"type":"VEC4"},{"bufferView":5,"byteOffset":0,"componentType":5126,"count":252,"type":"VEC2"},{"bufferView":6,"byteOffset":0,"componentType":5126,"count":252,"type":"VEC2"},{"bufferView":7,"byteOffset":0,"componentType":5123,"count":780,"type":"SCALAR"},{"bufferView":8,"byteOffset":0,"componentType":5126,"count":205,"max":[0.0436295792460442,0.0709499046206474,0.0426668524742126],"min":[-0.04567225277424,-0.00528147211298,-0.04608311131597],"type":"VEC3"},{"bufferView":9,"byteOffset":0,"componentType":5126,"count":205,"type":"VEC3"},{"bufferView":10,"byteOffset":0,"componentType":5126,"count":205,"type":"VEC4"},{"bufferView":11,"byteOffset":0,"componentType":5126,"count":205,"type":"VEC2"},{"bufferView":12,"byteOffset":0,"componentType":5126,"count":205,"type":"VEC2"},{"bufferView":13,"byteOffset":0,"componentType":5123,"count":522,"type":"SCALAR"},{"bufferView":14,"byteOffset":0,"componentType":5126,"count":153,"max":[0.0436295792460442,0.0709499046206474,0.0418782979249954],"min":[-0.04466593638062,-0.00555248837918,-0.04802200198174],"type":"VEC3"},{"bufferView":15,"byteOffset":0,"componentType":5126,"count":153,"type":"VEC3"},{"bufferView":16,"byteOffset":0,"componentType":5126,"count":153,"type":"VEC4"},{"bufferView":17,"byteOffset":0,"componentType":5126,"count":153,"type":"VEC2"},{"bufferView":18,"byteOffset":0,"componentType":5126,"count":153,"type":"VEC2"},{"bufferView":19,"byteOffset":0,"componentType":5123,"count":258,"type":"SCALAR"},{"bufferView":20,"byteOffset":0,"componentType":5126,"count":89,"max":[0.045004740357399,0.0706325769424438,0.0415072962641716],"min":[-0.04491747915745,-0.00592945842072,-0.04923789575696],"type":"VEC3"},{"bufferView":21,"byteOffset":0,"componentType":5126,"count":89,"type":"VEC3"},{"bufferView":22,"byteOffset":0,"componentType":5126,"count":89,"type":"VEC4"},{"bufferView":23,"byteOffset":0,"componentType":5126,"count":89,"type":"VEC2"},{"bufferView":24,"byteOffset":0,"componentType":5126,"count":89,"type":"VEC2"},{"bufferView":25,"byteOffset":0,"componentType":5123,"count":84,"type":"SCALAR"},{"bufferView":26,"byteOffset":0,"componentType":5126,"count":84,"max":[0.0358277074992657,0.0696096047759056,0.0393471829593182],"min":[-0.04376663640141,-0.00261156936176,-0.04557577520609],"type":"VEC3"},{"bufferView":27,"byteOffset":0,"componentType":5126,"count":84,"type":"VEC3"},{"bufferView":28,"byteOffset":0,"componentType":5126,"count":84,"type":"VEC2"},{"bufferView":29,"byteOffset":0,"componentType":5126,"count":84,"type":"VEC2"}],"animations":[{"channels":[],"name":"Unreal Take","samplers":[]}],"asset":{"generator":"FBX2glTF v0.13.0","version":"2.0"},"bufferViews":[{"buffer":0,"byteLength":4,"byteOffset":0},{"buffer":0,"byteLength":2088,"byteOffset":4,"target":34963},{"buffer":0,"byteLength":3024,"byteOffset":2092,"target":34962},{"buffer":0,"byteLength":3024,"byteOffset":5116,"target":34962},{"buffer":0,"byteLength":4032,"byteOffset":8140,"target":34962},{"buffer":0,"byteLength":2016,"byteOffset":12172,"target":34962},{"buffer":0,"byteLength":2016,"byteOffset":14188,"target":34962},{"buffer":0,"byteLength":1560,"byteOffset":16204,"target":34963},{"buffer":0,"byteLength":2460,"byteOffset":17764,"target":34962},{"buffer":0,"byteLength":2460,"byteOffset":20224,"target":34962},{"buffer":0,"byteLength":3280,"byteOffset":22684,"target":34962},{"buffer":0,"byteLength":1640,"byteOffset":25964,"target":34962},{"buffer":0,"byteLength":1640,"byteOffset":27604,"target":34962},{"buffer":0,"byteLength":1044,"byteOffset":29244,"target":34963},{"buffer":0,"byteLength":1836,"byteOffset":30288,"target":34962},{"buffer":0,"byteLength":1836,"byteOffset":32124,"target":34962},{"buffer":0,"byteLength":2448,"byteOffset":33960,"target":34962},{"buffer":0,"byteLength":1224,"byteOffset":36408,"target":34962},{"buffer":0,"byteLength":1224,"byteOffset":37632,"target":34962},{"buffer":0,"byteLength":516,"byteOffset":38856,"target":34963},{"buffer":0,"byteLength":1068,"byteOffset":39372,"target":34962},{"buffer":0,"byteLength":1068,"byteOffset":40440,"target":34962},{"buffer":0,"byteLength":1424,"byteOffset":41508,"target":34962},{"buffer":0,"byteLength":712,"byteOffset":42932,"target":34962},{"buffer":0,"byteLength":712,"byteOffset":43644,"target":34962},{"buffer":0,"byteLength":168,"byteOffset":44356,"target":34963},{"buffer":0,"byteLength":1008,"byteOffset":44524,"target":34962},{"buffer":0,"byteLength":1008,"byteOffset":45532,"target":34962},{"buffer":0,"byteLength":672,"byteOffset":46540,"target":34962},{"buffer":0,"byteLength":672,"byteOffset":47212,"target":34962}],"buffers":[{"byteLength":47884,"uri":"SM_Food_SM_Garlic.bin"}],"images":[{"name":"T_Food_N","uri":"T_Food_N.tga"}],"materials":[{"alphaMode":"OPAQUE","doubleSided":false,"extras":{"fromFBX":{"isTruePBR":false,"shadingModel":"Phong"}},"name":"MI_Food","normalTexture":{"index":0,"texCoord":0},"pbrMetallicRoughness":{"baseColorFactor":[0.21586050093174,0.21586050093174,0.21586050093174,1],"metallicFactor":0.400000005960464,"roughnessFactor":0.301511347293854}},{"alphaMode":"OPAQUE","doubleSided":false,"extras":{"fromFBX":{"isTruePBR":false,"shadingModel":"Lambert"}},"name":"DefaultMaterial","pbrMetallicRoughness":{"baseColorFactor":[0.5,0.5,0.5,1],"metallicFactor":0.200000002980232,"roughnessFactor":0.800000011920929}}],"meshes":[{"name":"SM_Food_SM_Garlic_LOD0","primitives":[{"attributes":{"NORMAL":3,"POSITION":2,"TANGENT":4,"TEXCOORD_0":5,"TEXCOORD_1":6},"indices":1,"material":0,"mode":4}]},{"name":"SM_Food_SM_Garlic_LOD1","primitives":[{"attributes":{"NORMAL":9,"POSITION":8,"TANGENT":10,"TEXCOORD_0":11,"TEXCOORD_1":12},"indices":7,"material":0,"mode":4}]},{"name":"SM_Food_SM_Garlic_LOD2","primitives":[{"attributes":{"NORMAL":15,"POSITION":14,"TANGENT":16,"TEXCOORD_0":17,"TEXCOORD_1":18},"indices":13,"material":0,"mode":4}]},{"name":"SM_Food_SM_Garlic_LOD3","primitives":[{"attributes":{"NORMAL":21,"POSITION":20,"TANGENT":22,"TEXCOORD_0":23,"TEXCOORD_1":24},"indices":19,"material":0,"mode":4}]},{"name":"SM_Food_SM_Garlic_ConvexHulls","primitives":[{"attributes":{"NORMAL":27,"POSITION":26,"TEXCOORD_0":28,"TEXCOORD_1":29},"indices":25,"material":1,"mode":4}]}],"nodes":[{"children":[1,2,3,4,5],"name":"SM_Food_SM_Garlic2","originalUnits":0.00999999977648258,"pivot":[0,0,0],"rotation":[0,0,0,1],"scale":[1,1,1],"translation":[0,0,0]},{"mesh":0,"name":"SM_Food_SM_Garlic_LOD0","originalUnits":0.00999999977648258,"pivot":[0,0,0],"rotation":[0,0,0,1],"scale":[1,1,1],"translation":[0,0,0]},{"mesh":4,"name":"SM_Food_SM_Garlic_ConvexHulls","originalUnits":0.00999999977648258,"pivot":[0,0,0],"rotation":[0,0,0,1],"scale":[1,1,1],"translation":[0,0,0]},{"mesh":1,"name":"SM_Food_SM_Garlic_LOD1","originalUnits":0.00999999977648258,"pivot":[0,0,0],"rotation":[0,0,0,1],"scale":[1,1,1],"translation":[0,0,0]},{"mesh":2,"name":"SM_Food_SM_Garlic_LOD2","originalUnits":0.00999999977648258,"pivot":[0,0,0],"rotation":[0,0,0,1],"scale":[1,1,1],"translation":[0,0,0]},{"mesh":3,"name":"SM_Food_SM_Garlic_LOD3","originalUnits":0.00999999977648258,"pivot":[0,0,0],"rotation":[0,0,0,1],"scale":[1,1,1],"translation":[0,0,0]}],"samplers":[{}],"scene":0,"scenes":[{"name":"Root Scene","nodes":[0]}],"textures":[{"name":"T_Food_N","sampler":0,"source":0}]}