{"accessors":[{"bufferView":0,"byteOffset":0,"componentType":5126,"count":1,"max":[0],"min":[0],"type":"SCALAR"},{"bufferView":1,"byteOffset":0,"componentType":5123,"count":2436,"type":"SCALAR"},{"bufferView":2,"byteOffset":0,"componentType":5126,"count":786,"max":[0.607959389686584,2.34844851493835,0.753979563713074],"min":[-0.6084109544754,-0.00683430302888,-0.76108199357986],"type":"VEC3"},{"bufferView":3,"byteOffset":0,"componentType":5126,"count":786,"type":"VEC3"},{"bufferView":4,"byteOffset":0,"componentType":5126,"count":786,"type":"VEC4"},{"bufferView":5,"byteOffset":0,"componentType":5126,"count":786,"type":"VEC2"},{"bufferView":6,"byteOffset":0,"componentType":5126,"count":786,"type":"VEC2"},{"bufferView":7,"byteOffset":0,"componentType":5123,"count":1824,"type":"SCALAR"},{"bufferView":8,"byteOffset":0,"componentType":5126,"count":639,"max":[0.607959389686584,2.34844851493835,0.753979563713074],"min":[-0.6084109544754,-0.00689232163131,-0.76108199357986],"type":"VEC3"},{"bufferView":9,"byteOffset":0,"componentType":5126,"count":639,"type":"VEC3"},{"bufferView":10,"byteOffset":0,"componentType":5126,"count":639,"type":"VEC4"},{"bufferView":11,"byteOffset":0,"componentType":5126,"count":639,"type":"VEC2"},{"bufferView":12,"byteOffset":0,"componentType":5126,"count":639,"type":"VEC2"},{"bufferView":13,"byteOffset":0,"componentType":5123,"count":1218,"type":"SCALAR"},{"bufferView":14,"byteOffset":0,"componentType":5126,"count":479,"max":[0.607959389686584,2.3520622253418,0.760333597660065],"min":[-0.60857164859772,-0.00519321626052,-0.76243305206299],"type":"VEC3"},{"bufferView":15,"byteOffset":0,"componentType":5126,"count":479,"type":"VEC3"},{"bufferView":16,"byteOffset":0,"componentType":5126,"count":479,"type":"VEC4"},{"bufferView":17,"byteOffset":0,"componentType":5126,"count":479,"type":"VEC2"},{"bufferView":18,"byteOffset":0,"componentType":5126,"count":479,"type":"VEC2"},{"bufferView":19,"byteOffset":0,"componentType":5123,"count":609,"type":"SCALAR"},{"bufferView":20,"byteOffset":0,"componentType":5126,"count":278,"max":[0.607910990715027,2.35332870483398,0.763483583927155],"min":[-0.60857164859772,-0.0070415684022,-0.76374751329422],"type":"VEC3"},{"bufferView":21,"byteOffset":0,"componentType":5126,"count":278,"type":"VEC3"},{"bufferView":22,"byteOffset":0,"componentType":5126,"count":278,"type":"VEC4"},{"bufferView":23,"byteOffset":0,"componentType":5126,"count":278,"type":"VEC2"},{"bufferView":24,"byteOffset":0,"componentType":5126,"count":278,"type":"VEC2"},{"bufferView":25,"byteOffset":0,"componentType":5123,"count":318,"type":"SCALAR"},{"bufferView":26,"byteOffset":0,"componentType":5126,"count":302,"max":[0.623286247253418,2.3450779914856,0.751082599163055],"min":[-0.62645882368088,-0.0251931976527,-0.75932693481445],"type":"VEC3"},{"bufferView":27,"byteOffset":0,"componentType":5126,"count":302,"type":"VEC3"},{"bufferView":28,"byteOffset":0,"componentType":5126,"count":302,"type":"VEC2"},{"bufferView":29,"byteOffset":0,"componentType":5126,"count":302,"type":"VEC2"}],"animations":[{"channels":[],"name":"Unreal Take","samplers":[]}],"asset":{"generator":"FBX2glTF v0.13.0","version":"2.0"},"bufferViews":[{"buffer":0,"byteLength":4,"byteOffset":0},{"buffer":0,"byteLength":4872,"byteOffset":4,"target":34963},{"buffer":0,"byteLength":9432,"byteOffset":4876,"target":34962},{"buffer":0,"byteLength":9432,"byteOffset":14308,"target":34962},{"buffer":0,"byteLength":12576,"byteOffset":23740,"target":34962},{"buffer":0,"byteLength":6288,"byteOffset":36316,"target":34962},{"buffer":0,"byteLength":6288,"byteOffset":42604,"target":34962},{"buffer":0,"byteLength":3648,"byteOffset":48892,"target":34963},{"buffer":0,"byteLength":7668,"byteOffset":52540,"target":34962},{"buffer":0,"byteLength":7668,"byteOffset":60208,"target":34962},{"buffer":0,"byteLength":10224,"byteOffset":67876,"target":34962},{"buffer":0,"byteLength":5112,"byteOffset":78100,"target":34962},{"buffer":0,"byteLength":5112,"byteOffset":83212,"target":34962},{"buffer":0,"byteLength":2436,"byteOffset":88324,"target":34963},{"buffer":0,"byteLength":5748,"byteOffset":90760,"target":34962},{"buffer":0,"byteLength":5748,"byteOffset":96508,"target":34962},{"buffer":0,"byteLength":7664,"byteOffset":102256,"target":34962},{"buffer":0,"byteLength":3832,"byteOffset":109920,"target":34962},{"buffer":0,"byteLength":3832,"byteOffset":113752,"target":34962},{"buffer":0,"byteLength":1218,"byteOffset":117584,"target":34963},{"buffer":0,"byteLength":3336,"byteOffset":118804,"target":34962},{"buffer":0,"byteLength":3336,"byteOffset":122140,"target":34962},{"buffer":0,"byteLength":4448,"byteOffset":125476,"target":34962},{"buffer":0,"byteLength":2224,"byteOffset":129924,"target":34962},{"buffer":0,"byteLength":2224,"byteOffset":132148,"target":34962},{"buffer":0,"byteLength":636,"byteOffset":134372,"target":34963},{"buffer":0,"byteLength":3624,"byteOffset":135008,"target":34962},{"buffer":0,"byteLength":3624,"byteOffset":138632,"target":34962},{"buffer":0,"byteLength":2416,"byteOffset":142256,"target":34962},{"buffer":0,"byteLength":2416,"byteOffset":144672,"target":34962}],"buffers":[{"byteLength":147088,"uri":"SM_Fridge.bin"}],"images":[{"name":"Detail_Normal_01","uri":"Detail_Normal_01.tga"}],"materials":[{"alphaMode":"OPAQUE","doubleSided":false,"extras":{"fromFBX":{"isTruePBR":false,"shadingModel":"Phong"}},"name":"MI_Fridge","normalTexture":{"index":0,"texCoord":0},"pbrMetallicRoughness":{"baseColorFactor":[0.21586050093174,0.21586050093174,0.21586050093174,1],"metallicFactor":0.400000005960464,"roughnessFactor":0.301511347293854}},{"alphaMode":"OPAQUE","doubleSided":false,"extras":{"fromFBX":{"isTruePBR":false,"shadingModel":"Lambert"}},"name":"DefaultMaterial","pbrMetallicRoughness":{"baseColorFactor":[0.5,0.5,0.5,1],"metallicFactor":0.200000002980232,"roughnessFactor":0.800000011920929}}],"meshes":[{"name":"SM_Fridge_LOD0","primitives":[{"attributes":{"NORMAL":3,"POSITION":2,"TANGENT":4,"TEXCOORD_0":5,"TEXCOORD_1":6},"indices":1,"material":0,"mode":4}]},{"name":"SM_Fridge_LOD1","primitives":[{"attributes":{"NORMAL":9,"POSITION":8,"TANGENT":10,"TEXCOORD_0":11,"TEXCOORD_1":12},"indices":7,"material":0,"mode":4}]},{"name":"SM_Fridge_LOD2","primitives":[{"attributes":{"NORMAL":15,"POSITION":14,"TANGENT":16,"TEXCOORD_0":17,"TEXCOORD_1":18},"indices":13,"material":0,"mode":4}]},{"name":"SM_Fridge_LOD3","primitives":[{"attributes":{"NORMAL":21,"POSITION":20,"TANGENT":22,"TEXCOORD_0":23,"TEXCOORD_1":24},"indices":19,"material":0,"mode":4}]},{"name":"SM_Fridge_ConvexHulls","primitives":[{"attributes":{"NORMAL":27,"POSITION":26,"TEXCOORD_0":28,"TEXCOORD_1":29},"indices":25,"material":1,"mode":4}]}],"nodes":[{"children":[1,2,3,4,5],"name":"Fridge_SM_2","originalUnits":0.00999999977648258,"pivot":[0,0,0],"rotation":[0,0,0,1],"scale":[1,1,1],"translation":[0,0,0]},{"mesh":0,"name":"SM_Fridge_LOD0","originalUnits":0.00999999977648258,"pivot":[0,0,0],"rotation":[0,0,0,1],"scale":[1,1,1],"translation":[0,0,0]},{"mesh":4,"name":"SM_Fridge_ConvexHulls","originalUnits":0.00999999977648258,"pivot":[0,0,0],"rotation":[0,0,0,1],"scale":[1,1,1],"translation":[0,0,0]},{"mesh":1,"name":"SM_Fridge_LOD1","originalUnits":0.00999999977648258,"pivot":[0,0,0],"rotation":[0,0,0,1],"scale":[1,1,1],"translation":[0,0,0]},{"mesh":2,"name":"SM_Fridge_LOD2","originalUnits":0.00999999977648258,"pivot":[0,0,0],"rotation":[0,0,0,1],"scale":[1,1,1],"translation":[0,0,0]},{"mesh":3,"name":"SM_Fridge_LOD3","originalUnits":0.00999999977648258,"pivot":[0,0,0],"rotation":[0,0,0,1],"scale":[1,1,1],"translation":[0,0,0]}],"samplers":[{}],"scene":0,"scenes":[{"name":"Root Scene","nodes":[0]}],"textures":[{"name":"T_Detail01_N","sampler":0,"source":0}]}