{"accessors":[{"bufferView":0,"byteOffset":0,"componentType":5126,"count":1,"max":[0],"min":[0],"type":"SCALAR"},{"bufferView":1,"byteOffset":0,"componentType":5123,"count":396,"type":"SCALAR"},{"bufferView":2,"byteOffset":0,"componentType":5126,"count":105,"max":[0.0585595555603504,0.118339687585831,0.05726258456707],"min":[-0.05596557632089,-0.00198801676743,-0.05726259574294],"type":"VEC3"},{"bufferView":3,"byteOffset":0,"componentType":5126,"count":105,"type":"VEC3"},{"bufferView":4,"byteOffset":0,"componentType":5126,"count":105,"type":"VEC4"},{"bufferView":5,"byteOffset":0,"componentType":5126,"count":105,"type":"VEC2"},{"bufferView":6,"byteOffset":0,"componentType":5126,"count":105,"type":"VEC2"},{"bufferView":7,"byteOffset":0,"componentType":5123,"count":240,"type":"SCALAR"},{"bufferView":8,"byteOffset":0,"componentType":5126,"count":77,"max":[0.0585595555603504,0.118339687585831,0.05726258456707],"min":[-0.05596557632089,-0.00198801676743,-0.05726259574294],"type":"VEC3"},{"bufferView":9,"byteOffset":0,"componentType":5126,"count":77,"type":"VEC3"},{"bufferView":10,"byteOffset":0,"componentType":5126,"count":77,"type":"VEC4"},{"bufferView":11,"byteOffset":0,"componentType":5126,"count":77,"type":"VEC2"},{"bufferView":12,"byteOffset":0,"componentType":5126,"count":77,"type":"VEC2"},{"bufferView":13,"byteOffset":0,"componentType":5123,"count":213,"type":"SCALAR"},{"bufferView":14,"byteOffset":0,"componentType":5126,"count":72,"max":[0.0585595555603504,0.118340946733952,0.05726258456707],"min":[-0.05596557632089,-0.00202217907645,-0.05726259574294],"type":"VEC3"},{"bufferView":15,"byteOffset":0,"componentType":5126,"count":72,"type":"VEC3"},{"bufferView":16,"byteOffset":0,"componentType":5126,"count":72,"type":"VEC4"},{"bufferView":17,"byteOffset":0,"componentType":5126,"count":72,"type":"VEC2"},{"bufferView":18,"byteOffset":0,"componentType":5126,"count":72,"type":"VEC2"},{"bufferView":19,"byteOffset":0,"componentType":5123,"count":147,"type":"SCALAR"},{"bufferView":20,"byteOffset":0,"componentType":5126,"count":52,"max":[0.0585595555603504,0.118340946733952,0.05726258456707],"min":[-0.05738363042474,-0.00201490009204,-0.0580408424139],"type":"VEC3"},{"bufferView":21,"byteOffset":0,"componentType":5126,"count":52,"type":"VEC3"},{"bufferView":22,"byteOffset":0,"componentType":5126,"count":52,"type":"VEC4"},{"bufferView":23,"byteOffset":0,"componentType":5126,"count":52,"type":"VEC2"},{"bufferView":24,"byteOffset":0,"componentType":5126,"count":52,"type":"VEC2"},{"bufferView":25,"byteOffset":0,"componentType":5123,"count":2034,"type":"SCALAR"},{"bufferView":26,"byteOffset":0,"componentType":5126,"count":480,"max":[0.0620489194989204,0.126831769943237,0.0607507415115833],"min":[-0.06204833462834,0.00096198346000164,-0.06075074896216],"type":"VEC3"},{"bufferView":27,"byteOffset":0,"componentType":5126,"count":480,"type":"VEC3"},{"bufferView":28,"byteOffset":0,"componentType":5126,"count":480,"type":"VEC4"},{"bufferView":29,"byteOffset":0,"componentType":5126,"count":480,"type":"VEC2"},{"bufferView":30,"byteOffset":0,"componentType":5126,"count":480,"type":"VEC2"},{"bufferView":31,"byteOffset":0,"componentType":5123,"count":1584,"type":"SCALAR"},{"bufferView":32,"byteOffset":0,"componentType":5126,"count":409,"max":[0.0620489194989204,0.126831769943237,0.0607507415115833],"min":[-0.06211278215051,0.00096198346000164,-0.06075074896216],"type":"VEC3"},{"bufferView":33,"byteOffset":0,"componentType":5126,"count":409,"type":"VEC3"},{"bufferView":34,"byteOffset":0,"componentType":5126,"count":409,"type":"VEC4"},{"bufferView":35,"byteOffset":0,"componentType":5126,"count":409,"type":"VEC2"},{"bufferView":36,"byteOffset":0,"componentType":5126,"count":409,"type":"VEC2"},{"bufferView":37,"byteOffset":0,"componentType":5123,"count":1002,"type":"SCALAR"},{"bufferView":38,"byteOffset":0,"componentType":5126,"count":307,"max":[0.0620489194989204,0.12683193385601,0.0607507415115833],"min":[-0.06204932183027,0.00096198346000164,-0.06075074896216],"type":"VEC3"},{"bufferView":39,"byteOffset":0,"componentType":5126,"count":307,"type":"VEC3"},{"bufferView":40,"byteOffset":0,"componentType":5126,"count":307,"type":"VEC4"},{"bufferView":41,"byteOffset":0,"componentType":5126,"count":307,"type":"VEC2"},{"bufferView":42,"byteOffset":0,"componentType":5126,"count":307,"type":"VEC2"},{"bufferView":43,"byteOffset":0,"componentType":5123,"count":462,"type":"SCALAR"},{"bufferView":44,"byteOffset":0,"componentType":5126,"count":175,"max":[0.0620489194989204,0.127755761146545,0.0616176538169384],"min":[-0.06228733062744,-0.00056128471624,-0.06075074896216],"type":"VEC3"},{"bufferView":45,"byteOffset":0,"componentType":5126,"count":175,"type":"VEC3"},{"bufferView":46,"byteOffset":0,"componentType":5126,"count":175,"type":"VEC4"},{"bufferView":47,"byteOffset":0,"componentType":5126,"count":175,"type":"VEC2"},{"bufferView":48,"byteOffset":0,"componentType":5126,"count":175,"type":"VEC2"},{"bufferView":49,"byteOffset":0,"componentType":5123,"count":84,"type":"SCALAR"},{"bufferView":50,"byteOffset":0,"componentType":5126,"count":82,"max":[0.0584675185382366,0.126466751098633,0.0607154555618763],"min":[-0.05814438685775,-0.00154314143583,-0.05671769380569],"type":"VEC3"},{"bufferView":51,"byteOffset":0,"componentType":5126,"count":82,"type":"VEC3"},{"bufferView":52,"byteOffset":0,"componentType":5126,"count":82,"type":"VEC2"},{"bufferView":53,"byteOffset":0,"componentType":5126,"count":82,"type":"VEC2"}],"animations":[{"channels":[],"name":"Unreal Take","samplers":[]}],"asset":{"generator":"FBX2glTF v0.13.0","version":"2.0"},"bufferViews":[{"buffer":0,"byteLength":4,"byteOffset":0},{"buffer":0,"byteLength":792,"byteOffset":4,"target":34963},{"buffer":0,"byteLength":1260,"byteOffset":796,"target":34962},{"buffer":0,"byteLength":1260,"byteOffset":2056,"target":34962},{"buffer":0,"byteLength":1680,"byteOffset":3316,"target":34962},{"buffer":0,"byteLength":840,"byteOffset":4996,"target":34962},{"buffer":0,"byteLength":840,"byteOffset":5836,"target":34962},{"buffer":0,"byteLength":480,"byteOffset":6676,"target":34963},{"buffer":0,"byteLength":924,"byteOffset":7156,"target":34962},{"buffer":0,"byteLength":924,"byteOffset":8080,"target":34962},{"buffer":0,"byteLength":1232,"byteOffset":9004,"target":34962},{"buffer":0,"byteLength":616,"byteOffset":10236,"target":34962},{"buffer":0,"byteLength":616,"byteOffset":10852,"target":34962},{"buffer":0,"byteLength":426,"byteOffset":11468,"target":34963},{"buffer":0,"byteLength":864,"byteOffset":11896,"target":34962},{"buffer":0,"byteLength":864,"byteOffset":12760,"target":34962},{"buffer":0,"byteLength":1152,"byteOffset":13624,"target":34962},{"buffer":0,"byteLength":576,"byteOffset":14776,"target":34962},{"buffer":0,"byteLength":576,"byteOffset":15352,"target":34962},{"buffer":0,"byteLength":294,"byteOffset":15928,"target":34963},{"buffer":0,"byteLength":624,"byteOffset":16224,"target":34962},{"buffer":0,"byteLength":624,"byteOffset":16848,"target":34962},{"buffer":0,"byteLength":832,"byteOffset":17472,"target":34962},{"buffer":0,"byteLength":416,"byteOffset":18304,"target":34962},{"buffer":0,"byteLength":416,"byteOffset":18720,"target":34962},{"buffer":0,"byteLength":4068,"byteOffset":19136,"target":34963},{"buffer":0,"byteLength":5760,"byteOffset":23204,"target":34962},{"buffer":0,"byteLength":5760,"byteOffset":28964,"target":34962},{"buffer":0,"byteLength":7680,"byteOffset":34724,"target":34962},{"buffer":0,"byteLength":3840,"byteOffset":42404,"target":34962},{"buffer":0,"byteLength":3840,"byteOffset":46244,"target":34962},{"buffer":0,"byteLength":3168,"byteOffset":50084,"target":34963},{"buffer":0,"byteLength":4908,"byteOffset":53252,"target":34962},{"buffer":0,"byteLength":4908,"byteOffset":58160,"target":34962},{"buffer":0,"byteLength":6544,"byteOffset":63068,"target":34962},{"buffer":0,"byteLength":3272,"byteOffset":69612,"target":34962},{"buffer":0,"byteLength":3272,"byteOffset":72884,"target":34962},{"buffer":0,"byteLength":2004,"byteOffset":76156,"target":34963},{"buffer":0,"byteLength":3684,"byteOffset":78160,"target":34962},{"buffer":0,"byteLength":3684,"byteOffset":81844,"target":34962},{"buffer":0,"byteLength":4912,"byteOffset":85528,"target":34962},{"buffer":0,"byteLength":2456,"byteOffset":90440,"target":34962},{"buffer":0,"byteLength":2456,"byteOffset":92896,"target":34962},{"buffer":0,"byteLength":924,"byteOffset":95352,"target":34963},{"buffer":0,"byteLength":2100,"byteOffset":96276,"target":34962},{"buffer":0,"byteLength":2100,"byteOffset":98376,"target":34962},{"buffer":0,"byteLength":2800,"byteOffset":100476,"target":34962},{"buffer":0,"byteLength":1400,"byteOffset":103276,"target":34962},{"buffer":0,"byteLength":1400,"byteOffset":104676,"target":34962},{"buffer":0,"byteLength":168,"byteOffset":106076,"target":34963},{"buffer":0,"byteLength":984,"byteOffset":106244,"target":34962},{"buffer":0,"byteLength":984,"byteOffset":107228,"target":34962},{"buffer":0,"byteLength":656,"byteOffset":108212,"target":34962},{"buffer":0,"byteLength":656,"byteOffset":108868,"target":34962}],"buffers":[{"byteLength":109524,"uri":"SM_FoodPot_08.bin"}],"images":[{"name":"T_FoodPot_Jelly_N","uri":"T_FoodPot_Jelly_N.tga"},{"name":"T_FoodPot_N","uri":"T_FoodPot_N.tga"}],"materials":[{"alphaMode":"OPAQUE","doubleSided":false,"extras":{"fromFBX":{"isTruePBR":false,"shadingModel":"Phong"}},"name":"MI_FoodPotJelly","normalTexture":{"index":0,"texCoord":0},"pbrMetallicRoughness":{"baseColorFactor":[0.21586050093174,0.21586050093174,0.21586050093174,1],"metallicFactor":0.400000005960464,"roughnessFactor":0.301511347293854}},{"alphaMode":"OPAQUE","doubleSided":false,"extras":{"fromFBX":{"isTruePBR":false,"shadingModel":"Phong"}},"name":"MI_FoodPot","normalTexture":{"index":1,"texCoord":0},"pbrMetallicRoughness":{"baseColorFactor":[0.21586050093174,0.21586050093174,0.21586050093174,1],"metallicFactor":0.400000005960464,"roughnessFactor":0.301511347293854}},{"alphaMode":"OPAQUE","doubleSided":false,"extras":{"fromFBX":{"isTruePBR":false,"shadingModel":"Lambert"}},"name":"DefaultMaterial","pbrMetallicRoughness":{"baseColorFactor":[0.5,0.5,0.5,1],"metallicFactor":0.200000002980232,"roughnessFactor":0.800000011920929}}],"meshes":[{"name":"SM_FoodPot_08_LOD0","primitives":[{"attributes":{"NORMAL":3,"POSITION":2,"TANGENT":4,"TEXCOORD_0":5,"TEXCOORD_1":6},"indices":1,"material":0,"mode":4},{"attributes":{"NORMAL":27,"POSITION":26,"TANGENT":28,"TEXCOORD_0":29,"TEXCOORD_1":30},"indices":25,"material":1,"mode":4}]},{"name":"SM_FoodPot_08_LOD1","primitives":[{"attributes":{"NORMAL":9,"POSITION":8,"TANGENT":10,"TEXCOORD_0":11,"TEXCOORD_1":12},"indices":7,"material":0,"mode":4},{"attributes":{"NORMAL":33,"POSITION":32,"TANGENT":34,"TEXCOORD_0":35,"TEXCOORD_1":36},"indices":31,"material":1,"mode":4}]},{"name":"SM_FoodPot_08_LOD2","primitives":[{"attributes":{"NORMAL":15,"POSITION":14,"TANGENT":16,"TEXCOORD_0":17,"TEXCOORD_1":18},"indices":13,"material":0,"mode":4},{"attributes":{"NORMAL":39,"POSITION":38,"TANGENT":40,"TEXCOORD_0":41,"TEXCOORD_1":42},"indices":37,"material":1,"mode":4}]},{"name":"SM_FoodPot_08_LOD3","primitives":[{"attributes":{"NORMAL":21,"POSITION":20,"TANGENT":22,"TEXCOORD_0":23,"TEXCOORD_1":24},"indices":19,"material":0,"mode":4},{"attributes":{"NORMAL":45,"POSITION":44,"TANGENT":46,"TEXCOORD_0":47,"TEXCOORD_1":48},"indices":43,"material":1,"mode":4}]},{"name":"SM_FoodPot_08_ConvexHulls","primitives":[{"attributes":{"NORMAL":51,"POSITION":50,"TEXCOORD_0":52,"TEXCOORD_1":53},"indices":49,"material":2,"mode":4}]}],"nodes":[{"children":[1,2,3,4,5],"name":"SM_FoodPot_51","originalUnits":0.00999999977648258,"pivot":[0,0,0],"rotation":[0,0,0,1],"scale":[1,1,1],"translation":[0,0,0]},{"mesh":0,"name":"SM_FoodPot_08_LOD0","originalUnits":0.00999999977648258,"pivot":[0,0,0],"rotation":[0,0,0,1],"scale":[1,1,1],"translation":[0,0,0]},{"mesh":4,"name":"SM_FoodPot_08_ConvexHulls","originalUnits":0.00999999977648258,"pivot":[0,0,0],"rotation":[0,0,0,1],"scale":[1,1,1],"translation":[0,0,0]},{"mesh":1,"name":"SM_FoodPot_08_LOD1","originalUnits":0.00999999977648258,"pivot":[0,0,0],"rotation":[0,0,0,1],"scale":[1,1,1],"translation":[0,0,0]},{"mesh":2,"name":"SM_FoodPot_08_LOD2","originalUnits":0.00999999977648258,"pivot":[0,0,0],"rotation":[0,0,0,1],"scale":[1,1,1],"translation":[0,0,0]},{"mesh":3,"name":"SM_FoodPot_08_LOD3","originalUnits":0.00999999977648258,"pivot":[0,0,0],"rotation":[0,0,0,1],"scale":[1,1,1],"translation":[0,0,0]}],"samplers":[{}],"scene":0,"scenes":[{"name":"Root Scene","nodes":[0]}],"textures":[{"name":"T_FoodPot_Jelly_N","sampler":0,"source":0},{"name":"T_FoodPot_N","sampler":0,"source":1}]}