{"accessors":[{"bufferView":0,"byteOffset":0,"componentType":5126,"count":1,"max":[0],"min":[0],"type":"SCALAR"},{"bufferView":1,"byteOffset":0,"componentType":5123,"count":960,"type":"SCALAR"},{"bufferView":2,"byteOffset":0,"componentType":5126,"count":222,"max":[0.0549730993807316,0.249709144234657,0.0549586415290833],"min":[-0.05497315898538,0.238474771380424,-0.05498702451587],"type":"VEC3"},{"bufferView":3,"byteOffset":0,"componentType":5126,"count":222,"type":"VEC3"},{"bufferView":4,"byteOffset":0,"componentType":5126,"count":222,"type":"VEC4"},{"bufferView":5,"byteOffset":0,"componentType":5126,"count":222,"type":"VEC2"},{"bufferView":6,"byteOffset":0,"componentType":5126,"count":222,"type":"VEC2"},{"bufferView":7,"byteOffset":0,"componentType":5123,"count":768,"type":"SCALAR"},{"bufferView":8,"byteOffset":0,"componentType":5126,"count":190,"max":[0.0548033900558949,0.249709144234657,0.0553648360073566],"min":[-0.05480333790183,0.238474771380424,-0.05553207919002],"type":"VEC3"},{"bufferView":9,"byteOffset":0,"componentType":5126,"count":190,"type":"VEC3"},{"bufferView":10,"byteOffset":0,"componentType":5126,"count":190,"type":"VEC4"},{"bufferView":11,"byteOffset":0,"componentType":5126,"count":190,"type":"VEC2"},{"bufferView":12,"byteOffset":0,"componentType":5126,"count":190,"type":"VEC2"},{"bufferView":13,"byteOffset":0,"componentType":5123,"count":468,"type":"SCALAR"},{"bufferView":14,"byteOffset":0,"componentType":5126,"count":141,"max":[0.0546274594962597,0.249750137329102,0.0553648360073566],"min":[-0.05464000999928,0.23843814432621,-0.0554303266108],"type":"VEC3"},{"bufferView":15,"byteOffset":0,"componentType":5126,"count":141,"type":"VEC3"},{"bufferView":16,"byteOffset":0,"componentType":5126,"count":141,"type":"VEC4"},{"bufferView":17,"byteOffset":0,"componentType":5126,"count":141,"type":"VEC2"},{"bufferView":18,"byteOffset":0,"componentType":5126,"count":141,"type":"VEC2"},{"bufferView":19,"byteOffset":0,"componentType":5123,"count":246,"type":"SCALAR"},{"bufferView":20,"byteOffset":0,"componentType":5126,"count":79,"max":[0.0546274594962597,0.249740019440651,0.0546772070229053],"min":[-0.05464000999928,0.23843814432621,-0.05493251234293],"type":"VEC3"},{"bufferView":21,"byteOffset":0,"componentType":5126,"count":79,"type":"VEC3"},{"bufferView":22,"byteOffset":0,"componentType":5126,"count":79,"type":"VEC4"},{"bufferView":23,"byteOffset":0,"componentType":5126,"count":79,"type":"VEC2"},{"bufferView":24,"byteOffset":0,"componentType":5126,"count":79,"type":"VEC2"},{"bufferView":25,"byteOffset":0,"componentType":5123,"count":1860,"type":"SCALAR"},{"bufferView":26,"byteOffset":0,"componentType":5126,"count":353,"max":[0.0791283994913101,0.246391728520393,0.0791285559535027],"min":[-0.07912841439247,-0.00000000848973,-0.0791285559535],"type":"VEC3"},{"bufferView":27,"byteOffset":0,"componentType":5126,"count":353,"type":"VEC3"},{"bufferView":28,"byteOffset":0,"componentType":5126,"count":353,"type":"VEC4"},{"bufferView":29,"byteOffset":0,"componentType":5126,"count":353,"type":"VEC2"},{"bufferView":30,"byteOffset":0,"componentType":5126,"count":353,"type":"VEC2"},{"bufferView":31,"byteOffset":0,"componentType":5123,"count":1344,"type":"SCALAR"},{"bufferView":32,"byteOffset":0,"componentType":5126,"count":265,"max":[0.0791283994913101,0.246391728520393,0.0791285559535027],"min":[-0.07912841439247,-0.00000002764769,-0.0791285559535],"type":"VEC3"},{"bufferView":33,"byteOffset":0,"componentType":5126,"count":265,"type":"VEC3"},{"bufferView":34,"byteOffset":0,"componentType":5126,"count":265,"type":"VEC4"},{"bufferView":35,"byteOffset":0,"componentType":5126,"count":265,"type":"VEC2"},{"bufferView":36,"byteOffset":0,"componentType":5126,"count":265,"type":"VEC2"},{"bufferView":37,"byteOffset":0,"componentType":5123,"count":939,"type":"SCALAR"},{"bufferView":38,"byteOffset":0,"componentType":5126,"count":196,"max":[0.0791283994913101,0.246406584978104,0.0791285559535027],"min":[-0.07912841439247,-0.00000002764769,-0.0791285559535],"type":"VEC3"},{"bufferView":39,"byteOffset":0,"componentType":5126,"count":196,"type":"VEC3"},{"bufferView":40,"byteOffset":0,"componentType":5126,"count":196,"type":"VEC4"},{"bufferView":41,"byteOffset":0,"componentType":5126,"count":196,"type":"VEC2"},{"bufferView":42,"byteOffset":0,"componentType":5126,"count":196,"type":"VEC2"},{"bufferView":43,"byteOffset":0,"componentType":5123,"count":456,"type":"SCALAR"},{"bufferView":44,"byteOffset":0,"componentType":5126,"count":100,"max":[0.0791283994913101,0.248089954257011,0.0794127285480499],"min":[-0.07881866395473,-0.0002337643964,-0.08036267012358],"type":"VEC3"},{"bufferView":45,"byteOffset":0,"componentType":5126,"count":100,"type":"VEC3"},{"bufferView":46,"byteOffset":0,"componentType":5126,"count":100,"type":"VEC4"},{"bufferView":47,"byteOffset":0,"componentType":5126,"count":100,"type":"VEC2"},{"bufferView":48,"byteOffset":0,"componentType":5126,"count":100,"type":"VEC2"},{"bufferView":49,"byteOffset":0,"componentType":5123,"count":84,"type":"SCALAR"},{"bufferView":50,"byteOffset":0,"componentType":5126,"count":82,"max":[0.0751008316874504,0.248060658574104,0.0725251436233521],"min":[-0.07497023046017,0.00227734609507024,-0.07707921415567],"type":"VEC3"},{"bufferView":51,"byteOffset":0,"componentType":5126,"count":82,"type":"VEC3"},{"bufferView":52,"byteOffset":0,"componentType":5126,"count":82,"type":"VEC2"},{"bufferView":53,"byteOffset":0,"componentType":5126,"count":82,"type":"VEC2"}],"animations":[{"channels":[],"name":"Unreal Take","samplers":[]}],"asset":{"generator":"FBX2glTF v0.13.0","version":"2.0"},"bufferViews":[{"buffer":0,"byteLength":4,"byteOffset":0},{"buffer":0,"byteLength":1920,"byteOffset":4,"target":34963},{"buffer":0,"byteLength":2664,"byteOffset":1924,"target":34962},{"buffer":0,"byteLength":2664,"byteOffset":4588,"target":34962},{"buffer":0,"byteLength":3552,"byteOffset":7252,"target":34962},{"buffer":0,"byteLength":1776,"byteOffset":10804,"target":34962},{"buffer":0,"byteLength":1776,"byteOffset":12580,"target":34962},{"buffer":0,"byteLength":1536,"byteOffset":14356,"target":34963},{"buffer":0,"byteLength":2280,"byteOffset":15892,"target":34962},{"buffer":0,"byteLength":2280,"byteOffset":18172,"target":34962},{"buffer":0,"byteLength":3040,"byteOffset":20452,"target":34962},{"buffer":0,"byteLength":1520,"byteOffset":23492,"target":34962},{"buffer":0,"byteLength":1520,"byteOffset":25012,"target":34962},{"buffer":0,"byteLength":936,"byteOffset":26532,"target":34963},{"buffer":0,"byteLength":1692,"byteOffset":27468,"target":34962},{"buffer":0,"byteLength":1692,"byteOffset":29160,"target":34962},{"buffer":0,"byteLength":2256,"byteOffset":30852,"target":34962},{"buffer":0,"byteLength":1128,"byteOffset":33108,"target":34962},{"buffer":0,"byteLength":1128,"byteOffset":34236,"target":34962},{"buffer":0,"byteLength":492,"byteOffset":35364,"target":34963},{"buffer":0,"byteLength":948,"byteOffset":35856,"target":34962},{"buffer":0,"byteLength":948,"byteOffset":36804,"target":34962},{"buffer":0,"byteLength":1264,"byteOffset":37752,"target":34962},{"buffer":0,"byteLength":632,"byteOffset":39016,"target":34962},{"buffer":0,"byteLength":632,"byteOffset":39648,"target":34962},{"buffer":0,"byteLength":3720,"byteOffset":40280,"target":34963},{"buffer":0,"byteLength":4236,"byteOffset":44000,"target":34962},{"buffer":0,"byteLength":4236,"byteOffset":48236,"target":34962},{"buffer":0,"byteLength":5648,"byteOffset":52472,"target":34962},{"buffer":0,"byteLength":2824,"byteOffset":58120,"target":34962},{"buffer":0,"byteLength":2824,"byteOffset":60944,"target":34962},{"buffer":0,"byteLength":2688,"byteOffset":63768,"target":34963},{"buffer":0,"byteLength":3180,"byteOffset":66456,"target":34962},{"buffer":0,"byteLength":3180,"byteOffset":69636,"target":34962},{"buffer":0,"byteLength":4240,"byteOffset":72816,"target":34962},{"buffer":0,"byteLength":2120,"byteOffset":77056,"target":34962},{"buffer":0,"byteLength":2120,"byteOffset":79176,"target":34962},{"buffer":0,"byteLength":1878,"byteOffset":81296,"target":34963},{"buffer":0,"byteLength":2352,"byteOffset":83176,"target":34962},{"buffer":0,"byteLength":2352,"byteOffset":85528,"target":34962},{"buffer":0,"byteLength":3136,"byteOffset":87880,"target":34962},{"buffer":0,"byteLength":1568,"byteOffset":91016,"target":34962},{"buffer":0,"byteLength":1568,"byteOffset":92584,"target":34962},{"buffer":0,"byteLength":912,"byteOffset":94152,"target":34963},{"buffer":0,"byteLength":1200,"byteOffset":95064,"target":34962},{"buffer":0,"byteLength":1200,"byteOffset":96264,"target":34962},{"buffer":0,"byteLength":1600,"byteOffset":97464,"target":34962},{"buffer":0,"byteLength":800,"byteOffset":99064,"target":34962},{"buffer":0,"byteLength":800,"byteOffset":99864,"target":34962},{"buffer":0,"byteLength":168,"byteOffset":100664,"target":34963},{"buffer":0,"byteLength":984,"byteOffset":100832,"target":34962},{"buffer":0,"byteLength":984,"byteOffset":101816,"target":34962},{"buffer":0,"byteLength":656,"byteOffset":102800,"target":34962},{"buffer":0,"byteLength":656,"byteOffset":103456,"target":34962}],"buffers":[{"byteLength":104112,"uri":"SM_FoodPot_14.bin"}],"images":[{"name":"T_FoodPot_N","uri":"T_FoodPot_N.tga"},{"name":"T_FoodPot_Jelly_N","uri":"T_FoodPot_Jelly_N.tga"}],"materials":[{"alphaMode":"OPAQUE","doubleSided":false,"extras":{"fromFBX":{"isTruePBR":false,"shadingModel":"Phong"}},"name":"MI_FoodPot","normalTexture":{"index":0,"texCoord":0},"pbrMetallicRoughness":{"baseColorFactor":[0.21586050093174,0.21586050093174,0.21586050093174,1],"metallicFactor":0.400000005960464,"roughnessFactor":0.301511347293854}},{"alphaMode":"OPAQUE","doubleSided":false,"extras":{"fromFBX":{"isTruePBR":false,"shadingModel":"Phong"}},"name":"MI_FoodPotJelly","normalTexture":{"index":1,"texCoord":0},"pbrMetallicRoughness":{"baseColorFactor":[0.21586050093174,0.21586050093174,0.21586050093174,1],"metallicFactor":0.400000005960464,"roughnessFactor":0.301511347293854}},{"alphaMode":"OPAQUE","doubleSided":false,"extras":{"fromFBX":{"isTruePBR":false,"shadingModel":"Lambert"}},"name":"DefaultMaterial","pbrMetallicRoughness":{"baseColorFactor":[0.5,0.5,0.5,1],"metallicFactor":0.200000002980232,"roughnessFactor":0.800000011920929}}],"meshes":[{"name":"SM_FoodPot_14_LOD0","primitives":[{"attributes":{"NORMAL":3,"POSITION":2,"TANGENT":4,"TEXCOORD_0":5,"TEXCOORD_1":6},"indices":1,"material":0,"mode":4},{"attributes":{"NORMAL":27,"POSITION":26,"TANGENT":28,"TEXCOORD_0":29,"TEXCOORD_1":30},"indices":25,"material":1,"mode":4}]},{"name":"SM_FoodPot_14_LOD1","primitives":[{"attributes":{"NORMAL":9,"POSITION":8,"TANGENT":10,"TEXCOORD_0":11,"TEXCOORD_1":12},"indices":7,"material":0,"mode":4},{"attributes":{"NORMAL":33,"POSITION":32,"TANGENT":34,"TEXCOORD_0":35,"TEXCOORD_1":36},"indices":31,"material":1,"mode":4}]},{"name":"SM_FoodPot_14_LOD2","primitives":[{"attributes":{"NORMAL":15,"POSITION":14,"TANGENT":16,"TEXCOORD_0":17,"TEXCOORD_1":18},"indices":13,"material":0,"mode":4},{"attributes":{"NORMAL":39,"POSITION":38,"TANGENT":40,"TEXCOORD_0":41,"TEXCOORD_1":42},"indices":37,"material":1,"mode":4}]},{"name":"SM_FoodPot_14_LOD3","primitives":[{"attributes":{"NORMAL":21,"POSITION":20,"TANGENT":22,"TEXCOORD_0":23,"TEXCOORD_1":24},"indices":19,"material":0,"mode":4},{"attributes":{"NORMAL":45,"POSITION":44,"TANGENT":46,"TEXCOORD_0":47,"TEXCOORD_1":48},"indices":43,"material":1,"mode":4}]},{"name":"SM_FoodPot_14_ConvexHulls","primitives":[{"attributes":{"NORMAL":51,"POSITION":50,"TEXCOORD_0":52,"TEXCOORD_1":53},"indices":49,"material":2,"mode":4}]}],"nodes":[{"children":[1,2,3,4,5],"name":"SM_FoodPot_120","originalUnits":0.00999999977648258,"pivot":[0,0,0],"rotation":[0,0,0,1],"scale":[1,1,1],"translation":[0,0,0]},{"mesh":0,"name":"SM_FoodPot_14_LOD0","originalUnits":0.00999999977648258,"pivot":[0,0,0],"rotation":[0,0,0,1],"scale":[1,1,1],"translation":[0,0,0]},{"mesh":4,"name":"SM_FoodPot_14_ConvexHulls","originalUnits":0.00999999977648258,"pivot":[0,0,0],"rotation":[0,0,0,1],"scale":[1,1,1],"translation":[0,0,0]},{"mesh":1,"name":"SM_FoodPot_14_LOD1","originalUnits":0.00999999977648258,"pivot":[0,0,0],"rotation":[0,0,0,1],"scale":[1,1,1],"translation":[0,0,0]},{"mesh":2,"name":"SM_FoodPot_14_LOD2","originalUnits":0.00999999977648258,"pivot":[0,0,0],"rotation":[0,0,0,1],"scale":[1,1,1],"translation":[0,0,0]},{"mesh":3,"name":"SM_FoodPot_14_LOD3","originalUnits":0.00999999977648258,"pivot":[0,0,0],"rotation":[0,0,0,1],"scale":[1,1,1],"translation":[0,0,0]}],"samplers":[{}],"scene":0,"scenes":[{"name":"Root Scene","nodes":[0]}],"textures":[{"name":"T_FoodPot_N","sampler":0,"source":0},{"name":"T_FoodPot_Jelly_N","sampler":0,"source":1}]}