{"accessors":[{"bufferView":0,"byteOffset":0,"componentType":5126,"count":1,"max":[0],"min":[0],"type":"SCALAR"},{"bufferView":1,"byteOffset":0,"componentType":5123,"count":2997,"type":"SCALAR"},{"bufferView":2,"byteOffset":0,"componentType":5126,"count":703,"max":[0.0419587157666683,0.138087645173073,0.0454795695841312],"min":[-0.05273409560323,-0.00884553976357,-0.0534719415009],"type":"VEC3"},{"bufferView":3,"byteOffset":0,"componentType":5126,"count":703,"type":"VEC3"},{"bufferView":4,"byteOffset":0,"componentType":5126,"count":703,"type":"VEC4"},{"bufferView":5,"byteOffset":0,"componentType":5126,"count":703,"type":"VEC2"},{"bufferView":6,"byteOffset":0,"componentType":5126,"count":703,"type":"VEC2"},{"bufferView":7,"byteOffset":0,"componentType":5123,"count":2247,"type":"SCALAR"},{"bufferView":8,"byteOffset":0,"componentType":5126,"count":563,"max":[0.0419587157666683,0.138087645173073,0.0454738400876522],"min":[-0.05273409560323,-0.00878526177257,-0.05378254130483],"type":"VEC3"},{"bufferView":9,"byteOffset":0,"componentType":5126,"count":563,"type":"VEC3"},{"bufferView":10,"byteOffset":0,"componentType":5126,"count":563,"type":"VEC4"},{"bufferView":11,"byteOffset":0,"componentType":5126,"count":563,"type":"VEC2"},{"bufferView":12,"byteOffset":0,"componentType":5126,"count":563,"type":"VEC2"},{"bufferView":13,"byteOffset":0,"componentType":5123,"count":1500,"type":"SCALAR"},{"bufferView":14,"byteOffset":0,"componentType":5126,"count":420,"max":[0.0419587157666683,0.138087645173073,0.0454738400876522],"min":[-0.05273409560323,-0.00879937130958,-0.05405015870929],"type":"VEC3"},{"bufferView":15,"byteOffset":0,"componentType":5126,"count":420,"type":"VEC3"},{"bufferView":16,"byteOffset":0,"componentType":5126,"count":420,"type":"VEC4"},{"bufferView":17,"byteOffset":0,"componentType":5126,"count":420,"type":"VEC2"},{"bufferView":18,"byteOffset":0,"componentType":5126,"count":420,"type":"VEC2"},{"bufferView":19,"byteOffset":0,"componentType":5123,"count":750,"type":"SCALAR"},{"bufferView":20,"byteOffset":0,"componentType":5126,"count":258,"max":[0.0396617650985718,0.137956947088242,0.0447812341153622],"min":[-0.0526462495327,-0.00891136191785,-0.05341859161854],"type":"VEC3"},{"bufferView":21,"byteOffset":0,"componentType":5126,"count":258,"type":"VEC3"},{"bufferView":22,"byteOffset":0,"componentType":5126,"count":258,"type":"VEC4"},{"bufferView":23,"byteOffset":0,"componentType":5126,"count":258,"type":"VEC2"},{"bufferView":24,"byteOffset":0,"componentType":5126,"count":258,"type":"VEC2"},{"bufferView":25,"byteOffset":0,"componentType":5123,"count":84,"type":"SCALAR"},{"bufferView":26,"byteOffset":0,"componentType":5126,"count":84,"max":[0.0392145216464996,0.139156028628349,0.0423972085118294],"min":[-0.05247814953327,-0.0020079347305,-0.05105271562934],"type":"VEC3"},{"bufferView":27,"byteOffset":0,"componentType":5126,"count":84,"type":"VEC3"},{"bufferView":28,"byteOffset":0,"componentType":5126,"count":84,"type":"VEC2"},{"bufferView":29,"byteOffset":0,"componentType":5126,"count":84,"type":"VEC2"}],"animations":[{"channels":[],"name":"Unreal Take","samplers":[]}],"asset":{"generator":"FBX2glTF v0.13.0","version":"2.0"},"bufferViews":[{"buffer":0,"byteLength":4,"byteOffset":0},{"buffer":0,"byteLength":5994,"byteOffset":4,"target":34963},{"buffer":0,"byteLength":8436,"byteOffset":6000,"target":34962},{"buffer":0,"byteLength":8436,"byteOffset":14436,"target":34962},{"buffer":0,"byteLength":11248,"byteOffset":22872,"target":34962},{"buffer":0,"byteLength":5624,"byteOffset":34120,"target":34962},{"buffer":0,"byteLength":5624,"byteOffset":39744,"target":34962},{"buffer":0,"byteLength":4494,"byteOffset":45368,"target":34963},{"buffer":0,"byteLength":6756,"byteOffset":49864,"target":34962},{"buffer":0,"byteLength":6756,"byteOffset":56620,"target":34962},{"buffer":0,"byteLength":9008,"byteOffset":63376,"target":34962},{"buffer":0,"byteLength":4504,"byteOffset":72384,"target":34962},{"buffer":0,"byteLength":4504,"byteOffset":76888,"target":34962},{"buffer":0,"byteLength":3000,"byteOffset":81392,"target":34963},{"buffer":0,"byteLength":5040,"byteOffset":84392,"target":34962},{"buffer":0,"byteLength":5040,"byteOffset":89432,"target":34962},{"buffer":0,"byteLength":6720,"byteOffset":94472,"target":34962},{"buffer":0,"byteLength":3360,"byteOffset":101192,"target":34962},{"buffer":0,"byteLength":3360,"byteOffset":104552,"target":34962},{"buffer":0,"byteLength":1500,"byteOffset":107912,"target":34963},{"buffer":0,"byteLength":3096,"byteOffset":109412,"target":34962},{"buffer":0,"byteLength":3096,"byteOffset":112508,"target":34962},{"buffer":0,"byteLength":4128,"byteOffset":115604,"target":34962},{"buffer":0,"byteLength":2064,"byteOffset":119732,"target":34962},{"buffer":0,"byteLength":2064,"byteOffset":121796,"target":34962},{"buffer":0,"byteLength":168,"byteOffset":123860,"target":34963},{"buffer":0,"byteLength":1008,"byteOffset":124028,"target":34962},{"buffer":0,"byteLength":1008,"byteOffset":125036,"target":34962},{"buffer":0,"byteLength":672,"byteOffset":126044,"target":34962},{"buffer":0,"byteLength":672,"byteOffset":126716,"target":34962}],"buffers":[{"byteLength":127388,"uri":"SM_Food_SM_Pear.bin"}],"images":[{"name":"T_Food_N","uri":"T_Food_N.tga"}],"materials":[{"alphaMode":"OPAQUE","doubleSided":false,"extras":{"fromFBX":{"isTruePBR":false,"shadingModel":"Phong"}},"name":"MI_Food","normalTexture":{"index":0,"texCoord":0},"pbrMetallicRoughness":{"baseColorFactor":[0.21586050093174,0.21586050093174,0.21586050093174,1],"metallicFactor":0.400000005960464,"roughnessFactor":0.301511347293854}},{"alphaMode":"OPAQUE","doubleSided":false,"extras":{"fromFBX":{"isTruePBR":false,"shadingModel":"Lambert"}},"name":"DefaultMaterial","pbrMetallicRoughness":{"baseColorFactor":[0.5,0.5,0.5,1],"metallicFactor":0.200000002980232,"roughnessFactor":0.800000011920929}}],"meshes":[{"name":"SM_Food_SM_Pear_LOD0","primitives":[{"attributes":{"NORMAL":3,"POSITION":2,"TANGENT":4,"TEXCOORD_0":5,"TEXCOORD_1":6},"indices":1,"material":0,"mode":4}]},{"name":"SM_Food_SM_Pear_LOD1","primitives":[{"attributes":{"NORMAL":9,"POSITION":8,"TANGENT":10,"TEXCOORD_0":11,"TEXCOORD_1":12},"indices":7,"material":0,"mode":4}]},{"name":"SM_Food_SM_Pear_LOD2","primitives":[{"attributes":{"NORMAL":15,"POSITION":14,"TANGENT":16,"TEXCOORD_0":17,"TEXCOORD_1":18},"indices":13,"material":0,"mode":4}]},{"name":"SM_Food_SM_Pear_LOD3","primitives":[{"attributes":{"NORMAL":21,"POSITION":20,"TANGENT":22,"TEXCOORD_0":23,"TEXCOORD_1":24},"indices":19,"material":0,"mode":4}]},{"name":"SM_Food_SM_Pear_ConvexHulls","primitives":[{"attributes":{"NORMAL":27,"POSITION":26,"TEXCOORD_0":28,"TEXCOORD_1":29},"indices":25,"material":1,"mode":4}]}],"nodes":[{"children":[1,2,3,4,5],"name":"SM_Food_SM_Apple_8","originalUnits":0.00999999977648258,"pivot":[0,0,0],"rotation":[0,0,0,1],"scale":[1,1,1],"translation":[0,0,0]},{"mesh":0,"name":"SM_Food_SM_Pear_LOD0","originalUnits":0.00999999977648258,"pivot":[0,0,0],"rotation":[0,0,0,1],"scale":[1,1,1],"translation":[0,0,0]},{"mesh":4,"name":"SM_Food_SM_Pear_ConvexHulls","originalUnits":0.00999999977648258,"pivot":[0,0,0],"rotation":[0,0,0,1],"scale":[1,1,1],"translation":[0,0,0]},{"mesh":1,"name":"SM_Food_SM_Pear_LOD1","originalUnits":0.00999999977648258,"pivot":[0,0,0],"rotation":[0,0,0,1],"scale":[1,1,1],"translation":[0,0,0]},{"mesh":2,"name":"SM_Food_SM_Pear_LOD2","originalUnits":0.00999999977648258,"pivot":[0,0,0],"rotation":[0,0,0,1],"scale":[1,1,1],"translation":[0,0,0]},{"mesh":3,"name":"SM_Food_SM_Pear_LOD3","originalUnits":0.00999999977648258,"pivot":[0,0,0],"rotation":[0,0,0,1],"scale":[1,1,1],"translation":[0,0,0]}],"samplers":[{}],"scene":0,"scenes":[{"name":"Root Scene","nodes":[0]}],"textures":[{"name":"T_Food_N","sampler":0,"source":0}]}