{"accessors":[{"bufferView":0,"byteOffset":0,"componentType":5126,"count":1,"max":[0],"min":[0],"type":"SCALAR"},{"bufferView":1,"byteOffset":0,"componentType":5123,"count":18000,"type":"SCALAR"},{"bufferView":2,"byteOffset":0,"componentType":5126,"count":3506,"max":[0.0516410209238529,0.149982824921608,0.0516413487493992],"min":[-0.05164160951972,-0.00157132116146,-0.05164133012295],"type":"VEC3"},{"bufferView":3,"byteOffset":0,"componentType":5126,"count":3506,"type":"VEC3"},{"bufferView":4,"byteOffset":0,"componentType":5126,"count":3506,"type":"VEC4"},{"bufferView":5,"byteOffset":0,"componentType":5126,"count":3506,"type":"VEC2"},{"bufferView":6,"byteOffset":0,"componentType":5126,"count":3506,"type":"VEC2"},{"bufferView":7,"byteOffset":0,"componentType":5123,"count":13500,"type":"SCALAR"},{"bufferView":8,"byteOffset":0,"componentType":5126,"count":2732,"max":[0.0516410209238529,0.149982824921608,0.0516219735145569],"min":[-0.05171547457576,-0.00157132116146,-0.05178715661168],"type":"VEC3"},{"bufferView":9,"byteOffset":0,"componentType":5126,"count":2732,"type":"VEC3"},{"bufferView":10,"byteOffset":0,"componentType":5126,"count":2732,"type":"VEC4"},{"bufferView":11,"byteOffset":0,"componentType":5126,"count":2732,"type":"VEC2"},{"bufferView":12,"byteOffset":0,"componentType":5126,"count":2732,"type":"VEC2"},{"bufferView":13,"byteOffset":0,"componentType":5123,"count":9000,"type":"SCALAR"},{"bufferView":14,"byteOffset":0,"componentType":5126,"count":1897,"max":[0.0517727881669998,0.150009498000145,0.0516219735145569],"min":[-0.05188743770123,-0.00160486996174,-0.05183942988515],"type":"VEC3"},{"bufferView":15,"byteOffset":0,"componentType":5126,"count":1897,"type":"VEC3"},{"bufferView":16,"byteOffset":0,"componentType":5126,"count":1897,"type":"VEC4"},{"bufferView":17,"byteOffset":0,"componentType":5126,"count":1897,"type":"VEC2"},{"bufferView":18,"byteOffset":0,"componentType":5126,"count":1897,"type":"VEC2"},{"bufferView":19,"byteOffset":0,"componentType":5123,"count":4500,"type":"SCALAR"},{"bufferView":20,"byteOffset":0,"componentType":5126,"count":977,"max":[0.0519171208143234,0.150367185473442,0.0514289550483227],"min":[-0.05271796137094,-0.00196331855841,-0.05239902064204],"type":"VEC3"},{"bufferView":21,"byteOffset":0,"componentType":5126,"count":977,"type":"VEC3"},{"bufferView":22,"byteOffset":0,"componentType":5126,"count":977,"type":"VEC4"},{"bufferView":23,"byteOffset":0,"componentType":5126,"count":977,"type":"VEC2"},{"bufferView":24,"byteOffset":0,"componentType":5126,"count":977,"type":"VEC2"},{"bufferView":25,"byteOffset":0,"componentType":5123,"count":84,"type":"SCALAR"},{"bufferView":26,"byteOffset":0,"componentType":5126,"count":80,"max":[0.0501009784638882,0.148012295365334,0.0497909598052502],"min":[-0.05011501535773,0.00036401287070475,-0.05108227953315],"type":"VEC3"},{"bufferView":27,"byteOffset":0,"componentType":5126,"count":80,"type":"VEC3"},{"bufferView":28,"byteOffset":0,"componentType":5126,"count":80,"type":"VEC2"},{"bufferView":29,"byteOffset":0,"componentType":5126,"count":80,"type":"VEC2"}],"animations":[{"channels":[],"name":"Unreal Take","samplers":[]}],"asset":{"generator":"FBX2glTF v0.13.0","version":"2.0"},"bufferViews":[{"buffer":0,"byteLength":4,"byteOffset":0},{"buffer":0,"byteLength":36000,"byteOffset":4,"target":34963},{"buffer":0,"byteLength":42072,"byteOffset":36004,"target":34962},{"buffer":0,"byteLength":42072,"byteOffset":78076,"target":34962},{"buffer":0,"byteLength":56096,"byteOffset":120148,"target":34962},{"buffer":0,"byteLength":28048,"byteOffset":176244,"target":34962},{"buffer":0,"byteLength":28048,"byteOffset":204292,"target":34962},{"buffer":0,"byteLength":27000,"byteOffset":232340,"target":34963},{"buffer":0,"byteLength":32784,"byteOffset":259340,"target":34962},{"buffer":0,"byteLength":32784,"byteOffset":292124,"target":34962},{"buffer":0,"byteLength":43712,"byteOffset":324908,"target":34962},{"buffer":0,"byteLength":21856,"byteOffset":368620,"target":34962},{"buffer":0,"byteLength":21856,"byteOffset":390476,"target":34962},{"buffer":0,"byteLength":18000,"byteOffset":412332,"target":34963},{"buffer":0,"byteLength":22764,"byteOffset":430332,"target":34962},{"buffer":0,"byteLength":22764,"byteOffset":453096,"target":34962},{"buffer":0,"byteLength":30352,"byteOffset":475860,"target":34962},{"buffer":0,"byteLength":15176,"byteOffset":506212,"target":34962},{"buffer":0,"byteLength":15176,"byteOffset":521388,"target":34962},{"buffer":0,"byteLength":9000,"byteOffset":536564,"target":34963},{"buffer":0,"byteLength":11724,"byteOffset":545564,"target":34962},{"buffer":0,"byteLength":11724,"byteOffset":557288,"target":34962},{"buffer":0,"byteLength":15632,"byteOffset":569012,"target":34962},{"buffer":0,"byteLength":7816,"byteOffset":584644,"target":34962},{"buffer":0,"byteLength":7816,"byteOffset":592460,"target":34962},{"buffer":0,"byteLength":168,"byteOffset":600276,"target":34963},{"buffer":0,"byteLength":960,"byteOffset":600444,"target":34962},{"buffer":0,"byteLength":960,"byteOffset":601404,"target":34962},{"buffer":0,"byteLength":640,"byteOffset":602364,"target":34962},{"buffer":0,"byteLength":640,"byteOffset":603004,"target":34962}],"buffers":[{"byteLength":603644,"uri":"SM_FoodCan06.bin"}],"images":[{"name":"FlatNormal","uri":"FlatNormal.tga"}],"materials":[{"alphaMode":"OPAQUE","doubleSided":false,"extras":{"fromFBX":{"isTruePBR":false,"shadingModel":"Phong"}},"name":"MI_Canned_Foods","normalTexture":{"index":0,"texCoord":0},"pbrMetallicRoughness":{"baseColorFactor":[0.21586050093174,0.21586050093174,0.21586050093174,1],"metallicFactor":0.400000005960464,"roughnessFactor":0.301511347293854}},{"alphaMode":"OPAQUE","doubleSided":false,"extras":{"fromFBX":{"isTruePBR":false,"shadingModel":"Lambert"}},"name":"DefaultMaterial","pbrMetallicRoughness":{"baseColorFactor":[0.5,0.5,0.5,1],"metallicFactor":0.200000002980232,"roughnessFactor":0.800000011920929}}],"meshes":[{"name":"SM_FoodCan06_LOD0","primitives":[{"attributes":{"NORMAL":3,"POSITION":2,"TANGENT":4,"TEXCOORD_0":5,"TEXCOORD_1":6},"indices":1,"material":0,"mode":4}]},{"name":"SM_FoodCan06_LOD1","primitives":[{"attributes":{"NORMAL":9,"POSITION":8,"TANGENT":10,"TEXCOORD_0":11,"TEXCOORD_1":12},"indices":7,"material":0,"mode":4}]},{"name":"SM_FoodCan06_LOD2","primitives":[{"attributes":{"NORMAL":15,"POSITION":14,"TANGENT":16,"TEXCOORD_0":17,"TEXCOORD_1":18},"indices":13,"material":0,"mode":4}]},{"name":"SM_FoodCan06_LOD3","primitives":[{"attributes":{"NORMAL":21,"POSITION":20,"TANGENT":22,"TEXCOORD_0":23,"TEXCOORD_1":24},"indices":19,"material":0,"mode":4}]},{"name":"SM_FoodCan06_ConvexHulls","primitives":[{"attributes":{"NORMAL":27,"POSITION":26,"TEXCOORD_0":28,"TEXCOORD_1":29},"indices":25,"material":1,"mode":4}]}],"nodes":[{"children":[1,2,3,4,5],"name":"SM_FoodCan24","originalUnits":0.00999999977648258,"pivot":[0,0,0],"rotation":[0,0,0,1],"scale":[1,1,1],"translation":[0,0,0]},{"mesh":0,"name":"SM_FoodCan06_LOD0","originalUnits":0.00999999977648258,"pivot":[0,0,0],"rotation":[0,0,0,1],"scale":[1,1,1],"translation":[0,0,0]},{"mesh":4,"name":"SM_FoodCan06_ConvexHulls","originalUnits":0.00999999977648258,"pivot":[0,0,0],"rotation":[0,0,0,1],"scale":[1,1,1],"translation":[0,0,0]},{"mesh":1,"name":"SM_FoodCan06_LOD1","originalUnits":0.00999999977648258,"pivot":[0,0,0],"rotation":[0,0,0,1],"scale":[1,1,1],"translation":[0,0,0]},{"mesh":2,"name":"SM_FoodCan06_LOD2","originalUnits":0.00999999977648258,"pivot":[0,0,0],"rotation":[0,0,0,1],"scale":[1,1,1],"translation":[0,0,0]},{"mesh":3,"name":"SM_FoodCan06_LOD3","originalUnits":0.00999999977648258,"pivot":[0,0,0],"rotation":[0,0,0,1],"scale":[1,1,1],"translation":[0,0,0]}],"samplers":[{}],"scene":0,"scenes":[{"name":"Root Scene","nodes":[0]}],"textures":[{"name":"T_Default_N","sampler":0,"source":0}]}