{"accessors":[{"bufferView":0,"byteOffset":0,"componentType":5126,"count":1,"max":[0],"min":[0],"type":"SCALAR"},{"bufferView":1,"byteOffset":0,"componentType":5123,"count":279,"type":"SCALAR"},{"bufferView":2,"byteOffset":0,"componentType":5126,"count":123,"max":[0.169150829315186,0.361218750476837,0.104967191815376],"min":[-0.16915099322796,-0.0002890668984,-0.1049671843648],"type":"VEC3"},{"bufferView":3,"byteOffset":0,"componentType":5126,"count":123,"type":"VEC3"},{"bufferView":4,"byteOffset":0,"componentType":5126,"count":123,"type":"VEC4"},{"bufferView":5,"byteOffset":0,"componentType":5126,"count":123,"type":"VEC2"},{"bufferView":6,"byteOffset":0,"componentType":5126,"count":123,"type":"VEC2"},{"bufferView":7,"byteOffset":0,"componentType":5123,"count":207,"type":"SCALAR"},{"bufferView":8,"byteOffset":0,"componentType":5126,"count":99,"max":[0.169150769710541,0.361232370138168,0.105813421308994],"min":[-0.16915099322796,-0.00390751520172,-0.1049671843648],"type":"VEC3"},{"bufferView":9,"byteOffset":0,"componentType":5126,"count":99,"type":"VEC3"},{"bufferView":10,"byteOffset":0,"componentType":5126,"count":99,"type":"VEC4"},{"bufferView":11,"byteOffset":0,"componentType":5126,"count":99,"type":"VEC2"},{"bufferView":12,"byteOffset":0,"componentType":5126,"count":99,"type":"VEC2"},{"bufferView":13,"byteOffset":0,"componentType":5123,"count":141,"type":"SCALAR"},{"bufferView":14,"byteOffset":0,"componentType":5126,"count":77,"max":[0.169150769710541,0.361027032136917,0.105813421308994],"min":[-0.17023374140263,-0.00390751520172,-0.10507909208536],"type":"VEC3"},{"bufferView":15,"byteOffset":0,"componentType":5126,"count":77,"type":"VEC3"},{"bufferView":16,"byteOffset":0,"componentType":5126,"count":77,"type":"VEC4"},{"bufferView":17,"byteOffset":0,"componentType":5126,"count":77,"type":"VEC2"},{"bufferView":18,"byteOffset":0,"componentType":5126,"count":77,"type":"VEC2"},{"bufferView":19,"byteOffset":0,"componentType":5123,"count":72,"type":"SCALAR"},{"bufferView":20,"byteOffset":0,"componentType":5126,"count":44,"max":[0.169127970933914,0.359310209751129,0.108921103179455],"min":[-0.16798497736454,-0.00442719273269,-0.10558721423149],"type":"VEC3"},{"bufferView":21,"byteOffset":0,"componentType":5126,"count":44,"type":"VEC3"},{"bufferView":22,"byteOffset":0,"componentType":5126,"count":44,"type":"VEC4"},{"bufferView":23,"byteOffset":0,"componentType":5126,"count":44,"type":"VEC2"},{"bufferView":24,"byteOffset":0,"componentType":5126,"count":44,"type":"VEC2"},{"bufferView":25,"byteOffset":0,"componentType":5123,"count":108,"type":"SCALAR"},{"bufferView":26,"byteOffset":0,"componentType":5126,"count":68,"max":[0.170150816440582,0.362499982118607,0.10656251758337],"min":[-0.1712499409914,-0.00128906371538,-0.10596718639135],"type":"VEC3"},{"bufferView":27,"byteOffset":0,"componentType":5126,"count":68,"type":"VEC3"},{"bufferView":28,"byteOffset":0,"componentType":5126,"count":68,"type":"VEC2"},{"bufferView":29,"byteOffset":0,"componentType":5126,"count":68,"type":"VEC2"}],"animations":[{"channels":[],"name":"Unreal Take","samplers":[]}],"asset":{"generator":"FBX2glTF v0.13.0","version":"2.0"},"bufferViews":[{"buffer":0,"byteLength":4,"byteOffset":0},{"buffer":0,"byteLength":558,"byteOffset":4,"target":34963},{"buffer":0,"byteLength":1476,"byteOffset":564,"target":34962},{"buffer":0,"byteLength":1476,"byteOffset":2040,"target":34962},{"buffer":0,"byteLength":1968,"byteOffset":3516,"target":34962},{"buffer":0,"byteLength":984,"byteOffset":5484,"target":34962},{"buffer":0,"byteLength":984,"byteOffset":6468,"target":34962},{"buffer":0,"byteLength":414,"byteOffset":7452,"target":34963},{"buffer":0,"byteLength":1188,"byteOffset":7868,"target":34962},{"buffer":0,"byteLength":1188,"byteOffset":9056,"target":34962},{"buffer":0,"byteLength":1584,"byteOffset":10244,"target":34962},{"buffer":0,"byteLength":792,"byteOffset":11828,"target":34962},{"buffer":0,"byteLength":792,"byteOffset":12620,"target":34962},{"buffer":0,"byteLength":282,"byteOffset":13412,"target":34963},{"buffer":0,"byteLength":924,"byteOffset":13696,"target":34962},{"buffer":0,"byteLength":924,"byteOffset":14620,"target":34962},{"buffer":0,"byteLength":1232,"byteOffset":15544,"target":34962},{"buffer":0,"byteLength":616,"byteOffset":16776,"target":34962},{"buffer":0,"byteLength":616,"byteOffset":17392,"target":34962},{"buffer":0,"byteLength":144,"byteOffset":18008,"target":34963},{"buffer":0,"byteLength":528,"byteOffset":18152,"target":34962},{"buffer":0,"byteLength":528,"byteOffset":18680,"target":34962},{"buffer":0,"byteLength":704,"byteOffset":19208,"target":34962},{"buffer":0,"byteLength":352,"byteOffset":19912,"target":34962},{"buffer":0,"byteLength":352,"byteOffset":20264,"target":34962},{"buffer":0,"byteLength":216,"byteOffset":20616,"target":34963},{"buffer":0,"byteLength":816,"byteOffset":20832,"target":34962},{"buffer":0,"byteLength":816,"byteOffset":21648,"target":34962},{"buffer":0,"byteLength":544,"byteOffset":22464,"target":34962},{"buffer":0,"byteLength":544,"byteOffset":23008,"target":34962}],"buffers":[{"byteLength":23552,"uri":"SM_Frames_08.bin"}],"images":[{"name":"T_Frames_N","uri":"T_Frames_N.tga"}],"materials":[{"alphaMode":"OPAQUE","doubleSided":false,"extras":{"fromFBX":{"isTruePBR":false,"shadingModel":"Phong"}},"name":"MI_Frame","normalTexture":{"index":0,"texCoord":0},"pbrMetallicRoughness":{"baseColorFactor":[0.21586050093174,0.21586050093174,0.21586050093174,1],"metallicFactor":0.400000005960464,"roughnessFactor":0.301511347293854}},{"alphaMode":"OPAQUE","doubleSided":false,"extras":{"fromFBX":{"isTruePBR":false,"shadingModel":"Lambert"}},"name":"DefaultMaterial","pbrMetallicRoughness":{"baseColorFactor":[0.5,0.5,0.5,1],"metallicFactor":0.200000002980232,"roughnessFactor":0.800000011920929}}],"meshes":[{"name":"SM_Frames_08_LOD0","primitives":[{"attributes":{"NORMAL":3,"POSITION":2,"TANGENT":4,"TEXCOORD_0":5,"TEXCOORD_1":6},"indices":1,"material":0,"mode":4}]},{"name":"SM_Frames_08_LOD1","primitives":[{"attributes":{"NORMAL":9,"POSITION":8,"TANGENT":10,"TEXCOORD_0":11,"TEXCOORD_1":12},"indices":7,"material":0,"mode":4}]},{"name":"SM_Frames_08_LOD2","primitives":[{"attributes":{"NORMAL":15,"POSITION":14,"TANGENT":16,"TEXCOORD_0":17,"TEXCOORD_1":18},"indices":13,"material":0,"mode":4}]},{"name":"SM_Frames_08_LOD3","primitives":[{"attributes":{"NORMAL":21,"POSITION":20,"TANGENT":22,"TEXCOORD_0":23,"TEXCOORD_1":24},"indices":19,"material":0,"mode":4}]},{"name":"SM_Frames_08_ConvexHulls","primitives":[{"attributes":{"NORMAL":27,"POSITION":26,"TEXCOORD_0":28,"TEXCOORD_1":29},"indices":25,"material":1,"mode":4}]}],"nodes":[{"children":[1,2,3,4,5],"name":"SM_Frames_12","originalUnits":0.00999999977648258,"pivot":[0,0,0],"rotation":[0,0,0,1],"scale":[1,1,1],"translation":[0,0,0]},{"mesh":0,"name":"SM_Frames_08_LOD0","originalUnits":0.00999999977648258,"pivot":[0,0,0],"rotation":[0,0,0,1],"scale":[1,1,1],"translation":[0,0,0]},{"mesh":4,"name":"SM_Frames_08_ConvexHulls","originalUnits":0.00999999977648258,"pivot":[0,0,0],"rotation":[0,0,0,1],"scale":[1,1,1],"translation":[0,0,0]},{"mesh":1,"name":"SM_Frames_08_LOD1","originalUnits":0.00999999977648258,"pivot":[0,0,0],"rotation":[0,0,0,1],"scale":[1,1,1],"translation":[0,0,0]},{"mesh":2,"name":"SM_Frames_08_LOD2","originalUnits":0.00999999977648258,"pivot":[0,0,0],"rotation":[0,0,0,1],"scale":[1,1,1],"translation":[0,0,0]},{"mesh":3,"name":"SM_Frames_08_LOD3","originalUnits":0.00999999977648258,"pivot":[0,0,0],"rotation":[0,0,0,1],"scale":[1,1,1],"translation":[0,0,0]}],"samplers":[{}],"scene":0,"scenes":[{"name":"Root Scene","nodes":[0]}],"textures":[{"name":"T_Frames_N","sampler":0,"source":0}]}