{"accessors":[{"bufferView":0,"byteOffset":0,"componentType":5126,"count":1,"max":[0],"min":[0],"type":"SCALAR"},{"bufferView":1,"byteOffset":0,"componentType":5123,"count":864,"type":"SCALAR"},{"bufferView":2,"byteOffset":0,"componentType":5126,"count":207,"max":[0.0630475357174873,0.0319789908826351,0.0186431463807821],"min":[-0.06774318218231,-0.00979312788695,-0.02320828661323],"type":"VEC3"},{"bufferView":3,"byteOffset":0,"componentType":5126,"count":207,"type":"VEC3"},{"bufferView":4,"byteOffset":0,"componentType":5126,"count":207,"type":"VEC4"},{"bufferView":5,"byteOffset":0,"componentType":5126,"count":207,"type":"VEC2"},{"bufferView":6,"byteOffset":0,"componentType":5126,"count":207,"type":"VEC2"},{"bufferView":7,"byteOffset":0,"componentType":5123,"count":648,"type":"SCALAR"},{"bufferView":8,"byteOffset":0,"componentType":5126,"count":169,"max":[0.0630475357174873,0.0320684984326363,0.0185558795928955],"min":[-0.06774318218231,-0.01040572766215,-0.0226904656738],"type":"VEC3"},{"bufferView":9,"byteOffset":0,"componentType":5126,"count":169,"type":"VEC3"},{"bufferView":10,"byteOffset":0,"componentType":5126,"count":169,"type":"VEC4"},{"bufferView":11,"byteOffset":0,"componentType":5126,"count":169,"type":"VEC2"},{"bufferView":12,"byteOffset":0,"componentType":5126,"count":169,"type":"VEC2"},{"bufferView":13,"byteOffset":0,"componentType":5123,"count":432,"type":"SCALAR"},{"bufferView":14,"byteOffset":0,"componentType":5126,"count":124,"max":[0.0630475357174873,0.0314078815281391,0.0193720981478691],"min":[-0.06774318218231,-0.01040572766215,-0.02303867787123],"type":"VEC3"},{"bufferView":15,"byteOffset":0,"componentType":5126,"count":124,"type":"VEC3"},{"bufferView":16,"byteOffset":0,"componentType":5126,"count":124,"type":"VEC4"},{"bufferView":17,"byteOffset":0,"componentType":5126,"count":124,"type":"VEC2"},{"bufferView":18,"byteOffset":0,"componentType":5126,"count":124,"type":"VEC2"},{"bufferView":19,"byteOffset":0,"componentType":5123,"count":216,"type":"SCALAR"},{"bufferView":20,"byteOffset":0,"componentType":5126,"count":72,"max":[0.0631848350167274,0.0314078815281391,0.0185240283608437],"min":[-0.06690230965614,-0.01071581430733,-0.02242800034583],"type":"VEC3"},{"bufferView":21,"byteOffset":0,"componentType":5126,"count":72,"type":"VEC3"},{"bufferView":22,"byteOffset":0,"componentType":5126,"count":72,"type":"VEC4"},{"bufferView":23,"byteOffset":0,"componentType":5126,"count":72,"type":"VEC2"},{"bufferView":24,"byteOffset":0,"componentType":5126,"count":72,"type":"VEC2"},{"bufferView":25,"byteOffset":0,"componentType":5123,"count":84,"type":"SCALAR"},{"bufferView":26,"byteOffset":0,"componentType":5126,"count":84,"max":[0.0628006458282471,0.0289157032966614,0.0166207887232304],"min":[-0.05711232498288,-0.00876703113317,-0.02112067118287],"type":"VEC3"},{"bufferView":27,"byteOffset":0,"componentType":5126,"count":84,"type":"VEC3"},{"bufferView":28,"byteOffset":0,"componentType":5126,"count":84,"type":"VEC2"},{"bufferView":29,"byteOffset":0,"componentType":5126,"count":84,"type":"VEC2"}],"animations":[{"channels":[],"name":"Unreal Take","samplers":[]}],"asset":{"generator":"FBX2glTF v0.13.0","version":"2.0"},"bufferViews":[{"buffer":0,"byteLength":4,"byteOffset":0},{"buffer":0,"byteLength":1728,"byteOffset":4,"target":34963},{"buffer":0,"byteLength":2484,"byteOffset":1732,"target":34962},{"buffer":0,"byteLength":2484,"byteOffset":4216,"target":34962},{"buffer":0,"byteLength":3312,"byteOffset":6700,"target":34962},{"buffer":0,"byteLength":1656,"byteOffset":10012,"target":34962},{"buffer":0,"byteLength":1656,"byteOffset":11668,"target":34962},{"buffer":0,"byteLength":1296,"byteOffset":13324,"target":34963},{"buffer":0,"byteLength":2028,"byteOffset":14620,"target":34962},{"buffer":0,"byteLength":2028,"byteOffset":16648,"target":34962},{"buffer":0,"byteLength":2704,"byteOffset":18676,"target":34962},{"buffer":0,"byteLength":1352,"byteOffset":21380,"target":34962},{"buffer":0,"byteLength":1352,"byteOffset":22732,"target":34962},{"buffer":0,"byteLength":864,"byteOffset":24084,"target":34963},{"buffer":0,"byteLength":1488,"byteOffset":24948,"target":34962},{"buffer":0,"byteLength":1488,"byteOffset":26436,"target":34962},{"buffer":0,"byteLength":1984,"byteOffset":27924,"target":34962},{"buffer":0,"byteLength":992,"byteOffset":29908,"target":34962},{"buffer":0,"byteLength":992,"byteOffset":30900,"target":34962},{"buffer":0,"byteLength":432,"byteOffset":31892,"target":34963},{"buffer":0,"byteLength":864,"byteOffset":32324,"target":34962},{"buffer":0,"byteLength":864,"byteOffset":33188,"target":34962},{"buffer":0,"byteLength":1152,"byteOffset":34052,"target":34962},{"buffer":0,"byteLength":576,"byteOffset":35204,"target":34962},{"buffer":0,"byteLength":576,"byteOffset":35780,"target":34962},{"buffer":0,"byteLength":168,"byteOffset":36356,"target":34963},{"buffer":0,"byteLength":1008,"byteOffset":36524,"target":34962},{"buffer":0,"byteLength":1008,"byteOffset":37532,"target":34962},{"buffer":0,"byteLength":672,"byteOffset":38540,"target":34962},{"buffer":0,"byteLength":672,"byteOffset":39212,"target":34962}],"buffers":[{"byteLength":39884,"uri":"SM_Food_SM_Carrot_02.bin"}],"images":[{"name":"T_Food_N","uri":"T_Food_N.tga"}],"materials":[{"alphaMode":"OPAQUE","doubleSided":false,"extras":{"fromFBX":{"isTruePBR":false,"shadingModel":"Phong"}},"name":"MI_Food","normalTexture":{"index":0,"texCoord":0},"pbrMetallicRoughness":{"baseColorFactor":[0.21586050093174,0.21586050093174,0.21586050093174,1],"metallicFactor":0.400000005960464,"roughnessFactor":0.301511347293854}},{"alphaMode":"OPAQUE","doubleSided":false,"extras":{"fromFBX":{"isTruePBR":false,"shadingModel":"Lambert"}},"name":"DefaultMaterial","pbrMetallicRoughness":{"baseColorFactor":[0.5,0.5,0.5,1],"metallicFactor":0.200000002980232,"roughnessFactor":0.800000011920929}}],"meshes":[{"name":"SM_Food_SM_Carrot_02_LOD0","primitives":[{"attributes":{"NORMAL":3,"POSITION":2,"TANGENT":4,"TEXCOORD_0":5,"TEXCOORD_1":6},"indices":1,"material":0,"mode":4}]},{"name":"SM_Food_SM_Carrot_02_LOD1","primitives":[{"attributes":{"NORMAL":9,"POSITION":8,"TANGENT":10,"TEXCOORD_0":11,"TEXCOORD_1":12},"indices":7,"material":0,"mode":4}]},{"name":"SM_Food_SM_Carrot_02_LOD2","primitives":[{"attributes":{"NORMAL":15,"POSITION":14,"TANGENT":16,"TEXCOORD_0":17,"TEXCOORD_1":18},"indices":13,"material":0,"mode":4}]},{"name":"SM_Food_SM_Carrot_02_LOD3","primitives":[{"attributes":{"NORMAL":21,"POSITION":20,"TANGENT":22,"TEXCOORD_0":23,"TEXCOORD_1":24},"indices":19,"material":0,"mode":4}]},{"name":"SM_Food_SM_Carrot_02_ConvexHulls","primitives":[{"attributes":{"NORMAL":27,"POSITION":26,"TEXCOORD_0":28,"TEXCOORD_1":29},"indices":25,"material":1,"mode":4}]}],"nodes":[{"children":[1,2,3,4,5],"name":"SM_Food_SM_Carrot_01_140","originalUnits":0.00999999977648258,"pivot":[0,0,0],"rotation":[0,0,0,1],"scale":[1,1,1],"translation":[0,0,0]},{"mesh":0,"name":"SM_Food_SM_Carrot_02_LOD0","originalUnits":0.00999999977648258,"pivot":[0,0,0],"rotation":[0,0,0,1],"scale":[1,1,1],"translation":[0,0,0]},{"mesh":4,"name":"SM_Food_SM_Carrot_02_ConvexHulls","originalUnits":0.00999999977648258,"pivot":[0,0,0],"rotation":[0,0,0,1],"scale":[1,1,1],"translation":[0,0,0]},{"mesh":1,"name":"SM_Food_SM_Carrot_02_LOD1","originalUnits":0.00999999977648258,"pivot":[0,0,0],"rotation":[0,0,0,1],"scale":[1,1,1],"translation":[0,0,0]},{"mesh":2,"name":"SM_Food_SM_Carrot_02_LOD2","originalUnits":0.00999999977648258,"pivot":[0,0,0],"rotation":[0,0,0,1],"scale":[1,1,1],"translation":[0,0,0]},{"mesh":3,"name":"SM_Food_SM_Carrot_02_LOD3","originalUnits":0.00999999977648258,"pivot":[0,0,0],"rotation":[0,0,0,1],"scale":[1,1,1],"translation":[0,0,0]}],"samplers":[{}],"scene":0,"scenes":[{"name":"Root Scene","nodes":[0]}],"textures":[{"name":"T_Food_N","sampler":0,"source":0}]}