{"accessors":[{"bufferView":0,"byteOffset":0,"componentType":5126,"count":1,"max":[0],"min":[0],"type":"SCALAR"},{"bufferView":1,"byteOffset":0,"componentType":5123,"count":2664,"type":"SCALAR"},{"bufferView":2,"byteOffset":0,"componentType":5126,"count":498,"max":[0.0319409109652042,0.214026421308517,0.0693818554282188],"min":[-0.03194030374289,-0.00000001067761,-0.06938185542822],"type":"VEC3"},{"bufferView":3,"byteOffset":0,"componentType":5126,"count":498,"type":"VEC3"},{"bufferView":4,"byteOffset":0,"componentType":5126,"count":498,"type":"VEC4"},{"bufferView":5,"byteOffset":0,"componentType":5126,"count":498,"type":"VEC2"},{"bufferView":6,"byteOffset":0,"componentType":5126,"count":498,"type":"VEC2"},{"bufferView":7,"byteOffset":0,"componentType":5123,"count":1998,"type":"SCALAR"},{"bufferView":8,"byteOffset":0,"componentType":5126,"count":384,"max":[0.0319409109652042,0.214026421308517,0.0693719238042831],"min":[-0.03194030374289,-0.00004250532947,-0.06938185542822],"type":"VEC3"},{"bufferView":9,"byteOffset":0,"componentType":5126,"count":384,"type":"VEC3"},{"bufferView":10,"byteOffset":0,"componentType":5126,"count":384,"type":"VEC4"},{"bufferView":11,"byteOffset":0,"componentType":5126,"count":384,"type":"VEC2"},{"bufferView":12,"byteOffset":0,"componentType":5126,"count":384,"type":"VEC2"},{"bufferView":13,"byteOffset":0,"componentType":5123,"count":1332,"type":"SCALAR"},{"bufferView":14,"byteOffset":0,"componentType":5126,"count":264,"max":[0.0311535466462374,0.214026421308517,0.0693324133753777],"min":[-0.03113403730094,-0.00020737547311,-0.06938185542822],"type":"VEC3"},{"bufferView":15,"byteOffset":0,"componentType":5126,"count":264,"type":"VEC3"},{"bufferView":16,"byteOffset":0,"componentType":5126,"count":264,"type":"VEC4"},{"bufferView":17,"byteOffset":0,"componentType":5126,"count":264,"type":"VEC2"},{"bufferView":18,"byteOffset":0,"componentType":5126,"count":264,"type":"VEC2"},{"bufferView":19,"byteOffset":0,"componentType":5123,"count":666,"type":"SCALAR"},{"bufferView":20,"byteOffset":0,"componentType":5126,"count":140,"max":[0.0316735729575157,0.213910326361656,0.0693433210253716],"min":[-0.03113403730094,-0.00048912910279,-0.06938780099154],"type":"VEC3"},{"bufferView":21,"byteOffset":0,"componentType":5126,"count":140,"type":"VEC3"},{"bufferView":22,"byteOffset":0,"componentType":5126,"count":140,"type":"VEC4"},{"bufferView":23,"byteOffset":0,"componentType":5126,"count":140,"type":"VEC2"},{"bufferView":24,"byteOffset":0,"componentType":5126,"count":140,"type":"VEC2"},{"bufferView":25,"byteOffset":0,"componentType":5123,"count":336,"type":"SCALAR"},{"bufferView":26,"byteOffset":0,"componentType":5126,"count":318,"max":[0.0330464988946915,0.214480668306351,0.0706556960940361],"min":[-0.03069026209414,-0.00161548773758,-0.07030395418406],"type":"VEC3"},{"bufferView":27,"byteOffset":0,"componentType":5126,"count":318,"type":"VEC3"},{"bufferView":28,"byteOffset":0,"componentType":5126,"count":318,"type":"VEC2"},{"bufferView":29,"byteOffset":0,"componentType":5126,"count":318,"type":"VEC2"}],"animations":[{"channels":[],"name":"Unreal Take","samplers":[]}],"asset":{"generator":"FBX2glTF v0.13.0","version":"2.0"},"bufferViews":[{"buffer":0,"byteLength":4,"byteOffset":0},{"buffer":0,"byteLength":5328,"byteOffset":4,"target":34963},{"buffer":0,"byteLength":5976,"byteOffset":5332,"target":34962},{"buffer":0,"byteLength":5976,"byteOffset":11308,"target":34962},{"buffer":0,"byteLength":7968,"byteOffset":17284,"target":34962},{"buffer":0,"byteLength":3984,"byteOffset":25252,"target":34962},{"buffer":0,"byteLength":3984,"byteOffset":29236,"target":34962},{"buffer":0,"byteLength":3996,"byteOffset":33220,"target":34963},{"buffer":0,"byteLength":4608,"byteOffset":37216,"target":34962},{"buffer":0,"byteLength":4608,"byteOffset":41824,"target":34962},{"buffer":0,"byteLength":6144,"byteOffset":46432,"target":34962},{"buffer":0,"byteLength":3072,"byteOffset":52576,"target":34962},{"buffer":0,"byteLength":3072,"byteOffset":55648,"target":34962},{"buffer":0,"byteLength":2664,"byteOffset":58720,"target":34963},{"buffer":0,"byteLength":3168,"byteOffset":61384,"target":34962},{"buffer":0,"byteLength":3168,"byteOffset":64552,"target":34962},{"buffer":0,"byteLength":4224,"byteOffset":67720,"target":34962},{"buffer":0,"byteLength":2112,"byteOffset":71944,"target":34962},{"buffer":0,"byteLength":2112,"byteOffset":74056,"target":34962},{"buffer":0,"byteLength":1332,"byteOffset":76168,"target":34963},{"buffer":0,"byteLength":1680,"byteOffset":77500,"target":34962},{"buffer":0,"byteLength":1680,"byteOffset":79180,"target":34962},{"buffer":0,"byteLength":2240,"byteOffset":80860,"target":34962},{"buffer":0,"byteLength":1120,"byteOffset":83100,"target":34962},{"buffer":0,"byteLength":1120,"byteOffset":84220,"target":34962},{"buffer":0,"byteLength":672,"byteOffset":85340,"target":34963},{"buffer":0,"byteLength":3816,"byteOffset":86012,"target":34962},{"buffer":0,"byteLength":3816,"byteOffset":89828,"target":34962},{"buffer":0,"byteLength":2544,"byteOffset":93644,"target":34962},{"buffer":0,"byteLength":2544,"byteOffset":96188,"target":34962}],"buffers":[{"byteLength":98732,"uri":"SM_FoodPot_02.bin"}],"images":[{"name":"T_FoodPot_N","uri":"T_FoodPot_N.tga"}],"materials":[{"alphaMode":"OPAQUE","doubleSided":false,"extras":{"fromFBX":{"isTruePBR":false,"shadingModel":"Phong"}},"name":"MI_FoodPot","normalTexture":{"index":0,"texCoord":0},"pbrMetallicRoughness":{"baseColorFactor":[0.21586050093174,0.21586050093174,0.21586050093174,1],"metallicFactor":0.400000005960464,"roughnessFactor":0.301511347293854}},{"alphaMode":"OPAQUE","doubleSided":false,"extras":{"fromFBX":{"isTruePBR":false,"shadingModel":"Lambert"}},"name":"DefaultMaterial","pbrMetallicRoughness":{"baseColorFactor":[0.5,0.5,0.5,1],"metallicFactor":0.200000002980232,"roughnessFactor":0.800000011920929}}],"meshes":[{"name":"SM_FoodPot_02_LOD0","primitives":[{"attributes":{"NORMAL":3,"POSITION":2,"TANGENT":4,"TEXCOORD_0":5,"TEXCOORD_1":6},"indices":1,"material":0,"mode":4}]},{"name":"SM_FoodPot_02_LOD1","primitives":[{"attributes":{"NORMAL":9,"POSITION":8,"TANGENT":10,"TEXCOORD_0":11,"TEXCOORD_1":12},"indices":7,"material":0,"mode":4}]},{"name":"SM_FoodPot_02_LOD2","primitives":[{"attributes":{"NORMAL":15,"POSITION":14,"TANGENT":16,"TEXCOORD_0":17,"TEXCOORD_1":18},"indices":13,"material":0,"mode":4}]},{"name":"SM_FoodPot_02_LOD3","primitives":[{"attributes":{"NORMAL":21,"POSITION":20,"TANGENT":22,"TEXCOORD_0":23,"TEXCOORD_1":24},"indices":19,"material":0,"mode":4}]},{"name":"SM_FoodPot_02_ConvexHulls","primitives":[{"attributes":{"NORMAL":27,"POSITION":26,"TEXCOORD_0":28,"TEXCOORD_1":29},"indices":25,"material":1,"mode":4}]}],"nodes":[{"children":[1,2,3,4,5],"name":"SM_FoodPot_34","originalUnits":0.00999999977648258,"pivot":[0,0,0],"rotation":[0,0,0,1],"scale":[1,1,1],"translation":[0,0,0]},{"mesh":0,"name":"SM_FoodPot_02_LOD0","originalUnits":0.00999999977648258,"pivot":[0,0,0],"rotation":[0,0,0,1],"scale":[1,1,1],"translation":[0,0,0]},{"mesh":4,"name":"SM_FoodPot_02_ConvexHulls","originalUnits":0.00999999977648258,"pivot":[0,0,0],"rotation":[0,0,0,1],"scale":[1,1,1],"translation":[0,0,0]},{"mesh":1,"name":"SM_FoodPot_02_LOD1","originalUnits":0.00999999977648258,"pivot":[0,0,0],"rotation":[0,0,0,1],"scale":[1,1,1],"translation":[0,0,0]},{"mesh":2,"name":"SM_FoodPot_02_LOD2","originalUnits":0.00999999977648258,"pivot":[0,0,0],"rotation":[0,0,0,1],"scale":[1,1,1],"translation":[0,0,0]},{"mesh":3,"name":"SM_FoodPot_02_LOD3","originalUnits":0.00999999977648258,"pivot":[0,0,0],"rotation":[0,0,0,1],"scale":[1,1,1],"translation":[0,0,0]}],"samplers":[{}],"scene":0,"scenes":[{"name":"Root Scene","nodes":[0]}],"textures":[{"name":"T_FoodPot_N","sampler":0,"source":0}]}