{"accessors":[{"bufferView":0,"byteOffset":0,"componentType":5126,"count":1,"max":[0],"min":[0],"type":"SCALAR"},{"bufferView":1,"byteOffset":0,"componentType":5123,"count":474,"type":"SCALAR"},{"bufferView":2,"byteOffset":0,"componentType":5126,"count":121,"max":[0.0358549766242504,0.0371131375432014,0.107809633016586],"min":[-0.0434811450541,-0.0009534425335,-0.10894315689802],"type":"VEC3"},{"bufferView":3,"byteOffset":0,"componentType":5126,"count":121,"type":"VEC3"},{"bufferView":4,"byteOffset":0,"componentType":5126,"count":121,"type":"VEC4"},{"bufferView":5,"byteOffset":0,"componentType":5126,"count":121,"type":"VEC2"},{"bufferView":6,"byteOffset":0,"componentType":5126,"count":121,"type":"VEC2"},{"bufferView":7,"byteOffset":0,"componentType":5123,"count":354,"type":"SCALAR"},{"bufferView":8,"byteOffset":0,"componentType":5126,"count":99,"max":[0.0358540266752243,0.0371131375432014,0.107809633016586],"min":[-0.0434811450541,-0.0009534425335,-0.10894315689802],"type":"VEC3"},{"bufferView":9,"byteOffset":0,"componentType":5126,"count":99,"type":"VEC3"},{"bufferView":10,"byteOffset":0,"componentType":5126,"count":99,"type":"VEC4"},{"bufferView":11,"byteOffset":0,"componentType":5126,"count":99,"type":"VEC2"},{"bufferView":12,"byteOffset":0,"componentType":5126,"count":99,"type":"VEC2"},{"bufferView":13,"byteOffset":0,"componentType":5123,"count":234,"type":"SCALAR"},{"bufferView":14,"byteOffset":0,"componentType":5126,"count":69,"max":[0.0358540266752243,0.0372412800788879,0.103346586227417],"min":[-0.0434811450541,-0.00145933311433,-0.11110555380583],"type":"VEC3"},{"bufferView":15,"byteOffset":0,"componentType":5126,"count":69,"type":"VEC3"},{"bufferView":16,"byteOffset":0,"componentType":5126,"count":69,"type":"VEC4"},{"bufferView":17,"byteOffset":0,"componentType":5126,"count":69,"type":"VEC2"},{"bufferView":18,"byteOffset":0,"componentType":5126,"count":69,"type":"VEC2"},{"bufferView":19,"byteOffset":0,"componentType":5123,"count":120,"type":"SCALAR"},{"bufferView":20,"byteOffset":0,"componentType":5126,"count":40,"max":[0.0310877840965986,0.0385824553668499,0.102143615484238],"min":[-0.04448864981532,-0.00163475272711,-0.11311364918947],"type":"VEC3"},{"bufferView":21,"byteOffset":0,"componentType":5126,"count":40,"type":"VEC3"},{"bufferView":22,"byteOffset":0,"componentType":5126,"count":40,"type":"VEC4"},{"bufferView":23,"byteOffset":0,"componentType":5126,"count":40,"type":"VEC2"},{"bufferView":24,"byteOffset":0,"componentType":5126,"count":40,"type":"VEC2"},{"bufferView":25,"byteOffset":0,"componentType":5123,"count":216,"type":"SCALAR"},{"bufferView":26,"byteOffset":0,"componentType":5126,"count":216,"max":[0.0345958508551121,0.0367485396564007,0.108593784272671],"min":[-0.04369809478521,-0.00026983043063,-0.10141830146313],"type":"VEC3"},{"bufferView":27,"byteOffset":0,"componentType":5126,"count":216,"type":"VEC3"},{"bufferView":28,"byteOffset":0,"componentType":5126,"count":216,"type":"VEC2"},{"bufferView":29,"byteOffset":0,"componentType":5126,"count":216,"type":"VEC2"}],"animations":[{"channels":[],"name":"Unreal Take","samplers":[]}],"asset":{"generator":"FBX2glTF v0.13.0","version":"2.0"},"bufferViews":[{"buffer":0,"byteLength":4,"byteOffset":0},{"buffer":0,"byteLength":948,"byteOffset":4,"target":34963},{"buffer":0,"byteLength":1452,"byteOffset":952,"target":34962},{"buffer":0,"byteLength":1452,"byteOffset":2404,"target":34962},{"buffer":0,"byteLength":1936,"byteOffset":3856,"target":34962},{"buffer":0,"byteLength":968,"byteOffset":5792,"target":34962},{"buffer":0,"byteLength":968,"byteOffset":6760,"target":34962},{"buffer":0,"byteLength":708,"byteOffset":7728,"target":34963},{"buffer":0,"byteLength":1188,"byteOffset":8436,"target":34962},{"buffer":0,"byteLength":1188,"byteOffset":9624,"target":34962},{"buffer":0,"byteLength":1584,"byteOffset":10812,"target":34962},{"buffer":0,"byteLength":792,"byteOffset":12396,"target":34962},{"buffer":0,"byteLength":792,"byteOffset":13188,"target":34962},{"buffer":0,"byteLength":468,"byteOffset":13980,"target":34963},{"buffer":0,"byteLength":828,"byteOffset":14448,"target":34962},{"buffer":0,"byteLength":828,"byteOffset":15276,"target":34962},{"buffer":0,"byteLength":1104,"byteOffset":16104,"target":34962},{"buffer":0,"byteLength":552,"byteOffset":17208,"target":34962},{"buffer":0,"byteLength":552,"byteOffset":17760,"target":34962},{"buffer":0,"byteLength":240,"byteOffset":18312,"target":34963},{"buffer":0,"byteLength":480,"byteOffset":18552,"target":34962},{"buffer":0,"byteLength":480,"byteOffset":19032,"target":34962},{"buffer":0,"byteLength":640,"byteOffset":19512,"target":34962},{"buffer":0,"byteLength":320,"byteOffset":20152,"target":34962},{"buffer":0,"byteLength":320,"byteOffset":20472,"target":34962},{"buffer":0,"byteLength":432,"byteOffset":20792,"target":34963},{"buffer":0,"byteLength":2592,"byteOffset":21224,"target":34962},{"buffer":0,"byteLength":2592,"byteOffset":23816,"target":34962},{"buffer":0,"byteLength":1728,"byteOffset":26408,"target":34962},{"buffer":0,"byteLength":1728,"byteOffset":28136,"target":34962}],"buffers":[{"byteLength":29864,"uri":"SM_Food_SM_Banana.bin"}],"images":[{"name":"T_Food_N","uri":"T_Food_N.tga"}],"materials":[{"alphaMode":"OPAQUE","doubleSided":false,"extras":{"fromFBX":{"isTruePBR":false,"shadingModel":"Phong"}},"name":"MI_Food","normalTexture":{"index":0,"texCoord":0},"pbrMetallicRoughness":{"baseColorFactor":[0.21586050093174,0.21586050093174,0.21586050093174,1],"metallicFactor":0.400000005960464,"roughnessFactor":0.301511347293854}},{"alphaMode":"OPAQUE","doubleSided":false,"extras":{"fromFBX":{"isTruePBR":false,"shadingModel":"Lambert"}},"name":"DefaultMaterial","pbrMetallicRoughness":{"baseColorFactor":[0.5,0.5,0.5,1],"metallicFactor":0.200000002980232,"roughnessFactor":0.800000011920929}}],"meshes":[{"name":"SM_Food_SM_Banana_LOD0","primitives":[{"attributes":{"NORMAL":3,"POSITION":2,"TANGENT":4,"TEXCOORD_0":5,"TEXCOORD_1":6},"indices":1,"material":0,"mode":4}]},{"name":"SM_Food_SM_Banana_LOD1","primitives":[{"attributes":{"NORMAL":9,"POSITION":8,"TANGENT":10,"TEXCOORD_0":11,"TEXCOORD_1":12},"indices":7,"material":0,"mode":4}]},{"name":"SM_Food_SM_Banana_LOD2","primitives":[{"attributes":{"NORMAL":15,"POSITION":14,"TANGENT":16,"TEXCOORD_0":17,"TEXCOORD_1":18},"indices":13,"material":0,"mode":4}]},{"name":"SM_Food_SM_Banana_LOD3","primitives":[{"attributes":{"NORMAL":21,"POSITION":20,"TANGENT":22,"TEXCOORD_0":23,"TEXCOORD_1":24},"indices":19,"material":0,"mode":4}]},{"name":"SM_Food_SM_Banana_ConvexHulls","primitives":[{"attributes":{"NORMAL":27,"POSITION":26,"TEXCOORD_0":28,"TEXCOORD_1":29},"indices":25,"material":1,"mode":4}]}],"nodes":[{"children":[1,2,3,4,5],"name":"SM_Food_SM_Banana2","originalUnits":0.00999999977648258,"pivot":[0,0,0],"rotation":[0,0,0,1],"scale":[1,1,1],"translation":[0,0,0]},{"mesh":0,"name":"SM_Food_SM_Banana_LOD0","originalUnits":0.00999999977648258,"pivot":[0,0,0],"rotation":[0,0,0,1],"scale":[1,1,1],"translation":[0,0,0]},{"mesh":4,"name":"SM_Food_SM_Banana_ConvexHulls","originalUnits":0.00999999977648258,"pivot":[0,0,0],"rotation":[0,0,0,1],"scale":[1,1,1],"translation":[0,0,0]},{"mesh":1,"name":"SM_Food_SM_Banana_LOD1","originalUnits":0.00999999977648258,"pivot":[0,0,0],"rotation":[0,0,0,1],"scale":[1,1,1],"translation":[0,0,0]},{"mesh":2,"name":"SM_Food_SM_Banana_LOD2","originalUnits":0.00999999977648258,"pivot":[0,0,0],"rotation":[0,0,0,1],"scale":[1,1,1],"translation":[0,0,0]},{"mesh":3,"name":"SM_Food_SM_Banana_LOD3","originalUnits":0.00999999977648258,"pivot":[0,0,0],"rotation":[0,0,0,1],"scale":[1,1,1],"translation":[0,0,0]}],"samplers":[{}],"scene":0,"scenes":[{"name":"Root Scene","nodes":[0]}],"textures":[{"name":"T_Food_N","sampler":0,"source":0}]}