{"accessors":[{"bufferView":0,"byteOffset":0,"componentType":5126,"count":1,"max":[0],"min":[0],"type":"SCALAR"},{"bufferView":1,"byteOffset":0,"componentType":5123,"count":18000,"type":"SCALAR"},{"bufferView":2,"byteOffset":0,"componentType":5126,"count":3506,"max":[0.0515973046422005,0.149982824921608,0.0515971221029758],"min":[-0.05159726366401,-0.00157132116146,-0.05159710347652],"type":"VEC3"},{"bufferView":3,"byteOffset":0,"componentType":5126,"count":3506,"type":"VEC3"},{"bufferView":4,"byteOffset":0,"componentType":5126,"count":3506,"type":"VEC4"},{"bufferView":5,"byteOffset":0,"componentType":5126,"count":3506,"type":"VEC2"},{"bufferView":6,"byteOffset":0,"componentType":5126,"count":3506,"type":"VEC2"},{"bufferView":7,"byteOffset":0,"componentType":5123,"count":13497,"type":"SCALAR"},{"bufferView":8,"byteOffset":0,"componentType":5126,"count":2728,"max":[0.0515973046422005,0.149982824921608,0.0515971221029758],"min":[-0.05173417553306,-0.00157132116146,-0.05159710347652],"type":"VEC3"},{"bufferView":9,"byteOffset":0,"componentType":5126,"count":2728,"type":"VEC3"},{"bufferView":10,"byteOffset":0,"componentType":5126,"count":2728,"type":"VEC4"},{"bufferView":11,"byteOffset":0,"componentType":5126,"count":2728,"type":"VEC2"},{"bufferView":12,"byteOffset":0,"componentType":5126,"count":2728,"type":"VEC2"},{"bufferView":13,"byteOffset":0,"componentType":5123,"count":8997,"type":"SCALAR"},{"bufferView":14,"byteOffset":0,"componentType":5126,"count":1899,"max":[0.0518514439463615,0.150015726685524,0.0518454909324646],"min":[-0.05194914340973,-0.00160866824444,-0.0518383346498],"type":"VEC3"},{"bufferView":15,"byteOffset":0,"componentType":5126,"count":1899,"type":"VEC3"},{"bufferView":16,"byteOffset":0,"componentType":5126,"count":1899,"type":"VEC4"},{"bufferView":17,"byteOffset":0,"componentType":5126,"count":1899,"type":"VEC2"},{"bufferView":18,"byteOffset":0,"componentType":5126,"count":1899,"type":"VEC2"},{"bufferView":19,"byteOffset":0,"componentType":5123,"count":4497,"type":"SCALAR"},{"bufferView":20,"byteOffset":0,"componentType":5126,"count":979,"max":[0.0519389845430851,0.150413408875465,0.0514079406857491],"min":[-0.05249789729714,-0.00198989734054,-0.05170844495296],"type":"VEC3"},{"bufferView":21,"byteOffset":0,"componentType":5126,"count":979,"type":"VEC3"},{"bufferView":22,"byteOffset":0,"componentType":5126,"count":979,"type":"VEC4"},{"bufferView":23,"byteOffset":0,"componentType":5126,"count":979,"type":"VEC2"},{"bufferView":24,"byteOffset":0,"componentType":5126,"count":979,"type":"VEC2"},{"bufferView":25,"byteOffset":0,"componentType":5123,"count":84,"type":"SCALAR"},{"bufferView":26,"byteOffset":0,"componentType":5126,"count":80,"max":[0.0496215410530567,0.148065343499184,0.0499215684831142],"min":[-0.05109292268753,0.00037602786323986,-0.05025864392519],"type":"VEC3"},{"bufferView":27,"byteOffset":0,"componentType":5126,"count":80,"type":"VEC3"},{"bufferView":28,"byteOffset":0,"componentType":5126,"count":80,"type":"VEC2"},{"bufferView":29,"byteOffset":0,"componentType":5126,"count":80,"type":"VEC2"}],"animations":[{"channels":[],"name":"Unreal Take","samplers":[]}],"asset":{"generator":"FBX2glTF v0.13.0","version":"2.0"},"bufferViews":[{"buffer":0,"byteLength":4,"byteOffset":0},{"buffer":0,"byteLength":36000,"byteOffset":4,"target":34963},{"buffer":0,"byteLength":42072,"byteOffset":36004,"target":34962},{"buffer":0,"byteLength":42072,"byteOffset":78076,"target":34962},{"buffer":0,"byteLength":56096,"byteOffset":120148,"target":34962},{"buffer":0,"byteLength":28048,"byteOffset":176244,"target":34962},{"buffer":0,"byteLength":28048,"byteOffset":204292,"target":34962},{"buffer":0,"byteLength":26994,"byteOffset":232340,"target":34963},{"buffer":0,"byteLength":32736,"byteOffset":259336,"target":34962},{"buffer":0,"byteLength":32736,"byteOffset":292072,"target":34962},{"buffer":0,"byteLength":43648,"byteOffset":324808,"target":34962},{"buffer":0,"byteLength":21824,"byteOffset":368456,"target":34962},{"buffer":0,"byteLength":21824,"byteOffset":390280,"target":34962},{"buffer":0,"byteLength":17994,"byteOffset":412104,"target":34963},{"buffer":0,"byteLength":22788,"byteOffset":430100,"target":34962},{"buffer":0,"byteLength":22788,"byteOffset":452888,"target":34962},{"buffer":0,"byteLength":30384,"byteOffset":475676,"target":34962},{"buffer":0,"byteLength":15192,"byteOffset":506060,"target":34962},{"buffer":0,"byteLength":15192,"byteOffset":521252,"target":34962},{"buffer":0,"byteLength":8994,"byteOffset":536444,"target":34963},{"buffer":0,"byteLength":11748,"byteOffset":545440,"target":34962},{"buffer":0,"byteLength":11748,"byteOffset":557188,"target":34962},{"buffer":0,"byteLength":15664,"byteOffset":568936,"target":34962},{"buffer":0,"byteLength":7832,"byteOffset":584600,"target":34962},{"buffer":0,"byteLength":7832,"byteOffset":592432,"target":34962},{"buffer":0,"byteLength":168,"byteOffset":600264,"target":34963},{"buffer":0,"byteLength":960,"byteOffset":600432,"target":34962},{"buffer":0,"byteLength":960,"byteOffset":601392,"target":34962},{"buffer":0,"byteLength":640,"byteOffset":602352,"target":34962},{"buffer":0,"byteLength":640,"byteOffset":602992,"target":34962}],"buffers":[{"byteLength":603632,"uri":"SM_FoodCan07.bin"}],"images":[{"name":"FlatNormal","uri":"FlatNormal.tga"}],"materials":[{"alphaMode":"OPAQUE","doubleSided":false,"extras":{"fromFBX":{"isTruePBR":false,"shadingModel":"Phong"}},"name":"MI_Canned_Foods","normalTexture":{"index":0,"texCoord":0},"pbrMetallicRoughness":{"baseColorFactor":[0.21586050093174,0.21586050093174,0.21586050093174,1],"metallicFactor":0.400000005960464,"roughnessFactor":0.301511347293854}},{"alphaMode":"OPAQUE","doubleSided":false,"extras":{"fromFBX":{"isTruePBR":false,"shadingModel":"Lambert"}},"name":"DefaultMaterial","pbrMetallicRoughness":{"baseColorFactor":[0.5,0.5,0.5,1],"metallicFactor":0.200000002980232,"roughnessFactor":0.800000011920929}}],"meshes":[{"name":"SM_FoodCan07_LOD0","primitives":[{"attributes":{"NORMAL":3,"POSITION":2,"TANGENT":4,"TEXCOORD_0":5,"TEXCOORD_1":6},"indices":1,"material":0,"mode":4}]},{"name":"SM_FoodCan07_LOD1","primitives":[{"attributes":{"NORMAL":9,"POSITION":8,"TANGENT":10,"TEXCOORD_0":11,"TEXCOORD_1":12},"indices":7,"material":0,"mode":4}]},{"name":"SM_FoodCan07_LOD2","primitives":[{"attributes":{"NORMAL":15,"POSITION":14,"TANGENT":16,"TEXCOORD_0":17,"TEXCOORD_1":18},"indices":13,"material":0,"mode":4}]},{"name":"SM_FoodCan07_LOD3","primitives":[{"attributes":{"NORMAL":21,"POSITION":20,"TANGENT":22,"TEXCOORD_0":23,"TEXCOORD_1":24},"indices":19,"material":0,"mode":4}]},{"name":"SM_FoodCan07_ConvexHulls","primitives":[{"attributes":{"NORMAL":27,"POSITION":26,"TEXCOORD_0":28,"TEXCOORD_1":29},"indices":25,"material":1,"mode":4}]}],"nodes":[{"children":[1,2,3,4,5],"name":"SM_FoodCan12_61","originalUnits":0.00999999977648258,"pivot":[0,0,0],"rotation":[0,0,0,1],"scale":[1,1,1],"translation":[0,0,0]},{"mesh":0,"name":"SM_FoodCan07_LOD0","originalUnits":0.00999999977648258,"pivot":[0,0,0],"rotation":[0,0,0,1],"scale":[1,1,1],"translation":[0,0,0]},{"mesh":4,"name":"SM_FoodCan07_ConvexHulls","originalUnits":0.00999999977648258,"pivot":[0,0,0],"rotation":[0,0,0,1],"scale":[1,1,1],"translation":[0,0,0]},{"mesh":1,"name":"SM_FoodCan07_LOD1","originalUnits":0.00999999977648258,"pivot":[0,0,0],"rotation":[0,0,0,1],"scale":[1,1,1],"translation":[0,0,0]},{"mesh":2,"name":"SM_FoodCan07_LOD2","originalUnits":0.00999999977648258,"pivot":[0,0,0],"rotation":[0,0,0,1],"scale":[1,1,1],"translation":[0,0,0]},{"mesh":3,"name":"SM_FoodCan07_LOD3","originalUnits":0.00999999977648258,"pivot":[0,0,0],"rotation":[0,0,0,1],"scale":[1,1,1],"translation":[0,0,0]}],"samplers":[{}],"scene":0,"scenes":[{"name":"Root Scene","nodes":[0]}],"textures":[{"name":"T_Default_N","sampler":0,"source":0}]}