{"accessors":[{"bufferView":0,"byteOffset":0,"componentType":5126,"count":1,"max":[0],"min":[0],"type":"SCALAR"},{"bufferView":1,"byteOffset":0,"componentType":5123,"count":18000,"type":"SCALAR"},{"bufferView":2,"byteOffset":0,"componentType":5126,"count":3506,"max":[0.0516616255044937,0.149982824921608,0.0516618750989437],"min":[-0.05166162922978,-0.00157132116146,-0.0516617372632],"type":"VEC3"},{"bufferView":3,"byteOffset":0,"componentType":5126,"count":3506,"type":"VEC3"},{"bufferView":4,"byteOffset":0,"componentType":5126,"count":3506,"type":"VEC4"},{"bufferView":5,"byteOffset":0,"componentType":5126,"count":3506,"type":"VEC2"},{"bufferView":6,"byteOffset":0,"componentType":5126,"count":3506,"type":"VEC2"},{"bufferView":7,"byteOffset":0,"componentType":5123,"count":13500,"type":"SCALAR"},{"bufferView":8,"byteOffset":0,"componentType":5126,"count":2732,"max":[0.0516616255044937,0.149982824921608,0.0517584010958672],"min":[-0.05172739923,-0.00157132116146,-0.05175817385316],"type":"VEC3"},{"bufferView":9,"byteOffset":0,"componentType":5126,"count":2732,"type":"VEC3"},{"bufferView":10,"byteOffset":0,"componentType":5126,"count":2732,"type":"VEC4"},{"bufferView":11,"byteOffset":0,"componentType":5126,"count":2732,"type":"VEC2"},{"bufferView":12,"byteOffset":0,"componentType":5126,"count":2732,"type":"VEC2"},{"bufferView":13,"byteOffset":0,"componentType":5123,"count":8997,"type":"SCALAR"},{"bufferView":14,"byteOffset":0,"componentType":5126,"count":1900,"max":[0.0516616255044937,0.150005027651787,0.0517584010958672],"min":[-0.05199763178825,-0.00160992413294,-0.05175817385316],"type":"VEC3"},{"bufferView":15,"byteOffset":0,"componentType":5126,"count":1900,"type":"VEC3"},{"bufferView":16,"byteOffset":0,"componentType":5126,"count":1900,"type":"VEC4"},{"bufferView":17,"byteOffset":0,"componentType":5126,"count":1900,"type":"VEC2"},{"bufferView":18,"byteOffset":0,"componentType":5126,"count":1900,"type":"VEC2"},{"bufferView":19,"byteOffset":0,"componentType":5123,"count":4497,"type":"SCALAR"},{"bufferView":20,"byteOffset":0,"componentType":5126,"count":974,"max":[0.0531137995421886,0.150378704071045,0.0524797961115837],"min":[-0.05199763178825,-0.00194045400713,-0.05209589749575],"type":"VEC3"},{"bufferView":21,"byteOffset":0,"componentType":5126,"count":974,"type":"VEC3"},{"bufferView":22,"byteOffset":0,"componentType":5126,"count":974,"type":"VEC4"},{"bufferView":23,"byteOffset":0,"componentType":5126,"count":974,"type":"VEC2"},{"bufferView":24,"byteOffset":0,"componentType":5126,"count":974,"type":"VEC2"},{"bufferView":25,"byteOffset":0,"componentType":5123,"count":84,"type":"SCALAR"},{"bufferView":26,"byteOffset":0,"componentType":5126,"count":82,"max":[0.0504049062728882,0.148010805249214,0.0508522726595402],"min":[-0.05152088403702,0.00034509188844822,-0.05070012435317],"type":"VEC3"},{"bufferView":27,"byteOffset":0,"componentType":5126,"count":82,"type":"VEC3"},{"bufferView":28,"byteOffset":0,"componentType":5126,"count":82,"type":"VEC2"},{"bufferView":29,"byteOffset":0,"componentType":5126,"count":82,"type":"VEC2"}],"animations":[{"channels":[],"name":"Unreal Take","samplers":[]}],"asset":{"generator":"FBX2glTF v0.13.0","version":"2.0"},"bufferViews":[{"buffer":0,"byteLength":4,"byteOffset":0},{"buffer":0,"byteLength":36000,"byteOffset":4,"target":34963},{"buffer":0,"byteLength":42072,"byteOffset":36004,"target":34962},{"buffer":0,"byteLength":42072,"byteOffset":78076,"target":34962},{"buffer":0,"byteLength":56096,"byteOffset":120148,"target":34962},{"buffer":0,"byteLength":28048,"byteOffset":176244,"target":34962},{"buffer":0,"byteLength":28048,"byteOffset":204292,"target":34962},{"buffer":0,"byteLength":27000,"byteOffset":232340,"target":34963},{"buffer":0,"byteLength":32784,"byteOffset":259340,"target":34962},{"buffer":0,"byteLength":32784,"byteOffset":292124,"target":34962},{"buffer":0,"byteLength":43712,"byteOffset":324908,"target":34962},{"buffer":0,"byteLength":21856,"byteOffset":368620,"target":34962},{"buffer":0,"byteLength":21856,"byteOffset":390476,"target":34962},{"buffer":0,"byteLength":17994,"byteOffset":412332,"target":34963},{"buffer":0,"byteLength":22800,"byteOffset":430328,"target":34962},{"buffer":0,"byteLength":22800,"byteOffset":453128,"target":34962},{"buffer":0,"byteLength":30400,"byteOffset":475928,"target":34962},{"buffer":0,"byteLength":15200,"byteOffset":506328,"target":34962},{"buffer":0,"byteLength":15200,"byteOffset":521528,"target":34962},{"buffer":0,"byteLength":8994,"byteOffset":536728,"target":34963},{"buffer":0,"byteLength":11688,"byteOffset":545724,"target":34962},{"buffer":0,"byteLength":11688,"byteOffset":557412,"target":34962},{"buffer":0,"byteLength":15584,"byteOffset":569100,"target":34962},{"buffer":0,"byteLength":7792,"byteOffset":584684,"target":34962},{"buffer":0,"byteLength":7792,"byteOffset":592476,"target":34962},{"buffer":0,"byteLength":168,"byteOffset":600268,"target":34963},{"buffer":0,"byteLength":984,"byteOffset":600436,"target":34962},{"buffer":0,"byteLength":984,"byteOffset":601420,"target":34962},{"buffer":0,"byteLength":656,"byteOffset":602404,"target":34962},{"buffer":0,"byteLength":656,"byteOffset":603060,"target":34962}],"buffers":[{"byteLength":603716,"uri":"SM_FoodCan08.bin"}],"images":[{"name":"FlatNormal","uri":"FlatNormal.tga"}],"materials":[{"alphaMode":"OPAQUE","doubleSided":false,"extras":{"fromFBX":{"isTruePBR":false,"shadingModel":"Phong"}},"name":"MI_Canned_Foods","normalTexture":{"index":0,"texCoord":0},"pbrMetallicRoughness":{"baseColorFactor":[0.21586050093174,0.21586050093174,0.21586050093174,1],"metallicFactor":0.400000005960464,"roughnessFactor":0.301511347293854}},{"alphaMode":"OPAQUE","doubleSided":false,"extras":{"fromFBX":{"isTruePBR":false,"shadingModel":"Lambert"}},"name":"DefaultMaterial","pbrMetallicRoughness":{"baseColorFactor":[0.5,0.5,0.5,1],"metallicFactor":0.200000002980232,"roughnessFactor":0.800000011920929}}],"meshes":[{"name":"SM_FoodCan08_LOD0","primitives":[{"attributes":{"NORMAL":3,"POSITION":2,"TANGENT":4,"TEXCOORD_0":5,"TEXCOORD_1":6},"indices":1,"material":0,"mode":4}]},{"name":"SM_FoodCan08_LOD1","primitives":[{"attributes":{"NORMAL":9,"POSITION":8,"TANGENT":10,"TEXCOORD_0":11,"TEXCOORD_1":12},"indices":7,"material":0,"mode":4}]},{"name":"SM_FoodCan08_LOD2","primitives":[{"attributes":{"NORMAL":15,"POSITION":14,"TANGENT":16,"TEXCOORD_0":17,"TEXCOORD_1":18},"indices":13,"material":0,"mode":4}]},{"name":"SM_FoodCan08_LOD3","primitives":[{"attributes":{"NORMAL":21,"POSITION":20,"TANGENT":22,"TEXCOORD_0":23,"TEXCOORD_1":24},"indices":19,"material":0,"mode":4}]},{"name":"SM_FoodCan08_ConvexHulls","primitives":[{"attributes":{"NORMAL":27,"POSITION":26,"TEXCOORD_0":28,"TEXCOORD_1":29},"indices":25,"material":1,"mode":4}]}],"nodes":[{"children":[1,2,3,4,5],"name":"SM_FoodCan26","originalUnits":0.00999999977648258,"pivot":[0,0,0],"rotation":[0,0,0,1],"scale":[1,1,1],"translation":[0,0,0]},{"mesh":0,"name":"SM_FoodCan08_LOD0","originalUnits":0.00999999977648258,"pivot":[0,0,0],"rotation":[0,0,0,1],"scale":[1,1,1],"translation":[0,0,0]},{"mesh":4,"name":"SM_FoodCan08_ConvexHulls","originalUnits":0.00999999977648258,"pivot":[0,0,0],"rotation":[0,0,0,1],"scale":[1,1,1],"translation":[0,0,0]},{"mesh":1,"name":"SM_FoodCan08_LOD1","originalUnits":0.00999999977648258,"pivot":[0,0,0],"rotation":[0,0,0,1],"scale":[1,1,1],"translation":[0,0,0]},{"mesh":2,"name":"SM_FoodCan08_LOD2","originalUnits":0.00999999977648258,"pivot":[0,0,0],"rotation":[0,0,0,1],"scale":[1,1,1],"translation":[0,0,0]},{"mesh":3,"name":"SM_FoodCan08_LOD3","originalUnits":0.00999999977648258,"pivot":[0,0,0],"rotation":[0,0,0,1],"scale":[1,1,1],"translation":[0,0,0]}],"samplers":[{}],"scene":0,"scenes":[{"name":"Root Scene","nodes":[0]}],"textures":[{"name":"T_Default_N","sampler":0,"source":0}]}