{"accessors":[{"bufferView":0,"byteOffset":0,"componentType":5126,"count":1,"max":[0],"min":[0],"type":"SCALAR"},{"bufferView":1,"byteOffset":0,"componentType":5123,"count":18000,"type":"SCALAR"},{"bufferView":2,"byteOffset":0,"componentType":5126,"count":3506,"max":[0.0516654513776302,0.149982824921608,0.0516658835113049],"min":[-0.0516653843224,-0.00157132116146,-0.05166572332382],"type":"VEC3"},{"bufferView":3,"byteOffset":0,"componentType":5126,"count":3506,"type":"VEC3"},{"bufferView":4,"byteOffset":0,"componentType":5126,"count":3506,"type":"VEC4"},{"bufferView":5,"byteOffset":0,"componentType":5126,"count":3506,"type":"VEC2"},{"bufferView":6,"byteOffset":0,"componentType":5126,"count":3506,"type":"VEC2"},{"bufferView":7,"byteOffset":0,"componentType":5123,"count":13497,"type":"SCALAR"},{"bufferView":8,"byteOffset":0,"componentType":5126,"count":2732,"max":[0.051716722548008,0.149982824921608,0.0516658835113049],"min":[-0.0516653843224,-0.00157132116146,-0.05166572332382],"type":"VEC3"},{"bufferView":9,"byteOffset":0,"componentType":5126,"count":2732,"type":"VEC3"},{"bufferView":10,"byteOffset":0,"componentType":5126,"count":2732,"type":"VEC4"},{"bufferView":11,"byteOffset":0,"componentType":5126,"count":2732,"type":"VEC2"},{"bufferView":12,"byteOffset":0,"componentType":5126,"count":2732,"type":"VEC2"},{"bufferView":13,"byteOffset":0,"componentType":5123,"count":9000,"type":"SCALAR"},{"bufferView":14,"byteOffset":0,"componentType":5126,"count":1899,"max":[0.051716722548008,0.150012642145157,0.0517322607338428],"min":[-0.05170572176576,-0.00160160241649,-0.05179728940129],"type":"VEC3"},{"bufferView":15,"byteOffset":0,"componentType":5126,"count":1899,"type":"VEC3"},{"bufferView":16,"byteOffset":0,"componentType":5126,"count":1899,"type":"VEC4"},{"bufferView":17,"byteOffset":0,"componentType":5126,"count":1899,"type":"VEC2"},{"bufferView":18,"byteOffset":0,"componentType":5126,"count":1899,"type":"VEC2"},{"bufferView":19,"byteOffset":0,"componentType":5123,"count":4497,"type":"SCALAR"},{"bufferView":20,"byteOffset":0,"componentType":5126,"count":980,"max":[0.0515019707381725,0.150381967425346,0.0524292401969433],"min":[-0.05170572176576,-0.00197524391115,-0.05265108123422],"type":"VEC3"},{"bufferView":21,"byteOffset":0,"componentType":5126,"count":980,"type":"VEC3"},{"bufferView":22,"byteOffset":0,"componentType":5126,"count":980,"type":"VEC4"},{"bufferView":23,"byteOffset":0,"componentType":5126,"count":980,"type":"VEC2"},{"bufferView":24,"byteOffset":0,"componentType":5126,"count":980,"type":"VEC2"},{"bufferView":25,"byteOffset":0,"componentType":5123,"count":84,"type":"SCALAR"},{"bufferView":26,"byteOffset":0,"componentType":5126,"count":78,"max":[0.0509608685970306,0.148127838969231,0.0513083972036839],"min":[-0.0509449057281,0.00013181453687138,-0.05025933682919],"type":"VEC3"},{"bufferView":27,"byteOffset":0,"componentType":5126,"count":78,"type":"VEC3"},{"bufferView":28,"byteOffset":0,"componentType":5126,"count":78,"type":"VEC2"},{"bufferView":29,"byteOffset":0,"componentType":5126,"count":78,"type":"VEC2"}],"animations":[{"channels":[],"name":"Unreal Take","samplers":[]}],"asset":{"generator":"FBX2glTF v0.13.0","version":"2.0"},"bufferViews":[{"buffer":0,"byteLength":4,"byteOffset":0},{"buffer":0,"byteLength":36000,"byteOffset":4,"target":34963},{"buffer":0,"byteLength":42072,"byteOffset":36004,"target":34962},{"buffer":0,"byteLength":42072,"byteOffset":78076,"target":34962},{"buffer":0,"byteLength":56096,"byteOffset":120148,"target":34962},{"buffer":0,"byteLength":28048,"byteOffset":176244,"target":34962},{"buffer":0,"byteLength":28048,"byteOffset":204292,"target":34962},{"buffer":0,"byteLength":26994,"byteOffset":232340,"target":34963},{"buffer":0,"byteLength":32784,"byteOffset":259336,"target":34962},{"buffer":0,"byteLength":32784,"byteOffset":292120,"target":34962},{"buffer":0,"byteLength":43712,"byteOffset":324904,"target":34962},{"buffer":0,"byteLength":21856,"byteOffset":368616,"target":34962},{"buffer":0,"byteLength":21856,"byteOffset":390472,"target":34962},{"buffer":0,"byteLength":18000,"byteOffset":412328,"target":34963},{"buffer":0,"byteLength":22788,"byteOffset":430328,"target":34962},{"buffer":0,"byteLength":22788,"byteOffset":453116,"target":34962},{"buffer":0,"byteLength":30384,"byteOffset":475904,"target":34962},{"buffer":0,"byteLength":15192,"byteOffset":506288,"target":34962},{"buffer":0,"byteLength":15192,"byteOffset":521480,"target":34962},{"buffer":0,"byteLength":8994,"byteOffset":536672,"target":34963},{"buffer":0,"byteLength":11760,"byteOffset":545668,"target":34962},{"buffer":0,"byteLength":11760,"byteOffset":557428,"target":34962},{"buffer":0,"byteLength":15680,"byteOffset":569188,"target":34962},{"buffer":0,"byteLength":7840,"byteOffset":584868,"target":34962},{"buffer":0,"byteLength":7840,"byteOffset":592708,"target":34962},{"buffer":0,"byteLength":168,"byteOffset":600548,"target":34963},{"buffer":0,"byteLength":936,"byteOffset":600716,"target":34962},{"buffer":0,"byteLength":936,"byteOffset":601652,"target":34962},{"buffer":0,"byteLength":624,"byteOffset":602588,"target":34962},{"buffer":0,"byteLength":624,"byteOffset":603212,"target":34962}],"buffers":[{"byteLength":603836,"uri":"SM_FoodCan02.bin"}],"images":[{"name":"FlatNormal","uri":"FlatNormal.tga"}],"materials":[{"alphaMode":"OPAQUE","doubleSided":false,"extras":{"fromFBX":{"isTruePBR":false,"shadingModel":"Phong"}},"name":"MI_Canned_Foods","normalTexture":{"index":0,"texCoord":0},"pbrMetallicRoughness":{"baseColorFactor":[0.21586050093174,0.21586050093174,0.21586050093174,1],"metallicFactor":0.400000005960464,"roughnessFactor":0.301511347293854}},{"alphaMode":"OPAQUE","doubleSided":false,"extras":{"fromFBX":{"isTruePBR":false,"shadingModel":"Lambert"}},"name":"DefaultMaterial","pbrMetallicRoughness":{"baseColorFactor":[0.5,0.5,0.5,1],"metallicFactor":0.200000002980232,"roughnessFactor":0.800000011920929}}],"meshes":[{"name":"SM_FoodCan02_LOD0","primitives":[{"attributes":{"NORMAL":3,"POSITION":2,"TANGENT":4,"TEXCOORD_0":5,"TEXCOORD_1":6},"indices":1,"material":0,"mode":4}]},{"name":"SM_FoodCan02_LOD1","primitives":[{"attributes":{"NORMAL":9,"POSITION":8,"TANGENT":10,"TEXCOORD_0":11,"TEXCOORD_1":12},"indices":7,"material":0,"mode":4}]},{"name":"SM_FoodCan02_LOD2","primitives":[{"attributes":{"NORMAL":15,"POSITION":14,"TANGENT":16,"TEXCOORD_0":17,"TEXCOORD_1":18},"indices":13,"material":0,"mode":4}]},{"name":"SM_FoodCan02_LOD3","primitives":[{"attributes":{"NORMAL":21,"POSITION":20,"TANGENT":22,"TEXCOORD_0":23,"TEXCOORD_1":24},"indices":19,"material":0,"mode":4}]},{"name":"SM_FoodCan02_ConvexHulls","primitives":[{"attributes":{"NORMAL":27,"POSITION":26,"TEXCOORD_0":28,"TEXCOORD_1":29},"indices":25,"material":1,"mode":4}]}],"nodes":[{"children":[1,2,3,4,5],"name":"SM_FoodCan10_59","originalUnits":0.00999999977648258,"pivot":[0,0,0],"rotation":[0,0,0,1],"scale":[1,1,1],"translation":[0,0,0]},{"mesh":0,"name":"SM_FoodCan02_LOD0","originalUnits":0.00999999977648258,"pivot":[0,0,0],"rotation":[0,0,0,1],"scale":[1,1,1],"translation":[0,0,0]},{"mesh":4,"name":"SM_FoodCan02_ConvexHulls","originalUnits":0.00999999977648258,"pivot":[0,0,0],"rotation":[0,0,0,1],"scale":[1,1,1],"translation":[0,0,0]},{"mesh":1,"name":"SM_FoodCan02_LOD1","originalUnits":0.00999999977648258,"pivot":[0,0,0],"rotation":[0,0,0,1],"scale":[1,1,1],"translation":[0,0,0]},{"mesh":2,"name":"SM_FoodCan02_LOD2","originalUnits":0.00999999977648258,"pivot":[0,0,0],"rotation":[0,0,0,1],"scale":[1,1,1],"translation":[0,0,0]},{"mesh":3,"name":"SM_FoodCan02_LOD3","originalUnits":0.00999999977648258,"pivot":[0,0,0],"rotation":[0,0,0,1],"scale":[1,1,1],"translation":[0,0,0]}],"samplers":[{}],"scene":0,"scenes":[{"name":"Root Scene","nodes":[0]}],"textures":[{"name":"T_Default_N","sampler":0,"source":0}]}