{"accessors":[{"bufferView":0,"byteOffset":0,"componentType":5126,"count":1,"max":[0],"min":[0],"type":"SCALAR"},{"bufferView":1,"byteOffset":0,"componentType":5123,"count":3870,"type":"SCALAR"},{"bufferView":2,"byteOffset":0,"componentType":5126,"count":958,"max":[0.139078810811043,0.221488878130913,0.139841288328171],"min":[-0.13907885551453,0.00417998107150197,-0.13984373211861],"type":"VEC3"},{"bufferView":3,"byteOffset":0,"componentType":5126,"count":958,"type":"VEC3"},{"bufferView":4,"byteOffset":0,"componentType":5126,"count":958,"type":"VEC4"},{"bufferView":5,"byteOffset":0,"componentType":5126,"count":958,"type":"VEC2"},{"bufferView":6,"byteOffset":0,"componentType":5126,"count":958,"type":"VEC2"},{"bufferView":7,"byteOffset":0,"componentType":5123,"count":2901,"type":"SCALAR"},{"bufferView":8,"byteOffset":0,"componentType":5126,"count":773,"max":[0.140467301011086,0.221488878130913,0.139841288328171],"min":[-0.14035332202911,0.00417998386546969,-0.13984373211861],"type":"VEC3"},{"bufferView":9,"byteOffset":0,"componentType":5126,"count":773,"type":"VEC3"},{"bufferView":10,"byteOffset":0,"componentType":5126,"count":773,"type":"VEC4"},{"bufferView":11,"byteOffset":0,"componentType":5126,"count":773,"type":"VEC2"},{"bufferView":12,"byteOffset":0,"componentType":5126,"count":773,"type":"VEC2"},{"bufferView":13,"byteOffset":0,"componentType":5123,"count":1932,"type":"SCALAR"},{"bufferView":14,"byteOffset":0,"componentType":5126,"count":526,"max":[0.140550717711449,0.221659675240517,0.139841288328171],"min":[-0.14008015394211,0.00417998386546969,-0.13978742063045],"type":"VEC3"},{"bufferView":15,"byteOffset":0,"componentType":5126,"count":526,"type":"VEC3"},{"bufferView":16,"byteOffset":0,"componentType":5126,"count":526,"type":"VEC4"},{"bufferView":17,"byteOffset":0,"componentType":5126,"count":526,"type":"VEC2"},{"bufferView":18,"byteOffset":0,"componentType":5126,"count":526,"type":"VEC2"},{"bufferView":19,"byteOffset":0,"componentType":5123,"count":966,"type":"SCALAR"},{"bufferView":20,"byteOffset":0,"componentType":5126,"count":297,"max":[0.145124286413193,0.221845641732216,0.140548393130302],"min":[-0.1404142677784,0.00412170728668571,-0.13895358145237],"type":"VEC3"},{"bufferView":21,"byteOffset":0,"componentType":5126,"count":297,"type":"VEC3"},{"bufferView":22,"byteOffset":0,"componentType":5126,"count":297,"type":"VEC4"},{"bufferView":23,"byteOffset":0,"componentType":5126,"count":297,"type":"VEC2"},{"bufferView":24,"byteOffset":0,"componentType":5126,"count":297,"type":"VEC2"},{"bufferView":25,"byteOffset":0,"componentType":5123,"count":294,"type":"SCALAR"},{"bufferView":26,"byteOffset":0,"componentType":5126,"count":280,"max":[0.131409257650375,0.221488878130913,0.138258054852486],"min":[-0.13866831362248,0.00141476327553391,-0.13823409378529],"type":"VEC3"},{"bufferView":27,"byteOffset":0,"componentType":5126,"count":280,"type":"VEC3"},{"bufferView":28,"byteOffset":0,"componentType":5126,"count":280,"type":"VEC2"},{"bufferView":29,"byteOffset":0,"componentType":5126,"count":280,"type":"VEC2"}],"animations":[{"channels":[],"name":"Unreal Take","samplers":[]}],"asset":{"generator":"FBX2glTF v0.13.0","version":"2.0"},"bufferViews":[{"buffer":0,"byteLength":4,"byteOffset":0},{"buffer":0,"byteLength":7740,"byteOffset":4,"target":34963},{"buffer":0,"byteLength":11496,"byteOffset":7744,"target":34962},{"buffer":0,"byteLength":11496,"byteOffset":19240,"target":34962},{"buffer":0,"byteLength":15328,"byteOffset":30736,"target":34962},{"buffer":0,"byteLength":7664,"byteOffset":46064,"target":34962},{"buffer":0,"byteLength":7664,"byteOffset":53728,"target":34962},{"buffer":0,"byteLength":5802,"byteOffset":61392,"target":34963},{"buffer":0,"byteLength":9276,"byteOffset":67196,"target":34962},{"buffer":0,"byteLength":9276,"byteOffset":76472,"target":34962},{"buffer":0,"byteLength":12368,"byteOffset":85748,"target":34962},{"buffer":0,"byteLength":6184,"byteOffset":98116,"target":34962},{"buffer":0,"byteLength":6184,"byteOffset":104300,"target":34962},{"buffer":0,"byteLength":3864,"byteOffset":110484,"target":34963},{"buffer":0,"byteLength":6312,"byteOffset":114348,"target":34962},{"buffer":0,"byteLength":6312,"byteOffset":120660,"target":34962},{"buffer":0,"byteLength":8416,"byteOffset":126972,"target":34962},{"buffer":0,"byteLength":4208,"byteOffset":135388,"target":34962},{"buffer":0,"byteLength":4208,"byteOffset":139596,"target":34962},{"buffer":0,"byteLength":1932,"byteOffset":143804,"target":34963},{"buffer":0,"byteLength":3564,"byteOffset":145736,"target":34962},{"buffer":0,"byteLength":3564,"byteOffset":149300,"target":34962},{"buffer":0,"byteLength":4752,"byteOffset":152864,"target":34962},{"buffer":0,"byteLength":2376,"byteOffset":157616,"target":34962},{"buffer":0,"byteLength":2376,"byteOffset":159992,"target":34962},{"buffer":0,"byteLength":588,"byteOffset":162368,"target":34963},{"buffer":0,"byteLength":3360,"byteOffset":162956,"target":34962},{"buffer":0,"byteLength":3360,"byteOffset":166316,"target":34962},{"buffer":0,"byteLength":2240,"byteOffset":169676,"target":34962},{"buffer":0,"byteLength":2240,"byteOffset":171916,"target":34962}],"buffers":[{"byteLength":174156,"uri":"SM_FlowerPot_02.bin"}],"images":[{"name":"T_FlowerPot_N","uri":"T_FlowerPot_N.tga"}],"materials":[{"alphaMode":"OPAQUE","doubleSided":false,"extras":{"fromFBX":{"isTruePBR":false,"shadingModel":"Phong"}},"name":"MI_FlowerPot","normalTexture":{"index":0,"texCoord":0},"pbrMetallicRoughness":{"baseColorFactor":[0.21586050093174,0.21586050093174,0.21586050093174,1],"metallicFactor":0.400000005960464,"roughnessFactor":0.301511347293854}},{"alphaMode":"OPAQUE","doubleSided":false,"extras":{"fromFBX":{"isTruePBR":false,"shadingModel":"Lambert"}},"name":"DefaultMaterial","pbrMetallicRoughness":{"baseColorFactor":[0.5,0.5,0.5,1],"metallicFactor":0.200000002980232,"roughnessFactor":0.800000011920929}}],"meshes":[{"name":"SM_FlowerPot_02_LOD0","primitives":[{"attributes":{"NORMAL":3,"POSITION":2,"TANGENT":4,"TEXCOORD_0":5,"TEXCOORD_1":6},"indices":1,"material":0,"mode":4}]},{"name":"SM_FlowerPot_02_LOD1","primitives":[{"attributes":{"NORMAL":9,"POSITION":8,"TANGENT":10,"TEXCOORD_0":11,"TEXCOORD_1":12},"indices":7,"material":0,"mode":4}]},{"name":"SM_FlowerPot_02_LOD2","primitives":[{"attributes":{"NORMAL":15,"POSITION":14,"TANGENT":16,"TEXCOORD_0":17,"TEXCOORD_1":18},"indices":13,"material":0,"mode":4}]},{"name":"SM_FlowerPot_02_LOD3","primitives":[{"attributes":{"NORMAL":21,"POSITION":20,"TANGENT":22,"TEXCOORD_0":23,"TEXCOORD_1":24},"indices":19,"material":0,"mode":4}]},{"name":"SM_FlowerPot_02_ConvexHulls","primitives":[{"attributes":{"NORMAL":27,"POSITION":26,"TEXCOORD_0":28,"TEXCOORD_1":29},"indices":25,"material":1,"mode":4}]}],"nodes":[{"children":[1,2,3,4,5],"name":"SM_FlowerPot_17","originalUnits":0.00999999977648258,"pivot":[0,0,0],"rotation":[0,0,0,1],"scale":[1,1,1],"translation":[0,0,0]},{"mesh":0,"name":"SM_FlowerPot_02_LOD0","originalUnits":0.00999999977648258,"pivot":[0,0,0],"rotation":[0,0,0,1],"scale":[1,1,1],"translation":[0,0,0]},{"mesh":4,"name":"SM_FlowerPot_02_ConvexHulls","originalUnits":0.00999999977648258,"pivot":[0,0,0],"rotation":[0,0,0,1],"scale":[1,1,1],"translation":[0,0,0]},{"mesh":1,"name":"SM_FlowerPot_02_LOD1","originalUnits":0.00999999977648258,"pivot":[0,0,0],"rotation":[0,0,0,1],"scale":[1,1,1],"translation":[0,0,0]},{"mesh":2,"name":"SM_FlowerPot_02_LOD2","originalUnits":0.00999999977648258,"pivot":[0,0,0],"rotation":[0,0,0,1],"scale":[1,1,1],"translation":[0,0,0]},{"mesh":3,"name":"SM_FlowerPot_02_LOD3","originalUnits":0.00999999977648258,"pivot":[0,0,0],"rotation":[0,0,0,1],"scale":[1,1,1],"translation":[0,0,0]}],"samplers":[{}],"scene":0,"scenes":[{"name":"Root Scene","nodes":[0]}],"textures":[{"name":"T_FlowerPot_N","sampler":0,"source":0}]}