{"accessors":[{"bufferView":0,"byteOffset":0,"componentType":5126,"count":1,"max":[0],"min":[0],"type":"SCALAR"},{"bufferView":1,"byteOffset":0,"componentType":5123,"count":14496,"type":"SCALAR"},{"bufferView":2,"byteOffset":0,"componentType":5126,"count":2930,"max":[0.133609056472778,0.0167593620717525,0.0178479794412851],"min":[-0.1336090862751,-0.00285910302773,-0.01784804277122],"type":"VEC3"},{"bufferView":3,"byteOffset":0,"componentType":5126,"count":2930,"type":"VEC3"},{"bufferView":4,"byteOffset":0,"componentType":5126,"count":2930,"type":"VEC4"},{"bufferView":5,"byteOffset":0,"componentType":5126,"count":2930,"type":"VEC2"},{"bufferView":6,"byteOffset":0,"componentType":5126,"count":2930,"type":"VEC2"},{"bufferView":7,"byteOffset":0,"componentType":5123,"count":10872,"type":"SCALAR"},{"bufferView":8,"byteOffset":0,"componentType":5126,"count":2325,"max":[0.133609056472778,0.0167593620717525,0.0178479794412851],"min":[-0.1336090862751,-0.00285909534432,-0.01784804277122],"type":"VEC3"},{"bufferView":9,"byteOffset":0,"componentType":5126,"count":2325,"type":"VEC3"},{"bufferView":10,"byteOffset":0,"componentType":5126,"count":2325,"type":"VEC4"},{"bufferView":11,"byteOffset":0,"componentType":5126,"count":2325,"type":"VEC2"},{"bufferView":12,"byteOffset":0,"componentType":5126,"count":2325,"type":"VEC2"},{"bufferView":13,"byteOffset":0,"componentType":5123,"count":7248,"type":"SCALAR"},{"bufferView":14,"byteOffset":0,"componentType":5126,"count":1687,"max":[0.133649781346321,0.0167593620717525,0.0178471878170967],"min":[-0.13364854454994,-0.00285933702253,-0.01784911751747],"type":"VEC3"},{"bufferView":15,"byteOffset":0,"componentType":5126,"count":1687,"type":"VEC3"},{"bufferView":16,"byteOffset":0,"componentType":5126,"count":1687,"type":"VEC4"},{"bufferView":17,"byteOffset":0,"componentType":5126,"count":1687,"type":"VEC2"},{"bufferView":18,"byteOffset":0,"componentType":5126,"count":1687,"type":"VEC2"},{"bufferView":19,"byteOffset":0,"componentType":5123,"count":3624,"type":"SCALAR"},{"bufferView":20,"byteOffset":0,"componentType":5126,"count":929,"max":[0.133614212274551,0.0167276635766029,0.0179000981152058],"min":[-0.13355192542076,-0.00295130512677,-0.01790346764028],"type":"VEC3"},{"bufferView":21,"byteOffset":0,"componentType":5126,"count":929,"type":"VEC3"},{"bufferView":22,"byteOffset":0,"componentType":5126,"count":929,"type":"VEC4"},{"bufferView":23,"byteOffset":0,"componentType":5126,"count":929,"type":"VEC2"},{"bufferView":24,"byteOffset":0,"componentType":5126,"count":929,"type":"VEC2"},{"bufferView":25,"byteOffset":0,"componentType":5123,"count":312,"type":"SCALAR"},{"bufferView":26,"byteOffset":0,"componentType":5126,"count":292,"max":[0.134130775928497,0.0170413851737976,0.0179141536355019],"min":[-0.13289521634579,-0.00356051744893,-0.01830894313753],"type":"VEC3"},{"bufferView":27,"byteOffset":0,"componentType":5126,"count":292,"type":"VEC3"},{"bufferView":28,"byteOffset":0,"componentType":5126,"count":292,"type":"VEC2"},{"bufferView":29,"byteOffset":0,"componentType":5126,"count":292,"type":"VEC2"}],"animations":[{"channels":[],"name":"Unreal Take","samplers":[]}],"asset":{"generator":"FBX2glTF v0.13.0","version":"2.0"},"bufferViews":[{"buffer":0,"byteLength":4,"byteOffset":0},{"buffer":0,"byteLength":28992,"byteOffset":4,"target":34963},{"buffer":0,"byteLength":35160,"byteOffset":28996,"target":34962},{"buffer":0,"byteLength":35160,"byteOffset":64156,"target":34962},{"buffer":0,"byteLength":46880,"byteOffset":99316,"target":34962},{"buffer":0,"byteLength":23440,"byteOffset":146196,"target":34962},{"buffer":0,"byteLength":23440,"byteOffset":169636,"target":34962},{"buffer":0,"byteLength":21744,"byteOffset":193076,"target":34963},{"buffer":0,"byteLength":27900,"byteOffset":214820,"target":34962},{"buffer":0,"byteLength":27900,"byteOffset":242720,"target":34962},{"buffer":0,"byteLength":37200,"byteOffset":270620,"target":34962},{"buffer":0,"byteLength":18600,"byteOffset":307820,"target":34962},{"buffer":0,"byteLength":18600,"byteOffset":326420,"target":34962},{"buffer":0,"byteLength":14496,"byteOffset":345020,"target":34963},{"buffer":0,"byteLength":20244,"byteOffset":359516,"target":34962},{"buffer":0,"byteLength":20244,"byteOffset":379760,"target":34962},{"buffer":0,"byteLength":26992,"byteOffset":400004,"target":34962},{"buffer":0,"byteLength":13496,"byteOffset":426996,"target":34962},{"buffer":0,"byteLength":13496,"byteOffset":440492,"target":34962},{"buffer":0,"byteLength":7248,"byteOffset":453988,"target":34963},{"buffer":0,"byteLength":11148,"byteOffset":461236,"target":34962},{"buffer":0,"byteLength":11148,"byteOffset":472384,"target":34962},{"buffer":0,"byteLength":14864,"byteOffset":483532,"target":34962},{"buffer":0,"byteLength":7432,"byteOffset":498396,"target":34962},{"buffer":0,"byteLength":7432,"byteOffset":505828,"target":34962},{"buffer":0,"byteLength":624,"byteOffset":513260,"target":34963},{"buffer":0,"byteLength":3504,"byteOffset":513884,"target":34962},{"buffer":0,"byteLength":3504,"byteOffset":517388,"target":34962},{"buffer":0,"byteLength":2336,"byteOffset":520892,"target":34962},{"buffer":0,"byteLength":2336,"byteOffset":523228,"target":34962}],"buffers":[{"byteLength":525564,"uri":"SM_Fork.bin"}],"materials":[{"alphaMode":"OPAQUE","doubleSided":false,"extras":{"fromFBX":{"isTruePBR":false,"shadingModel":"Phong"}},"name":"MM_Chrome","pbrMetallicRoughness":{"baseColorFactor":[0,0,0,1],"metallicFactor":0.400000005960464,"roughnessFactor":0.301511347293854}},{"alphaMode":"OPAQUE","doubleSided":false,"extras":{"fromFBX":{"isTruePBR":false,"shadingModel":"Lambert"}},"name":"DefaultMaterial","pbrMetallicRoughness":{"baseColorFactor":[0.5,0.5,0.5,1],"metallicFactor":0.200000002980232,"roughnessFactor":0.800000011920929}}],"meshes":[{"name":"SM_Fork_LOD0","primitives":[{"attributes":{"NORMAL":3,"POSITION":2,"TANGENT":4,"TEXCOORD_0":5,"TEXCOORD_1":6},"indices":1,"material":0,"mode":4}]},{"name":"SM_Fork_LOD1","primitives":[{"attributes":{"NORMAL":9,"POSITION":8,"TANGENT":10,"TEXCOORD_0":11,"TEXCOORD_1":12},"indices":7,"material":0,"mode":4}]},{"name":"SM_Fork_LOD2","primitives":[{"attributes":{"NORMAL":15,"POSITION":14,"TANGENT":16,"TEXCOORD_0":17,"TEXCOORD_1":18},"indices":13,"material":0,"mode":4}]},{"name":"SM_Fork_LOD3","primitives":[{"attributes":{"NORMAL":21,"POSITION":20,"TANGENT":22,"TEXCOORD_0":23,"TEXCOORD_1":24},"indices":19,"material":0,"mode":4}]},{"name":"SM_Fork_ConvexHulls","primitives":[{"attributes":{"NORMAL":27,"POSITION":26,"TEXCOORD_0":28,"TEXCOORD_1":29},"indices":25,"material":1,"mode":4}]}],"nodes":[{"children":[1,2,3,4,5],"name":"Kitchen_Props_B_Fork4_148","originalUnits":0.00999999977648258,"pivot":[0,0,0],"rotation":[0,0,0,1],"scale":[1,1,1],"translation":[0,0,0]},{"mesh":0,"name":"SM_Fork_LOD0","originalUnits":0.00999999977648258,"pivot":[0,0,0],"rotation":[0,0,0,1],"scale":[1,1,1],"translation":[0,0,0]},{"mesh":4,"name":"SM_Fork_ConvexHulls","originalUnits":0.00999999977648258,"pivot":[0,0,0],"rotation":[0,0,0,1],"scale":[1,1,1],"translation":[0,0,0]},{"mesh":1,"name":"SM_Fork_LOD1","originalUnits":0.00999999977648258,"pivot":[0,0,0],"rotation":[0,0,0,1],"scale":[1,1,1],"translation":[0,0,0]},{"mesh":2,"name":"SM_Fork_LOD2","originalUnits":0.00999999977648258,"pivot":[0,0,0],"rotation":[0,0,0,1],"scale":[1,1,1],"translation":[0,0,0]},{"mesh":3,"name":"SM_Fork_LOD3","originalUnits":0.00999999977648258,"pivot":[0,0,0],"rotation":[0,0,0,1],"scale":[1,1,1],"translation":[0,0,0]}],"samplers":[{}],"scene":0,"scenes":[{"name":"Root Scene","nodes":[0]}]}