{"accessors":[{"bufferView":0,"byteOffset":0,"componentType":5126,"count":1,"max":[0],"min":[0],"type":"SCALAR"},{"bufferView":1,"byteOffset":0,"componentType":5123,"count":270,"type":"SCALAR"},{"bufferView":2,"byteOffset":0,"componentType":5126,"count":116,"max":[0.169150799512863,0.372510105371475,0.0100055569782853],"min":[-0.16915085911751,-0.00000004877458,-0.01000555697829],"type":"VEC3"},{"bufferView":3,"byteOffset":0,"componentType":5126,"count":116,"type":"VEC3"},{"bufferView":4,"byteOffset":0,"componentType":5126,"count":116,"type":"VEC4"},{"bufferView":5,"byteOffset":0,"componentType":5126,"count":116,"type":"VEC2"},{"bufferView":6,"byteOffset":0,"componentType":5126,"count":116,"type":"VEC2"},{"bufferView":7,"byteOffset":0,"componentType":5123,"count":204,"type":"SCALAR"},{"bufferView":8,"byteOffset":0,"componentType":5126,"count":94,"max":[0.169178143143654,0.372536957263947,0.0101604415103793],"min":[-0.16916732490063,-0.00001818539386,-0.00827897340059],"type":"VEC3"},{"bufferView":9,"byteOffset":0,"componentType":5126,"count":94,"type":"VEC3"},{"bufferView":10,"byteOffset":0,"componentType":5126,"count":94,"type":"VEC4"},{"bufferView":11,"byteOffset":0,"componentType":5126,"count":94,"type":"VEC2"},{"bufferView":12,"byteOffset":0,"componentType":5126,"count":94,"type":"VEC2"},{"bufferView":13,"byteOffset":0,"componentType":5123,"count":132,"type":"SCALAR"},{"bufferView":14,"byteOffset":0,"componentType":5126,"count":70,"max":[0.169178143143654,0.372536957263947,0.0102619053795934],"min":[-0.1781395226717,-0.00001818539386,-0.00827805604786],"type":"VEC3"},{"bufferView":15,"byteOffset":0,"componentType":5126,"count":70,"type":"VEC3"},{"bufferView":16,"byteOffset":0,"componentType":5126,"count":70,"type":"VEC4"},{"bufferView":17,"byteOffset":0,"componentType":5126,"count":70,"type":"VEC2"},{"bufferView":18,"byteOffset":0,"componentType":5126,"count":70,"type":"VEC2"},{"bufferView":19,"byteOffset":0,"componentType":5123,"count":66,"type":"SCALAR"},{"bufferView":20,"byteOffset":0,"componentType":5126,"count":44,"max":[0.169178143143654,0.387811988592148,0.0103844469413161],"min":[-0.1781395226717,-0.00964675564319,-0.00827164854854],"type":"VEC3"},{"bufferView":21,"byteOffset":0,"componentType":5126,"count":44,"type":"VEC3"},{"bufferView":22,"byteOffset":0,"componentType":5126,"count":44,"type":"VEC4"},{"bufferView":23,"byteOffset":0,"componentType":5126,"count":44,"type":"VEC2"},{"bufferView":24,"byteOffset":0,"componentType":5126,"count":44,"type":"VEC2"},{"bufferView":25,"byteOffset":0,"componentType":5123,"count":246,"type":"SCALAR"},{"bufferView":26,"byteOffset":0,"componentType":5126,"count":216,"max":[0.17038631439209,0.37374359369278,0.0109638916328549],"min":[-0.1700431406498,-0.0012335262727,-0.01127429679036],"type":"VEC3"},{"bufferView":27,"byteOffset":0,"componentType":5126,"count":216,"type":"VEC3"},{"bufferView":28,"byteOffset":0,"componentType":5126,"count":216,"type":"VEC2"},{"bufferView":29,"byteOffset":0,"componentType":5126,"count":216,"type":"VEC2"}],"animations":[{"channels":[],"name":"Unreal Take","samplers":[]}],"asset":{"generator":"FBX2glTF v0.13.0","version":"2.0"},"bufferViews":[{"buffer":0,"byteLength":4,"byteOffset":0},{"buffer":0,"byteLength":540,"byteOffset":4,"target":34963},{"buffer":0,"byteLength":1392,"byteOffset":544,"target":34962},{"buffer":0,"byteLength":1392,"byteOffset":1936,"target":34962},{"buffer":0,"byteLength":1856,"byteOffset":3328,"target":34962},{"buffer":0,"byteLength":928,"byteOffset":5184,"target":34962},{"buffer":0,"byteLength":928,"byteOffset":6112,"target":34962},{"buffer":0,"byteLength":408,"byteOffset":7040,"target":34963},{"buffer":0,"byteLength":1128,"byteOffset":7448,"target":34962},{"buffer":0,"byteLength":1128,"byteOffset":8576,"target":34962},{"buffer":0,"byteLength":1504,"byteOffset":9704,"target":34962},{"buffer":0,"byteLength":752,"byteOffset":11208,"target":34962},{"buffer":0,"byteLength":752,"byteOffset":11960,"target":34962},{"buffer":0,"byteLength":264,"byteOffset":12712,"target":34963},{"buffer":0,"byteLength":840,"byteOffset":12976,"target":34962},{"buffer":0,"byteLength":840,"byteOffset":13816,"target":34962},{"buffer":0,"byteLength":1120,"byteOffset":14656,"target":34962},{"buffer":0,"byteLength":560,"byteOffset":15776,"target":34962},{"buffer":0,"byteLength":560,"byteOffset":16336,"target":34962},{"buffer":0,"byteLength":132,"byteOffset":16896,"target":34963},{"buffer":0,"byteLength":528,"byteOffset":17028,"target":34962},{"buffer":0,"byteLength":528,"byteOffset":17556,"target":34962},{"buffer":0,"byteLength":704,"byteOffset":18084,"target":34962},{"buffer":0,"byteLength":352,"byteOffset":18788,"target":34962},{"buffer":0,"byteLength":352,"byteOffset":19140,"target":34962},{"buffer":0,"byteLength":492,"byteOffset":19492,"target":34963},{"buffer":0,"byteLength":2592,"byteOffset":19984,"target":34962},{"buffer":0,"byteLength":2592,"byteOffset":22576,"target":34962},{"buffer":0,"byteLength":1728,"byteOffset":25168,"target":34962},{"buffer":0,"byteLength":1728,"byteOffset":26896,"target":34962}],"buffers":[{"byteLength":28624,"uri":"SM_Frames_05.bin"}],"images":[{"name":"T_Frames_N","uri":"T_Frames_N.tga"}],"materials":[{"alphaMode":"OPAQUE","doubleSided":false,"extras":{"fromFBX":{"isTruePBR":false,"shadingModel":"Phong"}},"name":"MI_Frame","normalTexture":{"index":0,"texCoord":0},"pbrMetallicRoughness":{"baseColorFactor":[0.21586050093174,0.21586050093174,0.21586050093174,1],"metallicFactor":0.400000005960464,"roughnessFactor":0.301511347293854}},{"alphaMode":"OPAQUE","doubleSided":false,"extras":{"fromFBX":{"isTruePBR":false,"shadingModel":"Lambert"}},"name":"DefaultMaterial","pbrMetallicRoughness":{"baseColorFactor":[0.5,0.5,0.5,1],"metallicFactor":0.200000002980232,"roughnessFactor":0.800000011920929}}],"meshes":[{"name":"SM_Frames_05_LOD0","primitives":[{"attributes":{"NORMAL":3,"POSITION":2,"TANGENT":4,"TEXCOORD_0":5,"TEXCOORD_1":6},"indices":1,"material":0,"mode":4}]},{"name":"SM_Frames_05_LOD1","primitives":[{"attributes":{"NORMAL":9,"POSITION":8,"TANGENT":10,"TEXCOORD_0":11,"TEXCOORD_1":12},"indices":7,"material":0,"mode":4}]},{"name":"SM_Frames_05_LOD2","primitives":[{"attributes":{"NORMAL":15,"POSITION":14,"TANGENT":16,"TEXCOORD_0":17,"TEXCOORD_1":18},"indices":13,"material":0,"mode":4}]},{"name":"SM_Frames_05_LOD3","primitives":[{"attributes":{"NORMAL":21,"POSITION":20,"TANGENT":22,"TEXCOORD_0":23,"TEXCOORD_1":24},"indices":19,"material":0,"mode":4}]},{"name":"SM_Frames_05_ConvexHulls","primitives":[{"attributes":{"NORMAL":27,"POSITION":26,"TEXCOORD_0":28,"TEXCOORD_1":29},"indices":25,"material":1,"mode":4}]}],"nodes":[{"children":[1,2,3,4,5],"name":"SM_Frames_7","originalUnits":0.00999999977648258,"pivot":[0,0,0],"rotation":[0,0,0,1],"scale":[1,1,1],"translation":[0,0,0]},{"mesh":0,"name":"SM_Frames_05_LOD0","originalUnits":0.00999999977648258,"pivot":[0,0,0],"rotation":[0,0,0,1],"scale":[1,1,1],"translation":[0,0,0]},{"mesh":4,"name":"SM_Frames_05_ConvexHulls","originalUnits":0.00999999977648258,"pivot":[0,0,0],"rotation":[0,0,0,1],"scale":[1,1,1],"translation":[0,0,0]},{"mesh":1,"name":"SM_Frames_05_LOD1","originalUnits":0.00999999977648258,"pivot":[0,0,0],"rotation":[0,0,0,1],"scale":[1,1,1],"translation":[0,0,0]},{"mesh":2,"name":"SM_Frames_05_LOD2","originalUnits":0.00999999977648258,"pivot":[0,0,0],"rotation":[0,0,0,1],"scale":[1,1,1],"translation":[0,0,0]},{"mesh":3,"name":"SM_Frames_05_LOD3","originalUnits":0.00999999977648258,"pivot":[0,0,0],"rotation":[0,0,0,1],"scale":[1,1,1],"translation":[0,0,0]}],"samplers":[{}],"scene":0,"scenes":[{"name":"Root Scene","nodes":[0]}],"textures":[{"name":"T_Frames_N","sampler":0,"source":0}]}