{"accessors":[{"bufferView":0,"byteOffset":0,"componentType":5126,"count":1,"max":[0],"min":[0],"type":"SCALAR"},{"bufferView":1,"byteOffset":0,"componentType":5123,"count":423,"type":"SCALAR"},{"bufferView":2,"byteOffset":0,"componentType":5126,"count":166,"max":[0.143848761916161,0.582443296909332,0.087654747068882],"min":[-0.10798022896051,-0.00714770425111,-0.11229731142521],"type":"VEC3"},{"bufferView":3,"byteOffset":0,"componentType":5126,"count":166,"type":"VEC3"},{"bufferView":4,"byteOffset":0,"componentType":5126,"count":166,"type":"VEC4"},{"bufferView":5,"byteOffset":0,"componentType":5126,"count":166,"type":"VEC2"},{"bufferView":6,"byteOffset":0,"componentType":5126,"count":166,"type":"VEC2"},{"bufferView":7,"byteOffset":0,"componentType":5123,"count":318,"type":"SCALAR"},{"bufferView":8,"byteOffset":0,"componentType":5126,"count":131,"max":[0.143848761916161,0.582443296909332,0.087654747068882],"min":[-0.10798022896051,-0.00714770425111,-0.11229731142521],"type":"VEC3"},{"bufferView":9,"byteOffset":0,"componentType":5126,"count":131,"type":"VEC3"},{"bufferView":10,"byteOffset":0,"componentType":5126,"count":131,"type":"VEC4"},{"bufferView":11,"byteOffset":0,"componentType":5126,"count":131,"type":"VEC2"},{"bufferView":12,"byteOffset":0,"componentType":5126,"count":131,"type":"VEC2"},{"bufferView":13,"byteOffset":0,"componentType":5123,"count":213,"type":"SCALAR"},{"bufferView":14,"byteOffset":0,"componentType":5126,"count":99,"max":[0.143848761916161,0.582443296909332,0.087654747068882],"min":[-0.10798022896051,-0.00697100441903,-0.11229731142521],"type":"VEC3"},{"bufferView":15,"byteOffset":0,"componentType":5126,"count":99,"type":"VEC3"},{"bufferView":16,"byteOffset":0,"componentType":5126,"count":99,"type":"VEC4"},{"bufferView":17,"byteOffset":0,"componentType":5126,"count":99,"type":"VEC2"},{"bufferView":18,"byteOffset":0,"componentType":5126,"count":99,"type":"VEC2"},{"bufferView":19,"byteOffset":0,"componentType":5123,"count":108,"type":"SCALAR"},{"bufferView":20,"byteOffset":0,"componentType":5126,"count":62,"max":[0.14469051361084,0.582443296909332,0.0851594135165215],"min":[-0.10798022896051,-0.00697100441903,-0.11129222810268],"type":"VEC3"},{"bufferView":21,"byteOffset":0,"componentType":5126,"count":62,"type":"VEC3"},{"bufferView":22,"byteOffset":0,"componentType":5126,"count":62,"type":"VEC4"},{"bufferView":23,"byteOffset":0,"componentType":5126,"count":62,"type":"VEC2"},{"bufferView":24,"byteOffset":0,"componentType":5126,"count":62,"type":"VEC2"},{"bufferView":25,"byteOffset":0,"componentType":5123,"count":336,"type":"SCALAR"},{"bufferView":26,"byteOffset":0,"componentType":5126,"count":328,"max":[0.145535096526146,0.584663450717926,0.0886963903903961],"min":[-0.10963185876608,-0.00767289847136,-0.1139721646905],"type":"VEC3"},{"bufferView":27,"byteOffset":0,"componentType":5126,"count":328,"type":"VEC3"},{"bufferView":28,"byteOffset":0,"componentType":5126,"count":328,"type":"VEC2"},{"bufferView":29,"byteOffset":0,"componentType":5126,"count":328,"type":"VEC2"}],"animations":[{"channels":[],"name":"Unreal Take","samplers":[]}],"asset":{"generator":"FBX2glTF v0.13.0","version":"2.0"},"bufferViews":[{"buffer":0,"byteLength":4,"byteOffset":0},{"buffer":0,"byteLength":846,"byteOffset":4,"target":34963},{"buffer":0,"byteLength":1992,"byteOffset":852,"target":34962},{"buffer":0,"byteLength":1992,"byteOffset":2844,"target":34962},{"buffer":0,"byteLength":2656,"byteOffset":4836,"target":34962},{"buffer":0,"byteLength":1328,"byteOffset":7492,"target":34962},{"buffer":0,"byteLength":1328,"byteOffset":8820,"target":34962},{"buffer":0,"byteLength":636,"byteOffset":10148,"target":34963},{"buffer":0,"byteLength":1572,"byteOffset":10784,"target":34962},{"buffer":0,"byteLength":1572,"byteOffset":12356,"target":34962},{"buffer":0,"byteLength":2096,"byteOffset":13928,"target":34962},{"buffer":0,"byteLength":1048,"byteOffset":16024,"target":34962},{"buffer":0,"byteLength":1048,"byteOffset":17072,"target":34962},{"buffer":0,"byteLength":426,"byteOffset":18120,"target":34963},{"buffer":0,"byteLength":1188,"byteOffset":18548,"target":34962},{"buffer":0,"byteLength":1188,"byteOffset":19736,"target":34962},{"buffer":0,"byteLength":1584,"byteOffset":20924,"target":34962},{"buffer":0,"byteLength":792,"byteOffset":22508,"target":34962},{"buffer":0,"byteLength":792,"byteOffset":23300,"target":34962},{"buffer":0,"byteLength":216,"byteOffset":24092,"target":34963},{"buffer":0,"byteLength":744,"byteOffset":24308,"target":34962},{"buffer":0,"byteLength":744,"byteOffset":25052,"target":34962},{"buffer":0,"byteLength":992,"byteOffset":25796,"target":34962},{"buffer":0,"byteLength":496,"byteOffset":26788,"target":34962},{"buffer":0,"byteLength":496,"byteOffset":27284,"target":34962},{"buffer":0,"byteLength":672,"byteOffset":27780,"target":34963},{"buffer":0,"byteLength":3936,"byteOffset":28452,"target":34962},{"buffer":0,"byteLength":3936,"byteOffset":32388,"target":34962},{"buffer":0,"byteLength":2624,"byteOffset":36324,"target":34962},{"buffer":0,"byteLength":2624,"byteOffset":38948,"target":34962}],"buffers":[{"byteLength":41572,"uri":"SM_FlowersPlant_03.bin"}],"materials":[{"alphaMode":"OPAQUE","doubleSided":false,"extras":{"fromFBX":{"isTruePBR":false,"shadingModel":"Lambert"}},"name":"MI_Grass","pbrMetallicRoughness":{"baseColorFactor":[0.21586050093174,0.21586050093174,0.21586050093174,1],"metallicFactor":0.200000002980232,"roughnessFactor":0.800000011920929}},{"alphaMode":"OPAQUE","doubleSided":false,"extras":{"fromFBX":{"isTruePBR":false,"shadingModel":"Lambert"}},"name":"DefaultMaterial","pbrMetallicRoughness":{"baseColorFactor":[0.5,0.5,0.5,1],"metallicFactor":0.200000002980232,"roughnessFactor":0.800000011920929}}],"meshes":[{"name":"SM_FlowersPlant_03_LOD0","primitives":[{"attributes":{"NORMAL":3,"POSITION":2,"TANGENT":4,"TEXCOORD_0":5,"TEXCOORD_1":6},"indices":1,"material":0,"mode":4}]},{"name":"SM_FlowersPlant_03_LOD1","primitives":[{"attributes":{"NORMAL":9,"POSITION":8,"TANGENT":10,"TEXCOORD_0":11,"TEXCOORD_1":12},"indices":7,"material":0,"mode":4}]},{"name":"SM_FlowersPlant_03_LOD2","primitives":[{"attributes":{"NORMAL":15,"POSITION":14,"TANGENT":16,"TEXCOORD_0":17,"TEXCOORD_1":18},"indices":13,"material":0,"mode":4}]},{"name":"SM_FlowersPlant_03_LOD3","primitives":[{"attributes":{"NORMAL":21,"POSITION":20,"TANGENT":22,"TEXCOORD_0":23,"TEXCOORD_1":24},"indices":19,"material":0,"mode":4}]},{"name":"SM_FlowersPlant_03_ConvexHulls","primitives":[{"attributes":{"NORMAL":27,"POSITION":26,"TEXCOORD_0":28,"TEXCOORD_1":29},"indices":25,"material":1,"mode":4}]}],"nodes":[{"children":[1,2,3,4,5],"name":"SM_FlowersPlant_25","originalUnits":0.00999999977648258,"pivot":[0,0,0],"rotation":[0,0,0,1],"scale":[1,1,1],"translation":[0,0,0]},{"mesh":0,"name":"SM_FlowersPlant_03_LOD0","originalUnits":0.00999999977648258,"pivot":[0,0,0],"rotation":[0,0,0,1],"scale":[1,1,1],"translation":[0,0,0]},{"mesh":4,"name":"SM_FlowersPlant_03_ConvexHulls","originalUnits":0.00999999977648258,"pivot":[0,0,0],"rotation":[0,0,0,1],"scale":[1,1,1],"translation":[0,0,0]},{"mesh":1,"name":"SM_FlowersPlant_03_LOD1","originalUnits":0.00999999977648258,"pivot":[0,0,0],"rotation":[0,0,0,1],"scale":[1,1,1],"translation":[0,0,0]},{"mesh":2,"name":"SM_FlowersPlant_03_LOD2","originalUnits":0.00999999977648258,"pivot":[0,0,0],"rotation":[0,0,0,1],"scale":[1,1,1],"translation":[0,0,0]},{"mesh":3,"name":"SM_FlowersPlant_03_LOD3","originalUnits":0.00999999977648258,"pivot":[0,0,0],"rotation":[0,0,0,1],"scale":[1,1,1],"translation":[0,0,0]}],"samplers":[{}],"scene":0,"scenes":[{"name":"Root Scene","nodes":[0]}]}