{"accessors":[{"bufferView":0,"byteOffset":0,"componentType":5126,"count":1,"max":[0],"min":[0],"type":"SCALAR"},{"bufferView":1,"byteOffset":0,"componentType":5123,"count":1212,"type":"SCALAR"},{"bufferView":2,"byteOffset":0,"componentType":5126,"count":302,"max":[0.0555559992790222,0.135271444916725,0.0581588670611382],"min":[-0.05982054397464,0.012643538415432,-0.05598448961973],"type":"VEC3"},{"bufferView":3,"byteOffset":0,"componentType":5126,"count":302,"type":"VEC3"},{"bufferView":4,"byteOffset":0,"componentType":5126,"count":302,"type":"VEC4"},{"bufferView":5,"byteOffset":0,"componentType":5126,"count":302,"type":"VEC2"},{"bufferView":6,"byteOffset":0,"componentType":5126,"count":302,"type":"VEC2"},{"bufferView":7,"byteOffset":0,"componentType":5123,"count":948,"type":"SCALAR"},{"bufferView":8,"byteOffset":0,"componentType":5126,"count":272,"max":[0.055650744587183,0.135271444916725,0.058157954365015],"min":[-0.05981871858239,0.0126077840104699,-0.05601448565722],"type":"VEC3"},{"bufferView":9,"byteOffset":0,"componentType":5126,"count":272,"type":"VEC3"},{"bufferView":10,"byteOffset":0,"componentType":5126,"count":272,"type":"VEC4"},{"bufferView":11,"byteOffset":0,"componentType":5126,"count":272,"type":"VEC2"},{"bufferView":12,"byteOffset":0,"componentType":5126,"count":272,"type":"VEC2"},{"bufferView":13,"byteOffset":0,"componentType":5123,"count":636,"type":"SCALAR"},{"bufferView":14,"byteOffset":0,"componentType":5126,"count":215,"max":[0.0560226365923882,0.135297939181328,0.058157954365015],"min":[-0.05981871858239,0.0126077840104699,-0.05598448961973],"type":"VEC3"},{"bufferView":15,"byteOffset":0,"componentType":5126,"count":215,"type":"VEC3"},{"bufferView":16,"byteOffset":0,"componentType":5126,"count":215,"type":"VEC4"},{"bufferView":17,"byteOffset":0,"componentType":5126,"count":215,"type":"VEC2"},{"bufferView":18,"byteOffset":0,"componentType":5126,"count":215,"type":"VEC2"},{"bufferView":19,"byteOffset":0,"componentType":5123,"count":327,"type":"SCALAR"},{"bufferView":20,"byteOffset":0,"componentType":5126,"count":121,"max":[0.0562096573412418,0.136062115430832,0.0593972615897655],"min":[-0.06060798093677,0.0126077840104699,-0.05539870262146],"type":"VEC3"},{"bufferView":21,"byteOffset":0,"componentType":5126,"count":121,"type":"VEC3"},{"bufferView":22,"byteOffset":0,"componentType":5126,"count":121,"type":"VEC4"},{"bufferView":23,"byteOffset":0,"componentType":5126,"count":121,"type":"VEC2"},{"bufferView":24,"byteOffset":0,"componentType":5126,"count":121,"type":"VEC2"},{"bufferView":25,"byteOffset":0,"componentType":5123,"count":1584,"type":"SCALAR"},{"bufferView":26,"byteOffset":0,"componentType":5126,"count":310,"max":[0.0598205402493477,0.127114772796631,0.0598205514252186],"min":[-0.05982054024935,-0,-0.05982055142522],"type":"VEC3"},{"bufferView":27,"byteOffset":0,"componentType":5126,"count":310,"type":"VEC3"},{"bufferView":28,"byteOffset":0,"componentType":5126,"count":310,"type":"VEC4"},{"bufferView":29,"byteOffset":0,"componentType":5126,"count":310,"type":"VEC2"},{"bufferView":30,"byteOffset":0,"componentType":5126,"count":310,"type":"VEC2"},{"bufferView":31,"byteOffset":0,"componentType":5123,"count":1149,"type":"SCALAR"},{"bufferView":32,"byteOffset":0,"componentType":5126,"count":233,"max":[0.0598205402493477,0.127115190029144,0.0598205514252186],"min":[-0.05981871858239,-0,-0.05982055142522],"type":"VEC3"},{"bufferView":33,"byteOffset":0,"componentType":5126,"count":233,"type":"VEC3"},{"bufferView":34,"byteOffset":0,"componentType":5126,"count":233,"type":"VEC4"},{"bufferView":35,"byteOffset":0,"componentType":5126,"count":233,"type":"VEC2"},{"bufferView":36,"byteOffset":0,"componentType":5126,"count":233,"type":"VEC2"},{"bufferView":37,"byteOffset":0,"componentType":5123,"count":759,"type":"SCALAR"},{"bufferView":38,"byteOffset":0,"componentType":5126,"count":164,"max":[0.0598018579185009,0.127453118562698,0.0598205514252186],"min":[-0.05981871858239,-0.00002745962593,-0.05981963500381],"type":"VEC3"},{"bufferView":39,"byteOffset":0,"componentType":5126,"count":164,"type":"VEC3"},{"bufferView":40,"byteOffset":0,"componentType":5126,"count":164,"type":"VEC4"},{"bufferView":41,"byteOffset":0,"componentType":5126,"count":164,"type":"VEC2"},{"bufferView":42,"byteOffset":0,"componentType":5126,"count":164,"type":"VEC2"},{"bufferView":43,"byteOffset":0,"componentType":5123,"count":372,"type":"SCALAR"},{"bufferView":44,"byteOffset":0,"componentType":5126,"count":87,"max":[0.0587413683533669,0.127453118562698,0.0610581636428833],"min":[-0.06143178418279,-0.00009790529293,-0.05949784442782],"type":"VEC3"},{"bufferView":45,"byteOffset":0,"componentType":5126,"count":87,"type":"VEC3"},{"bufferView":46,"byteOffset":0,"componentType":5126,"count":87,"type":"VEC4"},{"bufferView":47,"byteOffset":0,"componentType":5126,"count":87,"type":"VEC2"},{"bufferView":48,"byteOffset":0,"componentType":5126,"count":87,"type":"VEC2"},{"bufferView":49,"byteOffset":0,"componentType":5123,"count":84,"type":"SCALAR"},{"bufferView":50,"byteOffset":0,"componentType":5126,"count":80,"max":[0.0552711747586727,0.134300902485847,0.0592987760901451],"min":[-0.0586654022336,0.00123736797831953,-0.05911254137754],"type":"VEC3"},{"bufferView":51,"byteOffset":0,"componentType":5126,"count":80,"type":"VEC3"},{"bufferView":52,"byteOffset":0,"componentType":5126,"count":80,"type":"VEC2"},{"bufferView":53,"byteOffset":0,"componentType":5126,"count":80,"type":"VEC2"}],"animations":[{"channels":[],"name":"Unreal Take","samplers":[]}],"asset":{"generator":"FBX2glTF v0.13.0","version":"2.0"},"bufferViews":[{"buffer":0,"byteLength":4,"byteOffset":0},{"buffer":0,"byteLength":2424,"byteOffset":4,"target":34963},{"buffer":0,"byteLength":3624,"byteOffset":2428,"target":34962},{"buffer":0,"byteLength":3624,"byteOffset":6052,"target":34962},{"buffer":0,"byteLength":4832,"byteOffset":9676,"target":34962},{"buffer":0,"byteLength":2416,"byteOffset":14508,"target":34962},{"buffer":0,"byteLength":2416,"byteOffset":16924,"target":34962},{"buffer":0,"byteLength":1896,"byteOffset":19340,"target":34963},{"buffer":0,"byteLength":3264,"byteOffset":21236,"target":34962},{"buffer":0,"byteLength":3264,"byteOffset":24500,"target":34962},{"buffer":0,"byteLength":4352,"byteOffset":27764,"target":34962},{"buffer":0,"byteLength":2176,"byteOffset":32116,"target":34962},{"buffer":0,"byteLength":2176,"byteOffset":34292,"target":34962},{"buffer":0,"byteLength":1272,"byteOffset":36468,"target":34963},{"buffer":0,"byteLength":2580,"byteOffset":37740,"target":34962},{"buffer":0,"byteLength":2580,"byteOffset":40320,"target":34962},{"buffer":0,"byteLength":3440,"byteOffset":42900,"target":34962},{"buffer":0,"byteLength":1720,"byteOffset":46340,"target":34962},{"buffer":0,"byteLength":1720,"byteOffset":48060,"target":34962},{"buffer":0,"byteLength":654,"byteOffset":49780,"target":34963},{"buffer":0,"byteLength":1452,"byteOffset":50436,"target":34962},{"buffer":0,"byteLength":1452,"byteOffset":51888,"target":34962},{"buffer":0,"byteLength":1936,"byteOffset":53340,"target":34962},{"buffer":0,"byteLength":968,"byteOffset":55276,"target":34962},{"buffer":0,"byteLength":968,"byteOffset":56244,"target":34962},{"buffer":0,"byteLength":3168,"byteOffset":57212,"target":34963},{"buffer":0,"byteLength":3720,"byteOffset":60380,"target":34962},{"buffer":0,"byteLength":3720,"byteOffset":64100,"target":34962},{"buffer":0,"byteLength":4960,"byteOffset":67820,"target":34962},{"buffer":0,"byteLength":2480,"byteOffset":72780,"target":34962},{"buffer":0,"byteLength":2480,"byteOffset":75260,"target":34962},{"buffer":0,"byteLength":2298,"byteOffset":77740,"target":34963},{"buffer":0,"byteLength":2796,"byteOffset":80040,"target":34962},{"buffer":0,"byteLength":2796,"byteOffset":82836,"target":34962},{"buffer":0,"byteLength":3728,"byteOffset":85632,"target":34962},{"buffer":0,"byteLength":1864,"byteOffset":89360,"target":34962},{"buffer":0,"byteLength":1864,"byteOffset":91224,"target":34962},{"buffer":0,"byteLength":1518,"byteOffset":93088,"target":34963},{"buffer":0,"byteLength":1968,"byteOffset":94608,"target":34962},{"buffer":0,"byteLength":1968,"byteOffset":96576,"target":34962},{"buffer":0,"byteLength":2624,"byteOffset":98544,"target":34962},{"buffer":0,"byteLength":1312,"byteOffset":101168,"target":34962},{"buffer":0,"byteLength":1312,"byteOffset":102480,"target":34962},{"buffer":0,"byteLength":744,"byteOffset":103792,"target":34963},{"buffer":0,"byteLength":1044,"byteOffset":104536,"target":34962},{"buffer":0,"byteLength":1044,"byteOffset":105580,"target":34962},{"buffer":0,"byteLength":1392,"byteOffset":106624,"target":34962},{"buffer":0,"byteLength":696,"byteOffset":108016,"target":34962},{"buffer":0,"byteLength":696,"byteOffset":108712,"target":34962},{"buffer":0,"byteLength":168,"byteOffset":109408,"target":34963},{"buffer":0,"byteLength":960,"byteOffset":109576,"target":34962},{"buffer":0,"byteLength":960,"byteOffset":110536,"target":34962},{"buffer":0,"byteLength":640,"byteOffset":111496,"target":34962},{"buffer":0,"byteLength":640,"byteOffset":112136,"target":34962}],"buffers":[{"byteLength":112776,"uri":"SM_FoodPot_12.bin"}],"images":[{"name":"T_FoodPot_N","uri":"T_FoodPot_N.tga"},{"name":"T_FoodPot_Jelly_N","uri":"T_FoodPot_Jelly_N.tga"}],"materials":[{"alphaMode":"OPAQUE","doubleSided":false,"extras":{"fromFBX":{"isTruePBR":false,"shadingModel":"Phong"}},"name":"MI_FoodPot","normalTexture":{"index":0,"texCoord":0},"pbrMetallicRoughness":{"baseColorFactor":[0.21586050093174,0.21586050093174,0.21586050093174,1],"metallicFactor":0.400000005960464,"roughnessFactor":0.301511347293854}},{"alphaMode":"OPAQUE","doubleSided":false,"extras":{"fromFBX":{"isTruePBR":false,"shadingModel":"Phong"}},"name":"MI_FoodPotJelly","normalTexture":{"index":1,"texCoord":0},"pbrMetallicRoughness":{"baseColorFactor":[0.21586050093174,0.21586050093174,0.21586050093174,1],"metallicFactor":0.400000005960464,"roughnessFactor":0.301511347293854}},{"alphaMode":"OPAQUE","doubleSided":false,"extras":{"fromFBX":{"isTruePBR":false,"shadingModel":"Lambert"}},"name":"DefaultMaterial","pbrMetallicRoughness":{"baseColorFactor":[0.5,0.5,0.5,1],"metallicFactor":0.200000002980232,"roughnessFactor":0.800000011920929}}],"meshes":[{"name":"SM_FoodPot_12_LOD0","primitives":[{"attributes":{"NORMAL":3,"POSITION":2,"TANGENT":4,"TEXCOORD_0":5,"TEXCOORD_1":6},"indices":1,"material":0,"mode":4},{"attributes":{"NORMAL":27,"POSITION":26,"TANGENT":28,"TEXCOORD_0":29,"TEXCOORD_1":30},"indices":25,"material":1,"mode":4}]},{"name":"SM_FoodPot_12_LOD1","primitives":[{"attributes":{"NORMAL":9,"POSITION":8,"TANGENT":10,"TEXCOORD_0":11,"TEXCOORD_1":12},"indices":7,"material":0,"mode":4},{"attributes":{"NORMAL":33,"POSITION":32,"TANGENT":34,"TEXCOORD_0":35,"TEXCOORD_1":36},"indices":31,"material":1,"mode":4}]},{"name":"SM_FoodPot_12_LOD2","primitives":[{"attributes":{"NORMAL":15,"POSITION":14,"TANGENT":16,"TEXCOORD_0":17,"TEXCOORD_1":18},"indices":13,"material":0,"mode":4},{"attributes":{"NORMAL":39,"POSITION":38,"TANGENT":40,"TEXCOORD_0":41,"TEXCOORD_1":42},"indices":37,"material":1,"mode":4}]},{"name":"SM_FoodPot_12_LOD3","primitives":[{"attributes":{"NORMAL":21,"POSITION":20,"TANGENT":22,"TEXCOORD_0":23,"TEXCOORD_1":24},"indices":19,"material":0,"mode":4},{"attributes":{"NORMAL":45,"POSITION":44,"TANGENT":46,"TEXCOORD_0":47,"TEXCOORD_1":48},"indices":43,"material":1,"mode":4}]},{"name":"SM_FoodPot_12_ConvexHulls","primitives":[{"attributes":{"NORMAL":51,"POSITION":50,"TEXCOORD_0":52,"TEXCOORD_1":53},"indices":49,"material":2,"mode":4}]}],"nodes":[{"children":[1,2,3,4,5],"name":"SM_FoodPot_53","originalUnits":0.00999999977648258,"pivot":[0,0,0],"rotation":[0,0,0,1],"scale":[1,1,1],"translation":[0,0,0]},{"mesh":0,"name":"SM_FoodPot_12_LOD0","originalUnits":0.00999999977648258,"pivot":[0,0,0],"rotation":[0,0,0,1],"scale":[1,1,1],"translation":[0,0,0]},{"mesh":4,"name":"SM_FoodPot_12_ConvexHulls","originalUnits":0.00999999977648258,"pivot":[0,0,0],"rotation":[0,0,0,1],"scale":[1,1,1],"translation":[0,0,0]},{"mesh":1,"name":"SM_FoodPot_12_LOD1","originalUnits":0.00999999977648258,"pivot":[0,0,0],"rotation":[0,0,0,1],"scale":[1,1,1],"translation":[0,0,0]},{"mesh":2,"name":"SM_FoodPot_12_LOD2","originalUnits":0.00999999977648258,"pivot":[0,0,0],"rotation":[0,0,0,1],"scale":[1,1,1],"translation":[0,0,0]},{"mesh":3,"name":"SM_FoodPot_12_LOD3","originalUnits":0.00999999977648258,"pivot":[0,0,0],"rotation":[0,0,0,1],"scale":[1,1,1],"translation":[0,0,0]}],"samplers":[{}],"scene":0,"scenes":[{"name":"Root Scene","nodes":[0]}],"textures":[{"name":"T_FoodPot_N","sampler":0,"source":0},{"name":"T_FoodPot_Jelly_N","sampler":0,"source":1}]}