{"accessors":[{"bufferView":0,"byteOffset":0,"componentType":5126,"count":1,"max":[0],"min":[0],"type":"SCALAR"},{"bufferView":1,"byteOffset":0,"componentType":5123,"count":270,"type":"SCALAR"},{"bufferView":2,"byteOffset":0,"componentType":5126,"count":116,"max":[0.122592285275459,0.270259946584702,0.00695951376110315],"min":[-0.12259231507778,-0.00320912688039,-0.00695951282978],"type":"VEC3"},{"bufferView":3,"byteOffset":0,"componentType":5126,"count":116,"type":"VEC3"},{"bufferView":4,"byteOffset":0,"componentType":5126,"count":116,"type":"VEC4"},{"bufferView":5,"byteOffset":0,"componentType":5126,"count":116,"type":"VEC2"},{"bufferView":6,"byteOffset":0,"componentType":5126,"count":116,"type":"VEC2"},{"bufferView":7,"byteOffset":0,"componentType":5123,"count":204,"type":"SCALAR"},{"bufferView":8,"byteOffset":0,"componentType":5126,"count":94,"max":[0.122611336410046,0.270278662443161,0.00708316266536713],"min":[-0.12260387092829,-0.00322193535976,-0.00575606198981],"type":"VEC3"},{"bufferView":9,"byteOffset":0,"componentType":5126,"count":94,"type":"VEC3"},{"bufferView":10,"byteOffset":0,"componentType":5126,"count":94,"type":"VEC4"},{"bufferView":11,"byteOffset":0,"componentType":5126,"count":94,"type":"VEC2"},{"bufferView":12,"byteOffset":0,"componentType":5126,"count":94,"type":"VEC2"},{"bufferView":13,"byteOffset":0,"componentType":5123,"count":132,"type":"SCALAR"},{"bufferView":14,"byteOffset":0,"componentType":5126,"count":70,"max":[0.122597776353359,0.270278662443161,0.00707667414098978],"min":[-0.12260141968727,-0.00322193535976,-0.00574612384662],"type":"VEC3"},{"bufferView":15,"byteOffset":0,"componentType":5126,"count":70,"type":"VEC3"},{"bufferView":16,"byteOffset":0,"componentType":5126,"count":70,"type":"VEC4"},{"bufferView":17,"byteOffset":0,"componentType":5126,"count":70,"type":"VEC2"},{"bufferView":18,"byteOffset":0,"componentType":5126,"count":70,"type":"VEC2"},{"bufferView":19,"byteOffset":0,"componentType":5123,"count":66,"type":"SCALAR"},{"bufferView":20,"byteOffset":0,"componentType":5126,"count":40,"max":[0.123963907361031,0.280199527740479,0.00988885946571827],"min":[-0.12566693127155,-0.01303193066269,-0.01161813735962],"type":"VEC3"},{"bufferView":21,"byteOffset":0,"componentType":5126,"count":40,"type":"VEC3"},{"bufferView":22,"byteOffset":0,"componentType":5126,"count":40,"type":"VEC4"},{"bufferView":23,"byteOffset":0,"componentType":5126,"count":40,"type":"VEC2"},{"bufferView":24,"byteOffset":0,"componentType":5126,"count":40,"type":"VEC2"},{"bufferView":25,"byteOffset":0,"componentType":5123,"count":216,"type":"SCALAR"},{"bufferView":26,"byteOffset":0,"componentType":5126,"count":160,"max":[0.123478293418884,0.271153509616852,0.00833340920507908],"min":[-0.12299037724733,-0.004108695779,-0.00788755901158],"type":"VEC3"},{"bufferView":27,"byteOffset":0,"componentType":5126,"count":160,"type":"VEC3"},{"bufferView":28,"byteOffset":0,"componentType":5126,"count":160,"type":"VEC2"},{"bufferView":29,"byteOffset":0,"componentType":5126,"count":160,"type":"VEC2"}],"animations":[{"channels":[],"name":"Unreal Take","samplers":[]}],"asset":{"generator":"FBX2glTF v0.13.0","version":"2.0"},"bufferViews":[{"buffer":0,"byteLength":4,"byteOffset":0},{"buffer":0,"byteLength":540,"byteOffset":4,"target":34963},{"buffer":0,"byteLength":1392,"byteOffset":544,"target":34962},{"buffer":0,"byteLength":1392,"byteOffset":1936,"target":34962},{"buffer":0,"byteLength":1856,"byteOffset":3328,"target":34962},{"buffer":0,"byteLength":928,"byteOffset":5184,"target":34962},{"buffer":0,"byteLength":928,"byteOffset":6112,"target":34962},{"buffer":0,"byteLength":408,"byteOffset":7040,"target":34963},{"buffer":0,"byteLength":1128,"byteOffset":7448,"target":34962},{"buffer":0,"byteLength":1128,"byteOffset":8576,"target":34962},{"buffer":0,"byteLength":1504,"byteOffset":9704,"target":34962},{"buffer":0,"byteLength":752,"byteOffset":11208,"target":34962},{"buffer":0,"byteLength":752,"byteOffset":11960,"target":34962},{"buffer":0,"byteLength":264,"byteOffset":12712,"target":34963},{"buffer":0,"byteLength":840,"byteOffset":12976,"target":34962},{"buffer":0,"byteLength":840,"byteOffset":13816,"target":34962},{"buffer":0,"byteLength":1120,"byteOffset":14656,"target":34962},{"buffer":0,"byteLength":560,"byteOffset":15776,"target":34962},{"buffer":0,"byteLength":560,"byteOffset":16336,"target":34962},{"buffer":0,"byteLength":132,"byteOffset":16896,"target":34963},{"buffer":0,"byteLength":480,"byteOffset":17028,"target":34962},{"buffer":0,"byteLength":480,"byteOffset":17508,"target":34962},{"buffer":0,"byteLength":640,"byteOffset":17988,"target":34962},{"buffer":0,"byteLength":320,"byteOffset":18628,"target":34962},{"buffer":0,"byteLength":320,"byteOffset":18948,"target":34962},{"buffer":0,"byteLength":432,"byteOffset":19268,"target":34963},{"buffer":0,"byteLength":1920,"byteOffset":19700,"target":34962},{"buffer":0,"byteLength":1920,"byteOffset":21620,"target":34962},{"buffer":0,"byteLength":1280,"byteOffset":23540,"target":34962},{"buffer":0,"byteLength":1280,"byteOffset":24820,"target":34962}],"buffers":[{"byteLength":26100,"uri":"SM_Frames_06.bin"}],"images":[{"name":"T_Frames_N","uri":"T_Frames_N.tga"}],"materials":[{"alphaMode":"OPAQUE","doubleSided":false,"extras":{"fromFBX":{"isTruePBR":false,"shadingModel":"Phong"}},"name":"MI_Frame","normalTexture":{"index":0,"texCoord":0},"pbrMetallicRoughness":{"baseColorFactor":[0.21586050093174,0.21586050093174,0.21586050093174,1],"metallicFactor":0.400000005960464,"roughnessFactor":0.301511347293854}},{"alphaMode":"OPAQUE","doubleSided":false,"extras":{"fromFBX":{"isTruePBR":false,"shadingModel":"Lambert"}},"name":"DefaultMaterial","pbrMetallicRoughness":{"baseColorFactor":[0.5,0.5,0.5,1],"metallicFactor":0.200000002980232,"roughnessFactor":0.800000011920929}}],"meshes":[{"name":"SM_Frames_06_LOD0","primitives":[{"attributes":{"NORMAL":3,"POSITION":2,"TANGENT":4,"TEXCOORD_0":5,"TEXCOORD_1":6},"indices":1,"material":0,"mode":4}]},{"name":"SM_Frames_06_LOD1","primitives":[{"attributes":{"NORMAL":9,"POSITION":8,"TANGENT":10,"TEXCOORD_0":11,"TEXCOORD_1":12},"indices":7,"material":0,"mode":4}]},{"name":"SM_Frames_06_LOD2","primitives":[{"attributes":{"NORMAL":15,"POSITION":14,"TANGENT":16,"TEXCOORD_0":17,"TEXCOORD_1":18},"indices":13,"material":0,"mode":4}]},{"name":"SM_Frames_06_LOD3","primitives":[{"attributes":{"NORMAL":21,"POSITION":20,"TANGENT":22,"TEXCOORD_0":23,"TEXCOORD_1":24},"indices":19,"material":0,"mode":4}]},{"name":"SM_Frames_06_ConvexHulls","primitives":[{"attributes":{"NORMAL":27,"POSITION":26,"TEXCOORD_0":28,"TEXCOORD_1":29},"indices":25,"material":1,"mode":4}]}],"nodes":[{"children":[1,2,3,4,5],"name":"SM_Frames_11","originalUnits":0.00999999977648258,"pivot":[0,0,0],"rotation":[0,0,0,1],"scale":[1,1,1],"translation":[0,0,0]},{"mesh":0,"name":"SM_Frames_06_LOD0","originalUnits":0.00999999977648258,"pivot":[0,0,0],"rotation":[0,0,0,1],"scale":[1,1,1],"translation":[0,0,0]},{"mesh":4,"name":"SM_Frames_06_ConvexHulls","originalUnits":0.00999999977648258,"pivot":[0,0,0],"rotation":[0,0,0,1],"scale":[1,1,1],"translation":[0,0,0]},{"mesh":1,"name":"SM_Frames_06_LOD1","originalUnits":0.00999999977648258,"pivot":[0,0,0],"rotation":[0,0,0,1],"scale":[1,1,1],"translation":[0,0,0]},{"mesh":2,"name":"SM_Frames_06_LOD2","originalUnits":0.00999999977648258,"pivot":[0,0,0],"rotation":[0,0,0,1],"scale":[1,1,1],"translation":[0,0,0]},{"mesh":3,"name":"SM_Frames_06_LOD3","originalUnits":0.00999999977648258,"pivot":[0,0,0],"rotation":[0,0,0,1],"scale":[1,1,1],"translation":[0,0,0]}],"samplers":[{}],"scene":0,"scenes":[{"name":"Root Scene","nodes":[0]}],"textures":[{"name":"T_Frames_N","sampler":0,"source":0}]}