{"accessors":[{"bufferView":0,"byteOffset":0,"componentType":5126,"count":1,"max":[0],"min":[0],"type":"SCALAR"},{"bufferView":1,"byteOffset":0,"componentType":5123,"count":450,"type":"SCALAR"},{"bufferView":2,"byteOffset":0,"componentType":5126,"count":130,"max":[0.0394727662205696,0.0819068998098373,0.0391624458134174],"min":[-0.03897383064032,-0.00345500931144,-0.03968149423599],"type":"VEC3"},{"bufferView":3,"byteOffset":0,"componentType":5126,"count":130,"type":"VEC3"},{"bufferView":4,"byteOffset":0,"componentType":5126,"count":130,"type":"VEC4"},{"bufferView":5,"byteOffset":0,"componentType":5126,"count":130,"type":"VEC2"},{"bufferView":6,"byteOffset":0,"componentType":5126,"count":130,"type":"VEC2"},{"bufferView":7,"byteOffset":0,"componentType":5123,"count":336,"type":"SCALAR"},{"bufferView":8,"byteOffset":0,"componentType":5126,"count":109,"max":[0.0404331721365452,0.0819068998098373,0.0389932505786419],"min":[-0.04002653807402,-0.0025271596387,-0.04126730188727],"type":"VEC3"},{"bufferView":9,"byteOffset":0,"componentType":5126,"count":109,"type":"VEC3"},{"bufferView":10,"byteOffset":0,"componentType":5126,"count":109,"type":"VEC4"},{"bufferView":11,"byteOffset":0,"componentType":5126,"count":109,"type":"VEC2"},{"bufferView":12,"byteOffset":0,"componentType":5126,"count":109,"type":"VEC2"},{"bufferView":13,"byteOffset":0,"componentType":5123,"count":222,"type":"SCALAR"},{"bufferView":14,"byteOffset":0,"componentType":5126,"count":80,"max":[0.0387365221977234,0.0834289714694023,0.0373955592513084],"min":[-0.04002653807402,-0.00242687156424,-0.04098365828395],"type":"VEC3"},{"bufferView":15,"byteOffset":0,"componentType":5126,"count":80,"type":"VEC3"},{"bufferView":16,"byteOffset":0,"componentType":5126,"count":80,"type":"VEC4"},{"bufferView":17,"byteOffset":0,"componentType":5126,"count":80,"type":"VEC2"},{"bufferView":18,"byteOffset":0,"componentType":5126,"count":80,"type":"VEC2"},{"bufferView":19,"byteOffset":0,"componentType":5123,"count":114,"type":"SCALAR"},{"bufferView":20,"byteOffset":0,"componentType":5126,"count":48,"max":[0.0387365221977234,0.0834289714694023,0.036213181912899],"min":[-0.04002653807402,-0.01532691903412,-0.04306279867887],"type":"VEC3"},{"bufferView":21,"byteOffset":0,"componentType":5126,"count":48,"type":"VEC3"},{"bufferView":22,"byteOffset":0,"componentType":5126,"count":48,"type":"VEC4"},{"bufferView":23,"byteOffset":0,"componentType":5126,"count":48,"type":"VEC2"},{"bufferView":24,"byteOffset":0,"componentType":5126,"count":48,"type":"VEC2"},{"bufferView":25,"byteOffset":0,"componentType":5123,"count":84,"type":"SCALAR"},{"bufferView":26,"byteOffset":0,"componentType":5126,"count":84,"max":[0.0318989977240562,0.0813190266489983,0.0347842313349247],"min":[-0.03587131947279,-0.00124379107729,-0.03554292023182],"type":"VEC3"},{"bufferView":27,"byteOffset":0,"componentType":5126,"count":84,"type":"VEC3"},{"bufferView":28,"byteOffset":0,"componentType":5126,"count":84,"type":"VEC2"},{"bufferView":29,"byteOffset":0,"componentType":5126,"count":84,"type":"VEC2"}],"animations":[{"channels":[],"name":"Unreal Take","samplers":[]}],"asset":{"generator":"FBX2glTF v0.13.0","version":"2.0"},"bufferViews":[{"buffer":0,"byteLength":4,"byteOffset":0},{"buffer":0,"byteLength":900,"byteOffset":4,"target":34963},{"buffer":0,"byteLength":1560,"byteOffset":904,"target":34962},{"buffer":0,"byteLength":1560,"byteOffset":2464,"target":34962},{"buffer":0,"byteLength":2080,"byteOffset":4024,"target":34962},{"buffer":0,"byteLength":1040,"byteOffset":6104,"target":34962},{"buffer":0,"byteLength":1040,"byteOffset":7144,"target":34962},{"buffer":0,"byteLength":672,"byteOffset":8184,"target":34963},{"buffer":0,"byteLength":1308,"byteOffset":8856,"target":34962},{"buffer":0,"byteLength":1308,"byteOffset":10164,"target":34962},{"buffer":0,"byteLength":1744,"byteOffset":11472,"target":34962},{"buffer":0,"byteLength":872,"byteOffset":13216,"target":34962},{"buffer":0,"byteLength":872,"byteOffset":14088,"target":34962},{"buffer":0,"byteLength":444,"byteOffset":14960,"target":34963},{"buffer":0,"byteLength":960,"byteOffset":15404,"target":34962},{"buffer":0,"byteLength":960,"byteOffset":16364,"target":34962},{"buffer":0,"byteLength":1280,"byteOffset":17324,"target":34962},{"buffer":0,"byteLength":640,"byteOffset":18604,"target":34962},{"buffer":0,"byteLength":640,"byteOffset":19244,"target":34962},{"buffer":0,"byteLength":228,"byteOffset":19884,"target":34963},{"buffer":0,"byteLength":576,"byteOffset":20112,"target":34962},{"buffer":0,"byteLength":576,"byteOffset":20688,"target":34962},{"buffer":0,"byteLength":768,"byteOffset":21264,"target":34962},{"buffer":0,"byteLength":384,"byteOffset":22032,"target":34962},{"buffer":0,"byteLength":384,"byteOffset":22416,"target":34962},{"buffer":0,"byteLength":168,"byteOffset":22800,"target":34963},{"buffer":0,"byteLength":1008,"byteOffset":22968,"target":34962},{"buffer":0,"byteLength":1008,"byteOffset":23976,"target":34962},{"buffer":0,"byteLength":672,"byteOffset":24984,"target":34962},{"buffer":0,"byteLength":672,"byteOffset":25656,"target":34962}],"buffers":[{"byteLength":26328,"uri":"SM_Food_SM_Apple_01.bin"}],"images":[{"name":"T_Food_N","uri":"T_Food_N.tga"}],"materials":[{"alphaMode":"OPAQUE","doubleSided":false,"extras":{"fromFBX":{"isTruePBR":false,"shadingModel":"Phong"}},"name":"MI_Food","normalTexture":{"index":0,"texCoord":0},"pbrMetallicRoughness":{"baseColorFactor":[0.21586050093174,0.21586050093174,0.21586050093174,1],"metallicFactor":0.400000005960464,"roughnessFactor":0.301511347293854}},{"alphaMode":"OPAQUE","doubleSided":false,"extras":{"fromFBX":{"isTruePBR":false,"shadingModel":"Lambert"}},"name":"DefaultMaterial","pbrMetallicRoughness":{"baseColorFactor":[0.5,0.5,0.5,1],"metallicFactor":0.200000002980232,"roughnessFactor":0.800000011920929}}],"meshes":[{"name":"SM_Food_SM_Apple_01_LOD0","primitives":[{"attributes":{"NORMAL":3,"POSITION":2,"TANGENT":4,"TEXCOORD_0":5,"TEXCOORD_1":6},"indices":1,"material":0,"mode":4}]},{"name":"SM_Food_SM_Apple_01_LOD1","primitives":[{"attributes":{"NORMAL":9,"POSITION":8,"TANGENT":10,"TEXCOORD_0":11,"TEXCOORD_1":12},"indices":7,"material":0,"mode":4}]},{"name":"SM_Food_SM_Apple_01_LOD2","primitives":[{"attributes":{"NORMAL":15,"POSITION":14,"TANGENT":16,"TEXCOORD_0":17,"TEXCOORD_1":18},"indices":13,"material":0,"mode":4}]},{"name":"SM_Food_SM_Apple_01_LOD3","primitives":[{"attributes":{"NORMAL":21,"POSITION":20,"TANGENT":22,"TEXCOORD_0":23,"TEXCOORD_1":24},"indices":19,"material":0,"mode":4}]},{"name":"SM_Food_SM_Apple_01_ConvexHulls","primitives":[{"attributes":{"NORMAL":27,"POSITION":26,"TEXCOORD_0":28,"TEXCOORD_1":29},"indices":25,"material":1,"mode":4}]}],"nodes":[{"children":[1,2,3,4,5],"name":"SM_Food_SM_Apple_13","originalUnits":0.00999999977648258,"pivot":[0,0,0],"rotation":[0,0,0,1],"scale":[1,1,1],"translation":[0,0,0]},{"mesh":0,"name":"SM_Food_SM_Apple_01_LOD0","originalUnits":0.00999999977648258,"pivot":[0,0,0],"rotation":[0,0,0,1],"scale":[1,1,1],"translation":[0,0,0]},{"mesh":4,"name":"SM_Food_SM_Apple_01_ConvexHulls","originalUnits":0.00999999977648258,"pivot":[0,0,0],"rotation":[0,0,0,1],"scale":[1,1,1],"translation":[0,0,0]},{"mesh":1,"name":"SM_Food_SM_Apple_01_LOD1","originalUnits":0.00999999977648258,"pivot":[0,0,0],"rotation":[0,0,0,1],"scale":[1,1,1],"translation":[0,0,0]},{"mesh":2,"name":"SM_Food_SM_Apple_01_LOD2","originalUnits":0.00999999977648258,"pivot":[0,0,0],"rotation":[0,0,0,1],"scale":[1,1,1],"translation":[0,0,0]},{"mesh":3,"name":"SM_Food_SM_Apple_01_LOD3","originalUnits":0.00999999977648258,"pivot":[0,0,0],"rotation":[0,0,0,1],"scale":[1,1,1],"translation":[0,0,0]}],"samplers":[{}],"scene":0,"scenes":[{"name":"Root Scene","nodes":[0]}],"textures":[{"name":"T_Food_N","sampler":0,"source":0}]}