{"accessors":[{"bufferView":0,"byteOffset":0,"componentType":5126,"count":1,"max":[0],"min":[0],"type":"SCALAR"},{"bufferView":1,"byteOffset":0,"componentType":5123,"count":654,"type":"SCALAR"},{"bufferView":2,"byteOffset":0,"componentType":5126,"count":162,"max":[0.0584020726382732,0.139902353286743,0.0584019459784031],"min":[-0.0584021024406,-0.00000000671222,-0.0584019459784],"type":"VEC3"},{"bufferView":3,"byteOffset":0,"componentType":5126,"count":162,"type":"VEC3"},{"bufferView":4,"byteOffset":0,"componentType":5126,"count":162,"type":"VEC4"},{"bufferView":5,"byteOffset":0,"componentType":5126,"count":162,"type":"VEC2"},{"bufferView":6,"byteOffset":0,"componentType":5126,"count":162,"type":"VEC2"},{"bufferView":7,"byteOffset":0,"componentType":5123,"count":492,"type":"SCALAR"},{"bufferView":8,"byteOffset":0,"componentType":5126,"count":135,"max":[0.0584020726382732,0.139902353286743,0.0584019459784031],"min":[-0.0584021024406,-0.00000000671222,-0.0584019459784],"type":"VEC3"},{"bufferView":9,"byteOffset":0,"componentType":5126,"count":135,"type":"VEC3"},{"bufferView":10,"byteOffset":0,"componentType":5126,"count":135,"type":"VEC4"},{"bufferView":11,"byteOffset":0,"componentType":5126,"count":135,"type":"VEC2"},{"bufferView":12,"byteOffset":0,"componentType":5126,"count":135,"type":"VEC2"},{"bufferView":13,"byteOffset":0,"componentType":5123,"count":324,"type":"SCALAR"},{"bufferView":14,"byteOffset":0,"componentType":5126,"count":95,"max":[0.0584841333329678,0.139902353286743,0.0584019459784031],"min":[-0.05848415568471,-0.00000000671222,-0.0584019459784],"type":"VEC3"},{"bufferView":15,"byteOffset":0,"componentType":5126,"count":95,"type":"VEC3"},{"bufferView":16,"byteOffset":0,"componentType":5126,"count":95,"type":"VEC4"},{"bufferView":17,"byteOffset":0,"componentType":5126,"count":95,"type":"VEC2"},{"bufferView":18,"byteOffset":0,"componentType":5126,"count":95,"type":"VEC2"},{"bufferView":19,"byteOffset":0,"componentType":5123,"count":165,"type":"SCALAR"},{"bufferView":20,"byteOffset":0,"componentType":5126,"count":61,"max":[0.058597344905138,0.139902353286743,0.0584019459784031],"min":[-0.05866864696145,-0.00000000671222,-0.0584019459784],"type":"VEC3"},{"bufferView":21,"byteOffset":0,"componentType":5126,"count":61,"type":"VEC3"},{"bufferView":22,"byteOffset":0,"componentType":5126,"count":61,"type":"VEC4"},{"bufferView":23,"byteOffset":0,"componentType":5126,"count":61,"type":"VEC2"},{"bufferView":24,"byteOffset":0,"componentType":5126,"count":61,"type":"VEC2"},{"bufferView":25,"byteOffset":0,"componentType":5123,"count":246,"type":"SCALAR"},{"bufferView":26,"byteOffset":0,"componentType":5126,"count":228,"max":[0.0587598346173763,0.139902353286743,0.0586852431297302],"min":[-0.05823314189911,-0.00184151902795,-0.05820062384009],"type":"VEC3"},{"bufferView":27,"byteOffset":0,"componentType":5126,"count":228,"type":"VEC3"},{"bufferView":28,"byteOffset":0,"componentType":5126,"count":228,"type":"VEC2"},{"bufferView":29,"byteOffset":0,"componentType":5126,"count":228,"type":"VEC2"}],"animations":[{"channels":[],"name":"Unreal Take","samplers":[]}],"asset":{"generator":"FBX2glTF v0.13.0","version":"2.0"},"bufferViews":[{"buffer":0,"byteLength":4,"byteOffset":0},{"buffer":0,"byteLength":1308,"byteOffset":4,"target":34963},{"buffer":0,"byteLength":1944,"byteOffset":1312,"target":34962},{"buffer":0,"byteLength":1944,"byteOffset":3256,"target":34962},{"buffer":0,"byteLength":2592,"byteOffset":5200,"target":34962},{"buffer":0,"byteLength":1296,"byteOffset":7792,"target":34962},{"buffer":0,"byteLength":1296,"byteOffset":9088,"target":34962},{"buffer":0,"byteLength":984,"byteOffset":10384,"target":34963},{"buffer":0,"byteLength":1620,"byteOffset":11368,"target":34962},{"buffer":0,"byteLength":1620,"byteOffset":12988,"target":34962},{"buffer":0,"byteLength":2160,"byteOffset":14608,"target":34962},{"buffer":0,"byteLength":1080,"byteOffset":16768,"target":34962},{"buffer":0,"byteLength":1080,"byteOffset":17848,"target":34962},{"buffer":0,"byteLength":648,"byteOffset":18928,"target":34963},{"buffer":0,"byteLength":1140,"byteOffset":19576,"target":34962},{"buffer":0,"byteLength":1140,"byteOffset":20716,"target":34962},{"buffer":0,"byteLength":1520,"byteOffset":21856,"target":34962},{"buffer":0,"byteLength":760,"byteOffset":23376,"target":34962},{"buffer":0,"byteLength":760,"byteOffset":24136,"target":34962},{"buffer":0,"byteLength":330,"byteOffset":24896,"target":34963},{"buffer":0,"byteLength":732,"byteOffset":25228,"target":34962},{"buffer":0,"byteLength":732,"byteOffset":25960,"target":34962},{"buffer":0,"byteLength":976,"byteOffset":26692,"target":34962},{"buffer":0,"byteLength":488,"byteOffset":27668,"target":34962},{"buffer":0,"byteLength":488,"byteOffset":28156,"target":34962},{"buffer":0,"byteLength":492,"byteOffset":28644,"target":34963},{"buffer":0,"byteLength":2736,"byteOffset":29136,"target":34962},{"buffer":0,"byteLength":2736,"byteOffset":31872,"target":34962},{"buffer":0,"byteLength":1824,"byteOffset":34608,"target":34962},{"buffer":0,"byteLength":1824,"byteOffset":36432,"target":34962}],"buffers":[{"byteLength":38256,"uri":"SM_FoodPot_15.bin"}],"images":[{"name":"T_FoodPot_N","uri":"T_FoodPot_N.tga"}],"materials":[{"alphaMode":"OPAQUE","doubleSided":false,"extras":{"fromFBX":{"isTruePBR":false,"shadingModel":"Phong"}},"name":"MI_FoodPot","normalTexture":{"index":0,"texCoord":0},"pbrMetallicRoughness":{"baseColorFactor":[0.21586050093174,0.21586050093174,0.21586050093174,1],"metallicFactor":0.400000005960464,"roughnessFactor":0.301511347293854}},{"alphaMode":"OPAQUE","doubleSided":false,"extras":{"fromFBX":{"isTruePBR":false,"shadingModel":"Lambert"}},"name":"DefaultMaterial","pbrMetallicRoughness":{"baseColorFactor":[0.5,0.5,0.5,1],"metallicFactor":0.200000002980232,"roughnessFactor":0.800000011920929}}],"meshes":[{"name":"SM_FoodPot_15_LOD0","primitives":[{"attributes":{"NORMAL":3,"POSITION":2,"TANGENT":4,"TEXCOORD_0":5,"TEXCOORD_1":6},"indices":1,"material":0,"mode":4}]},{"name":"SM_FoodPot_15_LOD1","primitives":[{"attributes":{"NORMAL":9,"POSITION":8,"TANGENT":10,"TEXCOORD_0":11,"TEXCOORD_1":12},"indices":7,"material":0,"mode":4}]},{"name":"SM_FoodPot_15_LOD2","primitives":[{"attributes":{"NORMAL":15,"POSITION":14,"TANGENT":16,"TEXCOORD_0":17,"TEXCOORD_1":18},"indices":13,"material":0,"mode":4}]},{"name":"SM_FoodPot_15_LOD3","primitives":[{"attributes":{"NORMAL":21,"POSITION":20,"TANGENT":22,"TEXCOORD_0":23,"TEXCOORD_1":24},"indices":19,"material":0,"mode":4}]},{"name":"SM_FoodPot_15_ConvexHulls","primitives":[{"attributes":{"NORMAL":27,"POSITION":26,"TEXCOORD_0":28,"TEXCOORD_1":29},"indices":25,"material":1,"mode":4}]}],"nodes":[{"children":[1,2,3,4,5],"name":"SM_FoodPot_45","originalUnits":0.00999999977648258,"pivot":[0,0,0],"rotation":[0,0,0,1],"scale":[1,1,1],"translation":[0,0,0]},{"mesh":0,"name":"SM_FoodPot_15_LOD0","originalUnits":0.00999999977648258,"pivot":[0,0,0],"rotation":[0,0,0,1],"scale":[1,1,1],"translation":[0,0,0]},{"mesh":4,"name":"SM_FoodPot_15_ConvexHulls","originalUnits":0.00999999977648258,"pivot":[0,0,0],"rotation":[0,0,0,1],"scale":[1,1,1],"translation":[0,0,0]},{"mesh":1,"name":"SM_FoodPot_15_LOD1","originalUnits":0.00999999977648258,"pivot":[0,0,0],"rotation":[0,0,0,1],"scale":[1,1,1],"translation":[0,0,0]},{"mesh":2,"name":"SM_FoodPot_15_LOD2","originalUnits":0.00999999977648258,"pivot":[0,0,0],"rotation":[0,0,0,1],"scale":[1,1,1],"translation":[0,0,0]},{"mesh":3,"name":"SM_FoodPot_15_LOD3","originalUnits":0.00999999977648258,"pivot":[0,0,0],"rotation":[0,0,0,1],"scale":[1,1,1],"translation":[0,0,0]}],"samplers":[{}],"scene":0,"scenes":[{"name":"Root Scene","nodes":[0]}],"textures":[{"name":"T_FoodPot_N","sampler":0,"source":0}]}