{"accessors":[{"bufferView":0,"byteOffset":0,"componentType":5126,"count":1,"max":[0],"min":[0],"type":"SCALAR"},{"bufferView":1,"byteOffset":0,"componentType":5123,"count":2304,"type":"SCALAR"},{"bufferView":2,"byteOffset":0,"componentType":5126,"count":496,"max":[0.0499737523496151,0.174110576510429,0.0513427667319775],"min":[-0.05293420702219,-0.00179972522892,-0.05039886012673],"type":"VEC3"},{"bufferView":3,"byteOffset":0,"componentType":5126,"count":496,"type":"VEC3"},{"bufferView":4,"byteOffset":0,"componentType":5126,"count":496,"type":"VEC4"},{"bufferView":5,"byteOffset":0,"componentType":5126,"count":496,"type":"VEC2"},{"bufferView":6,"byteOffset":0,"componentType":5126,"count":496,"type":"VEC2"},{"bufferView":7,"byteOffset":0,"componentType":5123,"count":1740,"type":"SCALAR"},{"bufferView":8,"byteOffset":0,"componentType":5126,"count":402,"max":[0.0499737523496151,0.174110576510429,0.0513427667319775],"min":[-0.05293420702219,-0.00179972522892,-0.05039886012673],"type":"VEC3"},{"bufferView":9,"byteOffset":0,"componentType":5126,"count":402,"type":"VEC3"},{"bufferView":10,"byteOffset":0,"componentType":5126,"count":402,"type":"VEC4"},{"bufferView":11,"byteOffset":0,"componentType":5126,"count":402,"type":"VEC2"},{"bufferView":12,"byteOffset":0,"componentType":5126,"count":402,"type":"VEC2"},{"bufferView":13,"byteOffset":0,"componentType":5123,"count":1074,"type":"SCALAR"},{"bufferView":14,"byteOffset":0,"componentType":5126,"count":295,"max":[0.0499737523496151,0.174114838242531,0.0513427667319775],"min":[-0.05293420702219,-0.00182399479672,-0.05039886012673],"type":"VEC3"},{"bufferView":15,"byteOffset":0,"componentType":5126,"count":295,"type":"VEC3"},{"bufferView":16,"byteOffset":0,"componentType":5126,"count":295,"type":"VEC4"},{"bufferView":17,"byteOffset":0,"componentType":5126,"count":295,"type":"VEC2"},{"bufferView":18,"byteOffset":0,"componentType":5126,"count":295,"type":"VEC2"},{"bufferView":19,"byteOffset":0,"componentType":5123,"count":447,"type":"SCALAR"},{"bufferView":20,"byteOffset":0,"componentType":5126,"count":137,"max":[0.0499737523496151,0.174189999699593,0.0513427667319775],"min":[-0.05292327702045,-0.00181883061305,-0.04974452778697],"type":"VEC3"},{"bufferView":21,"byteOffset":0,"componentType":5126,"count":137,"type":"VEC3"},{"bufferView":22,"byteOffset":0,"componentType":5126,"count":137,"type":"VEC4"},{"bufferView":23,"byteOffset":0,"componentType":5126,"count":137,"type":"VEC2"},{"bufferView":24,"byteOffset":0,"componentType":5126,"count":137,"type":"VEC2"},{"bufferView":25,"byteOffset":0,"componentType":5123,"count":3600,"type":"SCALAR"},{"bufferView":26,"byteOffset":0,"componentType":5126,"count":692,"max":[0.0530340410768986,0.17095635831356,0.053946528583765],"min":[-0.0528564453125,-0.00402491446584,-0.05394652858377],"type":"VEC3"},{"bufferView":27,"byteOffset":0,"componentType":5126,"count":692,"type":"VEC3"},{"bufferView":28,"byteOffset":0,"componentType":5126,"count":692,"type":"VEC4"},{"bufferView":29,"byteOffset":0,"componentType":5126,"count":692,"type":"VEC2"},{"bufferView":30,"byteOffset":0,"componentType":5126,"count":692,"type":"VEC2"},{"bufferView":31,"byteOffset":0,"componentType":5123,"count":2688,"type":"SCALAR"},{"bufferView":32,"byteOffset":0,"componentType":5126,"count":535,"max":[0.0530340410768986,0.17095635831356,0.053946528583765],"min":[-0.0528564453125,-0.00402491446584,-0.05394652858377],"type":"VEC3"},{"bufferView":33,"byteOffset":0,"componentType":5126,"count":535,"type":"VEC3"},{"bufferView":34,"byteOffset":0,"componentType":5126,"count":535,"type":"VEC4"},{"bufferView":35,"byteOffset":0,"componentType":5126,"count":535,"type":"VEC2"},{"bufferView":36,"byteOffset":0,"componentType":5126,"count":535,"type":"VEC2"},{"bufferView":37,"byteOffset":0,"componentType":5123,"count":1878,"type":"SCALAR"},{"bufferView":38,"byteOffset":0,"componentType":5126,"count":395,"max":[0.0530340410768986,0.17095635831356,0.0539305061101913],"min":[-0.0528564453125,-0.00402491446584,-0.0543425604701],"type":"VEC3"},{"bufferView":39,"byteOffset":0,"componentType":5126,"count":395,"type":"VEC3"},{"bufferView":40,"byteOffset":0,"componentType":5126,"count":395,"type":"VEC4"},{"bufferView":41,"byteOffset":0,"componentType":5126,"count":395,"type":"VEC2"},{"bufferView":42,"byteOffset":0,"componentType":5126,"count":395,"type":"VEC2"},{"bufferView":43,"byteOffset":0,"componentType":5123,"count":1026,"type":"SCALAR"},{"bufferView":44,"byteOffset":0,"componentType":5126,"count":248,"max":[0.0529967397451401,0.17095635831356,0.0539305061101913],"min":[-0.05406487733126,-0.0040002730675,-0.05504157394171],"type":"VEC3"},{"bufferView":45,"byteOffset":0,"componentType":5126,"count":248,"type":"VEC3"},{"bufferView":46,"byteOffset":0,"componentType":5126,"count":248,"type":"VEC4"},{"bufferView":47,"byteOffset":0,"componentType":5126,"count":248,"type":"VEC2"},{"bufferView":48,"byteOffset":0,"componentType":5126,"count":248,"type":"VEC2"},{"bufferView":49,"byteOffset":0,"componentType":5123,"count":84,"type":"SCALAR"},{"bufferView":50,"byteOffset":0,"componentType":5126,"count":84,"max":[0.0507438778877258,0.168943360447884,0.0492946580052376],"min":[-0.05160526931286,-0.00130580516998,-0.05149478465319],"type":"VEC3"},{"bufferView":51,"byteOffset":0,"componentType":5126,"count":84,"type":"VEC3"},{"bufferView":52,"byteOffset":0,"componentType":5126,"count":84,"type":"VEC2"},{"bufferView":53,"byteOffset":0,"componentType":5126,"count":84,"type":"VEC2"}],"animations":[{"channels":[],"name":"Unreal Take","samplers":[]}],"asset":{"generator":"FBX2glTF v0.13.0","version":"2.0"},"bufferViews":[{"buffer":0,"byteLength":4,"byteOffset":0},{"buffer":0,"byteLength":4608,"byteOffset":4,"target":34963},{"buffer":0,"byteLength":5952,"byteOffset":4612,"target":34962},{"buffer":0,"byteLength":5952,"byteOffset":10564,"target":34962},{"buffer":0,"byteLength":7936,"byteOffset":16516,"target":34962},{"buffer":0,"byteLength":3968,"byteOffset":24452,"target":34962},{"buffer":0,"byteLength":3968,"byteOffset":28420,"target":34962},{"buffer":0,"byteLength":3480,"byteOffset":32388,"target":34963},{"buffer":0,"byteLength":4824,"byteOffset":35868,"target":34962},{"buffer":0,"byteLength":4824,"byteOffset":40692,"target":34962},{"buffer":0,"byteLength":6432,"byteOffset":45516,"target":34962},{"buffer":0,"byteLength":3216,"byteOffset":51948,"target":34962},{"buffer":0,"byteLength":3216,"byteOffset":55164,"target":34962},{"buffer":0,"byteLength":2148,"byteOffset":58380,"target":34963},{"buffer":0,"byteLength":3540,"byteOffset":60528,"target":34962},{"buffer":0,"byteLength":3540,"byteOffset":64068,"target":34962},{"buffer":0,"byteLength":4720,"byteOffset":67608,"target":34962},{"buffer":0,"byteLength":2360,"byteOffset":72328,"target":34962},{"buffer":0,"byteLength":2360,"byteOffset":74688,"target":34962},{"buffer":0,"byteLength":894,"byteOffset":77048,"target":34963},{"buffer":0,"byteLength":1644,"byteOffset":77944,"target":34962},{"buffer":0,"byteLength":1644,"byteOffset":79588,"target":34962},{"buffer":0,"byteLength":2192,"byteOffset":81232,"target":34962},{"buffer":0,"byteLength":1096,"byteOffset":83424,"target":34962},{"buffer":0,"byteLength":1096,"byteOffset":84520,"target":34962},{"buffer":0,"byteLength":7200,"byteOffset":85616,"target":34963},{"buffer":0,"byteLength":8304,"byteOffset":92816,"target":34962},{"buffer":0,"byteLength":8304,"byteOffset":101120,"target":34962},{"buffer":0,"byteLength":11072,"byteOffset":109424,"target":34962},{"buffer":0,"byteLength":5536,"byteOffset":120496,"target":34962},{"buffer":0,"byteLength":5536,"byteOffset":126032,"target":34962},{"buffer":0,"byteLength":5376,"byteOffset":131568,"target":34963},{"buffer":0,"byteLength":6420,"byteOffset":136944,"target":34962},{"buffer":0,"byteLength":6420,"byteOffset":143364,"target":34962},{"buffer":0,"byteLength":8560,"byteOffset":149784,"target":34962},{"buffer":0,"byteLength":4280,"byteOffset":158344,"target":34962},{"buffer":0,"byteLength":4280,"byteOffset":162624,"target":34962},{"buffer":0,"byteLength":3756,"byteOffset":166904,"target":34963},{"buffer":0,"byteLength":4740,"byteOffset":170660,"target":34962},{"buffer":0,"byteLength":4740,"byteOffset":175400,"target":34962},{"buffer":0,"byteLength":6320,"byteOffset":180140,"target":34962},{"buffer":0,"byteLength":3160,"byteOffset":186460,"target":34962},{"buffer":0,"byteLength":3160,"byteOffset":189620,"target":34962},{"buffer":0,"byteLength":2052,"byteOffset":192780,"target":34963},{"buffer":0,"byteLength":2976,"byteOffset":194832,"target":34962},{"buffer":0,"byteLength":2976,"byteOffset":197808,"target":34962},{"buffer":0,"byteLength":3968,"byteOffset":200784,"target":34962},{"buffer":0,"byteLength":1984,"byteOffset":204752,"target":34962},{"buffer":0,"byteLength":1984,"byteOffset":206736,"target":34962},{"buffer":0,"byteLength":168,"byteOffset":208720,"target":34963},{"buffer":0,"byteLength":1008,"byteOffset":208888,"target":34962},{"buffer":0,"byteLength":1008,"byteOffset":209896,"target":34962},{"buffer":0,"byteLength":672,"byteOffset":210904,"target":34962},{"buffer":0,"byteLength":672,"byteOffset":211576,"target":34962}],"buffers":[{"byteLength":212248,"uri":"SM_FoodPot_03.bin"}],"images":[{"name":"T_FoodPot_N","uri":"T_FoodPot_N.tga"}],"materials":[{"alphaMode":"OPAQUE","doubleSided":false,"extras":{"fromFBX":{"isTruePBR":false,"shadingModel":"Phong"}},"name":"MI_FoodPot","normalTexture":{"index":0,"texCoord":0},"pbrMetallicRoughness":{"baseColorFactor":[0.21586050093174,0.21586050093174,0.21586050093174,1],"metallicFactor":0.400000005960464,"roughnessFactor":0.301511347293854}},{"alphaMode":"OPAQUE","doubleSided":false,"extras":{"fromFBX":{"isTruePBR":false,"shadingModel":"Phong"}},"name":"MI_FoodPot_Glass","pbrMetallicRoughness":{"baseColorFactor":[0.21586050093174,0.21586050093174,0.21586050093174,0],"metallicFactor":0.400000005960464,"roughnessFactor":0.301511347293854}},{"alphaMode":"OPAQUE","doubleSided":false,"extras":{"fromFBX":{"isTruePBR":false,"shadingModel":"Lambert"}},"name":"DefaultMaterial","pbrMetallicRoughness":{"baseColorFactor":[0.5,0.5,0.5,1],"metallicFactor":0.200000002980232,"roughnessFactor":0.800000011920929}}],"meshes":[{"name":"SM_FoodPot_03_LOD0","primitives":[{"attributes":{"NORMAL":3,"POSITION":2,"TANGENT":4,"TEXCOORD_0":5,"TEXCOORD_1":6},"indices":1,"material":0,"mode":4},{"attributes":{"NORMAL":27,"POSITION":26,"TANGENT":28,"TEXCOORD_0":29,"TEXCOORD_1":30},"indices":25,"material":1,"mode":4}]},{"name":"SM_FoodPot_03_LOD1","primitives":[{"attributes":{"NORMAL":9,"POSITION":8,"TANGENT":10,"TEXCOORD_0":11,"TEXCOORD_1":12},"indices":7,"material":0,"mode":4},{"attributes":{"NORMAL":33,"POSITION":32,"TANGENT":34,"TEXCOORD_0":35,"TEXCOORD_1":36},"indices":31,"material":1,"mode":4}]},{"name":"SM_FoodPot_03_LOD2","primitives":[{"attributes":{"NORMAL":15,"POSITION":14,"TANGENT":16,"TEXCOORD_0":17,"TEXCOORD_1":18},"indices":13,"material":0,"mode":4},{"attributes":{"NORMAL":39,"POSITION":38,"TANGENT":40,"TEXCOORD_0":41,"TEXCOORD_1":42},"indices":37,"material":1,"mode":4}]},{"name":"SM_FoodPot_03_LOD3","primitives":[{"attributes":{"NORMAL":21,"POSITION":20,"TANGENT":22,"TEXCOORD_0":23,"TEXCOORD_1":24},"indices":19,"material":0,"mode":4},{"attributes":{"NORMAL":45,"POSITION":44,"TANGENT":46,"TEXCOORD_0":47,"TEXCOORD_1":48},"indices":43,"material":1,"mode":4}]},{"name":"SM_FoodPot_03_ConvexHulls","primitives":[{"attributes":{"NORMAL":51,"POSITION":50,"TEXCOORD_0":52,"TEXCOORD_1":53},"indices":49,"material":2,"mode":4}]}],"nodes":[{"children":[1,2,3,4,5],"name":"SM_FoodPot_20","originalUnits":0.00999999977648258,"pivot":[0,0,0],"rotation":[0,0,0,1],"scale":[1,1,1],"translation":[0,0,0]},{"mesh":0,"name":"SM_FoodPot_03_LOD0","originalUnits":0.00999999977648258,"pivot":[0,0,0],"rotation":[0,0,0,1],"scale":[1,1,1],"translation":[0,0,0]},{"mesh":4,"name":"SM_FoodPot_03_ConvexHulls","originalUnits":0.00999999977648258,"pivot":[0,0,0],"rotation":[0,0,0,1],"scale":[1,1,1],"translation":[0,0,0]},{"mesh":1,"name":"SM_FoodPot_03_LOD1","originalUnits":0.00999999977648258,"pivot":[0,0,0],"rotation":[0,0,0,1],"scale":[1,1,1],"translation":[0,0,0]},{"mesh":2,"name":"SM_FoodPot_03_LOD2","originalUnits":0.00999999977648258,"pivot":[0,0,0],"rotation":[0,0,0,1],"scale":[1,1,1],"translation":[0,0,0]},{"mesh":3,"name":"SM_FoodPot_03_LOD3","originalUnits":0.00999999977648258,"pivot":[0,0,0],"rotation":[0,0,0,1],"scale":[1,1,1],"translation":[0,0,0]}],"samplers":[{}],"scene":0,"scenes":[{"name":"Root Scene","nodes":[0]}],"textures":[{"name":"T_FoodPot_N","sampler":0,"source":0}]}