{"accessors":[{"bufferView":0,"byteOffset":0,"componentType":5126,"count":1,"max":[0],"min":[0],"type":"SCALAR"},{"bufferView":1,"byteOffset":0,"componentType":5123,"count":5670,"type":"SCALAR"},{"bufferView":2,"byteOffset":0,"componentType":5126,"count":1236,"max":[0.14290788769722,0.516954481601715,0.143693819642067],"min":[-0.14290814101696,-0.00000001355713,-0.14369381964207],"type":"VEC3"},{"bufferView":3,"byteOffset":0,"componentType":5126,"count":1236,"type":"VEC3"},{"bufferView":4,"byteOffset":0,"componentType":5126,"count":1236,"type":"VEC4"},{"bufferView":5,"byteOffset":0,"componentType":5126,"count":1236,"type":"VEC2"},{"bufferView":6,"byteOffset":0,"componentType":5126,"count":1236,"type":"VEC2"},{"bufferView":7,"byteOffset":0,"componentType":5123,"count":4251,"type":"SCALAR"},{"bufferView":8,"byteOffset":0,"componentType":5126,"count":992,"max":[0.14290788769722,0.516954481601715,0.143693819642067],"min":[-0.14290814101696,-0.00000001183118,-0.14369381964207],"type":"VEC3"},{"bufferView":9,"byteOffset":0,"componentType":5126,"count":992,"type":"VEC3"},{"bufferView":10,"byteOffset":0,"componentType":5126,"count":992,"type":"VEC4"},{"bufferView":11,"byteOffset":0,"componentType":5126,"count":992,"type":"VEC2"},{"bufferView":12,"byteOffset":0,"componentType":5126,"count":992,"type":"VEC2"},{"bufferView":13,"byteOffset":0,"componentType":5123,"count":2835,"type":"SCALAR"},{"bufferView":14,"byteOffset":0,"componentType":5126,"count":749,"max":[0.143746733665466,0.516954481601715,0.143693819642067],"min":[-0.14397275447846,-0.00083646026906,-0.14369381964207],"type":"VEC3"},{"bufferView":15,"byteOffset":0,"componentType":5126,"count":749,"type":"VEC3"},{"bufferView":16,"byteOffset":0,"componentType":5126,"count":749,"type":"VEC4"},{"bufferView":17,"byteOffset":0,"componentType":5126,"count":749,"type":"VEC2"},{"bufferView":18,"byteOffset":0,"componentType":5126,"count":749,"type":"VEC2"},{"bufferView":19,"byteOffset":0,"componentType":5123,"count":1419,"type":"SCALAR"},{"bufferView":20,"byteOffset":0,"componentType":5126,"count":443,"max":[0.146848976612091,0.517171680927277,0.143773585557938],"min":[-0.14436998963356,-0.00339144165628,-0.14363217353821],"type":"VEC3"},{"bufferView":21,"byteOffset":0,"componentType":5126,"count":443,"type":"VEC3"},{"bufferView":22,"byteOffset":0,"componentType":5126,"count":443,"type":"VEC4"},{"bufferView":23,"byteOffset":0,"componentType":5126,"count":443,"type":"VEC2"},{"bufferView":24,"byteOffset":0,"componentType":5126,"count":443,"type":"VEC2"},{"bufferView":25,"byteOffset":0,"componentType":5123,"count":252,"type":"SCALAR"},{"bufferView":26,"byteOffset":0,"componentType":5126,"count":236,"max":[0.141922309994698,0.515905559062958,0.144252896308899],"min":[-0.14579604566097,0.0042696432210505,-0.13901181519032],"type":"VEC3"},{"bufferView":27,"byteOffset":0,"componentType":5126,"count":236,"type":"VEC3"},{"bufferView":28,"byteOffset":0,"componentType":5126,"count":236,"type":"VEC2"},{"bufferView":29,"byteOffset":0,"componentType":5126,"count":236,"type":"VEC2"}],"animations":[{"channels":[],"name":"Unreal Take","samplers":[]}],"asset":{"generator":"FBX2glTF v0.13.0","version":"2.0"},"bufferViews":[{"buffer":0,"byteLength":4,"byteOffset":0},{"buffer":0,"byteLength":11340,"byteOffset":4,"target":34963},{"buffer":0,"byteLength":14832,"byteOffset":11344,"target":34962},{"buffer":0,"byteLength":14832,"byteOffset":26176,"target":34962},{"buffer":0,"byteLength":19776,"byteOffset":41008,"target":34962},{"buffer":0,"byteLength":9888,"byteOffset":60784,"target":34962},{"buffer":0,"byteLength":9888,"byteOffset":70672,"target":34962},{"buffer":0,"byteLength":8502,"byteOffset":80560,"target":34963},{"buffer":0,"byteLength":11904,"byteOffset":89064,"target":34962},{"buffer":0,"byteLength":11904,"byteOffset":100968,"target":34962},{"buffer":0,"byteLength":15872,"byteOffset":112872,"target":34962},{"buffer":0,"byteLength":7936,"byteOffset":128744,"target":34962},{"buffer":0,"byteLength":7936,"byteOffset":136680,"target":34962},{"buffer":0,"byteLength":5670,"byteOffset":144616,"target":34963},{"buffer":0,"byteLength":8988,"byteOffset":150288,"target":34962},{"buffer":0,"byteLength":8988,"byteOffset":159276,"target":34962},{"buffer":0,"byteLength":11984,"byteOffset":168264,"target":34962},{"buffer":0,"byteLength":5992,"byteOffset":180248,"target":34962},{"buffer":0,"byteLength":5992,"byteOffset":186240,"target":34962},{"buffer":0,"byteLength":2838,"byteOffset":192232,"target":34963},{"buffer":0,"byteLength":5316,"byteOffset":195072,"target":34962},{"buffer":0,"byteLength":5316,"byteOffset":200388,"target":34962},{"buffer":0,"byteLength":7088,"byteOffset":205704,"target":34962},{"buffer":0,"byteLength":3544,"byteOffset":212792,"target":34962},{"buffer":0,"byteLength":3544,"byteOffset":216336,"target":34962},{"buffer":0,"byteLength":504,"byteOffset":219880,"target":34963},{"buffer":0,"byteLength":2832,"byteOffset":220384,"target":34962},{"buffer":0,"byteLength":2832,"byteOffset":223216,"target":34962},{"buffer":0,"byteLength":1888,"byteOffset":226048,"target":34962},{"buffer":0,"byteLength":1888,"byteOffset":227936,"target":34962}],"buffers":[{"byteLength":229824,"uri":"SM_FlowerPot_07.bin"}],"images":[{"name":"T_FlowerPot_N","uri":"T_FlowerPot_N.tga"}],"materials":[{"alphaMode":"OPAQUE","doubleSided":false,"extras":{"fromFBX":{"isTruePBR":false,"shadingModel":"Phong"}},"name":"MI_FlowerPot","normalTexture":{"index":0,"texCoord":0},"pbrMetallicRoughness":{"baseColorFactor":[0.21586050093174,0.21586050093174,0.21586050093174,1],"metallicFactor":0.400000005960464,"roughnessFactor":0.301511347293854}},{"alphaMode":"OPAQUE","doubleSided":false,"extras":{"fromFBX":{"isTruePBR":false,"shadingModel":"Lambert"}},"name":"DefaultMaterial","pbrMetallicRoughness":{"baseColorFactor":[0.5,0.5,0.5,1],"metallicFactor":0.200000002980232,"roughnessFactor":0.800000011920929}}],"meshes":[{"name":"SM_FlowerPot_07_LOD0","primitives":[{"attributes":{"NORMAL":3,"POSITION":2,"TANGENT":4,"TEXCOORD_0":5,"TEXCOORD_1":6},"indices":1,"material":0,"mode":4}]},{"name":"SM_FlowerPot_07_LOD1","primitives":[{"attributes":{"NORMAL":9,"POSITION":8,"TANGENT":10,"TEXCOORD_0":11,"TEXCOORD_1":12},"indices":7,"material":0,"mode":4}]},{"name":"SM_FlowerPot_07_LOD2","primitives":[{"attributes":{"NORMAL":15,"POSITION":14,"TANGENT":16,"TEXCOORD_0":17,"TEXCOORD_1":18},"indices":13,"material":0,"mode":4}]},{"name":"SM_FlowerPot_07_LOD3","primitives":[{"attributes":{"NORMAL":21,"POSITION":20,"TANGENT":22,"TEXCOORD_0":23,"TEXCOORD_1":24},"indices":19,"material":0,"mode":4}]},{"name":"SM_FlowerPot_07_ConvexHulls","primitives":[{"attributes":{"NORMAL":27,"POSITION":26,"TEXCOORD_0":28,"TEXCOORD_1":29},"indices":25,"material":1,"mode":4}]}],"nodes":[{"children":[1,2,3,4,5],"name":"SM_FlowerPot_105","originalUnits":0.00999999977648258,"pivot":[0,0,0],"rotation":[0,0,0,1],"scale":[1,1,1],"translation":[0,0,0]},{"mesh":0,"name":"SM_FlowerPot_07_LOD0","originalUnits":0.00999999977648258,"pivot":[0,0,0],"rotation":[0,0,0,1],"scale":[1,1,1],"translation":[0,0,0]},{"mesh":4,"name":"SM_FlowerPot_07_ConvexHulls","originalUnits":0.00999999977648258,"pivot":[0,0,0],"rotation":[0,0,0,1],"scale":[1,1,1],"translation":[0,0,0]},{"mesh":1,"name":"SM_FlowerPot_07_LOD1","originalUnits":0.00999999977648258,"pivot":[0,0,0],"rotation":[0,0,0,1],"scale":[1,1,1],"translation":[0,0,0]},{"mesh":2,"name":"SM_FlowerPot_07_LOD2","originalUnits":0.00999999977648258,"pivot":[0,0,0],"rotation":[0,0,0,1],"scale":[1,1,1],"translation":[0,0,0]},{"mesh":3,"name":"SM_FlowerPot_07_LOD3","originalUnits":0.00999999977648258,"pivot":[0,0,0],"rotation":[0,0,0,1],"scale":[1,1,1],"translation":[0,0,0]}],"samplers":[{}],"scene":0,"scenes":[{"name":"Root Scene","nodes":[0]}],"textures":[{"name":"T_FlowerPot_N","sampler":0,"source":0}]}