{"accessors":[{"bufferView":0,"byteOffset":0,"componentType":5126,"count":1,"max":[0],"min":[0],"type":"SCALAR"},{"bufferView":1,"byteOffset":0,"componentType":5123,"count":1260,"type":"SCALAR"},{"bufferView":2,"byteOffset":0,"componentType":5126,"count":314,"max":[0.0240844432264566,0.202128469944,0.0406823679804802],"min":[-0.04143066704273,0.0279030539095402,-0.02400054596364],"type":"VEC3"},{"bufferView":3,"byteOffset":0,"componentType":5126,"count":314,"type":"VEC3"},{"bufferView":4,"byteOffset":0,"componentType":5126,"count":314,"type":"VEC4"},{"bufferView":5,"byteOffset":0,"componentType":5126,"count":314,"type":"VEC2"},{"bufferView":6,"byteOffset":0,"componentType":5126,"count":314,"type":"VEC2"},{"bufferView":7,"byteOffset":0,"componentType":5123,"count":1206,"type":"SCALAR"},{"bufferView":8,"byteOffset":0,"componentType":5126,"count":304,"max":[0.0240844432264566,0.202128469944,0.0406823679804802],"min":[-0.04143066704273,0.0279008876532316,-0.02400054596364],"type":"VEC3"},{"bufferView":9,"byteOffset":0,"componentType":5126,"count":304,"type":"VEC3"},{"bufferView":10,"byteOffset":0,"componentType":5126,"count":304,"type":"VEC4"},{"bufferView":11,"byteOffset":0,"componentType":5126,"count":304,"type":"VEC2"},{"bufferView":12,"byteOffset":0,"componentType":5126,"count":304,"type":"VEC2"},{"bufferView":13,"byteOffset":0,"componentType":5123,"count":1044,"type":"SCALAR"},{"bufferView":14,"byteOffset":0,"componentType":5126,"count":283,"max":[0.0240844432264566,0.202128469944,0.0406823679804802],"min":[-0.04145377501845,0.0279008876532316,-0.02400054596364],"type":"VEC3"},{"bufferView":15,"byteOffset":0,"componentType":5126,"count":283,"type":"VEC3"},{"bufferView":16,"byteOffset":0,"componentType":5126,"count":283,"type":"VEC4"},{"bufferView":17,"byteOffset":0,"componentType":5126,"count":283,"type":"VEC2"},{"bufferView":18,"byteOffset":0,"componentType":5126,"count":283,"type":"VEC2"},{"bufferView":19,"byteOffset":0,"componentType":5123,"count":456,"type":"SCALAR"},{"bufferView":20,"byteOffset":0,"componentType":5126,"count":152,"max":[0.0241650305688381,0.202257439494133,0.0406823679804802],"min":[-0.04145377501845,0.0278472173959017,-0.02405811101198],"type":"VEC3"},{"bufferView":21,"byteOffset":0,"componentType":5126,"count":152,"type":"VEC3"},{"bufferView":22,"byteOffset":0,"componentType":5126,"count":152,"type":"VEC4"},{"bufferView":23,"byteOffset":0,"componentType":5126,"count":152,"type":"VEC2"},{"bufferView":24,"byteOffset":0,"componentType":5126,"count":152,"type":"VEC2"},{"bufferView":25,"byteOffset":0,"componentType":5123,"count":9120,"type":"SCALAR"},{"bufferView":26,"byteOffset":0,"componentType":5126,"count":1680,"max":[0.0414288081228733,0.198207944631577,0.0414303541183472],"min":[-0.04143066704273,0.0000000762937872877956,-0.04143035411835],"type":"VEC3"},{"bufferView":27,"byteOffset":0,"componentType":5126,"count":1680,"type":"VEC3"},{"bufferView":28,"byteOffset":0,"componentType":5126,"count":1680,"type":"VEC4"},{"bufferView":29,"byteOffset":0,"componentType":5126,"count":1680,"type":"VEC2"},{"bufferView":30,"byteOffset":0,"componentType":5126,"count":1680,"type":"VEC2"},{"bufferView":31,"byteOffset":0,"componentType":5123,"count":6576,"type":"SCALAR"},{"bufferView":32,"byteOffset":0,"componentType":5126,"count":1250,"max":[0.0414288081228733,0.198207944631577,0.0414303541183472],"min":[-0.04143066704273,0.0000000762937872877956,-0.0414356328547],"type":"VEC3"},{"bufferView":33,"byteOffset":0,"componentType":5126,"count":1250,"type":"VEC3"},{"bufferView":34,"byteOffset":0,"componentType":5126,"count":1250,"type":"VEC4"},{"bufferView":35,"byteOffset":0,"componentType":5126,"count":1250,"type":"VEC2"},{"bufferView":36,"byteOffset":0,"componentType":5126,"count":1250,"type":"VEC2"},{"bufferView":37,"byteOffset":0,"componentType":5123,"count":4146,"type":"SCALAR"},{"bufferView":38,"byteOffset":0,"componentType":5126,"count":837,"max":[0.0414288081228733,0.198207944631577,0.0414428934454918],"min":[-0.04145377501845,0.0000000762937872877956,-0.04154083505273],"type":"VEC3"},{"bufferView":39,"byteOffset":0,"componentType":5126,"count":837,"type":"VEC3"},{"bufferView":40,"byteOffset":0,"componentType":5126,"count":837,"type":"VEC4"},{"bufferView":41,"byteOffset":0,"componentType":5126,"count":837,"type":"VEC2"},{"bufferView":42,"byteOffset":0,"componentType":5126,"count":837,"type":"VEC2"},{"bufferView":43,"byteOffset":0,"componentType":5123,"count":2136,"type":"SCALAR"},{"bufferView":44,"byteOffset":0,"componentType":5126,"count":455,"max":[0.041461419314146,0.199888586997986,0.0417470224201679],"min":[-0.04226836189628,0.00000091038481286887,-0.04155071824789],"type":"VEC3"},{"bufferView":45,"byteOffset":0,"componentType":5126,"count":455,"type":"VEC3"},{"bufferView":46,"byteOffset":0,"componentType":5126,"count":455,"type":"VEC4"},{"bufferView":47,"byteOffset":0,"componentType":5126,"count":455,"type":"VEC2"},{"bufferView":48,"byteOffset":0,"componentType":5126,"count":455,"type":"VEC2"},{"bufferView":49,"byteOffset":0,"componentType":5123,"count":84,"type":"SCALAR"},{"bufferView":50,"byteOffset":0,"componentType":5126,"count":82,"max":[0.0411017797887325,0.203336000442505,0.0404154993593693],"min":[-0.04023530334234,0.00166203686967492,-0.03973817452788],"type":"VEC3"},{"bufferView":51,"byteOffset":0,"componentType":5126,"count":82,"type":"VEC3"},{"bufferView":52,"byteOffset":0,"componentType":5126,"count":82,"type":"VEC2"},{"bufferView":53,"byteOffset":0,"componentType":5126,"count":82,"type":"VEC2"}],"animations":[{"channels":[],"name":"Unreal Take","samplers":[]}],"asset":{"generator":"FBX2glTF v0.13.0","version":"2.0"},"bufferViews":[{"buffer":0,"byteLength":4,"byteOffset":0},{"buffer":0,"byteLength":2520,"byteOffset":4,"target":34963},{"buffer":0,"byteLength":3768,"byteOffset":2524,"target":34962},{"buffer":0,"byteLength":3768,"byteOffset":6292,"target":34962},{"buffer":0,"byteLength":5024,"byteOffset":10060,"target":34962},{"buffer":0,"byteLength":2512,"byteOffset":15084,"target":34962},{"buffer":0,"byteLength":2512,"byteOffset":17596,"target":34962},{"buffer":0,"byteLength":2412,"byteOffset":20108,"target":34963},{"buffer":0,"byteLength":3648,"byteOffset":22520,"target":34962},{"buffer":0,"byteLength":3648,"byteOffset":26168,"target":34962},{"buffer":0,"byteLength":4864,"byteOffset":29816,"target":34962},{"buffer":0,"byteLength":2432,"byteOffset":34680,"target":34962},{"buffer":0,"byteLength":2432,"byteOffset":37112,"target":34962},{"buffer":0,"byteLength":2088,"byteOffset":39544,"target":34963},{"buffer":0,"byteLength":3396,"byteOffset":41632,"target":34962},{"buffer":0,"byteLength":3396,"byteOffset":45028,"target":34962},{"buffer":0,"byteLength":4528,"byteOffset":48424,"target":34962},{"buffer":0,"byteLength":2264,"byteOffset":52952,"target":34962},{"buffer":0,"byteLength":2264,"byteOffset":55216,"target":34962},{"buffer":0,"byteLength":912,"byteOffset":57480,"target":34963},{"buffer":0,"byteLength":1824,"byteOffset":58392,"target":34962},{"buffer":0,"byteLength":1824,"byteOffset":60216,"target":34962},{"buffer":0,"byteLength":2432,"byteOffset":62040,"target":34962},{"buffer":0,"byteLength":1216,"byteOffset":64472,"target":34962},{"buffer":0,"byteLength":1216,"byteOffset":65688,"target":34962},{"buffer":0,"byteLength":18240,"byteOffset":66904,"target":34963},{"buffer":0,"byteLength":20160,"byteOffset":85144,"target":34962},{"buffer":0,"byteLength":20160,"byteOffset":105304,"target":34962},{"buffer":0,"byteLength":26880,"byteOffset":125464,"target":34962},{"buffer":0,"byteLength":13440,"byteOffset":152344,"target":34962},{"buffer":0,"byteLength":13440,"byteOffset":165784,"target":34962},{"buffer":0,"byteLength":13152,"byteOffset":179224,"target":34963},{"buffer":0,"byteLength":15000,"byteOffset":192376,"target":34962},{"buffer":0,"byteLength":15000,"byteOffset":207376,"target":34962},{"buffer":0,"byteLength":20000,"byteOffset":222376,"target":34962},{"buffer":0,"byteLength":10000,"byteOffset":242376,"target":34962},{"buffer":0,"byteLength":10000,"byteOffset":252376,"target":34962},{"buffer":0,"byteLength":8292,"byteOffset":262376,"target":34963},{"buffer":0,"byteLength":10044,"byteOffset":270668,"target":34962},{"buffer":0,"byteLength":10044,"byteOffset":280712,"target":34962},{"buffer":0,"byteLength":13392,"byteOffset":290756,"target":34962},{"buffer":0,"byteLength":6696,"byteOffset":304148,"target":34962},{"buffer":0,"byteLength":6696,"byteOffset":310844,"target":34962},{"buffer":0,"byteLength":4272,"byteOffset":317540,"target":34963},{"buffer":0,"byteLength":5460,"byteOffset":321812,"target":34962},{"buffer":0,"byteLength":5460,"byteOffset":327272,"target":34962},{"buffer":0,"byteLength":7280,"byteOffset":332732,"target":34962},{"buffer":0,"byteLength":3640,"byteOffset":340012,"target":34962},{"buffer":0,"byteLength":3640,"byteOffset":343652,"target":34962},{"buffer":0,"byteLength":168,"byteOffset":347292,"target":34963},{"buffer":0,"byteLength":984,"byteOffset":347460,"target":34962},{"buffer":0,"byteLength":984,"byteOffset":348444,"target":34962},{"buffer":0,"byteLength":656,"byteOffset":349428,"target":34962},{"buffer":0,"byteLength":656,"byteOffset":350084,"target":34962}],"buffers":[{"byteLength":350740,"uri":"SM_FoodPot_05.bin"}],"images":[{"name":"T_FoodPot_N","uri":"T_FoodPot_N.tga"}],"materials":[{"alphaMode":"OPAQUE","doubleSided":false,"extras":{"fromFBX":{"isTruePBR":false,"shadingModel":"Phong"}},"name":"MI_FoodPot","normalTexture":{"index":0,"texCoord":0},"pbrMetallicRoughness":{"baseColorFactor":[0.21586050093174,0.21586050093174,0.21586050093174,1],"metallicFactor":0.400000005960464,"roughnessFactor":0.301511347293854}},{"alphaMode":"OPAQUE","doubleSided":false,"extras":{"fromFBX":{"isTruePBR":false,"shadingModel":"Phong"}},"name":"MI_FoodPot_Glass","pbrMetallicRoughness":{"baseColorFactor":[0.21586050093174,0.21586050093174,0.21586050093174,0],"metallicFactor":0.400000005960464,"roughnessFactor":0.301511347293854}},{"alphaMode":"OPAQUE","doubleSided":false,"extras":{"fromFBX":{"isTruePBR":false,"shadingModel":"Lambert"}},"name":"DefaultMaterial","pbrMetallicRoughness":{"baseColorFactor":[0.5,0.5,0.5,1],"metallicFactor":0.200000002980232,"roughnessFactor":0.800000011920929}}],"meshes":[{"name":"SM_FoodPot_05_LOD0","primitives":[{"attributes":{"NORMAL":3,"POSITION":2,"TANGENT":4,"TEXCOORD_0":5,"TEXCOORD_1":6},"indices":1,"material":0,"mode":4},{"attributes":{"NORMAL":27,"POSITION":26,"TANGENT":28,"TEXCOORD_0":29,"TEXCOORD_1":30},"indices":25,"material":1,"mode":4}]},{"name":"SM_FoodPot_05_LOD1","primitives":[{"attributes":{"NORMAL":9,"POSITION":8,"TANGENT":10,"TEXCOORD_0":11,"TEXCOORD_1":12},"indices":7,"material":0,"mode":4},{"attributes":{"NORMAL":33,"POSITION":32,"TANGENT":34,"TEXCOORD_0":35,"TEXCOORD_1":36},"indices":31,"material":1,"mode":4}]},{"name":"SM_FoodPot_05_LOD2","primitives":[{"attributes":{"NORMAL":15,"POSITION":14,"TANGENT":16,"TEXCOORD_0":17,"TEXCOORD_1":18},"indices":13,"material":0,"mode":4},{"attributes":{"NORMAL":39,"POSITION":38,"TANGENT":40,"TEXCOORD_0":41,"TEXCOORD_1":42},"indices":37,"material":1,"mode":4}]},{"name":"SM_FoodPot_05_LOD3","primitives":[{"attributes":{"NORMAL":21,"POSITION":20,"TANGENT":22,"TEXCOORD_0":23,"TEXCOORD_1":24},"indices":19,"material":0,"mode":4},{"attributes":{"NORMAL":45,"POSITION":44,"TANGENT":46,"TEXCOORD_0":47,"TEXCOORD_1":48},"indices":43,"material":1,"mode":4}]},{"name":"SM_FoodPot_05_ConvexHulls","primitives":[{"attributes":{"NORMAL":51,"POSITION":50,"TEXCOORD_0":52,"TEXCOORD_1":53},"indices":49,"material":2,"mode":4}]}],"nodes":[{"children":[1,2,3,4,5],"name":"SM_FoodPot_41","originalUnits":0.00999999977648258,"pivot":[0,0,0],"rotation":[0,0,0,1],"scale":[1,1,1],"translation":[0,0,0]},{"mesh":0,"name":"SM_FoodPot_05_LOD0","originalUnits":0.00999999977648258,"pivot":[0,0,0],"rotation":[0,0,0,1],"scale":[1,1,1],"translation":[0,0,0]},{"mesh":4,"name":"SM_FoodPot_05_ConvexHulls","originalUnits":0.00999999977648258,"pivot":[0,0,0],"rotation":[0,0,0,1],"scale":[1,1,1],"translation":[0,0,0]},{"mesh":1,"name":"SM_FoodPot_05_LOD1","originalUnits":0.00999999977648258,"pivot":[0,0,0],"rotation":[0,0,0,1],"scale":[1,1,1],"translation":[0,0,0]},{"mesh":2,"name":"SM_FoodPot_05_LOD2","originalUnits":0.00999999977648258,"pivot":[0,0,0],"rotation":[0,0,0,1],"scale":[1,1,1],"translation":[0,0,0]},{"mesh":3,"name":"SM_FoodPot_05_LOD3","originalUnits":0.00999999977648258,"pivot":[0,0,0],"rotation":[0,0,0,1],"scale":[1,1,1],"translation":[0,0,0]}],"samplers":[{}],"scene":0,"scenes":[{"name":"Root Scene","nodes":[0]}],"textures":[{"name":"T_FoodPot_N","sampler":0,"source":0}]}