{"accessors":[{"bufferView":0,"byteOffset":0,"componentType":5126,"count":1,"max":[0],"min":[0],"type":"SCALAR"},{"bufferView":1,"byteOffset":0,"componentType":5123,"count":2940,"type":"SCALAR"},{"bufferView":2,"byteOffset":0,"componentType":5126,"count":609,"max":[0.11780147254467,0.177428588271141,0.11780272424221],"min":[-0.11780149489641,-0.00000259845774,-0.11780272424221],"type":"VEC3"},{"bufferView":3,"byteOffset":0,"componentType":5126,"count":609,"type":"VEC3"},{"bufferView":4,"byteOffset":0,"componentType":5126,"count":609,"type":"VEC4"},{"bufferView":5,"byteOffset":0,"componentType":5126,"count":609,"type":"VEC2"},{"bufferView":6,"byteOffset":0,"componentType":5126,"count":609,"type":"VEC2"},{"bufferView":7,"byteOffset":0,"componentType":5123,"count":2202,"type":"SCALAR"},{"bufferView":8,"byteOffset":0,"componentType":5126,"count":482,"max":[0.11780147254467,0.177428588271141,0.117951527237892],"min":[-0.11780149489641,-0.0001471672731,-0.11780272424221],"type":"VEC3"},{"bufferView":9,"byteOffset":0,"componentType":5126,"count":482,"type":"VEC3"},{"bufferView":10,"byteOffset":0,"componentType":5126,"count":482,"type":"VEC4"},{"bufferView":11,"byteOffset":0,"componentType":5126,"count":482,"type":"VEC2"},{"bufferView":12,"byteOffset":0,"componentType":5126,"count":482,"type":"VEC2"},{"bufferView":13,"byteOffset":0,"componentType":5123,"count":1467,"type":"SCALAR"},{"bufferView":14,"byteOffset":0,"componentType":5126,"count":345,"max":[0.11780147254467,0.178689673542976,0.117951527237892],"min":[-0.11784551292658,-0.00143107736949,-0.11809211224318],"type":"VEC3"},{"bufferView":15,"byteOffset":0,"componentType":5126,"count":345,"type":"VEC3"},{"bufferView":16,"byteOffset":0,"componentType":5126,"count":345,"type":"VEC4"},{"bufferView":17,"byteOffset":0,"componentType":5126,"count":345,"type":"VEC2"},{"bufferView":18,"byteOffset":0,"componentType":5126,"count":345,"type":"VEC2"},{"bufferView":19,"byteOffset":0,"componentType":5123,"count":732,"type":"SCALAR"},{"bufferView":20,"byteOffset":0,"componentType":5126,"count":190,"max":[0.120156422257423,0.179606780409813,0.119616188108921],"min":[-0.11695768684149,-0.00140890968032,-0.11854390799999],"type":"VEC3"},{"bufferView":21,"byteOffset":0,"componentType":5126,"count":190,"type":"VEC3"},{"bufferView":22,"byteOffset":0,"componentType":5126,"count":190,"type":"VEC4"},{"bufferView":23,"byteOffset":0,"componentType":5126,"count":190,"type":"VEC2"},{"bufferView":24,"byteOffset":0,"componentType":5126,"count":190,"type":"VEC2"},{"bufferView":25,"byteOffset":0,"componentType":5123,"count":336,"type":"SCALAR"},{"bufferView":26,"byteOffset":0,"componentType":5126,"count":332,"max":[0.116646289825439,0.176578834652901,0.115052260458469],"min":[-0.11515757441521,-0.00124272226822,-0.11556172370911],"type":"VEC3"},{"bufferView":27,"byteOffset":0,"componentType":5126,"count":332,"type":"VEC3"},{"bufferView":28,"byteOffset":0,"componentType":5126,"count":332,"type":"VEC2"},{"bufferView":29,"byteOffset":0,"componentType":5126,"count":332,"type":"VEC2"}],"animations":[{"channels":[],"name":"Unreal Take","samplers":[]}],"asset":{"generator":"FBX2glTF v0.13.0","version":"2.0"},"bufferViews":[{"buffer":0,"byteLength":4,"byteOffset":0},{"buffer":0,"byteLength":5880,"byteOffset":4,"target":34963},{"buffer":0,"byteLength":7308,"byteOffset":5884,"target":34962},{"buffer":0,"byteLength":7308,"byteOffset":13192,"target":34962},{"buffer":0,"byteLength":9744,"byteOffset":20500,"target":34962},{"buffer":0,"byteLength":4872,"byteOffset":30244,"target":34962},{"buffer":0,"byteLength":4872,"byteOffset":35116,"target":34962},{"buffer":0,"byteLength":4404,"byteOffset":39988,"target":34963},{"buffer":0,"byteLength":5784,"byteOffset":44392,"target":34962},{"buffer":0,"byteLength":5784,"byteOffset":50176,"target":34962},{"buffer":0,"byteLength":7712,"byteOffset":55960,"target":34962},{"buffer":0,"byteLength":3856,"byteOffset":63672,"target":34962},{"buffer":0,"byteLength":3856,"byteOffset":67528,"target":34962},{"buffer":0,"byteLength":2934,"byteOffset":71384,"target":34963},{"buffer":0,"byteLength":4140,"byteOffset":74320,"target":34962},{"buffer":0,"byteLength":4140,"byteOffset":78460,"target":34962},{"buffer":0,"byteLength":5520,"byteOffset":82600,"target":34962},{"buffer":0,"byteLength":2760,"byteOffset":88120,"target":34962},{"buffer":0,"byteLength":2760,"byteOffset":90880,"target":34962},{"buffer":0,"byteLength":1464,"byteOffset":93640,"target":34963},{"buffer":0,"byteLength":2280,"byteOffset":95104,"target":34962},{"buffer":0,"byteLength":2280,"byteOffset":97384,"target":34962},{"buffer":0,"byteLength":3040,"byteOffset":99664,"target":34962},{"buffer":0,"byteLength":1520,"byteOffset":102704,"target":34962},{"buffer":0,"byteLength":1520,"byteOffset":104224,"target":34962},{"buffer":0,"byteLength":672,"byteOffset":105744,"target":34963},{"buffer":0,"byteLength":3984,"byteOffset":106416,"target":34962},{"buffer":0,"byteLength":3984,"byteOffset":110400,"target":34962},{"buffer":0,"byteLength":2656,"byteOffset":114384,"target":34962},{"buffer":0,"byteLength":2656,"byteOffset":117040,"target":34962}],"buffers":[{"byteLength":119696,"uri":"SM_FlowerPot_01.bin"}],"images":[{"name":"T_FlowerPot_N","uri":"T_FlowerPot_N.tga"}],"materials":[{"alphaMode":"OPAQUE","doubleSided":false,"extras":{"fromFBX":{"isTruePBR":false,"shadingModel":"Phong"}},"name":"MI_FlowerPot","normalTexture":{"index":0,"texCoord":0},"pbrMetallicRoughness":{"baseColorFactor":[0.21586050093174,0.21586050093174,0.21586050093174,1],"metallicFactor":0.400000005960464,"roughnessFactor":0.301511347293854}},{"alphaMode":"OPAQUE","doubleSided":false,"extras":{"fromFBX":{"isTruePBR":false,"shadingModel":"Lambert"}},"name":"DefaultMaterial","pbrMetallicRoughness":{"baseColorFactor":[0.5,0.5,0.5,1],"metallicFactor":0.200000002980232,"roughnessFactor":0.800000011920929}}],"meshes":[{"name":"SM_FlowerPot_01_LOD0","primitives":[{"attributes":{"NORMAL":3,"POSITION":2,"TANGENT":4,"TEXCOORD_0":5,"TEXCOORD_1":6},"indices":1,"material":0,"mode":4}]},{"name":"SM_FlowerPot_01_LOD1","primitives":[{"attributes":{"NORMAL":9,"POSITION":8,"TANGENT":10,"TEXCOORD_0":11,"TEXCOORD_1":12},"indices":7,"material":0,"mode":4}]},{"name":"SM_FlowerPot_01_LOD2","primitives":[{"attributes":{"NORMAL":15,"POSITION":14,"TANGENT":16,"TEXCOORD_0":17,"TEXCOORD_1":18},"indices":13,"material":0,"mode":4}]},{"name":"SM_FlowerPot_01_LOD3","primitives":[{"attributes":{"NORMAL":21,"POSITION":20,"TANGENT":22,"TEXCOORD_0":23,"TEXCOORD_1":24},"indices":19,"material":0,"mode":4}]},{"name":"SM_FlowerPot_01_ConvexHulls","primitives":[{"attributes":{"NORMAL":27,"POSITION":26,"TEXCOORD_0":28,"TEXCOORD_1":29},"indices":25,"material":1,"mode":4}]}],"nodes":[{"children":[1,2,3,4,5],"name":"SM_FlowerPot_16","originalUnits":0.00999999977648258,"pivot":[0,0,0],"rotation":[0,0,0,1],"scale":[1,1,1],"translation":[0,0,0]},{"mesh":0,"name":"SM_FlowerPot_01_LOD0","originalUnits":0.00999999977648258,"pivot":[0,0,0],"rotation":[0,0,0,1],"scale":[1,1,1],"translation":[0,0,0]},{"mesh":4,"name":"SM_FlowerPot_01_ConvexHulls","originalUnits":0.00999999977648258,"pivot":[0,0,0],"rotation":[0,0,0,1],"scale":[1,1,1],"translation":[0,0,0]},{"mesh":1,"name":"SM_FlowerPot_01_LOD1","originalUnits":0.00999999977648258,"pivot":[0,0,0],"rotation":[0,0,0,1],"scale":[1,1,1],"translation":[0,0,0]},{"mesh":2,"name":"SM_FlowerPot_01_LOD2","originalUnits":0.00999999977648258,"pivot":[0,0,0],"rotation":[0,0,0,1],"scale":[1,1,1],"translation":[0,0,0]},{"mesh":3,"name":"SM_FlowerPot_01_LOD3","originalUnits":0.00999999977648258,"pivot":[0,0,0],"rotation":[0,0,0,1],"scale":[1,1,1],"translation":[0,0,0]}],"samplers":[{}],"scene":0,"scenes":[{"name":"Root Scene","nodes":[0]}],"textures":[{"name":"T_FlowerPot_N","sampler":0,"source":0}]}