{"accessors":[{"bufferView":0,"byteOffset":0,"componentType":5126,"count":1,"max":[0],"min":[0],"type":"SCALAR"},{"bufferView":1,"byteOffset":0,"componentType":5123,"count":4200,"type":"SCALAR"},{"bufferView":2,"byteOffset":0,"componentType":5126,"count":844,"max":[0.119703948497772,0.311257272958755,0.119704574346542],"min":[-0.11970397830009,-0.01369666866958,-0.11970397084951],"type":"VEC3"},{"bufferView":3,"byteOffset":0,"componentType":5126,"count":844,"type":"VEC3"},{"bufferView":4,"byteOffset":0,"componentType":5126,"count":844,"type":"VEC4"},{"bufferView":5,"byteOffset":0,"componentType":5126,"count":844,"type":"VEC2"},{"bufferView":6,"byteOffset":0,"componentType":5126,"count":844,"type":"VEC2"},{"bufferView":7,"byteOffset":0,"componentType":5123,"count":3180,"type":"SCALAR"},{"bufferView":8,"byteOffset":0,"componentType":5126,"count":661,"max":[0.119703948497772,0.311296999454498,0.119704574346542],"min":[-0.11970397830009,-0.01369687914848,-0.11970397084951],"type":"VEC3"},{"bufferView":9,"byteOffset":0,"componentType":5126,"count":661,"type":"VEC3"},{"bufferView":10,"byteOffset":0,"componentType":5126,"count":661,"type":"VEC4"},{"bufferView":11,"byteOffset":0,"componentType":5126,"count":661,"type":"VEC2"},{"bufferView":12,"byteOffset":0,"componentType":5126,"count":661,"type":"VEC2"},{"bufferView":13,"byteOffset":0,"componentType":5123,"count":2163,"type":"SCALAR"},{"bufferView":14,"byteOffset":0,"componentType":5126,"count":496,"max":[0.119703948497772,0.312315672636032,0.120366618037224],"min":[-0.12024860084057,-0.01373682916164,-0.12127267569304],"type":"VEC3"},{"bufferView":15,"byteOffset":0,"componentType":5126,"count":496,"type":"VEC3"},{"bufferView":16,"byteOffset":0,"componentType":5126,"count":496,"type":"VEC4"},{"bufferView":17,"byteOffset":0,"componentType":5126,"count":496,"type":"VEC2"},{"bufferView":18,"byteOffset":0,"componentType":5126,"count":496,"type":"VEC2"},{"bufferView":19,"byteOffset":0,"componentType":5123,"count":1056,"type":"SCALAR"},{"bufferView":20,"byteOffset":0,"componentType":5126,"count":275,"max":[0.119703948497772,0.312300562858582,0.123625658452511],"min":[-0.1231575012207,-0.01373612973839,-0.12466924637556],"type":"VEC3"},{"bufferView":21,"byteOffset":0,"componentType":5126,"count":275,"type":"VEC3"},{"bufferView":22,"byteOffset":0,"componentType":5126,"count":275,"type":"VEC4"},{"bufferView":23,"byteOffset":0,"componentType":5126,"count":275,"type":"VEC2"},{"bufferView":24,"byteOffset":0,"componentType":5126,"count":275,"type":"VEC2"},{"bufferView":25,"byteOffset":0,"componentType":5123,"count":720,"type":"SCALAR"},{"bufferView":26,"byteOffset":0,"componentType":5126,"count":170,"max":[0.090761661529541,0.340277522802353,0.0907615721225739],"min":[-0.09076173603535,0.310239255428314,-0.09076157212257],"type":"VEC3"},{"bufferView":27,"byteOffset":0,"componentType":5126,"count":170,"type":"VEC3"},{"bufferView":28,"byteOffset":0,"componentType":5126,"count":170,"type":"VEC4"},{"bufferView":29,"byteOffset":0,"componentType":5126,"count":170,"type":"VEC2"},{"bufferView":30,"byteOffset":0,"componentType":5126,"count":170,"type":"VEC2"},{"bufferView":31,"byteOffset":0,"componentType":5123,"count":510,"type":"SCALAR"},{"bufferView":32,"byteOffset":0,"componentType":5126,"count":134,"max":[0.090761661529541,0.340608507394791,0.0907615721225739],"min":[-0.09076173603535,0.310239255428314,-0.09076157212257],"type":"VEC3"},{"bufferView":33,"byteOffset":0,"componentType":5126,"count":134,"type":"VEC3"},{"bufferView":34,"byteOffset":0,"componentType":5126,"count":134,"type":"VEC4"},{"bufferView":35,"byteOffset":0,"componentType":5126,"count":134,"type":"VEC2"},{"bufferView":36,"byteOffset":0,"componentType":5126,"count":134,"type":"VEC2"},{"bufferView":37,"byteOffset":0,"componentType":5123,"count":294,"type":"SCALAR"},{"bufferView":38,"byteOffset":0,"componentType":5126,"count":90,"max":[0.0918427035212517,0.341195225715637,0.0907615721225739],"min":[-0.09136882424355,0.310239255428314,-0.09158924221992],"type":"VEC3"},{"bufferView":39,"byteOffset":0,"componentType":5126,"count":90,"type":"VEC3"},{"bufferView":40,"byteOffset":0,"componentType":5126,"count":90,"type":"VEC4"},{"bufferView":41,"byteOffset":0,"componentType":5126,"count":90,"type":"VEC2"},{"bufferView":42,"byteOffset":0,"componentType":5126,"count":90,"type":"VEC2"},{"bufferView":43,"byteOffset":0,"componentType":5123,"count":174,"type":"SCALAR"},{"bufferView":44,"byteOffset":0,"componentType":5126,"count":61,"max":[0.0903614684939384,0.340681731700897,0.0907615721225739],"min":[-0.09142655134201,0.306452482938766,-0.09158924221992],"type":"VEC3"},{"bufferView":45,"byteOffset":0,"componentType":5126,"count":61,"type":"VEC3"},{"bufferView":46,"byteOffset":0,"componentType":5126,"count":61,"type":"VEC4"},{"bufferView":47,"byteOffset":0,"componentType":5126,"count":61,"type":"VEC2"},{"bufferView":48,"byteOffset":0,"componentType":5126,"count":61,"type":"VEC2"},{"bufferView":49,"byteOffset":0,"componentType":5123,"count":84,"type":"SCALAR"},{"bufferView":50,"byteOffset":0,"componentType":5126,"count":84,"max":[0.118581913411617,0.336198180913925,0.116464659571648],"min":[-0.1081607490778,-0.00427519856021,-0.11645195633173],"type":"VEC3"},{"bufferView":51,"byteOffset":0,"componentType":5126,"count":84,"type":"VEC3"},{"bufferView":52,"byteOffset":0,"componentType":5126,"count":84,"type":"VEC2"},{"bufferView":53,"byteOffset":0,"componentType":5126,"count":84,"type":"VEC2"}],"animations":[{"channels":[],"name":"Unreal Take","samplers":[]}],"asset":{"generator":"FBX2glTF v0.13.0","version":"2.0"},"bufferViews":[{"buffer":0,"byteLength":4,"byteOffset":0},{"buffer":0,"byteLength":8400,"byteOffset":4,"target":34963},{"buffer":0,"byteLength":10128,"byteOffset":8404,"target":34962},{"buffer":0,"byteLength":10128,"byteOffset":18532,"target":34962},{"buffer":0,"byteLength":13504,"byteOffset":28660,"target":34962},{"buffer":0,"byteLength":6752,"byteOffset":42164,"target":34962},{"buffer":0,"byteLength":6752,"byteOffset":48916,"target":34962},{"buffer":0,"byteLength":6360,"byteOffset":55668,"target":34963},{"buffer":0,"byteLength":7932,"byteOffset":62028,"target":34962},{"buffer":0,"byteLength":7932,"byteOffset":69960,"target":34962},{"buffer":0,"byteLength":10576,"byteOffset":77892,"target":34962},{"buffer":0,"byteLength":5288,"byteOffset":88468,"target":34962},{"buffer":0,"byteLength":5288,"byteOffset":93756,"target":34962},{"buffer":0,"byteLength":4326,"byteOffset":99044,"target":34963},{"buffer":0,"byteLength":5952,"byteOffset":103372,"target":34962},{"buffer":0,"byteLength":5952,"byteOffset":109324,"target":34962},{"buffer":0,"byteLength":7936,"byteOffset":115276,"target":34962},{"buffer":0,"byteLength":3968,"byteOffset":123212,"target":34962},{"buffer":0,"byteLength":3968,"byteOffset":127180,"target":34962},{"buffer":0,"byteLength":2112,"byteOffset":131148,"target":34963},{"buffer":0,"byteLength":3300,"byteOffset":133260,"target":34962},{"buffer":0,"byteLength":3300,"byteOffset":136560,"target":34962},{"buffer":0,"byteLength":4400,"byteOffset":139860,"target":34962},{"buffer":0,"byteLength":2200,"byteOffset":144260,"target":34962},{"buffer":0,"byteLength":2200,"byteOffset":146460,"target":34962},{"buffer":0,"byteLength":1440,"byteOffset":148660,"target":34963},{"buffer":0,"byteLength":2040,"byteOffset":150100,"target":34962},{"buffer":0,"byteLength":2040,"byteOffset":152140,"target":34962},{"buffer":0,"byteLength":2720,"byteOffset":154180,"target":34962},{"buffer":0,"byteLength":1360,"byteOffset":156900,"target":34962},{"buffer":0,"byteLength":1360,"byteOffset":158260,"target":34962},{"buffer":0,"byteLength":1020,"byteOffset":159620,"target":34963},{"buffer":0,"byteLength":1608,"byteOffset":160640,"target":34962},{"buffer":0,"byteLength":1608,"byteOffset":162248,"target":34962},{"buffer":0,"byteLength":2144,"byteOffset":163856,"target":34962},{"buffer":0,"byteLength":1072,"byteOffset":166000,"target":34962},{"buffer":0,"byteLength":1072,"byteOffset":167072,"target":34962},{"buffer":0,"byteLength":588,"byteOffset":168144,"target":34963},{"buffer":0,"byteLength":1080,"byteOffset":168732,"target":34962},{"buffer":0,"byteLength":1080,"byteOffset":169812,"target":34962},{"buffer":0,"byteLength":1440,"byteOffset":170892,"target":34962},{"buffer":0,"byteLength":720,"byteOffset":172332,"target":34962},{"buffer":0,"byteLength":720,"byteOffset":173052,"target":34962},{"buffer":0,"byteLength":348,"byteOffset":173772,"target":34963},{"buffer":0,"byteLength":732,"byteOffset":174120,"target":34962},{"buffer":0,"byteLength":732,"byteOffset":174852,"target":34962},{"buffer":0,"byteLength":976,"byteOffset":175584,"target":34962},{"buffer":0,"byteLength":488,"byteOffset":176560,"target":34962},{"buffer":0,"byteLength":488,"byteOffset":177048,"target":34962},{"buffer":0,"byteLength":168,"byteOffset":177536,"target":34963},{"buffer":0,"byteLength":1008,"byteOffset":177704,"target":34962},{"buffer":0,"byteLength":1008,"byteOffset":178712,"target":34962},{"buffer":0,"byteLength":672,"byteOffset":179720,"target":34962},{"buffer":0,"byteLength":672,"byteOffset":180392,"target":34962}],"buffers":[{"byteLength":181064,"uri":"SM_Glass_Jar_A.bin"}],"images":[{"name":"FlatNormal","uri":"FlatNormal.tga"}],"materials":[{"alphaMode":"OPAQUE","doubleSided":false,"extras":{"fromFBX":{"isTruePBR":false,"shadingModel":"Phong"}},"name":"MM_Glass02","pbrMetallicRoughness":{"baseColorFactor":[0.3515625,0.466287314891815,0.5,0],"metallicFactor":0.400000005960464,"roughnessFactor":0.301511347293854}},{"alphaMode":"OPAQUE","doubleSided":false,"extras":{"fromFBX":{"isTruePBR":false,"shadingModel":"Phong"}},"name":"MI_Kitchen_Props_A","normalTexture":{"index":0,"texCoord":0},"pbrMetallicRoughness":{"baseColorFactor":[0.21586050093174,0.21586050093174,0.21586050093174,1],"metallicFactor":0.400000005960464,"roughnessFactor":0.301511347293854}},{"alphaMode":"OPAQUE","doubleSided":false,"extras":{"fromFBX":{"isTruePBR":false,"shadingModel":"Lambert"}},"name":"DefaultMaterial","pbrMetallicRoughness":{"baseColorFactor":[0.5,0.5,0.5,1],"metallicFactor":0.200000002980232,"roughnessFactor":0.800000011920929}}],"meshes":[{"name":"SM_Glass_Jar_A_LOD0","primitives":[{"attributes":{"NORMAL":3,"POSITION":2,"TANGENT":4,"TEXCOORD_0":5,"TEXCOORD_1":6},"indices":1,"material":0,"mode":4},{"attributes":{"NORMAL":27,"POSITION":26,"TANGENT":28,"TEXCOORD_0":29,"TEXCOORD_1":30},"indices":25,"material":1,"mode":4}]},{"name":"SM_Glass_Jar_A_LOD1","primitives":[{"attributes":{"NORMAL":9,"POSITION":8,"TANGENT":10,"TEXCOORD_0":11,"TEXCOORD_1":12},"indices":7,"material":0,"mode":4},{"attributes":{"NORMAL":33,"POSITION":32,"TANGENT":34,"TEXCOORD_0":35,"TEXCOORD_1":36},"indices":31,"material":1,"mode":4}]},{"name":"SM_Glass_Jar_A_LOD2","primitives":[{"attributes":{"NORMAL":15,"POSITION":14,"TANGENT":16,"TEXCOORD_0":17,"TEXCOORD_1":18},"indices":13,"material":0,"mode":4},{"attributes":{"NORMAL":39,"POSITION":38,"TANGENT":40,"TEXCOORD_0":41,"TEXCOORD_1":42},"indices":37,"material":1,"mode":4}]},{"name":"SM_Glass_Jar_A_LOD3","primitives":[{"attributes":{"NORMAL":21,"POSITION":20,"TANGENT":22,"TEXCOORD_0":23,"TEXCOORD_1":24},"indices":19,"material":0,"mode":4},{"attributes":{"NORMAL":45,"POSITION":44,"TANGENT":46,"TEXCOORD_0":47,"TEXCOORD_1":48},"indices":43,"material":1,"mode":4}]},{"name":"SM_Glass_Jar_A_ConvexHulls","primitives":[{"attributes":{"NORMAL":51,"POSITION":50,"TEXCOORD_0":52,"TEXCOORD_1":53},"indices":49,"material":2,"mode":4}]}],"nodes":[{"children":[1,2,3,4,5],"name":"Kitchen_Props_A_Glass_Jar_A8","originalUnits":0.00999999977648258,"pivot":[0,0,0],"rotation":[0,0,0,1],"scale":[1,1,1],"translation":[0,0,0]},{"mesh":0,"name":"SM_Glass_Jar_A_LOD0","originalUnits":0.00999999977648258,"pivot":[0,0,0],"rotation":[0,0,0,1],"scale":[1,1,1],"translation":[0,0,0]},{"mesh":4,"name":"SM_Glass_Jar_A_ConvexHulls","originalUnits":0.00999999977648258,"pivot":[0,0,0],"rotation":[0,0,0,1],"scale":[1,1,1],"translation":[0,0,0]},{"mesh":1,"name":"SM_Glass_Jar_A_LOD1","originalUnits":0.00999999977648258,"pivot":[0,0,0],"rotation":[0,0,0,1],"scale":[1,1,1],"translation":[0,0,0]},{"mesh":2,"name":"SM_Glass_Jar_A_LOD2","originalUnits":0.00999999977648258,"pivot":[0,0,0],"rotation":[0,0,0,1],"scale":[1,1,1],"translation":[0,0,0]},{"mesh":3,"name":"SM_Glass_Jar_A_LOD3","originalUnits":0.00999999977648258,"pivot":[0,0,0],"rotation":[0,0,0,1],"scale":[1,1,1],"translation":[0,0,0]}],"samplers":[{}],"scene":0,"scenes":[{"name":"Root Scene","nodes":[0]}],"textures":[{"name":"T_Default_N","sampler":0,"source":0}]}