{"accessors":[{"bufferView":0,"byteOffset":0,"componentType":5126,"count":1,"max":[0],"min":[0],"type":"SCALAR"},{"bufferView":1,"byteOffset":0,"componentType":5123,"count":3960,"type":"SCALAR"},{"bufferView":2,"byteOffset":0,"componentType":5126,"count":872,"max":[0.0222192071378231,0.252814084291458,0.142823770642281],"min":[-0.02221925929189,-0.00004337295832,-0.06805820763111],"type":"VEC3"},{"bufferView":3,"byteOffset":0,"componentType":5126,"count":872,"type":"VEC3"},{"bufferView":4,"byteOffset":0,"componentType":5126,"count":872,"type":"VEC4"},{"bufferView":5,"byteOffset":0,"componentType":5126,"count":872,"type":"VEC2"},{"bufferView":6,"byteOffset":0,"componentType":5126,"count":872,"type":"VEC2"},{"bufferView":7,"byteOffset":0,"componentType":5123,"count":2970,"type":"SCALAR"},{"bufferView":8,"byteOffset":0,"componentType":5126,"count":691,"max":[0.0222192071378231,0.252814084291458,0.142823770642281],"min":[-0.02221925929189,-0.00004337295832,-0.06805820763111],"type":"VEC3"},{"bufferView":9,"byteOffset":0,"componentType":5126,"count":691,"type":"VEC3"},{"bufferView":10,"byteOffset":0,"componentType":5126,"count":691,"type":"VEC4"},{"bufferView":11,"byteOffset":0,"componentType":5126,"count":691,"type":"VEC2"},{"bufferView":12,"byteOffset":0,"componentType":5126,"count":691,"type":"VEC2"},{"bufferView":13,"byteOffset":0,"componentType":5123,"count":1980,"type":"SCALAR"},{"bufferView":14,"byteOffset":0,"componentType":5126,"count":494,"max":[0.0225724708288908,0.252814084291458,0.142823770642281],"min":[-0.02234627120197,-0.00004337295832,-0.06805820763111],"type":"VEC3"},{"bufferView":15,"byteOffset":0,"componentType":5126,"count":494,"type":"VEC3"},{"bufferView":16,"byteOffset":0,"componentType":5126,"count":494,"type":"VEC4"},{"bufferView":17,"byteOffset":0,"componentType":5126,"count":494,"type":"VEC2"},{"bufferView":18,"byteOffset":0,"componentType":5126,"count":494,"type":"VEC2"},{"bufferView":19,"byteOffset":0,"componentType":5123,"count":990,"type":"SCALAR"},{"bufferView":20,"byteOffset":0,"componentType":5126,"count":284,"max":[0.0230479370802641,0.252814084291458,0.143268197774887],"min":[-0.0225045029074,0.00000835360606288305,-0.06805820763111],"type":"VEC3"},{"bufferView":21,"byteOffset":0,"componentType":5126,"count":284,"type":"VEC3"},{"bufferView":22,"byteOffset":0,"componentType":5126,"count":284,"type":"VEC4"},{"bufferView":23,"byteOffset":0,"componentType":5126,"count":284,"type":"VEC2"},{"bufferView":24,"byteOffset":0,"componentType":5126,"count":284,"type":"VEC2"},{"bufferView":25,"byteOffset":0,"componentType":5123,"count":300,"type":"SCALAR"},{"bufferView":26,"byteOffset":0,"componentType":5126,"count":300,"max":[0.0233176182955503,0.252681702375412,0.143651202321053],"min":[-0.0243084076792,0.00098006729967892,-0.06993787735701],"type":"VEC3"},{"bufferView":27,"byteOffset":0,"componentType":5126,"count":300,"type":"VEC3"},{"bufferView":28,"byteOffset":0,"componentType":5126,"count":300,"type":"VEC2"},{"bufferView":29,"byteOffset":0,"componentType":5126,"count":300,"type":"VEC2"}],"animations":[{"channels":[],"name":"Unreal Take","samplers":[]}],"asset":{"generator":"FBX2glTF v0.13.0","version":"2.0"},"bufferViews":[{"buffer":0,"byteLength":4,"byteOffset":0},{"buffer":0,"byteLength":7920,"byteOffset":4,"target":34963},{"buffer":0,"byteLength":10464,"byteOffset":7924,"target":34962},{"buffer":0,"byteLength":10464,"byteOffset":18388,"target":34962},{"buffer":0,"byteLength":13952,"byteOffset":28852,"target":34962},{"buffer":0,"byteLength":6976,"byteOffset":42804,"target":34962},{"buffer":0,"byteLength":6976,"byteOffset":49780,"target":34962},{"buffer":0,"byteLength":5940,"byteOffset":56756,"target":34963},{"buffer":0,"byteLength":8292,"byteOffset":62696,"target":34962},{"buffer":0,"byteLength":8292,"byteOffset":70988,"target":34962},{"buffer":0,"byteLength":11056,"byteOffset":79280,"target":34962},{"buffer":0,"byteLength":5528,"byteOffset":90336,"target":34962},{"buffer":0,"byteLength":5528,"byteOffset":95864,"target":34962},{"buffer":0,"byteLength":3960,"byteOffset":101392,"target":34963},{"buffer":0,"byteLength":5928,"byteOffset":105352,"target":34962},{"buffer":0,"byteLength":5928,"byteOffset":111280,"target":34962},{"buffer":0,"byteLength":7904,"byteOffset":117208,"target":34962},{"buffer":0,"byteLength":3952,"byteOffset":125112,"target":34962},{"buffer":0,"byteLength":3952,"byteOffset":129064,"target":34962},{"buffer":0,"byteLength":1980,"byteOffset":133016,"target":34963},{"buffer":0,"byteLength":3408,"byteOffset":134996,"target":34962},{"buffer":0,"byteLength":3408,"byteOffset":138404,"target":34962},{"buffer":0,"byteLength":4544,"byteOffset":141812,"target":34962},{"buffer":0,"byteLength":2272,"byteOffset":146356,"target":34962},{"buffer":0,"byteLength":2272,"byteOffset":148628,"target":34962},{"buffer":0,"byteLength":600,"byteOffset":150900,"target":34963},{"buffer":0,"byteLength":3600,"byteOffset":151500,"target":34962},{"buffer":0,"byteLength":3600,"byteOffset":155100,"target":34962},{"buffer":0,"byteLength":2400,"byteOffset":158700,"target":34962},{"buffer":0,"byteLength":2400,"byteOffset":161100,"target":34962}],"buffers":[{"byteLength":163500,"uri":"SM_Glove.bin"}],"images":[{"name":"T_Glove_N","uri":"T_Glove_N.tga"}],"materials":[{"alphaMode":"OPAQUE","doubleSided":false,"extras":{"fromFBX":{"isTruePBR":false,"shadingModel":"Phong"}},"name":"MI_Gloves","normalTexture":{"index":0,"texCoord":0},"pbrMetallicRoughness":{"baseColorFactor":[0.21586050093174,0.21586050093174,0.21586050093174,1],"metallicFactor":0.400000005960464,"roughnessFactor":0.301511347293854}},{"alphaMode":"OPAQUE","doubleSided":false,"extras":{"fromFBX":{"isTruePBR":false,"shadingModel":"Lambert"}},"name":"DefaultMaterial","pbrMetallicRoughness":{"baseColorFactor":[0.5,0.5,0.5,1],"metallicFactor":0.200000002980232,"roughnessFactor":0.800000011920929}}],"meshes":[{"name":"SM_Glove_LOD0","primitives":[{"attributes":{"NORMAL":3,"POSITION":2,"TANGENT":4,"TEXCOORD_0":5,"TEXCOORD_1":6},"indices":1,"material":0,"mode":4}]},{"name":"SM_Glove_LOD1","primitives":[{"attributes":{"NORMAL":9,"POSITION":8,"TANGENT":10,"TEXCOORD_0":11,"TEXCOORD_1":12},"indices":7,"material":0,"mode":4}]},{"name":"SM_Glove_LOD2","primitives":[{"attributes":{"NORMAL":15,"POSITION":14,"TANGENT":16,"TEXCOORD_0":17,"TEXCOORD_1":18},"indices":13,"material":0,"mode":4}]},{"name":"SM_Glove_LOD3","primitives":[{"attributes":{"NORMAL":21,"POSITION":20,"TANGENT":22,"TEXCOORD_0":23,"TEXCOORD_1":24},"indices":19,"material":0,"mode":4}]},{"name":"SM_Glove_ConvexHulls","primitives":[{"attributes":{"NORMAL":27,"POSITION":26,"TEXCOORD_0":28,"TEXCOORD_1":29},"indices":25,"material":1,"mode":4}]}],"nodes":[{"children":[1,2,3,4,5],"name":"SM_Glove_78","originalUnits":0.00999999977648258,"pivot":[0,0,0],"rotation":[0,0,0,1],"scale":[1,1,1],"translation":[0,0,0]},{"mesh":0,"name":"SM_Glove_LOD0","originalUnits":0.00999999977648258,"pivot":[0,0,0],"rotation":[0,0,0,1],"scale":[1,1,1],"translation":[0,0,0]},{"mesh":4,"name":"SM_Glove_ConvexHulls","originalUnits":0.00999999977648258,"pivot":[0,0,0],"rotation":[0,0,0,1],"scale":[1,1,1],"translation":[0,0,0]},{"mesh":1,"name":"SM_Glove_LOD1","originalUnits":0.00999999977648258,"pivot":[0,0,0],"rotation":[0,0,0,1],"scale":[1,1,1],"translation":[0,0,0]},{"mesh":2,"name":"SM_Glove_LOD2","originalUnits":0.00999999977648258,"pivot":[0,0,0],"rotation":[0,0,0,1],"scale":[1,1,1],"translation":[0,0,0]},{"mesh":3,"name":"SM_Glove_LOD3","originalUnits":0.00999999977648258,"pivot":[0,0,0],"rotation":[0,0,0,1],"scale":[1,1,1],"translation":[0,0,0]}],"samplers":[{}],"scene":0,"scenes":[{"name":"Root Scene","nodes":[0]}],"textures":[{"name":"T_Glove_N","sampler":0,"source":0}]}