{"accessors":[{"bufferView":0,"byteOffset":0,"componentType":5126,"count":1,"max":[0],"min":[0],"type":"SCALAR"},{"bufferView":1,"byteOffset":0,"componentType":5123,"count":3360,"type":"SCALAR"},{"bufferView":2,"byteOffset":0,"componentType":5126,"count":896,"max":[0.0444335602223873,0.187554359436035,0.0444337390363216],"min":[-0.04443360865116,-0.00073948263889,-0.04443358629942],"type":"VEC3"},{"bufferView":3,"byteOffset":0,"componentType":5126,"count":896,"type":"VEC3"},{"bufferView":4,"byteOffset":0,"componentType":5126,"count":896,"type":"VEC4"},{"bufferView":5,"byteOffset":0,"componentType":5126,"count":896,"type":"VEC2"},{"bufferView":6,"byteOffset":0,"componentType":5126,"count":896,"type":"VEC2"},{"bufferView":7,"byteOffset":0,"componentType":5123,"count":2520,"type":"SCALAR"},{"bufferView":8,"byteOffset":0,"componentType":5126,"count":688,"max":[0.0444335602223873,0.187554359436035,0.0444337390363216],"min":[-0.04443360865116,-0.00073966622585,-0.04443358629942],"type":"VEC3"},{"bufferView":9,"byteOffset":0,"componentType":5126,"count":688,"type":"VEC3"},{"bufferView":10,"byteOffset":0,"componentType":5126,"count":688,"type":"VEC4"},{"bufferView":11,"byteOffset":0,"componentType":5126,"count":688,"type":"VEC2"},{"bufferView":12,"byteOffset":0,"componentType":5126,"count":688,"type":"VEC2"},{"bufferView":13,"byteOffset":0,"componentType":5123,"count":1680,"type":"SCALAR"},{"bufferView":14,"byteOffset":0,"componentType":5126,"count":484,"max":[0.0444335602223873,0.187584489583969,0.0445173531770706],"min":[-0.04443360865116,-0.0007399833994,-0.0445181466639],"type":"VEC3"},{"bufferView":15,"byteOffset":0,"componentType":5126,"count":484,"type":"VEC3"},{"bufferView":16,"byteOffset":0,"componentType":5126,"count":484,"type":"VEC4"},{"bufferView":17,"byteOffset":0,"componentType":5126,"count":484,"type":"VEC2"},{"bufferView":18,"byteOffset":0,"componentType":5126,"count":484,"type":"VEC2"},{"bufferView":19,"byteOffset":0,"componentType":5123,"count":840,"type":"SCALAR"},{"bufferView":20,"byteOffset":0,"componentType":5126,"count":270,"max":[0.0446458905935287,0.187733680009842,0.0448699370026588],"min":[-0.04461119696498,-0.00119238696061,-0.0442465133965],"type":"VEC3"},{"bufferView":21,"byteOffset":0,"componentType":5126,"count":270,"type":"VEC3"},{"bufferView":22,"byteOffset":0,"componentType":5126,"count":270,"type":"VEC4"},{"bufferView":23,"byteOffset":0,"componentType":5126,"count":270,"type":"VEC2"},{"bufferView":24,"byteOffset":0,"componentType":5126,"count":270,"type":"VEC2"},{"bufferView":25,"byteOffset":0,"componentType":5123,"count":84,"type":"SCALAR"},{"bufferView":26,"byteOffset":0,"componentType":5126,"count":80,"max":[0.0439438968896866,0.186015263199806,0.0425359196960926],"min":[-0.04200369864702,0.00145767908543348,-0.04167000204325],"type":"VEC3"},{"bufferView":27,"byteOffset":0,"componentType":5126,"count":80,"type":"VEC3"},{"bufferView":28,"byteOffset":0,"componentType":5126,"count":80,"type":"VEC2"},{"bufferView":29,"byteOffset":0,"componentType":5126,"count":80,"type":"VEC2"}],"animations":[{"channels":[],"name":"Unreal Take","samplers":[]}],"asset":{"generator":"FBX2glTF v0.13.0","version":"2.0"},"bufferViews":[{"buffer":0,"byteLength":4,"byteOffset":0},{"buffer":0,"byteLength":6720,"byteOffset":4,"target":34963},{"buffer":0,"byteLength":10752,"byteOffset":6724,"target":34962},{"buffer":0,"byteLength":10752,"byteOffset":17476,"target":34962},{"buffer":0,"byteLength":14336,"byteOffset":28228,"target":34962},{"buffer":0,"byteLength":7168,"byteOffset":42564,"target":34962},{"buffer":0,"byteLength":7168,"byteOffset":49732,"target":34962},{"buffer":0,"byteLength":5040,"byteOffset":56900,"target":34963},{"buffer":0,"byteLength":8256,"byteOffset":61940,"target":34962},{"buffer":0,"byteLength":8256,"byteOffset":70196,"target":34962},{"buffer":0,"byteLength":11008,"byteOffset":78452,"target":34962},{"buffer":0,"byteLength":5504,"byteOffset":89460,"target":34962},{"buffer":0,"byteLength":5504,"byteOffset":94964,"target":34962},{"buffer":0,"byteLength":3360,"byteOffset":100468,"target":34963},{"buffer":0,"byteLength":5808,"byteOffset":103828,"target":34962},{"buffer":0,"byteLength":5808,"byteOffset":109636,"target":34962},{"buffer":0,"byteLength":7744,"byteOffset":115444,"target":34962},{"buffer":0,"byteLength":3872,"byteOffset":123188,"target":34962},{"buffer":0,"byteLength":3872,"byteOffset":127060,"target":34962},{"buffer":0,"byteLength":1680,"byteOffset":130932,"target":34963},{"buffer":0,"byteLength":3240,"byteOffset":132612,"target":34962},{"buffer":0,"byteLength":3240,"byteOffset":135852,"target":34962},{"buffer":0,"byteLength":4320,"byteOffset":139092,"target":34962},{"buffer":0,"byteLength":2160,"byteOffset":143412,"target":34962},{"buffer":0,"byteLength":2160,"byteOffset":145572,"target":34962},{"buffer":0,"byteLength":168,"byteOffset":147732,"target":34963},{"buffer":0,"byteLength":960,"byteOffset":147900,"target":34962},{"buffer":0,"byteLength":960,"byteOffset":148860,"target":34962},{"buffer":0,"byteLength":640,"byteOffset":149820,"target":34962},{"buffer":0,"byteLength":640,"byteOffset":150460,"target":34962}],"buffers":[{"byteLength":151100,"uri":"SM_Glass_Cup_A.bin"}],"materials":[{"alphaMode":"OPAQUE","doubleSided":false,"extras":{"fromFBX":{"isTruePBR":false,"shadingModel":"Phong"}},"name":"MI_Glass04","pbrMetallicRoughness":{"baseColorFactor":[0.151738002896309,0.329724997282028,0.583333015441895,0],"metallicFactor":0.400000005960464,"roughnessFactor":0.301511347293854}},{"alphaMode":"OPAQUE","doubleSided":false,"extras":{"fromFBX":{"isTruePBR":false,"shadingModel":"Lambert"}},"name":"DefaultMaterial","pbrMetallicRoughness":{"baseColorFactor":[0.5,0.5,0.5,1],"metallicFactor":0.200000002980232,"roughnessFactor":0.800000011920929}}],"meshes":[{"name":"SM_Glass_Cup_A_LOD0","primitives":[{"attributes":{"NORMAL":3,"POSITION":2,"TANGENT":4,"TEXCOORD_0":5,"TEXCOORD_1":6},"indices":1,"material":0,"mode":4}]},{"name":"SM_Glass_Cup_A_LOD1","primitives":[{"attributes":{"NORMAL":9,"POSITION":8,"TANGENT":10,"TEXCOORD_0":11,"TEXCOORD_1":12},"indices":7,"material":0,"mode":4}]},{"name":"SM_Glass_Cup_A_LOD2","primitives":[{"attributes":{"NORMAL":15,"POSITION":14,"TANGENT":16,"TEXCOORD_0":17,"TEXCOORD_1":18},"indices":13,"material":0,"mode":4}]},{"name":"SM_Glass_Cup_A_LOD3","primitives":[{"attributes":{"NORMAL":21,"POSITION":20,"TANGENT":22,"TEXCOORD_0":23,"TEXCOORD_1":24},"indices":19,"material":0,"mode":4}]},{"name":"SM_Glass_Cup_A_ConvexHulls","primitives":[{"attributes":{"NORMAL":27,"POSITION":26,"TEXCOORD_0":28,"TEXCOORD_1":29},"indices":25,"material":1,"mode":4}]}],"nodes":[{"children":[1,2,3,4,5],"name":"Kitchen_Props_B_Glass_Cup_A4","originalUnits":0.00999999977648258,"pivot":[0,0,0],"rotation":[0,0,0,1],"scale":[1,1,1],"translation":[0,0,0]},{"mesh":0,"name":"SM_Glass_Cup_A_LOD0","originalUnits":0.00999999977648258,"pivot":[0,0,0],"rotation":[0,0,0,1],"scale":[1,1,1],"translation":[0,0,0]},{"mesh":4,"name":"SM_Glass_Cup_A_ConvexHulls","originalUnits":0.00999999977648258,"pivot":[0,0,0],"rotation":[0,0,0,1],"scale":[1,1,1],"translation":[0,0,0]},{"mesh":1,"name":"SM_Glass_Cup_A_LOD1","originalUnits":0.00999999977648258,"pivot":[0,0,0],"rotation":[0,0,0,1],"scale":[1,1,1],"translation":[0,0,0]},{"mesh":2,"name":"SM_Glass_Cup_A_LOD2","originalUnits":0.00999999977648258,"pivot":[0,0,0],"rotation":[0,0,0,1],"scale":[1,1,1],"translation":[0,0,0]},{"mesh":3,"name":"SM_Glass_Cup_A_LOD3","originalUnits":0.00999999977648258,"pivot":[0,0,0],"rotation":[0,0,0,1],"scale":[1,1,1],"translation":[0,0,0]}],"samplers":[{}],"scene":0,"scenes":[{"name":"Root Scene","nodes":[0]}]}