{"accessors":[{"bufferView":0,"byteOffset":0,"componentType":5126,"count":1,"max":[0],"min":[0],"type":"SCALAR"},{"bufferView":1,"byteOffset":0,"componentType":5123,"count":288,"type":"SCALAR"},{"bufferView":2,"byteOffset":0,"componentType":5126,"count":63,"max":[11.9248218536377,0.0134216770529747,0.0529334433376789],"min":[5.25813341140747,0.0134202726185322,-5.49087810516357],"type":"VEC3"},{"bufferView":3,"byteOffset":0,"componentType":5126,"count":63,"type":"VEC3"},{"bufferView":4,"byteOffset":0,"componentType":5126,"count":63,"type":"VEC4"},{"bufferView":5,"byteOffset":0,"componentType":5126,"count":63,"type":"VEC4"},{"bufferView":6,"byteOffset":0,"componentType":5126,"count":63,"type":"VEC2"},{"bufferView":7,"byteOffset":0,"componentType":5126,"count":63,"type":"VEC2"},{"bufferView":8,"byteOffset":0,"componentType":5123,"count":177,"type":"SCALAR"},{"bufferView":9,"byteOffset":0,"componentType":5126,"count":41,"max":[11.9248218536377,0.0134216770529747,0.0529334433376789],"min":[5.25813341140747,0.0134202726185322,-5.49087810516357],"type":"VEC3"},{"bufferView":10,"byteOffset":0,"componentType":5126,"count":41,"type":"VEC3"},{"bufferView":11,"byteOffset":0,"componentType":5126,"count":41,"type":"VEC4"},{"bufferView":12,"byteOffset":0,"componentType":5126,"count":41,"type":"VEC4"},{"bufferView":13,"byteOffset":0,"componentType":5126,"count":41,"type":"VEC2"},{"bufferView":14,"byteOffset":0,"componentType":5126,"count":41,"type":"VEC2"},{"bufferView":15,"byteOffset":0,"componentType":5123,"count":6,"type":"SCALAR"},{"bufferView":16,"byteOffset":0,"componentType":5126,"count":4,"max":[11.9248218536377,0.0134216770529747,0.0529334209859371],"min":[5.25813341140747,0.0134202726185322,-5.49087810516357],"type":"VEC3"},{"bufferView":17,"byteOffset":0,"componentType":5126,"count":4,"type":"VEC3"},{"bufferView":18,"byteOffset":0,"componentType":5126,"count":4,"type":"VEC4"},{"bufferView":19,"byteOffset":0,"componentType":5126,"count":4,"type":"VEC4"},{"bufferView":20,"byteOffset":0,"componentType":5126,"count":4,"type":"VEC2"},{"bufferView":21,"byteOffset":0,"componentType":5126,"count":4,"type":"VEC2"},{"bufferView":22,"byteOffset":0,"componentType":5123,"count":6,"type":"SCALAR"},{"bufferView":23,"byteOffset":0,"componentType":5126,"count":4,"max":[11.9248218536377,0.0134216770529747,0.0529334209859371],"min":[5.25813341140747,0.0134202726185322,-5.49087810516357],"type":"VEC3"},{"bufferView":24,"byteOffset":0,"componentType":5126,"count":4,"type":"VEC3"},{"bufferView":25,"byteOffset":0,"componentType":5126,"count":4,"type":"VEC4"},{"bufferView":26,"byteOffset":0,"componentType":5126,"count":4,"type":"VEC4"},{"bufferView":27,"byteOffset":0,"componentType":5126,"count":4,"type":"VEC2"},{"bufferView":28,"byteOffset":0,"componentType":5126,"count":4,"type":"VEC2"},{"bufferView":29,"byteOffset":0,"componentType":5123,"count":1038,"type":"SCALAR"},{"bufferView":30,"byteOffset":0,"componentType":5126,"count":204,"max":[7.96877813339233,0.0134205957874656,9.12927150726318],"min":[-6.78405237197876,0.0134188374504447,-10.5112457275391],"type":"VEC3"},{"bufferView":31,"byteOffset":0,"componentType":5126,"count":204,"type":"VEC3"},{"bufferView":32,"byteOffset":0,"componentType":5126,"count":204,"type":"VEC4"},{"bufferView":33,"byteOffset":0,"componentType":5126,"count":204,"type":"VEC4"},{"bufferView":34,"byteOffset":0,"componentType":5126,"count":204,"type":"VEC2"},{"bufferView":35,"byteOffset":0,"componentType":5126,"count":204,"type":"VEC2"},{"bufferView":36,"byteOffset":0,"componentType":5123,"count":816,"type":"SCALAR"},{"bufferView":37,"byteOffset":0,"componentType":5126,"count":160,"max":[7.96877813339233,0.0134205957874656,9.12927150726318],"min":[-6.78405237197876,0.0134188374504447,-10.5112457275391],"type":"VEC3"},{"bufferView":38,"byteOffset":0,"componentType":5126,"count":160,"type":"VEC3"},{"bufferView":39,"byteOffset":0,"componentType":5126,"count":160,"type":"VEC4"},{"bufferView":40,"byteOffset":0,"componentType":5126,"count":160,"type":"VEC4"},{"bufferView":41,"byteOffset":0,"componentType":5126,"count":160,"type":"VEC2"},{"bufferView":42,"byteOffset":0,"componentType":5126,"count":160,"type":"VEC2"},{"bufferView":43,"byteOffset":0,"componentType":5123,"count":657,"type":"SCALAR"},{"bufferView":44,"byteOffset":0,"componentType":5126,"count":125,"max":[7.96877813339233,0.0134205957874656,9.12927150726318],"min":[-6.78405237197876,0.0134188374504447,-10.5112447738647],"type":"VEC3"},{"bufferView":45,"byteOffset":0,"componentType":5126,"count":125,"type":"VEC3"},{"bufferView":46,"byteOffset":0,"componentType":5126,"count":125,"type":"VEC4"},{"bufferView":47,"byteOffset":0,"componentType":5126,"count":125,"type":"VEC4"},{"bufferView":48,"byteOffset":0,"componentType":5126,"count":125,"type":"VEC2"},{"bufferView":49,"byteOffset":0,"componentType":5126,"count":125,"type":"VEC2"},{"bufferView":50,"byteOffset":0,"componentType":5123,"count":327,"type":"SCALAR"},{"bufferView":51,"byteOffset":0,"componentType":5126,"count":64,"max":[7.96877813339233,0.0134205957874656,9.12927150726318],"min":[-6.78405237197876,0.0134188374504447,-10.5112447738647],"type":"VEC3"},{"bufferView":52,"byteOffset":0,"componentType":5126,"count":64,"type":"VEC3"},{"bufferView":53,"byteOffset":0,"componentType":5126,"count":64,"type":"VEC4"},{"bufferView":54,"byteOffset":0,"componentType":5126,"count":64,"type":"VEC4"},{"bufferView":55,"byteOffset":0,"componentType":5126,"count":64,"type":"VEC2"},{"bufferView":56,"byteOffset":0,"componentType":5126,"count":64,"type":"VEC2"}],"animations":[{"channels":[],"name":"Unreal Take","samplers":[]}],"asset":{"generator":"FBX2glTF v0.13.0","version":"2.0"},"bufferViews":[{"buffer":0,"byteLength":4,"byteOffset":0},{"buffer":0,"byteLength":576,"byteOffset":4,"target":34963},{"buffer":0,"byteLength":756,"byteOffset":580,"target":34962},{"buffer":0,"byteLength":756,"byteOffset":1336,"target":34962},{"buffer":0,"byteLength":1008,"byteOffset":2092,"target":34962},{"buffer":0,"byteLength":1008,"byteOffset":3100,"target":34962},{"buffer":0,"byteLength":504,"byteOffset":4108,"target":34962},{"buffer":0,"byteLength":504,"byteOffset":4612,"target":34962},{"buffer":0,"byteLength":354,"byteOffset":5116,"target":34963},{"buffer":0,"byteLength":492,"byteOffset":5472,"target":34962},{"buffer":0,"byteLength":492,"byteOffset":5964,"target":34962},{"buffer":0,"byteLength":656,"byteOffset":6456,"target":34962},{"buffer":0,"byteLength":656,"byteOffset":7112,"target":34962},{"buffer":0,"byteLength":328,"byteOffset":7768,"target":34962},{"buffer":0,"byteLength":328,"byteOffset":8096,"target":34962},{"buffer":0,"byteLength":12,"byteOffset":8424,"target":34963},{"buffer":0,"byteLength":48,"byteOffset":8436,"target":34962},{"buffer":0,"byteLength":48,"byteOffset":8484,"target":34962},{"buffer":0,"byteLength":64,"byteOffset":8532,"target":34962},{"buffer":0,"byteLength":64,"byteOffset":8596,"target":34962},{"buffer":0,"byteLength":32,"byteOffset":8660,"target":34962},{"buffer":0,"byteLength":32,"byteOffset":8692,"target":34962},{"buffer":0,"byteLength":12,"byteOffset":8724,"target":34963},{"buffer":0,"byteLength":48,"byteOffset":8736,"target":34962},{"buffer":0,"byteLength":48,"byteOffset":8784,"target":34962},{"buffer":0,"byteLength":64,"byteOffset":8832,"target":34962},{"buffer":0,"byteLength":64,"byteOffset":8896,"target":34962},{"buffer":0,"byteLength":32,"byteOffset":8960,"target":34962},{"buffer":0,"byteLength":32,"byteOffset":8992,"target":34962},{"buffer":0,"byteLength":2076,"byteOffset":9024,"target":34963},{"buffer":0,"byteLength":2448,"byteOffset":11100,"target":34962},{"buffer":0,"byteLength":2448,"byteOffset":13548,"target":34962},{"buffer":0,"byteLength":3264,"byteOffset":15996,"target":34962},{"buffer":0,"byteLength":3264,"byteOffset":19260,"target":34962},{"buffer":0,"byteLength":1632,"byteOffset":22524,"target":34962},{"buffer":0,"byteLength":1632,"byteOffset":24156,"target":34962},{"buffer":0,"byteLength":1632,"byteOffset":25788,"target":34963},{"buffer":0,"byteLength":1920,"byteOffset":27420,"target":34962},{"buffer":0,"byteLength":1920,"byteOffset":29340,"target":34962},{"buffer":0,"byteLength":2560,"byteOffset":31260,"target":34962},{"buffer":0,"byteLength":2560,"byteOffset":33820,"target":34962},{"buffer":0,"byteLength":1280,"byteOffset":36380,"target":34962},{"buffer":0,"byteLength":1280,"byteOffset":37660,"target":34962},{"buffer":0,"byteLength":1314,"byteOffset":38940,"target":34963},{"buffer":0,"byteLength":1500,"byteOffset":40256,"target":34962},{"buffer":0,"byteLength":1500,"byteOffset":41756,"target":34962},{"buffer":0,"byteLength":2000,"byteOffset":43256,"target":34962},{"buffer":0,"byteLength":2000,"byteOffset":45256,"target":34962},{"buffer":0,"byteLength":1000,"byteOffset":47256,"target":34962},{"buffer":0,"byteLength":1000,"byteOffset":48256,"target":34962},{"buffer":0,"byteLength":654,"byteOffset":49256,"target":34963},{"buffer":0,"byteLength":768,"byteOffset":49912,"target":34962},{"buffer":0,"byteLength":768,"byteOffset":50680,"target":34962},{"buffer":0,"byteLength":1024,"byteOffset":51448,"target":34962},{"buffer":0,"byteLength":1024,"byteOffset":52472,"target":34962},{"buffer":0,"byteLength":512,"byteOffset":53496,"target":34962},{"buffer":0,"byteLength":512,"byteOffset":54008,"target":34962}],"buffers":[{"byteLength":54520,"uri":"SM_House_Floor.bin"}],"images":[{"name":"FlatNormal","uri":"FlatNormal.tga"},{"name":"Wood_Floor_A_Normal","uri":"Wood_Floor_A_Normal.tga"},{"name":"Wood_Floor_A_Diffuse","uri":"Wood_Floor_A_Diffuse.tga"}],"materials":[{"alphaMode":"OPAQUE","doubleSided":false,"extras":{"fromFBX":{"isTruePBR":false,"shadingModel":"Phong"}},"name":"MI_Bathroom_Floor_Tiles","normalTexture":{"index":0,"texCoord":0},"pbrMetallicRoughness":{"baseColorFactor":[0.21586050093174,0.21586050093174,0.21586050093174,1],"metallicFactor":0.400000005960464,"roughnessFactor":0.301511347293854}},{"alphaMode":"OPAQUE","doubleSided":false,"extras":{"fromFBX":{"isTruePBR":false,"shadingModel":"Phong"}},"name":"MI_Wood_Floor","normalTexture":{"index":1,"texCoord":0},"pbrMetallicRoughness":{"baseColorFactor":[1,1,1,1],"baseColorTexture":{"index":2,"texCoord":0},"metallicFactor":0.400000005960464,"roughnessFactor":0.301511347293854}}],"meshes":[{"name":"SM_House_Floor_LOD0","primitives":[{"attributes":{"COLOR_0":5,"NORMAL":3,"POSITION":2,"TANGENT":4,"TEXCOORD_0":6,"TEXCOORD_1":7},"indices":1,"material":0,"mode":4},{"attributes":{"COLOR_0":33,"NORMAL":31,"POSITION":30,"TANGENT":32,"TEXCOORD_0":34,"TEXCOORD_1":35},"indices":29,"material":1,"mode":4}]},{"name":"SM_House_Floor_LOD1","primitives":[{"attributes":{"COLOR_0":12,"NORMAL":10,"POSITION":9,"TANGENT":11,"TEXCOORD_0":13,"TEXCOORD_1":14},"indices":8,"material":0,"mode":4},{"attributes":{"COLOR_0":40,"NORMAL":38,"POSITION":37,"TANGENT":39,"TEXCOORD_0":41,"TEXCOORD_1":42},"indices":36,"material":1,"mode":4}]},{"name":"SM_House_Floor_LOD2","primitives":[{"attributes":{"COLOR_0":19,"NORMAL":17,"POSITION":16,"TANGENT":18,"TEXCOORD_0":20,"TEXCOORD_1":21},"indices":15,"material":0,"mode":4},{"attributes":{"COLOR_0":47,"NORMAL":45,"POSITION":44,"TANGENT":46,"TEXCOORD_0":48,"TEXCOORD_1":49},"indices":43,"material":1,"mode":4}]},{"name":"SM_House_Floor_LOD3","primitives":[{"attributes":{"COLOR_0":26,"NORMAL":24,"POSITION":23,"TANGENT":25,"TEXCOORD_0":27,"TEXCOORD_1":28},"indices":22,"material":0,"mode":4},{"attributes":{"COLOR_0":54,"NORMAL":52,"POSITION":51,"TANGENT":53,"TEXCOORD_0":55,"TEXCOORD_1":56},"indices":50,"material":1,"mode":4}]}],"nodes":[{"children":[1,2,3,4,5],"name":"House_Floor_2","originalUnits":0.00999999977648258,"pivot":[0,0,0],"rotation":[0,0,0,1],"scale":[1,1,1],"translation":[0,0,0]},{"mesh":0,"name":"SM_House_Floor_LOD0","originalUnits":0.00999999977648258,"pivot":[0,0,0],"rotation":[0,0,0,1],"scale":[1,1,1],"translation":[0,0,0]},{"name":"SM_House_Floor_ConvexHulls","originalUnits":0.00999999977648258,"pivot":[0,0,0],"rotation":[0,0,0,1],"scale":[1,1,1],"translation":[0,0,0]},{"mesh":1,"name":"SM_House_Floor_LOD1","originalUnits":0.00999999977648258,"pivot":[0,0,0],"rotation":[0,0,0,1],"scale":[1,1,1],"translation":[0,0,0]},{"mesh":2,"name":"SM_House_Floor_LOD2","originalUnits":0.00999999977648258,"pivot":[0,0,0],"rotation":[0,0,0,1],"scale":[1,1,1],"translation":[0,0,0]},{"mesh":3,"name":"SM_House_Floor_LOD3","originalUnits":0.00999999977648258,"pivot":[0,0,0],"rotation":[0,0,0,1],"scale":[1,1,1],"translation":[0,0,0]}],"samplers":[{}],"scene":0,"scenes":[{"name":"Root Scene","nodes":[0]}],"textures":[{"name":"T_Default_N","sampler":0,"source":0},{"name":"T_Wood_Floor_A_N","sampler":0,"source":1},{"name":"T_Wood_Floor_A_D","sampler":0,"source":2}]}