{"accessors":[{"bufferView":0,"byteOffset":0,"componentType":5126,"count":1,"max":[0],"min":[0],"type":"SCALAR"},{"bufferView":1,"byteOffset":0,"componentType":5123,"count":4824,"type":"SCALAR"},{"bufferView":2,"byteOffset":0,"componentType":5126,"count":1329,"max":[12.1190118789673,3.32632327079773,9.16135311126709],"min":[-6.81897497177124,-0.14423143863678,-10.543327331543],"type":"VEC3"},{"bufferView":3,"byteOffset":0,"componentType":5126,"count":1329,"type":"VEC3"},{"bufferView":4,"byteOffset":0,"componentType":5126,"count":1329,"type":"VEC4"},{"bufferView":5,"byteOffset":0,"componentType":5126,"count":1329,"type":"VEC2"},{"bufferView":6,"byteOffset":0,"componentType":5126,"count":1329,"type":"VEC2"},{"bufferView":7,"byteOffset":0,"componentType":5123,"count":3615,"type":"SCALAR"},{"bufferView":8,"byteOffset":0,"componentType":5126,"count":1113,"max":[12.1190118789673,3.32632327079773,9.16135311126709],"min":[-6.81897497177124,-0.14423143863678,-10.543327331543],"type":"VEC3"},{"bufferView":9,"byteOffset":0,"componentType":5126,"count":1113,"type":"VEC3"},{"bufferView":10,"byteOffset":0,"componentType":5126,"count":1113,"type":"VEC4"},{"bufferView":11,"byteOffset":0,"componentType":5126,"count":1113,"type":"VEC2"},{"bufferView":12,"byteOffset":0,"componentType":5126,"count":1113,"type":"VEC2"},{"bufferView":13,"byteOffset":0,"componentType":5123,"count":2412,"type":"SCALAR"},{"bufferView":14,"byteOffset":0,"componentType":5126,"count":845,"max":[12.1190118789673,3.32632327079773,9.16135311126709],"min":[-6.81897497177124,-0.14423140883446,-10.543327331543],"type":"VEC3"},{"bufferView":15,"byteOffset":0,"componentType":5126,"count":845,"type":"VEC3"},{"bufferView":16,"byteOffset":0,"componentType":5126,"count":845,"type":"VEC4"},{"bufferView":17,"byteOffset":0,"componentType":5126,"count":845,"type":"VEC2"},{"bufferView":18,"byteOffset":0,"componentType":5126,"count":845,"type":"VEC2"},{"bufferView":19,"byteOffset":0,"componentType":5123,"count":1206,"type":"SCALAR"},{"bufferView":20,"byteOffset":0,"componentType":5126,"count":515,"max":[12.1219911575317,3.33602857589722,9.16135311126709],"min":[-6.81898832321167,-0.14423042535782,-10.5512189865112],"type":"VEC3"},{"bufferView":21,"byteOffset":0,"componentType":5126,"count":515,"type":"VEC3"},{"bufferView":22,"byteOffset":0,"componentType":5126,"count":515,"type":"VEC4"},{"bufferView":23,"byteOffset":0,"componentType":5126,"count":515,"type":"VEC2"},{"bufferView":24,"byteOffset":0,"componentType":5126,"count":515,"type":"VEC2"}],"animations":[{"channels":[],"name":"Unreal Take","samplers":[]}],"asset":{"generator":"FBX2glTF v0.13.0","version":"2.0"},"bufferViews":[{"buffer":0,"byteLength":4,"byteOffset":0},{"buffer":0,"byteLength":9648,"byteOffset":4,"target":34963},{"buffer":0,"byteLength":15948,"byteOffset":9652,"target":34962},{"buffer":0,"byteLength":15948,"byteOffset":25600,"target":34962},{"buffer":0,"byteLength":21264,"byteOffset":41548,"target":34962},{"buffer":0,"byteLength":10632,"byteOffset":62812,"target":34962},{"buffer":0,"byteLength":10632,"byteOffset":73444,"target":34962},{"buffer":0,"byteLength":7230,"byteOffset":84076,"target":34963},{"buffer":0,"byteLength":13356,"byteOffset":91308,"target":34962},{"buffer":0,"byteLength":13356,"byteOffset":104664,"target":34962},{"buffer":0,"byteLength":17808,"byteOffset":118020,"target":34962},{"buffer":0,"byteLength":8904,"byteOffset":135828,"target":34962},{"buffer":0,"byteLength":8904,"byteOffset":144732,"target":34962},{"buffer":0,"byteLength":4824,"byteOffset":153636,"target":34963},{"buffer":0,"byteLength":10140,"byteOffset":158460,"target":34962},{"buffer":0,"byteLength":10140,"byteOffset":168600,"target":34962},{"buffer":0,"byteLength":13520,"byteOffset":178740,"target":34962},{"buffer":0,"byteLength":6760,"byteOffset":192260,"target":34962},{"buffer":0,"byteLength":6760,"byteOffset":199020,"target":34962},{"buffer":0,"byteLength":2412,"byteOffset":205780,"target":34963},{"buffer":0,"byteLength":6180,"byteOffset":208192,"target":34962},{"buffer":0,"byteLength":6180,"byteOffset":214372,"target":34962},{"buffer":0,"byteLength":8240,"byteOffset":220552,"target":34962},{"buffer":0,"byteLength":4120,"byteOffset":228792,"target":34962},{"buffer":0,"byteLength":4120,"byteOffset":232912,"target":34962}],"buffers":[{"byteLength":237032,"uri":"SM_House_Outer_Walls.bin"}],"materials":[{"alphaMode":"OPAQUE","doubleSided":false,"extras":{"fromFBX":{"isTruePBR":false,"shadingModel":"Phong"}},"name":"MM_Counter_Top_01","pbrMetallicRoughness":{"baseColorFactor":[0.13671900331974,0.291667014360428,0.254029989242554,1],"metallicFactor":0.400000005960464,"roughnessFactor":0.301511347293854}}],"meshes":[{"name":"SM_House_Outer_Walls_LOD0","primitives":[{"attributes":{"NORMAL":3,"POSITION":2,"TANGENT":4,"TEXCOORD_0":5,"TEXCOORD_1":6},"indices":1,"material":0,"mode":4}]},{"name":"SM_House_Outer_Walls_LOD1","primitives":[{"attributes":{"NORMAL":9,"POSITION":8,"TANGENT":10,"TEXCOORD_0":11,"TEXCOORD_1":12},"indices":7,"material":0,"mode":4}]},{"name":"SM_House_Outer_Walls_LOD2","primitives":[{"attributes":{"NORMAL":15,"POSITION":14,"TANGENT":16,"TEXCOORD_0":17,"TEXCOORD_1":18},"indices":13,"material":0,"mode":4}]},{"name":"SM_House_Outer_Walls_LOD3","primitives":[{"attributes":{"NORMAL":21,"POSITION":20,"TANGENT":22,"TEXCOORD_0":23,"TEXCOORD_1":24},"indices":19,"material":0,"mode":4}]}],"nodes":[{"children":[1,2,3,4,5],"name":"House_Outer_Walls_SM_4","originalUnits":0.00999999977648258,"pivot":[0,0,0],"rotation":[0,0,0,1],"scale":[1,1,1],"translation":[0,0,0]},{"mesh":0,"name":"SM_House_Outer_Walls_LOD0","originalUnits":0.00999999977648258,"pivot":[0,0,0],"rotation":[0,0,0,1],"scale":[1,1,1],"translation":[0,0,0]},{"name":"SM_House_Outer_Walls_ConvexHulls","originalUnits":0.00999999977648258,"pivot":[0,0,0],"rotation":[0,0,0,1],"scale":[1,1,1],"translation":[0,0,0]},{"mesh":1,"name":"SM_House_Outer_Walls_LOD1","originalUnits":0.00999999977648258,"pivot":[0,0,0],"rotation":[0,0,0,1],"scale":[1,1,1],"translation":[0,0,0]},{"mesh":2,"name":"SM_House_Outer_Walls_LOD2","originalUnits":0.00999999977648258,"pivot":[0,0,0],"rotation":[0,0,0,1],"scale":[1,1,1],"translation":[0,0,0]},{"mesh":3,"name":"SM_House_Outer_Walls_LOD3","originalUnits":0.00999999977648258,"pivot":[0,0,0],"rotation":[0,0,0,1],"scale":[1,1,1],"translation":[0,0,0]}],"samplers":[{}],"scene":0,"scenes":[{"name":"Root Scene","nodes":[0]}]}