{"accessors":[{"bufferView":0,"byteOffset":0,"componentType":5126,"count":1,"max":[0],"min":[0],"type":"SCALAR"},{"bufferView":1,"byteOffset":0,"componentType":5123,"count":276,"type":"SCALAR"},{"bufferView":2,"byteOffset":0,"componentType":5126,"count":124,"max":[0.140211328864098,0.161267966032028,0.643133759498596],"min":[-0.22007623314858,0.0000000165331002222047,-0.63328224420547],"type":"VEC3"},{"bufferView":3,"byteOffset":0,"componentType":5126,"count":124,"type":"VEC3"},{"bufferView":4,"byteOffset":0,"componentType":5126,"count":124,"type":"VEC4"},{"bufferView":5,"byteOffset":0,"componentType":5126,"count":124,"type":"VEC2"},{"bufferView":6,"byteOffset":0,"componentType":5126,"count":124,"type":"VEC2"},{"bufferView":7,"byteOffset":0,"componentType":5123,"count":204,"type":"SCALAR"},{"bufferView":8,"byteOffset":0,"componentType":5126,"count":104,"max":[0.140211343765259,0.161267980933189,0.643133759498596],"min":[-0.22007623314858,0.0000000165331002222047,-0.63328224420547],"type":"VEC3"},{"bufferView":9,"byteOffset":0,"componentType":5126,"count":104,"type":"VEC3"},{"bufferView":10,"byteOffset":0,"componentType":5126,"count":104,"type":"VEC4"},{"bufferView":11,"byteOffset":0,"componentType":5126,"count":104,"type":"VEC2"},{"bufferView":12,"byteOffset":0,"componentType":5126,"count":104,"type":"VEC2"},{"bufferView":13,"byteOffset":0,"componentType":5123,"count":138,"type":"SCALAR"},{"bufferView":14,"byteOffset":0,"componentType":5126,"count":82,"max":[0.140211328864098,0.161267980933189,0.643133461475372],"min":[-0.22007623314858,-0.00955505948514,-0.63328218460083],"type":"VEC3"},{"bufferView":15,"byteOffset":0,"componentType":5126,"count":82,"type":"VEC3"},{"bufferView":16,"byteOffset":0,"componentType":5126,"count":82,"type":"VEC4"},{"bufferView":17,"byteOffset":0,"componentType":5126,"count":82,"type":"VEC2"},{"bufferView":18,"byteOffset":0,"componentType":5126,"count":82,"type":"VEC2"},{"bufferView":19,"byteOffset":0,"componentType":5123,"count":66,"type":"SCALAR"},{"bufferView":20,"byteOffset":0,"componentType":5126,"count":48,"max":[0.145283490419388,0.165102079510689,0.643864512443542],"min":[-0.22282515466213,-0.03937039524317,-0.63617467880249],"type":"VEC3"},{"bufferView":21,"byteOffset":0,"componentType":5126,"count":48,"type":"VEC3"},{"bufferView":22,"byteOffset":0,"componentType":5126,"count":48,"type":"VEC4"},{"bufferView":23,"byteOffset":0,"componentType":5126,"count":48,"type":"VEC2"},{"bufferView":24,"byteOffset":0,"componentType":5126,"count":48,"type":"VEC2"},{"bufferView":25,"byteOffset":0,"componentType":5123,"count":258,"type":"SCALAR"},{"bufferView":26,"byteOffset":0,"componentType":5126,"count":230,"max":[0.14678031206131,0.168322861194611,0.646733999252319],"min":[-0.22401103377342,-0.00716757029295,-0.64095509052277],"type":"VEC3"},{"bufferView":27,"byteOffset":0,"componentType":5126,"count":230,"type":"VEC3"},{"bufferView":28,"byteOffset":0,"componentType":5126,"count":230,"type":"VEC2"},{"bufferView":29,"byteOffset":0,"componentType":5126,"count":230,"type":"VEC2"}],"animations":[{"channels":[],"name":"Unreal Take","samplers":[]}],"asset":{"generator":"FBX2glTF v0.13.0","version":"2.0"},"bufferViews":[{"buffer":0,"byteLength":4,"byteOffset":0},{"buffer":0,"byteLength":552,"byteOffset":4,"target":34963},{"buffer":0,"byteLength":1488,"byteOffset":556,"target":34962},{"buffer":0,"byteLength":1488,"byteOffset":2044,"target":34962},{"buffer":0,"byteLength":1984,"byteOffset":3532,"target":34962},{"buffer":0,"byteLength":992,"byteOffset":5516,"target":34962},{"buffer":0,"byteLength":992,"byteOffset":6508,"target":34962},{"buffer":0,"byteLength":408,"byteOffset":7500,"target":34963},{"buffer":0,"byteLength":1248,"byteOffset":7908,"target":34962},{"buffer":0,"byteLength":1248,"byteOffset":9156,"target":34962},{"buffer":0,"byteLength":1664,"byteOffset":10404,"target":34962},{"buffer":0,"byteLength":832,"byteOffset":12068,"target":34962},{"buffer":0,"byteLength":832,"byteOffset":12900,"target":34962},{"buffer":0,"byteLength":276,"byteOffset":13732,"target":34963},{"buffer":0,"byteLength":984,"byteOffset":14008,"target":34962},{"buffer":0,"byteLength":984,"byteOffset":14992,"target":34962},{"buffer":0,"byteLength":1312,"byteOffset":15976,"target":34962},{"buffer":0,"byteLength":656,"byteOffset":17288,"target":34962},{"buffer":0,"byteLength":656,"byteOffset":17944,"target":34962},{"buffer":0,"byteLength":132,"byteOffset":18600,"target":34963},{"buffer":0,"byteLength":576,"byteOffset":18732,"target":34962},{"buffer":0,"byteLength":576,"byteOffset":19308,"target":34962},{"buffer":0,"byteLength":768,"byteOffset":19884,"target":34962},{"buffer":0,"byteLength":384,"byteOffset":20652,"target":34962},{"buffer":0,"byteLength":384,"byteOffset":21036,"target":34962},{"buffer":0,"byteLength":516,"byteOffset":21420,"target":34963},{"buffer":0,"byteLength":2760,"byteOffset":21936,"target":34962},{"buffer":0,"byteLength":2760,"byteOffset":24696,"target":34962},{"buffer":0,"byteLength":1840,"byteOffset":27456,"target":34962},{"buffer":0,"byteLength":1840,"byteOffset":29296,"target":34962}],"buffers":[{"byteLength":31136,"uri":"SM_Handler.bin"}],"images":[{"name":"T_Furniture_N","uri":"T_Furniture_N.png"}],"materials":[{"alphaMode":"OPAQUE","doubleSided":false,"extras":{"fromFBX":{"isTruePBR":false,"shadingModel":"Phong"}},"name":"MI_Furniture","normalTexture":{"index":0,"texCoord":0},"pbrMetallicRoughness":{"baseColorFactor":[0.21586050093174,0.21586050093174,0.21586050093174,1],"metallicFactor":0.400000005960464,"roughnessFactor":0.301511347293854}},{"alphaMode":"OPAQUE","doubleSided":false,"extras":{"fromFBX":{"isTruePBR":false,"shadingModel":"Lambert"}},"name":"DefaultMaterial","pbrMetallicRoughness":{"baseColorFactor":[0.5,0.5,0.5,1],"metallicFactor":0.200000002980232,"roughnessFactor":0.800000011920929}}],"meshes":[{"name":"SM_Handler_LOD0","primitives":[{"attributes":{"NORMAL":3,"POSITION":2,"TANGENT":4,"TEXCOORD_0":5,"TEXCOORD_1":6},"indices":1,"material":0,"mode":4}]},{"name":"SM_Handler_LOD1","primitives":[{"attributes":{"NORMAL":9,"POSITION":8,"TANGENT":10,"TEXCOORD_0":11,"TEXCOORD_1":12},"indices":7,"material":0,"mode":4}]},{"name":"SM_Handler_LOD2","primitives":[{"attributes":{"NORMAL":15,"POSITION":14,"TANGENT":16,"TEXCOORD_0":17,"TEXCOORD_1":18},"indices":13,"material":0,"mode":4}]},{"name":"SM_Handler_LOD3","primitives":[{"attributes":{"NORMAL":21,"POSITION":20,"TANGENT":22,"TEXCOORD_0":23,"TEXCOORD_1":24},"indices":19,"material":0,"mode":4}]},{"name":"SM_Handler_ConvexHulls","primitives":[{"attributes":{"NORMAL":27,"POSITION":26,"TEXCOORD_0":28,"TEXCOORD_1":29},"indices":25,"material":1,"mode":4}]}],"nodes":[{"children":[1,2,3,4,5],"name":"Assets_Proxy_Entryway_Desk_Proxy4","originalUnits":0.00999999977648258,"pivot":[0,0,0],"rotation":[0,0,0,1],"scale":[1,1,1],"translation":[0,0,0]},{"mesh":0,"name":"SM_Handler_LOD0","originalUnits":0.00999999977648258,"pivot":[0,0,0],"rotation":[0,0,0,1],"scale":[1,1,1],"translation":[0,0,0]},{"mesh":4,"name":"SM_Handler_ConvexHulls","originalUnits":0.00999999977648258,"pivot":[0,0,0],"rotation":[0,0,0,1],"scale":[1,1,1],"translation":[0,0,0]},{"mesh":1,"name":"SM_Handler_LOD1","originalUnits":0.00999999977648258,"pivot":[0,0,0],"rotation":[0,0,0,1],"scale":[1,1,1],"translation":[0,0,0]},{"mesh":2,"name":"SM_Handler_LOD2","originalUnits":0.00999999977648258,"pivot":[0,0,0],"rotation":[0,0,0,1],"scale":[1,1,1],"translation":[0,0,0]},{"mesh":3,"name":"SM_Handler_LOD3","originalUnits":0.00999999977648258,"pivot":[0,0,0],"rotation":[0,0,0,1],"scale":[1,1,1],"translation":[0,0,0]}],"samplers":[{}],"scene":0,"scenes":[{"name":"Root Scene","nodes":[0]}],"textures":[{"name":"T_Furniture_N","sampler":0,"source":0}]}