{"accessors":[{"bufferView":0,"byteOffset":0,"componentType":5126,"count":1,"max":[0],"min":[0],"type":"SCALAR"},{"bufferView":1,"byteOffset":0,"componentType":5123,"count":1248,"type":"SCALAR"},{"bufferView":2,"byteOffset":0,"componentType":5126,"count":243,"max":[11.924822807312,3.32632255554199,9.16135311126709],"min":[-6.81897497177124,3.32631945610046,-10.543327331543],"type":"VEC3"},{"bufferView":3,"byteOffset":0,"componentType":5126,"count":243,"type":"VEC3"},{"bufferView":4,"byteOffset":0,"componentType":5126,"count":243,"type":"VEC4"},{"bufferView":5,"byteOffset":0,"componentType":5126,"count":243,"type":"VEC4"},{"bufferView":6,"byteOffset":0,"componentType":5126,"count":243,"type":"VEC2"},{"bufferView":7,"byteOffset":0,"componentType":5126,"count":243,"type":"VEC2"},{"bufferView":8,"byteOffset":0,"componentType":5123,"count":936,"type":"SCALAR"},{"bufferView":9,"byteOffset":0,"componentType":5126,"count":188,"max":[11.924822807312,3.32632255554199,9.16135311126709],"min":[-6.81897497177124,3.32631945610046,-10.543327331543],"type":"VEC3"},{"bufferView":10,"byteOffset":0,"componentType":5126,"count":188,"type":"VEC3"},{"bufferView":11,"byteOffset":0,"componentType":5126,"count":188,"type":"VEC4"},{"bufferView":12,"byteOffset":0,"componentType":5126,"count":188,"type":"VEC4"},{"bufferView":13,"byteOffset":0,"componentType":5126,"count":188,"type":"VEC2"},{"bufferView":14,"byteOffset":0,"componentType":5126,"count":188,"type":"VEC2"},{"bufferView":15,"byteOffset":0,"componentType":5123,"count":621,"type":"SCALAR"},{"bufferView":16,"byteOffset":0,"componentType":5126,"count":131,"max":[11.924822807312,3.32632255554199,9.16135311126709],"min":[-6.81897497177124,3.32631945610046,-10.543327331543],"type":"VEC3"},{"bufferView":17,"byteOffset":0,"componentType":5126,"count":131,"type":"VEC3"},{"bufferView":18,"byteOffset":0,"componentType":5126,"count":131,"type":"VEC4"},{"bufferView":19,"byteOffset":0,"componentType":5126,"count":131,"type":"VEC4"},{"bufferView":20,"byteOffset":0,"componentType":5126,"count":131,"type":"VEC2"},{"bufferView":21,"byteOffset":0,"componentType":5126,"count":131,"type":"VEC2"},{"bufferView":22,"byteOffset":0,"componentType":5123,"count":312,"type":"SCALAR"},{"bufferView":23,"byteOffset":0,"componentType":5126,"count":75,"max":[11.924822807312,3.32632255554199,9.16135311126709],"min":[-6.81897497177124,3.32631945610046,-10.543327331543],"type":"VEC3"},{"bufferView":24,"byteOffset":0,"componentType":5126,"count":75,"type":"VEC3"},{"bufferView":25,"byteOffset":0,"componentType":5126,"count":75,"type":"VEC4"},{"bufferView":26,"byteOffset":0,"componentType":5126,"count":75,"type":"VEC4"},{"bufferView":27,"byteOffset":0,"componentType":5126,"count":75,"type":"VEC2"},{"bufferView":28,"byteOffset":0,"componentType":5126,"count":75,"type":"VEC2"}],"animations":[{"channels":[],"name":"Unreal Take","samplers":[]}],"asset":{"generator":"FBX2glTF v0.13.0","version":"2.0"},"bufferViews":[{"buffer":0,"byteLength":4,"byteOffset":0},{"buffer":0,"byteLength":2496,"byteOffset":4,"target":34963},{"buffer":0,"byteLength":2916,"byteOffset":2500,"target":34962},{"buffer":0,"byteLength":2916,"byteOffset":5416,"target":34962},{"buffer":0,"byteLength":3888,"byteOffset":8332,"target":34962},{"buffer":0,"byteLength":3888,"byteOffset":12220,"target":34962},{"buffer":0,"byteLength":1944,"byteOffset":16108,"target":34962},{"buffer":0,"byteLength":1944,"byteOffset":18052,"target":34962},{"buffer":0,"byteLength":1872,"byteOffset":19996,"target":34963},{"buffer":0,"byteLength":2256,"byteOffset":21868,"target":34962},{"buffer":0,"byteLength":2256,"byteOffset":24124,"target":34962},{"buffer":0,"byteLength":3008,"byteOffset":26380,"target":34962},{"buffer":0,"byteLength":3008,"byteOffset":29388,"target":34962},{"buffer":0,"byteLength":1504,"byteOffset":32396,"target":34962},{"buffer":0,"byteLength":1504,"byteOffset":33900,"target":34962},{"buffer":0,"byteLength":1242,"byteOffset":35404,"target":34963},{"buffer":0,"byteLength":1572,"byteOffset":36648,"target":34962},{"buffer":0,"byteLength":1572,"byteOffset":38220,"target":34962},{"buffer":0,"byteLength":2096,"byteOffset":39792,"target":34962},{"buffer":0,"byteLength":2096,"byteOffset":41888,"target":34962},{"buffer":0,"byteLength":1048,"byteOffset":43984,"target":34962},{"buffer":0,"byteLength":1048,"byteOffset":45032,"target":34962},{"buffer":0,"byteLength":624,"byteOffset":46080,"target":34963},{"buffer":0,"byteLength":900,"byteOffset":46704,"target":34962},{"buffer":0,"byteLength":900,"byteOffset":47604,"target":34962},{"buffer":0,"byteLength":1200,"byteOffset":48504,"target":34962},{"buffer":0,"byteLength":1200,"byteOffset":49704,"target":34962},{"buffer":0,"byteLength":600,"byteOffset":50904,"target":34962},{"buffer":0,"byteLength":600,"byteOffset":51504,"target":34962}],"buffers":[{"byteLength":52104,"uri":"SM_House_Ceiling@000001DBAF685600.bin"}],"materials":[{"alphaMode":"OPAQUE","doubleSided":false,"extras":{"fromFBX":{"isTruePBR":false,"shadingModel":"Phong"}},"name":"MM_Base_Mat_2","pbrMetallicRoughness":{"baseColorFactor":[0.590278029441833,0.885416984558105,0.807684004306793,1],"metallicFactor":0.400000005960464,"roughnessFactor":0.301511347293854}}],"meshes":[{"name":"SM_House_Ceiling_LOD0","primitives":[{"attributes":{"COLOR_0":5,"NORMAL":3,"POSITION":2,"TANGENT":4,"TEXCOORD_0":6,"TEXCOORD_1":7},"indices":1,"material":0,"mode":4}]},{"name":"SM_House_Ceiling_LOD1","primitives":[{"attributes":{"COLOR_0":12,"NORMAL":10,"POSITION":9,"TANGENT":11,"TEXCOORD_0":13,"TEXCOORD_1":14},"indices":8,"material":0,"mode":4}]},{"name":"SM_House_Ceiling_LOD2","primitives":[{"attributes":{"COLOR_0":19,"NORMAL":17,"POSITION":16,"TANGENT":18,"TEXCOORD_0":20,"TEXCOORD_1":21},"indices":15,"material":0,"mode":4}]},{"name":"SM_House_Ceiling_LOD3","primitives":[{"attributes":{"COLOR_0":26,"NORMAL":24,"POSITION":23,"TANGENT":25,"TEXCOORD_0":27,"TEXCOORD_1":28},"indices":22,"material":0,"mode":4}]}],"nodes":[{"children":[1,2,3,4,5],"name":"House_Ceiling_SM_8","originalUnits":0.00999999977648258,"pivot":[0,0,0],"rotation":[0,0,0,1],"scale":[1,1,1],"translation":[0,0,0]},{"mesh":0,"name":"SM_House_Ceiling_LOD0","originalUnits":0.00999999977648258,"pivot":[0,0,0],"rotation":[0,0,0,1],"scale":[1,1,1],"translation":[0,0,0]},{"name":"SM_House_Ceiling_ConvexHulls","originalUnits":0.00999999977648258,"pivot":[0,0,0],"rotation":[0,0,0,1],"scale":[1,1,1],"translation":[0,0,0]},{"mesh":1,"name":"SM_House_Ceiling_LOD1","originalUnits":0.00999999977648258,"pivot":[0,0,0],"rotation":[0,0,0,1],"scale":[1,1,1],"translation":[0,0,0]},{"mesh":2,"name":"SM_House_Ceiling_LOD2","originalUnits":0.00999999977648258,"pivot":[0,0,0],"rotation":[0,0,0,1],"scale":[1,1,1],"translation":[0,0,0]},{"mesh":3,"name":"SM_House_Ceiling_LOD3","originalUnits":0.00999999977648258,"pivot":[0,0,0],"rotation":[0,0,0,1],"scale":[1,1,1],"translation":[0,0,0]}],"samplers":[{}],"scene":0,"scenes":[{"name":"Root Scene","nodes":[0]}]}