{"accessors":[{"bufferView":0,"byteOffset":0,"componentType":5126,"count":1,"max":[0],"min":[0],"type":"SCALAR"},{"bufferView":1,"byteOffset":0,"componentType":5123,"count":2472,"type":"SCALAR"},{"bufferView":2,"byteOffset":0,"componentType":5126,"count":600,"max":[0.0520352907478809,0.102128982543945,0.313712328672409],"min":[-0.0536857843399,-0.00351873715408,-0.24562880396843],"type":"VEC3"},{"bufferView":3,"byteOffset":0,"componentType":5126,"count":600,"type":"VEC3"},{"bufferView":4,"byteOffset":0,"componentType":5126,"count":600,"type":"VEC4"},{"bufferView":5,"byteOffset":0,"componentType":5126,"count":600,"type":"VEC2"},{"bufferView":6,"byteOffset":0,"componentType":5126,"count":600,"type":"VEC2"},{"bufferView":7,"byteOffset":0,"componentType":5123,"count":1854,"type":"SCALAR"},{"bufferView":8,"byteOffset":0,"componentType":5126,"count":465,"max":[0.0520352907478809,0.102128982543945,0.313712328672409],"min":[-0.0536857843399,-0.00351873715408,-0.24546357989311],"type":"VEC3"},{"bufferView":9,"byteOffset":0,"componentType":5126,"count":465,"type":"VEC3"},{"bufferView":10,"byteOffset":0,"componentType":5126,"count":465,"type":"VEC4"},{"bufferView":11,"byteOffset":0,"componentType":5126,"count":465,"type":"VEC2"},{"bufferView":12,"byteOffset":0,"componentType":5126,"count":465,"type":"VEC2"},{"bufferView":13,"byteOffset":0,"componentType":5123,"count":1236,"type":"SCALAR"},{"bufferView":14,"byteOffset":0,"componentType":5126,"count":334,"max":[0.0528962463140488,0.103080540895462,0.316000461578369],"min":[-0.0536857843399,-0.00344029651023,-0.2462390512228],"type":"VEC3"},{"bufferView":15,"byteOffset":0,"componentType":5126,"count":334,"type":"VEC3"},{"bufferView":16,"byteOffset":0,"componentType":5126,"count":334,"type":"VEC4"},{"bufferView":17,"byteOffset":0,"componentType":5126,"count":334,"type":"VEC2"},{"bufferView":18,"byteOffset":0,"componentType":5126,"count":334,"type":"VEC2"},{"bufferView":19,"byteOffset":0,"componentType":5123,"count":618,"type":"SCALAR"},{"bufferView":20,"byteOffset":0,"componentType":5126,"count":202,"max":[0.0528962463140488,0.103080540895462,0.318209916353226],"min":[-0.05420848727226,-0.00344029651023,-0.2471706867218],"type":"VEC3"},{"bufferView":21,"byteOffset":0,"componentType":5126,"count":202,"type":"VEC3"},{"bufferView":22,"byteOffset":0,"componentType":5126,"count":202,"type":"VEC4"},{"bufferView":23,"byteOffset":0,"componentType":5126,"count":202,"type":"VEC2"},{"bufferView":24,"byteOffset":0,"componentType":5126,"count":202,"type":"VEC2"},{"bufferView":25,"byteOffset":0,"componentType":5123,"count":336,"type":"SCALAR"},{"bufferView":26,"byteOffset":0,"componentType":5126,"count":330,"max":[0.0539907440543175,0.103449530899525,0.315165936946869],"min":[-0.05362213030458,-0.00605998933315,-0.2442089766264],"type":"VEC3"},{"bufferView":27,"byteOffset":0,"componentType":5126,"count":330,"type":"VEC3"},{"bufferView":28,"byteOffset":0,"componentType":5126,"count":330,"type":"VEC2"},{"bufferView":29,"byteOffset":0,"componentType":5126,"count":330,"type":"VEC2"}],"animations":[{"channels":[],"name":"Unreal Take","samplers":[]}],"asset":{"generator":"FBX2glTF v0.13.0","version":"2.0"},"bufferViews":[{"buffer":0,"byteLength":4,"byteOffset":0},{"buffer":0,"byteLength":4944,"byteOffset":4,"target":34963},{"buffer":0,"byteLength":7200,"byteOffset":4948,"target":34962},{"buffer":0,"byteLength":7200,"byteOffset":12148,"target":34962},{"buffer":0,"byteLength":9600,"byteOffset":19348,"target":34962},{"buffer":0,"byteLength":4800,"byteOffset":28948,"target":34962},{"buffer":0,"byteLength":4800,"byteOffset":33748,"target":34962},{"buffer":0,"byteLength":3708,"byteOffset":38548,"target":34963},{"buffer":0,"byteLength":5580,"byteOffset":42256,"target":34962},{"buffer":0,"byteLength":5580,"byteOffset":47836,"target":34962},{"buffer":0,"byteLength":7440,"byteOffset":53416,"target":34962},{"buffer":0,"byteLength":3720,"byteOffset":60856,"target":34962},{"buffer":0,"byteLength":3720,"byteOffset":64576,"target":34962},{"buffer":0,"byteLength":2472,"byteOffset":68296,"target":34963},{"buffer":0,"byteLength":4008,"byteOffset":70768,"target":34962},{"buffer":0,"byteLength":4008,"byteOffset":74776,"target":34962},{"buffer":0,"byteLength":5344,"byteOffset":78784,"target":34962},{"buffer":0,"byteLength":2672,"byteOffset":84128,"target":34962},{"buffer":0,"byteLength":2672,"byteOffset":86800,"target":34962},{"buffer":0,"byteLength":1236,"byteOffset":89472,"target":34963},{"buffer":0,"byteLength":2424,"byteOffset":90708,"target":34962},{"buffer":0,"byteLength":2424,"byteOffset":93132,"target":34962},{"buffer":0,"byteLength":3232,"byteOffset":95556,"target":34962},{"buffer":0,"byteLength":1616,"byteOffset":98788,"target":34962},{"buffer":0,"byteLength":1616,"byteOffset":100404,"target":34962},{"buffer":0,"byteLength":672,"byteOffset":102020,"target":34963},{"buffer":0,"byteLength":3960,"byteOffset":102692,"target":34962},{"buffer":0,"byteLength":3960,"byteOffset":106652,"target":34962},{"buffer":0,"byteLength":2640,"byteOffset":110612,"target":34962},{"buffer":0,"byteLength":2640,"byteOffset":113252,"target":34962}],"buffers":[{"byteLength":115892,"uri":"SM_KitchenUstensil_Whip.bin"}],"images":[{"name":"T_KitchenUstensil_N","uri":"T_KitchenUstensil_N.tga"}],"materials":[{"alphaMode":"OPAQUE","doubleSided":false,"extras":{"fromFBX":{"isTruePBR":false,"shadingModel":"Phong"}},"name":"MI_KitchenUstensil","normalTexture":{"index":0,"texCoord":0},"pbrMetallicRoughness":{"baseColorFactor":[0.21586050093174,0.21586050093174,0.21586050093174,1],"metallicFactor":0.400000005960464,"roughnessFactor":0.301511347293854}},{"alphaMode":"OPAQUE","doubleSided":false,"extras":{"fromFBX":{"isTruePBR":false,"shadingModel":"Lambert"}},"name":"DefaultMaterial","pbrMetallicRoughness":{"baseColorFactor":[0.5,0.5,0.5,1],"metallicFactor":0.200000002980232,"roughnessFactor":0.800000011920929}}],"meshes":[{"name":"SM_KitchenUstensil_Whip_LOD0","primitives":[{"attributes":{"NORMAL":3,"POSITION":2,"TANGENT":4,"TEXCOORD_0":5,"TEXCOORD_1":6},"indices":1,"material":0,"mode":4}]},{"name":"SM_KitchenUstensil_Whip_LOD1","primitives":[{"attributes":{"NORMAL":9,"POSITION":8,"TANGENT":10,"TEXCOORD_0":11,"TEXCOORD_1":12},"indices":7,"material":0,"mode":4}]},{"name":"SM_KitchenUstensil_Whip_LOD2","primitives":[{"attributes":{"NORMAL":15,"POSITION":14,"TANGENT":16,"TEXCOORD_0":17,"TEXCOORD_1":18},"indices":13,"material":0,"mode":4}]},{"name":"SM_KitchenUstensil_Whip_LOD3","primitives":[{"attributes":{"NORMAL":21,"POSITION":20,"TANGENT":22,"TEXCOORD_0":23,"TEXCOORD_1":24},"indices":19,"material":0,"mode":4}]},{"name":"SM_KitchenUstensil_Whip_ConvexHulls","primitives":[{"attributes":{"NORMAL":27,"POSITION":26,"TEXCOORD_0":28,"TEXCOORD_1":29},"indices":25,"material":1,"mode":4}]}],"nodes":[{"children":[1,2,3,4,5],"name":"SM_KitchenUstensil_Whip_190","originalUnits":0.00999999977648258,"pivot":[0,0,0],"rotation":[0,0,0,1],"scale":[1,1,1],"translation":[0,0,0]},{"mesh":0,"name":"SM_KitchenUstensil_Whip_LOD0","originalUnits":0.00999999977648258,"pivot":[0,0,0],"rotation":[0,0,0,1],"scale":[1,1,1],"translation":[0,0,0]},{"mesh":4,"name":"SM_KitchenUstensil_Whip_ConvexHulls","originalUnits":0.00999999977648258,"pivot":[0,0,0],"rotation":[0,0,0,1],"scale":[1,1,1],"translation":[0,0,0]},{"mesh":1,"name":"SM_KitchenUstensil_Whip_LOD1","originalUnits":0.00999999977648258,"pivot":[0,0,0],"rotation":[0,0,0,1],"scale":[1,1,1],"translation":[0,0,0]},{"mesh":2,"name":"SM_KitchenUstensil_Whip_LOD2","originalUnits":0.00999999977648258,"pivot":[0,0,0],"rotation":[0,0,0,1],"scale":[1,1,1],"translation":[0,0,0]},{"mesh":3,"name":"SM_KitchenUstensil_Whip_LOD3","originalUnits":0.00999999977648258,"pivot":[0,0,0],"rotation":[0,0,0,1],"scale":[1,1,1],"translation":[0,0,0]}],"samplers":[{}],"scene":0,"scenes":[{"name":"Root Scene","nodes":[0]}],"textures":[{"name":"T_KitchenUstensil_N","sampler":0,"source":0}]}