{"accessors":[{"bufferView":0,"byteOffset":0,"componentType":5126,"count":1,"max":[0],"min":[0],"type":"SCALAR"},{"bufferView":1,"byteOffset":0,"componentType":5123,"count":2298,"type":"SCALAR"},{"bufferView":2,"byteOffset":0,"componentType":5126,"count":530,"max":[0.0160119421780109,0.0947603210806847,0.312280237674713],"min":[-0.01601197756827,0.00858046766370535,-0.24538673460484],"type":"VEC3"},{"bufferView":3,"byteOffset":0,"componentType":5126,"count":530,"type":"VEC3"},{"bufferView":4,"byteOffset":0,"componentType":5126,"count":530,"type":"VEC4"},{"bufferView":5,"byteOffset":0,"componentType":5126,"count":530,"type":"VEC2"},{"bufferView":6,"byteOffset":0,"componentType":5126,"count":530,"type":"VEC2"},{"bufferView":7,"byteOffset":0,"componentType":5123,"count":1722,"type":"SCALAR"},{"bufferView":8,"byteOffset":0,"componentType":5126,"count":418,"max":[0.0160119421780109,0.0947603210806847,0.312280237674713],"min":[-0.01601197756827,0.00858046766370535,-0.24538673460484],"type":"VEC3"},{"bufferView":9,"byteOffset":0,"componentType":5126,"count":418,"type":"VEC3"},{"bufferView":10,"byteOffset":0,"componentType":5126,"count":418,"type":"VEC4"},{"bufferView":11,"byteOffset":0,"componentType":5126,"count":418,"type":"VEC2"},{"bufferView":12,"byteOffset":0,"componentType":5126,"count":418,"type":"VEC2"},{"bufferView":13,"byteOffset":0,"componentType":5123,"count":1146,"type":"SCALAR"},{"bufferView":14,"byteOffset":0,"componentType":5126,"count":309,"max":[0.0160119421780109,0.0950753837823868,0.312280237674713],"min":[-0.01626029796898,0.00858564861118793,-0.24572505056858],"type":"VEC3"},{"bufferView":15,"byteOffset":0,"componentType":5126,"count":309,"type":"VEC3"},{"bufferView":16,"byteOffset":0,"componentType":5126,"count":309,"type":"VEC4"},{"bufferView":17,"byteOffset":0,"componentType":5126,"count":309,"type":"VEC2"},{"bufferView":18,"byteOffset":0,"componentType":5126,"count":309,"type":"VEC2"},{"bufferView":19,"byteOffset":0,"componentType":5123,"count":576,"type":"SCALAR"},{"bufferView":20,"byteOffset":0,"componentType":5126,"count":177,"max":[0.0167622826993465,0.0958166792988777,0.313485741615295],"min":[-0.01698677055538,0.00858564861118793,-0.24586898088455],"type":"VEC3"},{"bufferView":21,"byteOffset":0,"componentType":5126,"count":177,"type":"VEC3"},{"bufferView":22,"byteOffset":0,"componentType":5126,"count":177,"type":"VEC4"},{"bufferView":23,"byteOffset":0,"componentType":5126,"count":177,"type":"VEC2"},{"bufferView":24,"byteOffset":0,"componentType":5126,"count":177,"type":"VEC2"},{"bufferView":25,"byteOffset":0,"componentType":5123,"count":246,"type":"SCALAR"},{"bufferView":26,"byteOffset":0,"componentType":5126,"count":230,"max":[0.0171847715973854,0.0955025255680084,0.313419818878174],"min":[-0.01637751609087,0.0121131306514144,-0.23900619149208],"type":"VEC3"},{"bufferView":27,"byteOffset":0,"componentType":5126,"count":230,"type":"VEC3"},{"bufferView":28,"byteOffset":0,"componentType":5126,"count":230,"type":"VEC2"},{"bufferView":29,"byteOffset":0,"componentType":5126,"count":230,"type":"VEC2"}],"animations":[{"channels":[],"name":"Unreal Take","samplers":[]}],"asset":{"generator":"FBX2glTF v0.13.0","version":"2.0"},"bufferViews":[{"buffer":0,"byteLength":4,"byteOffset":0},{"buffer":0,"byteLength":4596,"byteOffset":4,"target":34963},{"buffer":0,"byteLength":6360,"byteOffset":4600,"target":34962},{"buffer":0,"byteLength":6360,"byteOffset":10960,"target":34962},{"buffer":0,"byteLength":8480,"byteOffset":17320,"target":34962},{"buffer":0,"byteLength":4240,"byteOffset":25800,"target":34962},{"buffer":0,"byteLength":4240,"byteOffset":30040,"target":34962},{"buffer":0,"byteLength":3444,"byteOffset":34280,"target":34963},{"buffer":0,"byteLength":5016,"byteOffset":37724,"target":34962},{"buffer":0,"byteLength":5016,"byteOffset":42740,"target":34962},{"buffer":0,"byteLength":6688,"byteOffset":47756,"target":34962},{"buffer":0,"byteLength":3344,"byteOffset":54444,"target":34962},{"buffer":0,"byteLength":3344,"byteOffset":57788,"target":34962},{"buffer":0,"byteLength":2292,"byteOffset":61132,"target":34963},{"buffer":0,"byteLength":3708,"byteOffset":63424,"target":34962},{"buffer":0,"byteLength":3708,"byteOffset":67132,"target":34962},{"buffer":0,"byteLength":4944,"byteOffset":70840,"target":34962},{"buffer":0,"byteLength":2472,"byteOffset":75784,"target":34962},{"buffer":0,"byteLength":2472,"byteOffset":78256,"target":34962},{"buffer":0,"byteLength":1152,"byteOffset":80728,"target":34963},{"buffer":0,"byteLength":2124,"byteOffset":81880,"target":34962},{"buffer":0,"byteLength":2124,"byteOffset":84004,"target":34962},{"buffer":0,"byteLength":2832,"byteOffset":86128,"target":34962},{"buffer":0,"byteLength":1416,"byteOffset":88960,"target":34962},{"buffer":0,"byteLength":1416,"byteOffset":90376,"target":34962},{"buffer":0,"byteLength":492,"byteOffset":91792,"target":34963},{"buffer":0,"byteLength":2760,"byteOffset":92284,"target":34962},{"buffer":0,"byteLength":2760,"byteOffset":95044,"target":34962},{"buffer":0,"byteLength":1840,"byteOffset":97804,"target":34962},{"buffer":0,"byteLength":1840,"byteOffset":99644,"target":34962}],"buffers":[{"byteLength":101484,"uri":"SM_KitchenUstensil_Knife.bin"}],"images":[{"name":"T_KitchenUstensil_N","uri":"T_KitchenUstensil_N.tga"}],"materials":[{"alphaMode":"OPAQUE","doubleSided":false,"extras":{"fromFBX":{"isTruePBR":false,"shadingModel":"Phong"}},"name":"MI_KitchenUstensil","normalTexture":{"index":0,"texCoord":0},"pbrMetallicRoughness":{"baseColorFactor":[0.21586050093174,0.21586050093174,0.21586050093174,1],"metallicFactor":0.400000005960464,"roughnessFactor":0.301511347293854}},{"alphaMode":"OPAQUE","doubleSided":false,"extras":{"fromFBX":{"isTruePBR":false,"shadingModel":"Lambert"}},"name":"DefaultMaterial","pbrMetallicRoughness":{"baseColorFactor":[0.5,0.5,0.5,1],"metallicFactor":0.200000002980232,"roughnessFactor":0.800000011920929}}],"meshes":[{"name":"SM_KitchenUstensil_Knife_LOD0","primitives":[{"attributes":{"NORMAL":3,"POSITION":2,"TANGENT":4,"TEXCOORD_0":5,"TEXCOORD_1":6},"indices":1,"material":0,"mode":4}]},{"name":"SM_KitchenUstensil_Knife_LOD1","primitives":[{"attributes":{"NORMAL":9,"POSITION":8,"TANGENT":10,"TEXCOORD_0":11,"TEXCOORD_1":12},"indices":7,"material":0,"mode":4}]},{"name":"SM_KitchenUstensil_Knife_LOD2","primitives":[{"attributes":{"NORMAL":15,"POSITION":14,"TANGENT":16,"TEXCOORD_0":17,"TEXCOORD_1":18},"indices":13,"material":0,"mode":4}]},{"name":"SM_KitchenUstensil_Knife_LOD3","primitives":[{"attributes":{"NORMAL":21,"POSITION":20,"TANGENT":22,"TEXCOORD_0":23,"TEXCOORD_1":24},"indices":19,"material":0,"mode":4}]},{"name":"SM_KitchenUstensil_Knife_ConvexHulls","primitives":[{"attributes":{"NORMAL":27,"POSITION":26,"TEXCOORD_0":28,"TEXCOORD_1":29},"indices":25,"material":1,"mode":4}]}],"nodes":[{"children":[1,2,3,4,5],"name":"SM_KitchenUstensil_Knife_72","originalUnits":0.00999999977648258,"pivot":[0,0,0],"rotation":[0,0,0,1],"scale":[1,1,1],"translation":[0,0,0]},{"mesh":0,"name":"SM_KitchenUstensil_Knife_LOD0","originalUnits":0.00999999977648258,"pivot":[0,0,0],"rotation":[0,0,0,1],"scale":[1,1,1],"translation":[0,0,0]},{"mesh":4,"name":"SM_KitchenUstensil_Knife_ConvexHulls","originalUnits":0.00999999977648258,"pivot":[0,0,0],"rotation":[0,0,0,1],"scale":[1,1,1],"translation":[0,0,0]},{"mesh":1,"name":"SM_KitchenUstensil_Knife_LOD1","originalUnits":0.00999999977648258,"pivot":[0,0,0],"rotation":[0,0,0,1],"scale":[1,1,1],"translation":[0,0,0]},{"mesh":2,"name":"SM_KitchenUstensil_Knife_LOD2","originalUnits":0.00999999977648258,"pivot":[0,0,0],"rotation":[0,0,0,1],"scale":[1,1,1],"translation":[0,0,0]},{"mesh":3,"name":"SM_KitchenUstensil_Knife_LOD3","originalUnits":0.00999999977648258,"pivot":[0,0,0],"rotation":[0,0,0,1],"scale":[1,1,1],"translation":[0,0,0]}],"samplers":[{}],"scene":0,"scenes":[{"name":"Root Scene","nodes":[0]}],"textures":[{"name":"T_KitchenUstensil_N","sampler":0,"source":0}]}