{"accessors":[{"bufferView":0,"byteOffset":0,"componentType":5126,"count":1,"max":[0],"min":[0],"type":"SCALAR"},{"bufferView":1,"byteOffset":0,"componentType":5123,"count":828,"type":"SCALAR"},{"bufferView":2,"byteOffset":0,"componentType":5126,"count":208,"max":[2.36070156097412,0.861843466758728,0.525754511356354],"min":[-2.36070156097412,0.15968020260334,-0.5257533788681],"type":"VEC3"},{"bufferView":3,"byteOffset":0,"componentType":5126,"count":208,"type":"VEC3"},{"bufferView":4,"byteOffset":0,"componentType":5126,"count":208,"type":"VEC4"},{"bufferView":5,"byteOffset":0,"componentType":5126,"count":208,"type":"VEC2"},{"bufferView":6,"byteOffset":0,"componentType":5126,"count":208,"type":"VEC2"},{"bufferView":7,"byteOffset":0,"componentType":5123,"count":471,"type":"SCALAR"},{"bufferView":8,"byteOffset":0,"componentType":5126,"count":136,"max":[2.36070156097412,0.861843466758728,0.525754451751709],"min":[-2.36070227622986,0.159680217504501,-0.5257533788681],"type":"VEC3"},{"bufferView":9,"byteOffset":0,"componentType":5126,"count":136,"type":"VEC3"},{"bufferView":10,"byteOffset":0,"componentType":5126,"count":136,"type":"VEC4"},{"bufferView":11,"byteOffset":0,"componentType":5126,"count":136,"type":"VEC2"},{"bufferView":12,"byteOffset":0,"componentType":5126,"count":136,"type":"VEC2"},{"bufferView":13,"byteOffset":0,"componentType":5123,"count":441,"type":"SCALAR"},{"bufferView":14,"byteOffset":0,"componentType":5126,"count":129,"max":[2.36070156097412,0.861843466758728,0.525754451751709],"min":[-2.36070227622986,0.159680217504501,-0.5257533788681],"type":"VEC3"},{"bufferView":15,"byteOffset":0,"componentType":5126,"count":129,"type":"VEC3"},{"bufferView":16,"byteOffset":0,"componentType":5126,"count":129,"type":"VEC4"},{"bufferView":17,"byteOffset":0,"componentType":5126,"count":129,"type":"VEC2"},{"bufferView":18,"byteOffset":0,"componentType":5126,"count":129,"type":"VEC2"},{"bufferView":19,"byteOffset":0,"componentType":5123,"count":333,"type":"SCALAR"},{"bufferView":20,"byteOffset":0,"componentType":5126,"count":103,"max":[2.36070156097412,0.861843466758728,0.525766134262085],"min":[-2.36070394515991,0.159680023789406,-0.5257533788681],"type":"VEC3"},{"bufferView":21,"byteOffset":0,"componentType":5126,"count":103,"type":"VEC3"},{"bufferView":22,"byteOffset":0,"componentType":5126,"count":103,"type":"VEC4"},{"bufferView":23,"byteOffset":0,"componentType":5126,"count":103,"type":"VEC2"},{"bufferView":24,"byteOffset":0,"componentType":5126,"count":103,"type":"VEC2"},{"bufferView":25,"byteOffset":0,"componentType":5123,"count":18882,"type":"SCALAR"},{"bufferView":26,"byteOffset":0,"componentType":5126,"count":6011,"max":[2.36070132255554,0.491468966007233,0.554279863834381],"min":[-2.3238730430603,-0.78388214111328,-0.5257528424263],"type":"VEC3"},{"bufferView":27,"byteOffset":0,"componentType":5126,"count":6011,"type":"VEC3"},{"bufferView":28,"byteOffset":0,"componentType":5126,"count":6011,"type":"VEC4"},{"bufferView":29,"byteOffset":0,"componentType":5126,"count":6011,"type":"VEC2"},{"bufferView":30,"byteOffset":0,"componentType":5126,"count":6011,"type":"VEC2"},{"bufferView":31,"byteOffset":0,"componentType":5123,"count":14313,"type":"SCALAR"},{"bufferView":32,"byteOffset":0,"componentType":5126,"count":4699,"max":[2.36070132255554,0.491493433713913,0.554279863834381],"min":[-2.3238730430603,-0.78388214111328,-0.5257528424263],"type":"VEC3"},{"bufferView":33,"byteOffset":0,"componentType":5126,"count":4699,"type":"VEC3"},{"bufferView":34,"byteOffset":0,"componentType":5126,"count":4699,"type":"VEC4"},{"bufferView":35,"byteOffset":0,"componentType":5126,"count":4699,"type":"VEC2"},{"bufferView":36,"byteOffset":0,"componentType":5126,"count":4699,"type":"VEC2"},{"bufferView":37,"byteOffset":0,"componentType":5123,"count":9411,"type":"SCALAR"},{"bufferView":38,"byteOffset":0,"componentType":5126,"count":3239,"max":[2.36070132255554,0.491637319326401,0.554379284381866],"min":[-2.3238730430603,-0.78388214111328,-0.5257528424263],"type":"VEC3"},{"bufferView":39,"byteOffset":0,"componentType":5126,"count":3239,"type":"VEC3"},{"bufferView":40,"byteOffset":0,"componentType":5126,"count":3239,"type":"VEC4"},{"bufferView":41,"byteOffset":0,"componentType":5126,"count":3239,"type":"VEC2"},{"bufferView":42,"byteOffset":0,"componentType":5126,"count":3239,"type":"VEC2"},{"bufferView":43,"byteOffset":0,"componentType":5123,"count":4596,"type":"SCALAR"},{"bufferView":44,"byteOffset":0,"componentType":5126,"count":1703,"max":[2.36070132255554,0.491772443056107,0.554590880870819],"min":[-2.32407307624817,-0.78388214111328,-0.5257528424263],"type":"VEC3"},{"bufferView":45,"byteOffset":0,"componentType":5126,"count":1703,"type":"VEC3"},{"bufferView":46,"byteOffset":0,"componentType":5126,"count":1703,"type":"VEC4"},{"bufferView":47,"byteOffset":0,"componentType":5126,"count":1703,"type":"VEC2"},{"bufferView":48,"byteOffset":0,"componentType":5126,"count":1703,"type":"VEC2"},{"bufferView":49,"byteOffset":0,"componentType":5123,"count":336,"type":"SCALAR"},{"bufferView":50,"byteOffset":0,"componentType":5126,"count":326,"max":[2.38810634613037,0.903817474842072,0.580311596393585],"min":[-2.38662719726562,-0.82122993469238,-0.56764799356461],"type":"VEC3"},{"bufferView":51,"byteOffset":0,"componentType":5126,"count":326,"type":"VEC3"},{"bufferView":52,"byteOffset":0,"componentType":5126,"count":326,"type":"VEC2"},{"bufferView":53,"byteOffset":0,"componentType":5126,"count":326,"type":"VEC2"}],"animations":[{"channels":[],"name":"Unreal Take","samplers":[]}],"asset":{"generator":"FBX2glTF v0.13.0","version":"2.0"},"bufferViews":[{"buffer":0,"byteLength":4,"byteOffset":0},{"buffer":0,"byteLength":1656,"byteOffset":4,"target":34963},{"buffer":0,"byteLength":2496,"byteOffset":1660,"target":34962},{"buffer":0,"byteLength":2496,"byteOffset":4156,"target":34962},{"buffer":0,"byteLength":3328,"byteOffset":6652,"target":34962},{"buffer":0,"byteLength":1664,"byteOffset":9980,"target":34962},{"buffer":0,"byteLength":1664,"byteOffset":11644,"target":34962},{"buffer":0,"byteLength":942,"byteOffset":13308,"target":34963},{"buffer":0,"byteLength":1632,"byteOffset":14252,"target":34962},{"buffer":0,"byteLength":1632,"byteOffset":15884,"target":34962},{"buffer":0,"byteLength":2176,"byteOffset":17516,"target":34962},{"buffer":0,"byteLength":1088,"byteOffset":19692,"target":34962},{"buffer":0,"byteLength":1088,"byteOffset":20780,"target":34962},{"buffer":0,"byteLength":882,"byteOffset":21868,"target":34963},{"buffer":0,"byteLength":1548,"byteOffset":22752,"target":34962},{"buffer":0,"byteLength":1548,"byteOffset":24300,"target":34962},{"buffer":0,"byteLength":2064,"byteOffset":25848,"target":34962},{"buffer":0,"byteLength":1032,"byteOffset":27912,"target":34962},{"buffer":0,"byteLength":1032,"byteOffset":28944,"target":34962},{"buffer":0,"byteLength":666,"byteOffset":29976,"target":34963},{"buffer":0,"byteLength":1236,"byteOffset":30644,"target":34962},{"buffer":0,"byteLength":1236,"byteOffset":31880,"target":34962},{"buffer":0,"byteLength":1648,"byteOffset":33116,"target":34962},{"buffer":0,"byteLength":824,"byteOffset":34764,"target":34962},{"buffer":0,"byteLength":824,"byteOffset":35588,"target":34962},{"buffer":0,"byteLength":37764,"byteOffset":36412,"target":34963},{"buffer":0,"byteLength":72132,"byteOffset":74176,"target":34962},{"buffer":0,"byteLength":72132,"byteOffset":146308,"target":34962},{"buffer":0,"byteLength":96176,"byteOffset":218440,"target":34962},{"buffer":0,"byteLength":48088,"byteOffset":314616,"target":34962},{"buffer":0,"byteLength":48088,"byteOffset":362704,"target":34962},{"buffer":0,"byteLength":28626,"byteOffset":410792,"target":34963},{"buffer":0,"byteLength":56388,"byteOffset":439420,"target":34962},{"buffer":0,"byteLength":56388,"byteOffset":495808,"target":34962},{"buffer":0,"byteLength":75184,"byteOffset":552196,"target":34962},{"buffer":0,"byteLength":37592,"byteOffset":627380,"target":34962},{"buffer":0,"byteLength":37592,"byteOffset":664972,"target":34962},{"buffer":0,"byteLength":18822,"byteOffset":702564,"target":34963},{"buffer":0,"byteLength":38868,"byteOffset":721388,"target":34962},{"buffer":0,"byteLength":38868,"byteOffset":760256,"target":34962},{"buffer":0,"byteLength":51824,"byteOffset":799124,"target":34962},{"buffer":0,"byteLength":25912,"byteOffset":850948,"target":34962},{"buffer":0,"byteLength":25912,"byteOffset":876860,"target":34962},{"buffer":0,"byteLength":9192,"byteOffset":902772,"target":34963},{"buffer":0,"byteLength":20436,"byteOffset":911964,"target":34962},{"buffer":0,"byteLength":20436,"byteOffset":932400,"target":34962},{"buffer":0,"byteLength":27248,"byteOffset":952836,"target":34962},{"buffer":0,"byteLength":13624,"byteOffset":980084,"target":34962},{"buffer":0,"byteLength":13624,"byteOffset":993708,"target":34962},{"buffer":0,"byteLength":672,"byteOffset":1007332,"target":34963},{"buffer":0,"byteLength":3912,"byteOffset":1008004,"target":34962},{"buffer":0,"byteLength":3912,"byteOffset":1011916,"target":34962},{"buffer":0,"byteLength":2608,"byteOffset":1015828,"target":34962},{"buffer":0,"byteLength":2608,"byteOffset":1018436,"target":34962}],"buffers":[{"byteLength":1021044,"uri":"SM_Kitchen_Countertop_B.bin"}],"images":[{"name":"FlatNormal","uri":"FlatNormal.tga"},{"name":"Backsplash_N","uri":"Backsplash_N.tga"},{"name":"Backsplash_D","uri":"Backsplash_D.tga"}],"materials":[{"alphaMode":"OPAQUE","doubleSided":false,"extras":{"fromFBX":{"isTruePBR":false,"shadingModel":"Phong"}},"name":"MI_CounterTop_B","normalTexture":{"index":0,"texCoord":0},"pbrMetallicRoughness":{"baseColorFactor":[0.21586050093174,0.21586050093174,0.21586050093174,1],"metallicFactor":0.400000005960464,"roughnessFactor":0.301511347293854}},{"alphaMode":"OPAQUE","doubleSided":false,"extras":{"fromFBX":{"isTruePBR":false,"shadingModel":"Phong"}},"name":"MI_Backsplash02","normalTexture":{"index":1,"texCoord":0},"pbrMetallicRoughness":{"baseColorFactor":[1,1,1,1],"baseColorTexture":{"index":2,"texCoord":0},"metallicFactor":0.400000005960464,"roughnessFactor":0.301511347293854}},{"alphaMode":"OPAQUE","doubleSided":false,"extras":{"fromFBX":{"isTruePBR":false,"shadingModel":"Lambert"}},"name":"DefaultMaterial","pbrMetallicRoughness":{"baseColorFactor":[0.5,0.5,0.5,1],"metallicFactor":0.200000002980232,"roughnessFactor":0.800000011920929}}],"meshes":[{"name":"SM_Kitchen_Countertop_B_LOD0","primitives":[{"attributes":{"NORMAL":3,"POSITION":2,"TANGENT":4,"TEXCOORD_0":5,"TEXCOORD_1":6},"indices":1,"material":1,"mode":4},{"attributes":{"NORMAL":27,"POSITION":26,"TANGENT":28,"TEXCOORD_0":29,"TEXCOORD_1":30},"indices":25,"material":0,"mode":4}]},{"name":"SM_Kitchen_Countertop_B_LOD1","primitives":[{"attributes":{"NORMAL":9,"POSITION":8,"TANGENT":10,"TEXCOORD_0":11,"TEXCOORD_1":12},"indices":7,"material":1,"mode":4},{"attributes":{"NORMAL":33,"POSITION":32,"TANGENT":34,"TEXCOORD_0":35,"TEXCOORD_1":36},"indices":31,"material":0,"mode":4}]},{"name":"SM_Kitchen_Countertop_B_LOD2","primitives":[{"attributes":{"NORMAL":15,"POSITION":14,"TANGENT":16,"TEXCOORD_0":17,"TEXCOORD_1":18},"indices":13,"material":1,"mode":4},{"attributes":{"NORMAL":39,"POSITION":38,"TANGENT":40,"TEXCOORD_0":41,"TEXCOORD_1":42},"indices":37,"material":0,"mode":4}]},{"name":"SM_Kitchen_Countertop_B_LOD3","primitives":[{"attributes":{"NORMAL":21,"POSITION":20,"TANGENT":22,"TEXCOORD_0":23,"TEXCOORD_1":24},"indices":19,"material":1,"mode":4},{"attributes":{"NORMAL":45,"POSITION":44,"TANGENT":46,"TEXCOORD_0":47,"TEXCOORD_1":48},"indices":43,"material":0,"mode":4}]},{"name":"SM_Kitchen_Countertop_B_ConvexHulls","primitives":[{"attributes":{"NORMAL":51,"POSITION":50,"TEXCOORD_0":52,"TEXCOORD_1":53},"indices":49,"material":2,"mode":4}]}],"nodes":[{"children":[1,2,3,4,5],"name":"Assets_Proxy_Kitechen_CounterTop_B_Proxy_39","originalUnits":0.00999999977648258,"pivot":[0,0,0],"rotation":[0,0,0,1],"scale":[1,1,1],"translation":[0,0,0]},{"mesh":0,"name":"SM_Kitchen_Countertop_B_LOD0","originalUnits":0.00999999977648258,"pivot":[0,0,0],"rotation":[0,0,0,1],"scale":[1,1,1],"translation":[0,0,0]},{"mesh":4,"name":"SM_Kitchen_Countertop_B_ConvexHulls","originalUnits":0.00999999977648258,"pivot":[0,0,0],"rotation":[0,0,0,1],"scale":[1,1,1],"translation":[0,0,0]},{"mesh":1,"name":"SM_Kitchen_Countertop_B_LOD1","originalUnits":0.00999999977648258,"pivot":[0,0,0],"rotation":[0,0,0,1],"scale":[1,1,1],"translation":[0,0,0]},{"mesh":2,"name":"SM_Kitchen_Countertop_B_LOD2","originalUnits":0.00999999977648258,"pivot":[0,0,0],"rotation":[0,0,0,1],"scale":[1,1,1],"translation":[0,0,0]},{"mesh":3,"name":"SM_Kitchen_Countertop_B_LOD3","originalUnits":0.00999999977648258,"pivot":[0,0,0],"rotation":[0,0,0,1],"scale":[1,1,1],"translation":[0,0,0]}],"samplers":[{}],"scene":0,"scenes":[{"name":"Root Scene","nodes":[0]}],"textures":[{"name":"T_Default_N","sampler":0,"source":0},{"name":"T_Backsplash_N","sampler":0,"source":1},{"name":"T_Backsplash_D","sampler":0,"source":2}]}