{"accessors":[{"bufferView":0,"byteOffset":0,"componentType":5126,"count":1,"max":[0],"min":[0],"type":"SCALAR"},{"bufferView":1,"byteOffset":0,"componentType":5123,"count":12402,"type":"SCALAR"},{"bufferView":2,"byteOffset":0,"componentType":5126,"count":4112,"max":[0.534794986248016,0.557902216911316,1.94100737571716],"min":[-0.5389398932457,-0.55790215730667,-1.60158431529999],"type":"VEC3"},{"bufferView":3,"byteOffset":0,"componentType":5126,"count":4112,"type":"VEC3"},{"bufferView":4,"byteOffset":0,"componentType":5126,"count":4112,"type":"VEC4"},{"bufferView":5,"byteOffset":0,"componentType":5126,"count":4112,"type":"VEC2"},{"bufferView":6,"byteOffset":0,"componentType":5126,"count":4112,"type":"VEC2"},{"bufferView":7,"byteOffset":0,"componentType":5123,"count":9303,"type":"SCALAR"},{"bufferView":8,"byteOffset":0,"componentType":5126,"count":3093,"max":[0.534794986248016,0.557902216911316,1.94100737571716],"min":[-0.5389398932457,-0.55790215730667,-1.60158431529999],"type":"VEC3"},{"bufferView":9,"byteOffset":0,"componentType":5126,"count":3093,"type":"VEC3"},{"bufferView":10,"byteOffset":0,"componentType":5126,"count":3093,"type":"VEC4"},{"bufferView":11,"byteOffset":0,"componentType":5126,"count":3093,"type":"VEC2"},{"bufferView":12,"byteOffset":0,"componentType":5126,"count":3093,"type":"VEC2"},{"bufferView":13,"byteOffset":0,"componentType":5123,"count":6201,"type":"SCALAR"},{"bufferView":14,"byteOffset":0,"componentType":5126,"count":2145,"max":[0.534794986248016,0.557902216911316,1.94100737571716],"min":[-0.53902643918991,-0.55790215730667,-1.60158431529999],"type":"VEC3"},{"bufferView":15,"byteOffset":0,"componentType":5126,"count":2145,"type":"VEC3"},{"bufferView":16,"byteOffset":0,"componentType":5126,"count":2145,"type":"VEC4"},{"bufferView":17,"byteOffset":0,"componentType":5126,"count":2145,"type":"VEC2"},{"bufferView":18,"byteOffset":0,"componentType":5126,"count":2145,"type":"VEC2"},{"bufferView":19,"byteOffset":0,"componentType":5123,"count":3102,"type":"SCALAR"},{"bufferView":20,"byteOffset":0,"componentType":5126,"count":1110,"max":[0.534794986248016,0.557902216911316,1.94100737571716],"min":[-0.53945076465607,-0.55790215730667,-1.60158431529999],"type":"VEC3"},{"bufferView":21,"byteOffset":0,"componentType":5126,"count":1110,"type":"VEC3"},{"bufferView":22,"byteOffset":0,"componentType":5126,"count":1110,"type":"VEC4"},{"bufferView":23,"byteOffset":0,"componentType":5126,"count":1110,"type":"VEC2"},{"bufferView":24,"byteOffset":0,"componentType":5126,"count":1110,"type":"VEC2"},{"bufferView":25,"byteOffset":0,"componentType":5123,"count":234,"type":"SCALAR"},{"bufferView":26,"byteOffset":0,"componentType":5126,"count":210,"max":[0.554931461811066,0.575101554393768,1.95274317264557],"min":[-0.55874943733215,-0.571493268013,-1.61330461502075],"type":"VEC3"},{"bufferView":27,"byteOffset":0,"componentType":5126,"count":210,"type":"VEC3"},{"bufferView":28,"byteOffset":0,"componentType":5126,"count":210,"type":"VEC2"},{"bufferView":29,"byteOffset":0,"componentType":5126,"count":210,"type":"VEC2"}],"animations":[{"channels":[],"name":"Unreal Take","samplers":[]}],"asset":{"generator":"FBX2glTF v0.13.0","version":"2.0"},"bufferViews":[{"buffer":0,"byteLength":4,"byteOffset":0},{"buffer":0,"byteLength":24804,"byteOffset":4,"target":34963},{"buffer":0,"byteLength":49344,"byteOffset":24808,"target":34962},{"buffer":0,"byteLength":49344,"byteOffset":74152,"target":34962},{"buffer":0,"byteLength":65792,"byteOffset":123496,"target":34962},{"buffer":0,"byteLength":32896,"byteOffset":189288,"target":34962},{"buffer":0,"byteLength":32896,"byteOffset":222184,"target":34962},{"buffer":0,"byteLength":18606,"byteOffset":255080,"target":34963},{"buffer":0,"byteLength":37116,"byteOffset":273688,"target":34962},{"buffer":0,"byteLength":37116,"byteOffset":310804,"target":34962},{"buffer":0,"byteLength":49488,"byteOffset":347920,"target":34962},{"buffer":0,"byteLength":24744,"byteOffset":397408,"target":34962},{"buffer":0,"byteLength":24744,"byteOffset":422152,"target":34962},{"buffer":0,"byteLength":12402,"byteOffset":446896,"target":34963},{"buffer":0,"byteLength":25740,"byteOffset":459300,"target":34962},{"buffer":0,"byteLength":25740,"byteOffset":485040,"target":34962},{"buffer":0,"byteLength":34320,"byteOffset":510780,"target":34962},{"buffer":0,"byteLength":17160,"byteOffset":545100,"target":34962},{"buffer":0,"byteLength":17160,"byteOffset":562260,"target":34962},{"buffer":0,"byteLength":6204,"byteOffset":579420,"target":34963},{"buffer":0,"byteLength":13320,"byteOffset":585624,"target":34962},{"buffer":0,"byteLength":13320,"byteOffset":598944,"target":34962},{"buffer":0,"byteLength":17760,"byteOffset":612264,"target":34962},{"buffer":0,"byteLength":8880,"byteOffset":630024,"target":34962},{"buffer":0,"byteLength":8880,"byteOffset":638904,"target":34962},{"buffer":0,"byteLength":468,"byteOffset":647784,"target":34963},{"buffer":0,"byteLength":2520,"byteOffset":648252,"target":34962},{"buffer":0,"byteLength":2520,"byteOffset":650772,"target":34962},{"buffer":0,"byteLength":1680,"byteOffset":653292,"target":34962},{"buffer":0,"byteLength":1680,"byteOffset":654972,"target":34962}],"buffers":[{"byteLength":656652,"uri":"SM_Kitchen_Countertop_A.bin"}],"images":[{"name":"FlatNormal","uri":"FlatNormal.tga"}],"materials":[{"alphaMode":"OPAQUE","doubleSided":false,"extras":{"fromFBX":{"isTruePBR":false,"shadingModel":"Phong"}},"name":"MI_CounterTop_A","normalTexture":{"index":0,"texCoord":0},"pbrMetallicRoughness":{"baseColorFactor":[0.21586050093174,0.21586050093174,0.21586050093174,1],"metallicFactor":0.400000005960464,"roughnessFactor":0.301511347293854}},{"alphaMode":"OPAQUE","doubleSided":false,"extras":{"fromFBX":{"isTruePBR":false,"shadingModel":"Lambert"}},"name":"DefaultMaterial","pbrMetallicRoughness":{"baseColorFactor":[0.5,0.5,0.5,1],"metallicFactor":0.200000002980232,"roughnessFactor":0.800000011920929}}],"meshes":[{"name":"SM_Kitchen_Countertop_A_LOD0","primitives":[{"attributes":{"NORMAL":3,"POSITION":2,"TANGENT":4,"TEXCOORD_0":5,"TEXCOORD_1":6},"indices":1,"material":0,"mode":4}]},{"name":"SM_Kitchen_Countertop_A_LOD1","primitives":[{"attributes":{"NORMAL":9,"POSITION":8,"TANGENT":10,"TEXCOORD_0":11,"TEXCOORD_1":12},"indices":7,"material":0,"mode":4}]},{"name":"SM_Kitchen_Countertop_A_LOD2","primitives":[{"attributes":{"NORMAL":15,"POSITION":14,"TANGENT":16,"TEXCOORD_0":17,"TEXCOORD_1":18},"indices":13,"material":0,"mode":4}]},{"name":"SM_Kitchen_Countertop_A_LOD3","primitives":[{"attributes":{"NORMAL":21,"POSITION":20,"TANGENT":22,"TEXCOORD_0":23,"TEXCOORD_1":24},"indices":19,"material":0,"mode":4}]},{"name":"SM_Kitchen_Countertop_A_ConvexHulls","primitives":[{"attributes":{"NORMAL":27,"POSITION":26,"TEXCOORD_0":28,"TEXCOORD_1":29},"indices":25,"material":1,"mode":4}]}],"nodes":[{"children":[1,2,3,4,5],"name":"Kitchen_Countertop_A_polySurface171_38","originalUnits":0.00999999977648258,"pivot":[0,0,0],"rotation":[0,0,0,1],"scale":[1,1,1],"translation":[0,0,0]},{"mesh":0,"name":"SM_Kitchen_Countertop_A_LOD0","originalUnits":0.00999999977648258,"pivot":[0,0,0],"rotation":[0,0,0,1],"scale":[1,1,1],"translation":[0,0,0]},{"mesh":4,"name":"SM_Kitchen_Countertop_A_ConvexHulls","originalUnits":0.00999999977648258,"pivot":[0,0,0],"rotation":[0,0,0,1],"scale":[1,1,1],"translation":[0,0,0]},{"mesh":1,"name":"SM_Kitchen_Countertop_A_LOD1","originalUnits":0.00999999977648258,"pivot":[0,0,0],"rotation":[0,0,0,1],"scale":[1,1,1],"translation":[0,0,0]},{"mesh":2,"name":"SM_Kitchen_Countertop_A_LOD2","originalUnits":0.00999999977648258,"pivot":[0,0,0],"rotation":[0,0,0,1],"scale":[1,1,1],"translation":[0,0,0]},{"mesh":3,"name":"SM_Kitchen_Countertop_A_LOD3","originalUnits":0.00999999977648258,"pivot":[0,0,0],"rotation":[0,0,0,1],"scale":[1,1,1],"translation":[0,0,0]}],"samplers":[{}],"scene":0,"scenes":[{"name":"Root Scene","nodes":[0]}],"textures":[{"name":"T_Default_N","sampler":0,"source":0}]}