{"accessors":[{"bufferView":0,"byteOffset":0,"componentType":5126,"count":1,"max":[0],"min":[0],"type":"SCALAR"},{"bufferView":1,"byteOffset":0,"componentType":5123,"count":5580,"type":"SCALAR"},{"bufferView":2,"byteOffset":0,"componentType":5126,"count":1040,"max":[0.504677891731262,0.0349122509360313,1.03449773788452],"min":[-0.50311428308487,0.0192100703716278,-1.03454685211182],"type":"VEC3"},{"bufferView":3,"byteOffset":0,"componentType":5126,"count":1040,"type":"VEC3"},{"bufferView":4,"byteOffset":0,"componentType":5126,"count":1040,"type":"VEC4"},{"bufferView":5,"byteOffset":0,"componentType":5126,"count":1040,"type":"VEC2"},{"bufferView":6,"byteOffset":0,"componentType":5126,"count":1040,"type":"VEC2"},{"bufferView":7,"byteOffset":0,"componentType":5123,"count":4185,"type":"SCALAR"},{"bufferView":8,"byteOffset":0,"componentType":5126,"count":785,"max":[0.504677593708038,0.0349513851106167,1.03449773788452],"min":[-0.50311416387558,0.0192100740969181,-1.03454685211182],"type":"VEC3"},{"bufferView":9,"byteOffset":0,"componentType":5126,"count":785,"type":"VEC3"},{"bufferView":10,"byteOffset":0,"componentType":5126,"count":785,"type":"VEC4"},{"bufferView":11,"byteOffset":0,"componentType":5126,"count":785,"type":"VEC2"},{"bufferView":12,"byteOffset":0,"componentType":5126,"count":785,"type":"VEC2"},{"bufferView":13,"byteOffset":0,"componentType":5123,"count":2787,"type":"SCALAR"},{"bufferView":14,"byteOffset":0,"componentType":5126,"count":540,"max":[0.504677593708038,0.034938171505928,1.03449773788452],"min":[-0.50311416387558,0.0192054342478514,-1.03454685211182],"type":"VEC3"},{"bufferView":15,"byteOffset":0,"componentType":5126,"count":540,"type":"VEC3"},{"bufferView":16,"byteOffset":0,"componentType":5126,"count":540,"type":"VEC4"},{"bufferView":17,"byteOffset":0,"componentType":5126,"count":540,"type":"VEC2"},{"bufferView":18,"byteOffset":0,"componentType":5126,"count":540,"type":"VEC2"},{"bufferView":19,"byteOffset":0,"componentType":5123,"count":1395,"type":"SCALAR"},{"bufferView":20,"byteOffset":0,"componentType":5126,"count":292,"max":[0.504641115665436,0.0353444069623947,1.03449773788452],"min":[-0.50311416387558,0.0185544434934855,-1.03455400466919],"type":"VEC3"},{"bufferView":21,"byteOffset":0,"componentType":5126,"count":292,"type":"VEC3"},{"bufferView":22,"byteOffset":0,"componentType":5126,"count":292,"type":"VEC4"},{"bufferView":23,"byteOffset":0,"componentType":5126,"count":292,"type":"VEC2"},{"bufferView":24,"byteOffset":0,"componentType":5126,"count":292,"type":"VEC2"},{"bufferView":25,"byteOffset":0,"componentType":5123,"count":162,"type":"SCALAR"},{"bufferView":26,"byteOffset":0,"componentType":5126,"count":134,"max":[0.509724497795105,0.0444424413144588,1.03954422473907],"min":[-0.50965863466263,0.0141665833070874,-1.03959321975708],"type":"VEC3"},{"bufferView":27,"byteOffset":0,"componentType":5126,"count":134,"type":"VEC3"},{"bufferView":28,"byteOffset":0,"componentType":5126,"count":134,"type":"VEC2"},{"bufferView":29,"byteOffset":0,"componentType":5126,"count":134,"type":"VEC2"}],"animations":[{"channels":[],"name":"Unreal Take","samplers":[]}],"asset":{"generator":"FBX2glTF v0.13.0","version":"2.0"},"bufferViews":[{"buffer":0,"byteLength":4,"byteOffset":0},{"buffer":0,"byteLength":11160,"byteOffset":4,"target":34963},{"buffer":0,"byteLength":12480,"byteOffset":11164,"target":34962},{"buffer":0,"byteLength":12480,"byteOffset":23644,"target":34962},{"buffer":0,"byteLength":16640,"byteOffset":36124,"target":34962},{"buffer":0,"byteLength":8320,"byteOffset":52764,"target":34962},{"buffer":0,"byteLength":8320,"byteOffset":61084,"target":34962},{"buffer":0,"byteLength":8370,"byteOffset":69404,"target":34963},{"buffer":0,"byteLength":9420,"byteOffset":77776,"target":34962},{"buffer":0,"byteLength":9420,"byteOffset":87196,"target":34962},{"buffer":0,"byteLength":12560,"byteOffset":96616,"target":34962},{"buffer":0,"byteLength":6280,"byteOffset":109176,"target":34962},{"buffer":0,"byteLength":6280,"byteOffset":115456,"target":34962},{"buffer":0,"byteLength":5574,"byteOffset":121736,"target":34963},{"buffer":0,"byteLength":6480,"byteOffset":127312,"target":34962},{"buffer":0,"byteLength":6480,"byteOffset":133792,"target":34962},{"buffer":0,"byteLength":8640,"byteOffset":140272,"target":34962},{"buffer":0,"byteLength":4320,"byteOffset":148912,"target":34962},{"buffer":0,"byteLength":4320,"byteOffset":153232,"target":34962},{"buffer":0,"byteLength":2790,"byteOffset":157552,"target":34963},{"buffer":0,"byteLength":3504,"byteOffset":160344,"target":34962},{"buffer":0,"byteLength":3504,"byteOffset":163848,"target":34962},{"buffer":0,"byteLength":4672,"byteOffset":167352,"target":34962},{"buffer":0,"byteLength":2336,"byteOffset":172024,"target":34962},{"buffer":0,"byteLength":2336,"byteOffset":174360,"target":34962},{"buffer":0,"byteLength":324,"byteOffset":176696,"target":34963},{"buffer":0,"byteLength":1608,"byteOffset":177020,"target":34962},{"buffer":0,"byteLength":1608,"byteOffset":178628,"target":34962},{"buffer":0,"byteLength":1072,"byteOffset":180236,"target":34962},{"buffer":0,"byteLength":1072,"byteOffset":181308,"target":34962}],"buffers":[{"byteLength":182380,"uri":"SM_Kitchen.bin"}],"images":[{"name":"FlatNormal","uri":"FlatNormal.tga"}],"materials":[{"alphaMode":"OPAQUE","doubleSided":false,"extras":{"fromFBX":{"isTruePBR":false,"shadingModel":"Phong"}},"name":"MI_Kitchen","normalTexture":{"index":0,"texCoord":0},"pbrMetallicRoughness":{"baseColorFactor":[0.21586050093174,0.21586050093174,0.21586050093174,1],"metallicFactor":0.400000005960464,"roughnessFactor":0.301511347293854}},{"alphaMode":"OPAQUE","doubleSided":false,"extras":{"fromFBX":{"isTruePBR":false,"shadingModel":"Lambert"}},"name":"DefaultMaterial","pbrMetallicRoughness":{"baseColorFactor":[0.5,0.5,0.5,1],"metallicFactor":0.200000002980232,"roughnessFactor":0.800000011920929}}],"meshes":[{"name":"SM_Kitchen_LOD0","primitives":[{"attributes":{"NORMAL":3,"POSITION":2,"TANGENT":4,"TEXCOORD_0":5,"TEXCOORD_1":6},"indices":1,"material":0,"mode":4}]},{"name":"SM_Kitchen_LOD1","primitives":[{"attributes":{"NORMAL":9,"POSITION":8,"TANGENT":10,"TEXCOORD_0":11,"TEXCOORD_1":12},"indices":7,"material":0,"mode":4}]},{"name":"SM_Kitchen_LOD2","primitives":[{"attributes":{"NORMAL":15,"POSITION":14,"TANGENT":16,"TEXCOORD_0":17,"TEXCOORD_1":18},"indices":13,"material":0,"mode":4}]},{"name":"SM_Kitchen_LOD3","primitives":[{"attributes":{"NORMAL":21,"POSITION":20,"TANGENT":22,"TEXCOORD_0":23,"TEXCOORD_1":24},"indices":19,"material":0,"mode":4}]},{"name":"SM_Kitchen_ConvexHulls","primitives":[{"attributes":{"NORMAL":27,"POSITION":26,"TEXCOORD_0":28,"TEXCOORD_1":29},"indices":25,"material":1,"mode":4}]}],"nodes":[{"children":[1,2,3,4,5],"name":"Kitchen_Mat2","originalUnits":0.00999999977648258,"pivot":[0,0,0],"rotation":[0,0,0,1],"scale":[1,1,1],"translation":[0,0,0]},{"mesh":0,"name":"SM_Kitchen_LOD0","originalUnits":0.00999999977648258,"pivot":[0,0,0],"rotation":[0,0,0,1],"scale":[1,1,1],"translation":[0,0,0]},{"mesh":4,"name":"SM_Kitchen_ConvexHulls","originalUnits":0.00999999977648258,"pivot":[0,0,0],"rotation":[0,0,0,1],"scale":[1,1,1],"translation":[0,0,0]},{"mesh":1,"name":"SM_Kitchen_LOD1","originalUnits":0.00999999977648258,"pivot":[0,0,0],"rotation":[0,0,0,1],"scale":[1,1,1],"translation":[0,0,0]},{"mesh":2,"name":"SM_Kitchen_LOD2","originalUnits":0.00999999977648258,"pivot":[0,0,0],"rotation":[0,0,0,1],"scale":[1,1,1],"translation":[0,0,0]},{"mesh":3,"name":"SM_Kitchen_LOD3","originalUnits":0.00999999977648258,"pivot":[0,0,0],"rotation":[0,0,0,1],"scale":[1,1,1],"translation":[0,0,0]}],"samplers":[{}],"scene":0,"scenes":[{"name":"Root Scene","nodes":[0]}],"textures":[{"name":"T_Default_N","sampler":0,"source":0}]}