{"accessors":[{"bufferView":0,"byteOffset":0,"componentType":5126,"count":1,"max":[0],"min":[0],"type":"SCALAR"},{"bufferView":1,"byteOffset":0,"componentType":5123,"count":11400,"type":"SCALAR"},{"bufferView":2,"byteOffset":0,"componentType":5126,"count":2020,"max":[0.118780687451363,0.339033603668213,0.118780814111233],"min":[-0.11878082156181,0.251787573099136,-0.11878065764904],"type":"VEC3"},{"bufferView":3,"byteOffset":0,"componentType":5126,"count":2020,"type":"VEC3"},{"bufferView":4,"byteOffset":0,"componentType":5126,"count":2020,"type":"VEC4"},{"bufferView":5,"byteOffset":0,"componentType":5126,"count":2020,"type":"VEC2"},{"bufferView":6,"byteOffset":0,"componentType":5126,"count":2020,"type":"VEC2"},{"bufferView":7,"byteOffset":0,"componentType":5123,"count":8460,"type":"SCALAR"},{"bufferView":8,"byteOffset":0,"componentType":5126,"count":1514,"max":[0.118780687451363,0.339033603668213,0.118780814111233],"min":[-0.11878082156181,0.251787573099136,-0.11878065764904],"type":"VEC3"},{"bufferView":9,"byteOffset":0,"componentType":5126,"count":1514,"type":"VEC3"},{"bufferView":10,"byteOffset":0,"componentType":5126,"count":1514,"type":"VEC4"},{"bufferView":11,"byteOffset":0,"componentType":5126,"count":1514,"type":"VEC2"},{"bufferView":12,"byteOffset":0,"componentType":5126,"count":1514,"type":"VEC2"},{"bufferView":13,"byteOffset":0,"componentType":5123,"count":5238,"type":"SCALAR"},{"bufferView":14,"byteOffset":0,"componentType":5126,"count":964,"max":[0.118780687451363,0.339010626077652,0.118780814111233],"min":[-0.11878082156181,0.251787573099136,-0.11878065764904],"type":"VEC3"},{"bufferView":15,"byteOffset":0,"componentType":5126,"count":964,"type":"VEC3"},{"bufferView":16,"byteOffset":0,"componentType":5126,"count":964,"type":"VEC4"},{"bufferView":17,"byteOffset":0,"componentType":5126,"count":964,"type":"VEC2"},{"bufferView":18,"byteOffset":0,"componentType":5126,"count":964,"type":"VEC2"},{"bufferView":19,"byteOffset":0,"componentType":5123,"count":1665,"type":"SCALAR"},{"bufferView":20,"byteOffset":0,"componentType":5126,"count":338,"max":[0.118894085288048,0.339010626077652,0.118780814111233],"min":[-0.11916158348322,0.251609802246094,-0.11910481005907],"type":"VEC3"},{"bufferView":21,"byteOffset":0,"componentType":5126,"count":338,"type":"VEC3"},{"bufferView":22,"byteOffset":0,"componentType":5126,"count":338,"type":"VEC4"},{"bufferView":23,"byteOffset":0,"componentType":5126,"count":338,"type":"VEC2"},{"bufferView":24,"byteOffset":0,"componentType":5126,"count":338,"type":"VEC2"},{"bufferView":25,"byteOffset":0,"componentType":5123,"count":9960,"type":"SCALAR"},{"bufferView":26,"byteOffset":0,"componentType":5126,"count":1760,"max":[0.126594662666321,0.252507746219635,0.126594856381416],"min":[-0.12659476697445,-0.0001192267955,-0.12659454345703],"type":"VEC3"},{"bufferView":27,"byteOffset":0,"componentType":5126,"count":1760,"type":"VEC3"},{"bufferView":28,"byteOffset":0,"componentType":5126,"count":1760,"type":"VEC4"},{"bufferView":29,"byteOffset":0,"componentType":5126,"count":1760,"type":"VEC2"},{"bufferView":30,"byteOffset":0,"componentType":5126,"count":1760,"type":"VEC2"},{"bufferView":31,"byteOffset":0,"componentType":5123,"count":7560,"type":"SCALAR"},{"bufferView":32,"byteOffset":0,"componentType":5126,"count":1357,"max":[0.126594662666321,0.252507746219635,0.126594856381416],"min":[-0.12659476697445,-0.0001192267955,-0.12659454345703],"type":"VEC3"},{"bufferView":33,"byteOffset":0,"componentType":5126,"count":1357,"type":"VEC3"},{"bufferView":34,"byteOffset":0,"componentType":5126,"count":1357,"type":"VEC4"},{"bufferView":35,"byteOffset":0,"componentType":5126,"count":1357,"type":"VEC2"},{"bufferView":36,"byteOffset":0,"componentType":5126,"count":1357,"type":"VEC2"},{"bufferView":37,"byteOffset":0,"componentType":5123,"count":5442,"type":"SCALAR"},{"bufferView":38,"byteOffset":0,"componentType":5126,"count":999,"max":[0.126594662666321,0.252507746219635,0.126594856381416],"min":[-0.12659476697445,-0.0001192267955,-0.12659454345703],"type":"VEC3"},{"bufferView":39,"byteOffset":0,"componentType":5126,"count":999,"type":"VEC3"},{"bufferView":40,"byteOffset":0,"componentType":5126,"count":999,"type":"VEC4"},{"bufferView":41,"byteOffset":0,"componentType":5126,"count":999,"type":"VEC2"},{"bufferView":42,"byteOffset":0,"componentType":5126,"count":999,"type":"VEC2"},{"bufferView":43,"byteOffset":0,"componentType":5123,"count":3672,"type":"SCALAR"},{"bufferView":44,"byteOffset":0,"componentType":5126,"count":688,"max":[0.126588553190231,0.252655625343323,0.126588746905327],"min":[-0.12657150626183,-0.0001192267955,-0.1265884488821],"type":"VEC3"},{"bufferView":45,"byteOffset":0,"componentType":5126,"count":688,"type":"VEC3"},{"bufferView":46,"byteOffset":0,"componentType":5126,"count":688,"type":"VEC4"},{"bufferView":47,"byteOffset":0,"componentType":5126,"count":688,"type":"VEC2"},{"bufferView":48,"byteOffset":0,"componentType":5126,"count":688,"type":"VEC2"},{"bufferView":49,"byteOffset":0,"componentType":5123,"count":84,"type":"SCALAR"},{"bufferView":50,"byteOffset":0,"componentType":5126,"count":84,"max":[0.124660991132259,0.332611799240112,0.124221473932266],"min":[-0.11988161504269,0.00313129019923508,-0.12403035908938],"type":"VEC3"},{"bufferView":51,"byteOffset":0,"componentType":5126,"count":84,"type":"VEC3"},{"bufferView":52,"byteOffset":0,"componentType":5126,"count":84,"type":"VEC2"},{"bufferView":53,"byteOffset":0,"componentType":5126,"count":84,"type":"VEC2"}],"animations":[{"channels":[],"name":"Unreal Take","samplers":[]}],"asset":{"generator":"FBX2glTF v0.13.0","version":"2.0"},"bufferViews":[{"buffer":0,"byteLength":4,"byteOffset":0},{"buffer":0,"byteLength":22800,"byteOffset":4,"target":34963},{"buffer":0,"byteLength":24240,"byteOffset":22804,"target":34962},{"buffer":0,"byteLength":24240,"byteOffset":47044,"target":34962},{"buffer":0,"byteLength":32320,"byteOffset":71284,"target":34962},{"buffer":0,"byteLength":16160,"byteOffset":103604,"target":34962},{"buffer":0,"byteLength":16160,"byteOffset":119764,"target":34962},{"buffer":0,"byteLength":16920,"byteOffset":135924,"target":34963},{"buffer":0,"byteLength":18168,"byteOffset":152844,"target":34962},{"buffer":0,"byteLength":18168,"byteOffset":171012,"target":34962},{"buffer":0,"byteLength":24224,"byteOffset":189180,"target":34962},{"buffer":0,"byteLength":12112,"byteOffset":213404,"target":34962},{"buffer":0,"byteLength":12112,"byteOffset":225516,"target":34962},{"buffer":0,"byteLength":10476,"byteOffset":237628,"target":34963},{"buffer":0,"byteLength":11568,"byteOffset":248104,"target":34962},{"buffer":0,"byteLength":11568,"byteOffset":259672,"target":34962},{"buffer":0,"byteLength":15424,"byteOffset":271240,"target":34962},{"buffer":0,"byteLength":7712,"byteOffset":286664,"target":34962},{"buffer":0,"byteLength":7712,"byteOffset":294376,"target":34962},{"buffer":0,"byteLength":3330,"byteOffset":302088,"target":34963},{"buffer":0,"byteLength":4056,"byteOffset":305420,"target":34962},{"buffer":0,"byteLength":4056,"byteOffset":309476,"target":34962},{"buffer":0,"byteLength":5408,"byteOffset":313532,"target":34962},{"buffer":0,"byteLength":2704,"byteOffset":318940,"target":34962},{"buffer":0,"byteLength":2704,"byteOffset":321644,"target":34962},{"buffer":0,"byteLength":19920,"byteOffset":324348,"target":34963},{"buffer":0,"byteLength":21120,"byteOffset":344268,"target":34962},{"buffer":0,"byteLength":21120,"byteOffset":365388,"target":34962},{"buffer":0,"byteLength":28160,"byteOffset":386508,"target":34962},{"buffer":0,"byteLength":14080,"byteOffset":414668,"target":34962},{"buffer":0,"byteLength":14080,"byteOffset":428748,"target":34962},{"buffer":0,"byteLength":15120,"byteOffset":442828,"target":34963},{"buffer":0,"byteLength":16284,"byteOffset":457948,"target":34962},{"buffer":0,"byteLength":16284,"byteOffset":474232,"target":34962},{"buffer":0,"byteLength":21712,"byteOffset":490516,"target":34962},{"buffer":0,"byteLength":10856,"byteOffset":512228,"target":34962},{"buffer":0,"byteLength":10856,"byteOffset":523084,"target":34962},{"buffer":0,"byteLength":10884,"byteOffset":533940,"target":34963},{"buffer":0,"byteLength":11988,"byteOffset":544824,"target":34962},{"buffer":0,"byteLength":11988,"byteOffset":556812,"target":34962},{"buffer":0,"byteLength":15984,"byteOffset":568800,"target":34962},{"buffer":0,"byteLength":7992,"byteOffset":584784,"target":34962},{"buffer":0,"byteLength":7992,"byteOffset":592776,"target":34962},{"buffer":0,"byteLength":7344,"byteOffset":600768,"target":34963},{"buffer":0,"byteLength":8256,"byteOffset":608112,"target":34962},{"buffer":0,"byteLength":8256,"byteOffset":616368,"target":34962},{"buffer":0,"byteLength":11008,"byteOffset":624624,"target":34962},{"buffer":0,"byteLength":5504,"byteOffset":635632,"target":34962},{"buffer":0,"byteLength":5504,"byteOffset":641136,"target":34962},{"buffer":0,"byteLength":168,"byteOffset":646640,"target":34963},{"buffer":0,"byteLength":1008,"byteOffset":646808,"target":34962},{"buffer":0,"byteLength":1008,"byteOffset":647816,"target":34962},{"buffer":0,"byteLength":672,"byteOffset":648824,"target":34962},{"buffer":0,"byteLength":672,"byteOffset":649496,"target":34962}],"buffers":[{"byteLength":650168,"uri":"SM_Kitchen_Props_B_Cookie_Jar.bin"}],"images":[{"name":"FlatNormal","uri":"FlatNormal.tga"}],"materials":[{"alphaMode":"OPAQUE","doubleSided":false,"extras":{"fromFBX":{"isTruePBR":false,"shadingModel":"Phong"}},"name":"MI_Cookie_Jar_Lid","normalTexture":{"index":0,"texCoord":0},"pbrMetallicRoughness":{"baseColorFactor":[0.21586050093174,0.21586050093174,0.21586050093174,1],"metallicFactor":0.400000005960464,"roughnessFactor":0.301511347293854}},{"alphaMode":"OPAQUE","doubleSided":false,"extras":{"fromFBX":{"isTruePBR":false,"shadingModel":"Phong"}},"name":"MI_Cookie_Jar","normalTexture":{"index":0,"texCoord":0},"pbrMetallicRoughness":{"baseColorFactor":[0.21586050093174,0.21586050093174,0.21586050093174,1],"metallicFactor":0.400000005960464,"roughnessFactor":0.301511347293854}},{"alphaMode":"OPAQUE","doubleSided":false,"extras":{"fromFBX":{"isTruePBR":false,"shadingModel":"Lambert"}},"name":"DefaultMaterial","pbrMetallicRoughness":{"baseColorFactor":[0.5,0.5,0.5,1],"metallicFactor":0.200000002980232,"roughnessFactor":0.800000011920929}}],"meshes":[{"name":"SM_Kitchen_Props_B_Cookie_Jar_LOD0","primitives":[{"attributes":{"NORMAL":3,"POSITION":2,"TANGENT":4,"TEXCOORD_0":5,"TEXCOORD_1":6},"indices":1,"material":0,"mode":4},{"attributes":{"NORMAL":27,"POSITION":26,"TANGENT":28,"TEXCOORD_0":29,"TEXCOORD_1":30},"indices":25,"material":1,"mode":4}]},{"name":"SM_Kitchen_Props_B_Cookie_Jar_LOD1","primitives":[{"attributes":{"NORMAL":9,"POSITION":8,"TANGENT":10,"TEXCOORD_0":11,"TEXCOORD_1":12},"indices":7,"material":0,"mode":4},{"attributes":{"NORMAL":33,"POSITION":32,"TANGENT":34,"TEXCOORD_0":35,"TEXCOORD_1":36},"indices":31,"material":1,"mode":4}]},{"name":"SM_Kitchen_Props_B_Cookie_Jar_LOD2","primitives":[{"attributes":{"NORMAL":15,"POSITION":14,"TANGENT":16,"TEXCOORD_0":17,"TEXCOORD_1":18},"indices":13,"material":0,"mode":4},{"attributes":{"NORMAL":39,"POSITION":38,"TANGENT":40,"TEXCOORD_0":41,"TEXCOORD_1":42},"indices":37,"material":1,"mode":4}]},{"name":"SM_Kitchen_Props_B_Cookie_Jar_LOD3","primitives":[{"attributes":{"NORMAL":21,"POSITION":20,"TANGENT":22,"TEXCOORD_0":23,"TEXCOORD_1":24},"indices":19,"material":0,"mode":4},{"attributes":{"NORMAL":45,"POSITION":44,"TANGENT":46,"TEXCOORD_0":47,"TEXCOORD_1":48},"indices":43,"material":1,"mode":4}]},{"name":"SM_Kitchen_Props_B_Cookie_Jar_ConvexHulls","primitives":[{"attributes":{"NORMAL":51,"POSITION":50,"TEXCOORD_0":52,"TEXCOORD_1":53},"indices":49,"material":2,"mode":4}]}],"nodes":[{"children":[1,2,3,4,5],"name":"Kitchen_Props_B_Cookie_Jar_22","originalUnits":0.00999999977648258,"pivot":[0,0,0],"rotation":[0,0,0,1],"scale":[1,1,1],"translation":[0,0,0]},{"mesh":0,"name":"SM_Kitchen_Props_B_Cookie_Jar_LOD0","originalUnits":0.00999999977648258,"pivot":[0,0,0],"rotation":[0,0,0,1],"scale":[1,1,1],"translation":[0,0,0]},{"mesh":4,"name":"SM_Kitchen_Props_B_Cookie_Jar_ConvexHulls","originalUnits":0.00999999977648258,"pivot":[0,0,0],"rotation":[0,0,0,1],"scale":[1,1,1],"translation":[0,0,0]},{"mesh":1,"name":"SM_Kitchen_Props_B_Cookie_Jar_LOD1","originalUnits":0.00999999977648258,"pivot":[0,0,0],"rotation":[0,0,0,1],"scale":[1,1,1],"translation":[0,0,0]},{"mesh":2,"name":"SM_Kitchen_Props_B_Cookie_Jar_LOD2","originalUnits":0.00999999977648258,"pivot":[0,0,0],"rotation":[0,0,0,1],"scale":[1,1,1],"translation":[0,0,0]},{"mesh":3,"name":"SM_Kitchen_Props_B_Cookie_Jar_LOD3","originalUnits":0.00999999977648258,"pivot":[0,0,0],"rotation":[0,0,0,1],"scale":[1,1,1],"translation":[0,0,0]}],"samplers":[{}],"scene":0,"scenes":[{"name":"Root Scene","nodes":[0]}],"textures":[{"name":"T_Default_N","sampler":0,"source":0}]}