{"accessors":[{"bufferView":0,"byteOffset":0,"componentType":5126,"count":1,"max":[0],"min":[0],"type":"SCALAR"},{"bufferView":1,"byteOffset":0,"componentType":5123,"count":2448,"type":"SCALAR"},{"bufferView":2,"byteOffset":0,"componentType":5126,"count":450,"max":[0.0480915531516075,0.0304571129381657,0.24458846449852],"min":[-0.04809149727225,-0.00093625416048,-0.24590782821178],"type":"VEC3"},{"bufferView":3,"byteOffset":0,"componentType":5126,"count":450,"type":"VEC3"},{"bufferView":4,"byteOffset":0,"componentType":5126,"count":450,"type":"VEC4"},{"bufferView":5,"byteOffset":0,"componentType":5126,"count":450,"type":"VEC2"},{"bufferView":6,"byteOffset":0,"componentType":5126,"count":450,"type":"VEC2"},{"bufferView":7,"byteOffset":0,"componentType":5123,"count":1836,"type":"SCALAR"},{"bufferView":8,"byteOffset":0,"componentType":5126,"count":348,"max":[0.0480915531516075,0.0304575935006142,0.24458846449852],"min":[-0.04809149727225,-0.00093625416048,-0.24590782821178],"type":"VEC3"},{"bufferView":9,"byteOffset":0,"componentType":5126,"count":348,"type":"VEC3"},{"bufferView":10,"byteOffset":0,"componentType":5126,"count":348,"type":"VEC4"},{"bufferView":11,"byteOffset":0,"componentType":5126,"count":348,"type":"VEC2"},{"bufferView":12,"byteOffset":0,"componentType":5126,"count":348,"type":"VEC2"},{"bufferView":13,"byteOffset":0,"componentType":5123,"count":1224,"type":"SCALAR"},{"bufferView":14,"byteOffset":0,"componentType":5126,"count":258,"max":[0.0480915531516075,0.0304876863956451,0.24458846449852],"min":[-0.04809149727225,-0.00097403384279,-0.24586971104145],"type":"VEC3"},{"bufferView":15,"byteOffset":0,"componentType":5126,"count":258,"type":"VEC3"},{"bufferView":16,"byteOffset":0,"componentType":5126,"count":258,"type":"VEC4"},{"bufferView":17,"byteOffset":0,"componentType":5126,"count":258,"type":"VEC2"},{"bufferView":18,"byteOffset":0,"componentType":5126,"count":258,"type":"VEC2"},{"bufferView":19,"byteOffset":0,"componentType":5123,"count":612,"type":"SCALAR"},{"bufferView":20,"byteOffset":0,"componentType":5126,"count":138,"max":[0.0485853478312492,0.0305388960987329,0.24458846449852],"min":[-0.04791790992022,-0.00099659292027,-0.24586971104145],"type":"VEC3"},{"bufferView":21,"byteOffset":0,"componentType":5126,"count":138,"type":"VEC3"},{"bufferView":22,"byteOffset":0,"componentType":5126,"count":138,"type":"VEC4"},{"bufferView":23,"byteOffset":0,"componentType":5126,"count":138,"type":"VEC2"},{"bufferView":24,"byteOffset":0,"componentType":5126,"count":138,"type":"VEC2"},{"bufferView":25,"byteOffset":0,"componentType":5123,"count":168,"type":"SCALAR"},{"bufferView":26,"byteOffset":0,"componentType":5126,"count":154,"max":[0.0469637103378773,0.0320430621504784,0.243804290890694],"min":[-0.0467727035284,-0.00254933303222,-0.24470549821854],"type":"VEC3"},{"bufferView":27,"byteOffset":0,"componentType":5126,"count":154,"type":"VEC3"},{"bufferView":28,"byteOffset":0,"componentType":5126,"count":154,"type":"VEC2"},{"bufferView":29,"byteOffset":0,"componentType":5126,"count":154,"type":"VEC2"}],"animations":[{"channels":[],"name":"Unreal Take","samplers":[]}],"asset":{"generator":"FBX2glTF v0.13.0","version":"2.0"},"bufferViews":[{"buffer":0,"byteLength":4,"byteOffset":0},{"buffer":0,"byteLength":4896,"byteOffset":4,"target":34963},{"buffer":0,"byteLength":5400,"byteOffset":4900,"target":34962},{"buffer":0,"byteLength":5400,"byteOffset":10300,"target":34962},{"buffer":0,"byteLength":7200,"byteOffset":15700,"target":34962},{"buffer":0,"byteLength":3600,"byteOffset":22900,"target":34962},{"buffer":0,"byteLength":3600,"byteOffset":26500,"target":34962},{"buffer":0,"byteLength":3672,"byteOffset":30100,"target":34963},{"buffer":0,"byteLength":4176,"byteOffset":33772,"target":34962},{"buffer":0,"byteLength":4176,"byteOffset":37948,"target":34962},{"buffer":0,"byteLength":5568,"byteOffset":42124,"target":34962},{"buffer":0,"byteLength":2784,"byteOffset":47692,"target":34962},{"buffer":0,"byteLength":2784,"byteOffset":50476,"target":34962},{"buffer":0,"byteLength":2448,"byteOffset":53260,"target":34963},{"buffer":0,"byteLength":3096,"byteOffset":55708,"target":34962},{"buffer":0,"byteLength":3096,"byteOffset":58804,"target":34962},{"buffer":0,"byteLength":4128,"byteOffset":61900,"target":34962},{"buffer":0,"byteLength":2064,"byteOffset":66028,"target":34962},{"buffer":0,"byteLength":2064,"byteOffset":68092,"target":34962},{"buffer":0,"byteLength":1224,"byteOffset":70156,"target":34963},{"buffer":0,"byteLength":1656,"byteOffset":71380,"target":34962},{"buffer":0,"byteLength":1656,"byteOffset":73036,"target":34962},{"buffer":0,"byteLength":2208,"byteOffset":74692,"target":34962},{"buffer":0,"byteLength":1104,"byteOffset":76900,"target":34962},{"buffer":0,"byteLength":1104,"byteOffset":78004,"target":34962},{"buffer":0,"byteLength":336,"byteOffset":79108,"target":34963},{"buffer":0,"byteLength":1848,"byteOffset":79444,"target":34962},{"buffer":0,"byteLength":1848,"byteOffset":81292,"target":34962},{"buffer":0,"byteLength":1232,"byteOffset":83140,"target":34962},{"buffer":0,"byteLength":1232,"byteOffset":84372,"target":34962}],"buffers":[{"byteLength":85604,"uri":"SM_KitchenUstensil_Spoon.bin"}],"images":[{"name":"T_KitchenUstensil_N","uri":"T_KitchenUstensil_N.tga"}],"materials":[{"alphaMode":"OPAQUE","doubleSided":false,"extras":{"fromFBX":{"isTruePBR":false,"shadingModel":"Phong"}},"name":"MI_KitchenUstensil","normalTexture":{"index":0,"texCoord":0},"pbrMetallicRoughness":{"baseColorFactor":[0.21586050093174,0.21586050093174,0.21586050093174,1],"metallicFactor":0.400000005960464,"roughnessFactor":0.301511347293854}},{"alphaMode":"OPAQUE","doubleSided":false,"extras":{"fromFBX":{"isTruePBR":false,"shadingModel":"Lambert"}},"name":"DefaultMaterial","pbrMetallicRoughness":{"baseColorFactor":[0.5,0.5,0.5,1],"metallicFactor":0.200000002980232,"roughnessFactor":0.800000011920929}}],"meshes":[{"name":"SM_KitchenUstensil_Spoon_LOD0","primitives":[{"attributes":{"NORMAL":3,"POSITION":2,"TANGENT":4,"TEXCOORD_0":5,"TEXCOORD_1":6},"indices":1,"material":0,"mode":4}]},{"name":"SM_KitchenUstensil_Spoon_LOD1","primitives":[{"attributes":{"NORMAL":9,"POSITION":8,"TANGENT":10,"TEXCOORD_0":11,"TEXCOORD_1":12},"indices":7,"material":0,"mode":4}]},{"name":"SM_KitchenUstensil_Spoon_LOD2","primitives":[{"attributes":{"NORMAL":15,"POSITION":14,"TANGENT":16,"TEXCOORD_0":17,"TEXCOORD_1":18},"indices":13,"material":0,"mode":4}]},{"name":"SM_KitchenUstensil_Spoon_LOD3","primitives":[{"attributes":{"NORMAL":21,"POSITION":20,"TANGENT":22,"TEXCOORD_0":23,"TEXCOORD_1":24},"indices":19,"material":0,"mode":4}]},{"name":"SM_KitchenUstensil_Spoon_ConvexHulls","primitives":[{"attributes":{"NORMAL":27,"POSITION":26,"TEXCOORD_0":28,"TEXCOORD_1":29},"indices":25,"material":1,"mode":4}]}],"nodes":[{"children":[1,2,3,4,5],"name":"SM_KitchenUstensil_Spoon_163","originalUnits":0.00999999977648258,"pivot":[0,0,0],"rotation":[0,0,0,1],"scale":[1,1,1],"translation":[0,0,0]},{"mesh":0,"name":"SM_KitchenUstensil_Spoon_LOD0","originalUnits":0.00999999977648258,"pivot":[0,0,0],"rotation":[0,0,0,1],"scale":[1,1,1],"translation":[0,0,0]},{"mesh":4,"name":"SM_KitchenUstensil_Spoon_ConvexHulls","originalUnits":0.00999999977648258,"pivot":[0,0,0],"rotation":[0,0,0,1],"scale":[1,1,1],"translation":[0,0,0]},{"mesh":1,"name":"SM_KitchenUstensil_Spoon_LOD1","originalUnits":0.00999999977648258,"pivot":[0,0,0],"rotation":[0,0,0,1],"scale":[1,1,1],"translation":[0,0,0]},{"mesh":2,"name":"SM_KitchenUstensil_Spoon_LOD2","originalUnits":0.00999999977648258,"pivot":[0,0,0],"rotation":[0,0,0,1],"scale":[1,1,1],"translation":[0,0,0]},{"mesh":3,"name":"SM_KitchenUstensil_Spoon_LOD3","originalUnits":0.00999999977648258,"pivot":[0,0,0],"rotation":[0,0,0,1],"scale":[1,1,1],"translation":[0,0,0]}],"samplers":[{}],"scene":0,"scenes":[{"name":"Root Scene","nodes":[0]}],"textures":[{"name":"T_KitchenUstensil_N","sampler":0,"source":0}]}