{"accessors":[{"bufferView":0,"byteOffset":0,"componentType":5126,"count":1,"max":[0],"min":[0],"type":"SCALAR"},{"bufferView":1,"byteOffset":0,"componentType":5123,"count":80550,"type":"SCALAR"},{"bufferView":2,"byteOffset":0,"componentType":5126,"count":18948,"max":[0.271436840295792,0.00729363225400448,0.271436750888824],"min":[-0.27143660187721,-0.92778438329697,-0.27143675088882],"type":"VEC3"},{"bufferView":3,"byteOffset":0,"componentType":5126,"count":18948,"type":"VEC3"},{"bufferView":4,"byteOffset":0,"componentType":5126,"count":18948,"type":"VEC4"},{"bufferView":5,"byteOffset":0,"componentType":5126,"count":18948,"type":"VEC2"},{"bufferView":6,"byteOffset":0,"componentType":5126,"count":18948,"type":"VEC2"},{"bufferView":7,"byteOffset":0,"componentType":5123,"count":60339,"type":"SCALAR"},{"bufferView":8,"byteOffset":0,"componentType":5126,"count":15314,"max":[0.271436840295792,0.00744962273165584,0.271436750888824],"min":[-0.27143660187721,-0.92778438329697,-0.27143675088882],"type":"VEC3"},{"bufferView":9,"byteOffset":0,"componentType":5126,"count":15314,"type":"VEC3"},{"bufferView":10,"byteOffset":0,"componentType":5126,"count":15314,"type":"VEC4"},{"bufferView":11,"byteOffset":0,"componentType":5126,"count":15314,"type":"VEC2"},{"bufferView":12,"byteOffset":0,"componentType":5126,"count":15314,"type":"VEC2"},{"bufferView":13,"byteOffset":0,"componentType":5123,"count":40080,"type":"SCALAR"},{"bufferView":14,"byteOffset":0,"componentType":5126,"count":11543,"max":[0.271436840295792,0.00744962273165584,0.271436750888824],"min":[-0.27143660187721,-0.92778438329697,-0.27143675088882],"type":"VEC3"},{"bufferView":15,"byteOffset":0,"componentType":5126,"count":11543,"type":"VEC3"},{"bufferView":16,"byteOffset":0,"componentType":5126,"count":11543,"type":"VEC4"},{"bufferView":17,"byteOffset":0,"componentType":5126,"count":11543,"type":"VEC2"},{"bufferView":18,"byteOffset":0,"componentType":5126,"count":11543,"type":"VEC2"},{"bufferView":19,"byteOffset":0,"componentType":5123,"count":19827,"type":"SCALAR"},{"bufferView":20,"byteOffset":0,"componentType":5126,"count":6476,"max":[0.271414458751678,0.0077586374245584,0.271414369344711],"min":[-0.27141425013542,-0.92783588171005,-0.27141436934471],"type":"VEC3"},{"bufferView":21,"byteOffset":0,"componentType":5126,"count":6476,"type":"VEC3"},{"bufferView":22,"byteOffset":0,"componentType":5126,"count":6476,"type":"VEC4"},{"bufferView":23,"byteOffset":0,"componentType":5126,"count":6476,"type":"VEC2"},{"bufferView":24,"byteOffset":0,"componentType":5126,"count":6476,"type":"VEC2"},{"bufferView":25,"byteOffset":0,"componentType":5123,"count":480,"type":"SCALAR"},{"bufferView":26,"byteOffset":0,"componentType":5126,"count":168,"max":[0.25577250123024,-0.78916829824448,0.25577238202095],"min":[-0.25577229261398,-0.88553190231323,-0.25577244162559],"type":"VEC3"},{"bufferView":27,"byteOffset":0,"componentType":5126,"count":168,"type":"VEC3"},{"bufferView":28,"byteOffset":0,"componentType":5126,"count":168,"type":"VEC4"},{"bufferView":29,"byteOffset":0,"componentType":5126,"count":168,"type":"VEC2"},{"bufferView":30,"byteOffset":0,"componentType":5126,"count":168,"type":"VEC2"},{"bufferView":31,"byteOffset":0,"componentType":5123,"count":432,"type":"SCALAR"},{"bufferView":32,"byteOffset":0,"componentType":5126,"count":160,"max":[0.25577250123024,-0.78916829824448,0.25577238202095],"min":[-0.25577229261398,-0.88553190231323,-0.25577244162559],"type":"VEC3"},{"bufferView":33,"byteOffset":0,"componentType":5126,"count":160,"type":"VEC3"},{"bufferView":34,"byteOffset":0,"componentType":5126,"count":160,"type":"VEC4"},{"bufferView":35,"byteOffset":0,"componentType":5126,"count":160,"type":"VEC2"},{"bufferView":36,"byteOffset":0,"componentType":5126,"count":160,"type":"VEC2"},{"bufferView":37,"byteOffset":0,"componentType":5123,"count":432,"type":"SCALAR"},{"bufferView":38,"byteOffset":0,"componentType":5126,"count":160,"max":[0.25577250123024,-0.78916829824448,0.25577238202095],"min":[-0.25577229261398,-0.88553190231323,-0.25577244162559],"type":"VEC3"},{"bufferView":39,"byteOffset":0,"componentType":5126,"count":160,"type":"VEC3"},{"bufferView":40,"byteOffset":0,"componentType":5126,"count":160,"type":"VEC4"},{"bufferView":41,"byteOffset":0,"componentType":5126,"count":160,"type":"VEC2"},{"bufferView":42,"byteOffset":0,"componentType":5126,"count":160,"type":"VEC2"},{"bufferView":43,"byteOffset":0,"componentType":5123,"count":432,"type":"SCALAR"},{"bufferView":44,"byteOffset":0,"componentType":5126,"count":160,"max":[0.25577250123024,-0.78916829824448,0.25577238202095],"min":[-0.25577229261398,-0.88553190231323,-0.25577244162559],"type":"VEC3"},{"bufferView":45,"byteOffset":0,"componentType":5126,"count":160,"type":"VEC3"},{"bufferView":46,"byteOffset":0,"componentType":5126,"count":160,"type":"VEC4"},{"bufferView":47,"byteOffset":0,"componentType":5126,"count":160,"type":"VEC2"},{"bufferView":48,"byteOffset":0,"componentType":5126,"count":160,"type":"VEC2"},{"bufferView":49,"byteOffset":0,"componentType":5123,"count":324,"type":"SCALAR"},{"bufferView":50,"byteOffset":0,"componentType":5126,"count":316,"max":[0.271098881959915,0.0113533558323979,0.271140158176422],"min":[-0.27075305581093,-0.93300354480743,-0.27413082122803],"type":"VEC3"},{"bufferView":51,"byteOffset":0,"componentType":5126,"count":316,"type":"VEC3"},{"bufferView":52,"byteOffset":0,"componentType":5126,"count":316,"type":"VEC2"},{"bufferView":53,"byteOffset":0,"componentType":5126,"count":316,"type":"VEC2"}],"animations":[{"channels":[],"name":"Unreal Take","samplers":[]}],"asset":{"generator":"FBX2glTF v0.13.0","version":"2.0"},"bufferViews":[{"buffer":0,"byteLength":4,"byteOffset":0},{"buffer":0,"byteLength":161100,"byteOffset":4,"target":34963},{"buffer":0,"byteLength":227376,"byteOffset":161104,"target":34962},{"buffer":0,"byteLength":227376,"byteOffset":388480,"target":34962},{"buffer":0,"byteLength":303168,"byteOffset":615856,"target":34962},{"buffer":0,"byteLength":151584,"byteOffset":919024,"target":34962},{"buffer":0,"byteLength":151584,"byteOffset":1070608,"target":34962},{"buffer":0,"byteLength":120678,"byteOffset":1222192,"target":34963},{"buffer":0,"byteLength":183768,"byteOffset":1342872,"target":34962},{"buffer":0,"byteLength":183768,"byteOffset":1526640,"target":34962},{"buffer":0,"byteLength":245024,"byteOffset":1710408,"target":34962},{"buffer":0,"byteLength":122512,"byteOffset":1955432,"target":34962},{"buffer":0,"byteLength":122512,"byteOffset":2077944,"target":34962},{"buffer":0,"byteLength":80160,"byteOffset":2200456,"target":34963},{"buffer":0,"byteLength":138516,"byteOffset":2280616,"target":34962},{"buffer":0,"byteLength":138516,"byteOffset":2419132,"target":34962},{"buffer":0,"byteLength":184688,"byteOffset":2557648,"target":34962},{"buffer":0,"byteLength":92344,"byteOffset":2742336,"target":34962},{"buffer":0,"byteLength":92344,"byteOffset":2834680,"target":34962},{"buffer":0,"byteLength":39654,"byteOffset":2927024,"target":34963},{"buffer":0,"byteLength":77712,"byteOffset":2966680,"target":34962},{"buffer":0,"byteLength":77712,"byteOffset":3044392,"target":34962},{"buffer":0,"byteLength":103616,"byteOffset":3122104,"target":34962},{"buffer":0,"byteLength":51808,"byteOffset":3225720,"target":34962},{"buffer":0,"byteLength":51808,"byteOffset":3277528,"target":34962},{"buffer":0,"byteLength":960,"byteOffset":3329336,"target":34963},{"buffer":0,"byteLength":2016,"byteOffset":3330296,"target":34962},{"buffer":0,"byteLength":2016,"byteOffset":3332312,"target":34962},{"buffer":0,"byteLength":2688,"byteOffset":3334328,"target":34962},{"buffer":0,"byteLength":1344,"byteOffset":3337016,"target":34962},{"buffer":0,"byteLength":1344,"byteOffset":3338360,"target":34962},{"buffer":0,"byteLength":864,"byteOffset":3339704,"target":34963},{"buffer":0,"byteLength":1920,"byteOffset":3340568,"target":34962},{"buffer":0,"byteLength":1920,"byteOffset":3342488,"target":34962},{"buffer":0,"byteLength":2560,"byteOffset":3344408,"target":34962},{"buffer":0,"byteLength":1280,"byteOffset":3346968,"target":34962},{"buffer":0,"byteLength":1280,"byteOffset":3348248,"target":34962},{"buffer":0,"byteLength":864,"byteOffset":3349528,"target":34963},{"buffer":0,"byteLength":1920,"byteOffset":3350392,"target":34962},{"buffer":0,"byteLength":1920,"byteOffset":3352312,"target":34962},{"buffer":0,"byteLength":2560,"byteOffset":3354232,"target":34962},{"buffer":0,"byteLength":1280,"byteOffset":3356792,"target":34962},{"buffer":0,"byteLength":1280,"byteOffset":3358072,"target":34962},{"buffer":0,"byteLength":864,"byteOffset":3359352,"target":34963},{"buffer":0,"byteLength":1920,"byteOffset":3360216,"target":34962},{"buffer":0,"byteLength":1920,"byteOffset":3362136,"target":34962},{"buffer":0,"byteLength":2560,"byteOffset":3364056,"target":34962},{"buffer":0,"byteLength":1280,"byteOffset":3366616,"target":34962},{"buffer":0,"byteLength":1280,"byteOffset":3367896,"target":34962},{"buffer":0,"byteLength":648,"byteOffset":3369176,"target":34963},{"buffer":0,"byteLength":3792,"byteOffset":3369824,"target":34962},{"buffer":0,"byteLength":3792,"byteOffset":3373616,"target":34962},{"buffer":0,"byteLength":2528,"byteOffset":3377408,"target":34962},{"buffer":0,"byteLength":2528,"byteOffset":3379936,"target":34962}],"buffers":[{"byteLength":3382464,"uri":"SM_Kitchen_Chandelier.bin"}],"images":[{"name":"FlatNormal","uri":"FlatNormal.tga"}],"materials":[{"alphaMode":"OPAQUE","doubleSided":false,"extras":{"fromFBX":{"isTruePBR":false,"shadingModel":"Phong"}},"name":"MI_Kitchen_Chandelier_Orange","normalTexture":{"index":0,"texCoord":0},"pbrMetallicRoughness":{"baseColorFactor":[0.21586050093174,0.21586050093174,0.21586050093174,1],"metallicFactor":0.400000005960464,"roughnessFactor":0.301511347293854}},{"alphaMode":"OPAQUE","doubleSided":false,"extras":{"fromFBX":{"isTruePBR":false,"shadingModel":"Phong"}},"name":"MI_Kitchen_Chandelier_Green","normalTexture":{"index":0,"texCoord":0},"pbrMetallicRoughness":{"baseColorFactor":[0.21586050093174,0.21586050093174,0.21586050093174,1],"metallicFactor":0.400000005960464,"roughnessFactor":0.301511347293854}},{"alphaMode":"OPAQUE","doubleSided":false,"extras":{"fromFBX":{"isTruePBR":false,"shadingModel":"Lambert"}},"name":"DefaultMaterial","pbrMetallicRoughness":{"baseColorFactor":[0.5,0.5,0.5,1],"metallicFactor":0.200000002980232,"roughnessFactor":0.800000011920929}}],"meshes":[{"name":"SM_Kitchen_Chandelier_LOD0","primitives":[{"attributes":{"NORMAL":3,"POSITION":2,"TANGENT":4,"TEXCOORD_0":5,"TEXCOORD_1":6},"indices":1,"material":0,"mode":4},{"attributes":{"NORMAL":27,"POSITION":26,"TANGENT":28,"TEXCOORD_0":29,"TEXCOORD_1":30},"indices":25,"material":1,"mode":4}]},{"name":"SM_Kitchen_Chandelier_LOD1","primitives":[{"attributes":{"NORMAL":9,"POSITION":8,"TANGENT":10,"TEXCOORD_0":11,"TEXCOORD_1":12},"indices":7,"material":0,"mode":4},{"attributes":{"NORMAL":33,"POSITION":32,"TANGENT":34,"TEXCOORD_0":35,"TEXCOORD_1":36},"indices":31,"material":1,"mode":4}]},{"name":"SM_Kitchen_Chandelier_LOD2","primitives":[{"attributes":{"NORMAL":15,"POSITION":14,"TANGENT":16,"TEXCOORD_0":17,"TEXCOORD_1":18},"indices":13,"material":0,"mode":4},{"attributes":{"NORMAL":39,"POSITION":38,"TANGENT":40,"TEXCOORD_0":41,"TEXCOORD_1":42},"indices":37,"material":1,"mode":4}]},{"name":"SM_Kitchen_Chandelier_LOD3","primitives":[{"attributes":{"NORMAL":21,"POSITION":20,"TANGENT":22,"TEXCOORD_0":23,"TEXCOORD_1":24},"indices":19,"material":0,"mode":4},{"attributes":{"NORMAL":45,"POSITION":44,"TANGENT":46,"TEXCOORD_0":47,"TEXCOORD_1":48},"indices":43,"material":1,"mode":4}]},{"name":"SM_Kitchen_Chandelier_ConvexHulls","primitives":[{"attributes":{"NORMAL":51,"POSITION":50,"TEXCOORD_0":52,"TEXCOORD_1":53},"indices":49,"material":2,"mode":4}]}],"nodes":[{"children":[1,2,3,4,5],"name":"Kitchen_Chandelier2_2","originalUnits":0.00999999977648258,"pivot":[0,0,0],"rotation":[0,0,0,1],"scale":[1,1,1],"translation":[0,0,0]},{"mesh":0,"name":"SM_Kitchen_Chandelier_LOD0","originalUnits":0.00999999977648258,"pivot":[0,0,0],"rotation":[0,0,0,1],"scale":[1,1,1],"translation":[0,0,0]},{"mesh":4,"name":"SM_Kitchen_Chandelier_ConvexHulls","originalUnits":0.00999999977648258,"pivot":[0,0,0],"rotation":[0,0,0,1],"scale":[1,1,1],"translation":[0,0,0]},{"mesh":1,"name":"SM_Kitchen_Chandelier_LOD1","originalUnits":0.00999999977648258,"pivot":[0,0,0],"rotation":[0,0,0,1],"scale":[1,1,1],"translation":[0,0,0]},{"mesh":2,"name":"SM_Kitchen_Chandelier_LOD2","originalUnits":0.00999999977648258,"pivot":[0,0,0],"rotation":[0,0,0,1],"scale":[1,1,1],"translation":[0,0,0]},{"mesh":3,"name":"SM_Kitchen_Chandelier_LOD3","originalUnits":0.00999999977648258,"pivot":[0,0,0],"rotation":[0,0,0,1],"scale":[1,1,1],"translation":[0,0,0]}],"samplers":[{}],"scene":0,"scenes":[{"name":"Root Scene","nodes":[0]}],"textures":[{"name":"T_Default_N","sampler":0,"source":0}]}