{"accessors":[{"bufferView":0,"byteOffset":0,"componentType":5126,"count":1,"max":[0],"min":[0],"type":"SCALAR"},{"bufferView":1,"byteOffset":0,"componentType":5123,"count":12336,"type":"SCALAR"},{"bufferView":2,"byteOffset":0,"componentType":5126,"count":2447,"max":[0.147741705179214,0.00925741903483868,0.0156922601163387],"min":[-0.14774172008038,-0.00285983644426,-0.0156925059855],"type":"VEC3"},{"bufferView":3,"byteOffset":0,"componentType":5126,"count":2447,"type":"VEC3"},{"bufferView":4,"byteOffset":0,"componentType":5126,"count":2447,"type":"VEC4"},{"bufferView":5,"byteOffset":0,"componentType":5126,"count":2447,"type":"VEC2"},{"bufferView":6,"byteOffset":0,"componentType":5126,"count":2447,"type":"VEC2"},{"bufferView":7,"byteOffset":0,"componentType":5123,"count":9252,"type":"SCALAR"},{"bufferView":8,"byteOffset":0,"componentType":5126,"count":1931,"max":[0.147741705179214,0.00925741903483868,0.0156922601163387],"min":[-0.14771175384522,-0.00285983644426,-0.01569110713899],"type":"VEC3"},{"bufferView":9,"byteOffset":0,"componentType":5126,"count":1931,"type":"VEC3"},{"bufferView":10,"byteOffset":0,"componentType":5126,"count":1931,"type":"VEC4"},{"bufferView":11,"byteOffset":0,"componentType":5126,"count":1931,"type":"VEC2"},{"bufferView":12,"byteOffset":0,"componentType":5126,"count":1931,"type":"VEC2"},{"bufferView":13,"byteOffset":0,"componentType":5123,"count":6168,"type":"SCALAR"},{"bufferView":14,"byteOffset":0,"componentType":5126,"count":1401,"max":[0.147741705179214,0.00925741903483868,0.0156922601163387],"min":[-0.14764969050884,-0.00285983644426,-0.01569042354822],"type":"VEC3"},{"bufferView":15,"byteOffset":0,"componentType":5126,"count":1401,"type":"VEC3"},{"bufferView":16,"byteOffset":0,"componentType":5126,"count":1401,"type":"VEC4"},{"bufferView":17,"byteOffset":0,"componentType":5126,"count":1401,"type":"VEC2"},{"bufferView":18,"byteOffset":0,"componentType":5126,"count":1401,"type":"VEC2"},{"bufferView":19,"byteOffset":0,"componentType":5123,"count":3084,"type":"SCALAR"},{"bufferView":20,"byteOffset":0,"componentType":5126,"count":745,"max":[0.147741705179214,0.00927993375808001,0.0156004009768367],"min":[-0.14778882265091,-0.00288269179873,-0.01569042354822],"type":"VEC3"},{"bufferView":21,"byteOffset":0,"componentType":5126,"count":745,"type":"VEC3"},{"bufferView":22,"byteOffset":0,"componentType":5126,"count":745,"type":"VEC4"},{"bufferView":23,"byteOffset":0,"componentType":5126,"count":745,"type":"VEC2"},{"bufferView":24,"byteOffset":0,"componentType":5126,"count":745,"type":"VEC2"},{"bufferView":25,"byteOffset":0,"componentType":5123,"count":168,"type":"SCALAR"},{"bufferView":26,"byteOffset":0,"componentType":5126,"count":166,"max":[0.146085187792778,0.010050811804831,0.0154471872374415],"min":[-0.14607599377632,-0.003427447984,-0.01596009917557],"type":"VEC3"},{"bufferView":27,"byteOffset":0,"componentType":5126,"count":166,"type":"VEC3"},{"bufferView":28,"byteOffset":0,"componentType":5126,"count":166,"type":"VEC2"},{"bufferView":29,"byteOffset":0,"componentType":5126,"count":166,"type":"VEC2"}],"animations":[{"channels":[],"name":"Unreal Take","samplers":[]}],"asset":{"generator":"FBX2glTF v0.13.0","version":"2.0"},"bufferViews":[{"buffer":0,"byteLength":4,"byteOffset":0},{"buffer":0,"byteLength":24672,"byteOffset":4,"target":34963},{"buffer":0,"byteLength":29364,"byteOffset":24676,"target":34962},{"buffer":0,"byteLength":29364,"byteOffset":54040,"target":34962},{"buffer":0,"byteLength":39152,"byteOffset":83404,"target":34962},{"buffer":0,"byteLength":19576,"byteOffset":122556,"target":34962},{"buffer":0,"byteLength":19576,"byteOffset":142132,"target":34962},{"buffer":0,"byteLength":18504,"byteOffset":161708,"target":34963},{"buffer":0,"byteLength":23172,"byteOffset":180212,"target":34962},{"buffer":0,"byteLength":23172,"byteOffset":203384,"target":34962},{"buffer":0,"byteLength":30896,"byteOffset":226556,"target":34962},{"buffer":0,"byteLength":15448,"byteOffset":257452,"target":34962},{"buffer":0,"byteLength":15448,"byteOffset":272900,"target":34962},{"buffer":0,"byteLength":12336,"byteOffset":288348,"target":34963},{"buffer":0,"byteLength":16812,"byteOffset":300684,"target":34962},{"buffer":0,"byteLength":16812,"byteOffset":317496,"target":34962},{"buffer":0,"byteLength":22416,"byteOffset":334308,"target":34962},{"buffer":0,"byteLength":11208,"byteOffset":356724,"target":34962},{"buffer":0,"byteLength":11208,"byteOffset":367932,"target":34962},{"buffer":0,"byteLength":6168,"byteOffset":379140,"target":34963},{"buffer":0,"byteLength":8940,"byteOffset":385308,"target":34962},{"buffer":0,"byteLength":8940,"byteOffset":394248,"target":34962},{"buffer":0,"byteLength":11920,"byteOffset":403188,"target":34962},{"buffer":0,"byteLength":5960,"byteOffset":415108,"target":34962},{"buffer":0,"byteLength":5960,"byteOffset":421068,"target":34962},{"buffer":0,"byteLength":336,"byteOffset":427028,"target":34963},{"buffer":0,"byteLength":1992,"byteOffset":427364,"target":34962},{"buffer":0,"byteLength":1992,"byteOffset":429356,"target":34962},{"buffer":0,"byteLength":1328,"byteOffset":431348,"target":34962},{"buffer":0,"byteLength":1328,"byteOffset":432676,"target":34962}],"buffers":[{"byteLength":434004,"uri":"SM_Knife.bin"}],"materials":[{"alphaMode":"OPAQUE","doubleSided":false,"extras":{"fromFBX":{"isTruePBR":false,"shadingModel":"Phong"}},"name":"MM_Chrome","pbrMetallicRoughness":{"baseColorFactor":[0,0,0,1],"metallicFactor":0.400000005960464,"roughnessFactor":0.301511347293854}},{"alphaMode":"OPAQUE","doubleSided":false,"extras":{"fromFBX":{"isTruePBR":false,"shadingModel":"Lambert"}},"name":"DefaultMaterial","pbrMetallicRoughness":{"baseColorFactor":[0.5,0.5,0.5,1],"metallicFactor":0.200000002980232,"roughnessFactor":0.800000011920929}}],"meshes":[{"name":"SM_Knife_LOD0","primitives":[{"attributes":{"NORMAL":3,"POSITION":2,"TANGENT":4,"TEXCOORD_0":5,"TEXCOORD_1":6},"indices":1,"material":0,"mode":4}]},{"name":"SM_Knife_LOD1","primitives":[{"attributes":{"NORMAL":9,"POSITION":8,"TANGENT":10,"TEXCOORD_0":11,"TEXCOORD_1":12},"indices":7,"material":0,"mode":4}]},{"name":"SM_Knife_LOD2","primitives":[{"attributes":{"NORMAL":15,"POSITION":14,"TANGENT":16,"TEXCOORD_0":17,"TEXCOORD_1":18},"indices":13,"material":0,"mode":4}]},{"name":"SM_Knife_LOD3","primitives":[{"attributes":{"NORMAL":21,"POSITION":20,"TANGENT":22,"TEXCOORD_0":23,"TEXCOORD_1":24},"indices":19,"material":0,"mode":4}]},{"name":"SM_Knife_ConvexHulls","primitives":[{"attributes":{"NORMAL":27,"POSITION":26,"TEXCOORD_0":28,"TEXCOORD_1":29},"indices":25,"material":1,"mode":4}]}],"nodes":[{"children":[1,2,3,4,5],"name":"Kitchen_Props_B_Knife6","originalUnits":0.00999999977648258,"pivot":[0,0,0],"rotation":[0,0,0,1],"scale":[1,1,1],"translation":[0,0,0]},{"mesh":0,"name":"SM_Knife_LOD0","originalUnits":0.00999999977648258,"pivot":[0,0,0],"rotation":[0,0,0,1],"scale":[1,1,1],"translation":[0,0,0]},{"mesh":4,"name":"SM_Knife_ConvexHulls","originalUnits":0.00999999977648258,"pivot":[0,0,0],"rotation":[0,0,0,1],"scale":[1,1,1],"translation":[0,0,0]},{"mesh":1,"name":"SM_Knife_LOD1","originalUnits":0.00999999977648258,"pivot":[0,0,0],"rotation":[0,0,0,1],"scale":[1,1,1],"translation":[0,0,0]},{"mesh":2,"name":"SM_Knife_LOD2","originalUnits":0.00999999977648258,"pivot":[0,0,0],"rotation":[0,0,0,1],"scale":[1,1,1],"translation":[0,0,0]},{"mesh":3,"name":"SM_Knife_LOD3","originalUnits":0.00999999977648258,"pivot":[0,0,0],"rotation":[0,0,0,1],"scale":[1,1,1],"translation":[0,0,0]}],"samplers":[{}],"scene":0,"scenes":[{"name":"Root Scene","nodes":[0]}]}