{"accessors":[{"bufferView":0,"byteOffset":0,"componentType":5126,"count":1,"max":[0],"min":[0],"type":"SCALAR"},{"bufferView":1,"byteOffset":0,"componentType":5123,"count":3360,"type":"SCALAR"},{"bufferView":2,"byteOffset":0,"componentType":5126,"count":682,"max":[0.0486889556050301,0.0973757281899452,0.283183455467224],"min":[-0.04868903383613,-0.00000000529138,-0.28318241238594],"type":"VEC3"},{"bufferView":3,"byteOffset":0,"componentType":5126,"count":682,"type":"VEC3"},{"bufferView":4,"byteOffset":0,"componentType":5126,"count":682,"type":"VEC4"},{"bufferView":5,"byteOffset":0,"componentType":5126,"count":682,"type":"VEC2"},{"bufferView":6,"byteOffset":0,"componentType":5126,"count":682,"type":"VEC2"},{"bufferView":7,"byteOffset":0,"componentType":5123,"count":2520,"type":"SCALAR"},{"bufferView":8,"byteOffset":0,"componentType":5126,"count":538,"max":[0.0486889556050301,0.0973757281899452,0.28323432803154],"min":[-0.04868903383613,-0.00000000529138,-0.28323328495026],"type":"VEC3"},{"bufferView":9,"byteOffset":0,"componentType":5126,"count":538,"type":"VEC3"},{"bufferView":10,"byteOffset":0,"componentType":5126,"count":538,"type":"VEC4"},{"bufferView":11,"byteOffset":0,"componentType":5126,"count":538,"type":"VEC2"},{"bufferView":12,"byteOffset":0,"componentType":5126,"count":538,"type":"VEC2"},{"bufferView":13,"byteOffset":0,"componentType":5123,"count":1680,"type":"SCALAR"},{"bufferView":14,"byteOffset":0,"componentType":5126,"count":386,"max":[0.0486889556050301,0.0973757281899452,0.283237546682358],"min":[-0.04868903383613,-0.00000000529138,-0.28323650360107],"type":"VEC3"},{"bufferView":15,"byteOffset":0,"componentType":5126,"count":386,"type":"VEC3"},{"bufferView":16,"byteOffset":0,"componentType":5126,"count":386,"type":"VEC4"},{"bufferView":17,"byteOffset":0,"componentType":5126,"count":386,"type":"VEC2"},{"bufferView":18,"byteOffset":0,"componentType":5126,"count":386,"type":"VEC2"},{"bufferView":19,"byteOffset":0,"componentType":5123,"count":840,"type":"SCALAR"},{"bufferView":20,"byteOffset":0,"componentType":5126,"count":215,"max":[0.0486889556050301,0.0973757281899452,0.283263355493546],"min":[-0.04868903383613,-0.00000000529138,-0.28340539336205],"type":"VEC3"},{"bufferView":21,"byteOffset":0,"componentType":5126,"count":215,"type":"VEC3"},{"bufferView":22,"byteOffset":0,"componentType":5126,"count":215,"type":"VEC4"},{"bufferView":23,"byteOffset":0,"componentType":5126,"count":215,"type":"VEC2"},{"bufferView":24,"byteOffset":0,"componentType":5126,"count":215,"type":"VEC2"},{"bufferView":25,"byteOffset":0,"componentType":5123,"count":84,"type":"SCALAR"},{"bufferView":26,"byteOffset":0,"componentType":5126,"count":80,"max":[0.0479365177452564,0.0973746180534363,0.274343490600586],"min":[-0.04710537195206,0.0000174903852894204,-0.27615940570831],"type":"VEC3"},{"bufferView":27,"byteOffset":0,"componentType":5126,"count":80,"type":"VEC3"},{"bufferView":28,"byteOffset":0,"componentType":5126,"count":80,"type":"VEC2"},{"bufferView":29,"byteOffset":0,"componentType":5126,"count":80,"type":"VEC2"}],"animations":[{"channels":[],"name":"Unreal Take","samplers":[]}],"asset":{"generator":"FBX2glTF v0.13.0","version":"2.0"},"bufferViews":[{"buffer":0,"byteLength":4,"byteOffset":0},{"buffer":0,"byteLength":6720,"byteOffset":4,"target":34963},{"buffer":0,"byteLength":8184,"byteOffset":6724,"target":34962},{"buffer":0,"byteLength":8184,"byteOffset":14908,"target":34962},{"buffer":0,"byteLength":10912,"byteOffset":23092,"target":34962},{"buffer":0,"byteLength":5456,"byteOffset":34004,"target":34962},{"buffer":0,"byteLength":5456,"byteOffset":39460,"target":34962},{"buffer":0,"byteLength":5040,"byteOffset":44916,"target":34963},{"buffer":0,"byteLength":6456,"byteOffset":49956,"target":34962},{"buffer":0,"byteLength":6456,"byteOffset":56412,"target":34962},{"buffer":0,"byteLength":8608,"byteOffset":62868,"target":34962},{"buffer":0,"byteLength":4304,"byteOffset":71476,"target":34962},{"buffer":0,"byteLength":4304,"byteOffset":75780,"target":34962},{"buffer":0,"byteLength":3360,"byteOffset":80084,"target":34963},{"buffer":0,"byteLength":4632,"byteOffset":83444,"target":34962},{"buffer":0,"byteLength":4632,"byteOffset":88076,"target":34962},{"buffer":0,"byteLength":6176,"byteOffset":92708,"target":34962},{"buffer":0,"byteLength":3088,"byteOffset":98884,"target":34962},{"buffer":0,"byteLength":3088,"byteOffset":101972,"target":34962},{"buffer":0,"byteLength":1680,"byteOffset":105060,"target":34963},{"buffer":0,"byteLength":2580,"byteOffset":106740,"target":34962},{"buffer":0,"byteLength":2580,"byteOffset":109320,"target":34962},{"buffer":0,"byteLength":3440,"byteOffset":111900,"target":34962},{"buffer":0,"byteLength":1720,"byteOffset":115340,"target":34962},{"buffer":0,"byteLength":1720,"byteOffset":117060,"target":34962},{"buffer":0,"byteLength":168,"byteOffset":118780,"target":34963},{"buffer":0,"byteLength":960,"byteOffset":118948,"target":34962},{"buffer":0,"byteLength":960,"byteOffset":119908,"target":34962},{"buffer":0,"byteLength":640,"byteOffset":120868,"target":34962},{"buffer":0,"byteLength":640,"byteOffset":121508,"target":34962}],"buffers":[{"byteLength":122148,"uri":"SM_KitchenUstensil_Roll.bin"}],"images":[{"name":"T_KitchenUstensil_N","uri":"T_KitchenUstensil_N.tga"}],"materials":[{"alphaMode":"OPAQUE","doubleSided":false,"extras":{"fromFBX":{"isTruePBR":false,"shadingModel":"Phong"}},"name":"MI_KitchenUstensil","normalTexture":{"index":0,"texCoord":0},"pbrMetallicRoughness":{"baseColorFactor":[0.21586050093174,0.21586050093174,0.21586050093174,1],"metallicFactor":0.400000005960464,"roughnessFactor":0.301511347293854}},{"alphaMode":"OPAQUE","doubleSided":false,"extras":{"fromFBX":{"isTruePBR":false,"shadingModel":"Lambert"}},"name":"DefaultMaterial","pbrMetallicRoughness":{"baseColorFactor":[0.5,0.5,0.5,1],"metallicFactor":0.200000002980232,"roughnessFactor":0.800000011920929}}],"meshes":[{"name":"SM_KitchenUstensil_Roll_LOD0","primitives":[{"attributes":{"NORMAL":3,"POSITION":2,"TANGENT":4,"TEXCOORD_0":5,"TEXCOORD_1":6},"indices":1,"material":0,"mode":4}]},{"name":"SM_KitchenUstensil_Roll_LOD1","primitives":[{"attributes":{"NORMAL":9,"POSITION":8,"TANGENT":10,"TEXCOORD_0":11,"TEXCOORD_1":12},"indices":7,"material":0,"mode":4}]},{"name":"SM_KitchenUstensil_Roll_LOD2","primitives":[{"attributes":{"NORMAL":15,"POSITION":14,"TANGENT":16,"TEXCOORD_0":17,"TEXCOORD_1":18},"indices":13,"material":0,"mode":4}]},{"name":"SM_KitchenUstensil_Roll_LOD3","primitives":[{"attributes":{"NORMAL":21,"POSITION":20,"TANGENT":22,"TEXCOORD_0":23,"TEXCOORD_1":24},"indices":19,"material":0,"mode":4}]},{"name":"SM_KitchenUstensil_Roll_ConvexHulls","primitives":[{"attributes":{"NORMAL":27,"POSITION":26,"TEXCOORD_0":28,"TEXCOORD_1":29},"indices":25,"material":1,"mode":4}]}],"nodes":[{"children":[1,2,3,4,5],"name":"SM_KitchenUstensil_Roll_107","originalUnits":0.00999999977648258,"pivot":[0,0,0],"rotation":[0,0,0,1],"scale":[1,1,1],"translation":[0,0,0]},{"mesh":0,"name":"SM_KitchenUstensil_Roll_LOD0","originalUnits":0.00999999977648258,"pivot":[0,0,0],"rotation":[0,0,0,1],"scale":[1,1,1],"translation":[0,0,0]},{"mesh":4,"name":"SM_KitchenUstensil_Roll_ConvexHulls","originalUnits":0.00999999977648258,"pivot":[0,0,0],"rotation":[0,0,0,1],"scale":[1,1,1],"translation":[0,0,0]},{"mesh":1,"name":"SM_KitchenUstensil_Roll_LOD1","originalUnits":0.00999999977648258,"pivot":[0,0,0],"rotation":[0,0,0,1],"scale":[1,1,1],"translation":[0,0,0]},{"mesh":2,"name":"SM_KitchenUstensil_Roll_LOD2","originalUnits":0.00999999977648258,"pivot":[0,0,0],"rotation":[0,0,0,1],"scale":[1,1,1],"translation":[0,0,0]},{"mesh":3,"name":"SM_KitchenUstensil_Roll_LOD3","originalUnits":0.00999999977648258,"pivot":[0,0,0],"rotation":[0,0,0,1],"scale":[1,1,1],"translation":[0,0,0]}],"samplers":[{}],"scene":0,"scenes":[{"name":"Root Scene","nodes":[0]}],"textures":[{"name":"T_KitchenUstensil_N","sampler":0,"source":0}]}