{"accessors":[{"bufferView":0,"byteOffset":0,"componentType":5126,"count":1,"max":[0],"min":[0],"type":"SCALAR"},{"bufferView":1,"byteOffset":0,"componentType":5123,"count":198,"type":"SCALAR"},{"bufferView":2,"byteOffset":0,"componentType":5126,"count":54,"max":[0.534794688224792,0.604937434196472,1.94648861885071],"min":[-0.52575385570526,0.510656595230103,-1.62961554527283],"type":"VEC3"},{"bufferView":3,"byteOffset":0,"componentType":5126,"count":54,"type":"VEC3"},{"bufferView":4,"byteOffset":0,"componentType":5126,"count":54,"type":"VEC4"},{"bufferView":5,"byteOffset":0,"componentType":5126,"count":54,"type":"VEC2"},{"bufferView":6,"byteOffset":0,"componentType":5126,"count":54,"type":"VEC2"},{"bufferView":7,"byteOffset":0,"componentType":5123,"count":150,"type":"SCALAR"},{"bufferView":8,"byteOffset":0,"componentType":5126,"count":42,"max":[0.534794688224792,0.604937434196472,1.94648861885071],"min":[-0.52575385570526,0.510656595230103,-1.62961554527283],"type":"VEC3"},{"bufferView":9,"byteOffset":0,"componentType":5126,"count":42,"type":"VEC3"},{"bufferView":10,"byteOffset":0,"componentType":5126,"count":42,"type":"VEC4"},{"bufferView":11,"byteOffset":0,"componentType":5126,"count":42,"type":"VEC2"},{"bufferView":12,"byteOffset":0,"componentType":5126,"count":42,"type":"VEC2"},{"bufferView":13,"byteOffset":0,"componentType":5123,"count":96,"type":"SCALAR"},{"bufferView":14,"byteOffset":0,"componentType":5126,"count":31,"max":[0.534802734851837,0.60494589805603,1.94769537448883],"min":[-0.52652537822723,0.510649502277374,-1.63013780117035],"type":"VEC3"},{"bufferView":15,"byteOffset":0,"componentType":5126,"count":31,"type":"VEC3"},{"bufferView":16,"byteOffset":0,"componentType":5126,"count":31,"type":"VEC4"},{"bufferView":17,"byteOffset":0,"componentType":5126,"count":31,"type":"VEC2"},{"bufferView":18,"byteOffset":0,"componentType":5126,"count":31,"type":"VEC2"},{"bufferView":19,"byteOffset":0,"componentType":5123,"count":48,"type":"SCALAR"},{"bufferView":20,"byteOffset":0,"componentType":5126,"count":20,"max":[0.534802734851837,0.60494589805603,1.94648861885071],"min":[-0.52692550420761,0.509966790676117,-1.63013780117035],"type":"VEC3"},{"bufferView":21,"byteOffset":0,"componentType":5126,"count":20,"type":"VEC3"},{"bufferView":22,"byteOffset":0,"componentType":5126,"count":20,"type":"VEC4"},{"bufferView":23,"byteOffset":0,"componentType":5126,"count":20,"type":"VEC2"},{"bufferView":24,"byteOffset":0,"componentType":5126,"count":20,"type":"VEC2"},{"bufferView":25,"byteOffset":0,"componentType":5123,"count":120,"type":"SCALAR"},{"bufferView":26,"byteOffset":0,"componentType":5126,"count":85,"max":[0.544107437133789,0.613097190856934,1.9558013677597],"min":[-0.53617435693741,0.501349329948425,-1.63892829418182],"type":"VEC3"},{"bufferView":27,"byteOffset":0,"componentType":5126,"count":85,"type":"VEC3"},{"bufferView":28,"byteOffset":0,"componentType":5126,"count":85,"type":"VEC2"},{"bufferView":29,"byteOffset":0,"componentType":5126,"count":85,"type":"VEC2"}],"animations":[{"channels":[],"name":"Unreal Take","samplers":[]}],"asset":{"generator":"FBX2glTF v0.13.0","version":"2.0"},"bufferViews":[{"buffer":0,"byteLength":4,"byteOffset":0},{"buffer":0,"byteLength":396,"byteOffset":4,"target":34963},{"buffer":0,"byteLength":648,"byteOffset":400,"target":34962},{"buffer":0,"byteLength":648,"byteOffset":1048,"target":34962},{"buffer":0,"byteLength":864,"byteOffset":1696,"target":34962},{"buffer":0,"byteLength":432,"byteOffset":2560,"target":34962},{"buffer":0,"byteLength":432,"byteOffset":2992,"target":34962},{"buffer":0,"byteLength":300,"byteOffset":3424,"target":34963},{"buffer":0,"byteLength":504,"byteOffset":3724,"target":34962},{"buffer":0,"byteLength":504,"byteOffset":4228,"target":34962},{"buffer":0,"byteLength":672,"byteOffset":4732,"target":34962},{"buffer":0,"byteLength":336,"byteOffset":5404,"target":34962},{"buffer":0,"byteLength":336,"byteOffset":5740,"target":34962},{"buffer":0,"byteLength":192,"byteOffset":6076,"target":34963},{"buffer":0,"byteLength":372,"byteOffset":6268,"target":34962},{"buffer":0,"byteLength":372,"byteOffset":6640,"target":34962},{"buffer":0,"byteLength":496,"byteOffset":7012,"target":34962},{"buffer":0,"byteLength":248,"byteOffset":7508,"target":34962},{"buffer":0,"byteLength":248,"byteOffset":7756,"target":34962},{"buffer":0,"byteLength":96,"byteOffset":8004,"target":34963},{"buffer":0,"byteLength":240,"byteOffset":8100,"target":34962},{"buffer":0,"byteLength":240,"byteOffset":8340,"target":34962},{"buffer":0,"byteLength":320,"byteOffset":8580,"target":34962},{"buffer":0,"byteLength":160,"byteOffset":8900,"target":34962},{"buffer":0,"byteLength":160,"byteOffset":9060,"target":34962},{"buffer":0,"byteLength":240,"byteOffset":9220,"target":34963},{"buffer":0,"byteLength":1020,"byteOffset":9460,"target":34962},{"buffer":0,"byteLength":1020,"byteOffset":10480,"target":34962},{"buffer":0,"byteLength":680,"byteOffset":11500,"target":34962},{"buffer":0,"byteLength":680,"byteOffset":12180,"target":34962}],"buffers":[{"byteLength":12860,"uri":"SM_Kitchen_Countertop_C.bin"}],"images":[{"name":"Backsplash_N","uri":"Backsplash_N.tga"},{"name":"Backsplash_D","uri":"Backsplash_D.tga"}],"materials":[{"alphaMode":"OPAQUE","doubleSided":false,"extras":{"fromFBX":{"isTruePBR":false,"shadingModel":"Phong"}},"name":"MI_Backsplash02","normalTexture":{"index":0,"texCoord":0},"pbrMetallicRoughness":{"baseColorFactor":[1,1,1,1],"baseColorTexture":{"index":1,"texCoord":0},"metallicFactor":0.400000005960464,"roughnessFactor":0.301511347293854}},{"alphaMode":"OPAQUE","doubleSided":false,"extras":{"fromFBX":{"isTruePBR":false,"shadingModel":"Lambert"}},"name":"DefaultMaterial","pbrMetallicRoughness":{"baseColorFactor":[0.5,0.5,0.5,1],"metallicFactor":0.200000002980232,"roughnessFactor":0.800000011920929}}],"meshes":[{"name":"SM_Kitchen_Countertop_C_LOD0","primitives":[{"attributes":{"NORMAL":3,"POSITION":2,"TANGENT":4,"TEXCOORD_0":5,"TEXCOORD_1":6},"indices":1,"material":0,"mode":4}]},{"name":"SM_Kitchen_Countertop_C_LOD1","primitives":[{"attributes":{"NORMAL":9,"POSITION":8,"TANGENT":10,"TEXCOORD_0":11,"TEXCOORD_1":12},"indices":7,"material":0,"mode":4}]},{"name":"SM_Kitchen_Countertop_C_LOD2","primitives":[{"attributes":{"NORMAL":15,"POSITION":14,"TANGENT":16,"TEXCOORD_0":17,"TEXCOORD_1":18},"indices":13,"material":0,"mode":4}]},{"name":"SM_Kitchen_Countertop_C_LOD3","primitives":[{"attributes":{"NORMAL":21,"POSITION":20,"TANGENT":22,"TEXCOORD_0":23,"TEXCOORD_1":24},"indices":19,"material":0,"mode":4}]},{"name":"SM_Kitchen_Countertop_C_ConvexHulls","primitives":[{"attributes":{"NORMAL":27,"POSITION":26,"TEXCOORD_0":28,"TEXCOORD_1":29},"indices":25,"material":1,"mode":4}]}],"nodes":[{"children":[1,2,3,4,5],"name":"Kitchen_Countertop_A_polySurface109_36","originalUnits":0.00999999977648258,"pivot":[0,0,0],"rotation":[0,0,0,1],"scale":[1,1,1],"translation":[0,0,0]},{"mesh":0,"name":"SM_Kitchen_Countertop_C_LOD0","originalUnits":0.00999999977648258,"pivot":[0,0,0],"rotation":[0,0,0,1],"scale":[1,1,1],"translation":[0,0,0]},{"mesh":4,"name":"SM_Kitchen_Countertop_C_ConvexHulls","originalUnits":0.00999999977648258,"pivot":[0,0,0],"rotation":[0,0,0,1],"scale":[1,1,1],"translation":[0,0,0]},{"mesh":1,"name":"SM_Kitchen_Countertop_C_LOD1","originalUnits":0.00999999977648258,"pivot":[0,0,0],"rotation":[0,0,0,1],"scale":[1,1,1],"translation":[0,0,0]},{"mesh":2,"name":"SM_Kitchen_Countertop_C_LOD2","originalUnits":0.00999999977648258,"pivot":[0,0,0],"rotation":[0,0,0,1],"scale":[1,1,1],"translation":[0,0,0]},{"mesh":3,"name":"SM_Kitchen_Countertop_C_LOD3","originalUnits":0.00999999977648258,"pivot":[0,0,0],"rotation":[0,0,0,1],"scale":[1,1,1],"translation":[0,0,0]}],"samplers":[{}],"scene":0,"scenes":[{"name":"Root Scene","nodes":[0]}],"textures":[{"name":"T_Backsplash_N","sampler":0,"source":0},{"name":"T_Backsplash_D","sampler":0,"source":1}]}