{"accessors":[{"bufferView":0,"byteOffset":0,"componentType":5126,"count":1,"max":[0],"min":[0],"type":"SCALAR"},{"bufferView":1,"byteOffset":0,"componentType":5123,"count":6408,"type":"SCALAR"},{"bufferView":2,"byteOffset":0,"componentType":5126,"count":1171,"max":[0.865241169929504,0.425696402788162,0.0961276143789291],"min":[-1.20854687690735,-0.4363706111908,0.0376847870647907],"type":"VEC3"},{"bufferView":3,"byteOffset":0,"componentType":5126,"count":1171,"type":"VEC3"},{"bufferView":4,"byteOffset":0,"componentType":5126,"count":1171,"type":"VEC4"},{"bufferView":5,"byteOffset":0,"componentType":5126,"count":1171,"type":"VEC2"},{"bufferView":6,"byteOffset":0,"componentType":5126,"count":1171,"type":"VEC2"},{"bufferView":7,"byteOffset":0,"componentType":5123,"count":4806,"type":"SCALAR"},{"bufferView":8,"byteOffset":0,"componentType":5126,"count":877,"max":[0.865119934082031,0.425682127475739,0.0961276143789291],"min":[-1.20854687690735,-0.43614006042481,0.0376847870647907],"type":"VEC3"},{"bufferView":9,"byteOffset":0,"componentType":5126,"count":877,"type":"VEC3"},{"bufferView":10,"byteOffset":0,"componentType":5126,"count":877,"type":"VEC4"},{"bufferView":11,"byteOffset":0,"componentType":5126,"count":877,"type":"VEC2"},{"bufferView":12,"byteOffset":0,"componentType":5126,"count":877,"type":"VEC2"},{"bufferView":13,"byteOffset":0,"componentType":5123,"count":3201,"type":"SCALAR"},{"bufferView":14,"byteOffset":0,"componentType":5126,"count":591,"max":[0.864988029003143,0.42531082034111,0.0961276143789291],"min":[-1.20886361598969,-0.43614006042481,0.0376847870647907],"type":"VEC3"},{"bufferView":15,"byteOffset":0,"componentType":5126,"count":591,"type":"VEC3"},{"bufferView":16,"byteOffset":0,"componentType":5126,"count":591,"type":"VEC4"},{"bufferView":17,"byteOffset":0,"componentType":5126,"count":591,"type":"VEC2"},{"bufferView":18,"byteOffset":0,"componentType":5126,"count":591,"type":"VEC2"},{"bufferView":19,"byteOffset":0,"componentType":5123,"count":1602,"type":"SCALAR"},{"bufferView":20,"byteOffset":0,"componentType":5126,"count":304,"max":[0.863906025886536,0.425777554512024,0.0924710333347321],"min":[-1.20886361598969,-0.43614006042481,0.0376847870647907],"type":"VEC3"},{"bufferView":21,"byteOffset":0,"componentType":5126,"count":304,"type":"VEC3"},{"bufferView":22,"byteOffset":0,"componentType":5126,"count":304,"type":"VEC4"},{"bufferView":23,"byteOffset":0,"componentType":5126,"count":304,"type":"VEC2"},{"bufferView":24,"byteOffset":0,"componentType":5126,"count":304,"type":"VEC2"},{"bufferView":25,"byteOffset":0,"componentType":5123,"count":318,"type":"SCALAR"},{"bufferView":26,"byteOffset":0,"componentType":5126,"count":290,"max":[0.873680353164673,0.427637159824371,0.106793865561485],"min":[-1.21475994586945,-0.44134473800659,0.0281744338572025],"type":"VEC3"},{"bufferView":27,"byteOffset":0,"componentType":5126,"count":290,"type":"VEC3"},{"bufferView":28,"byteOffset":0,"componentType":5126,"count":290,"type":"VEC2"},{"bufferView":29,"byteOffset":0,"componentType":5126,"count":290,"type":"VEC2"}],"animations":[{"channels":[],"name":"Unreal Take","samplers":[]}],"asset":{"generator":"FBX2glTF v0.13.0","version":"2.0"},"bufferViews":[{"buffer":0,"byteLength":4,"byteOffset":0},{"buffer":0,"byteLength":12816,"byteOffset":4,"target":34963},{"buffer":0,"byteLength":14052,"byteOffset":12820,"target":34962},{"buffer":0,"byteLength":14052,"byteOffset":26872,"target":34962},{"buffer":0,"byteLength":18736,"byteOffset":40924,"target":34962},{"buffer":0,"byteLength":9368,"byteOffset":59660,"target":34962},{"buffer":0,"byteLength":9368,"byteOffset":69028,"target":34962},{"buffer":0,"byteLength":9612,"byteOffset":78396,"target":34963},{"buffer":0,"byteLength":10524,"byteOffset":88008,"target":34962},{"buffer":0,"byteLength":10524,"byteOffset":98532,"target":34962},{"buffer":0,"byteLength":14032,"byteOffset":109056,"target":34962},{"buffer":0,"byteLength":7016,"byteOffset":123088,"target":34962},{"buffer":0,"byteLength":7016,"byteOffset":130104,"target":34962},{"buffer":0,"byteLength":6402,"byteOffset":137120,"target":34963},{"buffer":0,"byteLength":7092,"byteOffset":143524,"target":34962},{"buffer":0,"byteLength":7092,"byteOffset":150616,"target":34962},{"buffer":0,"byteLength":9456,"byteOffset":157708,"target":34962},{"buffer":0,"byteLength":4728,"byteOffset":167164,"target":34962},{"buffer":0,"byteLength":4728,"byteOffset":171892,"target":34962},{"buffer":0,"byteLength":3204,"byteOffset":176620,"target":34963},{"buffer":0,"byteLength":3648,"byteOffset":179824,"target":34962},{"buffer":0,"byteLength":3648,"byteOffset":183472,"target":34962},{"buffer":0,"byteLength":4864,"byteOffset":187120,"target":34962},{"buffer":0,"byteLength":2432,"byteOffset":191984,"target":34962},{"buffer":0,"byteLength":2432,"byteOffset":194416,"target":34962},{"buffer":0,"byteLength":636,"byteOffset":196848,"target":34963},{"buffer":0,"byteLength":3480,"byteOffset":197484,"target":34962},{"buffer":0,"byteLength":3480,"byteOffset":200964,"target":34962},{"buffer":0,"byteLength":2320,"byteOffset":204444,"target":34962},{"buffer":0,"byteLength":2320,"byteOffset":206764,"target":34962}],"buffers":[{"byteLength":209084,"uri":"SM_Kitchen_Curtain.bin"}],"images":[{"name":"FlatNormal","uri":"FlatNormal.tga"}],"materials":[{"alphaMode":"OPAQUE","doubleSided":false,"extras":{"fromFBX":{"isTruePBR":false,"shadingModel":"Phong"}},"name":"MI_Kitchen_Curtains","normalTexture":{"index":0,"texCoord":0},"pbrMetallicRoughness":{"baseColorFactor":[0.21586050093174,0.21586050093174,0.21586050093174,1],"metallicFactor":0.400000005960464,"roughnessFactor":0.301511347293854}},{"alphaMode":"OPAQUE","doubleSided":false,"extras":{"fromFBX":{"isTruePBR":false,"shadingModel":"Lambert"}},"name":"DefaultMaterial","pbrMetallicRoughness":{"baseColorFactor":[0.5,0.5,0.5,1],"metallicFactor":0.200000002980232,"roughnessFactor":0.800000011920929}}],"meshes":[{"name":"SM_Kitchen_Curtain_LOD0","primitives":[{"attributes":{"NORMAL":3,"POSITION":2,"TANGENT":4,"TEXCOORD_0":5,"TEXCOORD_1":6},"indices":1,"material":0,"mode":4}]},{"name":"SM_Kitchen_Curtain_LOD1","primitives":[{"attributes":{"NORMAL":9,"POSITION":8,"TANGENT":10,"TEXCOORD_0":11,"TEXCOORD_1":12},"indices":7,"material":0,"mode":4}]},{"name":"SM_Kitchen_Curtain_LOD2","primitives":[{"attributes":{"NORMAL":15,"POSITION":14,"TANGENT":16,"TEXCOORD_0":17,"TEXCOORD_1":18},"indices":13,"material":0,"mode":4}]},{"name":"SM_Kitchen_Curtain_LOD3","primitives":[{"attributes":{"NORMAL":21,"POSITION":20,"TANGENT":22,"TEXCOORD_0":23,"TEXCOORD_1":24},"indices":19,"material":0,"mode":4}]},{"name":"SM_Kitchen_Curtain_ConvexHulls","primitives":[{"attributes":{"NORMAL":27,"POSITION":26,"TEXCOORD_0":28,"TEXCOORD_1":29},"indices":25,"material":1,"mode":4}]}],"nodes":[{"children":[1,2,3,4,5],"name":"Kitchen_Curtain_Low4","originalUnits":0.00999999977648258,"pivot":[0,0,0],"rotation":[0,0,0,1],"scale":[1,1,1],"translation":[0,0,0]},{"mesh":0,"name":"SM_Kitchen_Curtain_LOD0","originalUnits":0.00999999977648258,"pivot":[0,0,0],"rotation":[0,0,0,1],"scale":[1,1,1],"translation":[0,0,0]},{"mesh":4,"name":"SM_Kitchen_Curtain_ConvexHulls","originalUnits":0.00999999977648258,"pivot":[0,0,0],"rotation":[0,0,0,1],"scale":[1,1,1],"translation":[0,0,0]},{"mesh":1,"name":"SM_Kitchen_Curtain_LOD1","originalUnits":0.00999999977648258,"pivot":[0,0,0],"rotation":[0,0,0,1],"scale":[1,1,1],"translation":[0,0,0]},{"mesh":2,"name":"SM_Kitchen_Curtain_LOD2","originalUnits":0.00999999977648258,"pivot":[0,0,0],"rotation":[0,0,0,1],"scale":[1,1,1],"translation":[0,0,0]},{"mesh":3,"name":"SM_Kitchen_Curtain_LOD3","originalUnits":0.00999999977648258,"pivot":[0,0,0],"rotation":[0,0,0,1],"scale":[1,1,1],"translation":[0,0,0]}],"samplers":[{}],"scene":0,"scenes":[{"name":"Root Scene","nodes":[0]}],"textures":[{"name":"T_Default_N","sampler":0,"source":0}]}