{"accessors":[{"bufferView":0,"byteOffset":0,"componentType":5126,"count":1,"max":[0],"min":[0],"type":"SCALAR"},{"bufferView":1,"byteOffset":0,"componentType":5123,"count":138,"type":"SCALAR"},{"bufferView":2,"byteOffset":0,"componentType":5126,"count":50,"max":[0.211636945605278,0.0364079475402832,0.392090439796448],"min":[-0.21163694560528,-0.03598752990365,-0.39209043979645],"type":"VEC3"},{"bufferView":3,"byteOffset":0,"componentType":5126,"count":50,"type":"VEC3"},{"bufferView":4,"byteOffset":0,"componentType":5126,"count":50,"type":"VEC4"},{"bufferView":5,"byteOffset":0,"componentType":5126,"count":50,"type":"VEC2"},{"bufferView":6,"byteOffset":0,"componentType":5126,"count":50,"type":"VEC2"},{"bufferView":7,"byteOffset":0,"componentType":5123,"count":102,"type":"SCALAR"},{"bufferView":8,"byteOffset":0,"componentType":5126,"count":36,"max":[0.211923703551292,0.0364079475402832,0.392090380191803],"min":[-0.21169526875019,-0.03598752990365,-0.39209043979645],"type":"VEC3"},{"bufferView":9,"byteOffset":0,"componentType":5126,"count":36,"type":"VEC3"},{"bufferView":10,"byteOffset":0,"componentType":5126,"count":36,"type":"VEC4"},{"bufferView":11,"byteOffset":0,"componentType":5126,"count":36,"type":"VEC2"},{"bufferView":12,"byteOffset":0,"componentType":5126,"count":36,"type":"VEC2"},{"bufferView":13,"byteOffset":0,"componentType":5123,"count":66,"type":"SCALAR"},{"bufferView":14,"byteOffset":0,"componentType":5126,"count":29,"max":[0.211636945605278,0.0359943546354771,0.393780022859573],"min":[-0.21362653374672,-0.03598752990365,-0.39338335394859],"type":"VEC3"},{"bufferView":15,"byteOffset":0,"componentType":5126,"count":29,"type":"VEC3"},{"bufferView":16,"byteOffset":0,"componentType":5126,"count":29,"type":"VEC4"},{"bufferView":17,"byteOffset":0,"componentType":5126,"count":29,"type":"VEC2"},{"bufferView":18,"byteOffset":0,"componentType":5126,"count":29,"type":"VEC2"},{"bufferView":19,"byteOffset":0,"componentType":5123,"count":36,"type":"SCALAR"},{"bufferView":20,"byteOffset":0,"componentType":5126,"count":22,"max":[0.215091183781624,0.0359943546354771,0.395083695650101],"min":[-0.21362653374672,-0.03604925423861,-0.39338335394859],"type":"VEC3"},{"bufferView":21,"byteOffset":0,"componentType":5126,"count":22,"type":"VEC3"},{"bufferView":22,"byteOffset":0,"componentType":5126,"count":22,"type":"VEC4"},{"bufferView":23,"byteOffset":0,"componentType":5126,"count":22,"type":"VEC2"},{"bufferView":24,"byteOffset":0,"componentType":5126,"count":22,"type":"VEC2"},{"bufferView":25,"byteOffset":0,"componentType":5123,"count":84,"type":"SCALAR"},{"bufferView":26,"byteOffset":0,"componentType":5126,"count":68,"max":[0.209942042827606,0.0409568436443806,0.389904469251633],"min":[-0.20751422643661,-0.0395323894918,-0.38885390758514],"type":"VEC3"},{"bufferView":27,"byteOffset":0,"componentType":5126,"count":68,"type":"VEC3"},{"bufferView":28,"byteOffset":0,"componentType":5126,"count":68,"type":"VEC2"},{"bufferView":29,"byteOffset":0,"componentType":5126,"count":68,"type":"VEC2"}],"animations":[{"channels":[],"name":"Unreal Take","samplers":[]}],"asset":{"generator":"FBX2glTF v0.13.0","version":"2.0"},"bufferViews":[{"buffer":0,"byteLength":4,"byteOffset":0},{"buffer":0,"byteLength":276,"byteOffset":4,"target":34963},{"buffer":0,"byteLength":600,"byteOffset":280,"target":34962},{"buffer":0,"byteLength":600,"byteOffset":880,"target":34962},{"buffer":0,"byteLength":800,"byteOffset":1480,"target":34962},{"buffer":0,"byteLength":400,"byteOffset":2280,"target":34962},{"buffer":0,"byteLength":400,"byteOffset":2680,"target":34962},{"buffer":0,"byteLength":204,"byteOffset":3080,"target":34963},{"buffer":0,"byteLength":432,"byteOffset":3284,"target":34962},{"buffer":0,"byteLength":432,"byteOffset":3716,"target":34962},{"buffer":0,"byteLength":576,"byteOffset":4148,"target":34962},{"buffer":0,"byteLength":288,"byteOffset":4724,"target":34962},{"buffer":0,"byteLength":288,"byteOffset":5012,"target":34962},{"buffer":0,"byteLength":132,"byteOffset":5300,"target":34963},{"buffer":0,"byteLength":348,"byteOffset":5432,"target":34962},{"buffer":0,"byteLength":348,"byteOffset":5780,"target":34962},{"buffer":0,"byteLength":464,"byteOffset":6128,"target":34962},{"buffer":0,"byteLength":232,"byteOffset":6592,"target":34962},{"buffer":0,"byteLength":232,"byteOffset":6824,"target":34962},{"buffer":0,"byteLength":72,"byteOffset":7056,"target":34963},{"buffer":0,"byteLength":264,"byteOffset":7128,"target":34962},{"buffer":0,"byteLength":264,"byteOffset":7392,"target":34962},{"buffer":0,"byteLength":352,"byteOffset":7656,"target":34962},{"buffer":0,"byteLength":176,"byteOffset":8008,"target":34962},{"buffer":0,"byteLength":176,"byteOffset":8184,"target":34962},{"buffer":0,"byteLength":168,"byteOffset":8360,"target":34963},{"buffer":0,"byteLength":816,"byteOffset":8528,"target":34962},{"buffer":0,"byteLength":816,"byteOffset":9344,"target":34962},{"buffer":0,"byteLength":544,"byteOffset":10160,"target":34962},{"buffer":0,"byteLength":544,"byteOffset":10704,"target":34962}],"buffers":[{"byteLength":11248,"uri":"SM_Kitchen_Shelf.bin"}],"images":[{"name":"FlatNormal","uri":"FlatNormal.tga"}],"materials":[{"alphaMode":"OPAQUE","doubleSided":false,"extras":{"fromFBX":{"isTruePBR":false,"shadingModel":"Phong"}},"name":"MI_Kitchen_Props_A","normalTexture":{"index":0,"texCoord":0},"pbrMetallicRoughness":{"baseColorFactor":[0.21586050093174,0.21586050093174,0.21586050093174,1],"metallicFactor":0.400000005960464,"roughnessFactor":0.301511347293854}},{"alphaMode":"OPAQUE","doubleSided":false,"extras":{"fromFBX":{"isTruePBR":false,"shadingModel":"Lambert"}},"name":"DefaultMaterial","pbrMetallicRoughness":{"baseColorFactor":[0.5,0.5,0.5,1],"metallicFactor":0.200000002980232,"roughnessFactor":0.800000011920929}}],"meshes":[{"name":"SM_Kitchen_Shelf_LOD0","primitives":[{"attributes":{"NORMAL":3,"POSITION":2,"TANGENT":4,"TEXCOORD_0":5,"TEXCOORD_1":6},"indices":1,"material":0,"mode":4}]},{"name":"SM_Kitchen_Shelf_LOD1","primitives":[{"attributes":{"NORMAL":9,"POSITION":8,"TANGENT":10,"TEXCOORD_0":11,"TEXCOORD_1":12},"indices":7,"material":0,"mode":4}]},{"name":"SM_Kitchen_Shelf_LOD2","primitives":[{"attributes":{"NORMAL":15,"POSITION":14,"TANGENT":16,"TEXCOORD_0":17,"TEXCOORD_1":18},"indices":13,"material":0,"mode":4}]},{"name":"SM_Kitchen_Shelf_LOD3","primitives":[{"attributes":{"NORMAL":21,"POSITION":20,"TANGENT":22,"TEXCOORD_0":23,"TEXCOORD_1":24},"indices":19,"material":0,"mode":4}]},{"name":"SM_Kitchen_Shelf_ConvexHulls","primitives":[{"attributes":{"NORMAL":27,"POSITION":26,"TEXCOORD_0":28,"TEXCOORD_1":29},"indices":25,"material":1,"mode":4}]}],"nodes":[{"children":[1,2,3,4,5],"name":"Kitchen_Props_A_Kitchen_Shelf_35","originalUnits":0.00999999977648258,"pivot":[0,0,0],"rotation":[0,0,0,1],"scale":[1,1,1],"translation":[0,0,0]},{"mesh":0,"name":"SM_Kitchen_Shelf_LOD0","originalUnits":0.00999999977648258,"pivot":[0,0,0],"rotation":[0,0,0,1],"scale":[1,1,1],"translation":[0,0,0]},{"mesh":4,"name":"SM_Kitchen_Shelf_ConvexHulls","originalUnits":0.00999999977648258,"pivot":[0,0,0],"rotation":[0,0,0,1],"scale":[1,1,1],"translation":[0,0,0]},{"mesh":1,"name":"SM_Kitchen_Shelf_LOD1","originalUnits":0.00999999977648258,"pivot":[0,0,0],"rotation":[0,0,0,1],"scale":[1,1,1],"translation":[0,0,0]},{"mesh":2,"name":"SM_Kitchen_Shelf_LOD2","originalUnits":0.00999999977648258,"pivot":[0,0,0],"rotation":[0,0,0,1],"scale":[1,1,1],"translation":[0,0,0]},{"mesh":3,"name":"SM_Kitchen_Shelf_LOD3","originalUnits":0.00999999977648258,"pivot":[0,0,0],"rotation":[0,0,0,1],"scale":[1,1,1],"translation":[0,0,0]}],"samplers":[{}],"scene":0,"scenes":[{"name":"Root Scene","nodes":[0]}],"textures":[{"name":"T_Default_N","sampler":0,"source":0}]}