{"accessors":[{"bufferView":0,"byteOffset":0,"componentType":5126,"count":1,"max":[0],"min":[0],"type":"SCALAR"},{"bufferView":1,"byteOffset":0,"componentType":5123,"count":564,"type":"SCALAR"},{"bufferView":2,"byteOffset":0,"componentType":5126,"count":206,"max":[1.06282150745392,1.19264578819275,0.0622766576707363],"min":[-0.9685395359993,-0.04375401884317,-0.16602919995785],"type":"VEC3"},{"bufferView":3,"byteOffset":0,"componentType":5126,"count":206,"type":"VEC3"},{"bufferView":4,"byteOffset":0,"componentType":5126,"count":206,"type":"VEC4"},{"bufferView":5,"byteOffset":0,"componentType":5126,"count":206,"type":"VEC2"},{"bufferView":6,"byteOffset":0,"componentType":5126,"count":206,"type":"VEC2"},{"bufferView":7,"byteOffset":0,"componentType":5123,"count":420,"type":"SCALAR"},{"bufferView":8,"byteOffset":0,"componentType":5126,"count":162,"max":[1.06343615055084,1.19264578819275,0.0622766576707363],"min":[-0.96922665834427,-0.04375401884317,-0.16649252176285],"type":"VEC3"},{"bufferView":9,"byteOffset":0,"componentType":5126,"count":162,"type":"VEC3"},{"bufferView":10,"byteOffset":0,"componentType":5126,"count":162,"type":"VEC4"},{"bufferView":11,"byteOffset":0,"componentType":5126,"count":162,"type":"VEC2"},{"bufferView":12,"byteOffset":0,"componentType":5126,"count":162,"type":"VEC2"},{"bufferView":13,"byteOffset":0,"componentType":5123,"count":282,"type":"SCALAR"},{"bufferView":14,"byteOffset":0,"componentType":5126,"count":124,"max":[1.06321752071381,1.19531142711639,0.0622766576707363],"min":[-0.96914982795715,-0.04517039656639,-0.16654260456562],"type":"VEC3"},{"bufferView":15,"byteOffset":0,"componentType":5126,"count":124,"type":"VEC3"},{"bufferView":16,"byteOffset":0,"componentType":5126,"count":124,"type":"VEC4"},{"bufferView":17,"byteOffset":0,"componentType":5126,"count":124,"type":"VEC2"},{"bufferView":18,"byteOffset":0,"componentType":5126,"count":124,"type":"VEC2"},{"bufferView":19,"byteOffset":0,"componentType":5123,"count":141,"type":"SCALAR"},{"bufferView":20,"byteOffset":0,"componentType":5126,"count":83,"max":[1.06473672389984,1.19280314445496,0.0622854493558407],"min":[-0.96938800811768,-0.04389655590057,-0.16654260456562],"type":"VEC3"},{"bufferView":21,"byteOffset":0,"componentType":5126,"count":83,"type":"VEC3"},{"bufferView":22,"byteOffset":0,"componentType":5126,"count":83,"type":"VEC4"},{"bufferView":23,"byteOffset":0,"componentType":5126,"count":83,"type":"VEC2"},{"bufferView":24,"byteOffset":0,"componentType":5126,"count":83,"type":"VEC2"},{"bufferView":25,"byteOffset":0,"componentType":5123,"count":264,"type":"SCALAR"},{"bufferView":26,"byteOffset":0,"componentType":5126,"count":236,"max":[1.0699166059494,1.19264566898346,0.0750868394970894],"min":[-0.9548522233963,-0.05750305950642,-0.17676544189453],"type":"VEC3"},{"bufferView":27,"byteOffset":0,"componentType":5126,"count":236,"type":"VEC3"},{"bufferView":28,"byteOffset":0,"componentType":5126,"count":236,"type":"VEC2"},{"bufferView":29,"byteOffset":0,"componentType":5126,"count":236,"type":"VEC2"}],"animations":[{"channels":[],"name":"Unreal Take","samplers":[]}],"asset":{"generator":"FBX2glTF v0.13.0","version":"2.0"},"bufferViews":[{"buffer":0,"byteLength":4,"byteOffset":0},{"buffer":0,"byteLength":1128,"byteOffset":4,"target":34963},{"buffer":0,"byteLength":2472,"byteOffset":1132,"target":34962},{"buffer":0,"byteLength":2472,"byteOffset":3604,"target":34962},{"buffer":0,"byteLength":3296,"byteOffset":6076,"target":34962},{"buffer":0,"byteLength":1648,"byteOffset":9372,"target":34962},{"buffer":0,"byteLength":1648,"byteOffset":11020,"target":34962},{"buffer":0,"byteLength":840,"byteOffset":12668,"target":34963},{"buffer":0,"byteLength":1944,"byteOffset":13508,"target":34962},{"buffer":0,"byteLength":1944,"byteOffset":15452,"target":34962},{"buffer":0,"byteLength":2592,"byteOffset":17396,"target":34962},{"buffer":0,"byteLength":1296,"byteOffset":19988,"target":34962},{"buffer":0,"byteLength":1296,"byteOffset":21284,"target":34962},{"buffer":0,"byteLength":564,"byteOffset":22580,"target":34963},{"buffer":0,"byteLength":1488,"byteOffset":23144,"target":34962},{"buffer":0,"byteLength":1488,"byteOffset":24632,"target":34962},{"buffer":0,"byteLength":1984,"byteOffset":26120,"target":34962},{"buffer":0,"byteLength":992,"byteOffset":28104,"target":34962},{"buffer":0,"byteLength":992,"byteOffset":29096,"target":34962},{"buffer":0,"byteLength":282,"byteOffset":30088,"target":34963},{"buffer":0,"byteLength":996,"byteOffset":30372,"target":34962},{"buffer":0,"byteLength":996,"byteOffset":31368,"target":34962},{"buffer":0,"byteLength":1328,"byteOffset":32364,"target":34962},{"buffer":0,"byteLength":664,"byteOffset":33692,"target":34962},{"buffer":0,"byteLength":664,"byteOffset":34356,"target":34962},{"buffer":0,"byteLength":528,"byteOffset":35020,"target":34963},{"buffer":0,"byteLength":2832,"byteOffset":35548,"target":34962},{"buffer":0,"byteLength":2832,"byteOffset":38380,"target":34962},{"buffer":0,"byteLength":1888,"byteOffset":41212,"target":34962},{"buffer":0,"byteLength":1888,"byteOffset":43100,"target":34962}],"buffers":[{"byteLength":44988,"uri":"SM_Kitchen_Window.bin"}],"materials":[{"alphaMode":"OPAQUE","doubleSided":false,"extras":{"fromFBX":{"isTruePBR":false,"shadingModel":"Phong"}},"name":"MM_Counter_Top_01","pbrMetallicRoughness":{"baseColorFactor":[0.13671900331974,0.291667014360428,0.254029989242554,1],"metallicFactor":0.400000005960464,"roughnessFactor":0.301511347293854}},{"alphaMode":"OPAQUE","doubleSided":false,"extras":{"fromFBX":{"isTruePBR":false,"shadingModel":"Lambert"}},"name":"DefaultMaterial","pbrMetallicRoughness":{"baseColorFactor":[0.5,0.5,0.5,1],"metallicFactor":0.200000002980232,"roughnessFactor":0.800000011920929}}],"meshes":[{"name":"SM_Kitchen_Window_LOD0","primitives":[{"attributes":{"NORMAL":3,"POSITION":2,"TANGENT":4,"TEXCOORD_0":5,"TEXCOORD_1":6},"indices":1,"material":0,"mode":4}]},{"name":"SM_Kitchen_Window_LOD1","primitives":[{"attributes":{"NORMAL":9,"POSITION":8,"TANGENT":10,"TEXCOORD_0":11,"TEXCOORD_1":12},"indices":7,"material":0,"mode":4}]},{"name":"SM_Kitchen_Window_LOD2","primitives":[{"attributes":{"NORMAL":15,"POSITION":14,"TANGENT":16,"TEXCOORD_0":17,"TEXCOORD_1":18},"indices":13,"material":0,"mode":4}]},{"name":"SM_Kitchen_Window_LOD3","primitives":[{"attributes":{"NORMAL":21,"POSITION":20,"TANGENT":22,"TEXCOORD_0":23,"TEXCOORD_1":24},"indices":19,"material":0,"mode":4}]},{"name":"SM_Kitchen_Window_ConvexHulls","primitives":[{"attributes":{"NORMAL":27,"POSITION":26,"TEXCOORD_0":28,"TEXCOORD_1":29},"indices":25,"material":1,"mode":4}]}],"nodes":[{"children":[1,2,3,4,5],"name":"Kitchen_Window_19","originalUnits":0.00999999977648258,"pivot":[0,0,0],"rotation":[0,0,0,1],"scale":[1,1,1],"translation":[0,0,0]},{"mesh":0,"name":"SM_Kitchen_Window_LOD0","originalUnits":0.00999999977648258,"pivot":[0,0,0],"rotation":[0,0,0,1],"scale":[1,1,1],"translation":[0,0,0]},{"mesh":4,"name":"SM_Kitchen_Window_ConvexHulls","originalUnits":0.00999999977648258,"pivot":[0,0,0],"rotation":[0,0,0,1],"scale":[1,1,1],"translation":[0,0,0]},{"mesh":1,"name":"SM_Kitchen_Window_LOD1","originalUnits":0.00999999977648258,"pivot":[0,0,0],"rotation":[0,0,0,1],"scale":[1,1,1],"translation":[0,0,0]},{"mesh":2,"name":"SM_Kitchen_Window_LOD2","originalUnits":0.00999999977648258,"pivot":[0,0,0],"rotation":[0,0,0,1],"scale":[1,1,1],"translation":[0,0,0]},{"mesh":3,"name":"SM_Kitchen_Window_LOD3","originalUnits":0.00999999977648258,"pivot":[0,0,0],"rotation":[0,0,0,1],"scale":[1,1,1],"translation":[0,0,0]}],"samplers":[{}],"scene":0,"scenes":[{"name":"Root Scene","nodes":[0]}]}