{"accessors":[{"bufferView":0,"byteOffset":0,"componentType":5126,"count":1,"max":[0],"min":[0],"type":"SCALAR"},{"bufferView":1,"byteOffset":0,"componentType":5123,"count":6234,"type":"SCALAR"},{"bufferView":2,"byteOffset":0,"componentType":5126,"count":2196,"max":[0.23558609187603,0.492051988840103,2.36600542068481],"min":[-0.29746931791305,-0.49217891693115,-2.3636326789856],"type":"VEC3"},{"bufferView":3,"byteOffset":0,"componentType":5126,"count":2196,"type":"VEC3"},{"bufferView":4,"byteOffset":0,"componentType":5126,"count":2196,"type":"VEC4"},{"bufferView":5,"byteOffset":0,"componentType":5126,"count":2196,"type":"VEC2"},{"bufferView":6,"byteOffset":0,"componentType":5126,"count":2196,"type":"VEC2"},{"bufferView":7,"byteOffset":0,"componentType":5123,"count":4677,"type":"SCALAR"},{"bufferView":8,"byteOffset":0,"componentType":5126,"count":1702,"max":[0.235585987567902,0.492051988840103,2.36600542068481],"min":[-0.29746931791305,-0.49217891693115,-2.3636326789856],"type":"VEC3"},{"bufferView":9,"byteOffset":0,"componentType":5126,"count":1702,"type":"VEC3"},{"bufferView":10,"byteOffset":0,"componentType":5126,"count":1702,"type":"VEC4"},{"bufferView":11,"byteOffset":0,"componentType":5126,"count":1702,"type":"VEC2"},{"bufferView":12,"byteOffset":0,"componentType":5126,"count":1702,"type":"VEC2"},{"bufferView":13,"byteOffset":0,"componentType":5123,"count":3117,"type":"SCALAR"},{"bufferView":14,"byteOffset":0,"componentType":5126,"count":1223,"max":[0.235585987567902,0.492051988840103,2.36600542068481],"min":[-0.29746931791305,-0.49217891693115,-2.3636326789856],"type":"VEC3"},{"bufferView":15,"byteOffset":0,"componentType":5126,"count":1223,"type":"VEC3"},{"bufferView":16,"byteOffset":0,"componentType":5126,"count":1223,"type":"VEC4"},{"bufferView":17,"byteOffset":0,"componentType":5126,"count":1223,"type":"VEC2"},{"bufferView":18,"byteOffset":0,"componentType":5126,"count":1223,"type":"VEC2"},{"bufferView":19,"byteOffset":0,"componentType":5123,"count":1560,"type":"SCALAR"},{"bufferView":20,"byteOffset":0,"componentType":5126,"count":648,"max":[0.235585957765579,0.492051988840103,2.36600542068481],"min":[-0.2977913916111,-0.49217891693115,-2.3636326789856],"type":"VEC3"},{"bufferView":21,"byteOffset":0,"componentType":5126,"count":648,"type":"VEC3"},{"bufferView":22,"byteOffset":0,"componentType":5126,"count":648,"type":"VEC4"},{"bufferView":23,"byteOffset":0,"componentType":5126,"count":648,"type":"VEC2"},{"bufferView":24,"byteOffset":0,"componentType":5126,"count":648,"type":"VEC2"},{"bufferView":25,"byteOffset":0,"componentType":5123,"count":264,"type":"SCALAR"},{"bufferView":26,"byteOffset":0,"componentType":5126,"count":246,"max":[0.263642072677612,0.511159718036652,2.39290285110474],"min":[-0.32548093795776,-0.52089303731918,-2.37887763977051],"type":"VEC3"},{"bufferView":27,"byteOffset":0,"componentType":5126,"count":246,"type":"VEC3"},{"bufferView":28,"byteOffset":0,"componentType":5126,"count":246,"type":"VEC2"},{"bufferView":29,"byteOffset":0,"componentType":5126,"count":246,"type":"VEC2"}],"animations":[{"channels":[],"name":"Unreal Take","samplers":[]}],"asset":{"generator":"FBX2glTF v0.13.0","version":"2.0"},"bufferViews":[{"buffer":0,"byteLength":4,"byteOffset":0},{"buffer":0,"byteLength":12468,"byteOffset":4,"target":34963},{"buffer":0,"byteLength":26352,"byteOffset":12472,"target":34962},{"buffer":0,"byteLength":26352,"byteOffset":38824,"target":34962},{"buffer":0,"byteLength":35136,"byteOffset":65176,"target":34962},{"buffer":0,"byteLength":17568,"byteOffset":100312,"target":34962},{"buffer":0,"byteLength":17568,"byteOffset":117880,"target":34962},{"buffer":0,"byteLength":9354,"byteOffset":135448,"target":34963},{"buffer":0,"byteLength":20424,"byteOffset":144804,"target":34962},{"buffer":0,"byteLength":20424,"byteOffset":165228,"target":34962},{"buffer":0,"byteLength":27232,"byteOffset":185652,"target":34962},{"buffer":0,"byteLength":13616,"byteOffset":212884,"target":34962},{"buffer":0,"byteLength":13616,"byteOffset":226500,"target":34962},{"buffer":0,"byteLength":6234,"byteOffset":240116,"target":34963},{"buffer":0,"byteLength":14676,"byteOffset":246352,"target":34962},{"buffer":0,"byteLength":14676,"byteOffset":261028,"target":34962},{"buffer":0,"byteLength":19568,"byteOffset":275704,"target":34962},{"buffer":0,"byteLength":9784,"byteOffset":295272,"target":34962},{"buffer":0,"byteLength":9784,"byteOffset":305056,"target":34962},{"buffer":0,"byteLength":3120,"byteOffset":314840,"target":34963},{"buffer":0,"byteLength":7776,"byteOffset":317960,"target":34962},{"buffer":0,"byteLength":7776,"byteOffset":325736,"target":34962},{"buffer":0,"byteLength":10368,"byteOffset":333512,"target":34962},{"buffer":0,"byteLength":5184,"byteOffset":343880,"target":34962},{"buffer":0,"byteLength":5184,"byteOffset":349064,"target":34962},{"buffer":0,"byteLength":528,"byteOffset":354248,"target":34963},{"buffer":0,"byteLength":2952,"byteOffset":354776,"target":34962},{"buffer":0,"byteLength":2952,"byteOffset":357728,"target":34962},{"buffer":0,"byteLength":1968,"byteOffset":360680,"target":34962},{"buffer":0,"byteLength":1968,"byteOffset":362648,"target":34962}],"buffers":[{"byteLength":364616,"uri":"SM_Kitchen_Shelf_A.bin"}],"images":[{"name":"FlatNormal","uri":"FlatNormal.tga"}],"materials":[{"alphaMode":"OPAQUE","doubleSided":false,"extras":{"fromFBX":{"isTruePBR":false,"shadingModel":"Phong"}},"name":"MI_Kitchen_Shelf_A","normalTexture":{"index":0,"texCoord":0},"pbrMetallicRoughness":{"baseColorFactor":[0.21586050093174,0.21586050093174,0.21586050093174,1],"metallicFactor":0.400000005960464,"roughnessFactor":0.301511347293854}},{"alphaMode":"OPAQUE","doubleSided":false,"extras":{"fromFBX":{"isTruePBR":false,"shadingModel":"Lambert"}},"name":"DefaultMaterial","pbrMetallicRoughness":{"baseColorFactor":[0.5,0.5,0.5,1],"metallicFactor":0.200000002980232,"roughnessFactor":0.800000011920929}}],"meshes":[{"name":"SM_Kitchen_Shelf_A_LOD0","primitives":[{"attributes":{"NORMAL":3,"POSITION":2,"TANGENT":4,"TEXCOORD_0":5,"TEXCOORD_1":6},"indices":1,"material":0,"mode":4}]},{"name":"SM_Kitchen_Shelf_A_LOD1","primitives":[{"attributes":{"NORMAL":9,"POSITION":8,"TANGENT":10,"TEXCOORD_0":11,"TEXCOORD_1":12},"indices":7,"material":0,"mode":4}]},{"name":"SM_Kitchen_Shelf_A_LOD2","primitives":[{"attributes":{"NORMAL":15,"POSITION":14,"TANGENT":16,"TEXCOORD_0":17,"TEXCOORD_1":18},"indices":13,"material":0,"mode":4}]},{"name":"SM_Kitchen_Shelf_A_LOD3","primitives":[{"attributes":{"NORMAL":21,"POSITION":20,"TANGENT":22,"TEXCOORD_0":23,"TEXCOORD_1":24},"indices":19,"material":0,"mode":4}]},{"name":"SM_Kitchen_Shelf_A_ConvexHulls","primitives":[{"attributes":{"NORMAL":27,"POSITION":26,"TEXCOORD_0":28,"TEXCOORD_1":29},"indices":25,"material":1,"mode":4}]}],"nodes":[{"children":[1,2,3,4,5],"name":"Assets_Proxy_kitchen_Shelf_A_Proxy2","originalUnits":0.00999999977648258,"pivot":[0,0,0],"rotation":[0,0,0,1],"scale":[1,1,1],"translation":[0,0,0]},{"mesh":0,"name":"SM_Kitchen_Shelf_A_LOD0","originalUnits":0.00999999977648258,"pivot":[0,0,0],"rotation":[0,0,0,1],"scale":[1,1,1],"translation":[0,0,0]},{"mesh":4,"name":"SM_Kitchen_Shelf_A_ConvexHulls","originalUnits":0.00999999977648258,"pivot":[0,0,0],"rotation":[0,0,0,1],"scale":[1,1,1],"translation":[0,0,0]},{"mesh":1,"name":"SM_Kitchen_Shelf_A_LOD1","originalUnits":0.00999999977648258,"pivot":[0,0,0],"rotation":[0,0,0,1],"scale":[1,1,1],"translation":[0,0,0]},{"mesh":2,"name":"SM_Kitchen_Shelf_A_LOD2","originalUnits":0.00999999977648258,"pivot":[0,0,0],"rotation":[0,0,0,1],"scale":[1,1,1],"translation":[0,0,0]},{"mesh":3,"name":"SM_Kitchen_Shelf_A_LOD3","originalUnits":0.00999999977648258,"pivot":[0,0,0],"rotation":[0,0,0,1],"scale":[1,1,1],"translation":[0,0,0]}],"samplers":[{}],"scene":0,"scenes":[{"name":"Root Scene","nodes":[0]}],"textures":[{"name":"T_Default_N","sampler":0,"source":0}]}