{"accessors":[{"bufferView":0,"byteOffset":0,"componentType":5126,"count":1,"max":[0],"min":[0],"type":"SCALAR"},{"bufferView":1,"byteOffset":0,"componentType":5123,"count":17880,"type":"SCALAR"},{"bufferView":2,"byteOffset":0,"componentType":5126,"count":4000,"max":[0.681532979011536,1.48653304576874,0.600679993629456],"min":[-0.68153303861618,-0.00000005984398,-0.6006800532341],"type":"VEC3"},{"bufferView":3,"byteOffset":0,"componentType":5126,"count":4000,"type":"VEC3"},{"bufferView":4,"byteOffset":0,"componentType":5126,"count":4000,"type":"VEC4"},{"bufferView":5,"byteOffset":0,"componentType":5126,"count":4000,"type":"VEC2"},{"bufferView":6,"byteOffset":0,"componentType":5126,"count":4000,"type":"VEC2"},{"bufferView":7,"byteOffset":0,"componentType":5123,"count":13407,"type":"SCALAR"},{"bufferView":8,"byteOffset":0,"componentType":5126,"count":3207,"max":[0.681532979011536,1.4869213104248,0.60037899017334],"min":[-0.68153303861618,-0.00000005984398,-0.6006800532341],"type":"VEC3"},{"bufferView":9,"byteOffset":0,"componentType":5126,"count":3207,"type":"VEC3"},{"bufferView":10,"byteOffset":0,"componentType":5126,"count":3207,"type":"VEC4"},{"bufferView":11,"byteOffset":0,"componentType":5126,"count":3207,"type":"VEC2"},{"bufferView":12,"byteOffset":0,"componentType":5126,"count":3207,"type":"VEC2"},{"bufferView":13,"byteOffset":0,"componentType":5123,"count":8940,"type":"SCALAR"},{"bufferView":14,"byteOffset":0,"componentType":5126,"count":2354,"max":[0.683881640434265,1.48652994632721,0.600391089916229],"min":[-0.68396216630936,-0.00000005984398,-0.59855842590332],"type":"VEC3"},{"bufferView":15,"byteOffset":0,"componentType":5126,"count":2354,"type":"VEC3"},{"bufferView":16,"byteOffset":0,"componentType":5126,"count":2354,"type":"VEC4"},{"bufferView":17,"byteOffset":0,"componentType":5126,"count":2354,"type":"VEC2"},{"bufferView":18,"byteOffset":0,"componentType":5126,"count":2354,"type":"VEC2"},{"bufferView":19,"byteOffset":0,"componentType":5123,"count":4470,"type":"SCALAR"},{"bufferView":20,"byteOffset":0,"componentType":5126,"count":1362,"max":[0.683881640434265,1.48805785179138,0.600391089916229],"min":[-0.68396216630936,-0.00023016909836,-0.59966003894806],"type":"VEC3"},{"bufferView":21,"byteOffset":0,"componentType":5126,"count":1362,"type":"VEC3"},{"bufferView":22,"byteOffset":0,"componentType":5126,"count":1362,"type":"VEC4"},{"bufferView":23,"byteOffset":0,"componentType":5126,"count":1362,"type":"VEC2"},{"bufferView":24,"byteOffset":0,"componentType":5126,"count":1362,"type":"VEC2"},{"bufferView":25,"byteOffset":0,"componentType":5123,"count":738,"type":"SCALAR"},{"bufferView":26,"byteOffset":0,"componentType":5126,"count":716,"max":[0.677132964134216,1.47114288806915,0.579525947570801],"min":[-0.67169094085693,-0.01217843592167,-0.61066287755966],"type":"VEC3"},{"bufferView":27,"byteOffset":0,"componentType":5126,"count":716,"type":"VEC3"},{"bufferView":28,"byteOffset":0,"componentType":5126,"count":716,"type":"VEC2"},{"bufferView":29,"byteOffset":0,"componentType":5126,"count":716,"type":"VEC2"}],"animations":[{"channels":[],"name":"Unreal Take","samplers":[]}],"asset":{"generator":"FBX2glTF v0.13.0","version":"2.0"},"bufferViews":[{"buffer":0,"byteLength":4,"byteOffset":0},{"buffer":0,"byteLength":35760,"byteOffset":4,"target":34963},{"buffer":0,"byteLength":48000,"byteOffset":35764,"target":34962},{"buffer":0,"byteLength":48000,"byteOffset":83764,"target":34962},{"buffer":0,"byteLength":64000,"byteOffset":131764,"target":34962},{"buffer":0,"byteLength":32000,"byteOffset":195764,"target":34962},{"buffer":0,"byteLength":32000,"byteOffset":227764,"target":34962},{"buffer":0,"byteLength":26814,"byteOffset":259764,"target":34963},{"buffer":0,"byteLength":38484,"byteOffset":286580,"target":34962},{"buffer":0,"byteLength":38484,"byteOffset":325064,"target":34962},{"buffer":0,"byteLength":51312,"byteOffset":363548,"target":34962},{"buffer":0,"byteLength":25656,"byteOffset":414860,"target":34962},{"buffer":0,"byteLength":25656,"byteOffset":440516,"target":34962},{"buffer":0,"byteLength":17880,"byteOffset":466172,"target":34963},{"buffer":0,"byteLength":28248,"byteOffset":484052,"target":34962},{"buffer":0,"byteLength":28248,"byteOffset":512300,"target":34962},{"buffer":0,"byteLength":37664,"byteOffset":540548,"target":34962},{"buffer":0,"byteLength":18832,"byteOffset":578212,"target":34962},{"buffer":0,"byteLength":18832,"byteOffset":597044,"target":34962},{"buffer":0,"byteLength":8940,"byteOffset":615876,"target":34963},{"buffer":0,"byteLength":16344,"byteOffset":624816,"target":34962},{"buffer":0,"byteLength":16344,"byteOffset":641160,"target":34962},{"buffer":0,"byteLength":21792,"byteOffset":657504,"target":34962},{"buffer":0,"byteLength":10896,"byteOffset":679296,"target":34962},{"buffer":0,"byteLength":10896,"byteOffset":690192,"target":34962},{"buffer":0,"byteLength":1476,"byteOffset":701088,"target":34963},{"buffer":0,"byteLength":8592,"byteOffset":702564,"target":34962},{"buffer":0,"byteLength":8592,"byteOffset":711156,"target":34962},{"buffer":0,"byteLength":5728,"byteOffset":719748,"target":34962},{"buffer":0,"byteLength":5728,"byteOffset":725476,"target":34962}],"buffers":[{"byteLength":731204,"uri":"SM_LeatherCouch.bin"}],"images":[{"name":"T_LeatherCouch_N","uri":"T_LeatherCouch_N.tga"}],"materials":[{"alphaMode":"OPAQUE","doubleSided":false,"extras":{"fromFBX":{"isTruePBR":false,"shadingModel":"Phong"}},"name":"MI_LeatherCouch","normalTexture":{"index":0,"texCoord":0},"pbrMetallicRoughness":{"baseColorFactor":[0.21586050093174,0.21586050093174,0.21586050093174,1],"metallicFactor":0.400000005960464,"roughnessFactor":0.301511347293854}},{"alphaMode":"OPAQUE","doubleSided":false,"extras":{"fromFBX":{"isTruePBR":false,"shadingModel":"Lambert"}},"name":"DefaultMaterial","pbrMetallicRoughness":{"baseColorFactor":[0.5,0.5,0.5,1],"metallicFactor":0.200000002980232,"roughnessFactor":0.800000011920929}}],"meshes":[{"name":"SM_LeatherCouch_LOD0","primitives":[{"attributes":{"NORMAL":3,"POSITION":2,"TANGENT":4,"TEXCOORD_0":5,"TEXCOORD_1":6},"indices":1,"material":0,"mode":4}]},{"name":"SM_LeatherCouch_LOD1","primitives":[{"attributes":{"NORMAL":9,"POSITION":8,"TANGENT":10,"TEXCOORD_0":11,"TEXCOORD_1":12},"indices":7,"material":0,"mode":4}]},{"name":"SM_LeatherCouch_LOD2","primitives":[{"attributes":{"NORMAL":15,"POSITION":14,"TANGENT":16,"TEXCOORD_0":17,"TEXCOORD_1":18},"indices":13,"material":0,"mode":4}]},{"name":"SM_LeatherCouch_LOD3","primitives":[{"attributes":{"NORMAL":21,"POSITION":20,"TANGENT":22,"TEXCOORD_0":23,"TEXCOORD_1":24},"indices":19,"material":0,"mode":4}]},{"name":"SM_LeatherCouch_ConvexHulls","primitives":[{"attributes":{"NORMAL":27,"POSITION":26,"TEXCOORD_0":28,"TEXCOORD_1":29},"indices":25,"material":1,"mode":4}]}],"nodes":[{"children":[1,2,3,4,5],"name":"Assets_Proxy_LR_Chair_Proxy2","originalUnits":0.00999999977648258,"pivot":[0,0,0],"rotation":[0,0,0,1],"scale":[1,1,1],"translation":[0,0,0]},{"mesh":0,"name":"SM_LeatherCouch_LOD0","originalUnits":0.00999999977648258,"pivot":[0,0,0],"rotation":[0,0,0,1],"scale":[1,1,1],"translation":[0,0,0]},{"mesh":4,"name":"SM_LeatherCouch_ConvexHulls","originalUnits":0.00999999977648258,"pivot":[0,0,0],"rotation":[0,0,0,1],"scale":[1,1,1],"translation":[0,0,0]},{"mesh":1,"name":"SM_LeatherCouch_LOD1","originalUnits":0.00999999977648258,"pivot":[0,0,0],"rotation":[0,0,0,1],"scale":[1,1,1],"translation":[0,0,0]},{"mesh":2,"name":"SM_LeatherCouch_LOD2","originalUnits":0.00999999977648258,"pivot":[0,0,0],"rotation":[0,0,0,1],"scale":[1,1,1],"translation":[0,0,0]},{"mesh":3,"name":"SM_LeatherCouch_LOD3","originalUnits":0.00999999977648258,"pivot":[0,0,0],"rotation":[0,0,0,1],"scale":[1,1,1],"translation":[0,0,0]}],"samplers":[{}],"scene":0,"scenes":[{"name":"Root Scene","nodes":[0]}],"textures":[{"name":"T_LeatherCouch_N","sampler":0,"source":0}]}