{"accessors":[{"bufferView":0,"byteOffset":0,"componentType":5126,"count":1,"max":[0],"min":[0],"type":"SCALAR"},{"bufferView":1,"byteOffset":0,"componentType":5123,"count":2160,"type":"SCALAR"},{"bufferView":2,"byteOffset":0,"componentType":5126,"count":464,"max":[0.103434666991234,0.486222833395004,0.0975134149193764],"min":[-0.10343473404646,-0.02479562722147,-0.09751341491938],"type":"VEC3"},{"bufferView":3,"byteOffset":0,"componentType":5126,"count":464,"type":"VEC3"},{"bufferView":4,"byteOffset":0,"componentType":5126,"count":464,"type":"VEC4"},{"bufferView":5,"byteOffset":0,"componentType":5126,"count":464,"type":"VEC2"},{"bufferView":6,"byteOffset":0,"componentType":5126,"count":464,"type":"VEC2"},{"bufferView":7,"byteOffset":0,"componentType":5123,"count":1620,"type":"SCALAR"},{"bufferView":8,"byteOffset":0,"componentType":5126,"count":377,"max":[0.103386960923672,0.486222833395004,0.0975134149193764],"min":[-0.10343473404646,-0.02479562722147,-0.09751341491938],"type":"VEC3"},{"bufferView":9,"byteOffset":0,"componentType":5126,"count":377,"type":"VEC3"},{"bufferView":10,"byteOffset":0,"componentType":5126,"count":377,"type":"VEC4"},{"bufferView":11,"byteOffset":0,"componentType":5126,"count":377,"type":"VEC2"},{"bufferView":12,"byteOffset":0,"componentType":5126,"count":377,"type":"VEC2"},{"bufferView":13,"byteOffset":0,"componentType":5123,"count":1080,"type":"SCALAR"},{"bufferView":14,"byteOffset":0,"componentType":5126,"count":279,"max":[0.103644922375679,0.486336290836334,0.0975134149193764],"min":[-0.10343473404646,-0.02424567379057,-0.09751341491938],"type":"VEC3"},{"bufferView":15,"byteOffset":0,"componentType":5126,"count":279,"type":"VEC3"},{"bufferView":16,"byteOffset":0,"componentType":5126,"count":279,"type":"VEC4"},{"bufferView":17,"byteOffset":0,"componentType":5126,"count":279,"type":"VEC2"},{"bufferView":18,"byteOffset":0,"componentType":5126,"count":279,"type":"VEC2"},{"bufferView":19,"byteOffset":0,"componentType":5123,"count":540,"type":"SCALAR"},{"bufferView":20,"byteOffset":0,"componentType":5126,"count":168,"max":[0.103839538991451,0.486284285783768,0.0975134149193764],"min":[-0.10343473404646,-0.02467636577785,-0.09751341491938],"type":"VEC3"},{"bufferView":21,"byteOffset":0,"componentType":5126,"count":168,"type":"VEC3"},{"bufferView":22,"byteOffset":0,"componentType":5126,"count":168,"type":"VEC4"},{"bufferView":23,"byteOffset":0,"componentType":5126,"count":168,"type":"VEC2"},{"bufferView":24,"byteOffset":0,"componentType":5126,"count":168,"type":"VEC2"},{"bufferView":25,"byteOffset":0,"componentType":5123,"count":312,"type":"SCALAR"},{"bufferView":26,"byteOffset":0,"componentType":5126,"count":304,"max":[0.10662692040205,0.486887961626053,0.0933162197470665],"min":[-0.09855671972036,-0.02334802597761,-0.09651655703783],"type":"VEC3"},{"bufferView":27,"byteOffset":0,"componentType":5126,"count":304,"type":"VEC3"},{"bufferView":28,"byteOffset":0,"componentType":5126,"count":304,"type":"VEC2"},{"bufferView":29,"byteOffset":0,"componentType":5126,"count":304,"type":"VEC2"}],"animations":[{"channels":[],"name":"Unreal Take","samplers":[]}],"asset":{"generator":"FBX2glTF v0.13.0","version":"2.0"},"bufferViews":[{"buffer":0,"byteLength":4,"byteOffset":0},{"buffer":0,"byteLength":4320,"byteOffset":4,"target":34963},{"buffer":0,"byteLength":5568,"byteOffset":4324,"target":34962},{"buffer":0,"byteLength":5568,"byteOffset":9892,"target":34962},{"buffer":0,"byteLength":7424,"byteOffset":15460,"target":34962},{"buffer":0,"byteLength":3712,"byteOffset":22884,"target":34962},{"buffer":0,"byteLength":3712,"byteOffset":26596,"target":34962},{"buffer":0,"byteLength":3240,"byteOffset":30308,"target":34963},{"buffer":0,"byteLength":4524,"byteOffset":33548,"target":34962},{"buffer":0,"byteLength":4524,"byteOffset":38072,"target":34962},{"buffer":0,"byteLength":6032,"byteOffset":42596,"target":34962},{"buffer":0,"byteLength":3016,"byteOffset":48628,"target":34962},{"buffer":0,"byteLength":3016,"byteOffset":51644,"target":34962},{"buffer":0,"byteLength":2160,"byteOffset":54660,"target":34963},{"buffer":0,"byteLength":3348,"byteOffset":56820,"target":34962},{"buffer":0,"byteLength":3348,"byteOffset":60168,"target":34962},{"buffer":0,"byteLength":4464,"byteOffset":63516,"target":34962},{"buffer":0,"byteLength":2232,"byteOffset":67980,"target":34962},{"buffer":0,"byteLength":2232,"byteOffset":70212,"target":34962},{"buffer":0,"byteLength":1080,"byteOffset":72444,"target":34963},{"buffer":0,"byteLength":2016,"byteOffset":73524,"target":34962},{"buffer":0,"byteLength":2016,"byteOffset":75540,"target":34962},{"buffer":0,"byteLength":2688,"byteOffset":77556,"target":34962},{"buffer":0,"byteLength":1344,"byteOffset":80244,"target":34962},{"buffer":0,"byteLength":1344,"byteOffset":81588,"target":34962},{"buffer":0,"byteLength":624,"byteOffset":82932,"target":34963},{"buffer":0,"byteLength":3648,"byteOffset":83556,"target":34962},{"buffer":0,"byteLength":3648,"byteOffset":87204,"target":34962},{"buffer":0,"byteLength":2432,"byteOffset":90852,"target":34962},{"buffer":0,"byteLength":2432,"byteOffset":93284,"target":34962}],"buffers":[{"byteLength":95716,"uri":"SM_Ladel01.bin"}],"images":[{"name":"FlatNormal","uri":"FlatNormal.tga"}],"materials":[{"alphaMode":"OPAQUE","doubleSided":false,"extras":{"fromFBX":{"isTruePBR":false,"shadingModel":"Phong"}},"name":"MI_Kitchen_Props_A","normalTexture":{"index":0,"texCoord":0},"pbrMetallicRoughness":{"baseColorFactor":[0.21586050093174,0.21586050093174,0.21586050093174,1],"metallicFactor":0.400000005960464,"roughnessFactor":0.301511347293854}},{"alphaMode":"OPAQUE","doubleSided":false,"extras":{"fromFBX":{"isTruePBR":false,"shadingModel":"Lambert"}},"name":"DefaultMaterial","pbrMetallicRoughness":{"baseColorFactor":[0.5,0.5,0.5,1],"metallicFactor":0.200000002980232,"roughnessFactor":0.800000011920929}}],"meshes":[{"name":"SM_Ladel01_LOD0","primitives":[{"attributes":{"NORMAL":3,"POSITION":2,"TANGENT":4,"TEXCOORD_0":5,"TEXCOORD_1":6},"indices":1,"material":0,"mode":4}]},{"name":"SM_Ladel01_LOD1","primitives":[{"attributes":{"NORMAL":9,"POSITION":8,"TANGENT":10,"TEXCOORD_0":11,"TEXCOORD_1":12},"indices":7,"material":0,"mode":4}]},{"name":"SM_Ladel01_LOD2","primitives":[{"attributes":{"NORMAL":15,"POSITION":14,"TANGENT":16,"TEXCOORD_0":17,"TEXCOORD_1":18},"indices":13,"material":0,"mode":4}]},{"name":"SM_Ladel01_LOD3","primitives":[{"attributes":{"NORMAL":21,"POSITION":20,"TANGENT":22,"TEXCOORD_0":23,"TEXCOORD_1":24},"indices":19,"material":0,"mode":4}]},{"name":"SM_Ladel01_ConvexHulls","primitives":[{"attributes":{"NORMAL":27,"POSITION":26,"TEXCOORD_0":28,"TEXCOORD_1":29},"indices":25,"material":1,"mode":4}]}],"nodes":[{"children":[1,2,3,4,5],"name":"Kitchen_Props_A_Ladel_B2","originalUnits":0.00999999977648258,"pivot":[0,0,0],"rotation":[0,0,0,1],"scale":[1,1,1],"translation":[0,0,0]},{"mesh":0,"name":"SM_Ladel01_LOD0","originalUnits":0.00999999977648258,"pivot":[0,0,0],"rotation":[0,0,0,1],"scale":[1,1,1],"translation":[0,0,0]},{"mesh":4,"name":"SM_Ladel01_ConvexHulls","originalUnits":0.00999999977648258,"pivot":[0,0,0],"rotation":[0,0,0,1],"scale":[1,1,1],"translation":[0,0,0]},{"mesh":1,"name":"SM_Ladel01_LOD1","originalUnits":0.00999999977648258,"pivot":[0,0,0],"rotation":[0,0,0,1],"scale":[1,1,1],"translation":[0,0,0]},{"mesh":2,"name":"SM_Ladel01_LOD2","originalUnits":0.00999999977648258,"pivot":[0,0,0],"rotation":[0,0,0,1],"scale":[1,1,1],"translation":[0,0,0]},{"mesh":3,"name":"SM_Ladel01_LOD3","originalUnits":0.00999999977648258,"pivot":[0,0,0],"rotation":[0,0,0,1],"scale":[1,1,1],"translation":[0,0,0]}],"samplers":[{}],"scene":0,"scenes":[{"name":"Root Scene","nodes":[0]}],"textures":[{"name":"T_Default_N","sampler":0,"source":0}]}