{"accessors":[{"bufferView":0,"byteOffset":0,"componentType":5126,"count":1,"max":[0],"min":[0],"type":"SCALAR"},{"bufferView":1,"byteOffset":0,"componentType":5123,"count":1332,"type":"SCALAR"},{"bufferView":2,"byteOffset":0,"componentType":5126,"count":274,"max":[0.0180310122668743,0.372423201799393,0.081801749765873],"min":[-0.0202703922987,-0.08206796646118,-0.08180174976587],"type":"VEC3"},{"bufferView":3,"byteOffset":0,"componentType":5126,"count":274,"type":"VEC3"},{"bufferView":4,"byteOffset":0,"componentType":5126,"count":274,"type":"VEC4"},{"bufferView":5,"byteOffset":0,"componentType":5126,"count":274,"type":"VEC2"},{"bufferView":6,"byteOffset":0,"componentType":5126,"count":274,"type":"VEC2"},{"bufferView":7,"byteOffset":0,"componentType":5123,"count":996,"type":"SCALAR"},{"bufferView":8,"byteOffset":0,"componentType":5126,"count":218,"max":[0.0180310122668743,0.372460812330246,0.081801749765873],"min":[-0.0202703922987,-0.08206796646118,-0.08180174976587],"type":"VEC3"},{"bufferView":9,"byteOffset":0,"componentType":5126,"count":218,"type":"VEC3"},{"bufferView":10,"byteOffset":0,"componentType":5126,"count":218,"type":"VEC4"},{"bufferView":11,"byteOffset":0,"componentType":5126,"count":218,"type":"VEC2"},{"bufferView":12,"byteOffset":0,"componentType":5126,"count":218,"type":"VEC2"},{"bufferView":13,"byteOffset":0,"componentType":5123,"count":666,"type":"SCALAR"},{"bufferView":14,"byteOffset":0,"componentType":5126,"count":169,"max":[0.018064858391881,0.372460812330246,0.0825659334659576],"min":[-0.0202703922987,-0.08206796646118,-0.08180174976587],"type":"VEC3"},{"bufferView":15,"byteOffset":0,"componentType":5126,"count":169,"type":"VEC3"},{"bufferView":16,"byteOffset":0,"componentType":5126,"count":169,"type":"VEC4"},{"bufferView":17,"byteOffset":0,"componentType":5126,"count":169,"type":"VEC2"},{"bufferView":18,"byteOffset":0,"componentType":5126,"count":169,"type":"VEC2"},{"bufferView":19,"byteOffset":0,"componentType":5123,"count":330,"type":"SCALAR"},{"bufferView":20,"byteOffset":0,"componentType":5126,"count":91,"max":[0.0220286156982183,0.37159389257431,0.0825659334659576],"min":[-0.02211838029325,-0.08394537121058,-0.08112661540508],"type":"VEC3"},{"bufferView":21,"byteOffset":0,"componentType":5126,"count":91,"type":"VEC3"},{"bufferView":22,"byteOffset":0,"componentType":5126,"count":91,"type":"VEC4"},{"bufferView":23,"byteOffset":0,"componentType":5126,"count":91,"type":"VEC2"},{"bufferView":24,"byteOffset":0,"componentType":5126,"count":91,"type":"VEC2"},{"bufferView":25,"byteOffset":0,"componentType":5123,"count":336,"type":"SCALAR"},{"bufferView":26,"byteOffset":0,"componentType":5126,"count":320,"max":[0.0180298760533333,0.373455911874771,0.0796472206711769],"min":[-0.02254436351359,-0.08031812310219,-0.08066358417273],"type":"VEC3"},{"bufferView":27,"byteOffset":0,"componentType":5126,"count":320,"type":"VEC3"},{"bufferView":28,"byteOffset":0,"componentType":5126,"count":320,"type":"VEC2"},{"bufferView":29,"byteOffset":0,"componentType":5126,"count":320,"type":"VEC2"}],"animations":[{"channels":[],"name":"Unreal Take","samplers":[]}],"asset":{"generator":"FBX2glTF v0.13.0","version":"2.0"},"bufferViews":[{"buffer":0,"byteLength":4,"byteOffset":0},{"buffer":0,"byteLength":2664,"byteOffset":4,"target":34963},{"buffer":0,"byteLength":3288,"byteOffset":2668,"target":34962},{"buffer":0,"byteLength":3288,"byteOffset":5956,"target":34962},{"buffer":0,"byteLength":4384,"byteOffset":9244,"target":34962},{"buffer":0,"byteLength":2192,"byteOffset":13628,"target":34962},{"buffer":0,"byteLength":2192,"byteOffset":15820,"target":34962},{"buffer":0,"byteLength":1992,"byteOffset":18012,"target":34963},{"buffer":0,"byteLength":2616,"byteOffset":20004,"target":34962},{"buffer":0,"byteLength":2616,"byteOffset":22620,"target":34962},{"buffer":0,"byteLength":3488,"byteOffset":25236,"target":34962},{"buffer":0,"byteLength":1744,"byteOffset":28724,"target":34962},{"buffer":0,"byteLength":1744,"byteOffset":30468,"target":34962},{"buffer":0,"byteLength":1332,"byteOffset":32212,"target":34963},{"buffer":0,"byteLength":2028,"byteOffset":33544,"target":34962},{"buffer":0,"byteLength":2028,"byteOffset":35572,"target":34962},{"buffer":0,"byteLength":2704,"byteOffset":37600,"target":34962},{"buffer":0,"byteLength":1352,"byteOffset":40304,"target":34962},{"buffer":0,"byteLength":1352,"byteOffset":41656,"target":34962},{"buffer":0,"byteLength":660,"byteOffset":43008,"target":34963},{"buffer":0,"byteLength":1092,"byteOffset":43668,"target":34962},{"buffer":0,"byteLength":1092,"byteOffset":44760,"target":34962},{"buffer":0,"byteLength":1456,"byteOffset":45852,"target":34962},{"buffer":0,"byteLength":728,"byteOffset":47308,"target":34962},{"buffer":0,"byteLength":728,"byteOffset":48036,"target":34962},{"buffer":0,"byteLength":672,"byteOffset":48764,"target":34963},{"buffer":0,"byteLength":3840,"byteOffset":49436,"target":34962},{"buffer":0,"byteLength":3840,"byteOffset":53276,"target":34962},{"buffer":0,"byteLength":2560,"byteOffset":57116,"target":34962},{"buffer":0,"byteLength":2560,"byteOffset":59676,"target":34962}],"buffers":[{"byteLength":62236,"uri":"SM_Ladel02.bin"}],"images":[{"name":"FlatNormal","uri":"FlatNormal.tga"}],"materials":[{"alphaMode":"OPAQUE","doubleSided":false,"extras":{"fromFBX":{"isTruePBR":false,"shadingModel":"Phong"}},"name":"MI_Kitchen_Props_A","normalTexture":{"index":0,"texCoord":0},"pbrMetallicRoughness":{"baseColorFactor":[0.21586050093174,0.21586050093174,0.21586050093174,1],"metallicFactor":0.400000005960464,"roughnessFactor":0.301511347293854}},{"alphaMode":"OPAQUE","doubleSided":false,"extras":{"fromFBX":{"isTruePBR":false,"shadingModel":"Lambert"}},"name":"DefaultMaterial","pbrMetallicRoughness":{"baseColorFactor":[0.5,0.5,0.5,1],"metallicFactor":0.200000002980232,"roughnessFactor":0.800000011920929}}],"meshes":[{"name":"SM_Ladel02_LOD0","primitives":[{"attributes":{"NORMAL":3,"POSITION":2,"TANGENT":4,"TEXCOORD_0":5,"TEXCOORD_1":6},"indices":1,"material":0,"mode":4}]},{"name":"SM_Ladel02_LOD1","primitives":[{"attributes":{"NORMAL":9,"POSITION":8,"TANGENT":10,"TEXCOORD_0":11,"TEXCOORD_1":12},"indices":7,"material":0,"mode":4}]},{"name":"SM_Ladel02_LOD2","primitives":[{"attributes":{"NORMAL":15,"POSITION":14,"TANGENT":16,"TEXCOORD_0":17,"TEXCOORD_1":18},"indices":13,"material":0,"mode":4}]},{"name":"SM_Ladel02_LOD3","primitives":[{"attributes":{"NORMAL":21,"POSITION":20,"TANGENT":22,"TEXCOORD_0":23,"TEXCOORD_1":24},"indices":19,"material":0,"mode":4}]},{"name":"SM_Ladel02_ConvexHulls","primitives":[{"attributes":{"NORMAL":27,"POSITION":26,"TEXCOORD_0":28,"TEXCOORD_1":29},"indices":25,"material":1,"mode":4}]}],"nodes":[{"children":[1,2,3,4,5],"name":"Kitchen_Props_A_Ladel_A2","originalUnits":0.00999999977648258,"pivot":[0,0,0],"rotation":[0,0,0,1],"scale":[1,1,1],"translation":[0,0,0]},{"mesh":0,"name":"SM_Ladel02_LOD0","originalUnits":0.00999999977648258,"pivot":[0,0,0],"rotation":[0,0,0,1],"scale":[1,1,1],"translation":[0,0,0]},{"mesh":4,"name":"SM_Ladel02_ConvexHulls","originalUnits":0.00999999977648258,"pivot":[0,0,0],"rotation":[0,0,0,1],"scale":[1,1,1],"translation":[0,0,0]},{"mesh":1,"name":"SM_Ladel02_LOD1","originalUnits":0.00999999977648258,"pivot":[0,0,0],"rotation":[0,0,0,1],"scale":[1,1,1],"translation":[0,0,0]},{"mesh":2,"name":"SM_Ladel02_LOD2","originalUnits":0.00999999977648258,"pivot":[0,0,0],"rotation":[0,0,0,1],"scale":[1,1,1],"translation":[0,0,0]},{"mesh":3,"name":"SM_Ladel02_LOD3","originalUnits":0.00999999977648258,"pivot":[0,0,0],"rotation":[0,0,0,1],"scale":[1,1,1],"translation":[0,0,0]}],"samplers":[{}],"scene":0,"scenes":[{"name":"Root Scene","nodes":[0]}],"textures":[{"name":"T_Default_N","sampler":0,"source":0}]}