{"accessors":[{"bufferView":0,"byteOffset":0,"componentType":5126,"count":1,"max":[0],"min":[0],"type":"SCALAR"},{"bufferView":1,"byteOffset":0,"componentType":5123,"count":144,"type":"SCALAR"},{"bufferView":2,"byteOffset":0,"componentType":5126,"count":35,"max":[0.185442209243774,0.0171295609325171,0.129370078444481],"min":[-0.18538355827332,0.00080316810635849,-0.13068597018719],"type":"VEC3"},{"bufferView":3,"byteOffset":0,"componentType":5126,"count":35,"type":"VEC3"},{"bufferView":4,"byteOffset":0,"componentType":5126,"count":35,"type":"VEC4"},{"bufferView":5,"byteOffset":0,"componentType":5126,"count":35,"type":"VEC2"},{"bufferView":6,"byteOffset":0,"componentType":5126,"count":35,"type":"VEC2"},{"bufferView":7,"byteOffset":0,"componentType":5123,"count":108,"type":"SCALAR"},{"bufferView":8,"byteOffset":0,"componentType":5126,"count":29,"max":[0.185442209243774,0.0171295609325171,0.129370078444481],"min":[-0.18538355827332,0.00080316810635849,-0.13068597018719],"type":"VEC3"},{"bufferView":9,"byteOffset":0,"componentType":5126,"count":29,"type":"VEC3"},{"bufferView":10,"byteOffset":0,"componentType":5126,"count":29,"type":"VEC4"},{"bufferView":11,"byteOffset":0,"componentType":5126,"count":29,"type":"VEC2"},{"bufferView":12,"byteOffset":0,"componentType":5126,"count":29,"type":"VEC2"},{"bufferView":13,"byteOffset":0,"componentType":5123,"count":72,"type":"SCALAR"},{"bufferView":14,"byteOffset":0,"componentType":5126,"count":21,"max":[0.185442209243774,0.0171295609325171,0.129424273967743],"min":[-0.18538355827332,0.00098284077830612,-0.13068597018719],"type":"VEC3"},{"bufferView":15,"byteOffset":0,"componentType":5126,"count":21,"type":"VEC3"},{"bufferView":16,"byteOffset":0,"componentType":5126,"count":21,"type":"VEC4"},{"bufferView":17,"byteOffset":0,"componentType":5126,"count":21,"type":"VEC2"},{"bufferView":18,"byteOffset":0,"componentType":5126,"count":21,"type":"VEC2"},{"bufferView":19,"byteOffset":0,"componentType":5123,"count":36,"type":"SCALAR"},{"bufferView":20,"byteOffset":0,"componentType":5126,"count":13,"max":[0.1849505007267,0.0171295609325171,0.129284262657166],"min":[-0.18538355827332,0.00035216484684497,-0.13068597018719],"type":"VEC3"},{"bufferView":21,"byteOffset":0,"componentType":5126,"count":13,"type":"VEC3"},{"bufferView":22,"byteOffset":0,"componentType":5126,"count":13,"type":"VEC4"},{"bufferView":23,"byteOffset":0,"componentType":5126,"count":13,"type":"VEC2"},{"bufferView":24,"byteOffset":0,"componentType":5126,"count":13,"type":"VEC2"},{"bufferView":25,"byteOffset":0,"componentType":5123,"count":336,"type":"SCALAR"},{"bufferView":26,"byteOffset":0,"componentType":5126,"count":318,"max":[0.18586502969265,0.0182730462402105,0.12999714910984],"min":[-0.18669946491718,-0.00088691798737,-0.1327370852232],"type":"VEC3"},{"bufferView":27,"byteOffset":0,"componentType":5126,"count":318,"type":"VEC3"},{"bufferView":28,"byteOffset":0,"componentType":5126,"count":318,"type":"VEC2"},{"bufferView":29,"byteOffset":0,"componentType":5126,"count":318,"type":"VEC2"}],"animations":[{"channels":[],"name":"Unreal Take","samplers":[]}],"asset":{"generator":"FBX2glTF v0.13.0","version":"2.0"},"bufferViews":[{"buffer":0,"byteLength":4,"byteOffset":0},{"buffer":0,"byteLength":288,"byteOffset":4,"target":34963},{"buffer":0,"byteLength":420,"byteOffset":292,"target":34962},{"buffer":0,"byteLength":420,"byteOffset":712,"target":34962},{"buffer":0,"byteLength":560,"byteOffset":1132,"target":34962},{"buffer":0,"byteLength":280,"byteOffset":1692,"target":34962},{"buffer":0,"byteLength":280,"byteOffset":1972,"target":34962},{"buffer":0,"byteLength":216,"byteOffset":2252,"target":34963},{"buffer":0,"byteLength":348,"byteOffset":2468,"target":34962},{"buffer":0,"byteLength":348,"byteOffset":2816,"target":34962},{"buffer":0,"byteLength":464,"byteOffset":3164,"target":34962},{"buffer":0,"byteLength":232,"byteOffset":3628,"target":34962},{"buffer":0,"byteLength":232,"byteOffset":3860,"target":34962},{"buffer":0,"byteLength":144,"byteOffset":4092,"target":34963},{"buffer":0,"byteLength":252,"byteOffset":4236,"target":34962},{"buffer":0,"byteLength":252,"byteOffset":4488,"target":34962},{"buffer":0,"byteLength":336,"byteOffset":4740,"target":34962},{"buffer":0,"byteLength":168,"byteOffset":5076,"target":34962},{"buffer":0,"byteLength":168,"byteOffset":5244,"target":34962},{"buffer":0,"byteLength":72,"byteOffset":5412,"target":34963},{"buffer":0,"byteLength":156,"byteOffset":5484,"target":34962},{"buffer":0,"byteLength":156,"byteOffset":5640,"target":34962},{"buffer":0,"byteLength":208,"byteOffset":5796,"target":34962},{"buffer":0,"byteLength":104,"byteOffset":6004,"target":34962},{"buffer":0,"byteLength":104,"byteOffset":6108,"target":34962},{"buffer":0,"byteLength":672,"byteOffset":6212,"target":34963},{"buffer":0,"byteLength":3816,"byteOffset":6884,"target":34962},{"buffer":0,"byteLength":3816,"byteOffset":10700,"target":34962},{"buffer":0,"byteLength":2544,"byteOffset":14516,"target":34962},{"buffer":0,"byteLength":2544,"byteOffset":17060,"target":34962}],"buffers":[{"byteLength":19604,"uri":"SM_Letter_02.bin"}],"images":[{"name":"T_Letters_01_N","uri":"../Textures/T_Letters_01_N.tga"},{"name":"T_Letters_01_A","uri":"../Textures/T_Letters_01_A.tga"}],"materials":[{"alphaMode":"OPAQUE","doubleSided":false,"extras":{"fromFBX":{"isTruePBR":false,"shadingModel":"Phong"}},"name":"MI_Letters_01","normalTexture":{"index":0,"texCoord":0},"pbrMetallicRoughness":{"baseColorFactor":[1,1,1,1],"baseColorTexture":{"index":1,"texCoord":0},"metallicFactor":0.400000005960464,"roughnessFactor":0.301511347293854}},{"alphaMode":"OPAQUE","doubleSided":false,"extras":{"fromFBX":{"isTruePBR":false,"shadingModel":"Lambert"}},"name":"DefaultMaterial","pbrMetallicRoughness":{"baseColorFactor":[0.5,0.5,0.5,1],"metallicFactor":0.200000002980232,"roughnessFactor":0.800000011920929}}],"meshes":[{"name":"SM_Letter_02_LOD0","primitives":[{"attributes":{"NORMAL":3,"POSITION":2,"TANGENT":4,"TEXCOORD_0":5,"TEXCOORD_1":6},"indices":1,"material":0,"mode":4}]},{"name":"SM_Letter_02_LOD1","primitives":[{"attributes":{"NORMAL":9,"POSITION":8,"TANGENT":10,"TEXCOORD_0":11,"TEXCOORD_1":12},"indices":7,"material":0,"mode":4}]},{"name":"SM_Letter_02_LOD2","primitives":[{"attributes":{"NORMAL":15,"POSITION":14,"TANGENT":16,"TEXCOORD_0":17,"TEXCOORD_1":18},"indices":13,"material":0,"mode":4}]},{"name":"SM_Letter_02_LOD3","primitives":[{"attributes":{"NORMAL":21,"POSITION":20,"TANGENT":22,"TEXCOORD_0":23,"TEXCOORD_1":24},"indices":19,"material":0,"mode":4}]},{"name":"SM_Letter_02_ConvexHulls","primitives":[{"attributes":{"NORMAL":27,"POSITION":26,"TEXCOORD_0":28,"TEXCOORD_1":29},"indices":25,"material":1,"mode":4}]}],"nodes":[{"children":[1,2,3,4,5],"name":"SM_Letter_5","originalUnits":0.00999999977648258,"pivot":[0,0,0],"rotation":[0,0,0,1],"scale":[1,1,1],"translation":[0,0,0]},{"mesh":0,"name":"SM_Letter_02_LOD0","originalUnits":0.00999999977648258,"pivot":[0,0,0],"rotation":[0,0,0,1],"scale":[1,1,1],"translation":[0,0,0]},{"mesh":4,"name":"SM_Letter_02_ConvexHulls","originalUnits":0.00999999977648258,"pivot":[0,0,0],"rotation":[0,0,0,1],"scale":[1,1,1],"translation":[0,0,0]},{"mesh":1,"name":"SM_Letter_02_LOD1","originalUnits":0.00999999977648258,"pivot":[0,0,0],"rotation":[0,0,0,1],"scale":[1,1,1],"translation":[0,0,0]},{"mesh":2,"name":"SM_Letter_02_LOD2","originalUnits":0.00999999977648258,"pivot":[0,0,0],"rotation":[0,0,0,1],"scale":[1,1,1],"translation":[0,0,0]},{"mesh":3,"name":"SM_Letter_02_LOD3","originalUnits":0.00999999977648258,"pivot":[0,0,0],"rotation":[0,0,0,1],"scale":[1,1,1],"translation":[0,0,0]}],"samplers":[{}],"scene":0,"scenes":[{"name":"Root Scene","nodes":[0]}],"textures":[{"name":"T_Letters_01_N","sampler":0,"source":0},{"name":"T_Letters_01_A","sampler":0,"source":1}]}