{"accessors":[{"bufferView":0,"byteOffset":0,"componentType":5126,"count":1,"max":[0],"min":[0],"type":"SCALAR"},{"bufferView":1,"byteOffset":0,"componentType":5123,"count":444,"type":"SCALAR"},{"bufferView":2,"byteOffset":0,"componentType":5126,"count":200,"max":[0.142547562718391,0.0112530598416924,0.143989846110344],"min":[-0.14362727105618,-0.22809934616089,-0.14221128821373],"type":"VEC3"},{"bufferView":3,"byteOffset":0,"componentType":5126,"count":200,"type":"VEC3"},{"bufferView":4,"byteOffset":0,"componentType":5126,"count":200,"type":"VEC4"},{"bufferView":5,"byteOffset":0,"componentType":5126,"count":200,"type":"VEC2"},{"bufferView":6,"byteOffset":0,"componentType":5126,"count":200,"type":"VEC2"},{"bufferView":7,"byteOffset":0,"componentType":5123,"count":426,"type":"SCALAR"},{"bufferView":8,"byteOffset":0,"componentType":5126,"count":196,"max":[0.142547562718391,0.0112530598416924,0.143989846110344],"min":[-0.14362727105618,-0.22814498841763,-0.14221128821373],"type":"VEC3"},{"bufferView":9,"byteOffset":0,"componentType":5126,"count":196,"type":"VEC3"},{"bufferView":10,"byteOffset":0,"componentType":5126,"count":196,"type":"VEC4"},{"bufferView":11,"byteOffset":0,"componentType":5126,"count":196,"type":"VEC2"},{"bufferView":12,"byteOffset":0,"componentType":5126,"count":196,"type":"VEC2"},{"bufferView":13,"byteOffset":0,"componentType":5123,"count":402,"type":"SCALAR"},{"bufferView":14,"byteOffset":0,"componentType":5126,"count":188,"max":[0.142547562718391,0.0112530598416924,0.143989846110344],"min":[-0.14362727105618,-0.22854213416576,-0.14221128821373],"type":"VEC3"},{"bufferView":15,"byteOffset":0,"componentType":5126,"count":188,"type":"VEC3"},{"bufferView":16,"byteOffset":0,"componentType":5126,"count":188,"type":"VEC4"},{"bufferView":17,"byteOffset":0,"componentType":5126,"count":188,"type":"VEC2"},{"bufferView":18,"byteOffset":0,"componentType":5126,"count":188,"type":"VEC2"},{"bufferView":19,"byteOffset":0,"componentType":5123,"count":261,"type":"SCALAR"},{"bufferView":20,"byteOffset":0,"componentType":5126,"count":139,"max":[0.142547562718391,0.0112445103004575,0.143989846110344],"min":[-0.14362727105618,-0.22971701622009,-0.14221128821373],"type":"VEC3"},{"bufferView":21,"byteOffset":0,"componentType":5126,"count":139,"type":"VEC3"},{"bufferView":22,"byteOffset":0,"componentType":5126,"count":139,"type":"VEC4"},{"bufferView":23,"byteOffset":0,"componentType":5126,"count":139,"type":"VEC2"},{"bufferView":24,"byteOffset":0,"componentType":5126,"count":139,"type":"VEC2"},{"bufferView":25,"byteOffset":0,"componentType":5123,"count":1140,"type":"SCALAR"},{"bufferView":26,"byteOffset":0,"componentType":5126,"count":230,"max":[0.0679880380630493,-0.22436471283436,0.0687412172555923],"min":[-0.06855691969395,-0.35442867875099,-0.06780371814966],"type":"VEC3"},{"bufferView":27,"byteOffset":0,"componentType":5126,"count":230,"type":"VEC3"},{"bufferView":28,"byteOffset":0,"componentType":5126,"count":230,"type":"VEC4"},{"bufferView":29,"byteOffset":0,"componentType":5126,"count":230,"type":"VEC2"},{"bufferView":30,"byteOffset":0,"componentType":5126,"count":230,"type":"VEC2"},{"bufferView":31,"byteOffset":0,"componentType":5123,"count":759,"type":"SCALAR"},{"bufferView":32,"byteOffset":0,"componentType":5126,"count":161,"max":[0.0679880380630493,-0.22436471283436,0.0687412172555923],"min":[-0.06849992275238,-0.35442867875099,-0.06824639439583],"type":"VEC3"},{"bufferView":33,"byteOffset":0,"componentType":5126,"count":161,"type":"VEC3"},{"bufferView":34,"byteOffset":0,"componentType":5126,"count":161,"type":"VEC4"},{"bufferView":35,"byteOffset":0,"componentType":5126,"count":161,"type":"VEC2"},{"bufferView":36,"byteOffset":0,"componentType":5126,"count":161,"type":"VEC2"},{"bufferView":37,"byteOffset":0,"componentType":5123,"count":390,"type":"SCALAR"},{"bufferView":38,"byteOffset":0,"componentType":5126,"count":96,"max":[0.0676833018660545,-0.22436471283436,0.069637343287468],"min":[-0.06873679161072,-0.35442867875099,-0.06802343577147],"type":"VEC3"},{"bufferView":39,"byteOffset":0,"componentType":5126,"count":96,"type":"VEC3"},{"bufferView":40,"byteOffset":0,"componentType":5126,"count":96,"type":"VEC4"},{"bufferView":41,"byteOffset":0,"componentType":5126,"count":96,"type":"VEC2"},{"bufferView":42,"byteOffset":0,"componentType":5126,"count":96,"type":"VEC2"},{"bufferView":43,"byteOffset":0,"componentType":5123,"count":132,"type":"SCALAR"},{"bufferView":44,"byteOffset":0,"componentType":5126,"count":37,"max":[0.0693746209144592,-0.22496499121189,0.0632766634225845],"min":[-0.0669939443469,-0.35644468665123,-0.06802343577147],"type":"VEC3"},{"bufferView":45,"byteOffset":0,"componentType":5126,"count":37,"type":"VEC3"},{"bufferView":46,"byteOffset":0,"componentType":5126,"count":37,"type":"VEC4"},{"bufferView":47,"byteOffset":0,"componentType":5126,"count":37,"type":"VEC2"},{"bufferView":48,"byteOffset":0,"componentType":5126,"count":37,"type":"VEC2"},{"bufferView":49,"byteOffset":0,"componentType":5123,"count":288,"type":"SCALAR"},{"bufferView":50,"byteOffset":0,"componentType":5126,"count":282,"max":[0.13990543782711,0.012732439674437,0.144281551241875],"min":[-0.14310730993748,-0.34990611672401,-0.14082925021648],"type":"VEC3"},{"bufferView":51,"byteOffset":0,"componentType":5126,"count":282,"type":"VEC3"},{"bufferView":52,"byteOffset":0,"componentType":5126,"count":282,"type":"VEC2"},{"bufferView":53,"byteOffset":0,"componentType":5126,"count":282,"type":"VEC2"}],"animations":[{"channels":[],"name":"Unreal Take","samplers":[]}],"asset":{"generator":"FBX2glTF v0.13.0","version":"2.0"},"bufferViews":[{"buffer":0,"byteLength":4,"byteOffset":0},{"buffer":0,"byteLength":888,"byteOffset":4,"target":34963},{"buffer":0,"byteLength":2400,"byteOffset":892,"target":34962},{"buffer":0,"byteLength":2400,"byteOffset":3292,"target":34962},{"buffer":0,"byteLength":3200,"byteOffset":5692,"target":34962},{"buffer":0,"byteLength":1600,"byteOffset":8892,"target":34962},{"buffer":0,"byteLength":1600,"byteOffset":10492,"target":34962},{"buffer":0,"byteLength":852,"byteOffset":12092,"target":34963},{"buffer":0,"byteLength":2352,"byteOffset":12944,"target":34962},{"buffer":0,"byteLength":2352,"byteOffset":15296,"target":34962},{"buffer":0,"byteLength":3136,"byteOffset":17648,"target":34962},{"buffer":0,"byteLength":1568,"byteOffset":20784,"target":34962},{"buffer":0,"byteLength":1568,"byteOffset":22352,"target":34962},{"buffer":0,"byteLength":804,"byteOffset":23920,"target":34963},{"buffer":0,"byteLength":2256,"byteOffset":24724,"target":34962},{"buffer":0,"byteLength":2256,"byteOffset":26980,"target":34962},{"buffer":0,"byteLength":3008,"byteOffset":29236,"target":34962},{"buffer":0,"byteLength":1504,"byteOffset":32244,"target":34962},{"buffer":0,"byteLength":1504,"byteOffset":33748,"target":34962},{"buffer":0,"byteLength":522,"byteOffset":35252,"target":34963},{"buffer":0,"byteLength":1668,"byteOffset":35776,"target":34962},{"buffer":0,"byteLength":1668,"byteOffset":37444,"target":34962},{"buffer":0,"byteLength":2224,"byteOffset":39112,"target":34962},{"buffer":0,"byteLength":1112,"byteOffset":41336,"target":34962},{"buffer":0,"byteLength":1112,"byteOffset":42448,"target":34962},{"buffer":0,"byteLength":2280,"byteOffset":43560,"target":34963},{"buffer":0,"byteLength":2760,"byteOffset":45840,"target":34962},{"buffer":0,"byteLength":2760,"byteOffset":48600,"target":34962},{"buffer":0,"byteLength":3680,"byteOffset":51360,"target":34962},{"buffer":0,"byteLength":1840,"byteOffset":55040,"target":34962},{"buffer":0,"byteLength":1840,"byteOffset":56880,"target":34962},{"buffer":0,"byteLength":1518,"byteOffset":58720,"target":34963},{"buffer":0,"byteLength":1932,"byteOffset":60240,"target":34962},{"buffer":0,"byteLength":1932,"byteOffset":62172,"target":34962},{"buffer":0,"byteLength":2576,"byteOffset":64104,"target":34962},{"buffer":0,"byteLength":1288,"byteOffset":66680,"target":34962},{"buffer":0,"byteLength":1288,"byteOffset":67968,"target":34962},{"buffer":0,"byteLength":780,"byteOffset":69256,"target":34963},{"buffer":0,"byteLength":1152,"byteOffset":70036,"target":34962},{"buffer":0,"byteLength":1152,"byteOffset":71188,"target":34962},{"buffer":0,"byteLength":1536,"byteOffset":72340,"target":34962},{"buffer":0,"byteLength":768,"byteOffset":73876,"target":34962},{"buffer":0,"byteLength":768,"byteOffset":74644,"target":34962},{"buffer":0,"byteLength":264,"byteOffset":75412,"target":34963},{"buffer":0,"byteLength":444,"byteOffset":75676,"target":34962},{"buffer":0,"byteLength":444,"byteOffset":76120,"target":34962},{"buffer":0,"byteLength":592,"byteOffset":76564,"target":34962},{"buffer":0,"byteLength":296,"byteOffset":77156,"target":34962},{"buffer":0,"byteLength":296,"byteOffset":77452,"target":34962},{"buffer":0,"byteLength":576,"byteOffset":77748,"target":34963},{"buffer":0,"byteLength":3384,"byteOffset":78324,"target":34962},{"buffer":0,"byteLength":3384,"byteOffset":81708,"target":34962},{"buffer":0,"byteLength":2256,"byteOffset":85092,"target":34962},{"buffer":0,"byteLength":2256,"byteOffset":87348,"target":34962}],"buffers":[{"byteLength":89604,"uri":"SM_Light_Bulb.bin"}],"images":[{"name":"FlatNormal","uri":"FlatNormal.tga"}],"materials":[{"alphaMode":"OPAQUE","doubleSided":false,"extras":{"fromFBX":{"isTruePBR":false,"shadingModel":"Phong"}},"name":"MM_Base_Mat","pbrMetallicRoughness":{"baseColorFactor":[0.5,0.5,0.5,1],"metallicFactor":0.400000005960464,"roughnessFactor":0.301511347293854}},{"alphaMode":"OPAQUE","doubleSided":false,"extras":{"fromFBX":{"isTruePBR":false,"shadingModel":"Phong"}},"name":"MI_Bulb_EM","normalTexture":{"index":0,"texCoord":0},"pbrMetallicRoughness":{"baseColorFactor":[0.21586050093174,0.21586050093174,0.21586050093174,1],"metallicFactor":0.400000005960464,"roughnessFactor":0.301511347293854}},{"alphaMode":"OPAQUE","doubleSided":false,"extras":{"fromFBX":{"isTruePBR":false,"shadingModel":"Lambert"}},"name":"DefaultMaterial","pbrMetallicRoughness":{"baseColorFactor":[0.5,0.5,0.5,1],"metallicFactor":0.200000002980232,"roughnessFactor":0.800000011920929}}],"meshes":[{"name":"SM_Light_Bulb_LOD0","primitives":[{"attributes":{"NORMAL":3,"POSITION":2,"TANGENT":4,"TEXCOORD_0":5,"TEXCOORD_1":6},"indices":1,"material":0,"mode":4},{"attributes":{"NORMAL":27,"POSITION":26,"TANGENT":28,"TEXCOORD_0":29,"TEXCOORD_1":30},"indices":25,"material":1,"mode":4}]},{"name":"SM_Light_Bulb_LOD1","primitives":[{"attributes":{"NORMAL":9,"POSITION":8,"TANGENT":10,"TEXCOORD_0":11,"TEXCOORD_1":12},"indices":7,"material":0,"mode":4},{"attributes":{"NORMAL":33,"POSITION":32,"TANGENT":34,"TEXCOORD_0":35,"TEXCOORD_1":36},"indices":31,"material":1,"mode":4}]},{"name":"SM_Light_Bulb_LOD2","primitives":[{"attributes":{"NORMAL":15,"POSITION":14,"TANGENT":16,"TEXCOORD_0":17,"TEXCOORD_1":18},"indices":13,"material":0,"mode":4},{"attributes":{"NORMAL":39,"POSITION":38,"TANGENT":40,"TEXCOORD_0":41,"TEXCOORD_1":42},"indices":37,"material":1,"mode":4}]},{"name":"SM_Light_Bulb_LOD3","primitives":[{"attributes":{"NORMAL":21,"POSITION":20,"TANGENT":22,"TEXCOORD_0":23,"TEXCOORD_1":24},"indices":19,"material":0,"mode":4},{"attributes":{"NORMAL":45,"POSITION":44,"TANGENT":46,"TEXCOORD_0":47,"TEXCOORD_1":48},"indices":43,"material":1,"mode":4}]},{"name":"SM_Light_Bulb_ConvexHulls","primitives":[{"attributes":{"NORMAL":51,"POSITION":50,"TEXCOORD_0":52,"TEXCOORD_1":53},"indices":49,"material":2,"mode":4}]}],"nodes":[{"children":[1,2,3,4,5],"name":"Light_Bulb_SM7","originalUnits":0.00999999977648258,"pivot":[0,0,0],"rotation":[0,0,0,1],"scale":[1,1,1],"translation":[0,0,0]},{"mesh":0,"name":"SM_Light_Bulb_LOD0","originalUnits":0.00999999977648258,"pivot":[0,0,0],"rotation":[0,0,0,1],"scale":[1,1,1],"translation":[0,0,0]},{"mesh":4,"name":"SM_Light_Bulb_ConvexHulls","originalUnits":0.00999999977648258,"pivot":[0,0,0],"rotation":[0,0,0,1],"scale":[1,1,1],"translation":[0,0,0]},{"mesh":1,"name":"SM_Light_Bulb_LOD1","originalUnits":0.00999999977648258,"pivot":[0,0,0],"rotation":[0,0,0,1],"scale":[1,1,1],"translation":[0,0,0]},{"mesh":2,"name":"SM_Light_Bulb_LOD2","originalUnits":0.00999999977648258,"pivot":[0,0,0],"rotation":[0,0,0,1],"scale":[1,1,1],"translation":[0,0,0]},{"mesh":3,"name":"SM_Light_Bulb_LOD3","originalUnits":0.00999999977648258,"pivot":[0,0,0],"rotation":[0,0,0,1],"scale":[1,1,1],"translation":[0,0,0]}],"samplers":[{}],"scene":0,"scenes":[{"name":"Root Scene","nodes":[0]}],"textures":[{"name":"T_Default_N","sampler":0,"source":0}]}