{"accessors":[{"bufferView":0,"byteOffset":0,"componentType":5126,"count":1,"max":[0],"min":[0],"type":"SCALAR"},{"bufferView":1,"byteOffset":0,"componentType":5123,"count":144,"type":"SCALAR"},{"bufferView":2,"byteOffset":0,"componentType":5126,"count":35,"max":[0.244987174868584,0.0162372905761003,0.157706633210182],"min":[-0.24068801105022,0.00056058127665892,-0.15753473341465],"type":"VEC3"},{"bufferView":3,"byteOffset":0,"componentType":5126,"count":35,"type":"VEC3"},{"bufferView":4,"byteOffset":0,"componentType":5126,"count":35,"type":"VEC4"},{"bufferView":5,"byteOffset":0,"componentType":5126,"count":35,"type":"VEC2"},{"bufferView":6,"byteOffset":0,"componentType":5126,"count":35,"type":"VEC2"},{"bufferView":7,"byteOffset":0,"componentType":5123,"count":108,"type":"SCALAR"},{"bufferView":8,"byteOffset":0,"componentType":5126,"count":27,"max":[0.244987174868584,0.0162372905761003,0.157706633210182],"min":[-0.24076901376247,0.00025746846222318,-0.15764409303665],"type":"VEC3"},{"bufferView":9,"byteOffset":0,"componentType":5126,"count":27,"type":"VEC3"},{"bufferView":10,"byteOffset":0,"componentType":5126,"count":27,"type":"VEC4"},{"bufferView":11,"byteOffset":0,"componentType":5126,"count":27,"type":"VEC2"},{"bufferView":12,"byteOffset":0,"componentType":5126,"count":27,"type":"VEC2"},{"bufferView":13,"byteOffset":0,"componentType":5123,"count":69,"type":"SCALAR"},{"bufferView":14,"byteOffset":0,"componentType":5126,"count":19,"max":[0.245176687836647,0.015265941619873,0.157706633210182],"min":[-0.24076901376247,0.00025746846222318,-0.15764409303665],"type":"VEC3"},{"bufferView":15,"byteOffset":0,"componentType":5126,"count":19,"type":"VEC3"},{"bufferView":16,"byteOffset":0,"componentType":5126,"count":19,"type":"VEC4"},{"bufferView":17,"byteOffset":0,"componentType":5126,"count":19,"type":"VEC2"},{"bufferView":18,"byteOffset":0,"componentType":5126,"count":19,"type":"VEC2"},{"bufferView":19,"byteOffset":0,"componentType":5123,"count":36,"type":"SCALAR"},{"bufferView":20,"byteOffset":0,"componentType":5126,"count":12,"max":[0.245176687836647,0.015265941619873,0.157710313796997],"min":[-0.24076901376247,0.00113981973845512,-0.15764409303665],"type":"VEC3"},{"bufferView":21,"byteOffset":0,"componentType":5126,"count":12,"type":"VEC3"},{"bufferView":22,"byteOffset":0,"componentType":5126,"count":12,"type":"VEC4"},{"bufferView":23,"byteOffset":0,"componentType":5126,"count":12,"type":"VEC2"},{"bufferView":24,"byteOffset":0,"componentType":5126,"count":12,"type":"VEC2"},{"bufferView":25,"byteOffset":0,"componentType":5123,"count":336,"type":"SCALAR"},{"bufferView":26,"byteOffset":0,"componentType":5126,"count":298,"max":[0.246288746595383,0.0179003048688173,0.15997725725174],"min":[-0.2430859953165,-0.00153555150609,-0.15916384756565],"type":"VEC3"},{"bufferView":27,"byteOffset":0,"componentType":5126,"count":298,"type":"VEC3"},{"bufferView":28,"byteOffset":0,"componentType":5126,"count":298,"type":"VEC2"},{"bufferView":29,"byteOffset":0,"componentType":5126,"count":298,"type":"VEC2"}],"animations":[{"channels":[],"name":"Unreal Take","samplers":[]}],"asset":{"generator":"FBX2glTF v0.13.0","version":"2.0"},"bufferViews":[{"buffer":0,"byteLength":4,"byteOffset":0},{"buffer":0,"byteLength":288,"byteOffset":4,"target":34963},{"buffer":0,"byteLength":420,"byteOffset":292,"target":34962},{"buffer":0,"byteLength":420,"byteOffset":712,"target":34962},{"buffer":0,"byteLength":560,"byteOffset":1132,"target":34962},{"buffer":0,"byteLength":280,"byteOffset":1692,"target":34962},{"buffer":0,"byteLength":280,"byteOffset":1972,"target":34962},{"buffer":0,"byteLength":216,"byteOffset":2252,"target":34963},{"buffer":0,"byteLength":324,"byteOffset":2468,"target":34962},{"buffer":0,"byteLength":324,"byteOffset":2792,"target":34962},{"buffer":0,"byteLength":432,"byteOffset":3116,"target":34962},{"buffer":0,"byteLength":216,"byteOffset":3548,"target":34962},{"buffer":0,"byteLength":216,"byteOffset":3764,"target":34962},{"buffer":0,"byteLength":138,"byteOffset":3980,"target":34963},{"buffer":0,"byteLength":228,"byteOffset":4120,"target":34962},{"buffer":0,"byteLength":228,"byteOffset":4348,"target":34962},{"buffer":0,"byteLength":304,"byteOffset":4576,"target":34962},{"buffer":0,"byteLength":152,"byteOffset":4880,"target":34962},{"buffer":0,"byteLength":152,"byteOffset":5032,"target":34962},{"buffer":0,"byteLength":72,"byteOffset":5184,"target":34963},{"buffer":0,"byteLength":144,"byteOffset":5256,"target":34962},{"buffer":0,"byteLength":144,"byteOffset":5400,"target":34962},{"buffer":0,"byteLength":192,"byteOffset":5544,"target":34962},{"buffer":0,"byteLength":96,"byteOffset":5736,"target":34962},{"buffer":0,"byteLength":96,"byteOffset":5832,"target":34962},{"buffer":0,"byteLength":672,"byteOffset":5928,"target":34963},{"buffer":0,"byteLength":3576,"byteOffset":6600,"target":34962},{"buffer":0,"byteLength":3576,"byteOffset":10176,"target":34962},{"buffer":0,"byteLength":2384,"byteOffset":13752,"target":34962},{"buffer":0,"byteLength":2384,"byteOffset":16136,"target":34962}],"buffers":[{"byteLength":18520,"uri":"SM_Letter_03.bin"}],"images":[{"name":"T_Letters_01_N","uri":"../Textures/T_Letters_01_N.tga"},{"name":"T_Letters_01_A","uri":"../Textures/T_Letters_01_A.tga"}],"materials":[{"alphaMode":"OPAQUE","doubleSided":false,"extras":{"fromFBX":{"isTruePBR":false,"shadingModel":"Phong"}},"name":"MI_Letters_01","normalTexture":{"index":0,"texCoord":0},"pbrMetallicRoughness":{"baseColorFactor":[1,1,1,1],"baseColorTexture":{"index":1,"texCoord":0},"metallicFactor":0.400000005960464,"roughnessFactor":0.301511347293854}},{"alphaMode":"OPAQUE","doubleSided":false,"extras":{"fromFBX":{"isTruePBR":false,"shadingModel":"Lambert"}},"name":"DefaultMaterial","pbrMetallicRoughness":{"baseColorFactor":[0.5,0.5,0.5,1],"metallicFactor":0.200000002980232,"roughnessFactor":0.800000011920929}}],"meshes":[{"name":"SM_Letter_03_LOD0","primitives":[{"attributes":{"NORMAL":3,"POSITION":2,"TANGENT":4,"TEXCOORD_0":5,"TEXCOORD_1":6},"indices":1,"material":0,"mode":4}]},{"name":"SM_Letter_03_LOD1","primitives":[{"attributes":{"NORMAL":9,"POSITION":8,"TANGENT":10,"TEXCOORD_0":11,"TEXCOORD_1":12},"indices":7,"material":0,"mode":4}]},{"name":"SM_Letter_03_LOD2","primitives":[{"attributes":{"NORMAL":15,"POSITION":14,"TANGENT":16,"TEXCOORD_0":17,"TEXCOORD_1":18},"indices":13,"material":0,"mode":4}]},{"name":"SM_Letter_03_LOD3","primitives":[{"attributes":{"NORMAL":21,"POSITION":20,"TANGENT":22,"TEXCOORD_0":23,"TEXCOORD_1":24},"indices":19,"material":0,"mode":4}]},{"name":"SM_Letter_03_ConvexHulls","primitives":[{"attributes":{"NORMAL":27,"POSITION":26,"TEXCOORD_0":28,"TEXCOORD_1":29},"indices":25,"material":1,"mode":4}]}],"nodes":[{"children":[1,2,3,4,5],"name":"SM_Letter_6","originalUnits":0.00999999977648258,"pivot":[0,0,0],"rotation":[0,0,0,1],"scale":[1,1,1],"translation":[0,0,0]},{"mesh":0,"name":"SM_Letter_03_LOD0","originalUnits":0.00999999977648258,"pivot":[0,0,0],"rotation":[0,0,0,1],"scale":[1,1,1],"translation":[0,0,0]},{"mesh":4,"name":"SM_Letter_03_ConvexHulls","originalUnits":0.00999999977648258,"pivot":[0,0,0],"rotation":[0,0,0,1],"scale":[1,1,1],"translation":[0,0,0]},{"mesh":1,"name":"SM_Letter_03_LOD1","originalUnits":0.00999999977648258,"pivot":[0,0,0],"rotation":[0,0,0,1],"scale":[1,1,1],"translation":[0,0,0]},{"mesh":2,"name":"SM_Letter_03_LOD2","originalUnits":0.00999999977648258,"pivot":[0,0,0],"rotation":[0,0,0,1],"scale":[1,1,1],"translation":[0,0,0]},{"mesh":3,"name":"SM_Letter_03_LOD3","originalUnits":0.00999999977648258,"pivot":[0,0,0],"rotation":[0,0,0,1],"scale":[1,1,1],"translation":[0,0,0]}],"samplers":[{}],"scene":0,"scenes":[{"name":"Root Scene","nodes":[0]}],"textures":[{"name":"T_Letters_01_N","sampler":0,"source":0},{"name":"T_Letters_01_A","sampler":0,"source":1}]}