{"accessors":[{"bufferView":0,"byteOffset":0,"componentType":5126,"count":1,"max":[0],"min":[0],"type":"SCALAR"},{"bufferView":1,"byteOffset":0,"componentType":5123,"count":30,"type":"SCALAR"},{"bufferView":2,"byteOffset":0,"componentType":5126,"count":20,"max":[0.772369086742401,2.45237874984741,-0.04208375886083],"min":[0.106495626270771,0.122999951243401,-0.06089856848121],"type":"VEC3"},{"bufferView":3,"byteOffset":0,"componentType":5126,"count":20,"type":"VEC3"},{"bufferView":4,"byteOffset":0,"componentType":5126,"count":20,"type":"VEC4"},{"bufferView":5,"byteOffset":0,"componentType":5126,"count":20,"type":"VEC2"},{"bufferView":6,"byteOffset":0,"componentType":5126,"count":20,"type":"VEC2"},{"bufferView":7,"byteOffset":0,"componentType":5123,"count":6,"type":"SCALAR"},{"bufferView":8,"byteOffset":0,"componentType":5126,"count":4,"max":[0.772554993629456,2.45283222198486,-0.05414243414998],"min":[0.106276646256447,0.122797317802906,-0.05863359943032],"type":"VEC3"},{"bufferView":9,"byteOffset":0,"componentType":5126,"count":4,"type":"VEC3"},{"bufferView":10,"byteOffset":0,"componentType":5126,"count":4,"type":"VEC4"},{"bufferView":11,"byteOffset":0,"componentType":5126,"count":4,"type":"VEC2"},{"bufferView":12,"byteOffset":0,"componentType":5126,"count":4,"type":"VEC2"},{"bufferView":13,"byteOffset":0,"componentType":5123,"count":6,"type":"SCALAR"},{"bufferView":14,"byteOffset":0,"componentType":5126,"count":4,"max":[0.772554993629456,2.45283222198486,-0.05414243414998],"min":[0.106276646256447,0.122797317802906,-0.05863359943032],"type":"VEC3"},{"bufferView":15,"byteOffset":0,"componentType":5126,"count":4,"type":"VEC3"},{"bufferView":16,"byteOffset":0,"componentType":5126,"count":4,"type":"VEC4"},{"bufferView":17,"byteOffset":0,"componentType":5126,"count":4,"type":"VEC2"},{"bufferView":18,"byteOffset":0,"componentType":5126,"count":4,"type":"VEC2"},{"bufferView":19,"byteOffset":0,"componentType":5123,"count":6,"type":"SCALAR"},{"bufferView":20,"byteOffset":0,"componentType":5126,"count":4,"max":[0.951664388179779,2.57358908653259,-0.05633080750704],"min":[-0.00909125711769,-0.09073956310749,-0.30956116318703],"type":"VEC3"},{"bufferView":21,"byteOffset":0,"componentType":5126,"count":4,"type":"VEC3"},{"bufferView":22,"byteOffset":0,"componentType":5126,"count":4,"type":"VEC4"},{"bufferView":23,"byteOffset":0,"componentType":5126,"count":4,"type":"VEC2"},{"bufferView":24,"byteOffset":0,"componentType":5126,"count":4,"type":"VEC2"},{"bufferView":25,"byteOffset":0,"componentType":5123,"count":54,"type":"SCALAR"},{"bufferView":26,"byteOffset":0,"componentType":5126,"count":28,"max":[0.899142503738403,2.67541837692261,0.00000000238422348530776],"min":[-0.00000032712873,-0,-0.04208390787244],"type":"VEC3"},{"bufferView":27,"byteOffset":0,"componentType":5126,"count":28,"type":"VEC3"},{"bufferView":28,"byteOffset":0,"componentType":5126,"count":28,"type":"VEC4"},{"bufferView":29,"byteOffset":0,"componentType":5126,"count":28,"type":"VEC2"},{"bufferView":30,"byteOffset":0,"componentType":5126,"count":28,"type":"VEC2"},{"bufferView":31,"byteOffset":0,"componentType":5123,"count":54,"type":"SCALAR"},{"bufferView":32,"byteOffset":0,"componentType":5126,"count":28,"max":[0.899142503738403,2.67541837692261,0.00000000238422348530776],"min":[-0.00000032712873,-0,-0.05863359943032],"type":"VEC3"},{"bufferView":33,"byteOffset":0,"componentType":5126,"count":28,"type":"VEC3"},{"bufferView":34,"byteOffset":0,"componentType":5126,"count":28,"type":"VEC4"},{"bufferView":35,"byteOffset":0,"componentType":5126,"count":28,"type":"VEC2"},{"bufferView":36,"byteOffset":0,"componentType":5126,"count":28,"type":"VEC2"},{"bufferView":37,"byteOffset":0,"componentType":5123,"count":36,"type":"SCALAR"},{"bufferView":38,"byteOffset":0,"componentType":5126,"count":18,"max":[0.90924209356308,2.67541837692261,0.0088856527581811],"min":[-0.00140316656325,-0.00520895095542,-0.05863359943032],"type":"VEC3"},{"bufferView":39,"byteOffset":0,"componentType":5126,"count":18,"type":"VEC3"},{"bufferView":40,"byteOffset":0,"componentType":5126,"count":18,"type":"VEC4"},{"bufferView":41,"byteOffset":0,"componentType":5126,"count":18,"type":"VEC2"},{"bufferView":42,"byteOffset":0,"componentType":5126,"count":18,"type":"VEC2"},{"bufferView":43,"byteOffset":0,"componentType":5123,"count":12,"type":"SCALAR"},{"bufferView":44,"byteOffset":0,"componentType":5126,"count":8,"max":[0.951664388179779,2.57358908653259,0.00869791209697723],"min":[-0.00909125711769,-0.09073956310749,-0.30956116318703],"type":"VEC3"},{"bufferView":45,"byteOffset":0,"componentType":5126,"count":8,"type":"VEC3"},{"bufferView":46,"byteOffset":0,"componentType":5126,"count":8,"type":"VEC4"},{"bufferView":47,"byteOffset":0,"componentType":5126,"count":8,"type":"VEC2"},{"bufferView":48,"byteOffset":0,"componentType":5126,"count":8,"type":"VEC2"},{"bufferView":49,"byteOffset":0,"componentType":5123,"count":90,"type":"SCALAR"},{"bufferView":50,"byteOffset":0,"componentType":5126,"count":56,"max":[0.900142669677734,2.67641830444336,0.00099999899975955],"min":[-0.0012503186008,-0.00124851986766,-0.06189858168364],"type":"VEC3"},{"bufferView":51,"byteOffset":0,"componentType":5126,"count":56,"type":"VEC3"},{"bufferView":52,"byteOffset":0,"componentType":5126,"count":56,"type":"VEC2"},{"bufferView":53,"byteOffset":0,"componentType":5126,"count":56,"type":"VEC2"}],"animations":[{"channels":[],"name":"Unreal Take","samplers":[]}],"asset":{"generator":"FBX2glTF v0.13.0","version":"2.0"},"bufferViews":[{"buffer":0,"byteLength":4,"byteOffset":0},{"buffer":0,"byteLength":60,"byteOffset":4,"target":34963},{"buffer":0,"byteLength":240,"byteOffset":64,"target":34962},{"buffer":0,"byteLength":240,"byteOffset":304,"target":34962},{"buffer":0,"byteLength":320,"byteOffset":544,"target":34962},{"buffer":0,"byteLength":160,"byteOffset":864,"target":34962},{"buffer":0,"byteLength":160,"byteOffset":1024,"target":34962},{"buffer":0,"byteLength":12,"byteOffset":1184,"target":34963},{"buffer":0,"byteLength":48,"byteOffset":1196,"target":34962},{"buffer":0,"byteLength":48,"byteOffset":1244,"target":34962},{"buffer":0,"byteLength":64,"byteOffset":1292,"target":34962},{"buffer":0,"byteLength":32,"byteOffset":1356,"target":34962},{"buffer":0,"byteLength":32,"byteOffset":1388,"target":34962},{"buffer":0,"byteLength":12,"byteOffset":1420,"target":34963},{"buffer":0,"byteLength":48,"byteOffset":1432,"target":34962},{"buffer":0,"byteLength":48,"byteOffset":1480,"target":34962},{"buffer":0,"byteLength":64,"byteOffset":1528,"target":34962},{"buffer":0,"byteLength":32,"byteOffset":1592,"target":34962},{"buffer":0,"byteLength":32,"byteOffset":1624,"target":34962},{"buffer":0,"byteLength":12,"byteOffset":1656,"target":34963},{"buffer":0,"byteLength":48,"byteOffset":1668,"target":34962},{"buffer":0,"byteLength":48,"byteOffset":1716,"target":34962},{"buffer":0,"byteLength":64,"byteOffset":1764,"target":34962},{"buffer":0,"byteLength":32,"byteOffset":1828,"target":34962},{"buffer":0,"byteLength":32,"byteOffset":1860,"target":34962},{"buffer":0,"byteLength":108,"byteOffset":1892,"target":34963},{"buffer":0,"byteLength":336,"byteOffset":2000,"target":34962},{"buffer":0,"byteLength":336,"byteOffset":2336,"target":34962},{"buffer":0,"byteLength":448,"byteOffset":2672,"target":34962},{"buffer":0,"byteLength":224,"byteOffset":3120,"target":34962},{"buffer":0,"byteLength":224,"byteOffset":3344,"target":34962},{"buffer":0,"byteLength":108,"byteOffset":3568,"target":34963},{"buffer":0,"byteLength":336,"byteOffset":3676,"target":34962},{"buffer":0,"byteLength":336,"byteOffset":4012,"target":34962},{"buffer":0,"byteLength":448,"byteOffset":4348,"target":34962},{"buffer":0,"byteLength":224,"byteOffset":4796,"target":34962},{"buffer":0,"byteLength":224,"byteOffset":5020,"target":34962},{"buffer":0,"byteLength":72,"byteOffset":5244,"target":34963},{"buffer":0,"byteLength":216,"byteOffset":5316,"target":34962},{"buffer":0,"byteLength":216,"byteOffset":5532,"target":34962},{"buffer":0,"byteLength":288,"byteOffset":5748,"target":34962},{"buffer":0,"byteLength":144,"byteOffset":6036,"target":34962},{"buffer":0,"byteLength":144,"byteOffset":6180,"target":34962},{"buffer":0,"byteLength":24,"byteOffset":6324,"target":34963},{"buffer":0,"byteLength":96,"byteOffset":6348,"target":34962},{"buffer":0,"byteLength":96,"byteOffset":6444,"target":34962},{"buffer":0,"byteLength":128,"byteOffset":6540,"target":34962},{"buffer":0,"byteLength":64,"byteOffset":6668,"target":34962},{"buffer":0,"byteLength":64,"byteOffset":6732,"target":34962},{"buffer":0,"byteLength":180,"byteOffset":6796,"target":34963},{"buffer":0,"byteLength":672,"byteOffset":6976,"target":34962},{"buffer":0,"byteLength":672,"byteOffset":7648,"target":34962},{"buffer":0,"byteLength":448,"byteOffset":8320,"target":34962},{"buffer":0,"byteLength":448,"byteOffset":8768,"target":34962}],"buffers":[{"byteLength":9216,"uri":"SM_Mirror.bin"}],"images":[{"name":"T_Doors_N","uri":"T_Doors_N.png"}],"materials":[{"alphaMode":"OPAQUE","doubleSided":false,"extras":{"fromFBX":{"isTruePBR":false,"shadingModel":"Phong"}},"name":"MM_Mirror_base","pbrMetallicRoughness":{"baseColorFactor":[1,1,1,1],"metallicFactor":0.400000005960464,"roughnessFactor":0.301511347293854}},{"alphaMode":"OPAQUE","doubleSided":false,"extras":{"fromFBX":{"isTruePBR":false,"shadingModel":"Phong"}},"name":"MI_Door","normalTexture":{"index":0,"texCoord":0},"pbrMetallicRoughness":{"baseColorFactor":[0.21586050093174,0.21586050093174,0.21586050093174,1],"metallicFactor":0.400000005960464,"roughnessFactor":0.301511347293854}},{"alphaMode":"OPAQUE","doubleSided":false,"extras":{"fromFBX":{"isTruePBR":false,"shadingModel":"Lambert"}},"name":"DefaultMaterial","pbrMetallicRoughness":{"baseColorFactor":[0.5,0.5,0.5,1],"metallicFactor":0.200000002980232,"roughnessFactor":0.800000011920929}}],"meshes":[{"name":"SM_Mirror_LOD0","primitives":[{"attributes":{"NORMAL":3,"POSITION":2,"TANGENT":4,"TEXCOORD_0":5,"TEXCOORD_1":6},"indices":1,"material":0,"mode":4},{"attributes":{"NORMAL":27,"POSITION":26,"TANGENT":28,"TEXCOORD_0":29,"TEXCOORD_1":30},"indices":25,"material":1,"mode":4}]},{"name":"SM_Mirror_LOD1","primitives":[{"attributes":{"NORMAL":9,"POSITION":8,"TANGENT":10,"TEXCOORD_0":11,"TEXCOORD_1":12},"indices":7,"material":0,"mode":4},{"attributes":{"NORMAL":33,"POSITION":32,"TANGENT":34,"TEXCOORD_0":35,"TEXCOORD_1":36},"indices":31,"material":1,"mode":4}]},{"name":"SM_Mirror_LOD2","primitives":[{"attributes":{"NORMAL":15,"POSITION":14,"TANGENT":16,"TEXCOORD_0":17,"TEXCOORD_1":18},"indices":13,"material":0,"mode":4},{"attributes":{"NORMAL":39,"POSITION":38,"TANGENT":40,"TEXCOORD_0":41,"TEXCOORD_1":42},"indices":37,"material":1,"mode":4}]},{"name":"SM_Mirror_LOD3","primitives":[{"attributes":{"NORMAL":21,"POSITION":20,"TANGENT":22,"TEXCOORD_0":23,"TEXCOORD_1":24},"indices":19,"material":0,"mode":4},{"attributes":{"NORMAL":45,"POSITION":44,"TANGENT":46,"TEXCOORD_0":47,"TEXCOORD_1":48},"indices":43,"material":1,"mode":4}]},{"name":"SM_Mirror_ConvexHulls","primitives":[{"attributes":{"NORMAL":51,"POSITION":50,"TEXCOORD_0":52,"TEXCOORD_1":53},"indices":49,"material":2,"mode":4}]}],"nodes":[{"children":[1,2,3,4,5],"name":"Assets_Proxy_Mirror_Proxy_106","originalUnits":0.00999999977648258,"pivot":[0,0,0],"rotation":[0,0,0,1],"scale":[1,1,1],"translation":[0,0,0]},{"mesh":0,"name":"SM_Mirror_LOD0","originalUnits":0.00999999977648258,"pivot":[0,0,0],"rotation":[0,0,0,1],"scale":[1,1,1],"translation":[0,0,0]},{"mesh":4,"name":"SM_Mirror_ConvexHulls","originalUnits":0.00999999977648258,"pivot":[0,0,0],"rotation":[0,0,0,1],"scale":[1,1,1],"translation":[0,0,0]},{"mesh":1,"name":"SM_Mirror_LOD1","originalUnits":0.00999999977648258,"pivot":[0,0,0],"rotation":[0,0,0,1],"scale":[1,1,1],"translation":[0,0,0]},{"mesh":2,"name":"SM_Mirror_LOD2","originalUnits":0.00999999977648258,"pivot":[0,0,0],"rotation":[0,0,0,1],"scale":[1,1,1],"translation":[0,0,0]},{"mesh":3,"name":"SM_Mirror_LOD3","originalUnits":0.00999999977648258,"pivot":[0,0,0],"rotation":[0,0,0,1],"scale":[1,1,1],"translation":[0,0,0]}],"samplers":[{}],"scene":0,"scenes":[{"name":"Root Scene","nodes":[0]}],"textures":[{"name":"T_Doors_N","sampler":0,"source":0}]}