{"accessors":[{"bufferView":0,"byteOffset":0,"componentType":5126,"count":1,"max":[0],"min":[0],"type":"SCALAR"},{"bufferView":1,"byteOffset":0,"componentType":5123,"count":1362,"type":"SCALAR"},{"bufferView":2,"byteOffset":0,"componentType":5126,"count":440,"max":[0.21273498237133,0.393258899450302,0.410063147544861],"min":[-0.29706028103828,-0.00000001225147,-0.29364490509033],"type":"VEC3"},{"bufferView":3,"byteOffset":0,"componentType":5126,"count":440,"type":"VEC3"},{"bufferView":4,"byteOffset":0,"componentType":5126,"count":440,"type":"VEC4"},{"bufferView":5,"byteOffset":0,"componentType":5126,"count":440,"type":"VEC2"},{"bufferView":6,"byteOffset":0,"componentType":5126,"count":440,"type":"VEC2"},{"bufferView":7,"byteOffset":0,"componentType":5123,"count":1023,"type":"SCALAR"},{"bufferView":8,"byteOffset":0,"componentType":5126,"count":366,"max":[0.21273498237133,0.393259465694427,0.410063147544861],"min":[-0.29706028103828,-0.00000026390282,-0.29364490509033],"type":"VEC3"},{"bufferView":9,"byteOffset":0,"componentType":5126,"count":366,"type":"VEC3"},{"bufferView":10,"byteOffset":0,"componentType":5126,"count":366,"type":"VEC4"},{"bufferView":11,"byteOffset":0,"componentType":5126,"count":366,"type":"VEC2"},{"bufferView":12,"byteOffset":0,"componentType":5126,"count":366,"type":"VEC2"},{"bufferView":13,"byteOffset":0,"componentType":5123,"count":681,"type":"SCALAR"},{"bufferView":14,"byteOffset":0,"componentType":5126,"count":287,"max":[0.21273498237133,0.393259465694427,0.410063147544861],"min":[-0.29706028103828,-0.00000026390282,-0.29364490509033],"type":"VEC3"},{"bufferView":15,"byteOffset":0,"componentType":5126,"count":287,"type":"VEC3"},{"bufferView":16,"byteOffset":0,"componentType":5126,"count":287,"type":"VEC4"},{"bufferView":17,"byteOffset":0,"componentType":5126,"count":287,"type":"VEC2"},{"bufferView":18,"byteOffset":0,"componentType":5126,"count":287,"type":"VEC2"},{"bufferView":19,"byteOffset":0,"componentType":5123,"count":342,"type":"SCALAR"},{"bufferView":20,"byteOffset":0,"componentType":5126,"count":146,"max":[0.212770417332649,0.394022554159164,0.410121947526932],"min":[-0.29706028103828,-0.00003023144927,-0.29364490509033],"type":"VEC3"},{"bufferView":21,"byteOffset":0,"componentType":5126,"count":146,"type":"VEC3"},{"bufferView":22,"byteOffset":0,"componentType":5126,"count":146,"type":"VEC4"},{"bufferView":23,"byteOffset":0,"componentType":5126,"count":146,"type":"VEC2"},{"bufferView":24,"byteOffset":0,"componentType":5126,"count":146,"type":"VEC2"},{"bufferView":25,"byteOffset":0,"componentType":5123,"count":306,"type":"SCALAR"},{"bufferView":26,"byteOffset":0,"componentType":5126,"count":286,"max":[0.218737065792084,0.399537950754166,0.406887888908386],"min":[-0.30164375901222,-0.00633149594069,-0.28922528028488],"type":"VEC3"},{"bufferView":27,"byteOffset":0,"componentType":5126,"count":286,"type":"VEC3"},{"bufferView":28,"byteOffset":0,"componentType":5126,"count":286,"type":"VEC2"},{"bufferView":29,"byteOffset":0,"componentType":5126,"count":286,"type":"VEC2"}],"animations":[{"channels":[],"name":"Unreal Take","samplers":[]}],"asset":{"generator":"FBX2glTF v0.13.0","version":"2.0"},"bufferViews":[{"buffer":0,"byteLength":4,"byteOffset":0},{"buffer":0,"byteLength":2724,"byteOffset":4,"target":34963},{"buffer":0,"byteLength":5280,"byteOffset":2728,"target":34962},{"buffer":0,"byteLength":5280,"byteOffset":8008,"target":34962},{"buffer":0,"byteLength":7040,"byteOffset":13288,"target":34962},{"buffer":0,"byteLength":3520,"byteOffset":20328,"target":34962},{"buffer":0,"byteLength":3520,"byteOffset":23848,"target":34962},{"buffer":0,"byteLength":2046,"byteOffset":27368,"target":34963},{"buffer":0,"byteLength":4392,"byteOffset":29416,"target":34962},{"buffer":0,"byteLength":4392,"byteOffset":33808,"target":34962},{"buffer":0,"byteLength":5856,"byteOffset":38200,"target":34962},{"buffer":0,"byteLength":2928,"byteOffset":44056,"target":34962},{"buffer":0,"byteLength":2928,"byteOffset":46984,"target":34962},{"buffer":0,"byteLength":1362,"byteOffset":49912,"target":34963},{"buffer":0,"byteLength":3444,"byteOffset":51276,"target":34962},{"buffer":0,"byteLength":3444,"byteOffset":54720,"target":34962},{"buffer":0,"byteLength":4592,"byteOffset":58164,"target":34962},{"buffer":0,"byteLength":2296,"byteOffset":62756,"target":34962},{"buffer":0,"byteLength":2296,"byteOffset":65052,"target":34962},{"buffer":0,"byteLength":684,"byteOffset":67348,"target":34963},{"buffer":0,"byteLength":1752,"byteOffset":68032,"target":34962},{"buffer":0,"byteLength":1752,"byteOffset":69784,"target":34962},{"buffer":0,"byteLength":2336,"byteOffset":71536,"target":34962},{"buffer":0,"byteLength":1168,"byteOffset":73872,"target":34962},{"buffer":0,"byteLength":1168,"byteOffset":75040,"target":34962},{"buffer":0,"byteLength":612,"byteOffset":76208,"target":34963},{"buffer":0,"byteLength":3432,"byteOffset":76820,"target":34962},{"buffer":0,"byteLength":3432,"byteOffset":80252,"target":34962},{"buffer":0,"byteLength":2288,"byteOffset":83684,"target":34962},{"buffer":0,"byteLength":2288,"byteOffset":85972,"target":34962}],"buffers":[{"byteLength":88260,"uri":"SM_Microwave.bin"}],"images":[{"name":"T_Microwave_N","uri":"T_Microwave_N.tga"}],"materials":[{"alphaMode":"OPAQUE","doubleSided":false,"extras":{"fromFBX":{"isTruePBR":false,"shadingModel":"Phong"}},"name":"MI_Microwave","normalTexture":{"index":0,"texCoord":0},"pbrMetallicRoughness":{"baseColorFactor":[0.21586050093174,0.21586050093174,0.21586050093174,1],"metallicFactor":0.400000005960464,"roughnessFactor":0.301511347293854}},{"alphaMode":"OPAQUE","doubleSided":false,"extras":{"fromFBX":{"isTruePBR":false,"shadingModel":"Lambert"}},"name":"DefaultMaterial","pbrMetallicRoughness":{"baseColorFactor":[0.5,0.5,0.5,1],"metallicFactor":0.200000002980232,"roughnessFactor":0.800000011920929}}],"meshes":[{"name":"SM_Microwave_LOD0","primitives":[{"attributes":{"NORMAL":3,"POSITION":2,"TANGENT":4,"TEXCOORD_0":5,"TEXCOORD_1":6},"indices":1,"material":0,"mode":4}]},{"name":"SM_Microwave_LOD1","primitives":[{"attributes":{"NORMAL":9,"POSITION":8,"TANGENT":10,"TEXCOORD_0":11,"TEXCOORD_1":12},"indices":7,"material":0,"mode":4}]},{"name":"SM_Microwave_LOD2","primitives":[{"attributes":{"NORMAL":15,"POSITION":14,"TANGENT":16,"TEXCOORD_0":17,"TEXCOORD_1":18},"indices":13,"material":0,"mode":4}]},{"name":"SM_Microwave_LOD3","primitives":[{"attributes":{"NORMAL":21,"POSITION":20,"TANGENT":22,"TEXCOORD_0":23,"TEXCOORD_1":24},"indices":19,"material":0,"mode":4}]},{"name":"SM_Microwave_ConvexHulls","primitives":[{"attributes":{"NORMAL":27,"POSITION":26,"TEXCOORD_0":28,"TEXCOORD_1":29},"indices":25,"material":1,"mode":4}]}],"nodes":[{"children":[1,2,3,4,5],"name":"SM_Microwave_104","originalUnits":0.00999999977648258,"pivot":[0,0,0],"rotation":[0,0,0,1],"scale":[1,1,1],"translation":[0,0,0]},{"mesh":0,"name":"SM_Microwave_LOD0","originalUnits":0.00999999977648258,"pivot":[0,0,0],"rotation":[0,0,0,1],"scale":[1,1,1],"translation":[0,0,0]},{"mesh":4,"name":"SM_Microwave_ConvexHulls","originalUnits":0.00999999977648258,"pivot":[0,0,0],"rotation":[0,0,0,1],"scale":[1,1,1],"translation":[0,0,0]},{"mesh":1,"name":"SM_Microwave_LOD1","originalUnits":0.00999999977648258,"pivot":[0,0,0],"rotation":[0,0,0,1],"scale":[1,1,1],"translation":[0,0,0]},{"mesh":2,"name":"SM_Microwave_LOD2","originalUnits":0.00999999977648258,"pivot":[0,0,0],"rotation":[0,0,0,1],"scale":[1,1,1],"translation":[0,0,0]},{"mesh":3,"name":"SM_Microwave_LOD3","originalUnits":0.00999999977648258,"pivot":[0,0,0],"rotation":[0,0,0,1],"scale":[1,1,1],"translation":[0,0,0]}],"samplers":[{}],"scene":0,"scenes":[{"name":"Root Scene","nodes":[0]}],"textures":[{"name":"T_Microwave_N","sampler":0,"source":0}]}