{"accessors":[{"bufferView":0,"byteOffset":0,"componentType":5126,"count":1,"max":[0],"min":[0],"type":"SCALAR"},{"bufferView":1,"byteOffset":0,"componentType":5123,"count":39120,"type":"SCALAR"},{"bufferView":2,"byteOffset":0,"componentType":5126,"count":7036,"max":[0.0573012344539165,0.127986043691635,0.100689440965652],"min":[-0.05499991774559,-0.00000000345097,-0.05615067854524],"type":"VEC3"},{"bufferView":3,"byteOffset":0,"componentType":5126,"count":7036,"type":"VEC3"},{"bufferView":4,"byteOffset":0,"componentType":5126,"count":7036,"type":"VEC4"},{"bufferView":5,"byteOffset":0,"componentType":5126,"count":7036,"type":"VEC2"},{"bufferView":6,"byteOffset":0,"componentType":5126,"count":7036,"type":"VEC2"},{"bufferView":7,"byteOffset":0,"componentType":5123,"count":29340,"type":"SCALAR"},{"bufferView":8,"byteOffset":0,"componentType":5126,"count":5414,"max":[0.0573012344539165,0.127986043691635,0.100689440965652],"min":[-0.05499991774559,-0.00000000719389,-0.05615067854524],"type":"VEC3"},{"bufferView":9,"byteOffset":0,"componentType":5126,"count":5414,"type":"VEC3"},{"bufferView":10,"byteOffset":0,"componentType":5126,"count":5414,"type":"VEC4"},{"bufferView":11,"byteOffset":0,"componentType":5126,"count":5414,"type":"VEC2"},{"bufferView":12,"byteOffset":0,"componentType":5126,"count":5414,"type":"VEC2"},{"bufferView":13,"byteOffset":0,"componentType":5123,"count":19560,"type":"SCALAR"},{"bufferView":14,"byteOffset":0,"componentType":5126,"count":3728,"max":[0.0573236308991909,0.127986147999763,0.100689440965652],"min":[-0.05499991774559,-0.00000003155008,-0.05615067854524],"type":"VEC3"},{"bufferView":15,"byteOffset":0,"componentType":5126,"count":3728,"type":"VEC3"},{"bufferView":16,"byteOffset":0,"componentType":5126,"count":3728,"type":"VEC4"},{"bufferView":17,"byteOffset":0,"componentType":5126,"count":3728,"type":"VEC2"},{"bufferView":18,"byteOffset":0,"componentType":5126,"count":3728,"type":"VEC2"},{"bufferView":19,"byteOffset":0,"componentType":5123,"count":9780,"type":"SCALAR"},{"bufferView":20,"byteOffset":0,"componentType":5126,"count":2001,"max":[0.0572447627782822,0.12798798084259,0.101062372326851],"min":[-0.05518629401922,-0.0000007152301,-0.05611839517951],"type":"VEC3"},{"bufferView":21,"byteOffset":0,"componentType":5126,"count":2001,"type":"VEC3"},{"bufferView":22,"byteOffset":0,"componentType":5126,"count":2001,"type":"VEC4"},{"bufferView":23,"byteOffset":0,"componentType":5126,"count":2001,"type":"VEC2"},{"bufferView":24,"byteOffset":0,"componentType":5126,"count":2001,"type":"VEC2"},{"bufferView":25,"byteOffset":0,"componentType":5123,"count":204,"type":"SCALAR"},{"bufferView":26,"byteOffset":0,"componentType":5126,"count":200,"max":[0.0563186816871166,0.126856371760368,0.101956963539124],"min":[-0.05065390840173,0.00067759893136099,-0.05330769345164],"type":"VEC3"},{"bufferView":27,"byteOffset":0,"componentType":5126,"count":200,"type":"VEC3"},{"bufferView":28,"byteOffset":0,"componentType":5126,"count":200,"type":"VEC2"},{"bufferView":29,"byteOffset":0,"componentType":5126,"count":200,"type":"VEC2"}],"animations":[{"channels":[],"name":"Unreal Take","samplers":[]}],"asset":{"generator":"FBX2glTF v0.13.0","version":"2.0"},"bufferViews":[{"buffer":0,"byteLength":4,"byteOffset":0},{"buffer":0,"byteLength":78240,"byteOffset":4,"target":34963},{"buffer":0,"byteLength":84432,"byteOffset":78244,"target":34962},{"buffer":0,"byteLength":84432,"byteOffset":162676,"target":34962},{"buffer":0,"byteLength":112576,"byteOffset":247108,"target":34962},{"buffer":0,"byteLength":56288,"byteOffset":359684,"target":34962},{"buffer":0,"byteLength":56288,"byteOffset":415972,"target":34962},{"buffer":0,"byteLength":58680,"byteOffset":472260,"target":34963},{"buffer":0,"byteLength":64968,"byteOffset":530940,"target":34962},{"buffer":0,"byteLength":64968,"byteOffset":595908,"target":34962},{"buffer":0,"byteLength":86624,"byteOffset":660876,"target":34962},{"buffer":0,"byteLength":43312,"byteOffset":747500,"target":34962},{"buffer":0,"byteLength":43312,"byteOffset":790812,"target":34962},{"buffer":0,"byteLength":39120,"byteOffset":834124,"target":34963},{"buffer":0,"byteLength":44736,"byteOffset":873244,"target":34962},{"buffer":0,"byteLength":44736,"byteOffset":917980,"target":34962},{"buffer":0,"byteLength":59648,"byteOffset":962716,"target":34962},{"buffer":0,"byteLength":29824,"byteOffset":1022364,"target":34962},{"buffer":0,"byteLength":29824,"byteOffset":1052188,"target":34962},{"buffer":0,"byteLength":19560,"byteOffset":1082012,"target":34963},{"buffer":0,"byteLength":24012,"byteOffset":1101572,"target":34962},{"buffer":0,"byteLength":24012,"byteOffset":1125584,"target":34962},{"buffer":0,"byteLength":32016,"byteOffset":1149596,"target":34962},{"buffer":0,"byteLength":16008,"byteOffset":1181612,"target":34962},{"buffer":0,"byteLength":16008,"byteOffset":1197620,"target":34962},{"buffer":0,"byteLength":408,"byteOffset":1213628,"target":34963},{"buffer":0,"byteLength":2400,"byteOffset":1214036,"target":34962},{"buffer":0,"byteLength":2400,"byteOffset":1216436,"target":34962},{"buffer":0,"byteLength":1600,"byteOffset":1218836,"target":34962},{"buffer":0,"byteLength":1600,"byteOffset":1220436,"target":34962}],"buffers":[{"byteLength":1222036,"uri":"SM_Mug_A.bin"}],"images":[{"name":"FlatNormal","uri":"FlatNormal.tga"}],"materials":[{"alphaMode":"OPAQUE","doubleSided":false,"extras":{"fromFBX":{"isTruePBR":false,"shadingModel":"Phong"}},"name":"MI_Plateware","normalTexture":{"index":0,"texCoord":0},"pbrMetallicRoughness":{"baseColorFactor":[0.21586050093174,0.21586050093174,0.21586050093174,1],"metallicFactor":0.400000005960464,"roughnessFactor":0.301511347293854}},{"alphaMode":"OPAQUE","doubleSided":false,"extras":{"fromFBX":{"isTruePBR":false,"shadingModel":"Lambert"}},"name":"DefaultMaterial","pbrMetallicRoughness":{"baseColorFactor":[0.5,0.5,0.5,1],"metallicFactor":0.200000002980232,"roughnessFactor":0.800000011920929}}],"meshes":[{"name":"SM_Mug_A_LOD0","primitives":[{"attributes":{"NORMAL":3,"POSITION":2,"TANGENT":4,"TEXCOORD_0":5,"TEXCOORD_1":6},"indices":1,"material":0,"mode":4}]},{"name":"SM_Mug_A_LOD1","primitives":[{"attributes":{"NORMAL":9,"POSITION":8,"TANGENT":10,"TEXCOORD_0":11,"TEXCOORD_1":12},"indices":7,"material":0,"mode":4}]},{"name":"SM_Mug_A_LOD2","primitives":[{"attributes":{"NORMAL":15,"POSITION":14,"TANGENT":16,"TEXCOORD_0":17,"TEXCOORD_1":18},"indices":13,"material":0,"mode":4}]},{"name":"SM_Mug_A_LOD3","primitives":[{"attributes":{"NORMAL":21,"POSITION":20,"TANGENT":22,"TEXCOORD_0":23,"TEXCOORD_1":24},"indices":19,"material":0,"mode":4}]},{"name":"SM_Mug_A_ConvexHulls","primitives":[{"attributes":{"NORMAL":27,"POSITION":26,"TEXCOORD_0":28,"TEXCOORD_1":29},"indices":25,"material":1,"mode":4}]}],"nodes":[{"children":[1,2,3,4,5],"name":"SM_Mug_A2","originalUnits":0.00999999977648258,"pivot":[0,0,0],"rotation":[0,0,0,1],"scale":[1,1,1],"translation":[0,0,0]},{"mesh":0,"name":"SM_Mug_A_LOD0","originalUnits":0.00999999977648258,"pivot":[0,0,0],"rotation":[0,0,0,1],"scale":[1,1,1],"translation":[0,0,0]},{"mesh":4,"name":"SM_Mug_A_ConvexHulls","originalUnits":0.00999999977648258,"pivot":[0,0,0],"rotation":[0,0,0,1],"scale":[1,1,1],"translation":[0,0,0]},{"mesh":1,"name":"SM_Mug_A_LOD1","originalUnits":0.00999999977648258,"pivot":[0,0,0],"rotation":[0,0,0,1],"scale":[1,1,1],"translation":[0,0,0]},{"mesh":2,"name":"SM_Mug_A_LOD2","originalUnits":0.00999999977648258,"pivot":[0,0,0],"rotation":[0,0,0,1],"scale":[1,1,1],"translation":[0,0,0]},{"mesh":3,"name":"SM_Mug_A_LOD3","originalUnits":0.00999999977648258,"pivot":[0,0,0],"rotation":[0,0,0,1],"scale":[1,1,1],"translation":[0,0,0]}],"samplers":[{}],"scene":0,"scenes":[{"name":"Root Scene","nodes":[0]}],"textures":[{"name":"T_Default_N","sampler":0,"source":0}]}