{"accessors":[{"bufferView":0,"byteOffset":0,"componentType":5126,"count":1,"max":[0],"min":[0],"type":"SCALAR"},{"bufferView":1,"byteOffset":0,"componentType":5123,"count":2004,"type":"SCALAR"},{"bufferView":2,"byteOffset":0,"componentType":5126,"count":654,"max":[7.97346305847168,-0.0208687260747,9.11136245727539],"min":[-6.75822973251343,-0.15736389160156,-10.522029876709],"type":"VEC3"},{"bufferView":3,"byteOffset":0,"componentType":5126,"count":654,"type":"VEC3"},{"bufferView":4,"byteOffset":0,"componentType":5126,"count":654,"type":"VEC4"},{"bufferView":5,"byteOffset":0,"componentType":5126,"count":654,"type":"VEC2"},{"bufferView":6,"byteOffset":0,"componentType":5126,"count":654,"type":"VEC2"},{"bufferView":7,"byteOffset":0,"componentType":5123,"count":1500,"type":"SCALAR"},{"bufferView":8,"byteOffset":0,"componentType":5126,"count":533,"max":[7.97346305847168,-0.02078178338706,9.11136245727539],"min":[-6.75822973251343,-0.15736389160156,-10.5221319198608],"type":"VEC3"},{"bufferView":9,"byteOffset":0,"componentType":5126,"count":533,"type":"VEC3"},{"bufferView":10,"byteOffset":0,"componentType":5126,"count":533,"type":"VEC4"},{"bufferView":11,"byteOffset":0,"componentType":5126,"count":533,"type":"VEC2"},{"bufferView":12,"byteOffset":0,"componentType":5126,"count":533,"type":"VEC2"},{"bufferView":13,"byteOffset":0,"componentType":5123,"count":1002,"type":"SCALAR"},{"bufferView":14,"byteOffset":0,"componentType":5126,"count":397,"max":[7.97346305847168,-0.02077576890588,9.11153507232666],"min":[-6.75822973251343,-0.15736389160156,-10.521954536438],"type":"VEC3"},{"bufferView":15,"byteOffset":0,"componentType":5126,"count":397,"type":"VEC3"},{"bufferView":16,"byteOffset":0,"componentType":5126,"count":397,"type":"VEC4"},{"bufferView":17,"byteOffset":0,"componentType":5126,"count":397,"type":"VEC2"},{"bufferView":18,"byteOffset":0,"componentType":5126,"count":397,"type":"VEC2"},{"bufferView":19,"byteOffset":0,"componentType":5123,"count":501,"type":"SCALAR"},{"bufferView":20,"byteOffset":0,"componentType":5126,"count":237,"max":[7.97346305847168,-0.01261558942497,9.11153507232666],"min":[-6.75819969177246,-0.15736389160156,-10.521954536438],"type":"VEC3"},{"bufferView":21,"byteOffset":0,"componentType":5126,"count":237,"type":"VEC3"},{"bufferView":22,"byteOffset":0,"componentType":5126,"count":237,"type":"VEC4"},{"bufferView":23,"byteOffset":0,"componentType":5126,"count":237,"type":"VEC2"},{"bufferView":24,"byteOffset":0,"componentType":5126,"count":237,"type":"VEC2"}],"animations":[{"channels":[],"name":"Unreal Take","samplers":[]}],"asset":{"generator":"FBX2glTF v0.13.0","version":"2.0"},"bufferViews":[{"buffer":0,"byteLength":4,"byteOffset":0},{"buffer":0,"byteLength":4008,"byteOffset":4,"target":34963},{"buffer":0,"byteLength":7848,"byteOffset":4012,"target":34962},{"buffer":0,"byteLength":7848,"byteOffset":11860,"target":34962},{"buffer":0,"byteLength":10464,"byteOffset":19708,"target":34962},{"buffer":0,"byteLength":5232,"byteOffset":30172,"target":34962},{"buffer":0,"byteLength":5232,"byteOffset":35404,"target":34962},{"buffer":0,"byteLength":3000,"byteOffset":40636,"target":34963},{"buffer":0,"byteLength":6396,"byteOffset":43636,"target":34962},{"buffer":0,"byteLength":6396,"byteOffset":50032,"target":34962},{"buffer":0,"byteLength":8528,"byteOffset":56428,"target":34962},{"buffer":0,"byteLength":4264,"byteOffset":64956,"target":34962},{"buffer":0,"byteLength":4264,"byteOffset":69220,"target":34962},{"buffer":0,"byteLength":2004,"byteOffset":73484,"target":34963},{"buffer":0,"byteLength":4764,"byteOffset":75488,"target":34962},{"buffer":0,"byteLength":4764,"byteOffset":80252,"target":34962},{"buffer":0,"byteLength":6352,"byteOffset":85016,"target":34962},{"buffer":0,"byteLength":3176,"byteOffset":91368,"target":34962},{"buffer":0,"byteLength":3176,"byteOffset":94544,"target":34962},{"buffer":0,"byteLength":1002,"byteOffset":97720,"target":34963},{"buffer":0,"byteLength":2844,"byteOffset":98724,"target":34962},{"buffer":0,"byteLength":2844,"byteOffset":101568,"target":34962},{"buffer":0,"byteLength":3792,"byteOffset":104412,"target":34962},{"buffer":0,"byteLength":1896,"byteOffset":108204,"target":34962},{"buffer":0,"byteLength":1896,"byteOffset":110100,"target":34962}],"buffers":[{"byteLength":111996,"uri":"SM_Molding.bin"}],"images":[{"name":"Detail_Normal_01","uri":"Detail_Normal_01.tga"}],"materials":[{"alphaMode":"OPAQUE","doubleSided":false,"extras":{"fromFBX":{"isTruePBR":false,"shadingModel":"Phong"}},"name":"MI_Molding_Trim","normalTexture":{"index":0,"texCoord":0},"pbrMetallicRoughness":{"baseColorFactor":[0.21586050093174,0.21586050093174,0.21586050093174,1],"metallicFactor":0.400000005960464,"roughnessFactor":0.301511347293854}}],"meshes":[{"name":"SM_Molding_LOD0","primitives":[{"attributes":{"NORMAL":3,"POSITION":2,"TANGENT":4,"TEXCOORD_0":5,"TEXCOORD_1":6},"indices":1,"material":0,"mode":4}]},{"name":"SM_Molding_LOD1","primitives":[{"attributes":{"NORMAL":9,"POSITION":8,"TANGENT":10,"TEXCOORD_0":11,"TEXCOORD_1":12},"indices":7,"material":0,"mode":4}]},{"name":"SM_Molding_LOD2","primitives":[{"attributes":{"NORMAL":15,"POSITION":14,"TANGENT":16,"TEXCOORD_0":17,"TEXCOORD_1":18},"indices":13,"material":0,"mode":4}]},{"name":"SM_Molding_LOD3","primitives":[{"attributes":{"NORMAL":21,"POSITION":20,"TANGENT":22,"TEXCOORD_0":23,"TEXCOORD_1":24},"indices":19,"material":0,"mode":4}]}],"nodes":[{"children":[1,2,3,4,5],"name":"House_Molding_SM_2","originalUnits":0.00999999977648258,"pivot":[0,0,0],"rotation":[0,0,0,1],"scale":[1,1,1],"translation":[0,0,0]},{"mesh":0,"name":"SM_Molding_LOD0","originalUnits":0.00999999977648258,"pivot":[0,0,0],"rotation":[0,0,0,1],"scale":[1,1,1],"translation":[0,0,0]},{"name":"SM_Molding_ConvexHulls","originalUnits":0.00999999977648258,"pivot":[0,0,0],"rotation":[0,0,0,1],"scale":[1,1,1],"translation":[0,0,0]},{"mesh":1,"name":"SM_Molding_LOD1","originalUnits":0.00999999977648258,"pivot":[0,0,0],"rotation":[0,0,0,1],"scale":[1,1,1],"translation":[0,0,0]},{"mesh":2,"name":"SM_Molding_LOD2","originalUnits":0.00999999977648258,"pivot":[0,0,0],"rotation":[0,0,0,1],"scale":[1,1,1],"translation":[0,0,0]},{"mesh":3,"name":"SM_Molding_LOD3","originalUnits":0.00999999977648258,"pivot":[0,0,0],"rotation":[0,0,0,1],"scale":[1,1,1],"translation":[0,0,0]}],"samplers":[{}],"scene":0,"scenes":[{"name":"Root Scene","nodes":[0]}],"textures":[{"name":"T_Detail01_N","sampler":0,"source":0}]}