{"accessors":[{"bufferView":0,"byteOffset":0,"componentType":5126,"count":1,"max":[0],"min":[0],"type":"SCALAR"},{"bufferView":1,"byteOffset":0,"componentType":5123,"count":4386,"type":"SCALAR"},{"bufferView":2,"byteOffset":0,"componentType":5126,"count":882,"max":[0.209346920251846,0.00483678141608834,0.0988380014896393],"min":[-0.19290770590305,-0.0043342509307,-0.09980932623148],"type":"VEC3"},{"bufferView":3,"byteOffset":0,"componentType":5126,"count":882,"type":"VEC3"},{"bufferView":4,"byteOffset":0,"componentType":5126,"count":882,"type":"VEC4"},{"bufferView":5,"byteOffset":0,"componentType":5126,"count":882,"type":"VEC2"},{"bufferView":6,"byteOffset":0,"componentType":5126,"count":882,"type":"VEC2"},{"bufferView":7,"byteOffset":0,"componentType":5123,"count":3288,"type":"SCALAR"},{"bufferView":8,"byteOffset":0,"componentType":5126,"count":699,"max":[0.209346920251846,0.00483678141608834,0.0988383814692497],"min":[-0.19290770590305,-0.0043342509307,-0.09980932623148],"type":"VEC3"},{"bufferView":9,"byteOffset":0,"componentType":5126,"count":699,"type":"VEC3"},{"bufferView":10,"byteOffset":0,"componentType":5126,"count":699,"type":"VEC4"},{"bufferView":11,"byteOffset":0,"componentType":5126,"count":699,"type":"VEC2"},{"bufferView":12,"byteOffset":0,"componentType":5126,"count":699,"type":"VEC2"},{"bufferView":13,"byteOffset":0,"componentType":5123,"count":2190,"type":"SCALAR"},{"bufferView":14,"byteOffset":0,"componentType":5126,"count":516,"max":[0.209346920251846,0.00453792372718453,0.0988419204950333],"min":[-0.19290770590305,-0.00423565739766,-0.09980932623148],"type":"VEC3"},{"bufferView":15,"byteOffset":0,"componentType":5126,"count":516,"type":"VEC3"},{"bufferView":16,"byteOffset":0,"componentType":5126,"count":516,"type":"VEC4"},{"bufferView":17,"byteOffset":0,"componentType":5126,"count":516,"type":"VEC2"},{"bufferView":18,"byteOffset":0,"componentType":5126,"count":516,"type":"VEC2"},{"bufferView":19,"byteOffset":0,"componentType":5123,"count":1098,"type":"SCALAR"},{"bufferView":20,"byteOffset":0,"componentType":5126,"count":295,"max":[0.209346920251846,0.00409241486340761,0.0991802662611008],"min":[-0.19290770590305,-0.00378654780798,-0.09969640523195],"type":"VEC3"},{"bufferView":21,"byteOffset":0,"componentType":5126,"count":295,"type":"VEC3"},{"bufferView":22,"byteOffset":0,"componentType":5126,"count":295,"type":"VEC4"},{"bufferView":23,"byteOffset":0,"componentType":5126,"count":295,"type":"VEC2"},{"bufferView":24,"byteOffset":0,"componentType":5126,"count":295,"type":"VEC2"},{"bufferView":25,"byteOffset":0,"componentType":5123,"count":84,"type":"SCALAR"},{"bufferView":26,"byteOffset":0,"componentType":5126,"count":76,"max":[0.209765732288361,0.00685583241283894,0.100327916443348],"min":[-0.19405640661717,-0.00558477826416,-0.10121853649616],"type":"VEC3"},{"bufferView":27,"byteOffset":0,"componentType":5126,"count":76,"type":"VEC3"},{"bufferView":28,"byteOffset":0,"componentType":5126,"count":76,"type":"VEC2"},{"bufferView":29,"byteOffset":0,"componentType":5126,"count":76,"type":"VEC2"}],"animations":[{"channels":[],"name":"Unreal Take","samplers":[]}],"asset":{"generator":"FBX2glTF v0.13.0","version":"2.0"},"bufferViews":[{"buffer":0,"byteLength":4,"byteOffset":0},{"buffer":0,"byteLength":8772,"byteOffset":4,"target":34963},{"buffer":0,"byteLength":10584,"byteOffset":8776,"target":34962},{"buffer":0,"byteLength":10584,"byteOffset":19360,"target":34962},{"buffer":0,"byteLength":14112,"byteOffset":29944,"target":34962},{"buffer":0,"byteLength":7056,"byteOffset":44056,"target":34962},{"buffer":0,"byteLength":7056,"byteOffset":51112,"target":34962},{"buffer":0,"byteLength":6576,"byteOffset":58168,"target":34963},{"buffer":0,"byteLength":8388,"byteOffset":64744,"target":34962},{"buffer":0,"byteLength":8388,"byteOffset":73132,"target":34962},{"buffer":0,"byteLength":11184,"byteOffset":81520,"target":34962},{"buffer":0,"byteLength":5592,"byteOffset":92704,"target":34962},{"buffer":0,"byteLength":5592,"byteOffset":98296,"target":34962},{"buffer":0,"byteLength":4380,"byteOffset":103888,"target":34963},{"buffer":0,"byteLength":6192,"byteOffset":108268,"target":34962},{"buffer":0,"byteLength":6192,"byteOffset":114460,"target":34962},{"buffer":0,"byteLength":8256,"byteOffset":120652,"target":34962},{"buffer":0,"byteLength":4128,"byteOffset":128908,"target":34962},{"buffer":0,"byteLength":4128,"byteOffset":133036,"target":34962},{"buffer":0,"byteLength":2196,"byteOffset":137164,"target":34963},{"buffer":0,"byteLength":3540,"byteOffset":139360,"target":34962},{"buffer":0,"byteLength":3540,"byteOffset":142900,"target":34962},{"buffer":0,"byteLength":4720,"byteOffset":146440,"target":34962},{"buffer":0,"byteLength":2360,"byteOffset":151160,"target":34962},{"buffer":0,"byteLength":2360,"byteOffset":153520,"target":34962},{"buffer":0,"byteLength":168,"byteOffset":155880,"target":34963},{"buffer":0,"byteLength":912,"byteOffset":156048,"target":34962},{"buffer":0,"byteLength":912,"byteOffset":156960,"target":34962},{"buffer":0,"byteLength":608,"byteOffset":157872,"target":34962},{"buffer":0,"byteLength":608,"byteOffset":158480,"target":34962}],"buffers":[{"byteLength":159088,"uri":"SM_Napkin_Folded.bin"}],"images":[{"name":"FlatNormal","uri":"FlatNormal.tga"}],"materials":[{"alphaMode":"OPAQUE","doubleSided":false,"extras":{"fromFBX":{"isTruePBR":false,"shadingModel":"Phong"}},"name":"MI_Placemat_02","normalTexture":{"index":0,"texCoord":0},"pbrMetallicRoughness":{"baseColorFactor":[0.21586050093174,0.21586050093174,0.21586050093174,1],"metallicFactor":0.400000005960464,"roughnessFactor":0.301511347293854}},{"alphaMode":"OPAQUE","doubleSided":false,"extras":{"fromFBX":{"isTruePBR":false,"shadingModel":"Lambert"}},"name":"DefaultMaterial","pbrMetallicRoughness":{"baseColorFactor":[0.5,0.5,0.5,1],"metallicFactor":0.200000002980232,"roughnessFactor":0.800000011920929}}],"meshes":[{"name":"SM_Napkin_Folded_LOD0","primitives":[{"attributes":{"NORMAL":3,"POSITION":2,"TANGENT":4,"TEXCOORD_0":5,"TEXCOORD_1":6},"indices":1,"material":0,"mode":4}]},{"name":"SM_Napkin_Folded_LOD1","primitives":[{"attributes":{"NORMAL":9,"POSITION":8,"TANGENT":10,"TEXCOORD_0":11,"TEXCOORD_1":12},"indices":7,"material":0,"mode":4}]},{"name":"SM_Napkin_Folded_LOD2","primitives":[{"attributes":{"NORMAL":15,"POSITION":14,"TANGENT":16,"TEXCOORD_0":17,"TEXCOORD_1":18},"indices":13,"material":0,"mode":4}]},{"name":"SM_Napkin_Folded_LOD3","primitives":[{"attributes":{"NORMAL":21,"POSITION":20,"TANGENT":22,"TEXCOORD_0":23,"TEXCOORD_1":24},"indices":19,"material":0,"mode":4}]},{"name":"SM_Napkin_Folded_ConvexHulls","primitives":[{"attributes":{"NORMAL":27,"POSITION":26,"TEXCOORD_0":28,"TEXCOORD_1":29},"indices":25,"material":1,"mode":4}]}],"nodes":[{"children":[1,2,3,4,5],"name":"Napkin_Folded4","originalUnits":0.00999999977648258,"pivot":[0,0,0],"rotation":[0,0,0,1],"scale":[1,1,1],"translation":[0,0,0]},{"mesh":0,"name":"SM_Napkin_Folded_LOD0","originalUnits":0.00999999977648258,"pivot":[0,0,0],"rotation":[0,0,0,1],"scale":[1,1,1],"translation":[0,0,0]},{"mesh":4,"name":"SM_Napkin_Folded_ConvexHulls","originalUnits":0.00999999977648258,"pivot":[0,0,0],"rotation":[0,0,0,1],"scale":[1,1,1],"translation":[0,0,0]},{"mesh":1,"name":"SM_Napkin_Folded_LOD1","originalUnits":0.00999999977648258,"pivot":[0,0,0],"rotation":[0,0,0,1],"scale":[1,1,1],"translation":[0,0,0]},{"mesh":2,"name":"SM_Napkin_Folded_LOD2","originalUnits":0.00999999977648258,"pivot":[0,0,0],"rotation":[0,0,0,1],"scale":[1,1,1],"translation":[0,0,0]},{"mesh":3,"name":"SM_Napkin_Folded_LOD3","originalUnits":0.00999999977648258,"pivot":[0,0,0],"rotation":[0,0,0,1],"scale":[1,1,1],"translation":[0,0,0]}],"samplers":[{}],"scene":0,"scenes":[{"name":"Root Scene","nodes":[0]}],"textures":[{"name":"T_Default_N","sampler":0,"source":0}]}