{"accessors":[{"bufferView":0,"byteOffset":0,"componentType":5126,"count":1,"max":[0],"min":[0],"type":"SCALAR"},{"bufferView":1,"byteOffset":0,"componentType":5123,"count":828,"type":"SCALAR"},{"bufferView":2,"byteOffset":0,"componentType":5126,"count":207,"max":[0.0543346330523491,0.109555006027222,0.0564321093261242],"min":[-0.05425567552447,-0.00060779508203,-0.05182494595647],"type":"VEC3"},{"bufferView":3,"byteOffset":0,"componentType":5126,"count":207,"type":"VEC3"},{"bufferView":4,"byteOffset":0,"componentType":5126,"count":207,"type":"VEC4"},{"bufferView":5,"byteOffset":0,"componentType":5126,"count":207,"type":"VEC2"},{"bufferView":6,"byteOffset":0,"componentType":5126,"count":207,"type":"VEC2"},{"bufferView":7,"byteOffset":0,"componentType":5123,"count":618,"type":"SCALAR"},{"bufferView":8,"byteOffset":0,"componentType":5126,"count":170,"max":[0.054707121104002,0.109555006027222,0.0564321093261242],"min":[-0.05409546196461,-0.00060779508203,-0.05095928534865],"type":"VEC3"},{"bufferView":9,"byteOffset":0,"componentType":5126,"count":170,"type":"VEC3"},{"bufferView":10,"byteOffset":0,"componentType":5126,"count":170,"type":"VEC4"},{"bufferView":11,"byteOffset":0,"componentType":5126,"count":170,"type":"VEC2"},{"bufferView":12,"byteOffset":0,"componentType":5126,"count":170,"type":"VEC2"},{"bufferView":13,"byteOffset":0,"componentType":5123,"count":414,"type":"SCALAR"},{"bufferView":14,"byteOffset":0,"componentType":5126,"count":128,"max":[0.0569734089076519,0.109555006027222,0.0561541840434074],"min":[-0.05409546196461,-0.00053350615781,-0.05056033656001],"type":"VEC3"},{"bufferView":15,"byteOffset":0,"componentType":5126,"count":128,"type":"VEC3"},{"bufferView":16,"byteOffset":0,"componentType":5126,"count":128,"type":"VEC4"},{"bufferView":17,"byteOffset":0,"componentType":5126,"count":128,"type":"VEC2"},{"bufferView":18,"byteOffset":0,"componentType":5126,"count":128,"type":"VEC2"},{"bufferView":19,"byteOffset":0,"componentType":5123,"count":204,"type":"SCALAR"},{"bufferView":20,"byteOffset":0,"componentType":5126,"count":74,"max":[0.0596768707036972,0.102903455495834,0.0547198951244354],"min":[-0.05667446181178,-0.00226231315173,-0.04930763319135],"type":"VEC3"},{"bufferView":21,"byteOffset":0,"componentType":5126,"count":74,"type":"VEC3"},{"bufferView":22,"byteOffset":0,"componentType":5126,"count":74,"type":"VEC4"},{"bufferView":23,"byteOffset":0,"componentType":5126,"count":74,"type":"VEC2"},{"bufferView":24,"byteOffset":0,"componentType":5126,"count":74,"type":"VEC2"},{"bufferView":25,"byteOffset":0,"componentType":5123,"count":84,"type":"SCALAR"},{"bufferView":26,"byteOffset":0,"componentType":5126,"count":84,"max":[0.0482014454901218,0.110529735684395,0.0560632273554802],"min":[-0.05351382121444,0.00025618224753998,-0.04681287705898],"type":"VEC3"},{"bufferView":27,"byteOffset":0,"componentType":5126,"count":84,"type":"VEC3"},{"bufferView":28,"byteOffset":0,"componentType":5126,"count":84,"type":"VEC2"},{"bufferView":29,"byteOffset":0,"componentType":5126,"count":84,"type":"VEC2"}],"animations":[{"channels":[],"name":"Unreal Take","samplers":[]}],"asset":{"generator":"FBX2glTF v0.13.0","version":"2.0"},"bufferViews":[{"buffer":0,"byteLength":4,"byteOffset":0},{"buffer":0,"byteLength":1656,"byteOffset":4,"target":34963},{"buffer":0,"byteLength":2484,"byteOffset":1660,"target":34962},{"buffer":0,"byteLength":2484,"byteOffset":4144,"target":34962},{"buffer":0,"byteLength":3312,"byteOffset":6628,"target":34962},{"buffer":0,"byteLength":1656,"byteOffset":9940,"target":34962},{"buffer":0,"byteLength":1656,"byteOffset":11596,"target":34962},{"buffer":0,"byteLength":1236,"byteOffset":13252,"target":34963},{"buffer":0,"byteLength":2040,"byteOffset":14488,"target":34962},{"buffer":0,"byteLength":2040,"byteOffset":16528,"target":34962},{"buffer":0,"byteLength":2720,"byteOffset":18568,"target":34962},{"buffer":0,"byteLength":1360,"byteOffset":21288,"target":34962},{"buffer":0,"byteLength":1360,"byteOffset":22648,"target":34962},{"buffer":0,"byteLength":828,"byteOffset":24008,"target":34963},{"buffer":0,"byteLength":1536,"byteOffset":24836,"target":34962},{"buffer":0,"byteLength":1536,"byteOffset":26372,"target":34962},{"buffer":0,"byteLength":2048,"byteOffset":27908,"target":34962},{"buffer":0,"byteLength":1024,"byteOffset":29956,"target":34962},{"buffer":0,"byteLength":1024,"byteOffset":30980,"target":34962},{"buffer":0,"byteLength":408,"byteOffset":32004,"target":34963},{"buffer":0,"byteLength":888,"byteOffset":32412,"target":34962},{"buffer":0,"byteLength":888,"byteOffset":33300,"target":34962},{"buffer":0,"byteLength":1184,"byteOffset":34188,"target":34962},{"buffer":0,"byteLength":592,"byteOffset":35372,"target":34962},{"buffer":0,"byteLength":592,"byteOffset":35964,"target":34962},{"buffer":0,"byteLength":168,"byteOffset":36556,"target":34963},{"buffer":0,"byteLength":1008,"byteOffset":36724,"target":34962},{"buffer":0,"byteLength":1008,"byteOffset":37732,"target":34962},{"buffer":0,"byteLength":672,"byteOffset":38740,"target":34962},{"buffer":0,"byteLength":672,"byteOffset":39412,"target":34962}],"buffers":[{"byteLength":40084,"uri":"SM_Pepper_02.bin"}],"images":[{"name":"T_Food_N","uri":"T_Food_N.tga"}],"materials":[{"alphaMode":"OPAQUE","doubleSided":false,"extras":{"fromFBX":{"isTruePBR":false,"shadingModel":"Phong"}},"name":"MI_Food","normalTexture":{"index":0,"texCoord":0},"pbrMetallicRoughness":{"baseColorFactor":[0.21586050093174,0.21586050093174,0.21586050093174,1],"metallicFactor":0.400000005960464,"roughnessFactor":0.301511347293854}},{"alphaMode":"OPAQUE","doubleSided":false,"extras":{"fromFBX":{"isTruePBR":false,"shadingModel":"Lambert"}},"name":"DefaultMaterial","pbrMetallicRoughness":{"baseColorFactor":[0.5,0.5,0.5,1],"metallicFactor":0.200000002980232,"roughnessFactor":0.800000011920929}}],"meshes":[{"name":"SM_Pepper_02_LOD0","primitives":[{"attributes":{"NORMAL":3,"POSITION":2,"TANGENT":4,"TEXCOORD_0":5,"TEXCOORD_1":6},"indices":1,"material":0,"mode":4}]},{"name":"SM_Pepper_02_LOD1","primitives":[{"attributes":{"NORMAL":9,"POSITION":8,"TANGENT":10,"TEXCOORD_0":11,"TEXCOORD_1":12},"indices":7,"material":0,"mode":4}]},{"name":"SM_Pepper_02_LOD2","primitives":[{"attributes":{"NORMAL":15,"POSITION":14,"TANGENT":16,"TEXCOORD_0":17,"TEXCOORD_1":18},"indices":13,"material":0,"mode":4}]},{"name":"SM_Pepper_02_LOD3","primitives":[{"attributes":{"NORMAL":21,"POSITION":20,"TANGENT":22,"TEXCOORD_0":23,"TEXCOORD_1":24},"indices":19,"material":0,"mode":4}]},{"name":"SM_Pepper_02_ConvexHulls","primitives":[{"attributes":{"NORMAL":27,"POSITION":26,"TEXCOORD_0":28,"TEXCOORD_1":29},"indices":25,"material":1,"mode":4}]}],"nodes":[{"children":[1,2,3,4,5],"name":"SM_Food_SM_Pepper_4","originalUnits":0.00999999977648258,"pivot":[0,0,0],"rotation":[0,0,0,1],"scale":[1,1,1],"translation":[0,0,0]},{"mesh":0,"name":"SM_Pepper_02_LOD0","originalUnits":0.00999999977648258,"pivot":[0,0,0],"rotation":[0,0,0,1],"scale":[1,1,1],"translation":[0,0,0]},{"mesh":4,"name":"SM_Pepper_02_ConvexHulls","originalUnits":0.00999999977648258,"pivot":[0,0,0],"rotation":[0,0,0,1],"scale":[1,1,1],"translation":[0,0,0]},{"mesh":1,"name":"SM_Pepper_02_LOD1","originalUnits":0.00999999977648258,"pivot":[0,0,0],"rotation":[0,0,0,1],"scale":[1,1,1],"translation":[0,0,0]},{"mesh":2,"name":"SM_Pepper_02_LOD2","originalUnits":0.00999999977648258,"pivot":[0,0,0],"rotation":[0,0,0,1],"scale":[1,1,1],"translation":[0,0,0]},{"mesh":3,"name":"SM_Pepper_02_LOD3","originalUnits":0.00999999977648258,"pivot":[0,0,0],"rotation":[0,0,0,1],"scale":[1,1,1],"translation":[0,0,0]}],"samplers":[{}],"scene":0,"scenes":[{"name":"Root Scene","nodes":[0]}],"textures":[{"name":"T_Food_N","sampler":0,"source":0}]}