{"accessors":[{"bufferView":0,"byteOffset":0,"componentType":5126,"count":1,"max":[0],"min":[0],"type":"SCALAR"},{"bufferView":1,"byteOffset":0,"componentType":5123,"count":9360,"type":"SCALAR"},{"bufferView":2,"byteOffset":0,"componentType":5126,"count":1758,"max":[0.117647781968117,0.0157155264168978,0.0229037515819073],"min":[-0.11764778196812,-0.0024212221615,-0.02290381863713],"type":"VEC3"},{"bufferView":3,"byteOffset":0,"componentType":5126,"count":1758,"type":"VEC3"},{"bufferView":4,"byteOffset":0,"componentType":5126,"count":1758,"type":"VEC4"},{"bufferView":5,"byteOffset":0,"componentType":5126,"count":1758,"type":"VEC2"},{"bufferView":6,"byteOffset":0,"componentType":5126,"count":1758,"type":"VEC2"},{"bufferView":7,"byteOffset":0,"componentType":5123,"count":7020,"type":"SCALAR"},{"bufferView":8,"byteOffset":0,"componentType":5126,"count":1368,"max":[0.117647781968117,0.0157155264168978,0.0229037515819073],"min":[-0.11764778196812,-0.0024212221615,-0.02290381863713],"type":"VEC3"},{"bufferView":9,"byteOffset":0,"componentType":5126,"count":1368,"type":"VEC3"},{"bufferView":10,"byteOffset":0,"componentType":5126,"count":1368,"type":"VEC4"},{"bufferView":11,"byteOffset":0,"componentType":5126,"count":1368,"type":"VEC2"},{"bufferView":12,"byteOffset":0,"componentType":5126,"count":1368,"type":"VEC2"},{"bufferView":13,"byteOffset":0,"componentType":5123,"count":4680,"type":"SCALAR"},{"bufferView":14,"byteOffset":0,"componentType":5126,"count":978,"max":[0.117647781968117,0.0157155264168978,0.0229037515819073],"min":[-0.11764778196812,-0.0024212221615,-0.02290381863713],"type":"VEC3"},{"bufferView":15,"byteOffset":0,"componentType":5126,"count":978,"type":"VEC3"},{"bufferView":16,"byteOffset":0,"componentType":5126,"count":978,"type":"VEC4"},{"bufferView":17,"byteOffset":0,"componentType":5126,"count":978,"type":"VEC2"},{"bufferView":18,"byteOffset":0,"componentType":5126,"count":978,"type":"VEC2"},{"bufferView":19,"byteOffset":0,"componentType":5123,"count":2340,"type":"SCALAR"},{"bufferView":20,"byteOffset":0,"componentType":5126,"count":572,"max":[0.117647781968117,0.0157155264168978,0.0229037515819073],"min":[-0.11764778196812,-0.0024212221615,-0.02290381863713],"type":"VEC3"},{"bufferView":21,"byteOffset":0,"componentType":5126,"count":572,"type":"VEC3"},{"bufferView":22,"byteOffset":0,"componentType":5126,"count":572,"type":"VEC4"},{"bufferView":23,"byteOffset":0,"componentType":5126,"count":572,"type":"VEC2"},{"bufferView":24,"byteOffset":0,"componentType":5126,"count":572,"type":"VEC2"},{"bufferView":25,"byteOffset":0,"componentType":5123,"count":336,"type":"SCALAR"},{"bufferView":26,"byteOffset":0,"componentType":5126,"count":330,"max":[0.115428358316422,0.0160570293664932,0.0231799613684416],"min":[-0.11707483232021,-0.00247504236177,-0.02335145696998],"type":"VEC3"},{"bufferView":27,"byteOffset":0,"componentType":5126,"count":330,"type":"VEC3"},{"bufferView":28,"byteOffset":0,"componentType":5126,"count":330,"type":"VEC2"},{"bufferView":29,"byteOffset":0,"componentType":5126,"count":330,"type":"VEC2"}],"animations":[{"channels":[],"name":"Unreal Take","samplers":[]}],"asset":{"generator":"FBX2glTF v0.13.0","version":"2.0"},"bufferViews":[{"buffer":0,"byteLength":4,"byteOffset":0},{"buffer":0,"byteLength":18720,"byteOffset":4,"target":34963},{"buffer":0,"byteLength":21096,"byteOffset":18724,"target":34962},{"buffer":0,"byteLength":21096,"byteOffset":39820,"target":34962},{"buffer":0,"byteLength":28128,"byteOffset":60916,"target":34962},{"buffer":0,"byteLength":14064,"byteOffset":89044,"target":34962},{"buffer":0,"byteLength":14064,"byteOffset":103108,"target":34962},{"buffer":0,"byteLength":14040,"byteOffset":117172,"target":34963},{"buffer":0,"byteLength":16416,"byteOffset":131212,"target":34962},{"buffer":0,"byteLength":16416,"byteOffset":147628,"target":34962},{"buffer":0,"byteLength":21888,"byteOffset":164044,"target":34962},{"buffer":0,"byteLength":10944,"byteOffset":185932,"target":34962},{"buffer":0,"byteLength":10944,"byteOffset":196876,"target":34962},{"buffer":0,"byteLength":9360,"byteOffset":207820,"target":34963},{"buffer":0,"byteLength":11736,"byteOffset":217180,"target":34962},{"buffer":0,"byteLength":11736,"byteOffset":228916,"target":34962},{"buffer":0,"byteLength":15648,"byteOffset":240652,"target":34962},{"buffer":0,"byteLength":7824,"byteOffset":256300,"target":34962},{"buffer":0,"byteLength":7824,"byteOffset":264124,"target":34962},{"buffer":0,"byteLength":4680,"byteOffset":271948,"target":34963},{"buffer":0,"byteLength":6864,"byteOffset":276628,"target":34962},{"buffer":0,"byteLength":6864,"byteOffset":283492,"target":34962},{"buffer":0,"byteLength":9152,"byteOffset":290356,"target":34962},{"buffer":0,"byteLength":4576,"byteOffset":299508,"target":34962},{"buffer":0,"byteLength":4576,"byteOffset":304084,"target":34962},{"buffer":0,"byteLength":672,"byteOffset":308660,"target":34963},{"buffer":0,"byteLength":3960,"byteOffset":309332,"target":34962},{"buffer":0,"byteLength":3960,"byteOffset":313292,"target":34962},{"buffer":0,"byteLength":2640,"byteOffset":317252,"target":34962},{"buffer":0,"byteLength":2640,"byteOffset":319892,"target":34962}],"buffers":[{"byteLength":322532,"uri":"SM_Props_B_Spoon.bin"}],"materials":[{"alphaMode":"OPAQUE","doubleSided":false,"extras":{"fromFBX":{"isTruePBR":false,"shadingModel":"Phong"}},"name":"MM_Chrome","pbrMetallicRoughness":{"baseColorFactor":[0,0,0,1],"metallicFactor":0.400000005960464,"roughnessFactor":0.301511347293854}},{"alphaMode":"OPAQUE","doubleSided":false,"extras":{"fromFBX":{"isTruePBR":false,"shadingModel":"Lambert"}},"name":"DefaultMaterial","pbrMetallicRoughness":{"baseColorFactor":[0.5,0.5,0.5,1],"metallicFactor":0.200000002980232,"roughnessFactor":0.800000011920929}}],"meshes":[{"name":"SM_Props_B_Spoon_LOD0","primitives":[{"attributes":{"NORMAL":3,"POSITION":2,"TANGENT":4,"TEXCOORD_0":5,"TEXCOORD_1":6},"indices":1,"material":0,"mode":4}]},{"name":"SM_Props_B_Spoon_LOD1","primitives":[{"attributes":{"NORMAL":9,"POSITION":8,"TANGENT":10,"TEXCOORD_0":11,"TEXCOORD_1":12},"indices":7,"material":0,"mode":4}]},{"name":"SM_Props_B_Spoon_LOD2","primitives":[{"attributes":{"NORMAL":15,"POSITION":14,"TANGENT":16,"TEXCOORD_0":17,"TEXCOORD_1":18},"indices":13,"material":0,"mode":4}]},{"name":"SM_Props_B_Spoon_LOD3","primitives":[{"attributes":{"NORMAL":21,"POSITION":20,"TANGENT":22,"TEXCOORD_0":23,"TEXCOORD_1":24},"indices":19,"material":0,"mode":4}]},{"name":"SM_Props_B_Spoon_ConvexHulls","primitives":[{"attributes":{"NORMAL":27,"POSITION":26,"TEXCOORD_0":28,"TEXCOORD_1":29},"indices":25,"material":1,"mode":4}]}],"nodes":[{"children":[1,2,3,4,5],"name":"Kitchen_Props_B_Spoon4","originalUnits":0.00999999977648258,"pivot":[0,0,0],"rotation":[0,0,0,1],"scale":[1,1,1],"translation":[0,0,0]},{"mesh":0,"name":"SM_Props_B_Spoon_LOD0","originalUnits":0.00999999977648258,"pivot":[0,0,0],"rotation":[0,0,0,1],"scale":[1,1,1],"translation":[0,0,0]},{"mesh":4,"name":"SM_Props_B_Spoon_ConvexHulls","originalUnits":0.00999999977648258,"pivot":[0,0,0],"rotation":[0,0,0,1],"scale":[1,1,1],"translation":[0,0,0]},{"mesh":1,"name":"SM_Props_B_Spoon_LOD1","originalUnits":0.00999999977648258,"pivot":[0,0,0],"rotation":[0,0,0,1],"scale":[1,1,1],"translation":[0,0,0]},{"mesh":2,"name":"SM_Props_B_Spoon_LOD2","originalUnits":0.00999999977648258,"pivot":[0,0,0],"rotation":[0,0,0,1],"scale":[1,1,1],"translation":[0,0,0]},{"mesh":3,"name":"SM_Props_B_Spoon_LOD3","originalUnits":0.00999999977648258,"pivot":[0,0,0],"rotation":[0,0,0,1],"scale":[1,1,1],"translation":[0,0,0]}],"samplers":[{}],"scene":0,"scenes":[{"name":"Root Scene","nodes":[0]}]}