{"accessors":[{"bufferView":0,"byteOffset":0,"componentType":5126,"count":1,"max":[0],"min":[0],"type":"SCALAR"},{"bufferView":1,"byteOffset":0,"componentType":5123,"count":984,"type":"SCALAR"},{"bufferView":2,"byteOffset":0,"componentType":5126,"count":251,"max":[0.0469737201929092,0.110068440437317,0.0567797645926476],"min":[-0.04726277664304,-0.00210277899168,-0.04220632463694],"type":"VEC3"},{"bufferView":3,"byteOffset":0,"componentType":5126,"count":251,"type":"VEC3"},{"bufferView":4,"byteOffset":0,"componentType":5126,"count":251,"type":"VEC4"},{"bufferView":5,"byteOffset":0,"componentType":5126,"count":251,"type":"VEC2"},{"bufferView":6,"byteOffset":0,"componentType":5126,"count":251,"type":"VEC2"},{"bufferView":7,"byteOffset":0,"componentType":5123,"count":738,"type":"SCALAR"},{"bufferView":8,"byteOffset":0,"componentType":5126,"count":205,"max":[0.0469737201929092,0.109655700623989,0.0567797645926476],"min":[-0.04840989410877,-0.00210277899168,-0.04220632463694],"type":"VEC3"},{"bufferView":9,"byteOffset":0,"componentType":5126,"count":205,"type":"VEC3"},{"bufferView":10,"byteOffset":0,"componentType":5126,"count":205,"type":"VEC4"},{"bufferView":11,"byteOffset":0,"componentType":5126,"count":205,"type":"VEC2"},{"bufferView":12,"byteOffset":0,"componentType":5126,"count":205,"type":"VEC2"},{"bufferView":13,"byteOffset":0,"componentType":5123,"count":492,"type":"SCALAR"},{"bufferView":14,"byteOffset":0,"componentType":5126,"count":149,"max":[0.0469737201929092,0.112297438085079,0.0563943274319172],"min":[-0.05083427205682,-0.00297725247219,-0.04220632463694],"type":"VEC3"},{"bufferView":15,"byteOffset":0,"componentType":5126,"count":149,"type":"VEC3"},{"bufferView":16,"byteOffset":0,"componentType":5126,"count":149,"type":"VEC4"},{"bufferView":17,"byteOffset":0,"componentType":5126,"count":149,"type":"VEC2"},{"bufferView":18,"byteOffset":0,"componentType":5126,"count":149,"type":"VEC2"},{"bufferView":19,"byteOffset":0,"componentType":5123,"count":246,"type":"SCALAR"},{"bufferView":20,"byteOffset":0,"componentType":5126,"count":88,"max":[0.0470288917422295,0.11339945346117,0.0563943274319172],"min":[-0.04746916145086,-0.00464884098619,-0.0408567674458],"type":"VEC3"},{"bufferView":21,"byteOffset":0,"componentType":5126,"count":88,"type":"VEC3"},{"bufferView":22,"byteOffset":0,"componentType":5126,"count":88,"type":"VEC4"},{"bufferView":23,"byteOffset":0,"componentType":5126,"count":88,"type":"VEC2"},{"bufferView":24,"byteOffset":0,"componentType":5126,"count":88,"type":"VEC2"},{"bufferView":25,"byteOffset":0,"componentType":5123,"count":168,"type":"SCALAR"},{"bufferView":26,"byteOffset":0,"componentType":5126,"count":166,"max":[0.0463790036737919,0.108014136552811,0.0548717230558395],"min":[-0.04015052691102,-0.00149921665434,-0.04089614376426],"type":"VEC3"},{"bufferView":27,"byteOffset":0,"componentType":5126,"count":166,"type":"VEC3"},{"bufferView":28,"byteOffset":0,"componentType":5126,"count":166,"type":"VEC2"},{"bufferView":29,"byteOffset":0,"componentType":5126,"count":166,"type":"VEC2"}],"animations":[{"channels":[],"name":"Unreal Take","samplers":[]}],"asset":{"generator":"FBX2glTF v0.13.0","version":"2.0"},"bufferViews":[{"buffer":0,"byteLength":4,"byteOffset":0},{"buffer":0,"byteLength":1968,"byteOffset":4,"target":34963},{"buffer":0,"byteLength":3012,"byteOffset":1972,"target":34962},{"buffer":0,"byteLength":3012,"byteOffset":4984,"target":34962},{"buffer":0,"byteLength":4016,"byteOffset":7996,"target":34962},{"buffer":0,"byteLength":2008,"byteOffset":12012,"target":34962},{"buffer":0,"byteLength":2008,"byteOffset":14020,"target":34962},{"buffer":0,"byteLength":1476,"byteOffset":16028,"target":34963},{"buffer":0,"byteLength":2460,"byteOffset":17504,"target":34962},{"buffer":0,"byteLength":2460,"byteOffset":19964,"target":34962},{"buffer":0,"byteLength":3280,"byteOffset":22424,"target":34962},{"buffer":0,"byteLength":1640,"byteOffset":25704,"target":34962},{"buffer":0,"byteLength":1640,"byteOffset":27344,"target":34962},{"buffer":0,"byteLength":984,"byteOffset":28984,"target":34963},{"buffer":0,"byteLength":1788,"byteOffset":29968,"target":34962},{"buffer":0,"byteLength":1788,"byteOffset":31756,"target":34962},{"buffer":0,"byteLength":2384,"byteOffset":33544,"target":34962},{"buffer":0,"byteLength":1192,"byteOffset":35928,"target":34962},{"buffer":0,"byteLength":1192,"byteOffset":37120,"target":34962},{"buffer":0,"byteLength":492,"byteOffset":38312,"target":34963},{"buffer":0,"byteLength":1056,"byteOffset":38804,"target":34962},{"buffer":0,"byteLength":1056,"byteOffset":39860,"target":34962},{"buffer":0,"byteLength":1408,"byteOffset":40916,"target":34962},{"buffer":0,"byteLength":704,"byteOffset":42324,"target":34962},{"buffer":0,"byteLength":704,"byteOffset":43028,"target":34962},{"buffer":0,"byteLength":336,"byteOffset":43732,"target":34963},{"buffer":0,"byteLength":1992,"byteOffset":44068,"target":34962},{"buffer":0,"byteLength":1992,"byteOffset":46060,"target":34962},{"buffer":0,"byteLength":1328,"byteOffset":48052,"target":34962},{"buffer":0,"byteLength":1328,"byteOffset":49380,"target":34962}],"buffers":[{"byteLength":50708,"uri":"SM_Pepper_01.bin"}],"images":[{"name":"T_Food_N","uri":"T_Food_N.tga"}],"materials":[{"alphaMode":"OPAQUE","doubleSided":false,"extras":{"fromFBX":{"isTruePBR":false,"shadingModel":"Phong"}},"name":"MI_Food","normalTexture":{"index":0,"texCoord":0},"pbrMetallicRoughness":{"baseColorFactor":[0.21586050093174,0.21586050093174,0.21586050093174,1],"metallicFactor":0.400000005960464,"roughnessFactor":0.301511347293854}},{"alphaMode":"OPAQUE","doubleSided":false,"extras":{"fromFBX":{"isTruePBR":false,"shadingModel":"Lambert"}},"name":"DefaultMaterial","pbrMetallicRoughness":{"baseColorFactor":[0.5,0.5,0.5,1],"metallicFactor":0.200000002980232,"roughnessFactor":0.800000011920929}}],"meshes":[{"name":"SM_Pepper_01_LOD0","primitives":[{"attributes":{"NORMAL":3,"POSITION":2,"TANGENT":4,"TEXCOORD_0":5,"TEXCOORD_1":6},"indices":1,"material":0,"mode":4}]},{"name":"SM_Pepper_01_LOD1","primitives":[{"attributes":{"NORMAL":9,"POSITION":8,"TANGENT":10,"TEXCOORD_0":11,"TEXCOORD_1":12},"indices":7,"material":0,"mode":4}]},{"name":"SM_Pepper_01_LOD2","primitives":[{"attributes":{"NORMAL":15,"POSITION":14,"TANGENT":16,"TEXCOORD_0":17,"TEXCOORD_1":18},"indices":13,"material":0,"mode":4}]},{"name":"SM_Pepper_01_LOD3","primitives":[{"attributes":{"NORMAL":21,"POSITION":20,"TANGENT":22,"TEXCOORD_0":23,"TEXCOORD_1":24},"indices":19,"material":0,"mode":4}]},{"name":"SM_Pepper_01_ConvexHulls","primitives":[{"attributes":{"NORMAL":27,"POSITION":26,"TEXCOORD_0":28,"TEXCOORD_1":29},"indices":25,"material":1,"mode":4}]}],"nodes":[{"children":[1,2,3,4,5],"name":"SM_Food_SM_Pepper_5","originalUnits":0.00999999977648258,"pivot":[0,0,0],"rotation":[0,0,0,1],"scale":[1,1,1],"translation":[0,0,0]},{"mesh":0,"name":"SM_Pepper_01_LOD0","originalUnits":0.00999999977648258,"pivot":[0,0,0],"rotation":[0,0,0,1],"scale":[1,1,1],"translation":[0,0,0]},{"mesh":4,"name":"SM_Pepper_01_ConvexHulls","originalUnits":0.00999999977648258,"pivot":[0,0,0],"rotation":[0,0,0,1],"scale":[1,1,1],"translation":[0,0,0]},{"mesh":1,"name":"SM_Pepper_01_LOD1","originalUnits":0.00999999977648258,"pivot":[0,0,0],"rotation":[0,0,0,1],"scale":[1,1,1],"translation":[0,0,0]},{"mesh":2,"name":"SM_Pepper_01_LOD2","originalUnits":0.00999999977648258,"pivot":[0,0,0],"rotation":[0,0,0,1],"scale":[1,1,1],"translation":[0,0,0]},{"mesh":3,"name":"SM_Pepper_01_LOD3","originalUnits":0.00999999977648258,"pivot":[0,0,0],"rotation":[0,0,0,1],"scale":[1,1,1],"translation":[0,0,0]}],"samplers":[{}],"scene":0,"scenes":[{"name":"Root Scene","nodes":[0]}],"textures":[{"name":"T_Food_N","sampler":0,"source":0}]}