{"accessors":[{"bufferView":0,"byteOffset":0,"componentType":5126,"count":1,"max":[0],"min":[0],"type":"SCALAR"},{"bufferView":1,"byteOffset":0,"componentType":5123,"count":8820,"type":"SCALAR"},{"bufferView":2,"byteOffset":0,"componentType":5126,"count":1965,"max":[0.241229772567749,0.321426838636398,0.196823790669441],"min":[-0.24122981727123,0.00487493816763163,-0.19682386517525],"type":"VEC3"},{"bufferView":3,"byteOffset":0,"componentType":5126,"count":1965,"type":"VEC3"},{"bufferView":4,"byteOffset":0,"componentType":5126,"count":1965,"type":"VEC4"},{"bufferView":5,"byteOffset":0,"componentType":5126,"count":1965,"type":"VEC2"},{"bufferView":6,"byteOffset":0,"componentType":5126,"count":1965,"type":"VEC2"},{"bufferView":7,"byteOffset":0,"componentType":5123,"count":6612,"type":"SCALAR"},{"bufferView":8,"byteOffset":0,"componentType":5126,"count":1546,"max":[0.241204738616943,0.321425974369049,0.196823790669441],"min":[-0.24120476841927,0.00487493816763163,-0.19682386517525],"type":"VEC3"},{"bufferView":9,"byteOffset":0,"componentType":5126,"count":1546,"type":"VEC3"},{"bufferView":10,"byteOffset":0,"componentType":5126,"count":1546,"type":"VEC4"},{"bufferView":11,"byteOffset":0,"componentType":5126,"count":1546,"type":"VEC2"},{"bufferView":12,"byteOffset":0,"componentType":5126,"count":1546,"type":"VEC2"},{"bufferView":13,"byteOffset":0,"componentType":5123,"count":4407,"type":"SCALAR"},{"bufferView":14,"byteOffset":0,"componentType":5126,"count":1082,"max":[0.241204738616943,0.321425974369049,0.196823790669441],"min":[-0.24120476841927,0.00487438961863518,-0.19682386517525],"type":"VEC3"},{"bufferView":15,"byteOffset":0,"componentType":5126,"count":1082,"type":"VEC3"},{"bufferView":16,"byteOffset":0,"componentType":5126,"count":1082,"type":"VEC4"},{"bufferView":17,"byteOffset":0,"componentType":5126,"count":1082,"type":"VEC2"},{"bufferView":18,"byteOffset":0,"componentType":5126,"count":1082,"type":"VEC2"},{"bufferView":19,"byteOffset":0,"componentType":5123,"count":2205,"type":"SCALAR"},{"bufferView":20,"byteOffset":0,"componentType":5126,"count":624,"max":[0.242026761174202,0.321382284164429,0.19596816599369],"min":[-0.24202680587769,0.0048729432746768,-0.19635993242264],"type":"VEC3"},{"bufferView":21,"byteOffset":0,"componentType":5126,"count":624,"type":"VEC3"},{"bufferView":22,"byteOffset":0,"componentType":5126,"count":624,"type":"VEC4"},{"bufferView":23,"byteOffset":0,"componentType":5126,"count":624,"type":"VEC2"},{"bufferView":24,"byteOffset":0,"componentType":5126,"count":624,"type":"VEC2"},{"bufferView":25,"byteOffset":0,"componentType":5123,"count":168,"type":"SCALAR"},{"bufferView":26,"byteOffset":0,"componentType":5126,"count":168,"max":[0.244489639997482,0.320041865110397,0.189049988985062],"min":[-0.23142278194428,0.00567098893225193,-0.19205509126186],"type":"VEC3"},{"bufferView":27,"byteOffset":0,"componentType":5126,"count":168,"type":"VEC3"},{"bufferView":28,"byteOffset":0,"componentType":5126,"count":168,"type":"VEC2"},{"bufferView":29,"byteOffset":0,"componentType":5126,"count":168,"type":"VEC2"}],"animations":[{"channels":[],"name":"Unreal Take","samplers":[]}],"asset":{"generator":"FBX2glTF v0.13.0","version":"2.0"},"bufferViews":[{"buffer":0,"byteLength":4,"byteOffset":0},{"buffer":0,"byteLength":17640,"byteOffset":4,"target":34963},{"buffer":0,"byteLength":23580,"byteOffset":17644,"target":34962},{"buffer":0,"byteLength":23580,"byteOffset":41224,"target":34962},{"buffer":0,"byteLength":31440,"byteOffset":64804,"target":34962},{"buffer":0,"byteLength":15720,"byteOffset":96244,"target":34962},{"buffer":0,"byteLength":15720,"byteOffset":111964,"target":34962},{"buffer":0,"byteLength":13224,"byteOffset":127684,"target":34963},{"buffer":0,"byteLength":18552,"byteOffset":140908,"target":34962},{"buffer":0,"byteLength":18552,"byteOffset":159460,"target":34962},{"buffer":0,"byteLength":24736,"byteOffset":178012,"target":34962},{"buffer":0,"byteLength":12368,"byteOffset":202748,"target":34962},{"buffer":0,"byteLength":12368,"byteOffset":215116,"target":34962},{"buffer":0,"byteLength":8814,"byteOffset":227484,"target":34963},{"buffer":0,"byteLength":12984,"byteOffset":236300,"target":34962},{"buffer":0,"byteLength":12984,"byteOffset":249284,"target":34962},{"buffer":0,"byteLength":17312,"byteOffset":262268,"target":34962},{"buffer":0,"byteLength":8656,"byteOffset":279580,"target":34962},{"buffer":0,"byteLength":8656,"byteOffset":288236,"target":34962},{"buffer":0,"byteLength":4410,"byteOffset":296892,"target":34963},{"buffer":0,"byteLength":7488,"byteOffset":301304,"target":34962},{"buffer":0,"byteLength":7488,"byteOffset":308792,"target":34962},{"buffer":0,"byteLength":9984,"byteOffset":316280,"target":34962},{"buffer":0,"byteLength":4992,"byteOffset":326264,"target":34962},{"buffer":0,"byteLength":4992,"byteOffset":331256,"target":34962},{"buffer":0,"byteLength":336,"byteOffset":336248,"target":34963},{"buffer":0,"byteLength":2016,"byteOffset":336584,"target":34962},{"buffer":0,"byteLength":2016,"byteOffset":338600,"target":34962},{"buffer":0,"byteLength":1344,"byteOffset":340616,"target":34962},{"buffer":0,"byteLength":1344,"byteOffset":341960,"target":34962}],"buffers":[{"byteLength":343304,"uri":"SM_Pot02.bin"}],"images":[{"name":"FlatNormal","uri":"FlatNormal.tga"}],"materials":[{"alphaMode":"OPAQUE","doubleSided":false,"extras":{"fromFBX":{"isTruePBR":false,"shadingModel":"Phong"}},"name":"MI_Kitchen_Props_A","normalTexture":{"index":0,"texCoord":0},"pbrMetallicRoughness":{"baseColorFactor":[0.21586050093174,0.21586050093174,0.21586050093174,1],"metallicFactor":0.400000005960464,"roughnessFactor":0.301511347293854}},{"alphaMode":"OPAQUE","doubleSided":false,"extras":{"fromFBX":{"isTruePBR":false,"shadingModel":"Lambert"}},"name":"DefaultMaterial","pbrMetallicRoughness":{"baseColorFactor":[0.5,0.5,0.5,1],"metallicFactor":0.200000002980232,"roughnessFactor":0.800000011920929}}],"meshes":[{"name":"SM_Pot02_LOD0","primitives":[{"attributes":{"NORMAL":3,"POSITION":2,"TANGENT":4,"TEXCOORD_0":5,"TEXCOORD_1":6},"indices":1,"material":0,"mode":4}]},{"name":"SM_Pot02_LOD1","primitives":[{"attributes":{"NORMAL":9,"POSITION":8,"TANGENT":10,"TEXCOORD_0":11,"TEXCOORD_1":12},"indices":7,"material":0,"mode":4}]},{"name":"SM_Pot02_LOD2","primitives":[{"attributes":{"NORMAL":15,"POSITION":14,"TANGENT":16,"TEXCOORD_0":17,"TEXCOORD_1":18},"indices":13,"material":0,"mode":4}]},{"name":"SM_Pot02_LOD3","primitives":[{"attributes":{"NORMAL":21,"POSITION":20,"TANGENT":22,"TEXCOORD_0":23,"TEXCOORD_1":24},"indices":19,"material":0,"mode":4}]},{"name":"SM_Pot02_ConvexHulls","primitives":[{"attributes":{"NORMAL":27,"POSITION":26,"TEXCOORD_0":28,"TEXCOORD_1":29},"indices":25,"material":1,"mode":4}]}],"nodes":[{"children":[1,2,3,4,5],"name":"Kitchen_Props_A_Pot_B_15","originalUnits":0.00999999977648258,"pivot":[0,0,0],"rotation":[0,0,0,1],"scale":[1,1,1],"translation":[0,0,0]},{"mesh":0,"name":"SM_Pot02_LOD0","originalUnits":0.00999999977648258,"pivot":[0,0,0],"rotation":[0,0,0,1],"scale":[1,1,1],"translation":[0,0,0]},{"mesh":4,"name":"SM_Pot02_ConvexHulls","originalUnits":0.00999999977648258,"pivot":[0,0,0],"rotation":[0,0,0,1],"scale":[1,1,1],"translation":[0,0,0]},{"mesh":1,"name":"SM_Pot02_LOD1","originalUnits":0.00999999977648258,"pivot":[0,0,0],"rotation":[0,0,0,1],"scale":[1,1,1],"translation":[0,0,0]},{"mesh":2,"name":"SM_Pot02_LOD2","originalUnits":0.00999999977648258,"pivot":[0,0,0],"rotation":[0,0,0,1],"scale":[1,1,1],"translation":[0,0,0]},{"mesh":3,"name":"SM_Pot02_LOD3","originalUnits":0.00999999977648258,"pivot":[0,0,0],"rotation":[0,0,0,1],"scale":[1,1,1],"translation":[0,0,0]}],"samplers":[{}],"scene":0,"scenes":[{"name":"Root Scene","nodes":[0]}],"textures":[{"name":"T_Default_N","sampler":0,"source":0}]}