{"accessors":[{"bufferView":0,"byteOffset":0,"componentType":5126,"count":1,"max":[0],"min":[0],"type":"SCALAR"},{"bufferView":1,"byteOffset":0,"componentType":5123,"count":336,"type":"SCALAR"},{"bufferView":2,"byteOffset":0,"componentType":5126,"count":136,"max":[0.0276954956352711,0.197456374764442,0.160991340875626],"min":[-0.00919723603874,-0.19745637476444,-0.16099134087563],"type":"VEC3"},{"bufferView":3,"byteOffset":0,"componentType":5126,"count":136,"type":"VEC3"},{"bufferView":4,"byteOffset":0,"componentType":5126,"count":136,"type":"VEC4"},{"bufferView":5,"byteOffset":0,"componentType":5126,"count":136,"type":"VEC2"},{"bufferView":6,"byteOffset":0,"componentType":5126,"count":136,"type":"VEC2"},{"bufferView":7,"byteOffset":0,"componentType":5123,"count":246,"type":"SCALAR"},{"bufferView":8,"byteOffset":0,"componentType":5126,"count":106,"max":[0.0276954956352711,0.197456374764442,0.160991340875626],"min":[-0.00919723603874,-0.19745637476444,-0.16099134087563],"type":"VEC3"},{"bufferView":9,"byteOffset":0,"componentType":5126,"count":106,"type":"VEC3"},{"bufferView":10,"byteOffset":0,"componentType":5126,"count":106,"type":"VEC4"},{"bufferView":11,"byteOffset":0,"componentType":5126,"count":106,"type":"VEC2"},{"bufferView":12,"byteOffset":0,"componentType":5126,"count":106,"type":"VEC2"},{"bufferView":13,"byteOffset":0,"componentType":5123,"count":162,"type":"SCALAR"},{"bufferView":14,"byteOffset":0,"componentType":5126,"count":78,"max":[0.0276954956352711,0.197456374764442,0.161633178591728],"min":[-0.00919723603874,-0.19745637476444,-0.16099134087563],"type":"VEC3"},{"bufferView":15,"byteOffset":0,"componentType":5126,"count":78,"type":"VEC3"},{"bufferView":16,"byteOffset":0,"componentType":5126,"count":78,"type":"VEC4"},{"bufferView":17,"byteOffset":0,"componentType":5126,"count":78,"type":"VEC2"},{"bufferView":18,"byteOffset":0,"componentType":5126,"count":78,"type":"VEC2"},{"bufferView":19,"byteOffset":0,"componentType":5123,"count":72,"type":"SCALAR"},{"bufferView":20,"byteOffset":0,"componentType":5126,"count":40,"max":[0.0276954565197229,0.197456374764442,0.171893268823624],"min":[-0.008560388349,-0.20867922902107,-0.16403079032898],"type":"VEC3"},{"bufferView":21,"byteOffset":0,"componentType":5126,"count":40,"type":"VEC3"},{"bufferView":22,"byteOffset":0,"componentType":5126,"count":40,"type":"VEC4"},{"bufferView":23,"byteOffset":0,"componentType":5126,"count":40,"type":"VEC2"},{"bufferView":24,"byteOffset":0,"componentType":5126,"count":40,"type":"VEC2"},{"bufferView":25,"byteOffset":0,"componentType":5123,"count":6,"type":"SCALAR"},{"bufferView":26,"byteOffset":0,"componentType":5126,"count":4,"max":[0.0104425689205527,0.148767441511154,0.110480032861233],"min":[0.0104425074532628,-0.14876744151115,-0.11048004031181],"type":"VEC3"},{"bufferView":27,"byteOffset":0,"componentType":5126,"count":4,"type":"VEC3"},{"bufferView":28,"byteOffset":0,"componentType":5126,"count":4,"type":"VEC4"},{"bufferView":29,"byteOffset":0,"componentType":5126,"count":4,"type":"VEC2"},{"bufferView":30,"byteOffset":0,"componentType":5126,"count":4,"type":"VEC2"},{"bufferView":31,"byteOffset":0,"componentType":5123,"count":6,"type":"SCALAR"},{"bufferView":32,"byteOffset":0,"componentType":5126,"count":4,"max":[0.0104425689205527,0.148767441511154,0.110480032861233],"min":[0.0104425074532628,-0.14876744151115,-0.11048004031181],"type":"VEC3"},{"bufferView":33,"byteOffset":0,"componentType":5126,"count":4,"type":"VEC3"},{"bufferView":34,"byteOffset":0,"componentType":5126,"count":4,"type":"VEC4"},{"bufferView":35,"byteOffset":0,"componentType":5126,"count":4,"type":"VEC2"},{"bufferView":36,"byteOffset":0,"componentType":5126,"count":4,"type":"VEC2"},{"bufferView":37,"byteOffset":0,"componentType":5123,"count":6,"type":"SCALAR"},{"bufferView":38,"byteOffset":0,"componentType":5126,"count":4,"max":[0.0104425689205527,0.148767441511154,0.110480032861233],"min":[0.0104425074532628,-0.14876744151115,-0.11048004031181],"type":"VEC3"},{"bufferView":39,"byteOffset":0,"componentType":5126,"count":4,"type":"VEC3"},{"bufferView":40,"byteOffset":0,"componentType":5126,"count":4,"type":"VEC4"},{"bufferView":41,"byteOffset":0,"componentType":5126,"count":4,"type":"VEC2"},{"bufferView":42,"byteOffset":0,"componentType":5126,"count":4,"type":"VEC2"},{"bufferView":43,"byteOffset":0,"componentType":5123,"count":6,"type":"SCALAR"},{"bufferView":44,"byteOffset":0,"componentType":5126,"count":4,"max":[0.0104425689205527,0.148767441511154,0.110480032861233],"min":[0.0104425074532628,-0.14876744151115,-0.11048004031181],"type":"VEC3"},{"bufferView":45,"byteOffset":0,"componentType":5126,"count":4,"type":"VEC3"},{"bufferView":46,"byteOffset":0,"componentType":5126,"count":4,"type":"VEC4"},{"bufferView":47,"byteOffset":0,"componentType":5126,"count":4,"type":"VEC2"},{"bufferView":48,"byteOffset":0,"componentType":5126,"count":4,"type":"VEC2"},{"bufferView":49,"byteOffset":0,"componentType":5123,"count":6,"type":"SCALAR"},{"bufferView":50,"byteOffset":0,"componentType":5126,"count":4,"max":[0.0152838481590152,0.145577549934387,0.108618021011353],"min":[0.0152837857604027,-0.14557756483555,-0.10861802101135],"type":"VEC3"},{"bufferView":51,"byteOffset":0,"componentType":5126,"count":4,"type":"VEC3"},{"bufferView":52,"byteOffset":0,"componentType":5126,"count":4,"type":"VEC4"},{"bufferView":53,"byteOffset":0,"componentType":5126,"count":4,"type":"VEC2"},{"bufferView":54,"byteOffset":0,"componentType":5126,"count":4,"type":"VEC2"},{"bufferView":55,"byteOffset":0,"componentType":5123,"count":6,"type":"SCALAR"},{"bufferView":56,"byteOffset":0,"componentType":5126,"count":4,"max":[0.0152838481590152,0.145577549934387,0.108618021011353],"min":[0.0152837857604027,-0.14557756483555,-0.10861802101135],"type":"VEC3"},{"bufferView":57,"byteOffset":0,"componentType":5126,"count":4,"type":"VEC3"},{"bufferView":58,"byteOffset":0,"componentType":5126,"count":4,"type":"VEC4"},{"bufferView":59,"byteOffset":0,"componentType":5126,"count":4,"type":"VEC2"},{"bufferView":60,"byteOffset":0,"componentType":5126,"count":4,"type":"VEC2"},{"bufferView":61,"byteOffset":0,"componentType":5123,"count":6,"type":"SCALAR"},{"bufferView":62,"byteOffset":0,"componentType":5126,"count":4,"max":[0.0152838481590152,0.145577549934387,0.108618021011353],"min":[0.0152837857604027,-0.14557756483555,-0.10861802101135],"type":"VEC3"},{"bufferView":63,"byteOffset":0,"componentType":5126,"count":4,"type":"VEC3"},{"bufferView":64,"byteOffset":0,"componentType":5126,"count":4,"type":"VEC4"},{"bufferView":65,"byteOffset":0,"componentType":5126,"count":4,"type":"VEC2"},{"bufferView":66,"byteOffset":0,"componentType":5126,"count":4,"type":"VEC2"},{"bufferView":67,"byteOffset":0,"componentType":5123,"count":6,"type":"SCALAR"},{"bufferView":68,"byteOffset":0,"componentType":5126,"count":4,"max":[0.0152838481590152,0.145577549934387,0.108618021011353],"min":[0.0152837857604027,-0.14557756483555,-0.10861802101135],"type":"VEC3"},{"bufferView":69,"byteOffset":0,"componentType":5126,"count":4,"type":"VEC3"},{"bufferView":70,"byteOffset":0,"componentType":5126,"count":4,"type":"VEC4"},{"bufferView":71,"byteOffset":0,"componentType":5126,"count":4,"type":"VEC2"},{"bufferView":72,"byteOffset":0,"componentType":5126,"count":4,"type":"VEC2"},{"bufferView":73,"byteOffset":0,"componentType":5123,"count":216,"type":"SCALAR"},{"bufferView":74,"byteOffset":0,"componentType":5126,"count":194,"max":[0.0291367825120687,0.198894292116165,0.163298323750496],"min":[-0.01121934410185,-0.19889767467976,-0.16243009269237],"type":"VEC3"},{"bufferView":75,"byteOffset":0,"componentType":5126,"count":194,"type":"VEC3"},{"bufferView":76,"byteOffset":0,"componentType":5126,"count":194,"type":"VEC2"},{"bufferView":77,"byteOffset":0,"componentType":5126,"count":194,"type":"VEC2"}],"animations":[{"channels":[],"name":"Unreal Take","samplers":[]}],"asset":{"generator":"FBX2glTF v0.13.0","version":"2.0"},"bufferViews":[{"buffer":0,"byteLength":4,"byteOffset":0},{"buffer":0,"byteLength":672,"byteOffset":4,"target":34963},{"buffer":0,"byteLength":1632,"byteOffset":676,"target":34962},{"buffer":0,"byteLength":1632,"byteOffset":2308,"target":34962},{"buffer":0,"byteLength":2176,"byteOffset":3940,"target":34962},{"buffer":0,"byteLength":1088,"byteOffset":6116,"target":34962},{"buffer":0,"byteLength":1088,"byteOffset":7204,"target":34962},{"buffer":0,"byteLength":492,"byteOffset":8292,"target":34963},{"buffer":0,"byteLength":1272,"byteOffset":8784,"target":34962},{"buffer":0,"byteLength":1272,"byteOffset":10056,"target":34962},{"buffer":0,"byteLength":1696,"byteOffset":11328,"target":34962},{"buffer":0,"byteLength":848,"byteOffset":13024,"target":34962},{"buffer":0,"byteLength":848,"byteOffset":13872,"target":34962},{"buffer":0,"byteLength":324,"byteOffset":14720,"target":34963},{"buffer":0,"byteLength":936,"byteOffset":15044,"target":34962},{"buffer":0,"byteLength":936,"byteOffset":15980,"target":34962},{"buffer":0,"byteLength":1248,"byteOffset":16916,"target":34962},{"buffer":0,"byteLength":624,"byteOffset":18164,"target":34962},{"buffer":0,"byteLength":624,"byteOffset":18788,"target":34962},{"buffer":0,"byteLength":144,"byteOffset":19412,"target":34963},{"buffer":0,"byteLength":480,"byteOffset":19556,"target":34962},{"buffer":0,"byteLength":480,"byteOffset":20036,"target":34962},{"buffer":0,"byteLength":640,"byteOffset":20516,"target":34962},{"buffer":0,"byteLength":320,"byteOffset":21156,"target":34962},{"buffer":0,"byteLength":320,"byteOffset":21476,"target":34962},{"buffer":0,"byteLength":12,"byteOffset":21796,"target":34963},{"buffer":0,"byteLength":48,"byteOffset":21808,"target":34962},{"buffer":0,"byteLength":48,"byteOffset":21856,"target":34962},{"buffer":0,"byteLength":64,"byteOffset":21904,"target":34962},{"buffer":0,"byteLength":32,"byteOffset":21968,"target":34962},{"buffer":0,"byteLength":32,"byteOffset":22000,"target":34962},{"buffer":0,"byteLength":12,"byteOffset":22032,"target":34963},{"buffer":0,"byteLength":48,"byteOffset":22044,"target":34962},{"buffer":0,"byteLength":48,"byteOffset":22092,"target":34962},{"buffer":0,"byteLength":64,"byteOffset":22140,"target":34962},{"buffer":0,"byteLength":32,"byteOffset":22204,"target":34962},{"buffer":0,"byteLength":32,"byteOffset":22236,"target":34962},{"buffer":0,"byteLength":12,"byteOffset":22268,"target":34963},{"buffer":0,"byteLength":48,"byteOffset":22280,"target":34962},{"buffer":0,"byteLength":48,"byteOffset":22328,"target":34962},{"buffer":0,"byteLength":64,"byteOffset":22376,"target":34962},{"buffer":0,"byteLength":32,"byteOffset":22440,"target":34962},{"buffer":0,"byteLength":32,"byteOffset":22472,"target":34962},{"buffer":0,"byteLength":12,"byteOffset":22504,"target":34963},{"buffer":0,"byteLength":48,"byteOffset":22516,"target":34962},{"buffer":0,"byteLength":48,"byteOffset":22564,"target":34962},{"buffer":0,"byteLength":64,"byteOffset":22612,"target":34962},{"buffer":0,"byteLength":32,"byteOffset":22676,"target":34962},{"buffer":0,"byteLength":32,"byteOffset":22708,"target":34962},{"buffer":0,"byteLength":12,"byteOffset":22740,"target":34963},{"buffer":0,"byteLength":48,"byteOffset":22752,"target":34962},{"buffer":0,"byteLength":48,"byteOffset":22800,"target":34962},{"buffer":0,"byteLength":64,"byteOffset":22848,"target":34962},{"buffer":0,"byteLength":32,"byteOffset":22912,"target":34962},{"buffer":0,"byteLength":32,"byteOffset":22944,"target":34962},{"buffer":0,"byteLength":12,"byteOffset":22976,"target":34963},{"buffer":0,"byteLength":48,"byteOffset":22988,"target":34962},{"buffer":0,"byteLength":48,"byteOffset":23036,"target":34962},{"buffer":0,"byteLength":64,"byteOffset":23084,"target":34962},{"buffer":0,"byteLength":32,"byteOffset":23148,"target":34962},{"buffer":0,"byteLength":32,"byteOffset":23180,"target":34962},{"buffer":0,"byteLength":12,"byteOffset":23212,"target":34963},{"buffer":0,"byteLength":48,"byteOffset":23224,"target":34962},{"buffer":0,"byteLength":48,"byteOffset":23272,"target":34962},{"buffer":0,"byteLength":64,"byteOffset":23320,"target":34962},{"buffer":0,"byteLength":32,"byteOffset":23384,"target":34962},{"buffer":0,"byteLength":32,"byteOffset":23416,"target":34962},{"buffer":0,"byteLength":12,"byteOffset":23448,"target":34963},{"buffer":0,"byteLength":48,"byteOffset":23460,"target":34962},{"buffer":0,"byteLength":48,"byteOffset":23508,"target":34962},{"buffer":0,"byteLength":64,"byteOffset":23556,"target":34962},{"buffer":0,"byteLength":32,"byteOffset":23620,"target":34962},{"buffer":0,"byteLength":32,"byteOffset":23652,"target":34962},{"buffer":0,"byteLength":432,"byteOffset":23684,"target":34963},{"buffer":0,"byteLength":2328,"byteOffset":24116,"target":34962},{"buffer":0,"byteLength":2328,"byteOffset":26444,"target":34962},{"buffer":0,"byteLength":1552,"byteOffset":28772,"target":34962},{"buffer":0,"byteLength":1552,"byteOffset":30324,"target":34962}],"buffers":[{"byteLength":31876,"uri":"SM_Picture_04.bin"}],"images":[{"name":"FlatNormal","uri":"FlatNormal.tga"}],"materials":[{"alphaMode":"OPAQUE","doubleSided":false,"extras":{"fromFBX":{"isTruePBR":false,"shadingModel":"Phong"}},"name":"MI_Picture_Frames_A","normalTexture":{"index":0,"texCoord":0},"pbrMetallicRoughness":{"baseColorFactor":[0.21586050093174,0.21586050093174,0.21586050093174,1],"metallicFactor":0.400000005960464,"roughnessFactor":0.301511347293854}},{"alphaMode":"OPAQUE","doubleSided":false,"extras":{"fromFBX":{"isTruePBR":false,"shadingModel":"Phong"}},"name":"MI_Frame_Glass","pbrMetallicRoughness":{"baseColorFactor":[1,1,1,0],"metallicFactor":0.400000005960464,"roughnessFactor":0.301511347293854}},{"alphaMode":"OPAQUE","doubleSided":false,"extras":{"fromFBX":{"isTruePBR":false,"shadingModel":"Phong"}},"name":"MI_Rooster_Pics_Atlas","normalTexture":{"index":0,"texCoord":0},"pbrMetallicRoughness":{"baseColorFactor":[0.21586050093174,0.21586050093174,0.21586050093174,1],"metallicFactor":0.400000005960464,"roughnessFactor":0.301511347293854}},{"alphaMode":"OPAQUE","doubleSided":false,"extras":{"fromFBX":{"isTruePBR":false,"shadingModel":"Lambert"}},"name":"DefaultMaterial","pbrMetallicRoughness":{"baseColorFactor":[0.5,0.5,0.5,1],"metallicFactor":0.200000002980232,"roughnessFactor":0.800000011920929}}],"meshes":[{"name":"SM_Picture_04_LOD0","primitives":[{"attributes":{"NORMAL":3,"POSITION":2,"TANGENT":4,"TEXCOORD_0":5,"TEXCOORD_1":6},"indices":1,"material":0,"mode":4},{"attributes":{"NORMAL":27,"POSITION":26,"TANGENT":28,"TEXCOORD_0":29,"TEXCOORD_1":30},"indices":25,"material":1,"mode":4},{"attributes":{"NORMAL":51,"POSITION":50,"TANGENT":52,"TEXCOORD_0":53,"TEXCOORD_1":54},"indices":49,"material":2,"mode":4}]},{"name":"SM_Picture_04_LOD1","primitives":[{"attributes":{"NORMAL":9,"POSITION":8,"TANGENT":10,"TEXCOORD_0":11,"TEXCOORD_1":12},"indices":7,"material":0,"mode":4},{"attributes":{"NORMAL":33,"POSITION":32,"TANGENT":34,"TEXCOORD_0":35,"TEXCOORD_1":36},"indices":31,"material":1,"mode":4},{"attributes":{"NORMAL":57,"POSITION":56,"TANGENT":58,"TEXCOORD_0":59,"TEXCOORD_1":60},"indices":55,"material":2,"mode":4}]},{"name":"SM_Picture_04_LOD2","primitives":[{"attributes":{"NORMAL":15,"POSITION":14,"TANGENT":16,"TEXCOORD_0":17,"TEXCOORD_1":18},"indices":13,"material":0,"mode":4},{"attributes":{"NORMAL":39,"POSITION":38,"TANGENT":40,"TEXCOORD_0":41,"TEXCOORD_1":42},"indices":37,"material":1,"mode":4},{"attributes":{"NORMAL":63,"POSITION":62,"TANGENT":64,"TEXCOORD_0":65,"TEXCOORD_1":66},"indices":61,"material":2,"mode":4}]},{"name":"SM_Picture_04_LOD3","primitives":[{"attributes":{"NORMAL":21,"POSITION":20,"TANGENT":22,"TEXCOORD_0":23,"TEXCOORD_1":24},"indices":19,"material":0,"mode":4},{"attributes":{"NORMAL":45,"POSITION":44,"TANGENT":46,"TEXCOORD_0":47,"TEXCOORD_1":48},"indices":43,"material":1,"mode":4},{"attributes":{"NORMAL":69,"POSITION":68,"TANGENT":70,"TEXCOORD_0":71,"TEXCOORD_1":72},"indices":67,"material":2,"mode":4}]},{"name":"SM_Picture_04_ConvexHulls","primitives":[{"attributes":{"NORMAL":75,"POSITION":74,"TEXCOORD_0":76,"TEXCOORD_1":77},"indices":73,"material":3,"mode":4}]}],"nodes":[{"children":[1,2,3,4,5],"name":"Rooster_Pictures_Picture_Frame_C_11","originalUnits":0.00999999977648258,"pivot":[0,0,0],"rotation":[0,0,0,1],"scale":[1,1,1],"translation":[0,0,0]},{"mesh":0,"name":"SM_Picture_04_LOD0","originalUnits":0.00999999977648258,"pivot":[0,0,0],"rotation":[0,0,0,1],"scale":[1,1,1],"translation":[0,0,0]},{"mesh":4,"name":"SM_Picture_04_ConvexHulls","originalUnits":0.00999999977648258,"pivot":[0,0,0],"rotation":[0,0,0,1],"scale":[1,1,1],"translation":[0,0,0]},{"mesh":1,"name":"SM_Picture_04_LOD1","originalUnits":0.00999999977648258,"pivot":[0,0,0],"rotation":[0,0,0,1],"scale":[1,1,1],"translation":[0,0,0]},{"mesh":2,"name":"SM_Picture_04_LOD2","originalUnits":0.00999999977648258,"pivot":[0,0,0],"rotation":[0,0,0,1],"scale":[1,1,1],"translation":[0,0,0]},{"mesh":3,"name":"SM_Picture_04_LOD3","originalUnits":0.00999999977648258,"pivot":[0,0,0],"rotation":[0,0,0,1],"scale":[1,1,1],"translation":[0,0,0]}],"samplers":[{}],"scene":0,"scenes":[{"name":"Root Scene","nodes":[0]}],"textures":[{"name":"T_Default_N","sampler":0,"source":0}]}