{"accessors":[{"bufferView":0,"byteOffset":0,"componentType":5126,"count":1,"max":[0],"min":[0],"type":"SCALAR"},{"bufferView":1,"byteOffset":0,"componentType":5123,"count":9996,"type":"SCALAR"},{"bufferView":2,"byteOffset":0,"componentType":5126,"count":2346,"max":[0.21565480530262,0.263068228960037,0.195671454071999],"min":[-0.50193655490875,-0.00000001746375,-0.19567142426968],"type":"VEC3"},{"bufferView":3,"byteOffset":0,"componentType":5126,"count":2346,"type":"VEC3"},{"bufferView":4,"byteOffset":0,"componentType":5126,"count":2346,"type":"VEC4"},{"bufferView":5,"byteOffset":0,"componentType":5126,"count":2346,"type":"VEC2"},{"bufferView":6,"byteOffset":0,"componentType":5126,"count":2346,"type":"VEC2"},{"bufferView":7,"byteOffset":0,"componentType":5123,"count":7497,"type":"SCALAR"},{"bufferView":8,"byteOffset":0,"componentType":5126,"count":1694,"max":[0.21565480530262,0.263068228960037,0.195671454071999],"min":[-0.50193655490875,-0.00000001746375,-0.19567142426968],"type":"VEC3"},{"bufferView":9,"byteOffset":0,"componentType":5126,"count":1694,"type":"VEC3"},{"bufferView":10,"byteOffset":0,"componentType":5126,"count":1694,"type":"VEC4"},{"bufferView":11,"byteOffset":0,"componentType":5126,"count":1694,"type":"VEC2"},{"bufferView":12,"byteOffset":0,"componentType":5126,"count":1694,"type":"VEC2"},{"bufferView":13,"byteOffset":0,"componentType":5123,"count":4998,"type":"SCALAR"},{"bufferView":14,"byteOffset":0,"componentType":5126,"count":1143,"max":[0.21565480530262,0.263068228960037,0.195671454071999],"min":[-0.50193655490875,-0.00000005973185,-0.19567142426968],"type":"VEC3"},{"bufferView":15,"byteOffset":0,"componentType":5126,"count":1143,"type":"VEC3"},{"bufferView":16,"byteOffset":0,"componentType":5126,"count":1143,"type":"VEC4"},{"bufferView":17,"byteOffset":0,"componentType":5126,"count":1143,"type":"VEC2"},{"bufferView":18,"byteOffset":0,"componentType":5126,"count":1143,"type":"VEC2"},{"bufferView":19,"byteOffset":0,"componentType":5123,"count":2496,"type":"SCALAR"},{"bufferView":20,"byteOffset":0,"componentType":5126,"count":627,"max":[0.21565480530262,0.263362407684326,0.197267070412636],"min":[-0.50193655490875,-0.00000524865345,-0.19727410376072],"type":"VEC3"},{"bufferView":21,"byteOffset":0,"componentType":5126,"count":627,"type":"VEC3"},{"bufferView":22,"byteOffset":0,"componentType":5126,"count":627,"type":"VEC4"},{"bufferView":23,"byteOffset":0,"componentType":5126,"count":627,"type":"VEC2"},{"bufferView":24,"byteOffset":0,"componentType":5126,"count":627,"type":"VEC2"},{"bufferView":25,"byteOffset":0,"componentType":5123,"count":312,"type":"SCALAR"},{"bufferView":26,"byteOffset":0,"componentType":5126,"count":310,"max":[0.212393164634705,0.269419848918915,0.19322881102562],"min":[-0.49975690245628,-0.00000001477633,-0.19835975766182],"type":"VEC3"},{"bufferView":27,"byteOffset":0,"componentType":5126,"count":310,"type":"VEC3"},{"bufferView":28,"byteOffset":0,"componentType":5126,"count":310,"type":"VEC2"},{"bufferView":29,"byteOffset":0,"componentType":5126,"count":310,"type":"VEC2"}],"animations":[{"channels":[],"name":"Unreal Take","samplers":[]}],"asset":{"generator":"FBX2glTF v0.13.0","version":"2.0"},"bufferViews":[{"buffer":0,"byteLength":4,"byteOffset":0},{"buffer":0,"byteLength":19992,"byteOffset":4,"target":34963},{"buffer":0,"byteLength":28152,"byteOffset":19996,"target":34962},{"buffer":0,"byteLength":28152,"byteOffset":48148,"target":34962},{"buffer":0,"byteLength":37536,"byteOffset":76300,"target":34962},{"buffer":0,"byteLength":18768,"byteOffset":113836,"target":34962},{"buffer":0,"byteLength":18768,"byteOffset":132604,"target":34962},{"buffer":0,"byteLength":14994,"byteOffset":151372,"target":34963},{"buffer":0,"byteLength":20328,"byteOffset":166368,"target":34962},{"buffer":0,"byteLength":20328,"byteOffset":186696,"target":34962},{"buffer":0,"byteLength":27104,"byteOffset":207024,"target":34962},{"buffer":0,"byteLength":13552,"byteOffset":234128,"target":34962},{"buffer":0,"byteLength":13552,"byteOffset":247680,"target":34962},{"buffer":0,"byteLength":9996,"byteOffset":261232,"target":34963},{"buffer":0,"byteLength":13716,"byteOffset":271228,"target":34962},{"buffer":0,"byteLength":13716,"byteOffset":284944,"target":34962},{"buffer":0,"byteLength":18288,"byteOffset":298660,"target":34962},{"buffer":0,"byteLength":9144,"byteOffset":316948,"target":34962},{"buffer":0,"byteLength":9144,"byteOffset":326092,"target":34962},{"buffer":0,"byteLength":4992,"byteOffset":335236,"target":34963},{"buffer":0,"byteLength":7524,"byteOffset":340228,"target":34962},{"buffer":0,"byteLength":7524,"byteOffset":347752,"target":34962},{"buffer":0,"byteLength":10032,"byteOffset":355276,"target":34962},{"buffer":0,"byteLength":5016,"byteOffset":365308,"target":34962},{"buffer":0,"byteLength":5016,"byteOffset":370324,"target":34962},{"buffer":0,"byteLength":624,"byteOffset":375340,"target":34963},{"buffer":0,"byteLength":3720,"byteOffset":375964,"target":34962},{"buffer":0,"byteLength":3720,"byteOffset":379684,"target":34962},{"buffer":0,"byteLength":2480,"byteOffset":383404,"target":34962},{"buffer":0,"byteLength":2480,"byteOffset":385884,"target":34962}],"buffers":[{"byteLength":388364,"uri":"SM_Pot03.bin"}],"images":[{"name":"FlatNormal","uri":"FlatNormal.tga"}],"materials":[{"alphaMode":"OPAQUE","doubleSided":false,"extras":{"fromFBX":{"isTruePBR":false,"shadingModel":"Phong"}},"name":"MI_Kitchen_Props_A","normalTexture":{"index":0,"texCoord":0},"pbrMetallicRoughness":{"baseColorFactor":[0.21586050093174,0.21586050093174,0.21586050093174,1],"metallicFactor":0.400000005960464,"roughnessFactor":0.301511347293854}},{"alphaMode":"OPAQUE","doubleSided":false,"extras":{"fromFBX":{"isTruePBR":false,"shadingModel":"Lambert"}},"name":"DefaultMaterial","pbrMetallicRoughness":{"baseColorFactor":[0.5,0.5,0.5,1],"metallicFactor":0.200000002980232,"roughnessFactor":0.800000011920929}}],"meshes":[{"name":"SM_Pot03_LOD0","primitives":[{"attributes":{"NORMAL":3,"POSITION":2,"TANGENT":4,"TEXCOORD_0":5,"TEXCOORD_1":6},"indices":1,"material":0,"mode":4}]},{"name":"SM_Pot03_LOD1","primitives":[{"attributes":{"NORMAL":9,"POSITION":8,"TANGENT":10,"TEXCOORD_0":11,"TEXCOORD_1":12},"indices":7,"material":0,"mode":4}]},{"name":"SM_Pot03_LOD2","primitives":[{"attributes":{"NORMAL":15,"POSITION":14,"TANGENT":16,"TEXCOORD_0":17,"TEXCOORD_1":18},"indices":13,"material":0,"mode":4}]},{"name":"SM_Pot03_LOD3","primitives":[{"attributes":{"NORMAL":21,"POSITION":20,"TANGENT":22,"TEXCOORD_0":23,"TEXCOORD_1":24},"indices":19,"material":0,"mode":4}]},{"name":"SM_Pot03_ConvexHulls","primitives":[{"attributes":{"NORMAL":27,"POSITION":26,"TEXCOORD_0":28,"TEXCOORD_1":29},"indices":25,"material":1,"mode":4}]}],"nodes":[{"children":[1,2,3,4,5],"name":"Kitchen_Props_A_Pot_A5","originalUnits":0.00999999977648258,"pivot":[0,0,0],"rotation":[0,0,0,1],"scale":[1,1,1],"translation":[0,0,0]},{"mesh":0,"name":"SM_Pot03_LOD0","originalUnits":0.00999999977648258,"pivot":[0,0,0],"rotation":[0,0,0,1],"scale":[1,1,1],"translation":[0,0,0]},{"mesh":4,"name":"SM_Pot03_ConvexHulls","originalUnits":0.00999999977648258,"pivot":[0,0,0],"rotation":[0,0,0,1],"scale":[1,1,1],"translation":[0,0,0]},{"mesh":1,"name":"SM_Pot03_LOD1","originalUnits":0.00999999977648258,"pivot":[0,0,0],"rotation":[0,0,0,1],"scale":[1,1,1],"translation":[0,0,0]},{"mesh":2,"name":"SM_Pot03_LOD2","originalUnits":0.00999999977648258,"pivot":[0,0,0],"rotation":[0,0,0,1],"scale":[1,1,1],"translation":[0,0,0]},{"mesh":3,"name":"SM_Pot03_LOD3","originalUnits":0.00999999977648258,"pivot":[0,0,0],"rotation":[0,0,0,1],"scale":[1,1,1],"translation":[0,0,0]}],"samplers":[{}],"scene":0,"scenes":[{"name":"Root Scene","nodes":[0]}],"textures":[{"name":"T_Default_N","sampler":0,"source":0}]}