{"accessors":[{"bufferView":0,"byteOffset":0,"componentType":5126,"count":1,"max":[0],"min":[0],"type":"SCALAR"},{"bufferView":1,"byteOffset":0,"componentType":5123,"count":10800,"type":"SCALAR"},{"bufferView":2,"byteOffset":0,"componentType":5126,"count":1998,"max":[0.116899743676186,0.0982729345560074,0.116899706423283],"min":[-0.11689976602793,-0.0000000070732,-0.11689977347851],"type":"VEC3"},{"bufferView":3,"byteOffset":0,"componentType":5126,"count":1998,"type":"VEC3"},{"bufferView":4,"byteOffset":0,"componentType":5126,"count":1998,"type":"VEC4"},{"bufferView":5,"byteOffset":0,"componentType":5126,"count":1998,"type":"VEC2"},{"bufferView":6,"byteOffset":0,"componentType":5126,"count":1998,"type":"VEC2"},{"bufferView":7,"byteOffset":0,"componentType":5123,"count":8100,"type":"SCALAR"},{"bufferView":8,"byteOffset":0,"componentType":5126,"count":1548,"max":[0.116899743676186,0.0982729345560074,0.116899706423283],"min":[-0.11689976602793,-0.00000531351043,-0.11689977347851],"type":"VEC3"},{"bufferView":9,"byteOffset":0,"componentType":5126,"count":1548,"type":"VEC3"},{"bufferView":10,"byteOffset":0,"componentType":5126,"count":1548,"type":"VEC4"},{"bufferView":11,"byteOffset":0,"componentType":5126,"count":1548,"type":"VEC2"},{"bufferView":12,"byteOffset":0,"componentType":5126,"count":1548,"type":"VEC2"},{"bufferView":13,"byteOffset":0,"componentType":5123,"count":5400,"type":"SCALAR"},{"bufferView":14,"byteOffset":0,"componentType":5126,"count":1050,"max":[0.116984605789185,0.0982729345560074,0.117008991539478],"min":[-0.11689976602793,-0.00001338011589,-0.11702892184258],"type":"VEC3"},{"bufferView":15,"byteOffset":0,"componentType":5126,"count":1050,"type":"VEC3"},{"bufferView":16,"byteOffset":0,"componentType":5126,"count":1050,"type":"VEC4"},{"bufferView":17,"byteOffset":0,"componentType":5126,"count":1050,"type":"VEC2"},{"bufferView":18,"byteOffset":0,"componentType":5126,"count":1050,"type":"VEC2"},{"bufferView":19,"byteOffset":0,"componentType":5123,"count":2700,"type":"SCALAR"},{"bufferView":20,"byteOffset":0,"componentType":5126,"count":546,"max":[0.116984605789185,0.0983004346489906,0.117008991539478],"min":[-0.11689976602793,-0.0000518109955,-0.11702892184258],"type":"VEC3"},{"bufferView":21,"byteOffset":0,"componentType":5126,"count":546,"type":"VEC3"},{"bufferView":22,"byteOffset":0,"componentType":5126,"count":546,"type":"VEC4"},{"bufferView":23,"byteOffset":0,"componentType":5126,"count":546,"type":"VEC2"},{"bufferView":24,"byteOffset":0,"componentType":5126,"count":546,"type":"VEC2"},{"bufferView":25,"byteOffset":0,"componentType":5123,"count":306,"type":"SCALAR"},{"bufferView":26,"byteOffset":0,"componentType":5126,"count":292,"max":[0.116530492901802,0.0997086390852928,0.116442382335663],"min":[-0.11554062366486,-0.00114607694559,-0.1097624078393],"type":"VEC3"},{"bufferView":27,"byteOffset":0,"componentType":5126,"count":292,"type":"VEC3"},{"bufferView":28,"byteOffset":0,"componentType":5126,"count":292,"type":"VEC2"},{"bufferView":29,"byteOffset":0,"componentType":5126,"count":292,"type":"VEC2"}],"animations":[{"channels":[],"name":"Unreal Take","samplers":[]}],"asset":{"generator":"FBX2glTF v0.13.0","version":"2.0"},"bufferViews":[{"buffer":0,"byteLength":4,"byteOffset":0},{"buffer":0,"byteLength":21600,"byteOffset":4,"target":34963},{"buffer":0,"byteLength":23976,"byteOffset":21604,"target":34962},{"buffer":0,"byteLength":23976,"byteOffset":45580,"target":34962},{"buffer":0,"byteLength":31968,"byteOffset":69556,"target":34962},{"buffer":0,"byteLength":15984,"byteOffset":101524,"target":34962},{"buffer":0,"byteLength":15984,"byteOffset":117508,"target":34962},{"buffer":0,"byteLength":16200,"byteOffset":133492,"target":34963},{"buffer":0,"byteLength":18576,"byteOffset":149692,"target":34962},{"buffer":0,"byteLength":18576,"byteOffset":168268,"target":34962},{"buffer":0,"byteLength":24768,"byteOffset":186844,"target":34962},{"buffer":0,"byteLength":12384,"byteOffset":211612,"target":34962},{"buffer":0,"byteLength":12384,"byteOffset":223996,"target":34962},{"buffer":0,"byteLength":10800,"byteOffset":236380,"target":34963},{"buffer":0,"byteLength":12600,"byteOffset":247180,"target":34962},{"buffer":0,"byteLength":12600,"byteOffset":259780,"target":34962},{"buffer":0,"byteLength":16800,"byteOffset":272380,"target":34962},{"buffer":0,"byteLength":8400,"byteOffset":289180,"target":34962},{"buffer":0,"byteLength":8400,"byteOffset":297580,"target":34962},{"buffer":0,"byteLength":5400,"byteOffset":305980,"target":34963},{"buffer":0,"byteLength":6552,"byteOffset":311380,"target":34962},{"buffer":0,"byteLength":6552,"byteOffset":317932,"target":34962},{"buffer":0,"byteLength":8736,"byteOffset":324484,"target":34962},{"buffer":0,"byteLength":4368,"byteOffset":333220,"target":34962},{"buffer":0,"byteLength":4368,"byteOffset":337588,"target":34962},{"buffer":0,"byteLength":612,"byteOffset":341956,"target":34963},{"buffer":0,"byteLength":3504,"byteOffset":342568,"target":34962},{"buffer":0,"byteLength":3504,"byteOffset":346072,"target":34962},{"buffer":0,"byteLength":2336,"byteOffset":349576,"target":34962},{"buffer":0,"byteLength":2336,"byteOffset":351912,"target":34962}],"buffers":[{"byteLength":354248,"uri":"SM_Plate_Mug_Bowl_A.bin"}],"images":[{"name":"FlatNormal","uri":"FlatNormal.tga"}],"materials":[{"alphaMode":"OPAQUE","doubleSided":false,"extras":{"fromFBX":{"isTruePBR":false,"shadingModel":"Phong"}},"name":"MI_Plateware","normalTexture":{"index":0,"texCoord":0},"pbrMetallicRoughness":{"baseColorFactor":[0.21586050093174,0.21586050093174,0.21586050093174,1],"metallicFactor":0.400000005960464,"roughnessFactor":0.301511347293854}},{"alphaMode":"OPAQUE","doubleSided":false,"extras":{"fromFBX":{"isTruePBR":false,"shadingModel":"Lambert"}},"name":"DefaultMaterial","pbrMetallicRoughness":{"baseColorFactor":[0.5,0.5,0.5,1],"metallicFactor":0.200000002980232,"roughnessFactor":0.800000011920929}}],"meshes":[{"name":"SM_Plate_Mug_Bowl_A_LOD0","primitives":[{"attributes":{"NORMAL":3,"POSITION":2,"TANGENT":4,"TEXCOORD_0":5,"TEXCOORD_1":6},"indices":1,"material":0,"mode":4}]},{"name":"SM_Plate_Mug_Bowl_A_LOD1","primitives":[{"attributes":{"NORMAL":9,"POSITION":8,"TANGENT":10,"TEXCOORD_0":11,"TEXCOORD_1":12},"indices":7,"material":0,"mode":4}]},{"name":"SM_Plate_Mug_Bowl_A_LOD2","primitives":[{"attributes":{"NORMAL":15,"POSITION":14,"TANGENT":16,"TEXCOORD_0":17,"TEXCOORD_1":18},"indices":13,"material":0,"mode":4}]},{"name":"SM_Plate_Mug_Bowl_A_LOD3","primitives":[{"attributes":{"NORMAL":21,"POSITION":20,"TANGENT":22,"TEXCOORD_0":23,"TEXCOORD_1":24},"indices":19,"material":0,"mode":4}]},{"name":"SM_Plate_Mug_Bowl_A_ConvexHulls","primitives":[{"attributes":{"NORMAL":27,"POSITION":26,"TEXCOORD_0":28,"TEXCOORD_1":29},"indices":25,"material":1,"mode":4}]}],"nodes":[{"children":[1,2,3,4,5],"name":"Kitchen_Props_B_Bowl_A10","originalUnits":0.00999999977648258,"pivot":[0,0,0],"rotation":[0,0,0,1],"scale":[1,1,1],"translation":[0,0,0]},{"mesh":0,"name":"SM_Plate_Mug_Bowl_A_LOD0","originalUnits":0.00999999977648258,"pivot":[0,0,0],"rotation":[0,0,0,1],"scale":[1,1,1],"translation":[0,0,0]},{"mesh":4,"name":"SM_Plate_Mug_Bowl_A_ConvexHulls","originalUnits":0.00999999977648258,"pivot":[0,0,0],"rotation":[0,0,0,1],"scale":[1,1,1],"translation":[0,0,0]},{"mesh":1,"name":"SM_Plate_Mug_Bowl_A_LOD1","originalUnits":0.00999999977648258,"pivot":[0,0,0],"rotation":[0,0,0,1],"scale":[1,1,1],"translation":[0,0,0]},{"mesh":2,"name":"SM_Plate_Mug_Bowl_A_LOD2","originalUnits":0.00999999977648258,"pivot":[0,0,0],"rotation":[0,0,0,1],"scale":[1,1,1],"translation":[0,0,0]},{"mesh":3,"name":"SM_Plate_Mug_Bowl_A_LOD3","originalUnits":0.00999999977648258,"pivot":[0,0,0],"rotation":[0,0,0,1],"scale":[1,1,1],"translation":[0,0,0]}],"samplers":[{}],"scene":0,"scenes":[{"name":"Root Scene","nodes":[0]}],"textures":[{"name":"T_Default_N","sampler":0,"source":0}]}