{"accessors":[{"bufferView":0,"byteOffset":0,"componentType":5126,"count":1,"max":[0],"min":[0],"type":"SCALAR"},{"bufferView":1,"byteOffset":0,"componentType":5123,"count":15168,"type":"SCALAR"},{"bufferView":2,"byteOffset":0,"componentType":5126,"count":2846,"max":[0.167366087436676,0.039747167378664,0.167366176843643],"min":[-0.16736616194248,-0.00575502868742,-0.16736595332623],"type":"VEC3"},{"bufferView":3,"byteOffset":0,"componentType":5126,"count":2846,"type":"VEC3"},{"bufferView":4,"byteOffset":0,"componentType":5126,"count":2846,"type":"VEC4"},{"bufferView":5,"byteOffset":0,"componentType":5126,"count":2846,"type":"VEC2"},{"bufferView":6,"byteOffset":0,"componentType":5126,"count":2846,"type":"VEC2"},{"bufferView":7,"byteOffset":0,"componentType":5123,"count":11376,"type":"SCALAR"},{"bufferView":8,"byteOffset":0,"componentType":5126,"count":2214,"max":[0.167366087436676,0.039747167378664,0.167366176843643],"min":[-0.16736616194248,-0.00575502868742,-0.16736595332623],"type":"VEC3"},{"bufferView":9,"byteOffset":0,"componentType":5126,"count":2214,"type":"VEC3"},{"bufferView":10,"byteOffset":0,"componentType":5126,"count":2214,"type":"VEC4"},{"bufferView":11,"byteOffset":0,"componentType":5126,"count":2214,"type":"VEC2"},{"bufferView":12,"byteOffset":0,"componentType":5126,"count":2214,"type":"VEC2"},{"bufferView":13,"byteOffset":0,"componentType":5123,"count":7584,"type":"SCALAR"},{"bufferView":14,"byteOffset":0,"componentType":5126,"count":1582,"max":[0.167386054992676,0.039747167378664,0.167366176843643],"min":[-0.16736616194248,-0.00576188834384,-0.16736595332623],"type":"VEC3"},{"bufferView":15,"byteOffset":0,"componentType":5126,"count":1582,"type":"VEC3"},{"bufferView":16,"byteOffset":0,"componentType":5126,"count":1582,"type":"VEC4"},{"bufferView":17,"byteOffset":0,"componentType":5126,"count":1582,"type":"VEC2"},{"bufferView":18,"byteOffset":0,"componentType":5126,"count":1582,"type":"VEC2"},{"bufferView":19,"byteOffset":0,"componentType":5123,"count":3792,"type":"SCALAR"},{"bufferView":20,"byteOffset":0,"componentType":5126,"count":833,"max":[0.167386054992676,0.039768397808075,0.167399734258652],"min":[-0.16721162199974,-0.00579920085147,-0.16746844351292],"type":"VEC3"},{"bufferView":21,"byteOffset":0,"componentType":5126,"count":833,"type":"VEC3"},{"bufferView":22,"byteOffset":0,"componentType":5126,"count":833,"type":"VEC4"},{"bufferView":23,"byteOffset":0,"componentType":5126,"count":833,"type":"VEC2"},{"bufferView":24,"byteOffset":0,"componentType":5126,"count":833,"type":"VEC2"},{"bufferView":25,"byteOffset":0,"componentType":5123,"count":336,"type":"SCALAR"},{"bufferView":26,"byteOffset":0,"componentType":5126,"count":300,"max":[0.16462005674839,0.0412045642733574,0.163921311497688],"min":[-0.16587093472481,-0.00704393628985,-0.16825357079506],"type":"VEC3"},{"bufferView":27,"byteOffset":0,"componentType":5126,"count":300,"type":"VEC3"},{"bufferView":28,"byteOffset":0,"componentType":5126,"count":300,"type":"VEC2"},{"bufferView":29,"byteOffset":0,"componentType":5126,"count":300,"type":"VEC2"}],"animations":[{"channels":[],"name":"Unreal Take","samplers":[]}],"asset":{"generator":"FBX2glTF v0.13.0","version":"2.0"},"bufferViews":[{"buffer":0,"byteLength":4,"byteOffset":0},{"buffer":0,"byteLength":30336,"byteOffset":4,"target":34963},{"buffer":0,"byteLength":34152,"byteOffset":30340,"target":34962},{"buffer":0,"byteLength":34152,"byteOffset":64492,"target":34962},{"buffer":0,"byteLength":45536,"byteOffset":98644,"target":34962},{"buffer":0,"byteLength":22768,"byteOffset":144180,"target":34962},{"buffer":0,"byteLength":22768,"byteOffset":166948,"target":34962},{"buffer":0,"byteLength":22752,"byteOffset":189716,"target":34963},{"buffer":0,"byteLength":26568,"byteOffset":212468,"target":34962},{"buffer":0,"byteLength":26568,"byteOffset":239036,"target":34962},{"buffer":0,"byteLength":35424,"byteOffset":265604,"target":34962},{"buffer":0,"byteLength":17712,"byteOffset":301028,"target":34962},{"buffer":0,"byteLength":17712,"byteOffset":318740,"target":34962},{"buffer":0,"byteLength":15168,"byteOffset":336452,"target":34963},{"buffer":0,"byteLength":18984,"byteOffset":351620,"target":34962},{"buffer":0,"byteLength":18984,"byteOffset":370604,"target":34962},{"buffer":0,"byteLength":25312,"byteOffset":389588,"target":34962},{"buffer":0,"byteLength":12656,"byteOffset":414900,"target":34962},{"buffer":0,"byteLength":12656,"byteOffset":427556,"target":34962},{"buffer":0,"byteLength":7584,"byteOffset":440212,"target":34963},{"buffer":0,"byteLength":9996,"byteOffset":447796,"target":34962},{"buffer":0,"byteLength":9996,"byteOffset":457792,"target":34962},{"buffer":0,"byteLength":13328,"byteOffset":467788,"target":34962},{"buffer":0,"byteLength":6664,"byteOffset":481116,"target":34962},{"buffer":0,"byteLength":6664,"byteOffset":487780,"target":34962},{"buffer":0,"byteLength":672,"byteOffset":494444,"target":34963},{"buffer":0,"byteLength":3600,"byteOffset":495116,"target":34962},{"buffer":0,"byteLength":3600,"byteOffset":498716,"target":34962},{"buffer":0,"byteLength":2400,"byteOffset":502316,"target":34962},{"buffer":0,"byteLength":2400,"byteOffset":504716,"target":34962}],"buffers":[{"byteLength":507116,"uri":"SM_Plate_Mug_Plate_A.bin"}],"images":[{"name":"FlatNormal","uri":"FlatNormal.tga"}],"materials":[{"alphaMode":"OPAQUE","doubleSided":false,"extras":{"fromFBX":{"isTruePBR":false,"shadingModel":"Phong"}},"name":"MI_Plateware","normalTexture":{"index":0,"texCoord":0},"pbrMetallicRoughness":{"baseColorFactor":[0.21586050093174,0.21586050093174,0.21586050093174,1],"metallicFactor":0.400000005960464,"roughnessFactor":0.301511347293854}},{"alphaMode":"OPAQUE","doubleSided":false,"extras":{"fromFBX":{"isTruePBR":false,"shadingModel":"Lambert"}},"name":"DefaultMaterial","pbrMetallicRoughness":{"baseColorFactor":[0.5,0.5,0.5,1],"metallicFactor":0.200000002980232,"roughnessFactor":0.800000011920929}}],"meshes":[{"name":"SM_Plate_Mug_Plate_A_LOD0","primitives":[{"attributes":{"NORMAL":3,"POSITION":2,"TANGENT":4,"TEXCOORD_0":5,"TEXCOORD_1":6},"indices":1,"material":0,"mode":4}]},{"name":"SM_Plate_Mug_Plate_A_LOD1","primitives":[{"attributes":{"NORMAL":9,"POSITION":8,"TANGENT":10,"TEXCOORD_0":11,"TEXCOORD_1":12},"indices":7,"material":0,"mode":4}]},{"name":"SM_Plate_Mug_Plate_A_LOD2","primitives":[{"attributes":{"NORMAL":15,"POSITION":14,"TANGENT":16,"TEXCOORD_0":17,"TEXCOORD_1":18},"indices":13,"material":0,"mode":4}]},{"name":"SM_Plate_Mug_Plate_A_LOD3","primitives":[{"attributes":{"NORMAL":21,"POSITION":20,"TANGENT":22,"TEXCOORD_0":23,"TEXCOORD_1":24},"indices":19,"material":0,"mode":4}]},{"name":"SM_Plate_Mug_Plate_A_ConvexHulls","primitives":[{"attributes":{"NORMAL":27,"POSITION":26,"TEXCOORD_0":28,"TEXCOORD_1":29},"indices":25,"material":1,"mode":4}]}],"nodes":[{"children":[1,2,3,4,5],"name":"Kitchen_Props_B_Plate_A9_26","originalUnits":0.00999999977648258,"pivot":[0,0,0],"rotation":[0,0,0,1],"scale":[1,1,1],"translation":[0,0,0]},{"mesh":0,"name":"SM_Plate_Mug_Plate_A_LOD0","originalUnits":0.00999999977648258,"pivot":[0,0,0],"rotation":[0,0,0,1],"scale":[1,1,1],"translation":[0,0,0]},{"mesh":4,"name":"SM_Plate_Mug_Plate_A_ConvexHulls","originalUnits":0.00999999977648258,"pivot":[0,0,0],"rotation":[0,0,0,1],"scale":[1,1,1],"translation":[0,0,0]},{"mesh":1,"name":"SM_Plate_Mug_Plate_A_LOD1","originalUnits":0.00999999977648258,"pivot":[0,0,0],"rotation":[0,0,0,1],"scale":[1,1,1],"translation":[0,0,0]},{"mesh":2,"name":"SM_Plate_Mug_Plate_A_LOD2","originalUnits":0.00999999977648258,"pivot":[0,0,0],"rotation":[0,0,0,1],"scale":[1,1,1],"translation":[0,0,0]},{"mesh":3,"name":"SM_Plate_Mug_Plate_A_LOD3","originalUnits":0.00999999977648258,"pivot":[0,0,0],"rotation":[0,0,0,1],"scale":[1,1,1],"translation":[0,0,0]}],"samplers":[{}],"scene":0,"scenes":[{"name":"Root Scene","nodes":[0]}],"textures":[{"name":"T_Default_N","sampler":0,"source":0}]}