{"accessors":[{"bufferView":0,"byteOffset":0,"componentType":5126,"count":1,"max":[0],"min":[0],"type":"SCALAR"},{"bufferView":1,"byteOffset":0,"componentType":5123,"count":3936,"type":"SCALAR"},{"bufferView":2,"byteOffset":0,"componentType":5126,"count":805,"max":[0.369381219148636,0.00859117694199085,0.267058312892914],"min":[-0.36938115954399,-0.00455495435745,-0.27065962553024],"type":"VEC3"},{"bufferView":3,"byteOffset":0,"componentType":5126,"count":805,"type":"VEC3"},{"bufferView":4,"byteOffset":0,"componentType":5126,"count":805,"type":"VEC4"},{"bufferView":5,"byteOffset":0,"componentType":5126,"count":805,"type":"VEC2"},{"bufferView":6,"byteOffset":0,"componentType":5126,"count":805,"type":"VEC2"},{"bufferView":7,"byteOffset":0,"componentType":5123,"count":2952,"type":"SCALAR"},{"bufferView":8,"byteOffset":0,"componentType":5126,"count":644,"max":[0.369381219148636,0.00859117694199085,0.267058312892914],"min":[-0.36938115954399,-0.00455495435745,-0.27065962553024],"type":"VEC3"},{"bufferView":9,"byteOffset":0,"componentType":5126,"count":644,"type":"VEC3"},{"bufferView":10,"byteOffset":0,"componentType":5126,"count":644,"type":"VEC4"},{"bufferView":11,"byteOffset":0,"componentType":5126,"count":644,"type":"VEC2"},{"bufferView":12,"byteOffset":0,"componentType":5126,"count":644,"type":"VEC2"},{"bufferView":13,"byteOffset":0,"componentType":5123,"count":1968,"type":"SCALAR"},{"bufferView":14,"byteOffset":0,"componentType":5126,"count":462,"max":[0.369453102350235,0.00859117694199085,0.267058312892914],"min":[-0.36940458416939,-0.00455495435745,-0.27065962553024],"type":"VEC3"},{"bufferView":15,"byteOffset":0,"componentType":5126,"count":462,"type":"VEC3"},{"bufferView":16,"byteOffset":0,"componentType":5126,"count":462,"type":"VEC4"},{"bufferView":17,"byteOffset":0,"componentType":5126,"count":462,"type":"VEC2"},{"bufferView":18,"byteOffset":0,"componentType":5126,"count":462,"type":"VEC2"},{"bufferView":19,"byteOffset":0,"componentType":5123,"count":984,"type":"SCALAR"},{"bufferView":20,"byteOffset":0,"componentType":5126,"count":247,"max":[0.370101243257523,0.00859117694199085,0.267486780881882],"min":[-0.36959090828896,-0.00415422255173,-0.27210566401482],"type":"VEC3"},{"bufferView":21,"byteOffset":0,"componentType":5126,"count":247,"type":"VEC3"},{"bufferView":22,"byteOffset":0,"componentType":5126,"count":247,"type":"VEC4"},{"bufferView":23,"byteOffset":0,"componentType":5126,"count":247,"type":"VEC2"},{"bufferView":24,"byteOffset":0,"componentType":5126,"count":247,"type":"VEC2"},{"bufferView":25,"byteOffset":0,"componentType":5123,"count":120,"type":"SCALAR"},{"bufferView":26,"byteOffset":0,"componentType":5126,"count":66,"max":[0.370381206274033,0.00989200733602047,0.268749982118607],"min":[-0.37038120627403,-0.00561611540616,-0.27165970206261],"type":"VEC3"},{"bufferView":27,"byteOffset":0,"componentType":5126,"count":66,"type":"VEC3"},{"bufferView":28,"byteOffset":0,"componentType":5126,"count":66,"type":"VEC2"},{"bufferView":29,"byteOffset":0,"componentType":5126,"count":66,"type":"VEC2"}],"animations":[{"channels":[],"name":"Unreal Take","samplers":[]}],"asset":{"generator":"FBX2glTF v0.13.0","version":"2.0"},"bufferViews":[{"buffer":0,"byteLength":4,"byteOffset":0},{"buffer":0,"byteLength":7872,"byteOffset":4,"target":34963},{"buffer":0,"byteLength":9660,"byteOffset":7876,"target":34962},{"buffer":0,"byteLength":9660,"byteOffset":17536,"target":34962},{"buffer":0,"byteLength":12880,"byteOffset":27196,"target":34962},{"buffer":0,"byteLength":6440,"byteOffset":40076,"target":34962},{"buffer":0,"byteLength":6440,"byteOffset":46516,"target":34962},{"buffer":0,"byteLength":5904,"byteOffset":52956,"target":34963},{"buffer":0,"byteLength":7728,"byteOffset":58860,"target":34962},{"buffer":0,"byteLength":7728,"byteOffset":66588,"target":34962},{"buffer":0,"byteLength":10304,"byteOffset":74316,"target":34962},{"buffer":0,"byteLength":5152,"byteOffset":84620,"target":34962},{"buffer":0,"byteLength":5152,"byteOffset":89772,"target":34962},{"buffer":0,"byteLength":3936,"byteOffset":94924,"target":34963},{"buffer":0,"byteLength":5544,"byteOffset":98860,"target":34962},{"buffer":0,"byteLength":5544,"byteOffset":104404,"target":34962},{"buffer":0,"byteLength":7392,"byteOffset":109948,"target":34962},{"buffer":0,"byteLength":3696,"byteOffset":117340,"target":34962},{"buffer":0,"byteLength":3696,"byteOffset":121036,"target":34962},{"buffer":0,"byteLength":1968,"byteOffset":124732,"target":34963},{"buffer":0,"byteLength":2964,"byteOffset":126700,"target":34962},{"buffer":0,"byteLength":2964,"byteOffset":129664,"target":34962},{"buffer":0,"byteLength":3952,"byteOffset":132628,"target":34962},{"buffer":0,"byteLength":1976,"byteOffset":136580,"target":34962},{"buffer":0,"byteLength":1976,"byteOffset":138556,"target":34962},{"buffer":0,"byteLength":240,"byteOffset":140532,"target":34963},{"buffer":0,"byteLength":792,"byteOffset":140772,"target":34962},{"buffer":0,"byteLength":792,"byteOffset":141564,"target":34962},{"buffer":0,"byteLength":528,"byteOffset":142356,"target":34962},{"buffer":0,"byteLength":528,"byteOffset":142884,"target":34962}],"buffers":[{"byteLength":143412,"uri":"SM_Placemat.bin"}],"images":[{"name":"FlatNormal","uri":"FlatNormal.tga"}],"materials":[{"alphaMode":"OPAQUE","doubleSided":false,"extras":{"fromFBX":{"isTruePBR":false,"shadingModel":"Phong"}},"name":"MI_Placemat","normalTexture":{"index":0,"texCoord":0},"pbrMetallicRoughness":{"baseColorFactor":[0.21586050093174,0.21586050093174,0.21586050093174,1],"metallicFactor":0.400000005960464,"roughnessFactor":0.301511347293854}},{"alphaMode":"OPAQUE","doubleSided":false,"extras":{"fromFBX":{"isTruePBR":false,"shadingModel":"Lambert"}},"name":"DefaultMaterial","pbrMetallicRoughness":{"baseColorFactor":[0.5,0.5,0.5,1],"metallicFactor":0.200000002980232,"roughnessFactor":0.800000011920929}}],"meshes":[{"name":"SM_Placemat_LOD0","primitives":[{"attributes":{"NORMAL":3,"POSITION":2,"TANGENT":4,"TEXCOORD_0":5,"TEXCOORD_1":6},"indices":1,"material":0,"mode":4}]},{"name":"SM_Placemat_LOD1","primitives":[{"attributes":{"NORMAL":9,"POSITION":8,"TANGENT":10,"TEXCOORD_0":11,"TEXCOORD_1":12},"indices":7,"material":0,"mode":4}]},{"name":"SM_Placemat_LOD2","primitives":[{"attributes":{"NORMAL":15,"POSITION":14,"TANGENT":16,"TEXCOORD_0":17,"TEXCOORD_1":18},"indices":13,"material":0,"mode":4}]},{"name":"SM_Placemat_LOD3","primitives":[{"attributes":{"NORMAL":21,"POSITION":20,"TANGENT":22,"TEXCOORD_0":23,"TEXCOORD_1":24},"indices":19,"material":0,"mode":4}]},{"name":"SM_Placemat_ConvexHulls","primitives":[{"attributes":{"NORMAL":27,"POSITION":26,"TEXCOORD_0":28,"TEXCOORD_1":29},"indices":25,"material":1,"mode":4}]}],"nodes":[{"children":[1,2,3,4,5],"name":"Placemat4","originalUnits":0.00999999977648258,"pivot":[0,0,0],"rotation":[0,0,0,1],"scale":[1,1,1],"translation":[0,0,0]},{"mesh":0,"name":"SM_Placemat_LOD0","originalUnits":0.00999999977648258,"pivot":[0,0,0],"rotation":[0,0,0,1],"scale":[1,1,1],"translation":[0,0,0]},{"mesh":4,"name":"SM_Placemat_ConvexHulls","originalUnits":0.00999999977648258,"pivot":[0,0,0],"rotation":[0,0,0,1],"scale":[1,1,1],"translation":[0,0,0]},{"mesh":1,"name":"SM_Placemat_LOD1","originalUnits":0.00999999977648258,"pivot":[0,0,0],"rotation":[0,0,0,1],"scale":[1,1,1],"translation":[0,0,0]},{"mesh":2,"name":"SM_Placemat_LOD2","originalUnits":0.00999999977648258,"pivot":[0,0,0],"rotation":[0,0,0,1],"scale":[1,1,1],"translation":[0,0,0]},{"mesh":3,"name":"SM_Placemat_LOD3","originalUnits":0.00999999977648258,"pivot":[0,0,0],"rotation":[0,0,0,1],"scale":[1,1,1],"translation":[0,0,0]}],"samplers":[{}],"scene":0,"scenes":[{"name":"Root Scene","nodes":[0]}],"textures":[{"name":"T_Default_N","sampler":0,"source":0}]}