{"accessors":[{"bufferView":0,"byteOffset":0,"componentType":5126,"count":1,"max":[0],"min":[0],"type":"SCALAR"},{"bufferView":1,"byteOffset":0,"componentType":5123,"count":984,"type":"SCALAR"},{"bufferView":2,"byteOffset":0,"componentType":5126,"count":251,"max":[0.0469816215336323,0.113296255469322,0.0583207868039608],"min":[-0.04725487530231,-0.00171811459586,-0.04066530242562],"type":"VEC3"},{"bufferView":3,"byteOffset":0,"componentType":5126,"count":251,"type":"VEC3"},{"bufferView":4,"byteOffset":0,"componentType":5126,"count":251,"type":"VEC4"},{"bufferView":5,"byteOffset":0,"componentType":5126,"count":251,"type":"VEC2"},{"bufferView":6,"byteOffset":0,"componentType":5126,"count":251,"type":"VEC2"},{"bufferView":7,"byteOffset":0,"componentType":5123,"count":738,"type":"SCALAR"},{"bufferView":8,"byteOffset":0,"componentType":5126,"count":204,"max":[0.0469816215336323,0.113296255469322,0.0583207868039608],"min":[-0.0483310893178,-0.00171811459586,-0.04165027663112],"type":"VEC3"},{"bufferView":9,"byteOffset":0,"componentType":5126,"count":204,"type":"VEC3"},{"bufferView":10,"byteOffset":0,"componentType":5126,"count":204,"type":"VEC4"},{"bufferView":11,"byteOffset":0,"componentType":5126,"count":204,"type":"VEC2"},{"bufferView":12,"byteOffset":0,"componentType":5126,"count":204,"type":"VEC2"},{"bufferView":13,"byteOffset":0,"componentType":5123,"count":492,"type":"SCALAR"},{"bufferView":14,"byteOffset":0,"componentType":5126,"count":151,"max":[0.0469816215336323,0.113540999591351,0.0583135262131691],"min":[-0.04972602427006,-0.00171811459586,-0.04165027663112],"type":"VEC3"},{"bufferView":15,"byteOffset":0,"componentType":5126,"count":151,"type":"VEC3"},{"bufferView":16,"byteOffset":0,"componentType":5126,"count":151,"type":"VEC4"},{"bufferView":17,"byteOffset":0,"componentType":5126,"count":151,"type":"VEC2"},{"bufferView":18,"byteOffset":0,"componentType":5126,"count":151,"type":"VEC2"},{"bufferView":19,"byteOffset":0,"componentType":5123,"count":246,"type":"SCALAR"},{"bufferView":20,"byteOffset":0,"componentType":5126,"count":87,"max":[0.0475709512829781,0.118206992745399,0.0602376461029053],"min":[-0.04351748526096,-0.00202707643621,-0.04019822925329],"type":"VEC3"},{"bufferView":21,"byteOffset":0,"componentType":5126,"count":87,"type":"VEC3"},{"bufferView":22,"byteOffset":0,"componentType":5126,"count":87,"type":"VEC4"},{"bufferView":23,"byteOffset":0,"componentType":5126,"count":87,"type":"VEC2"},{"bufferView":24,"byteOffset":0,"componentType":5126,"count":87,"type":"VEC2"},{"bufferView":25,"byteOffset":0,"componentType":5123,"count":168,"type":"SCALAR"},{"bufferView":26,"byteOffset":0,"componentType":5126,"count":162,"max":[0.0464813932776451,0.11371074616909,0.0569514110684395],"min":[-0.04588644951582,-0.0002839161898,-0.03887712210417],"type":"VEC3"},{"bufferView":27,"byteOffset":0,"componentType":5126,"count":162,"type":"VEC3"},{"bufferView":28,"byteOffset":0,"componentType":5126,"count":162,"type":"VEC2"},{"bufferView":29,"byteOffset":0,"componentType":5126,"count":162,"type":"VEC2"}],"animations":[{"channels":[],"name":"Unreal Take","samplers":[]}],"asset":{"generator":"FBX2glTF v0.13.0","version":"2.0"},"bufferViews":[{"buffer":0,"byteLength":4,"byteOffset":0},{"buffer":0,"byteLength":1968,"byteOffset":4,"target":34963},{"buffer":0,"byteLength":3012,"byteOffset":1972,"target":34962},{"buffer":0,"byteLength":3012,"byteOffset":4984,"target":34962},{"buffer":0,"byteLength":4016,"byteOffset":7996,"target":34962},{"buffer":0,"byteLength":2008,"byteOffset":12012,"target":34962},{"buffer":0,"byteLength":2008,"byteOffset":14020,"target":34962},{"buffer":0,"byteLength":1476,"byteOffset":16028,"target":34963},{"buffer":0,"byteLength":2448,"byteOffset":17504,"target":34962},{"buffer":0,"byteLength":2448,"byteOffset":19952,"target":34962},{"buffer":0,"byteLength":3264,"byteOffset":22400,"target":34962},{"buffer":0,"byteLength":1632,"byteOffset":25664,"target":34962},{"buffer":0,"byteLength":1632,"byteOffset":27296,"target":34962},{"buffer":0,"byteLength":984,"byteOffset":28928,"target":34963},{"buffer":0,"byteLength":1812,"byteOffset":29912,"target":34962},{"buffer":0,"byteLength":1812,"byteOffset":31724,"target":34962},{"buffer":0,"byteLength":2416,"byteOffset":33536,"target":34962},{"buffer":0,"byteLength":1208,"byteOffset":35952,"target":34962},{"buffer":0,"byteLength":1208,"byteOffset":37160,"target":34962},{"buffer":0,"byteLength":492,"byteOffset":38368,"target":34963},{"buffer":0,"byteLength":1044,"byteOffset":38860,"target":34962},{"buffer":0,"byteLength":1044,"byteOffset":39904,"target":34962},{"buffer":0,"byteLength":1392,"byteOffset":40948,"target":34962},{"buffer":0,"byteLength":696,"byteOffset":42340,"target":34962},{"buffer":0,"byteLength":696,"byteOffset":43036,"target":34962},{"buffer":0,"byteLength":336,"byteOffset":43732,"target":34963},{"buffer":0,"byteLength":1944,"byteOffset":44068,"target":34962},{"buffer":0,"byteLength":1944,"byteOffset":46012,"target":34962},{"buffer":0,"byteLength":1296,"byteOffset":47956,"target":34962},{"buffer":0,"byteLength":1296,"byteOffset":49252,"target":34962}],"buffers":[{"byteLength":50548,"uri":"SM_Pepper_03.bin"}],"images":[{"name":"T_Food_N","uri":"T_Food_N.tga"}],"materials":[{"alphaMode":"OPAQUE","doubleSided":false,"extras":{"fromFBX":{"isTruePBR":false,"shadingModel":"Phong"}},"name":"MI_Food","normalTexture":{"index":0,"texCoord":0},"pbrMetallicRoughness":{"baseColorFactor":[0.21586050093174,0.21586050093174,0.21586050093174,1],"metallicFactor":0.400000005960464,"roughnessFactor":0.301511347293854}},{"alphaMode":"OPAQUE","doubleSided":false,"extras":{"fromFBX":{"isTruePBR":false,"shadingModel":"Lambert"}},"name":"DefaultMaterial","pbrMetallicRoughness":{"baseColorFactor":[0.5,0.5,0.5,1],"metallicFactor":0.200000002980232,"roughnessFactor":0.800000011920929}}],"meshes":[{"name":"SM_Pepper_03_LOD0","primitives":[{"attributes":{"NORMAL":3,"POSITION":2,"TANGENT":4,"TEXCOORD_0":5,"TEXCOORD_1":6},"indices":1,"material":0,"mode":4}]},{"name":"SM_Pepper_03_LOD1","primitives":[{"attributes":{"NORMAL":9,"POSITION":8,"TANGENT":10,"TEXCOORD_0":11,"TEXCOORD_1":12},"indices":7,"material":0,"mode":4}]},{"name":"SM_Pepper_03_LOD2","primitives":[{"attributes":{"NORMAL":15,"POSITION":14,"TANGENT":16,"TEXCOORD_0":17,"TEXCOORD_1":18},"indices":13,"material":0,"mode":4}]},{"name":"SM_Pepper_03_LOD3","primitives":[{"attributes":{"NORMAL":21,"POSITION":20,"TANGENT":22,"TEXCOORD_0":23,"TEXCOORD_1":24},"indices":19,"material":0,"mode":4}]},{"name":"SM_Pepper_03_ConvexHulls","primitives":[{"attributes":{"NORMAL":27,"POSITION":26,"TEXCOORD_0":28,"TEXCOORD_1":29},"indices":25,"material":1,"mode":4}]}],"nodes":[{"children":[1,2,3,4,5],"name":"SM_Food_SM_Pepper_6","originalUnits":0.00999999977648258,"pivot":[0,0,0],"rotation":[0,0,0,1],"scale":[1,1,1],"translation":[0,0,0]},{"mesh":0,"name":"SM_Pepper_03_LOD0","originalUnits":0.00999999977648258,"pivot":[0,0,0],"rotation":[0,0,0,1],"scale":[1,1,1],"translation":[0,0,0]},{"mesh":4,"name":"SM_Pepper_03_ConvexHulls","originalUnits":0.00999999977648258,"pivot":[0,0,0],"rotation":[0,0,0,1],"scale":[1,1,1],"translation":[0,0,0]},{"mesh":1,"name":"SM_Pepper_03_LOD1","originalUnits":0.00999999977648258,"pivot":[0,0,0],"rotation":[0,0,0,1],"scale":[1,1,1],"translation":[0,0,0]},{"mesh":2,"name":"SM_Pepper_03_LOD2","originalUnits":0.00999999977648258,"pivot":[0,0,0],"rotation":[0,0,0,1],"scale":[1,1,1],"translation":[0,0,0]},{"mesh":3,"name":"SM_Pepper_03_LOD3","originalUnits":0.00999999977648258,"pivot":[0,0,0],"rotation":[0,0,0,1],"scale":[1,1,1],"translation":[0,0,0]}],"samplers":[{}],"scene":0,"scenes":[{"name":"Root Scene","nodes":[0]}],"textures":[{"name":"T_Food_N","sampler":0,"source":0}]}