{"accessors":[{"bufferView":0,"byteOffset":0,"componentType":5126,"count":1,"max":[0],"min":[0],"type":"SCALAR"},{"bufferView":1,"byteOffset":0,"componentType":5123,"count":8820,"type":"SCALAR"},{"bufferView":2,"byteOffset":0,"componentType":5126,"count":1967,"max":[0.246802270412445,0.38734170794487,0.196823790669441],"min":[-0.24680234491825,0.00346311135217547,-0.19682386517525],"type":"VEC3"},{"bufferView":3,"byteOffset":0,"componentType":5126,"count":1967,"type":"VEC3"},{"bufferView":4,"byteOffset":0,"componentType":5126,"count":1967,"type":"VEC4"},{"bufferView":5,"byteOffset":0,"componentType":5126,"count":1967,"type":"VEC2"},{"bufferView":6,"byteOffset":0,"componentType":5126,"count":1967,"type":"VEC2"},{"bufferView":7,"byteOffset":0,"componentType":5123,"count":6612,"type":"SCALAR"},{"bufferView":8,"byteOffset":0,"componentType":5126,"count":1544,"max":[0.246777340769768,0.387340813875198,0.196823790669441],"min":[-0.24677741527557,0.00346311135217547,-0.19682386517525],"type":"VEC3"},{"bufferView":9,"byteOffset":0,"componentType":5126,"count":1544,"type":"VEC3"},{"bufferView":10,"byteOffset":0,"componentType":5126,"count":1544,"type":"VEC4"},{"bufferView":11,"byteOffset":0,"componentType":5126,"count":1544,"type":"VEC2"},{"bufferView":12,"byteOffset":0,"componentType":5126,"count":1544,"type":"VEC2"},{"bufferView":13,"byteOffset":0,"componentType":5123,"count":4407,"type":"SCALAR"},{"bufferView":14,"byteOffset":0,"componentType":5126,"count":1087,"max":[0.246962651610374,0.387340813875198,0.196823790669441],"min":[-0.24696272611618,0.00346244662068784,-0.19682386517525],"type":"VEC3"},{"bufferView":15,"byteOffset":0,"componentType":5126,"count":1087,"type":"VEC3"},{"bufferView":16,"byteOffset":0,"componentType":5126,"count":1087,"type":"VEC4"},{"bufferView":17,"byteOffset":0,"componentType":5126,"count":1087,"type":"VEC2"},{"bufferView":18,"byteOffset":0,"componentType":5126,"count":1087,"type":"VEC2"},{"bufferView":19,"byteOffset":0,"componentType":5123,"count":2205,"type":"SCALAR"},{"bufferView":20,"byteOffset":0,"componentType":5126,"count":642,"max":[0.247782543301582,0.387297093868256,0.196568161249161],"min":[-0.24778263270855,0.00346138281747699,-0.19564536213875],"type":"VEC3"},{"bufferView":21,"byteOffset":0,"componentType":5126,"count":642,"type":"VEC3"},{"bufferView":22,"byteOffset":0,"componentType":5126,"count":642,"type":"VEC4"},{"bufferView":23,"byteOffset":0,"componentType":5126,"count":642,"type":"VEC2"},{"bufferView":24,"byteOffset":0,"componentType":5126,"count":642,"type":"VEC2"},{"bufferView":25,"byteOffset":0,"componentType":5123,"count":168,"type":"SCALAR"},{"bufferView":26,"byteOffset":0,"componentType":5126,"count":164,"max":[0.250431716442108,0.383492767810822,0.17698235809803],"min":[-0.25043180584907,0.00471660634502769,-0.19177646934986],"type":"VEC3"},{"bufferView":27,"byteOffset":0,"componentType":5126,"count":164,"type":"VEC3"},{"bufferView":28,"byteOffset":0,"componentType":5126,"count":164,"type":"VEC2"},{"bufferView":29,"byteOffset":0,"componentType":5126,"count":164,"type":"VEC2"}],"animations":[{"channels":[],"name":"Unreal Take","samplers":[]}],"asset":{"generator":"FBX2glTF v0.13.0","version":"2.0"},"bufferViews":[{"buffer":0,"byteLength":4,"byteOffset":0},{"buffer":0,"byteLength":17640,"byteOffset":4,"target":34963},{"buffer":0,"byteLength":23604,"byteOffset":17644,"target":34962},{"buffer":0,"byteLength":23604,"byteOffset":41248,"target":34962},{"buffer":0,"byteLength":31472,"byteOffset":64852,"target":34962},{"buffer":0,"byteLength":15736,"byteOffset":96324,"target":34962},{"buffer":0,"byteLength":15736,"byteOffset":112060,"target":34962},{"buffer":0,"byteLength":13224,"byteOffset":127796,"target":34963},{"buffer":0,"byteLength":18528,"byteOffset":141020,"target":34962},{"buffer":0,"byteLength":18528,"byteOffset":159548,"target":34962},{"buffer":0,"byteLength":24704,"byteOffset":178076,"target":34962},{"buffer":0,"byteLength":12352,"byteOffset":202780,"target":34962},{"buffer":0,"byteLength":12352,"byteOffset":215132,"target":34962},{"buffer":0,"byteLength":8814,"byteOffset":227484,"target":34963},{"buffer":0,"byteLength":13044,"byteOffset":236300,"target":34962},{"buffer":0,"byteLength":13044,"byteOffset":249344,"target":34962},{"buffer":0,"byteLength":17392,"byteOffset":262388,"target":34962},{"buffer":0,"byteLength":8696,"byteOffset":279780,"target":34962},{"buffer":0,"byteLength":8696,"byteOffset":288476,"target":34962},{"buffer":0,"byteLength":4410,"byteOffset":297172,"target":34963},{"buffer":0,"byteLength":7704,"byteOffset":301584,"target":34962},{"buffer":0,"byteLength":7704,"byteOffset":309288,"target":34962},{"buffer":0,"byteLength":10272,"byteOffset":316992,"target":34962},{"buffer":0,"byteLength":5136,"byteOffset":327264,"target":34962},{"buffer":0,"byteLength":5136,"byteOffset":332400,"target":34962},{"buffer":0,"byteLength":336,"byteOffset":337536,"target":34963},{"buffer":0,"byteLength":1968,"byteOffset":337872,"target":34962},{"buffer":0,"byteLength":1968,"byteOffset":339840,"target":34962},{"buffer":0,"byteLength":1312,"byteOffset":341808,"target":34962},{"buffer":0,"byteLength":1312,"byteOffset":343120,"target":34962}],"buffers":[{"byteLength":344432,"uri":"SM_Pot01.bin"}],"images":[{"name":"FlatNormal","uri":"FlatNormal.tga"}],"materials":[{"alphaMode":"OPAQUE","doubleSided":false,"extras":{"fromFBX":{"isTruePBR":false,"shadingModel":"Phong"}},"name":"MI_Kitchen_Props_A","normalTexture":{"index":0,"texCoord":0},"pbrMetallicRoughness":{"baseColorFactor":[0.21586050093174,0.21586050093174,0.21586050093174,1],"metallicFactor":0.400000005960464,"roughnessFactor":0.301511347293854}},{"alphaMode":"OPAQUE","doubleSided":false,"extras":{"fromFBX":{"isTruePBR":false,"shadingModel":"Lambert"}},"name":"DefaultMaterial","pbrMetallicRoughness":{"baseColorFactor":[0.5,0.5,0.5,1],"metallicFactor":0.200000002980232,"roughnessFactor":0.800000011920929}}],"meshes":[{"name":"SM_Pot01_LOD0","primitives":[{"attributes":{"NORMAL":3,"POSITION":2,"TANGENT":4,"TEXCOORD_0":5,"TEXCOORD_1":6},"indices":1,"material":0,"mode":4}]},{"name":"SM_Pot01_LOD1","primitives":[{"attributes":{"NORMAL":9,"POSITION":8,"TANGENT":10,"TEXCOORD_0":11,"TEXCOORD_1":12},"indices":7,"material":0,"mode":4}]},{"name":"SM_Pot01_LOD2","primitives":[{"attributes":{"NORMAL":15,"POSITION":14,"TANGENT":16,"TEXCOORD_0":17,"TEXCOORD_1":18},"indices":13,"material":0,"mode":4}]},{"name":"SM_Pot01_LOD3","primitives":[{"attributes":{"NORMAL":21,"POSITION":20,"TANGENT":22,"TEXCOORD_0":23,"TEXCOORD_1":24},"indices":19,"material":0,"mode":4}]},{"name":"SM_Pot01_ConvexHulls","primitives":[{"attributes":{"NORMAL":27,"POSITION":26,"TEXCOORD_0":28,"TEXCOORD_1":29},"indices":25,"material":1,"mode":4}]}],"nodes":[{"children":[1,2,3,4,5],"name":"Kitchen_Props_A_Pot_C_12","originalUnits":0.00999999977648258,"pivot":[0,0,0],"rotation":[0,0,0,1],"scale":[1,1,1],"translation":[0,0,0]},{"mesh":0,"name":"SM_Pot01_LOD0","originalUnits":0.00999999977648258,"pivot":[0,0,0],"rotation":[0,0,0,1],"scale":[1,1,1],"translation":[0,0,0]},{"mesh":4,"name":"SM_Pot01_ConvexHulls","originalUnits":0.00999999977648258,"pivot":[0,0,0],"rotation":[0,0,0,1],"scale":[1,1,1],"translation":[0,0,0]},{"mesh":1,"name":"SM_Pot01_LOD1","originalUnits":0.00999999977648258,"pivot":[0,0,0],"rotation":[0,0,0,1],"scale":[1,1,1],"translation":[0,0,0]},{"mesh":2,"name":"SM_Pot01_LOD2","originalUnits":0.00999999977648258,"pivot":[0,0,0],"rotation":[0,0,0,1],"scale":[1,1,1],"translation":[0,0,0]},{"mesh":3,"name":"SM_Pot01_LOD3","originalUnits":0.00999999977648258,"pivot":[0,0,0],"rotation":[0,0,0,1],"scale":[1,1,1],"translation":[0,0,0]}],"samplers":[{}],"scene":0,"scenes":[{"name":"Root Scene","nodes":[0]}],"textures":[{"name":"T_Default_N","sampler":0,"source":0}]}