{"accessors":[{"bufferView":0,"byteOffset":0,"componentType":5126,"count":1,"max":[0],"min":[0],"type":"SCALAR"},{"bufferView":1,"byteOffset":0,"componentType":5123,"count":8664,"type":"SCALAR"},{"bufferView":2,"byteOffset":0,"componentType":5126,"count":1982,"max":[0.0205030012875795,0.0321833938360214,0.62293267250061],"min":[-0.03549198806286,-0.08009047061205,-0.62293201684952],"type":"VEC3"},{"bufferView":3,"byteOffset":0,"componentType":5126,"count":1982,"type":"VEC3"},{"bufferView":4,"byteOffset":0,"componentType":5126,"count":1982,"type":"VEC4"},{"bufferView":5,"byteOffset":0,"componentType":5126,"count":1982,"type":"VEC2"},{"bufferView":6,"byteOffset":0,"componentType":5126,"count":1982,"type":"VEC2"},{"bufferView":7,"byteOffset":0,"componentType":5123,"count":6495,"type":"SCALAR"},{"bufferView":8,"byteOffset":0,"componentType":5126,"count":1556,"max":[0.0205030012875795,0.0321833938360214,0.62293267250061],"min":[-0.03549198806286,-0.08009047061205,-0.62293201684952],"type":"VEC3"},{"bufferView":9,"byteOffset":0,"componentType":5126,"count":1556,"type":"VEC3"},{"bufferView":10,"byteOffset":0,"componentType":5126,"count":1556,"type":"VEC4"},{"bufferView":11,"byteOffset":0,"componentType":5126,"count":1556,"type":"VEC2"},{"bufferView":12,"byteOffset":0,"componentType":5126,"count":1556,"type":"VEC2"},{"bufferView":13,"byteOffset":0,"componentType":5123,"count":4332,"type":"SCALAR"},{"bufferView":14,"byteOffset":0,"componentType":5126,"count":1105,"max":[0.0205030012875795,0.0321833938360214,0.62293267250061],"min":[-0.03549198806286,-0.08009047061205,-0.62293201684952],"type":"VEC3"},{"bufferView":15,"byteOffset":0,"componentType":5126,"count":1105,"type":"VEC3"},{"bufferView":16,"byteOffset":0,"componentType":5126,"count":1105,"type":"VEC4"},{"bufferView":17,"byteOffset":0,"componentType":5126,"count":1105,"type":"VEC2"},{"bufferView":18,"byteOffset":0,"componentType":5126,"count":1105,"type":"VEC2"},{"bufferView":19,"byteOffset":0,"componentType":5123,"count":2163,"type":"SCALAR"},{"bufferView":20,"byteOffset":0,"componentType":5126,"count":629,"max":[0.0205030012875795,0.0321833938360214,0.62293267250061],"min":[-0.03552436828613,-0.08078549802303,-0.62293201684952],"type":"VEC3"},{"bufferView":21,"byteOffset":0,"componentType":5126,"count":629,"type":"VEC3"},{"bufferView":22,"byteOffset":0,"componentType":5126,"count":629,"type":"VEC4"},{"bufferView":23,"byteOffset":0,"componentType":5126,"count":629,"type":"VEC2"},{"bufferView":24,"byteOffset":0,"componentType":5126,"count":629,"type":"VEC2"},{"bufferView":25,"byteOffset":0,"componentType":5123,"count":318,"type":"SCALAR"},{"bufferView":26,"byteOffset":0,"componentType":5126,"count":288,"max":[0.0255670640617609,0.0374548472464085,0.625191807746887],"min":[-0.04048116132617,-0.0847212523222,-0.62513029575348],"type":"VEC3"},{"bufferView":27,"byteOffset":0,"componentType":5126,"count":288,"type":"VEC3"},{"bufferView":28,"byteOffset":0,"componentType":5126,"count":288,"type":"VEC2"},{"bufferView":29,"byteOffset":0,"componentType":5126,"count":288,"type":"VEC2"}],"animations":[{"channels":[],"name":"Unreal Take","samplers":[]}],"asset":{"generator":"FBX2glTF v0.13.0","version":"2.0"},"bufferViews":[{"buffer":0,"byteLength":4,"byteOffset":0},{"buffer":0,"byteLength":17328,"byteOffset":4,"target":34963},{"buffer":0,"byteLength":23784,"byteOffset":17332,"target":34962},{"buffer":0,"byteLength":23784,"byteOffset":41116,"target":34962},{"buffer":0,"byteLength":31712,"byteOffset":64900,"target":34962},{"buffer":0,"byteLength":15856,"byteOffset":96612,"target":34962},{"buffer":0,"byteLength":15856,"byteOffset":112468,"target":34962},{"buffer":0,"byteLength":12990,"byteOffset":128324,"target":34963},{"buffer":0,"byteLength":18672,"byteOffset":141316,"target":34962},{"buffer":0,"byteLength":18672,"byteOffset":159988,"target":34962},{"buffer":0,"byteLength":24896,"byteOffset":178660,"target":34962},{"buffer":0,"byteLength":12448,"byteOffset":203556,"target":34962},{"buffer":0,"byteLength":12448,"byteOffset":216004,"target":34962},{"buffer":0,"byteLength":8664,"byteOffset":228452,"target":34963},{"buffer":0,"byteLength":13260,"byteOffset":237116,"target":34962},{"buffer":0,"byteLength":13260,"byteOffset":250376,"target":34962},{"buffer":0,"byteLength":17680,"byteOffset":263636,"target":34962},{"buffer":0,"byteLength":8840,"byteOffset":281316,"target":34962},{"buffer":0,"byteLength":8840,"byteOffset":290156,"target":34962},{"buffer":0,"byteLength":4326,"byteOffset":298996,"target":34963},{"buffer":0,"byteLength":7548,"byteOffset":303324,"target":34962},{"buffer":0,"byteLength":7548,"byteOffset":310872,"target":34962},{"buffer":0,"byteLength":10064,"byteOffset":318420,"target":34962},{"buffer":0,"byteLength":5032,"byteOffset":328484,"target":34962},{"buffer":0,"byteLength":5032,"byteOffset":333516,"target":34962},{"buffer":0,"byteLength":636,"byteOffset":338548,"target":34963},{"buffer":0,"byteLength":3456,"byteOffset":339184,"target":34962},{"buffer":0,"byteLength":3456,"byteOffset":342640,"target":34962},{"buffer":0,"byteLength":2304,"byteOffset":346096,"target":34962},{"buffer":0,"byteLength":2304,"byteOffset":348400,"target":34962}],"buffers":[{"byteLength":350704,"uri":"SM_Pot_Holder.bin"}],"images":[{"name":"FlatNormal","uri":"FlatNormal.tga"}],"materials":[{"alphaMode":"OPAQUE","doubleSided":false,"extras":{"fromFBX":{"isTruePBR":false,"shadingModel":"Phong"}},"name":"MI_Kitchen_Props_A","normalTexture":{"index":0,"texCoord":0},"pbrMetallicRoughness":{"baseColorFactor":[0.21586050093174,0.21586050093174,0.21586050093174,1],"metallicFactor":0.400000005960464,"roughnessFactor":0.301511347293854}},{"alphaMode":"OPAQUE","doubleSided":false,"extras":{"fromFBX":{"isTruePBR":false,"shadingModel":"Lambert"}},"name":"DefaultMaterial","pbrMetallicRoughness":{"baseColorFactor":[0.5,0.5,0.5,1],"metallicFactor":0.200000002980232,"roughnessFactor":0.800000011920929}}],"meshes":[{"name":"SM_Pot_Holder_LOD0","primitives":[{"attributes":{"NORMAL":3,"POSITION":2,"TANGENT":4,"TEXCOORD_0":5,"TEXCOORD_1":6},"indices":1,"material":0,"mode":4}]},{"name":"SM_Pot_Holder_LOD1","primitives":[{"attributes":{"NORMAL":9,"POSITION":8,"TANGENT":10,"TEXCOORD_0":11,"TEXCOORD_1":12},"indices":7,"material":0,"mode":4}]},{"name":"SM_Pot_Holder_LOD2","primitives":[{"attributes":{"NORMAL":15,"POSITION":14,"TANGENT":16,"TEXCOORD_0":17,"TEXCOORD_1":18},"indices":13,"material":0,"mode":4}]},{"name":"SM_Pot_Holder_LOD3","primitives":[{"attributes":{"NORMAL":21,"POSITION":20,"TANGENT":22,"TEXCOORD_0":23,"TEXCOORD_1":24},"indices":19,"material":0,"mode":4}]},{"name":"SM_Pot_Holder_ConvexHulls","primitives":[{"attributes":{"NORMAL":27,"POSITION":26,"TEXCOORD_0":28,"TEXCOORD_1":29},"indices":25,"material":1,"mode":4}]}],"nodes":[{"children":[1,2,3,4,5],"name":"Kitchen_Props_A_Pot_Holder2","originalUnits":0.00999999977648258,"pivot":[0,0,0],"rotation":[0,0,0,1],"scale":[1,1,1],"translation":[0,0,0]},{"mesh":0,"name":"SM_Pot_Holder_LOD0","originalUnits":0.00999999977648258,"pivot":[0,0,0],"rotation":[0,0,0,1],"scale":[1,1,1],"translation":[0,0,0]},{"mesh":4,"name":"SM_Pot_Holder_ConvexHulls","originalUnits":0.00999999977648258,"pivot":[0,0,0],"rotation":[0,0,0,1],"scale":[1,1,1],"translation":[0,0,0]},{"mesh":1,"name":"SM_Pot_Holder_LOD1","originalUnits":0.00999999977648258,"pivot":[0,0,0],"rotation":[0,0,0,1],"scale":[1,1,1],"translation":[0,0,0]},{"mesh":2,"name":"SM_Pot_Holder_LOD2","originalUnits":0.00999999977648258,"pivot":[0,0,0],"rotation":[0,0,0,1],"scale":[1,1,1],"translation":[0,0,0]},{"mesh":3,"name":"SM_Pot_Holder_LOD3","originalUnits":0.00999999977648258,"pivot":[0,0,0],"rotation":[0,0,0,1],"scale":[1,1,1],"translation":[0,0,0]}],"samplers":[{}],"scene":0,"scenes":[{"name":"Root Scene","nodes":[0]}],"textures":[{"name":"T_Default_N","sampler":0,"source":0}]}