{"accessors":[{"bufferView":0,"byteOffset":0,"componentType":5126,"count":1,"max":[0],"min":[0],"type":"SCALAR"},{"bufferView":1,"byteOffset":0,"componentType":5123,"count":7770,"type":"SCALAR"},{"bufferView":2,"byteOffset":0,"componentType":5126,"count":2214,"max":[0.383178472518921,1.02180278301239,0.388590335845947],"min":[-0.38317877054215,-1.02180290222168,-0.38859066367149],"type":"VEC3"},{"bufferView":3,"byteOffset":0,"componentType":5126,"count":2214,"type":"VEC3"},{"bufferView":4,"byteOffset":0,"componentType":5126,"count":2214,"type":"VEC4"},{"bufferView":5,"byteOffset":0,"componentType":5126,"count":2214,"type":"VEC2"},{"bufferView":6,"byteOffset":0,"componentType":5126,"count":2214,"type":"VEC2"},{"bufferView":7,"byteOffset":0,"componentType":5123,"count":5826,"type":"SCALAR"},{"bufferView":8,"byteOffset":0,"componentType":5126,"count":1890,"max":[0.383178472518921,1.02155113220215,0.388590335845947],"min":[-0.38317877054215,-1.02180290222168,-0.38859066367149],"type":"VEC3"},{"bufferView":9,"byteOffset":0,"componentType":5126,"count":1890,"type":"VEC3"},{"bufferView":10,"byteOffset":0,"componentType":5126,"count":1890,"type":"VEC4"},{"bufferView":11,"byteOffset":0,"componentType":5126,"count":1890,"type":"VEC2"},{"bufferView":12,"byteOffset":0,"componentType":5126,"count":1890,"type":"VEC2"},{"bufferView":13,"byteOffset":0,"componentType":5123,"count":3882,"type":"SCALAR"},{"bufferView":14,"byteOffset":0,"componentType":5126,"count":1474,"max":[0.383178472518921,1.02431678771973,0.388590335845947],"min":[-0.38317877054215,-1.02180290222168,-0.38859066367149],"type":"VEC3"},{"bufferView":15,"byteOffset":0,"componentType":5126,"count":1474,"type":"VEC3"},{"bufferView":16,"byteOffset":0,"componentType":5126,"count":1474,"type":"VEC4"},{"bufferView":17,"byteOffset":0,"componentType":5126,"count":1474,"type":"VEC2"},{"bufferView":18,"byteOffset":0,"componentType":5126,"count":1474,"type":"VEC2"},{"bufferView":19,"byteOffset":0,"componentType":5123,"count":1944,"type":"SCALAR"},{"bufferView":20,"byteOffset":0,"componentType":5126,"count":874,"max":[0.383178472518921,1.02535676956177,0.388590335845947],"min":[-0.38317877054215,-1.02180290222168,-0.38859066367149],"type":"VEC3"},{"bufferView":21,"byteOffset":0,"componentType":5126,"count":874,"type":"VEC3"},{"bufferView":22,"byteOffset":0,"componentType":5126,"count":874,"type":"VEC4"},{"bufferView":23,"byteOffset":0,"componentType":5126,"count":874,"type":"VEC2"},{"bufferView":24,"byteOffset":0,"componentType":5126,"count":874,"type":"VEC2"},{"bufferView":25,"byteOffset":0,"componentType":5123,"count":282,"type":"SCALAR"},{"bufferView":26,"byteOffset":0,"componentType":5126,"count":272,"max":[0.38770979642868,1.01374125480652,0.388167917728424],"min":[-0.38693878054619,-1.02792310714722,-0.39714697003365],"type":"VEC3"},{"bufferView":27,"byteOffset":0,"componentType":5126,"count":272,"type":"VEC3"},{"bufferView":28,"byteOffset":0,"componentType":5126,"count":272,"type":"VEC2"},{"bufferView":29,"byteOffset":0,"componentType":5126,"count":272,"type":"VEC2"}],"animations":[{"channels":[],"name":"Unreal Take","samplers":[]}],"asset":{"generator":"FBX2glTF v0.13.0","version":"2.0"},"bufferViews":[{"buffer":0,"byteLength":4,"byteOffset":0},{"buffer":0,"byteLength":15540,"byteOffset":4,"target":34963},{"buffer":0,"byteLength":26568,"byteOffset":15544,"target":34962},{"buffer":0,"byteLength":26568,"byteOffset":42112,"target":34962},{"buffer":0,"byteLength":35424,"byteOffset":68680,"target":34962},{"buffer":0,"byteLength":17712,"byteOffset":104104,"target":34962},{"buffer":0,"byteLength":17712,"byteOffset":121816,"target":34962},{"buffer":0,"byteLength":11652,"byteOffset":139528,"target":34963},{"buffer":0,"byteLength":22680,"byteOffset":151180,"target":34962},{"buffer":0,"byteLength":22680,"byteOffset":173860,"target":34962},{"buffer":0,"byteLength":30240,"byteOffset":196540,"target":34962},{"buffer":0,"byteLength":15120,"byteOffset":226780,"target":34962},{"buffer":0,"byteLength":15120,"byteOffset":241900,"target":34962},{"buffer":0,"byteLength":7764,"byteOffset":257020,"target":34963},{"buffer":0,"byteLength":17688,"byteOffset":264784,"target":34962},{"buffer":0,"byteLength":17688,"byteOffset":282472,"target":34962},{"buffer":0,"byteLength":23584,"byteOffset":300160,"target":34962},{"buffer":0,"byteLength":11792,"byteOffset":323744,"target":34962},{"buffer":0,"byteLength":11792,"byteOffset":335536,"target":34962},{"buffer":0,"byteLength":3888,"byteOffset":347328,"target":34963},{"buffer":0,"byteLength":10488,"byteOffset":351216,"target":34962},{"buffer":0,"byteLength":10488,"byteOffset":361704,"target":34962},{"buffer":0,"byteLength":13984,"byteOffset":372192,"target":34962},{"buffer":0,"byteLength":6992,"byteOffset":386176,"target":34962},{"buffer":0,"byteLength":6992,"byteOffset":393168,"target":34962},{"buffer":0,"byteLength":564,"byteOffset":400160,"target":34963},{"buffer":0,"byteLength":3264,"byteOffset":400724,"target":34962},{"buffer":0,"byteLength":3264,"byteOffset":403988,"target":34962},{"buffer":0,"byteLength":2176,"byteOffset":407252,"target":34962},{"buffer":0,"byteLength":2176,"byteOffset":409428,"target":34962}],"buffers":[{"byteLength":411604,"uri":"SM_Rack.bin"}],"materials":[{"alphaMode":"OPAQUE","doubleSided":false,"extras":{"fromFBX":{"isTruePBR":false,"shadingModel":"Phong"}},"name":"MM_Metal_02","pbrMetallicRoughness":{"baseColorFactor":[0.666666984558105,0.540741980075836,0.222222000360489,1],"metallicFactor":0.400000005960464,"roughnessFactor":0.301511347293854}},{"alphaMode":"OPAQUE","doubleSided":false,"extras":{"fromFBX":{"isTruePBR":false,"shadingModel":"Lambert"}},"name":"DefaultMaterial","pbrMetallicRoughness":{"baseColorFactor":[0.5,0.5,0.5,1],"metallicFactor":0.200000002980232,"roughnessFactor":0.800000011920929}}],"meshes":[{"name":"SM_Rack_LOD0","primitives":[{"attributes":{"NORMAL":3,"POSITION":2,"TANGENT":4,"TEXCOORD_0":5,"TEXCOORD_1":6},"indices":1,"material":0,"mode":4}]},{"name":"SM_Rack_LOD1","primitives":[{"attributes":{"NORMAL":9,"POSITION":8,"TANGENT":10,"TEXCOORD_0":11,"TEXCOORD_1":12},"indices":7,"material":0,"mode":4}]},{"name":"SM_Rack_LOD2","primitives":[{"attributes":{"NORMAL":15,"POSITION":14,"TANGENT":16,"TEXCOORD_0":17,"TEXCOORD_1":18},"indices":13,"material":0,"mode":4}]},{"name":"SM_Rack_LOD3","primitives":[{"attributes":{"NORMAL":21,"POSITION":20,"TANGENT":22,"TEXCOORD_0":23,"TEXCOORD_1":24},"indices":19,"material":0,"mode":4}]},{"name":"SM_Rack_ConvexHulls","primitives":[{"attributes":{"NORMAL":27,"POSITION":26,"TEXCOORD_0":28,"TEXCOORD_1":29},"indices":25,"material":1,"mode":4}]}],"nodes":[{"children":[1,2,3,4,5],"name":"Assets_Proxy_Coat_Rack_Proxy_94","originalUnits":0.00999999977648258,"pivot":[0,0,0],"rotation":[0,0,0,1],"scale":[1,1,1],"translation":[0,0,0]},{"mesh":0,"name":"SM_Rack_LOD0","originalUnits":0.00999999977648258,"pivot":[0,0,0],"rotation":[0,0,0,1],"scale":[1,1,1],"translation":[0,0,0]},{"mesh":4,"name":"SM_Rack_ConvexHulls","originalUnits":0.00999999977648258,"pivot":[0,0,0],"rotation":[0,0,0,1],"scale":[1,1,1],"translation":[0,0,0]},{"mesh":1,"name":"SM_Rack_LOD1","originalUnits":0.00999999977648258,"pivot":[0,0,0],"rotation":[0,0,0,1],"scale":[1,1,1],"translation":[0,0,0]},{"mesh":2,"name":"SM_Rack_LOD2","originalUnits":0.00999999977648258,"pivot":[0,0,0],"rotation":[0,0,0,1],"scale":[1,1,1],"translation":[0,0,0]},{"mesh":3,"name":"SM_Rack_LOD3","originalUnits":0.00999999977648258,"pivot":[0,0,0],"rotation":[0,0,0,1],"scale":[1,1,1],"translation":[0,0,0]}],"samplers":[{}],"scene":0,"scenes":[{"name":"Root Scene","nodes":[0]}]}