{"accessors":[{"bufferView":0,"byteOffset":0,"componentType":5126,"count":1,"max":[0],"min":[0],"type":"SCALAR"},{"bufferView":1,"byteOffset":0,"componentType":5123,"count":36786,"type":"SCALAR"},{"bufferView":2,"byteOffset":0,"componentType":5126,"count":11714,"max":[0.107431560754776,0.412459701299667,0.213432997465134],"min":[-0.12107932567596,-0.00385481189005,-0.21343299746513],"type":"VEC3"},{"bufferView":3,"byteOffset":0,"componentType":5126,"count":11714,"type":"VEC3"},{"bufferView":4,"byteOffset":0,"componentType":5126,"count":11714,"type":"VEC4"},{"bufferView":5,"byteOffset":0,"componentType":5126,"count":11714,"type":"VEC2"},{"bufferView":6,"byteOffset":0,"componentType":5126,"count":11714,"type":"VEC2"},{"bufferView":7,"byteOffset":0,"componentType":5123,"count":27591,"type":"SCALAR"},{"bufferView":8,"byteOffset":0,"componentType":5126,"count":9401,"max":[0.107431560754776,0.412459701299667,0.213432997465134],"min":[-0.12107932567596,-0.00385481189005,-0.21343299746513],"type":"VEC3"},{"bufferView":9,"byteOffset":0,"componentType":5126,"count":9401,"type":"VEC3"},{"bufferView":10,"byteOffset":0,"componentType":5126,"count":9401,"type":"VEC4"},{"bufferView":11,"byteOffset":0,"componentType":5126,"count":9401,"type":"VEC2"},{"bufferView":12,"byteOffset":0,"componentType":5126,"count":9401,"type":"VEC2"},{"bufferView":13,"byteOffset":0,"componentType":5123,"count":18393,"type":"SCALAR"},{"bufferView":14,"byteOffset":0,"componentType":5126,"count":7002,"max":[0.107431560754776,0.412573873996735,0.213432997465134],"min":[-0.12107932567596,-0.00385481189005,-0.21343299746513],"type":"VEC3"},{"bufferView":15,"byteOffset":0,"componentType":5126,"count":7002,"type":"VEC3"},{"bufferView":16,"byteOffset":0,"componentType":5126,"count":7002,"type":"VEC4"},{"bufferView":17,"byteOffset":0,"componentType":5126,"count":7002,"type":"VEC2"},{"bufferView":18,"byteOffset":0,"componentType":5126,"count":7002,"type":"VEC2"},{"bufferView":19,"byteOffset":0,"componentType":5123,"count":9195,"type":"SCALAR"},{"bufferView":20,"byteOffset":0,"componentType":5126,"count":3871,"max":[0.107584215700626,0.412872195243835,0.213432997465134],"min":[-0.12129858881235,-0.00385481189005,-0.21343299746513],"type":"VEC3"},{"bufferView":21,"byteOffset":0,"componentType":5126,"count":3871,"type":"VEC3"},{"bufferView":22,"byteOffset":0,"componentType":5126,"count":3871,"type":"VEC4"},{"bufferView":23,"byteOffset":0,"componentType":5126,"count":3871,"type":"VEC2"},{"bufferView":24,"byteOffset":0,"componentType":5126,"count":3871,"type":"VEC2"},{"bufferView":25,"byteOffset":0,"componentType":5123,"count":120,"type":"SCALAR"},{"bufferView":26,"byteOffset":0,"componentType":5126,"count":120,"max":[0.112271040678024,0.413570433855057,0.215028345584869],"min":[-0.12745179235935,-0.00364236067981,-0.20871768891811],"type":"VEC3"},{"bufferView":27,"byteOffset":0,"componentType":5126,"count":120,"type":"VEC3"},{"bufferView":28,"byteOffset":0,"componentType":5126,"count":120,"type":"VEC2"},{"bufferView":29,"byteOffset":0,"componentType":5126,"count":120,"type":"VEC2"}],"animations":[{"channels":[],"name":"Unreal Take","samplers":[]}],"asset":{"generator":"FBX2glTF v0.13.0","version":"2.0"},"bufferViews":[{"buffer":0,"byteLength":4,"byteOffset":0},{"buffer":0,"byteLength":73572,"byteOffset":4,"target":34963},{"buffer":0,"byteLength":140568,"byteOffset":73576,"target":34962},{"buffer":0,"byteLength":140568,"byteOffset":214144,"target":34962},{"buffer":0,"byteLength":187424,"byteOffset":354712,"target":34962},{"buffer":0,"byteLength":93712,"byteOffset":542136,"target":34962},{"buffer":0,"byteLength":93712,"byteOffset":635848,"target":34962},{"buffer":0,"byteLength":55182,"byteOffset":729560,"target":34963},{"buffer":0,"byteLength":112812,"byteOffset":784744,"target":34962},{"buffer":0,"byteLength":112812,"byteOffset":897556,"target":34962},{"buffer":0,"byteLength":150416,"byteOffset":1010368,"target":34962},{"buffer":0,"byteLength":75208,"byteOffset":1160784,"target":34962},{"buffer":0,"byteLength":75208,"byteOffset":1235992,"target":34962},{"buffer":0,"byteLength":36786,"byteOffset":1311200,"target":34963},{"buffer":0,"byteLength":84024,"byteOffset":1347988,"target":34962},{"buffer":0,"byteLength":84024,"byteOffset":1432012,"target":34962},{"buffer":0,"byteLength":112032,"byteOffset":1516036,"target":34962},{"buffer":0,"byteLength":56016,"byteOffset":1628068,"target":34962},{"buffer":0,"byteLength":56016,"byteOffset":1684084,"target":34962},{"buffer":0,"byteLength":18390,"byteOffset":1740100,"target":34963},{"buffer":0,"byteLength":46452,"byteOffset":1758492,"target":34962},{"buffer":0,"byteLength":46452,"byteOffset":1804944,"target":34962},{"buffer":0,"byteLength":61936,"byteOffset":1851396,"target":34962},{"buffer":0,"byteLength":30968,"byteOffset":1913332,"target":34962},{"buffer":0,"byteLength":30968,"byteOffset":1944300,"target":34962},{"buffer":0,"byteLength":240,"byteOffset":1975268,"target":34963},{"buffer":0,"byteLength":1440,"byteOffset":1975508,"target":34962},{"buffer":0,"byteLength":1440,"byteOffset":1976948,"target":34962},{"buffer":0,"byteLength":960,"byteOffset":1978388,"target":34962},{"buffer":0,"byteLength":960,"byteOffset":1979348,"target":34962}],"buffers":[{"byteLength":1980308,"uri":"SM_Radio.bin"}],"images":[{"name":"T_Radio_N","uri":"T_Radio_N.tga"}],"materials":[{"alphaMode":"OPAQUE","doubleSided":false,"extras":{"fromFBX":{"isTruePBR":false,"shadingModel":"Phong"}},"name":"MI_Radio","normalTexture":{"index":0,"texCoord":0},"pbrMetallicRoughness":{"baseColorFactor":[0.21586050093174,0.21586050093174,0.21586050093174,1],"metallicFactor":0.400000005960464,"roughnessFactor":0.301511347293854}},{"alphaMode":"OPAQUE","doubleSided":false,"extras":{"fromFBX":{"isTruePBR":false,"shadingModel":"Lambert"}},"name":"DefaultMaterial","pbrMetallicRoughness":{"baseColorFactor":[0.5,0.5,0.5,1],"metallicFactor":0.200000002980232,"roughnessFactor":0.800000011920929}}],"meshes":[{"name":"SM_Radio_LOD0","primitives":[{"attributes":{"NORMAL":3,"POSITION":2,"TANGENT":4,"TEXCOORD_0":5,"TEXCOORD_1":6},"indices":1,"material":0,"mode":4}]},{"name":"SM_Radio_LOD1","primitives":[{"attributes":{"NORMAL":9,"POSITION":8,"TANGENT":10,"TEXCOORD_0":11,"TEXCOORD_1":12},"indices":7,"material":0,"mode":4}]},{"name":"SM_Radio_LOD2","primitives":[{"attributes":{"NORMAL":15,"POSITION":14,"TANGENT":16,"TEXCOORD_0":17,"TEXCOORD_1":18},"indices":13,"material":0,"mode":4}]},{"name":"SM_Radio_LOD3","primitives":[{"attributes":{"NORMAL":21,"POSITION":20,"TANGENT":22,"TEXCOORD_0":23,"TEXCOORD_1":24},"indices":19,"material":0,"mode":4}]},{"name":"SM_Radio_ConvexHulls","primitives":[{"attributes":{"NORMAL":27,"POSITION":26,"TEXCOORD_0":28,"TEXCOORD_1":29},"indices":25,"material":1,"mode":4}]}],"nodes":[{"children":[1,2,3,4,5],"name":"SM_Radio_166","originalUnits":0.00999999977648258,"pivot":[0,0,0],"rotation":[0,0,0,1],"scale":[1,1,1],"translation":[0,0,0]},{"mesh":0,"name":"SM_Radio_LOD0","originalUnits":0.00999999977648258,"pivot":[0,0,0],"rotation":[0,0,0,1],"scale":[1,1,1],"translation":[0,0,0]},{"mesh":4,"name":"SM_Radio_ConvexHulls","originalUnits":0.00999999977648258,"pivot":[0,0,0],"rotation":[0,0,0,1],"scale":[1,1,1],"translation":[0,0,0]},{"mesh":1,"name":"SM_Radio_LOD1","originalUnits":0.00999999977648258,"pivot":[0,0,0],"rotation":[0,0,0,1],"scale":[1,1,1],"translation":[0,0,0]},{"mesh":2,"name":"SM_Radio_LOD2","originalUnits":0.00999999977648258,"pivot":[0,0,0],"rotation":[0,0,0,1],"scale":[1,1,1],"translation":[0,0,0]},{"mesh":3,"name":"SM_Radio_LOD3","originalUnits":0.00999999977648258,"pivot":[0,0,0],"rotation":[0,0,0,1],"scale":[1,1,1],"translation":[0,0,0]}],"samplers":[{}],"scene":0,"scenes":[{"name":"Root Scene","nodes":[0]}],"textures":[{"name":"T_Radio_N","sampler":0,"source":0}]}