{"accessors":[{"bufferView":0,"byteOffset":0,"componentType":5126,"count":1,"max":[0],"min":[0],"type":"SCALAR"},{"bufferView":1,"byteOffset":0,"componentType":5123,"count":4086,"type":"SCALAR"},{"bufferView":2,"byteOffset":0,"componentType":5126,"count":1155,"max":[0.0421078018844128,0.155317887663841,0.144003421068192],"min":[-0.04210782051086,0.00116689375136048,-0.12612986564636],"type":"VEC3"},{"bufferView":3,"byteOffset":0,"componentType":5126,"count":1155,"type":"VEC3"},{"bufferView":4,"byteOffset":0,"componentType":5126,"count":1155,"type":"VEC4"},{"bufferView":5,"byteOffset":0,"componentType":5126,"count":1155,"type":"VEC2"},{"bufferView":6,"byteOffset":0,"componentType":5126,"count":1155,"type":"VEC2"},{"bufferView":7,"byteOffset":0,"componentType":5123,"count":3066,"type":"SCALAR"},{"bufferView":8,"byteOffset":0,"componentType":5126,"count":903,"max":[0.0421102046966553,0.155317887663841,0.144003421068192],"min":[-0.04210994765162,0.00116689375136048,-0.12612986564636],"type":"VEC3"},{"bufferView":9,"byteOffset":0,"componentType":5126,"count":903,"type":"VEC3"},{"bufferView":10,"byteOffset":0,"componentType":5126,"count":903,"type":"VEC4"},{"bufferView":11,"byteOffset":0,"componentType":5126,"count":903,"type":"VEC2"},{"bufferView":12,"byteOffset":0,"componentType":5126,"count":903,"type":"VEC2"},{"bufferView":13,"byteOffset":0,"componentType":5123,"count":2040,"type":"SCALAR"},{"bufferView":14,"byteOffset":0,"componentType":5126,"count":672,"max":[0.0421823747456074,0.155317887663841,0.144003421068192],"min":[-0.04218100011349,0.00116689375136048,-0.12612986564636],"type":"VEC3"},{"bufferView":15,"byteOffset":0,"componentType":5126,"count":672,"type":"VEC3"},{"bufferView":16,"byteOffset":0,"componentType":5126,"count":672,"type":"VEC4"},{"bufferView":17,"byteOffset":0,"componentType":5126,"count":672,"type":"VEC2"},{"bufferView":18,"byteOffset":0,"componentType":5126,"count":672,"type":"VEC2"},{"bufferView":19,"byteOffset":0,"componentType":5123,"count":1020,"type":"SCALAR"},{"bufferView":20,"byteOffset":0,"componentType":5126,"count":425,"max":[0.0424898341298103,0.155987188220024,0.144003421068192],"min":[-0.04234942793846,0.00142053328454494,-0.12607271969318],"type":"VEC3"},{"bufferView":21,"byteOffset":0,"componentType":5126,"count":425,"type":"VEC3"},{"bufferView":22,"byteOffset":0,"componentType":5126,"count":425,"type":"VEC4"},{"bufferView":23,"byteOffset":0,"componentType":5126,"count":425,"type":"VEC2"},{"bufferView":24,"byteOffset":0,"componentType":5126,"count":425,"type":"VEC2"},{"bufferView":25,"byteOffset":0,"componentType":5123,"count":270,"type":"SCALAR"},{"bufferView":26,"byteOffset":0,"componentType":5126,"count":258,"max":[0.0441793762147427,0.153069570660591,0.145040705800056],"min":[-0.04317624121904,-0.00132136920001,-0.12519283592701],"type":"VEC3"},{"bufferView":27,"byteOffset":0,"componentType":5126,"count":258,"type":"VEC3"},{"bufferView":28,"byteOffset":0,"componentType":5126,"count":258,"type":"VEC2"},{"bufferView":29,"byteOffset":0,"componentType":5126,"count":258,"type":"VEC2"}],"animations":[{"channels":[],"name":"Unreal Take","samplers":[]}],"asset":{"generator":"FBX2glTF v0.13.0","version":"2.0"},"bufferViews":[{"buffer":0,"byteLength":4,"byteOffset":0},{"buffer":0,"byteLength":8172,"byteOffset":4,"target":34963},{"buffer":0,"byteLength":13860,"byteOffset":8176,"target":34962},{"buffer":0,"byteLength":13860,"byteOffset":22036,"target":34962},{"buffer":0,"byteLength":18480,"byteOffset":35896,"target":34962},{"buffer":0,"byteLength":9240,"byteOffset":54376,"target":34962},{"buffer":0,"byteLength":9240,"byteOffset":63616,"target":34962},{"buffer":0,"byteLength":6132,"byteOffset":72856,"target":34963},{"buffer":0,"byteLength":10836,"byteOffset":78988,"target":34962},{"buffer":0,"byteLength":10836,"byteOffset":89824,"target":34962},{"buffer":0,"byteLength":14448,"byteOffset":100660,"target":34962},{"buffer":0,"byteLength":7224,"byteOffset":115108,"target":34962},{"buffer":0,"byteLength":7224,"byteOffset":122332,"target":34962},{"buffer":0,"byteLength":4080,"byteOffset":129556,"target":34963},{"buffer":0,"byteLength":8064,"byteOffset":133636,"target":34962},{"buffer":0,"byteLength":8064,"byteOffset":141700,"target":34962},{"buffer":0,"byteLength":10752,"byteOffset":149764,"target":34962},{"buffer":0,"byteLength":5376,"byteOffset":160516,"target":34962},{"buffer":0,"byteLength":5376,"byteOffset":165892,"target":34962},{"buffer":0,"byteLength":2040,"byteOffset":171268,"target":34963},{"buffer":0,"byteLength":5100,"byteOffset":173308,"target":34962},{"buffer":0,"byteLength":5100,"byteOffset":178408,"target":34962},{"buffer":0,"byteLength":6800,"byteOffset":183508,"target":34962},{"buffer":0,"byteLength":3400,"byteOffset":190308,"target":34962},{"buffer":0,"byteLength":3400,"byteOffset":193708,"target":34962},{"buffer":0,"byteLength":540,"byteOffset":197108,"target":34963},{"buffer":0,"byteLength":3096,"byteOffset":197648,"target":34962},{"buffer":0,"byteLength":3096,"byteOffset":200744,"target":34962},{"buffer":0,"byteLength":2064,"byteOffset":203840,"target":34962},{"buffer":0,"byteLength":2064,"byteOffset":205904,"target":34962}],"buffers":[{"byteLength":207968,"uri":"SM_Scotch.bin"}],"images":[{"name":"T_Scotch_N","uri":"T_Scotch_N.tga"}],"materials":[{"alphaMode":"OPAQUE","doubleSided":false,"extras":{"fromFBX":{"isTruePBR":false,"shadingModel":"Phong"}},"name":"MI_Scotch","normalTexture":{"index":0,"texCoord":0},"pbrMetallicRoughness":{"baseColorFactor":[0.21586050093174,0.21586050093174,0.21586050093174,1],"metallicFactor":0.400000005960464,"roughnessFactor":0.301511347293854}},{"alphaMode":"OPAQUE","doubleSided":false,"extras":{"fromFBX":{"isTruePBR":false,"shadingModel":"Lambert"}},"name":"DefaultMaterial","pbrMetallicRoughness":{"baseColorFactor":[0.5,0.5,0.5,1],"metallicFactor":0.200000002980232,"roughnessFactor":0.800000011920929}}],"meshes":[{"name":"SM_Scotch_LOD0","primitives":[{"attributes":{"NORMAL":3,"POSITION":2,"TANGENT":4,"TEXCOORD_0":5,"TEXCOORD_1":6},"indices":1,"material":0,"mode":4}]},{"name":"SM_Scotch_LOD1","primitives":[{"attributes":{"NORMAL":9,"POSITION":8,"TANGENT":10,"TEXCOORD_0":11,"TEXCOORD_1":12},"indices":7,"material":0,"mode":4}]},{"name":"SM_Scotch_LOD2","primitives":[{"attributes":{"NORMAL":15,"POSITION":14,"TANGENT":16,"TEXCOORD_0":17,"TEXCOORD_1":18},"indices":13,"material":0,"mode":4}]},{"name":"SM_Scotch_LOD3","primitives":[{"attributes":{"NORMAL":21,"POSITION":20,"TANGENT":22,"TEXCOORD_0":23,"TEXCOORD_1":24},"indices":19,"material":0,"mode":4}]},{"name":"SM_Scotch_ConvexHulls","primitives":[{"attributes":{"NORMAL":27,"POSITION":26,"TEXCOORD_0":28,"TEXCOORD_1":29},"indices":25,"material":1,"mode":4}]}],"nodes":[{"children":[1,2,3,4,5],"name":"SM_Scotch2","originalUnits":0.00999999977648258,"pivot":[0,0,0],"rotation":[0,0,0,1],"scale":[1,1,1],"translation":[0,0,0]},{"mesh":0,"name":"SM_Scotch_LOD0","originalUnits":0.00999999977648258,"pivot":[0,0,0],"rotation":[0,0,0,1],"scale":[1,1,1],"translation":[0,0,0]},{"mesh":4,"name":"SM_Scotch_ConvexHulls","originalUnits":0.00999999977648258,"pivot":[0,0,0],"rotation":[0,0,0,1],"scale":[1,1,1],"translation":[0,0,0]},{"mesh":1,"name":"SM_Scotch_LOD1","originalUnits":0.00999999977648258,"pivot":[0,0,0],"rotation":[0,0,0,1],"scale":[1,1,1],"translation":[0,0,0]},{"mesh":2,"name":"SM_Scotch_LOD2","originalUnits":0.00999999977648258,"pivot":[0,0,0],"rotation":[0,0,0,1],"scale":[1,1,1],"translation":[0,0,0]},{"mesh":3,"name":"SM_Scotch_LOD3","originalUnits":0.00999999977648258,"pivot":[0,0,0],"rotation":[0,0,0,1],"scale":[1,1,1],"translation":[0,0,0]}],"samplers":[{}],"scene":0,"scenes":[{"name":"Root Scene","nodes":[0]}],"textures":[{"name":"T_Scotch_N","sampler":0,"source":0}]}