{"accessors":[{"bufferView":0,"byteOffset":0,"componentType":5126,"count":1,"max":[0],"min":[0],"type":"SCALAR"},{"bufferView":1,"byteOffset":0,"componentType":5123,"count":780,"type":"SCALAR"},{"bufferView":2,"byteOffset":0,"componentType":5126,"count":154,"max":[0.0241999737918377,0.0653642565011978,0.0664289444684982],"min":[-0.02184880711138,-0.0467387586832,-0.05684887245297],"type":"VEC3"},{"bufferView":3,"byteOffset":0,"componentType":5126,"count":154,"type":"VEC3"},{"bufferView":4,"byteOffset":0,"componentType":5126,"count":154,"type":"VEC4"},{"bufferView":5,"byteOffset":0,"componentType":5126,"count":154,"type":"VEC2"},{"bufferView":6,"byteOffset":0,"componentType":5126,"count":154,"type":"VEC2"},{"bufferView":7,"byteOffset":0,"componentType":5123,"count":585,"type":"SCALAR"},{"bufferView":8,"byteOffset":0,"componentType":5126,"count":115,"max":[0.0241999737918377,0.0653642565011978,0.066428929567337],"min":[-0.02184880711138,-0.0467387586832,-0.0568457506597],"type":"VEC3"},{"bufferView":9,"byteOffset":0,"componentType":5126,"count":115,"type":"VEC3"},{"bufferView":10,"byteOffset":0,"componentType":5126,"count":115,"type":"VEC4"},{"bufferView":11,"byteOffset":0,"componentType":5126,"count":115,"type":"VEC2"},{"bufferView":12,"byteOffset":0,"componentType":5126,"count":115,"type":"VEC2"},{"bufferView":13,"byteOffset":0,"componentType":5123,"count":390,"type":"SCALAR"},{"bufferView":14,"byteOffset":0,"componentType":5126,"count":79,"max":[0.0241999737918377,0.0653642565011978,0.066428929567337],"min":[-0.02184880711138,-0.0467387586832,-0.0568457506597],"type":"VEC3"},{"bufferView":15,"byteOffset":0,"componentType":5126,"count":79,"type":"VEC3"},{"bufferView":16,"byteOffset":0,"componentType":5126,"count":79,"type":"VEC4"},{"bufferView":17,"byteOffset":0,"componentType":5126,"count":79,"type":"VEC2"},{"bufferView":18,"byteOffset":0,"componentType":5126,"count":79,"type":"VEC2"},{"bufferView":19,"byteOffset":0,"componentType":5123,"count":192,"type":"SCALAR"},{"bufferView":20,"byteOffset":0,"componentType":5126,"count":43,"max":[0.0241999737918377,0.0653642565011978,0.066428929567337],"min":[-0.02216567657888,-0.0466082431376,-0.0568457506597],"type":"VEC3"},{"bufferView":21,"byteOffset":0,"componentType":5126,"count":43,"type":"VEC3"},{"bufferView":22,"byteOffset":0,"componentType":5126,"count":43,"type":"VEC4"},{"bufferView":23,"byteOffset":0,"componentType":5126,"count":43,"type":"VEC2"},{"bufferView":24,"byteOffset":0,"componentType":5126,"count":43,"type":"VEC2"},{"bufferView":25,"byteOffset":0,"componentType":5123,"count":300,"type":"SCALAR"},{"bufferView":26,"byteOffset":0,"componentType":5126,"count":282,"max":[0.0253197774291039,0.0659271404147148,0.0662004575133324],"min":[-0.02269375510514,-0.0476260446012,-0.05595584586263],"type":"VEC3"},{"bufferView":27,"byteOffset":0,"componentType":5126,"count":282,"type":"VEC3"},{"bufferView":28,"byteOffset":0,"componentType":5126,"count":282,"type":"VEC2"},{"bufferView":29,"byteOffset":0,"componentType":5126,"count":282,"type":"VEC2"}],"animations":[{"channels":[],"name":"Unreal Take","samplers":[]}],"asset":{"generator":"FBX2glTF v0.13.0","version":"2.0"},"bufferViews":[{"buffer":0,"byteLength":4,"byteOffset":0},{"buffer":0,"byteLength":1560,"byteOffset":4,"target":34963},{"buffer":0,"byteLength":1848,"byteOffset":1564,"target":34962},{"buffer":0,"byteLength":1848,"byteOffset":3412,"target":34962},{"buffer":0,"byteLength":2464,"byteOffset":5260,"target":34962},{"buffer":0,"byteLength":1232,"byteOffset":7724,"target":34962},{"buffer":0,"byteLength":1232,"byteOffset":8956,"target":34962},{"buffer":0,"byteLength":1170,"byteOffset":10188,"target":34963},{"buffer":0,"byteLength":1380,"byteOffset":11360,"target":34962},{"buffer":0,"byteLength":1380,"byteOffset":12740,"target":34962},{"buffer":0,"byteLength":1840,"byteOffset":14120,"target":34962},{"buffer":0,"byteLength":920,"byteOffset":15960,"target":34962},{"buffer":0,"byteLength":920,"byteOffset":16880,"target":34962},{"buffer":0,"byteLength":780,"byteOffset":17800,"target":34963},{"buffer":0,"byteLength":948,"byteOffset":18580,"target":34962},{"buffer":0,"byteLength":948,"byteOffset":19528,"target":34962},{"buffer":0,"byteLength":1264,"byteOffset":20476,"target":34962},{"buffer":0,"byteLength":632,"byteOffset":21740,"target":34962},{"buffer":0,"byteLength":632,"byteOffset":22372,"target":34962},{"buffer":0,"byteLength":384,"byteOffset":23004,"target":34963},{"buffer":0,"byteLength":516,"byteOffset":23388,"target":34962},{"buffer":0,"byteLength":516,"byteOffset":23904,"target":34962},{"buffer":0,"byteLength":688,"byteOffset":24420,"target":34962},{"buffer":0,"byteLength":344,"byteOffset":25108,"target":34962},{"buffer":0,"byteLength":344,"byteOffset":25452,"target":34962},{"buffer":0,"byteLength":600,"byteOffset":25796,"target":34963},{"buffer":0,"byteLength":3384,"byteOffset":26396,"target":34962},{"buffer":0,"byteLength":3384,"byteOffset":29780,"target":34962},{"buffer":0,"byteLength":2256,"byteOffset":33164,"target":34962},{"buffer":0,"byteLength":2256,"byteOffset":35420,"target":34962}],"buffers":[{"byteLength":37676,"uri":"SM_Sticky_Note.bin"}],"images":[{"name":"T_Heavy_Fabric01_N","uri":"T_Heavy_Fabric01_N.tga"}],"materials":[{"alphaMode":"OPAQUE","doubleSided":false,"extras":{"fromFBX":{"isTruePBR":false,"shadingModel":"Phong"}},"name":"MI_Juan_Note","normalTexture":{"index":0,"texCoord":0},"pbrMetallicRoughness":{"baseColorFactor":[0.21586050093174,0.21586050093174,0.21586050093174,1],"metallicFactor":0.400000005960464,"roughnessFactor":0.301511347293854}},{"alphaMode":"OPAQUE","doubleSided":false,"extras":{"fromFBX":{"isTruePBR":false,"shadingModel":"Lambert"}},"name":"DefaultMaterial","pbrMetallicRoughness":{"baseColorFactor":[0.5,0.5,0.5,1],"metallicFactor":0.200000002980232,"roughnessFactor":0.800000011920929}}],"meshes":[{"name":"SM_Sticky_Note_LOD0","primitives":[{"attributes":{"NORMAL":3,"POSITION":2,"TANGENT":4,"TEXCOORD_0":5,"TEXCOORD_1":6},"indices":1,"material":0,"mode":4}]},{"name":"SM_Sticky_Note_LOD1","primitives":[{"attributes":{"NORMAL":9,"POSITION":8,"TANGENT":10,"TEXCOORD_0":11,"TEXCOORD_1":12},"indices":7,"material":0,"mode":4}]},{"name":"SM_Sticky_Note_LOD2","primitives":[{"attributes":{"NORMAL":15,"POSITION":14,"TANGENT":16,"TEXCOORD_0":17,"TEXCOORD_1":18},"indices":13,"material":0,"mode":4}]},{"name":"SM_Sticky_Note_LOD3","primitives":[{"attributes":{"NORMAL":21,"POSITION":20,"TANGENT":22,"TEXCOORD_0":23,"TEXCOORD_1":24},"indices":19,"material":0,"mode":4}]},{"name":"SM_Sticky_Note_ConvexHulls","primitives":[{"attributes":{"NORMAL":27,"POSITION":26,"TEXCOORD_0":28,"TEXCOORD_1":29},"indices":25,"material":1,"mode":4}]}],"nodes":[{"children":[1,2,3,4,5],"name":"Sticky_Note_SM_2","originalUnits":0.00999999977648258,"pivot":[0,0,0],"rotation":[0,0,0,1],"scale":[1,1,1],"translation":[0,0,0]},{"mesh":0,"name":"SM_Sticky_Note_LOD0","originalUnits":0.00999999977648258,"pivot":[0,0,0],"rotation":[0,0,0,1],"scale":[1,1,1],"translation":[0,0,0]},{"mesh":4,"name":"SM_Sticky_Note_ConvexHulls","originalUnits":0.00999999977648258,"pivot":[0,0,0],"rotation":[0,0,0,1],"scale":[1,1,1],"translation":[0,0,0]},{"mesh":1,"name":"SM_Sticky_Note_LOD1","originalUnits":0.00999999977648258,"pivot":[0,0,0],"rotation":[0,0,0,1],"scale":[1,1,1],"translation":[0,0,0]},{"mesh":2,"name":"SM_Sticky_Note_LOD2","originalUnits":0.00999999977648258,"pivot":[0,0,0],"rotation":[0,0,0,1],"scale":[1,1,1],"translation":[0,0,0]},{"mesh":3,"name":"SM_Sticky_Note_LOD3","originalUnits":0.00999999977648258,"pivot":[0,0,0],"rotation":[0,0,0,1],"scale":[1,1,1],"translation":[0,0,0]}],"samplers":[{}],"scene":0,"scenes":[{"name":"Root Scene","nodes":[0]}],"textures":[{"name":"T_Heavy_Fabric01_N","sampler":0,"source":0}]}