{"accessors":[{"bufferView":0,"byteOffset":0,"componentType":5126,"count":1,"max":[0],"min":[0],"type":"SCALAR"},{"bufferView":1,"byteOffset":0,"componentType":5123,"count":780,"type":"SCALAR"},{"bufferView":2,"byteOffset":0,"componentType":5126,"count":648,"max":[0.0241999737918377,0.0653642565011978,0.0664289444684982],"min":[-0.02184880524874,-0.0467387586832,-0.05684887245297],"type":"VEC3"},{"bufferView":3,"byteOffset":0,"componentType":5126,"count":648,"type":"VEC3"},{"bufferView":4,"byteOffset":0,"componentType":5126,"count":648,"type":"VEC4"},{"bufferView":5,"byteOffset":0,"componentType":5126,"count":648,"type":"VEC2"},{"bufferView":6,"byteOffset":0,"componentType":5126,"count":648,"type":"VEC2"},{"bufferView":7,"byteOffset":0,"componentType":5123,"count":585,"type":"SCALAR"},{"bufferView":8,"byteOffset":0,"componentType":5126,"count":479,"max":[0.0242308620363474,0.0633270293474197,0.0664289444684982],"min":[-0.02184880524874,-0.0467387586832,-0.05255899205804],"type":"VEC3"},{"bufferView":9,"byteOffset":0,"componentType":5126,"count":479,"type":"VEC3"},{"bufferView":10,"byteOffset":0,"componentType":5126,"count":479,"type":"VEC4"},{"bufferView":11,"byteOffset":0,"componentType":5126,"count":479,"type":"VEC2"},{"bufferView":12,"byteOffset":0,"componentType":5126,"count":479,"type":"VEC2"},{"bufferView":13,"byteOffset":0,"componentType":5123,"count":387,"type":"SCALAR"},{"bufferView":14,"byteOffset":0,"componentType":5126,"count":318,"max":[0.0191800128668547,0.0396161898970604,0.0664289444684982],"min":[-0.02184880524874,-0.0467387586832,-0.05111356452107],"type":"VEC3"},{"bufferView":15,"byteOffset":0,"componentType":5126,"count":318,"type":"VEC3"},{"bufferView":16,"byteOffset":0,"componentType":5126,"count":318,"type":"VEC4"},{"bufferView":17,"byteOffset":0,"componentType":5126,"count":318,"type":"VEC2"},{"bufferView":18,"byteOffset":0,"componentType":5126,"count":318,"type":"VEC2"},{"bufferView":19,"byteOffset":0,"componentType":5123,"count":192,"type":"SCALAR"},{"bufferView":20,"byteOffset":0,"componentType":5126,"count":170,"max":[0.0190097317099571,0.0325970351696014,0.0664289444684982],"min":[-0.02134711295366,-0.03343622758985,-0.039386510849],"type":"VEC3"},{"bufferView":21,"byteOffset":0,"componentType":5126,"count":170,"type":"VEC3"},{"bufferView":22,"byteOffset":0,"componentType":5126,"count":170,"type":"VEC4"},{"bufferView":23,"byteOffset":0,"componentType":5126,"count":170,"type":"VEC2"},{"bufferView":24,"byteOffset":0,"componentType":5126,"count":170,"type":"VEC2"},{"bufferView":25,"byteOffset":0,"componentType":5123,"count":300,"type":"SCALAR"},{"bufferView":26,"byteOffset":0,"componentType":5126,"count":284,"max":[0.0253202226012945,0.06638053804636,0.0669172331690788],"min":[-0.02249399200082,-0.04763790592551,-0.05595587193966],"type":"VEC3"},{"bufferView":27,"byteOffset":0,"componentType":5126,"count":284,"type":"VEC3"},{"bufferView":28,"byteOffset":0,"componentType":5126,"count":284,"type":"VEC2"},{"bufferView":29,"byteOffset":0,"componentType":5126,"count":284,"type":"VEC2"}],"animations":[{"channels":[],"name":"Unreal Take","samplers":[]}],"asset":{"generator":"FBX2glTF v0.13.0","version":"2.0"},"bufferViews":[{"buffer":0,"byteLength":4,"byteOffset":0},{"buffer":0,"byteLength":1560,"byteOffset":4,"target":34963},{"buffer":0,"byteLength":7776,"byteOffset":1564,"target":34962},{"buffer":0,"byteLength":7776,"byteOffset":9340,"target":34962},{"buffer":0,"byteLength":10368,"byteOffset":17116,"target":34962},{"buffer":0,"byteLength":5184,"byteOffset":27484,"target":34962},{"buffer":0,"byteLength":5184,"byteOffset":32668,"target":34962},{"buffer":0,"byteLength":1170,"byteOffset":37852,"target":34963},{"buffer":0,"byteLength":5748,"byteOffset":39024,"target":34962},{"buffer":0,"byteLength":5748,"byteOffset":44772,"target":34962},{"buffer":0,"byteLength":7664,"byteOffset":50520,"target":34962},{"buffer":0,"byteLength":3832,"byteOffset":58184,"target":34962},{"buffer":0,"byteLength":3832,"byteOffset":62016,"target":34962},{"buffer":0,"byteLength":774,"byteOffset":65848,"target":34963},{"buffer":0,"byteLength":3816,"byteOffset":66624,"target":34962},{"buffer":0,"byteLength":3816,"byteOffset":70440,"target":34962},{"buffer":0,"byteLength":5088,"byteOffset":74256,"target":34962},{"buffer":0,"byteLength":2544,"byteOffset":79344,"target":34962},{"buffer":0,"byteLength":2544,"byteOffset":81888,"target":34962},{"buffer":0,"byteLength":384,"byteOffset":84432,"target":34963},{"buffer":0,"byteLength":2040,"byteOffset":84816,"target":34962},{"buffer":0,"byteLength":2040,"byteOffset":86856,"target":34962},{"buffer":0,"byteLength":2720,"byteOffset":88896,"target":34962},{"buffer":0,"byteLength":1360,"byteOffset":91616,"target":34962},{"buffer":0,"byteLength":1360,"byteOffset":92976,"target":34962},{"buffer":0,"byteLength":600,"byteOffset":94336,"target":34963},{"buffer":0,"byteLength":3408,"byteOffset":94936,"target":34962},{"buffer":0,"byteLength":3408,"byteOffset":98344,"target":34962},{"buffer":0,"byteLength":2272,"byteOffset":101752,"target":34962},{"buffer":0,"byteLength":2272,"byteOffset":104024,"target":34962}],"buffers":[{"byteLength":106296,"uri":"SM_StickyNotes_04.bin"}],"images":[{"name":"T_Heavy_Fabric01_N","uri":"T_Heavy_Fabric01_N.tga"}],"materials":[{"alphaMode":"OPAQUE","doubleSided":false,"extras":{"fromFBX":{"isTruePBR":false,"shadingModel":"Phong"}},"name":"MI_Sticky_Note_Extra","normalTexture":{"index":0,"texCoord":0},"pbrMetallicRoughness":{"baseColorFactor":[0.21586050093174,0.21586050093174,0.21586050093174,1],"metallicFactor":0.400000005960464,"roughnessFactor":0.301511347293854}},{"alphaMode":"OPAQUE","doubleSided":false,"extras":{"fromFBX":{"isTruePBR":false,"shadingModel":"Lambert"}},"name":"DefaultMaterial","pbrMetallicRoughness":{"baseColorFactor":[0.5,0.5,0.5,1],"metallicFactor":0.200000002980232,"roughnessFactor":0.800000011920929}}],"meshes":[{"name":"SM_StickyNotes_04_LOD0","primitives":[{"attributes":{"NORMAL":3,"POSITION":2,"TANGENT":4,"TEXCOORD_0":5,"TEXCOORD_1":6},"indices":1,"material":0,"mode":4}]},{"name":"SM_StickyNotes_04_LOD1","primitives":[{"attributes":{"NORMAL":9,"POSITION":8,"TANGENT":10,"TEXCOORD_0":11,"TEXCOORD_1":12},"indices":7,"material":0,"mode":4}]},{"name":"SM_StickyNotes_04_LOD2","primitives":[{"attributes":{"NORMAL":15,"POSITION":14,"TANGENT":16,"TEXCOORD_0":17,"TEXCOORD_1":18},"indices":13,"material":0,"mode":4}]},{"name":"SM_StickyNotes_04_LOD3","primitives":[{"attributes":{"NORMAL":21,"POSITION":20,"TANGENT":22,"TEXCOORD_0":23,"TEXCOORD_1":24},"indices":19,"material":0,"mode":4}]},{"name":"SM_StickyNotes_04_ConvexHulls","primitives":[{"attributes":{"NORMAL":27,"POSITION":26,"TEXCOORD_0":28,"TEXCOORD_1":29},"indices":25,"material":1,"mode":4}]}],"nodes":[{"children":[1,2,3,4,5],"name":"Extra_Sticky_Notes_Sticky_Note_03_11","originalUnits":0.00999999977648258,"pivot":[0,0,0],"rotation":[0,0,0,1],"scale":[1,1,1],"translation":[0,0,0]},{"mesh":0,"name":"SM_StickyNotes_04_LOD0","originalUnits":0.00999999977648258,"pivot":[0,0,0],"rotation":[0,0,0,1],"scale":[1,1,1],"translation":[0,0,0]},{"mesh":4,"name":"SM_StickyNotes_04_ConvexHulls","originalUnits":0.00999999977648258,"pivot":[0,0,0],"rotation":[0,0,0,1],"scale":[1,1,1],"translation":[0,0,0]},{"mesh":1,"name":"SM_StickyNotes_04_LOD1","originalUnits":0.00999999977648258,"pivot":[0,0,0],"rotation":[0,0,0,1],"scale":[1,1,1],"translation":[0,0,0]},{"mesh":2,"name":"SM_StickyNotes_04_LOD2","originalUnits":0.00999999977648258,"pivot":[0,0,0],"rotation":[0,0,0,1],"scale":[1,1,1],"translation":[0,0,0]},{"mesh":3,"name":"SM_StickyNotes_04_LOD3","originalUnits":0.00999999977648258,"pivot":[0,0,0],"rotation":[0,0,0,1],"scale":[1,1,1],"translation":[0,0,0]}],"samplers":[{}],"scene":0,"scenes":[{"name":"Root Scene","nodes":[0]}],"textures":[{"name":"T_Heavy_Fabric01_N","sampler":0,"source":0}]}