{"accessors":[{"bufferView":0,"byteOffset":0,"componentType":5126,"count":1,"max":[0],"min":[0],"type":"SCALAR"},{"bufferView":1,"byteOffset":0,"componentType":5123,"count":11904,"type":"SCALAR"},{"bufferView":2,"byteOffset":0,"componentType":5126,"count":2208,"max":[4092.8427734375,4095.99926757812,4090.23315429688],"min":[-4092.84375,-4095.99926757812,-4095.45458984375],"type":"VEC3"},{"bufferView":3,"byteOffset":0,"componentType":5126,"count":2208,"type":"VEC3"},{"bufferView":4,"byteOffset":0,"componentType":5126,"count":2208,"type":"VEC4"},{"bufferView":5,"byteOffset":0,"componentType":5126,"count":2208,"type":"VEC2"},{"bufferView":6,"byteOffset":0,"componentType":5126,"count":2208,"type":"VEC2"},{"bufferView":7,"byteOffset":0,"componentType":5123,"count":8928,"type":"SCALAR"},{"bufferView":8,"byteOffset":0,"componentType":5126,"count":1612,"max":[4092.8427734375,4095.99926757812,4090.23315429688],"min":[-4092.84375,-4095.99926757812,-4095.45458984375],"type":"VEC3"},{"bufferView":9,"byteOffset":0,"componentType":5126,"count":1612,"type":"VEC3"},{"bufferView":10,"byteOffset":0,"componentType":5126,"count":1612,"type":"VEC4"},{"bufferView":11,"byteOffset":0,"componentType":5126,"count":1612,"type":"VEC2"},{"bufferView":12,"byteOffset":0,"componentType":5126,"count":1612,"type":"VEC2"},{"bufferView":13,"byteOffset":0,"componentType":5123,"count":5952,"type":"SCALAR"},{"bufferView":14,"byteOffset":0,"componentType":5126,"count":1079,"max":[4092.8427734375,4121.8056640625,4090.23315429688],"min":[-4092.84375,-4121.8056640625,-4091.50170898438],"type":"VEC3"},{"bufferView":15,"byteOffset":0,"componentType":5126,"count":1079,"type":"VEC3"},{"bufferView":16,"byteOffset":0,"componentType":5126,"count":1079,"type":"VEC4"},{"bufferView":17,"byteOffset":0,"componentType":5126,"count":1079,"type":"VEC2"},{"bufferView":18,"byteOffset":0,"componentType":5126,"count":1079,"type":"VEC2"},{"bufferView":19,"byteOffset":0,"componentType":5123,"count":2976,"type":"SCALAR"},{"bufferView":20,"byteOffset":0,"componentType":5126,"count":558,"max":[4101.65283203125,4121.8056640625,4086.28076171875],"min":[-4088.890625,-4121.8056640625,-4091.50170898438],"type":"VEC3"},{"bufferView":21,"byteOffset":0,"componentType":5126,"count":558,"type":"VEC3"},{"bufferView":22,"byteOffset":0,"componentType":5126,"count":558,"type":"VEC4"},{"bufferView":23,"byteOffset":0,"componentType":5126,"count":558,"type":"VEC2"},{"bufferView":24,"byteOffset":0,"componentType":5126,"count":558,"type":"VEC2"}],"animations":[{"channels":[],"name":"Unreal Take","samplers":[]}],"asset":{"generator":"FBX2glTF v0.13.0","version":"2.0"},"bufferViews":[{"buffer":0,"byteLength":4,"byteOffset":0},{"buffer":0,"byteLength":23808,"byteOffset":4,"target":34963},{"buffer":0,"byteLength":26496,"byteOffset":23812,"target":34962},{"buffer":0,"byteLength":26496,"byteOffset":50308,"target":34962},{"buffer":0,"byteLength":35328,"byteOffset":76804,"target":34962},{"buffer":0,"byteLength":17664,"byteOffset":112132,"target":34962},{"buffer":0,"byteLength":17664,"byteOffset":129796,"target":34962},{"buffer":0,"byteLength":17856,"byteOffset":147460,"target":34963},{"buffer":0,"byteLength":19344,"byteOffset":165316,"target":34962},{"buffer":0,"byteLength":19344,"byteOffset":184660,"target":34962},{"buffer":0,"byteLength":25792,"byteOffset":204004,"target":34962},{"buffer":0,"byteLength":12896,"byteOffset":229796,"target":34962},{"buffer":0,"byteLength":12896,"byteOffset":242692,"target":34962},{"buffer":0,"byteLength":11904,"byteOffset":255588,"target":34963},{"buffer":0,"byteLength":12948,"byteOffset":267492,"target":34962},{"buffer":0,"byteLength":12948,"byteOffset":280440,"target":34962},{"buffer":0,"byteLength":17264,"byteOffset":293388,"target":34962},{"buffer":0,"byteLength":8632,"byteOffset":310652,"target":34962},{"buffer":0,"byteLength":8632,"byteOffset":319284,"target":34962},{"buffer":0,"byteLength":5952,"byteOffset":327916,"target":34963},{"buffer":0,"byteLength":6696,"byteOffset":333868,"target":34962},{"buffer":0,"byteLength":6696,"byteOffset":340564,"target":34962},{"buffer":0,"byteLength":8928,"byteOffset":347260,"target":34962},{"buffer":0,"byteLength":4464,"byteOffset":356188,"target":34962},{"buffer":0,"byteLength":4464,"byteOffset":360652,"target":34962}],"buffers":[{"byteLength":365116,"uri":"SM_SkySphere.bin"}],"materials":[{"alphaMode":"OPAQUE","doubleSided":false,"extras":{"fromFBX":{"isTruePBR":false,"shadingModel":"Lambert"}},"name":"MI_Master_Sky","pbrMetallicRoughness":{"baseColorFactor":[0.21586050093174,0.21586050093174,0.21586050093174,1],"metallicFactor":0.200000002980232,"roughnessFactor":0.800000011920929}}],"meshes":[{"name":"SM_SkySphere_LOD0","primitives":[{"attributes":{"NORMAL":3,"POSITION":2,"TANGENT":4,"TEXCOORD_0":5,"TEXCOORD_1":6},"indices":1,"material":0,"mode":4}]},{"name":"SM_SkySphere_LOD1","primitives":[{"attributes":{"NORMAL":9,"POSITION":8,"TANGENT":10,"TEXCOORD_0":11,"TEXCOORD_1":12},"indices":7,"material":0,"mode":4}]},{"name":"SM_SkySphere_LOD2","primitives":[{"attributes":{"NORMAL":15,"POSITION":14,"TANGENT":16,"TEXCOORD_0":17,"TEXCOORD_1":18},"indices":13,"material":0,"mode":4}]},{"name":"SM_SkySphere_LOD3","primitives":[{"attributes":{"NORMAL":21,"POSITION":20,"TANGENT":22,"TEXCOORD_0":23,"TEXCOORD_1":24},"indices":19,"material":0,"mode":4}]}],"nodes":[{"children":[1,2,3,4],"name":"SkySphere_2","originalUnits":0.00999999977648258,"pivot":[0,0,0],"rotation":[0,0,0,1],"scale":[1,1,1],"translation":[0,0,0]},{"mesh":0,"name":"SM_SkySphere_LOD0","originalUnits":0.00999999977648258,"pivot":[0,0,0],"rotation":[0,0,0,1],"scale":[1,1,1],"translation":[0,0,0]},{"mesh":1,"name":"SM_SkySphere_LOD1","originalUnits":0.00999999977648258,"pivot":[0,0,0],"rotation":[0,0,0,1],"scale":[1,1,1],"translation":[0,0,0]},{"mesh":2,"name":"SM_SkySphere_LOD2","originalUnits":0.00999999977648258,"pivot":[0,0,0],"rotation":[0,0,0,1],"scale":[1,1,1],"translation":[0,0,0]},{"mesh":3,"name":"SM_SkySphere_LOD3","originalUnits":0.00999999977648258,"pivot":[0,0,0],"rotation":[0,0,0,1],"scale":[1,1,1],"translation":[0,0,0]}],"samplers":[{}],"scene":0,"scenes":[{"name":"Root Scene","nodes":[0]}]}