{"accessors":[{"bufferView":0,"byteOffset":0,"componentType":5126,"count":1,"max":[0],"min":[0],"type":"SCALAR"},{"bufferView":1,"byteOffset":0,"componentType":5123,"count":2280,"type":"SCALAR"},{"bufferView":2,"byteOffset":0,"componentType":5126,"count":639,"max":[0.81525444984436,0.454746603965759,0.450386166572571],"min":[-0.81525421142578,-0.00000005647022,-0.45038521289825],"type":"VEC3"},{"bufferView":3,"byteOffset":0,"componentType":5126,"count":639,"type":"VEC3"},{"bufferView":4,"byteOffset":0,"componentType":5126,"count":639,"type":"VEC4"},{"bufferView":5,"byteOffset":0,"componentType":5126,"count":639,"type":"VEC2"},{"bufferView":6,"byteOffset":0,"componentType":5126,"count":639,"type":"VEC2"},{"bufferView":7,"byteOffset":0,"componentType":5123,"count":1710,"type":"SCALAR"},{"bufferView":8,"byteOffset":0,"componentType":5126,"count":510,"max":[0.81525444984436,0.454746603965759,0.447958707809448],"min":[-0.81620460748672,-0.00003514045238,-0.45192363858223],"type":"VEC3"},{"bufferView":9,"byteOffset":0,"componentType":5126,"count":510,"type":"VEC3"},{"bufferView":10,"byteOffset":0,"componentType":5126,"count":510,"type":"VEC4"},{"bufferView":11,"byteOffset":0,"componentType":5126,"count":510,"type":"VEC2"},{"bufferView":12,"byteOffset":0,"componentType":5126,"count":510,"type":"VEC2"},{"bufferView":13,"byteOffset":0,"componentType":5123,"count":1137,"type":"SCALAR"},{"bufferView":14,"byteOffset":0,"componentType":5126,"count":352,"max":[0.81525444984436,0.454746603965759,0.447958707809448],"min":[-0.81620460748672,-0.00062470452394,-0.44963198900223],"type":"VEC3"},{"bufferView":15,"byteOffset":0,"componentType":5126,"count":352,"type":"VEC3"},{"bufferView":16,"byteOffset":0,"componentType":5126,"count":352,"type":"VEC4"},{"bufferView":17,"byteOffset":0,"componentType":5126,"count":352,"type":"VEC2"},{"bufferView":18,"byteOffset":0,"componentType":5126,"count":352,"type":"VEC2"},{"bufferView":19,"byteOffset":0,"componentType":5123,"count":567,"type":"SCALAR"},{"bufferView":20,"byteOffset":0,"componentType":5126,"count":189,"max":[0.812985002994537,0.454746603965759,0.446367830038071],"min":[-0.81629353761673,-0.00229965383187,-0.44604822993278],"type":"VEC3"},{"bufferView":21,"byteOffset":0,"componentType":5126,"count":189,"type":"VEC3"},{"bufferView":22,"byteOffset":0,"componentType":5126,"count":189,"type":"VEC4"},{"bufferView":23,"byteOffset":0,"componentType":5126,"count":189,"type":"VEC2"},{"bufferView":24,"byteOffset":0,"componentType":5126,"count":189,"type":"VEC2"},{"bufferView":25,"byteOffset":0,"componentType":5123,"count":240,"type":"SCALAR"},{"bufferView":26,"byteOffset":0,"componentType":5126,"count":232,"max":[0.809455573558807,0.464162915945053,0.428154945373535],"min":[-0.8094534277916,-0.01028060168028,-0.44178867340088],"type":"VEC3"},{"bufferView":27,"byteOffset":0,"componentType":5126,"count":232,"type":"VEC3"},{"bufferView":28,"byteOffset":0,"componentType":5126,"count":232,"type":"VEC2"},{"bufferView":29,"byteOffset":0,"componentType":5126,"count":232,"type":"VEC2"}],"animations":[{"channels":[],"name":"Unreal Take","samplers":[]}],"asset":{"generator":"FBX2glTF v0.13.0","version":"2.0"},"bufferViews":[{"buffer":0,"byteLength":4,"byteOffset":0},{"buffer":0,"byteLength":4560,"byteOffset":4,"target":34963},{"buffer":0,"byteLength":7668,"byteOffset":4564,"target":34962},{"buffer":0,"byteLength":7668,"byteOffset":12232,"target":34962},{"buffer":0,"byteLength":10224,"byteOffset":19900,"target":34962},{"buffer":0,"byteLength":5112,"byteOffset":30124,"target":34962},{"buffer":0,"byteLength":5112,"byteOffset":35236,"target":34962},{"buffer":0,"byteLength":3420,"byteOffset":40348,"target":34963},{"buffer":0,"byteLength":6120,"byteOffset":43768,"target":34962},{"buffer":0,"byteLength":6120,"byteOffset":49888,"target":34962},{"buffer":0,"byteLength":8160,"byteOffset":56008,"target":34962},{"buffer":0,"byteLength":4080,"byteOffset":64168,"target":34962},{"buffer":0,"byteLength":4080,"byteOffset":68248,"target":34962},{"buffer":0,"byteLength":2274,"byteOffset":72328,"target":34963},{"buffer":0,"byteLength":4224,"byteOffset":74604,"target":34962},{"buffer":0,"byteLength":4224,"byteOffset":78828,"target":34962},{"buffer":0,"byteLength":5632,"byteOffset":83052,"target":34962},{"buffer":0,"byteLength":2816,"byteOffset":88684,"target":34962},{"buffer":0,"byteLength":2816,"byteOffset":91500,"target":34962},{"buffer":0,"byteLength":1134,"byteOffset":94316,"target":34963},{"buffer":0,"byteLength":2268,"byteOffset":95452,"target":34962},{"buffer":0,"byteLength":2268,"byteOffset":97720,"target":34962},{"buffer":0,"byteLength":3024,"byteOffset":99988,"target":34962},{"buffer":0,"byteLength":1512,"byteOffset":103012,"target":34962},{"buffer":0,"byteLength":1512,"byteOffset":104524,"target":34962},{"buffer":0,"byteLength":480,"byteOffset":106036,"target":34963},{"buffer":0,"byteLength":2784,"byteOffset":106516,"target":34962},{"buffer":0,"byteLength":2784,"byteOffset":109300,"target":34962},{"buffer":0,"byteLength":1856,"byteOffset":112084,"target":34962},{"buffer":0,"byteLength":1856,"byteOffset":113940,"target":34962}],"buffers":[{"byteLength":115796,"uri":"SM_SmallTable_01.bin"}],"images":[{"name":"T_SmallTable_01_N","uri":"T_SmallTable_01_N.tga"}],"materials":[{"alphaMode":"OPAQUE","doubleSided":false,"extras":{"fromFBX":{"isTruePBR":false,"shadingModel":"Phong"}},"name":"MI_SmallTable","normalTexture":{"index":0,"texCoord":0},"pbrMetallicRoughness":{"baseColorFactor":[0.21586050093174,0.21586050093174,0.21586050093174,1],"metallicFactor":0.400000005960464,"roughnessFactor":0.301511347293854}},{"alphaMode":"OPAQUE","doubleSided":false,"extras":{"fromFBX":{"isTruePBR":false,"shadingModel":"Lambert"}},"name":"DefaultMaterial","pbrMetallicRoughness":{"baseColorFactor":[0.5,0.5,0.5,1],"metallicFactor":0.200000002980232,"roughnessFactor":0.800000011920929}}],"meshes":[{"name":"SM_SmallTable_01_LOD0","primitives":[{"attributes":{"NORMAL":3,"POSITION":2,"TANGENT":4,"TEXCOORD_0":5,"TEXCOORD_1":6},"indices":1,"material":0,"mode":4}]},{"name":"SM_SmallTable_01_LOD1","primitives":[{"attributes":{"NORMAL":9,"POSITION":8,"TANGENT":10,"TEXCOORD_0":11,"TEXCOORD_1":12},"indices":7,"material":0,"mode":4}]},{"name":"SM_SmallTable_01_LOD2","primitives":[{"attributes":{"NORMAL":15,"POSITION":14,"TANGENT":16,"TEXCOORD_0":17,"TEXCOORD_1":18},"indices":13,"material":0,"mode":4}]},{"name":"SM_SmallTable_01_LOD3","primitives":[{"attributes":{"NORMAL":21,"POSITION":20,"TANGENT":22,"TEXCOORD_0":23,"TEXCOORD_1":24},"indices":19,"material":0,"mode":4}]},{"name":"SM_SmallTable_01_ConvexHulls","primitives":[{"attributes":{"NORMAL":27,"POSITION":26,"TEXCOORD_0":28,"TEXCOORD_1":29},"indices":25,"material":1,"mode":4}]}],"nodes":[{"children":[1,2,3,4,5],"name":"SM_SmallTable_01_96","originalUnits":0.00999999977648258,"pivot":[0,0,0],"rotation":[0,0,0,1],"scale":[1,1,1],"translation":[0,0,0]},{"mesh":0,"name":"SM_SmallTable_01_LOD0","originalUnits":0.00999999977648258,"pivot":[0,0,0],"rotation":[0,0,0,1],"scale":[1,1,1],"translation":[0,0,0]},{"mesh":4,"name":"SM_SmallTable_01_ConvexHulls","originalUnits":0.00999999977648258,"pivot":[0,0,0],"rotation":[0,0,0,1],"scale":[1,1,1],"translation":[0,0,0]},{"mesh":1,"name":"SM_SmallTable_01_LOD1","originalUnits":0.00999999977648258,"pivot":[0,0,0],"rotation":[0,0,0,1],"scale":[1,1,1],"translation":[0,0,0]},{"mesh":2,"name":"SM_SmallTable_01_LOD2","originalUnits":0.00999999977648258,"pivot":[0,0,0],"rotation":[0,0,0,1],"scale":[1,1,1],"translation":[0,0,0]},{"mesh":3,"name":"SM_SmallTable_01_LOD3","originalUnits":0.00999999977648258,"pivot":[0,0,0],"rotation":[0,0,0,1],"scale":[1,1,1],"translation":[0,0,0]}],"samplers":[{}],"scene":0,"scenes":[{"name":"Root Scene","nodes":[0]}],"textures":[{"name":"T_SmallTable_01_N","sampler":0,"source":0}]}