{"accessors":[{"bufferView":0,"byteOffset":0,"componentType":5126,"count":1,"max":[0],"min":[0],"type":"SCALAR"},{"bufferView":1,"byteOffset":0,"componentType":5123,"count":6180,"type":"SCALAR"},{"bufferView":2,"byteOffset":0,"componentType":5126,"count":2300,"max":[0.0526904575526714,2.59638142585754,0.28764995932579],"min":[-0.0456419326365,-0.0000000026448,-0.27415543794632],"type":"VEC3"},{"bufferView":3,"byteOffset":0,"componentType":5126,"count":2300,"type":"VEC3"},{"bufferView":4,"byteOffset":0,"componentType":5126,"count":2300,"type":"VEC4"},{"bufferView":5,"byteOffset":0,"componentType":5126,"count":2300,"type":"VEC2"},{"bufferView":6,"byteOffset":0,"componentType":5126,"count":2300,"type":"VEC2"},{"bufferView":7,"byteOffset":0,"componentType":5123,"count":4632,"type":"SCALAR"},{"bufferView":8,"byteOffset":0,"componentType":5126,"count":1784,"max":[0.0526904575526714,2.59638142585754,0.28764995932579],"min":[-0.0456419326365,0.0000000142054652485513,-0.27415543794632],"type":"VEC3"},{"bufferView":9,"byteOffset":0,"componentType":5126,"count":1784,"type":"VEC3"},{"bufferView":10,"byteOffset":0,"componentType":5126,"count":1784,"type":"VEC4"},{"bufferView":11,"byteOffset":0,"componentType":5126,"count":1784,"type":"VEC2"},{"bufferView":12,"byteOffset":0,"componentType":5126,"count":1784,"type":"VEC2"},{"bufferView":13,"byteOffset":0,"componentType":5123,"count":3090,"type":"SCALAR"},{"bufferView":14,"byteOffset":0,"componentType":5126,"count":1270,"max":[0.0544022060930729,2.59638142585754,0.28764995932579],"min":[-0.04735725000501,0.0000000142054652485513,-0.27415546774864],"type":"VEC3"},{"bufferView":15,"byteOffset":0,"componentType":5126,"count":1270,"type":"VEC3"},{"bufferView":16,"byteOffset":0,"componentType":5126,"count":1270,"type":"VEC4"},{"bufferView":17,"byteOffset":0,"componentType":5126,"count":1270,"type":"VEC2"},{"bufferView":18,"byteOffset":0,"componentType":5126,"count":1270,"type":"VEC2"},{"bufferView":19,"byteOffset":0,"componentType":5123,"count":1542,"type":"SCALAR"},{"bufferView":20,"byteOffset":0,"componentType":5126,"count":819,"max":[0.0545296035706997,2.59701585769653,0.28764995932579],"min":[-0.04735725000501,0.0000000142054652485513,-0.27415546774864],"type":"VEC3"},{"bufferView":21,"byteOffset":0,"componentType":5126,"count":819,"type":"VEC3"},{"bufferView":22,"byteOffset":0,"componentType":5126,"count":819,"type":"VEC4"},{"bufferView":23,"byteOffset":0,"componentType":5126,"count":819,"type":"VEC2"},{"bufferView":24,"byteOffset":0,"componentType":5126,"count":819,"type":"VEC2"},{"bufferView":25,"byteOffset":0,"componentType":5123,"count":138,"type":"SCALAR"},{"bufferView":26,"byteOffset":0,"componentType":5126,"count":80,"max":[0.0536907613277435,2.59738159179688,0.288649946451187],"min":[-0.04747227951884,-0.00100005918648,-0.27515545487404],"type":"VEC3"},{"bufferView":27,"byteOffset":0,"componentType":5126,"count":80,"type":"VEC3"},{"bufferView":28,"byteOffset":0,"componentType":5126,"count":80,"type":"VEC2"},{"bufferView":29,"byteOffset":0,"componentType":5126,"count":80,"type":"VEC2"}],"animations":[{"channels":[],"name":"Unreal Take","samplers":[]}],"asset":{"generator":"FBX2glTF v0.13.0","version":"2.0"},"bufferViews":[{"buffer":0,"byteLength":4,"byteOffset":0},{"buffer":0,"byteLength":12360,"byteOffset":4,"target":34963},{"buffer":0,"byteLength":27600,"byteOffset":12364,"target":34962},{"buffer":0,"byteLength":27600,"byteOffset":39964,"target":34962},{"buffer":0,"byteLength":36800,"byteOffset":67564,"target":34962},{"buffer":0,"byteLength":18400,"byteOffset":104364,"target":34962},{"buffer":0,"byteLength":18400,"byteOffset":122764,"target":34962},{"buffer":0,"byteLength":9264,"byteOffset":141164,"target":34963},{"buffer":0,"byteLength":21408,"byteOffset":150428,"target":34962},{"buffer":0,"byteLength":21408,"byteOffset":171836,"target":34962},{"buffer":0,"byteLength":28544,"byteOffset":193244,"target":34962},{"buffer":0,"byteLength":14272,"byteOffset":221788,"target":34962},{"buffer":0,"byteLength":14272,"byteOffset":236060,"target":34962},{"buffer":0,"byteLength":6180,"byteOffset":250332,"target":34963},{"buffer":0,"byteLength":15240,"byteOffset":256512,"target":34962},{"buffer":0,"byteLength":15240,"byteOffset":271752,"target":34962},{"buffer":0,"byteLength":20320,"byteOffset":286992,"target":34962},{"buffer":0,"byteLength":10160,"byteOffset":307312,"target":34962},{"buffer":0,"byteLength":10160,"byteOffset":317472,"target":34962},{"buffer":0,"byteLength":3084,"byteOffset":327632,"target":34963},{"buffer":0,"byteLength":9828,"byteOffset":330716,"target":34962},{"buffer":0,"byteLength":9828,"byteOffset":340544,"target":34962},{"buffer":0,"byteLength":13104,"byteOffset":350372,"target":34962},{"buffer":0,"byteLength":6552,"byteOffset":363476,"target":34962},{"buffer":0,"byteLength":6552,"byteOffset":370028,"target":34962},{"buffer":0,"byteLength":276,"byteOffset":376580,"target":34963},{"buffer":0,"byteLength":960,"byteOffset":376856,"target":34962},{"buffer":0,"byteLength":960,"byteOffset":377816,"target":34962},{"buffer":0,"byteLength":640,"byteOffset":378776,"target":34962},{"buffer":0,"byteLength":640,"byteOffset":379416,"target":34962}],"buffers":[{"byteLength":380056,"uri":"SM_Shower_Curtain.bin"}],"images":[{"name":"T_ToiletParts_N","uri":"T_ToiletParts_N.png"}],"materials":[{"alphaMode":"OPAQUE","doubleSided":false,"extras":{"fromFBX":{"isTruePBR":false,"shadingModel":"Phong"}},"name":"MI_ToiletParts","normalTexture":{"index":0,"texCoord":0},"pbrMetallicRoughness":{"baseColorFactor":[0.21586050093174,0.21586050093174,0.21586050093174,1],"metallicFactor":0.400000005960464,"roughnessFactor":0.301511347293854}},{"alphaMode":"OPAQUE","doubleSided":false,"extras":{"fromFBX":{"isTruePBR":false,"shadingModel":"Lambert"}},"name":"DefaultMaterial","pbrMetallicRoughness":{"baseColorFactor":[0.5,0.5,0.5,1],"metallicFactor":0.200000002980232,"roughnessFactor":0.800000011920929}}],"meshes":[{"name":"SM_Shower_Curtain_LOD0","primitives":[{"attributes":{"NORMAL":3,"POSITION":2,"TANGENT":4,"TEXCOORD_0":5,"TEXCOORD_1":6},"indices":1,"material":0,"mode":4}]},{"name":"SM_Shower_Curtain_LOD1","primitives":[{"attributes":{"NORMAL":9,"POSITION":8,"TANGENT":10,"TEXCOORD_0":11,"TEXCOORD_1":12},"indices":7,"material":0,"mode":4}]},{"name":"SM_Shower_Curtain_LOD2","primitives":[{"attributes":{"NORMAL":15,"POSITION":14,"TANGENT":16,"TEXCOORD_0":17,"TEXCOORD_1":18},"indices":13,"material":0,"mode":4}]},{"name":"SM_Shower_Curtain_LOD3","primitives":[{"attributes":{"NORMAL":21,"POSITION":20,"TANGENT":22,"TEXCOORD_0":23,"TEXCOORD_1":24},"indices":19,"material":0,"mode":4}]},{"name":"SM_Shower_Curtain_ConvexHulls","primitives":[{"attributes":{"NORMAL":27,"POSITION":26,"TEXCOORD_0":28,"TEXCOORD_1":29},"indices":25,"material":1,"mode":4}]}],"nodes":[{"children":[1,2,3,4,5],"name":"Bathroom_Shower_Curtain3","originalUnits":0.00999999977648258,"pivot":[0,0,0],"rotation":[0,0,0,1],"scale":[1,1,1],"translation":[0,0,0]},{"mesh":0,"name":"SM_Shower_Curtain_LOD0","originalUnits":0.00999999977648258,"pivot":[0,0,0],"rotation":[0,0,0,1],"scale":[1,1,1],"translation":[0,0,0]},{"mesh":4,"name":"SM_Shower_Curtain_ConvexHulls","originalUnits":0.00999999977648258,"pivot":[0,0,0],"rotation":[0,0,0,1],"scale":[1,1,1],"translation":[0,0,0]},{"mesh":1,"name":"SM_Shower_Curtain_LOD1","originalUnits":0.00999999977648258,"pivot":[0,0,0],"rotation":[0,0,0,1],"scale":[1,1,1],"translation":[0,0,0]},{"mesh":2,"name":"SM_Shower_Curtain_LOD2","originalUnits":0.00999999977648258,"pivot":[0,0,0],"rotation":[0,0,0,1],"scale":[1,1,1],"translation":[0,0,0]},{"mesh":3,"name":"SM_Shower_Curtain_LOD3","originalUnits":0.00999999977648258,"pivot":[0,0,0],"rotation":[0,0,0,1],"scale":[1,1,1],"translation":[0,0,0]}],"samplers":[{}],"scene":0,"scenes":[{"name":"Root Scene","nodes":[0]}],"textures":[{"name":"T_ToiletParts_N","sampler":0,"source":0}]}