{"accessors":[{"bufferView":0,"byteOffset":0,"componentType":5126,"count":1,"max":[0],"min":[0],"type":"SCALAR"},{"bufferView":1,"byteOffset":0,"componentType":5123,"count":1500,"type":"SCALAR"},{"bufferView":2,"byteOffset":0,"componentType":5126,"count":583,"max":[0.136575937271118,0.0490438789129257,0.342720299959183],"min":[-0.13658927381039,-0.2317501604557,-0.11696837097406],"type":"VEC3"},{"bufferView":3,"byteOffset":0,"componentType":5126,"count":583,"type":"VEC3"},{"bufferView":4,"byteOffset":0,"componentType":5126,"count":583,"type":"VEC4"},{"bufferView":5,"byteOffset":0,"componentType":5126,"count":583,"type":"VEC2"},{"bufferView":6,"byteOffset":0,"componentType":5126,"count":583,"type":"VEC2"},{"bufferView":7,"byteOffset":0,"componentType":5123,"count":1122,"type":"SCALAR"},{"bufferView":8,"byteOffset":0,"componentType":5126,"count":458,"max":[0.136575937271118,0.0489469058811665,0.342720299959183],"min":[-0.13658927381039,-0.2317501604557,-0.11699126660824],"type":"VEC3"},{"bufferView":9,"byteOffset":0,"componentType":5126,"count":458,"type":"VEC3"},{"bufferView":10,"byteOffset":0,"componentType":5126,"count":458,"type":"VEC4"},{"bufferView":11,"byteOffset":0,"componentType":5126,"count":458,"type":"VEC2"},{"bufferView":12,"byteOffset":0,"componentType":5126,"count":458,"type":"VEC2"},{"bufferView":13,"byteOffset":0,"componentType":5123,"count":750,"type":"SCALAR"},{"bufferView":14,"byteOffset":0,"componentType":5126,"count":336,"max":[0.136575937271118,0.0517769455909729,0.342720299959183],"min":[-0.13658927381039,-0.2317501604557,-0.11763302236795],"type":"VEC3"},{"bufferView":15,"byteOffset":0,"componentType":5126,"count":336,"type":"VEC3"},{"bufferView":16,"byteOffset":0,"componentType":5126,"count":336,"type":"VEC4"},{"bufferView":17,"byteOffset":0,"componentType":5126,"count":336,"type":"VEC2"},{"bufferView":18,"byteOffset":0,"componentType":5126,"count":336,"type":"VEC2"},{"bufferView":19,"byteOffset":0,"componentType":5123,"count":372,"type":"SCALAR"},{"bufferView":20,"byteOffset":0,"componentType":5126,"count":212,"max":[0.136232137680054,0.0517769455909729,0.342720299959183],"min":[-0.13899897038937,-0.23445728421211,-0.12268015742302],"type":"VEC3"},{"bufferView":21,"byteOffset":0,"componentType":5126,"count":212,"type":"VEC3"},{"bufferView":22,"byteOffset":0,"componentType":5126,"count":212,"type":"VEC4"},{"bufferView":23,"byteOffset":0,"componentType":5126,"count":212,"type":"VEC2"},{"bufferView":24,"byteOffset":0,"componentType":5126,"count":212,"type":"VEC2"},{"bufferView":25,"byteOffset":0,"componentType":5123,"count":168,"type":"SCALAR"},{"bufferView":26,"byteOffset":0,"componentType":5126,"count":90,"max":[0.137575954198837,0.0500438809394836,0.343720287084579],"min":[-0.13758932054043,-0.23275016248226,-0.11796836555004],"type":"VEC3"},{"bufferView":27,"byteOffset":0,"componentType":5126,"count":90,"type":"VEC3"},{"bufferView":28,"byteOffset":0,"componentType":5126,"count":90,"type":"VEC2"},{"bufferView":29,"byteOffset":0,"componentType":5126,"count":90,"type":"VEC2"}],"animations":[{"channels":[],"name":"Unreal Take","samplers":[]}],"asset":{"generator":"FBX2glTF v0.13.0","version":"2.0"},"bufferViews":[{"buffer":0,"byteLength":4,"byteOffset":0},{"buffer":0,"byteLength":3000,"byteOffset":4,"target":34963},{"buffer":0,"byteLength":6996,"byteOffset":3004,"target":34962},{"buffer":0,"byteLength":6996,"byteOffset":10000,"target":34962},{"buffer":0,"byteLength":9328,"byteOffset":16996,"target":34962},{"buffer":0,"byteLength":4664,"byteOffset":26324,"target":34962},{"buffer":0,"byteLength":4664,"byteOffset":30988,"target":34962},{"buffer":0,"byteLength":2244,"byteOffset":35652,"target":34963},{"buffer":0,"byteLength":5496,"byteOffset":37896,"target":34962},{"buffer":0,"byteLength":5496,"byteOffset":43392,"target":34962},{"buffer":0,"byteLength":7328,"byteOffset":48888,"target":34962},{"buffer":0,"byteLength":3664,"byteOffset":56216,"target":34962},{"buffer":0,"byteLength":3664,"byteOffset":59880,"target":34962},{"buffer":0,"byteLength":1500,"byteOffset":63544,"target":34963},{"buffer":0,"byteLength":4032,"byteOffset":65044,"target":34962},{"buffer":0,"byteLength":4032,"byteOffset":69076,"target":34962},{"buffer":0,"byteLength":5376,"byteOffset":73108,"target":34962},{"buffer":0,"byteLength":2688,"byteOffset":78484,"target":34962},{"buffer":0,"byteLength":2688,"byteOffset":81172,"target":34962},{"buffer":0,"byteLength":744,"byteOffset":83860,"target":34963},{"buffer":0,"byteLength":2544,"byteOffset":84604,"target":34962},{"buffer":0,"byteLength":2544,"byteOffset":87148,"target":34962},{"buffer":0,"byteLength":3392,"byteOffset":89692,"target":34962},{"buffer":0,"byteLength":1696,"byteOffset":93084,"target":34962},{"buffer":0,"byteLength":1696,"byteOffset":94780,"target":34962},{"buffer":0,"byteLength":336,"byteOffset":96476,"target":34963},{"buffer":0,"byteLength":1080,"byteOffset":96812,"target":34962},{"buffer":0,"byteLength":1080,"byteOffset":97892,"target":34962},{"buffer":0,"byteLength":720,"byteOffset":98972,"target":34962},{"buffer":0,"byteLength":720,"byteOffset":99692,"target":34962}],"buffers":[{"byteLength":100412,"uri":"SM_Shower_Head.bin"}],"images":[{"name":"T_Fill_N","uri":"T_Fill_N.png"}],"materials":[{"alphaMode":"OPAQUE","doubleSided":false,"extras":{"fromFBX":{"isTruePBR":false,"shadingModel":"Phong"}},"name":"MM_Base01","normalTexture":{"index":0,"texCoord":0},"pbrMetallicRoughness":{"baseColorFactor":[0.21586050093174,0.21586050093174,0.21586050093174,1],"metallicFactor":0.400000005960464,"roughnessFactor":0.301511347293854}},{"alphaMode":"OPAQUE","doubleSided":false,"extras":{"fromFBX":{"isTruePBR":false,"shadingModel":"Lambert"}},"name":"DefaultMaterial","pbrMetallicRoughness":{"baseColorFactor":[0.5,0.5,0.5,1],"metallicFactor":0.200000002980232,"roughnessFactor":0.800000011920929}}],"meshes":[{"name":"SM_Shower_Head_LOD0","primitives":[{"attributes":{"NORMAL":3,"POSITION":2,"TANGENT":4,"TEXCOORD_0":5,"TEXCOORD_1":6},"indices":1,"material":0,"mode":4}]},{"name":"SM_Shower_Head_LOD1","primitives":[{"attributes":{"NORMAL":9,"POSITION":8,"TANGENT":10,"TEXCOORD_0":11,"TEXCOORD_1":12},"indices":7,"material":0,"mode":4}]},{"name":"SM_Shower_Head_LOD2","primitives":[{"attributes":{"NORMAL":15,"POSITION":14,"TANGENT":16,"TEXCOORD_0":17,"TEXCOORD_1":18},"indices":13,"material":0,"mode":4}]},{"name":"SM_Shower_Head_LOD3","primitives":[{"attributes":{"NORMAL":21,"POSITION":20,"TANGENT":22,"TEXCOORD_0":23,"TEXCOORD_1":24},"indices":19,"material":0,"mode":4}]},{"name":"SM_Shower_Head_ConvexHulls","primitives":[{"attributes":{"NORMAL":27,"POSITION":26,"TEXCOORD_0":28,"TEXCOORD_1":29},"indices":25,"material":1,"mode":4}]}],"nodes":[{"children":[1,2,3,4,5],"name":"Bathroom_Shower_Head_10","originalUnits":0.00999999977648258,"pivot":[0,0,0],"rotation":[0,0,0,1],"scale":[1,1,1],"translation":[0,0,0]},{"mesh":0,"name":"SM_Shower_Head_LOD0","originalUnits":0.00999999977648258,"pivot":[0,0,0],"rotation":[0,0,0,1],"scale":[1,1,1],"translation":[0,0,0]},{"mesh":4,"name":"SM_Shower_Head_ConvexHulls","originalUnits":0.00999999977648258,"pivot":[0,0,0],"rotation":[0,0,0,1],"scale":[1,1,1],"translation":[0,0,0]},{"mesh":1,"name":"SM_Shower_Head_LOD1","originalUnits":0.00999999977648258,"pivot":[0,0,0],"rotation":[0,0,0,1],"scale":[1,1,1],"translation":[0,0,0]},{"mesh":2,"name":"SM_Shower_Head_LOD2","originalUnits":0.00999999977648258,"pivot":[0,0,0],"rotation":[0,0,0,1],"scale":[1,1,1],"translation":[0,0,0]},{"mesh":3,"name":"SM_Shower_Head_LOD3","originalUnits":0.00999999977648258,"pivot":[0,0,0],"rotation":[0,0,0,1],"scale":[1,1,1],"translation":[0,0,0]}],"samplers":[{}],"scene":0,"scenes":[{"name":"Root Scene","nodes":[0]}],"textures":[{"name":"T_Fill_N","sampler":0,"source":0}]}