{"accessors":[{"bufferView":0,"byteOffset":0,"componentType":5126,"count":1,"max":[0],"min":[0],"type":"SCALAR"},{"bufferView":1,"byteOffset":0,"componentType":5123,"count":74064,"type":"SCALAR"},{"bufferView":2,"byteOffset":0,"componentType":5126,"count":16395,"max":[0.521299362182617,0.710219621658325,0.710382759571075],"min":[-0.52064502239227,-0.49930703639984,-0.71038275957108],"type":"VEC3"},{"bufferView":3,"byteOffset":0,"componentType":5126,"count":16395,"type":"VEC3"},{"bufferView":4,"byteOffset":0,"componentType":5126,"count":16395,"type":"VEC4"},{"bufferView":5,"byteOffset":0,"componentType":5126,"count":16395,"type":"VEC2"},{"bufferView":6,"byteOffset":0,"componentType":5126,"count":16395,"type":"VEC2"},{"bufferView":7,"byteOffset":0,"componentType":5123,"count":55548,"type":"SCALAR"},{"bufferView":8,"byteOffset":0,"componentType":5126,"count":12694,"max":[0.521299362182617,0.710219621658325,0.710392773151398],"min":[-0.52064502239227,-0.49930703639984,-0.7103927731514],"type":"VEC3"},{"bufferView":9,"byteOffset":0,"componentType":5126,"count":12694,"type":"VEC3"},{"bufferView":10,"byteOffset":0,"componentType":5126,"count":12694,"type":"VEC4"},{"bufferView":11,"byteOffset":0,"componentType":5126,"count":12694,"type":"VEC2"},{"bufferView":12,"byteOffset":0,"componentType":5126,"count":12694,"type":"VEC2"},{"bufferView":13,"byteOffset":0,"componentType":5123,"count":37029,"type":"SCALAR"},{"bufferView":14,"byteOffset":0,"componentType":5126,"count":8936,"max":[0.52131724357605,0.710219621658325,0.710406184196472],"min":[-0.52064502239227,-0.49930703639984,-0.71040594577789],"type":"VEC3"},{"bufferView":15,"byteOffset":0,"componentType":5126,"count":8936,"type":"VEC3"},{"bufferView":16,"byteOffset":0,"componentType":5126,"count":8936,"type":"VEC4"},{"bufferView":17,"byteOffset":0,"componentType":5126,"count":8936,"type":"VEC2"},{"bufferView":18,"byteOffset":0,"componentType":5126,"count":8936,"type":"VEC2"},{"bufferView":19,"byteOffset":0,"componentType":5123,"count":18513,"type":"SCALAR"},{"bufferView":20,"byteOffset":0,"componentType":5126,"count":4955,"max":[0.522488832473755,0.710219621658325,0.710521817207336],"min":[-0.51968955993652,-0.49930915236473,-0.71051967144012],"type":"VEC3"},{"bufferView":21,"byteOffset":0,"componentType":5126,"count":4955,"type":"VEC3"},{"bufferView":22,"byteOffset":0,"componentType":5126,"count":4955,"type":"VEC4"},{"bufferView":23,"byteOffset":0,"componentType":5126,"count":4955,"type":"VEC2"},{"bufferView":24,"byteOffset":0,"componentType":5126,"count":4955,"type":"VEC2"},{"bufferView":25,"byteOffset":0,"componentType":5123,"count":792,"type":"SCALAR"},{"bufferView":26,"byteOffset":0,"componentType":5126,"count":778,"max":[0.536291062831879,0.727937281131744,0.712636291980743],"min":[-0.53525543212891,-0.51861768960953,-0.71726799011231],"type":"VEC3"},{"bufferView":27,"byteOffset":0,"componentType":5126,"count":778,"type":"VEC3"},{"bufferView":28,"byteOffset":0,"componentType":5126,"count":778,"type":"VEC2"},{"bufferView":29,"byteOffset":0,"componentType":5126,"count":778,"type":"VEC2"}],"animations":[{"channels":[],"name":"Unreal Take","samplers":[]}],"asset":{"generator":"FBX2glTF v0.13.0","version":"2.0"},"bufferViews":[{"buffer":0,"byteLength":4,"byteOffset":0},{"buffer":0,"byteLength":148128,"byteOffset":4,"target":34963},{"buffer":0,"byteLength":196740,"byteOffset":148132,"target":34962},{"buffer":0,"byteLength":196740,"byteOffset":344872,"target":34962},{"buffer":0,"byteLength":262320,"byteOffset":541612,"target":34962},{"buffer":0,"byteLength":131160,"byteOffset":803932,"target":34962},{"buffer":0,"byteLength":131160,"byteOffset":935092,"target":34962},{"buffer":0,"byteLength":111096,"byteOffset":1066252,"target":34963},{"buffer":0,"byteLength":152328,"byteOffset":1177348,"target":34962},{"buffer":0,"byteLength":152328,"byteOffset":1329676,"target":34962},{"buffer":0,"byteLength":203104,"byteOffset":1482004,"target":34962},{"buffer":0,"byteLength":101552,"byteOffset":1685108,"target":34962},{"buffer":0,"byteLength":101552,"byteOffset":1786660,"target":34962},{"buffer":0,"byteLength":74058,"byteOffset":1888212,"target":34963},{"buffer":0,"byteLength":107232,"byteOffset":1962272,"target":34962},{"buffer":0,"byteLength":107232,"byteOffset":2069504,"target":34962},{"buffer":0,"byteLength":142976,"byteOffset":2176736,"target":34962},{"buffer":0,"byteLength":71488,"byteOffset":2319712,"target":34962},{"buffer":0,"byteLength":71488,"byteOffset":2391200,"target":34962},{"buffer":0,"byteLength":37026,"byteOffset":2462688,"target":34963},{"buffer":0,"byteLength":59460,"byteOffset":2499716,"target":34962},{"buffer":0,"byteLength":59460,"byteOffset":2559176,"target":34962},{"buffer":0,"byteLength":79280,"byteOffset":2618636,"target":34962},{"buffer":0,"byteLength":39640,"byteOffset":2697916,"target":34962},{"buffer":0,"byteLength":39640,"byteOffset":2737556,"target":34962},{"buffer":0,"byteLength":1584,"byteOffset":2777196,"target":34963},{"buffer":0,"byteLength":9336,"byteOffset":2778780,"target":34962},{"buffer":0,"byteLength":9336,"byteOffset":2788116,"target":34962},{"buffer":0,"byteLength":6224,"byteOffset":2797452,"target":34962},{"buffer":0,"byteLength":6224,"byteOffset":2803676,"target":34962}],"buffers":[{"byteLength":2809900,"uri":"SM_Stove_A.bin"}],"images":[{"name":"FlatNormal","uri":"FlatNormal.tga"}],"materials":[{"alphaMode":"OPAQUE","doubleSided":false,"extras":{"fromFBX":{"isTruePBR":false,"shadingModel":"Phong"}},"name":"MI_Stove_A","normalTexture":{"index":0,"texCoord":0},"pbrMetallicRoughness":{"baseColorFactor":[0.21586050093174,0.21586050093174,0.21586050093174,1],"metallicFactor":0.400000005960464,"roughnessFactor":0.301511347293854}},{"alphaMode":"OPAQUE","doubleSided":false,"extras":{"fromFBX":{"isTruePBR":false,"shadingModel":"Lambert"}},"name":"DefaultMaterial","pbrMetallicRoughness":{"baseColorFactor":[0.5,0.5,0.5,1],"metallicFactor":0.200000002980232,"roughnessFactor":0.800000011920929}}],"meshes":[{"name":"SM_Stove_A_LOD0","primitives":[{"attributes":{"NORMAL":3,"POSITION":2,"TANGENT":4,"TEXCOORD_0":5,"TEXCOORD_1":6},"indices":1,"material":0,"mode":4}]},{"name":"SM_Stove_A_LOD1","primitives":[{"attributes":{"NORMAL":9,"POSITION":8,"TANGENT":10,"TEXCOORD_0":11,"TEXCOORD_1":12},"indices":7,"material":0,"mode":4}]},{"name":"SM_Stove_A_LOD2","primitives":[{"attributes":{"NORMAL":15,"POSITION":14,"TANGENT":16,"TEXCOORD_0":17,"TEXCOORD_1":18},"indices":13,"material":0,"mode":4}]},{"name":"SM_Stove_A_LOD3","primitives":[{"attributes":{"NORMAL":21,"POSITION":20,"TANGENT":22,"TEXCOORD_0":23,"TEXCOORD_1":24},"indices":19,"material":0,"mode":4}]},{"name":"SM_Stove_A_ConvexHulls","primitives":[{"attributes":{"NORMAL":27,"POSITION":26,"TEXCOORD_0":28,"TEXCOORD_1":29},"indices":25,"material":1,"mode":4}]}],"nodes":[{"children":[1,2,3,4,5],"name":"Assets_Proxy_Stove_Proxy_58","originalUnits":0.00999999977648258,"pivot":[0,0,0],"rotation":[0,0,0,1],"scale":[1,1,1],"translation":[0,0,0]},{"mesh":0,"name":"SM_Stove_A_LOD0","originalUnits":0.00999999977648258,"pivot":[0,0,0],"rotation":[0,0,0,1],"scale":[1,1,1],"translation":[0,0,0]},{"mesh":4,"name":"SM_Stove_A_ConvexHulls","originalUnits":0.00999999977648258,"pivot":[0,0,0],"rotation":[0,0,0,1],"scale":[1,1,1],"translation":[0,0,0]},{"mesh":1,"name":"SM_Stove_A_LOD1","originalUnits":0.00999999977648258,"pivot":[0,0,0],"rotation":[0,0,0,1],"scale":[1,1,1],"translation":[0,0,0]},{"mesh":2,"name":"SM_Stove_A_LOD2","originalUnits":0.00999999977648258,"pivot":[0,0,0],"rotation":[0,0,0,1],"scale":[1,1,1],"translation":[0,0,0]},{"mesh":3,"name":"SM_Stove_A_LOD3","originalUnits":0.00999999977648258,"pivot":[0,0,0],"rotation":[0,0,0,1],"scale":[1,1,1],"translation":[0,0,0]}],"samplers":[{}],"scene":0,"scenes":[{"name":"Root Scene","nodes":[0]}],"textures":[{"name":"T_Default_N","sampler":0,"source":0}]}