{"accessors":[{"bufferView":0,"byteOffset":0,"componentType":5126,"count":1,"max":[0],"min":[0],"type":"SCALAR"},{"bufferView":1,"byteOffset":0,"componentType":5123,"count":3018,"type":"SCALAR"},{"bufferView":2,"byteOffset":0,"componentType":5126,"count":808,"max":[0.1557427495718,0.0843751281499863,0.446589201688766],"min":[-0.15574276447296,0.00210391147993505,-0.1557432115078],"type":"VEC3"},{"bufferView":3,"byteOffset":0,"componentType":5126,"count":808,"type":"VEC3"},{"bufferView":4,"byteOffset":0,"componentType":5126,"count":808,"type":"VEC4"},{"bufferView":5,"byteOffset":0,"componentType":5126,"count":808,"type":"VEC2"},{"bufferView":6,"byteOffset":0,"componentType":5126,"count":808,"type":"VEC2"},{"bufferView":7,"byteOffset":0,"componentType":5123,"count":2262,"type":"SCALAR"},{"bufferView":8,"byteOffset":0,"componentType":5126,"count":661,"max":[0.1557427495718,0.0843751281499863,0.446589201688766],"min":[-0.15574276447296,0.00210391147993505,-0.1557432115078],"type":"VEC3"},{"bufferView":9,"byteOffset":0,"componentType":5126,"count":661,"type":"VEC3"},{"bufferView":10,"byteOffset":0,"componentType":5126,"count":661,"type":"VEC4"},{"bufferView":11,"byteOffset":0,"componentType":5126,"count":661,"type":"VEC2"},{"bufferView":12,"byteOffset":0,"componentType":5126,"count":661,"type":"VEC2"},{"bufferView":13,"byteOffset":0,"componentType":5123,"count":1509,"type":"SCALAR"},{"bufferView":14,"byteOffset":0,"componentType":5126,"count":504,"max":[0.15723717212677,0.0843837261199951,0.447298765182495],"min":[-0.1563031822443,0.00210391147993505,-0.15613794326782],"type":"VEC3"},{"bufferView":15,"byteOffset":0,"componentType":5126,"count":504,"type":"VEC3"},{"bufferView":16,"byteOffset":0,"componentType":5126,"count":504,"type":"VEC4"},{"bufferView":17,"byteOffset":0,"componentType":5126,"count":504,"type":"VEC2"},{"bufferView":18,"byteOffset":0,"componentType":5126,"count":504,"type":"VEC2"},{"bufferView":19,"byteOffset":0,"componentType":5123,"count":753,"type":"SCALAR"},{"bufferView":20,"byteOffset":0,"componentType":5126,"count":313,"max":[0.15723717212677,0.0843837261199951,0.447258800268173],"min":[-0.15659010410309,-0.00029937521322,-0.15901799499989],"type":"VEC3"},{"bufferView":21,"byteOffset":0,"componentType":5126,"count":313,"type":"VEC3"},{"bufferView":22,"byteOffset":0,"componentType":5126,"count":313,"type":"VEC4"},{"bufferView":23,"byteOffset":0,"componentType":5126,"count":313,"type":"VEC2"},{"bufferView":24,"byteOffset":0,"componentType":5126,"count":313,"type":"VEC2"},{"bufferView":25,"byteOffset":0,"componentType":5123,"count":300,"type":"SCALAR"},{"bufferView":26,"byteOffset":0,"componentType":5126,"count":290,"max":[0.150902390480042,0.0863813310861588,0.440969407558441],"min":[-0.15175673365593,0.00210391636937857,-0.15356767177582],"type":"VEC3"},{"bufferView":27,"byteOffset":0,"componentType":5126,"count":290,"type":"VEC3"},{"bufferView":28,"byteOffset":0,"componentType":5126,"count":290,"type":"VEC2"},{"bufferView":29,"byteOffset":0,"componentType":5126,"count":290,"type":"VEC2"}],"animations":[{"channels":[],"name":"Unreal Take","samplers":[]}],"asset":{"generator":"FBX2glTF v0.13.0","version":"2.0"},"bufferViews":[{"buffer":0,"byteLength":4,"byteOffset":0},{"buffer":0,"byteLength":6036,"byteOffset":4,"target":34963},{"buffer":0,"byteLength":9696,"byteOffset":6040,"target":34962},{"buffer":0,"byteLength":9696,"byteOffset":15736,"target":34962},{"buffer":0,"byteLength":12928,"byteOffset":25432,"target":34962},{"buffer":0,"byteLength":6464,"byteOffset":38360,"target":34962},{"buffer":0,"byteLength":6464,"byteOffset":44824,"target":34962},{"buffer":0,"byteLength":4524,"byteOffset":51288,"target":34963},{"buffer":0,"byteLength":7932,"byteOffset":55812,"target":34962},{"buffer":0,"byteLength":7932,"byteOffset":63744,"target":34962},{"buffer":0,"byteLength":10576,"byteOffset":71676,"target":34962},{"buffer":0,"byteLength":5288,"byteOffset":82252,"target":34962},{"buffer":0,"byteLength":5288,"byteOffset":87540,"target":34962},{"buffer":0,"byteLength":3018,"byteOffset":92828,"target":34963},{"buffer":0,"byteLength":6048,"byteOffset":95848,"target":34962},{"buffer":0,"byteLength":6048,"byteOffset":101896,"target":34962},{"buffer":0,"byteLength":8064,"byteOffset":107944,"target":34962},{"buffer":0,"byteLength":4032,"byteOffset":116008,"target":34962},{"buffer":0,"byteLength":4032,"byteOffset":120040,"target":34962},{"buffer":0,"byteLength":1506,"byteOffset":124072,"target":34963},{"buffer":0,"byteLength":3756,"byteOffset":125580,"target":34962},{"buffer":0,"byteLength":3756,"byteOffset":129336,"target":34962},{"buffer":0,"byteLength":5008,"byteOffset":133092,"target":34962},{"buffer":0,"byteLength":2504,"byteOffset":138100,"target":34962},{"buffer":0,"byteLength":2504,"byteOffset":140604,"target":34962},{"buffer":0,"byteLength":600,"byteOffset":143108,"target":34963},{"buffer":0,"byteLength":3480,"byteOffset":143708,"target":34962},{"buffer":0,"byteLength":3480,"byteOffset":147188,"target":34962},{"buffer":0,"byteLength":2320,"byteOffset":150668,"target":34962},{"buffer":0,"byteLength":2320,"byteOffset":152988,"target":34962}],"buffers":[{"byteLength":155308,"uri":"SM_SaucePan_Black_Pan_01.bin"}],"materials":[{"alphaMode":"OPAQUE","doubleSided":false,"extras":{"fromFBX":{"isTruePBR":false,"shadingModel":"Phong"}},"name":"MM_Metal_Can_A","pbrMetallicRoughness":{"baseColorFactor":[0,0,0,1],"metallicFactor":0.400000005960464,"roughnessFactor":0.301511347293854}},{"alphaMode":"OPAQUE","doubleSided":false,"extras":{"fromFBX":{"isTruePBR":false,"shadingModel":"Lambert"}},"name":"DefaultMaterial","pbrMetallicRoughness":{"baseColorFactor":[0.5,0.5,0.5,1],"metallicFactor":0.200000002980232,"roughnessFactor":0.800000011920929}}],"meshes":[{"name":"SM_SaucePan_Black_Pan_01_LOD0","primitives":[{"attributes":{"NORMAL":3,"POSITION":2,"TANGENT":4,"TEXCOORD_0":5,"TEXCOORD_1":6},"indices":1,"material":0,"mode":4}]},{"name":"SM_SaucePan_Black_Pan_01_LOD1","primitives":[{"attributes":{"NORMAL":9,"POSITION":8,"TANGENT":10,"TEXCOORD_0":11,"TEXCOORD_1":12},"indices":7,"material":0,"mode":4}]},{"name":"SM_SaucePan_Black_Pan_01_LOD2","primitives":[{"attributes":{"NORMAL":15,"POSITION":14,"TANGENT":16,"TEXCOORD_0":17,"TEXCOORD_1":18},"indices":13,"material":0,"mode":4}]},{"name":"SM_SaucePan_Black_Pan_01_LOD3","primitives":[{"attributes":{"NORMAL":21,"POSITION":20,"TANGENT":22,"TEXCOORD_0":23,"TEXCOORD_1":24},"indices":19,"material":0,"mode":4}]},{"name":"SM_SaucePan_Black_Pan_01_ConvexHulls","primitives":[{"attributes":{"NORMAL":27,"POSITION":26,"TEXCOORD_0":28,"TEXCOORD_1":29},"indices":25,"material":1,"mode":4}]}],"nodes":[{"children":[1,2,3,4,5],"name":"SM_SaucePan_Black_Pan_01_90","originalUnits":0.00999999977648258,"pivot":[0,0,0],"rotation":[0,0,0,1],"scale":[1,1,1],"translation":[0,0,0]},{"mesh":0,"name":"SM_SaucePan_Black_Pan_01_LOD0","originalUnits":0.00999999977648258,"pivot":[0,0,0],"rotation":[0,0,0,1],"scale":[1,1,1],"translation":[0,0,0]},{"mesh":4,"name":"SM_SaucePan_Black_Pan_01_ConvexHulls","originalUnits":0.00999999977648258,"pivot":[0,0,0],"rotation":[0,0,0,1],"scale":[1,1,1],"translation":[0,0,0]},{"mesh":1,"name":"SM_SaucePan_Black_Pan_01_LOD1","originalUnits":0.00999999977648258,"pivot":[0,0,0],"rotation":[0,0,0,1],"scale":[1,1,1],"translation":[0,0,0]},{"mesh":2,"name":"SM_SaucePan_Black_Pan_01_LOD2","originalUnits":0.00999999977648258,"pivot":[0,0,0],"rotation":[0,0,0,1],"scale":[1,1,1],"translation":[0,0,0]},{"mesh":3,"name":"SM_SaucePan_Black_Pan_01_LOD3","originalUnits":0.00999999977648258,"pivot":[0,0,0],"rotation":[0,0,0,1],"scale":[1,1,1],"translation":[0,0,0]}],"samplers":[{}],"scene":0,"scenes":[{"name":"Root Scene","nodes":[0]}]}