{"accessors":[{"bufferView":0,"byteOffset":0,"componentType":5126,"count":1,"max":[0],"min":[0],"type":"SCALAR"},{"bufferView":1,"byteOffset":0,"componentType":5123,"count":504,"type":"SCALAR"},{"bufferView":2,"byteOffset":0,"componentType":5126,"count":200,"max":[0.055684644728899,0.0536405108869076,1.65350139141083],"min":[-0.05568434298038,-0.05364081636071,-1.76300573348999],"type":"VEC3"},{"bufferView":3,"byteOffset":0,"componentType":5126,"count":200,"type":"VEC3"},{"bufferView":4,"byteOffset":0,"componentType":5126,"count":200,"type":"VEC4"},{"bufferView":5,"byteOffset":0,"componentType":5126,"count":200,"type":"VEC2"},{"bufferView":6,"byteOffset":0,"componentType":5126,"count":200,"type":"VEC2"},{"bufferView":7,"byteOffset":0,"componentType":5123,"count":378,"type":"SCALAR"},{"bufferView":8,"byteOffset":0,"componentType":5126,"count":158,"max":[0.055684644728899,0.0534775592386723,1.6537743806839],"min":[-0.05568434298038,-0.05342360213399,-1.76376938819885],"type":"VEC3"},{"bufferView":9,"byteOffset":0,"componentType":5126,"count":158,"type":"VEC3"},{"bufferView":10,"byteOffset":0,"componentType":5126,"count":158,"type":"VEC4"},{"bufferView":11,"byteOffset":0,"componentType":5126,"count":158,"type":"VEC2"},{"bufferView":12,"byteOffset":0,"componentType":5126,"count":158,"type":"VEC2"},{"bufferView":13,"byteOffset":0,"componentType":5123,"count":252,"type":"SCALAR"},{"bufferView":14,"byteOffset":0,"componentType":5126,"count":120,"max":[0.0530102998018265,0.0555935576558113,1.6537743806839],"min":[-0.05342790484428,-0.05342360213399,-1.76625406742096],"type":"VEC3"},{"bufferView":15,"byteOffset":0,"componentType":5126,"count":120,"type":"VEC3"},{"bufferView":16,"byteOffset":0,"componentType":5126,"count":120,"type":"VEC4"},{"bufferView":17,"byteOffset":0,"componentType":5126,"count":120,"type":"VEC2"},{"bufferView":18,"byteOffset":0,"componentType":5126,"count":120,"type":"VEC2"},{"bufferView":19,"byteOffset":0,"componentType":5123,"count":126,"type":"SCALAR"},{"bufferView":20,"byteOffset":0,"componentType":5126,"count":74,"max":[0.0530102998018265,0.0520076565444469,1.64977550506592],"min":[-0.05617659911513,-0.05427920073271,-1.76687753200531],"type":"VEC3"},{"bufferView":21,"byteOffset":0,"componentType":5126,"count":74,"type":"VEC3"},{"bufferView":22,"byteOffset":0,"componentType":5126,"count":74,"type":"VEC4"},{"bufferView":23,"byteOffset":0,"componentType":5126,"count":74,"type":"VEC2"},{"bufferView":24,"byteOffset":0,"componentType":5126,"count":74,"type":"VEC2"},{"bufferView":25,"byteOffset":0,"componentType":5123,"count":180,"type":"SCALAR"},{"bufferView":26,"byteOffset":0,"componentType":5126,"count":96,"max":[0.056684635579586,0.0546405129134655,1.65450143814087],"min":[-0.05668473616242,-0.05464081466198,-1.76400589942932],"type":"VEC3"},{"bufferView":27,"byteOffset":0,"componentType":5126,"count":96,"type":"VEC3"},{"bufferView":28,"byteOffset":0,"componentType":5126,"count":96,"type":"VEC2"},{"bufferView":29,"byteOffset":0,"componentType":5126,"count":96,"type":"VEC2"}],"animations":[{"channels":[],"name":"Unreal Take","samplers":[]}],"asset":{"generator":"FBX2glTF v0.13.0","version":"2.0"},"bufferViews":[{"buffer":0,"byteLength":4,"byteOffset":0},{"buffer":0,"byteLength":1008,"byteOffset":4,"target":34963},{"buffer":0,"byteLength":2400,"byteOffset":1012,"target":34962},{"buffer":0,"byteLength":2400,"byteOffset":3412,"target":34962},{"buffer":0,"byteLength":3200,"byteOffset":5812,"target":34962},{"buffer":0,"byteLength":1600,"byteOffset":9012,"target":34962},{"buffer":0,"byteLength":1600,"byteOffset":10612,"target":34962},{"buffer":0,"byteLength":756,"byteOffset":12212,"target":34963},{"buffer":0,"byteLength":1896,"byteOffset":12968,"target":34962},{"buffer":0,"byteLength":1896,"byteOffset":14864,"target":34962},{"buffer":0,"byteLength":2528,"byteOffset":16760,"target":34962},{"buffer":0,"byteLength":1264,"byteOffset":19288,"target":34962},{"buffer":0,"byteLength":1264,"byteOffset":20552,"target":34962},{"buffer":0,"byteLength":504,"byteOffset":21816,"target":34963},{"buffer":0,"byteLength":1440,"byteOffset":22320,"target":34962},{"buffer":0,"byteLength":1440,"byteOffset":23760,"target":34962},{"buffer":0,"byteLength":1920,"byteOffset":25200,"target":34962},{"buffer":0,"byteLength":960,"byteOffset":27120,"target":34962},{"buffer":0,"byteLength":960,"byteOffset":28080,"target":34962},{"buffer":0,"byteLength":252,"byteOffset":29040,"target":34963},{"buffer":0,"byteLength":888,"byteOffset":29292,"target":34962},{"buffer":0,"byteLength":888,"byteOffset":30180,"target":34962},{"buffer":0,"byteLength":1184,"byteOffset":31068,"target":34962},{"buffer":0,"byteLength":592,"byteOffset":32252,"target":34962},{"buffer":0,"byteLength":592,"byteOffset":32844,"target":34962},{"buffer":0,"byteLength":360,"byteOffset":33436,"target":34963},{"buffer":0,"byteLength":1152,"byteOffset":33796,"target":34962},{"buffer":0,"byteLength":1152,"byteOffset":34948,"target":34962},{"buffer":0,"byteLength":768,"byteOffset":36100,"target":34962},{"buffer":0,"byteLength":768,"byteOffset":36868,"target":34962}],"buffers":[{"byteLength":37636,"uri":"SM_Shower_Bar.bin"}],"images":[{"name":"T_ToiletParts_N","uri":"T_ToiletParts_N.png"}],"materials":[{"alphaMode":"OPAQUE","doubleSided":false,"extras":{"fromFBX":{"isTruePBR":false,"shadingModel":"Phong"}},"name":"MI_ToiletParts","normalTexture":{"index":0,"texCoord":0},"pbrMetallicRoughness":{"baseColorFactor":[0.21586050093174,0.21586050093174,0.21586050093174,1],"metallicFactor":0.400000005960464,"roughnessFactor":0.301511347293854}},{"alphaMode":"OPAQUE","doubleSided":false,"extras":{"fromFBX":{"isTruePBR":false,"shadingModel":"Lambert"}},"name":"DefaultMaterial","pbrMetallicRoughness":{"baseColorFactor":[0.5,0.5,0.5,1],"metallicFactor":0.200000002980232,"roughnessFactor":0.800000011920929}}],"meshes":[{"name":"SM_Shower_Bar_LOD0","primitives":[{"attributes":{"NORMAL":3,"POSITION":2,"TANGENT":4,"TEXCOORD_0":5,"TEXCOORD_1":6},"indices":1,"material":0,"mode":4}]},{"name":"SM_Shower_Bar_LOD1","primitives":[{"attributes":{"NORMAL":9,"POSITION":8,"TANGENT":10,"TEXCOORD_0":11,"TEXCOORD_1":12},"indices":7,"material":0,"mode":4}]},{"name":"SM_Shower_Bar_LOD2","primitives":[{"attributes":{"NORMAL":15,"POSITION":14,"TANGENT":16,"TEXCOORD_0":17,"TEXCOORD_1":18},"indices":13,"material":0,"mode":4}]},{"name":"SM_Shower_Bar_LOD3","primitives":[{"attributes":{"NORMAL":21,"POSITION":20,"TANGENT":22,"TEXCOORD_0":23,"TEXCOORD_1":24},"indices":19,"material":0,"mode":4}]},{"name":"SM_Shower_Bar_ConvexHulls","primitives":[{"attributes":{"NORMAL":27,"POSITION":26,"TEXCOORD_0":28,"TEXCOORD_1":29},"indices":25,"material":1,"mode":4}]}],"nodes":[{"children":[1,2,3,4,5],"name":"Bathroom_Shower_Curtain_32","originalUnits":0.00999999977648258,"pivot":[0,0,0],"rotation":[0,0,0,1],"scale":[1,1,1],"translation":[0,0,0]},{"mesh":0,"name":"SM_Shower_Bar_LOD0","originalUnits":0.00999999977648258,"pivot":[0,0,0],"rotation":[0,0,0,1],"scale":[1,1,1],"translation":[0,0,0]},{"mesh":4,"name":"SM_Shower_Bar_ConvexHulls","originalUnits":0.00999999977648258,"pivot":[0,0,0],"rotation":[0,0,0,1],"scale":[1,1,1],"translation":[0,0,0]},{"mesh":1,"name":"SM_Shower_Bar_LOD1","originalUnits":0.00999999977648258,"pivot":[0,0,0],"rotation":[0,0,0,1],"scale":[1,1,1],"translation":[0,0,0]},{"mesh":2,"name":"SM_Shower_Bar_LOD2","originalUnits":0.00999999977648258,"pivot":[0,0,0],"rotation":[0,0,0,1],"scale":[1,1,1],"translation":[0,0,0]},{"mesh":3,"name":"SM_Shower_Bar_LOD3","originalUnits":0.00999999977648258,"pivot":[0,0,0],"rotation":[0,0,0,1],"scale":[1,1,1],"translation":[0,0,0]}],"samplers":[{}],"scene":0,"scenes":[{"name":"Root Scene","nodes":[0]}],"textures":[{"name":"T_ToiletParts_N","sampler":0,"source":0}]}