{"accessors":[{"bufferView":0,"byteOffset":0,"componentType":5126,"count":1,"max":[0],"min":[0],"type":"SCALAR"},{"bufferView":1,"byteOffset":0,"componentType":5123,"count":132,"type":"SCALAR"},{"bufferView":2,"byteOffset":0,"componentType":5126,"count":42,"max":[0.0315752848982811,0.0280372351408005,0.0504279360175133],"min":[-0.03157532960176,-0.0000000050392,-0.05042793601751],"type":"VEC3"},{"bufferView":3,"byteOffset":0,"componentType":5126,"count":42,"type":"VEC3"},{"bufferView":4,"byteOffset":0,"componentType":5126,"count":42,"type":"VEC4"},{"bufferView":5,"byteOffset":0,"componentType":5126,"count":42,"type":"VEC2"},{"bufferView":6,"byteOffset":0,"componentType":5126,"count":42,"type":"VEC2"},{"bufferView":7,"byteOffset":0,"componentType":5123,"count":96,"type":"SCALAR"},{"bufferView":8,"byteOffset":0,"componentType":5126,"count":36,"max":[0.0316358916461468,0.0280372351408005,0.0504279360175133],"min":[-0.03163423389196,-0.0000000050392,-0.05042348429561],"type":"VEC3"},{"bufferView":9,"byteOffset":0,"componentType":5126,"count":36,"type":"VEC3"},{"bufferView":10,"byteOffset":0,"componentType":5126,"count":36,"type":"VEC4"},{"bufferView":11,"byteOffset":0,"componentType":5126,"count":36,"type":"VEC2"},{"bufferView":12,"byteOffset":0,"componentType":5126,"count":36,"type":"VEC2"},{"bufferView":13,"byteOffset":0,"componentType":5123,"count":66,"type":"SCALAR"},{"bufferView":14,"byteOffset":0,"componentType":5126,"count":28,"max":[0.0316358916461468,0.0280372351408005,0.0504234731197357],"min":[-0.03163776919246,-0.00042674303404,-0.05040230602026],"type":"VEC3"},{"bufferView":15,"byteOffset":0,"componentType":5126,"count":28,"type":"VEC3"},{"bufferView":16,"byteOffset":0,"componentType":5126,"count":28,"type":"VEC4"},{"bufferView":17,"byteOffset":0,"componentType":5126,"count":28,"type":"VEC2"},{"bufferView":18,"byteOffset":0,"componentType":5126,"count":28,"type":"VEC2"},{"bufferView":19,"byteOffset":0,"componentType":5123,"count":30,"type":"SCALAR"},{"bufferView":20,"byteOffset":0,"componentType":5126,"count":16,"max":[0.0310465861111879,0.0407009311020374,0.0496089830994606],"min":[-0.03090958110988,-0.00057643640321,-0.05354573577642],"type":"VEC3"},{"bufferView":21,"byteOffset":0,"componentType":5126,"count":16,"type":"VEC3"},{"bufferView":22,"byteOffset":0,"componentType":5126,"count":16,"type":"VEC4"},{"bufferView":23,"byteOffset":0,"componentType":5126,"count":16,"type":"VEC2"},{"bufferView":24,"byteOffset":0,"componentType":5126,"count":16,"type":"VEC2"},{"bufferView":25,"byteOffset":0,"componentType":5123,"count":84,"type":"SCALAR"},{"bufferView":26,"byteOffset":0,"componentType":5126,"count":80,"max":[0.0310829225927591,0.0278035309165716,0.0490735322237015],"min":[-0.03105157613754,-0.00000000456312,-0.04977143183351],"type":"VEC3"},{"bufferView":27,"byteOffset":0,"componentType":5126,"count":80,"type":"VEC3"},{"bufferView":28,"byteOffset":0,"componentType":5126,"count":80,"type":"VEC2"},{"bufferView":29,"byteOffset":0,"componentType":5126,"count":80,"type":"VEC2"}],"animations":[{"channels":[],"name":"Unreal Take","samplers":[]}],"asset":{"generator":"FBX2glTF v0.13.0","version":"2.0"},"bufferViews":[{"buffer":0,"byteLength":4,"byteOffset":0},{"buffer":0,"byteLength":264,"byteOffset":4,"target":34963},{"buffer":0,"byteLength":504,"byteOffset":268,"target":34962},{"buffer":0,"byteLength":504,"byteOffset":772,"target":34962},{"buffer":0,"byteLength":672,"byteOffset":1276,"target":34962},{"buffer":0,"byteLength":336,"byteOffset":1948,"target":34962},{"buffer":0,"byteLength":336,"byteOffset":2284,"target":34962},{"buffer":0,"byteLength":192,"byteOffset":2620,"target":34963},{"buffer":0,"byteLength":432,"byteOffset":2812,"target":34962},{"buffer":0,"byteLength":432,"byteOffset":3244,"target":34962},{"buffer":0,"byteLength":576,"byteOffset":3676,"target":34962},{"buffer":0,"byteLength":288,"byteOffset":4252,"target":34962},{"buffer":0,"byteLength":288,"byteOffset":4540,"target":34962},{"buffer":0,"byteLength":132,"byteOffset":4828,"target":34963},{"buffer":0,"byteLength":336,"byteOffset":4960,"target":34962},{"buffer":0,"byteLength":336,"byteOffset":5296,"target":34962},{"buffer":0,"byteLength":448,"byteOffset":5632,"target":34962},{"buffer":0,"byteLength":224,"byteOffset":6080,"target":34962},{"buffer":0,"byteLength":224,"byteOffset":6304,"target":34962},{"buffer":0,"byteLength":60,"byteOffset":6528,"target":34963},{"buffer":0,"byteLength":192,"byteOffset":6588,"target":34962},{"buffer":0,"byteLength":192,"byteOffset":6780,"target":34962},{"buffer":0,"byteLength":256,"byteOffset":6972,"target":34962},{"buffer":0,"byteLength":128,"byteOffset":7228,"target":34962},{"buffer":0,"byteLength":128,"byteOffset":7356,"target":34962},{"buffer":0,"byteLength":168,"byteOffset":7484,"target":34963},{"buffer":0,"byteLength":960,"byteOffset":7652,"target":34962},{"buffer":0,"byteLength":960,"byteOffset":8612,"target":34962},{"buffer":0,"byteLength":640,"byteOffset":9572,"target":34962},{"buffer":0,"byteLength":640,"byteOffset":10212,"target":34962}],"buffers":[{"byteLength":10852,"uri":"SM_Soap_01.bin"}],"images":[{"name":"T_Soap_N","uri":"T_Soap_N.tga"}],"materials":[{"alphaMode":"OPAQUE","doubleSided":false,"extras":{"fromFBX":{"isTruePBR":false,"shadingModel":"Phong"}},"name":"MI_Soap","normalTexture":{"index":0,"texCoord":0},"pbrMetallicRoughness":{"baseColorFactor":[0.21586050093174,0.21586050093174,0.21586050093174,1],"metallicFactor":0.400000005960464,"roughnessFactor":0.301511347293854}},{"alphaMode":"OPAQUE","doubleSided":false,"extras":{"fromFBX":{"isTruePBR":false,"shadingModel":"Lambert"}},"name":"DefaultMaterial","pbrMetallicRoughness":{"baseColorFactor":[0.5,0.5,0.5,1],"metallicFactor":0.200000002980232,"roughnessFactor":0.800000011920929}}],"meshes":[{"name":"SM_Soap_01_LOD0","primitives":[{"attributes":{"NORMAL":3,"POSITION":2,"TANGENT":4,"TEXCOORD_0":5,"TEXCOORD_1":6},"indices":1,"material":0,"mode":4}]},{"name":"SM_Soap_01_LOD1","primitives":[{"attributes":{"NORMAL":9,"POSITION":8,"TANGENT":10,"TEXCOORD_0":11,"TEXCOORD_1":12},"indices":7,"material":0,"mode":4}]},{"name":"SM_Soap_01_LOD2","primitives":[{"attributes":{"NORMAL":15,"POSITION":14,"TANGENT":16,"TEXCOORD_0":17,"TEXCOORD_1":18},"indices":13,"material":0,"mode":4}]},{"name":"SM_Soap_01_LOD3","primitives":[{"attributes":{"NORMAL":21,"POSITION":20,"TANGENT":22,"TEXCOORD_0":23,"TEXCOORD_1":24},"indices":19,"material":0,"mode":4}]},{"name":"SM_Soap_01_ConvexHulls","primitives":[{"attributes":{"NORMAL":27,"POSITION":26,"TEXCOORD_0":28,"TEXCOORD_1":29},"indices":25,"material":1,"mode":4}]}],"nodes":[{"children":[1,2,3,4,5],"name":"SM_Soap_01_101","originalUnits":0.00999999977648258,"pivot":[0,0,0],"rotation":[0,0,0,1],"scale":[1,1,1],"translation":[0,0,0]},{"mesh":0,"name":"SM_Soap_01_LOD0","originalUnits":0.00999999977648258,"pivot":[0,0,0],"rotation":[0,0,0,1],"scale":[1,1,1],"translation":[0,0,0]},{"mesh":4,"name":"SM_Soap_01_ConvexHulls","originalUnits":0.00999999977648258,"pivot":[0,0,0],"rotation":[0,0,0,1],"scale":[1,1,1],"translation":[0,0,0]},{"mesh":1,"name":"SM_Soap_01_LOD1","originalUnits":0.00999999977648258,"pivot":[0,0,0],"rotation":[0,0,0,1],"scale":[1,1,1],"translation":[0,0,0]},{"mesh":2,"name":"SM_Soap_01_LOD2","originalUnits":0.00999999977648258,"pivot":[0,0,0],"rotation":[0,0,0,1],"scale":[1,1,1],"translation":[0,0,0]},{"mesh":3,"name":"SM_Soap_01_LOD3","originalUnits":0.00999999977648258,"pivot":[0,0,0],"rotation":[0,0,0,1],"scale":[1,1,1],"translation":[0,0,0]}],"samplers":[{}],"scene":0,"scenes":[{"name":"Root Scene","nodes":[0]}],"textures":[{"name":"T_Soap_N","sampler":0,"source":0}]}