{"accessors":[{"bufferView":0,"byteOffset":0,"componentType":5126,"count":1,"max":[0],"min":[0],"type":"SCALAR"},{"bufferView":1,"byteOffset":0,"componentType":5123,"count":1332,"type":"SCALAR"},{"bufferView":2,"byteOffset":0,"componentType":5126,"count":264,"max":[0.038436982780695,0.0245499275624752,0.0574999935925007],"min":[-0.03843697533011,-0.00171277299523,-0.0574999935925],"type":"VEC3"},{"bufferView":3,"byteOffset":0,"componentType":5126,"count":264,"type":"VEC3"},{"bufferView":4,"byteOffset":0,"componentType":5126,"count":264,"type":"VEC4"},{"bufferView":5,"byteOffset":0,"componentType":5126,"count":264,"type":"VEC2"},{"bufferView":6,"byteOffset":0,"componentType":5126,"count":264,"type":"VEC2"},{"bufferView":7,"byteOffset":0,"componentType":5123,"count":996,"type":"SCALAR"},{"bufferView":8,"byteOffset":0,"componentType":5126,"count":209,"max":[0.0388746373355389,0.0245500337332487,0.0574999935925007],"min":[-0.03895384818316,-0.00171277299523,-0.0574999935925],"type":"VEC3"},{"bufferView":9,"byteOffset":0,"componentType":5126,"count":209,"type":"VEC3"},{"bufferView":10,"byteOffset":0,"componentType":5126,"count":209,"type":"VEC4"},{"bufferView":11,"byteOffset":0,"componentType":5126,"count":209,"type":"VEC2"},{"bufferView":12,"byteOffset":0,"componentType":5126,"count":209,"type":"VEC2"},{"bufferView":13,"byteOffset":0,"componentType":5123,"count":666,"type":"SCALAR"},{"bufferView":14,"byteOffset":0,"componentType":5126,"count":153,"max":[0.0388077571988106,0.024552034214139,0.0574999935925007],"min":[-0.03898441791534,-0.00171300733928,-0.0574999935925],"type":"VEC3"},{"bufferView":15,"byteOffset":0,"componentType":5126,"count":153,"type":"VEC3"},{"bufferView":16,"byteOffset":0,"componentType":5126,"count":153,"type":"VEC4"},{"bufferView":17,"byteOffset":0,"componentType":5126,"count":153,"type":"VEC2"},{"bufferView":18,"byteOffset":0,"componentType":5126,"count":153,"type":"VEC2"},{"bufferView":19,"byteOffset":0,"componentType":5123,"count":330,"type":"SCALAR"},{"bufferView":20,"byteOffset":0,"componentType":5126,"count":97,"max":[0.0397348292171955,0.0246224664151669,0.0575876794755459],"min":[-0.03885880857706,-0.00280725560151,-0.05758779495955],"type":"VEC3"},{"bufferView":21,"byteOffset":0,"componentType":5126,"count":97,"type":"VEC3"},{"bufferView":22,"byteOffset":0,"componentType":5126,"count":97,"type":"VEC4"},{"bufferView":23,"byteOffset":0,"componentType":5126,"count":97,"type":"VEC2"},{"bufferView":24,"byteOffset":0,"componentType":5126,"count":97,"type":"VEC2"},{"bufferView":25,"byteOffset":0,"componentType":5123,"count":84,"type":"SCALAR"},{"bufferView":26,"byteOffset":0,"componentType":5126,"count":78,"max":[0.0378128699958324,0.0245499256998301,0.056523971259594],"min":[-0.03730874881148,-0.00171277206391,-0.05531375855207],"type":"VEC3"},{"bufferView":27,"byteOffset":0,"componentType":5126,"count":78,"type":"VEC3"},{"bufferView":28,"byteOffset":0,"componentType":5126,"count":78,"type":"VEC2"},{"bufferView":29,"byteOffset":0,"componentType":5126,"count":78,"type":"VEC2"}],"animations":[{"channels":[],"name":"Unreal Take","samplers":[]}],"asset":{"generator":"FBX2glTF v0.13.0","version":"2.0"},"bufferViews":[{"buffer":0,"byteLength":4,"byteOffset":0},{"buffer":0,"byteLength":2664,"byteOffset":4,"target":34963},{"buffer":0,"byteLength":3168,"byteOffset":2668,"target":34962},{"buffer":0,"byteLength":3168,"byteOffset":5836,"target":34962},{"buffer":0,"byteLength":4224,"byteOffset":9004,"target":34962},{"buffer":0,"byteLength":2112,"byteOffset":13228,"target":34962},{"buffer":0,"byteLength":2112,"byteOffset":15340,"target":34962},{"buffer":0,"byteLength":1992,"byteOffset":17452,"target":34963},{"buffer":0,"byteLength":2508,"byteOffset":19444,"target":34962},{"buffer":0,"byteLength":2508,"byteOffset":21952,"target":34962},{"buffer":0,"byteLength":3344,"byteOffset":24460,"target":34962},{"buffer":0,"byteLength":1672,"byteOffset":27804,"target":34962},{"buffer":0,"byteLength":1672,"byteOffset":29476,"target":34962},{"buffer":0,"byteLength":1332,"byteOffset":31148,"target":34963},{"buffer":0,"byteLength":1836,"byteOffset":32480,"target":34962},{"buffer":0,"byteLength":1836,"byteOffset":34316,"target":34962},{"buffer":0,"byteLength":2448,"byteOffset":36152,"target":34962},{"buffer":0,"byteLength":1224,"byteOffset":38600,"target":34962},{"buffer":0,"byteLength":1224,"byteOffset":39824,"target":34962},{"buffer":0,"byteLength":660,"byteOffset":41048,"target":34963},{"buffer":0,"byteLength":1164,"byteOffset":41708,"target":34962},{"buffer":0,"byteLength":1164,"byteOffset":42872,"target":34962},{"buffer":0,"byteLength":1552,"byteOffset":44036,"target":34962},{"buffer":0,"byteLength":776,"byteOffset":45588,"target":34962},{"buffer":0,"byteLength":776,"byteOffset":46364,"target":34962},{"buffer":0,"byteLength":168,"byteOffset":47140,"target":34963},{"buffer":0,"byteLength":936,"byteOffset":47308,"target":34962},{"buffer":0,"byteLength":936,"byteOffset":48244,"target":34962},{"buffer":0,"byteLength":624,"byteOffset":49180,"target":34962},{"buffer":0,"byteLength":624,"byteOffset":49804,"target":34962}],"buffers":[{"byteLength":50428,"uri":"SM_Sponge_01.bin"}],"images":[{"name":"T_Sponges_N","uri":"T_Sponges_N.tga"}],"materials":[{"alphaMode":"OPAQUE","doubleSided":false,"extras":{"fromFBX":{"isTruePBR":false,"shadingModel":"Phong"}},"name":"MI_Sponges","normalTexture":{"index":0,"texCoord":0},"pbrMetallicRoughness":{"baseColorFactor":[0.21586050093174,0.21586050093174,0.21586050093174,1],"metallicFactor":0.400000005960464,"roughnessFactor":0.301511347293854}},{"alphaMode":"OPAQUE","doubleSided":false,"extras":{"fromFBX":{"isTruePBR":false,"shadingModel":"Lambert"}},"name":"DefaultMaterial","pbrMetallicRoughness":{"baseColorFactor":[0.5,0.5,0.5,1],"metallicFactor":0.200000002980232,"roughnessFactor":0.800000011920929}}],"meshes":[{"name":"SM_Sponge_01_LOD0","primitives":[{"attributes":{"NORMAL":3,"POSITION":2,"TANGENT":4,"TEXCOORD_0":5,"TEXCOORD_1":6},"indices":1,"material":0,"mode":4}]},{"name":"SM_Sponge_01_LOD1","primitives":[{"attributes":{"NORMAL":9,"POSITION":8,"TANGENT":10,"TEXCOORD_0":11,"TEXCOORD_1":12},"indices":7,"material":0,"mode":4}]},{"name":"SM_Sponge_01_LOD2","primitives":[{"attributes":{"NORMAL":15,"POSITION":14,"TANGENT":16,"TEXCOORD_0":17,"TEXCOORD_1":18},"indices":13,"material":0,"mode":4}]},{"name":"SM_Sponge_01_LOD3","primitives":[{"attributes":{"NORMAL":21,"POSITION":20,"TANGENT":22,"TEXCOORD_0":23,"TEXCOORD_1":24},"indices":19,"material":0,"mode":4}]},{"name":"SM_Sponge_01_ConvexHulls","primitives":[{"attributes":{"NORMAL":27,"POSITION":26,"TEXCOORD_0":28,"TEXCOORD_1":29},"indices":25,"material":1,"mode":4}]}],"nodes":[{"children":[1,2,3,4,5],"name":"SM_Sponge_01_87","originalUnits":0.00999999977648258,"pivot":[0,0,0],"rotation":[0,0,0,1],"scale":[1,1,1],"translation":[0,0,0]},{"mesh":0,"name":"SM_Sponge_01_LOD0","originalUnits":0.00999999977648258,"pivot":[0,0,0],"rotation":[0,0,0,1],"scale":[1,1,1],"translation":[0,0,0]},{"mesh":4,"name":"SM_Sponge_01_ConvexHulls","originalUnits":0.00999999977648258,"pivot":[0,0,0],"rotation":[0,0,0,1],"scale":[1,1,1],"translation":[0,0,0]},{"mesh":1,"name":"SM_Sponge_01_LOD1","originalUnits":0.00999999977648258,"pivot":[0,0,0],"rotation":[0,0,0,1],"scale":[1,1,1],"translation":[0,0,0]},{"mesh":2,"name":"SM_Sponge_01_LOD2","originalUnits":0.00999999977648258,"pivot":[0,0,0],"rotation":[0,0,0,1],"scale":[1,1,1],"translation":[0,0,0]},{"mesh":3,"name":"SM_Sponge_01_LOD3","originalUnits":0.00999999977648258,"pivot":[0,0,0],"rotation":[0,0,0,1],"scale":[1,1,1],"translation":[0,0,0]}],"samplers":[{}],"scene":0,"scenes":[{"name":"Root Scene","nodes":[0]}],"textures":[{"name":"T_Sponges_N","sampler":0,"source":0}]}