{"accessors":[{"bufferView":0,"byteOffset":0,"componentType":5126,"count":1,"max":[0],"min":[0],"type":"SCALAR"},{"bufferView":1,"byteOffset":0,"componentType":5123,"count":10260,"type":"SCALAR"},{"bufferView":2,"byteOffset":0,"componentType":5126,"count":1889,"max":[0.083930678665638,0.257641851902008,0.0839305743575096],"min":[-0.08393070846796,-0.00000000880484,-0.0839306935668],"type":"VEC3"},{"bufferView":3,"byteOffset":0,"componentType":5126,"count":1889,"type":"VEC3"},{"bufferView":4,"byteOffset":0,"componentType":5126,"count":1889,"type":"VEC4"},{"bufferView":5,"byteOffset":0,"componentType":5126,"count":1889,"type":"VEC2"},{"bufferView":6,"byteOffset":0,"componentType":5126,"count":1889,"type":"VEC2"},{"bufferView":7,"byteOffset":0,"componentType":5123,"count":7692,"type":"SCALAR"},{"bufferView":8,"byteOffset":0,"componentType":5126,"count":1460,"max":[0.083930678665638,0.257641851902008,0.0839305743575096],"min":[-0.08393070846796,-0.00000000880484,-0.0839306935668],"type":"VEC3"},{"bufferView":9,"byteOffset":0,"componentType":5126,"count":1460,"type":"VEC3"},{"bufferView":10,"byteOffset":0,"componentType":5126,"count":1460,"type":"VEC4"},{"bufferView":11,"byteOffset":0,"componentType":5126,"count":1460,"type":"VEC2"},{"bufferView":12,"byteOffset":0,"componentType":5126,"count":1460,"type":"VEC2"},{"bufferView":13,"byteOffset":0,"componentType":5123,"count":5127,"type":"SCALAR"},{"bufferView":14,"byteOffset":0,"componentType":5126,"count":1019,"max":[0.0839572623372078,0.25765123963356,0.0839572101831436],"min":[-0.08395732939243,-0.00000009871428,-0.0839306935668],"type":"VEC3"},{"bufferView":15,"byteOffset":0,"componentType":5126,"count":1019,"type":"VEC3"},{"bufferView":16,"byteOffset":0,"componentType":5126,"count":1019,"type":"VEC4"},{"bufferView":17,"byteOffset":0,"componentType":5126,"count":1019,"type":"VEC2"},{"bufferView":18,"byteOffset":0,"componentType":5126,"count":1019,"type":"VEC2"},{"bufferView":19,"byteOffset":0,"componentType":5123,"count":2565,"type":"SCALAR"},{"bufferView":20,"byteOffset":0,"componentType":5126,"count":520,"max":[0.0844740495085716,0.257841020822525,0.0843295082449913],"min":[-0.08432474732399,-0.00000024382342,-0.0839306935668],"type":"VEC3"},{"bufferView":21,"byteOffset":0,"componentType":5126,"count":520,"type":"VEC3"},{"bufferView":22,"byteOffset":0,"componentType":5126,"count":520,"type":"VEC4"},{"bufferView":23,"byteOffset":0,"componentType":5126,"count":520,"type":"VEC2"},{"bufferView":24,"byteOffset":0,"componentType":5126,"count":520,"type":"VEC2"},{"bufferView":25,"byteOffset":0,"componentType":5123,"count":330,"type":"SCALAR"},{"bufferView":26,"byteOffset":0,"componentType":5126,"count":314,"max":[0.0854485705494881,0.259124457836151,0.0865442827343941],"min":[-0.08356308937073,-0.00151697965339,-0.08301950991154],"type":"VEC3"},{"bufferView":27,"byteOffset":0,"componentType":5126,"count":314,"type":"VEC3"},{"bufferView":28,"byteOffset":0,"componentType":5126,"count":314,"type":"VEC2"},{"bufferView":29,"byteOffset":0,"componentType":5126,"count":314,"type":"VEC2"}],"animations":[{"channels":[],"name":"Unreal Take","samplers":[]}],"asset":{"generator":"FBX2glTF v0.13.0","version":"2.0"},"bufferViews":[{"buffer":0,"byteLength":4,"byteOffset":0},{"buffer":0,"byteLength":20520,"byteOffset":4,"target":34963},{"buffer":0,"byteLength":22668,"byteOffset":20524,"target":34962},{"buffer":0,"byteLength":22668,"byteOffset":43192,"target":34962},{"buffer":0,"byteLength":30224,"byteOffset":65860,"target":34962},{"buffer":0,"byteLength":15112,"byteOffset":96084,"target":34962},{"buffer":0,"byteLength":15112,"byteOffset":111196,"target":34962},{"buffer":0,"byteLength":15384,"byteOffset":126308,"target":34963},{"buffer":0,"byteLength":17520,"byteOffset":141692,"target":34962},{"buffer":0,"byteLength":17520,"byteOffset":159212,"target":34962},{"buffer":0,"byteLength":23360,"byteOffset":176732,"target":34962},{"buffer":0,"byteLength":11680,"byteOffset":200092,"target":34962},{"buffer":0,"byteLength":11680,"byteOffset":211772,"target":34962},{"buffer":0,"byteLength":10254,"byteOffset":223452,"target":34963},{"buffer":0,"byteLength":12228,"byteOffset":233708,"target":34962},{"buffer":0,"byteLength":12228,"byteOffset":245936,"target":34962},{"buffer":0,"byteLength":16304,"byteOffset":258164,"target":34962},{"buffer":0,"byteLength":8152,"byteOffset":274468,"target":34962},{"buffer":0,"byteLength":8152,"byteOffset":282620,"target":34962},{"buffer":0,"byteLength":5130,"byteOffset":290772,"target":34963},{"buffer":0,"byteLength":6240,"byteOffset":295904,"target":34962},{"buffer":0,"byteLength":6240,"byteOffset":302144,"target":34962},{"buffer":0,"byteLength":8320,"byteOffset":308384,"target":34962},{"buffer":0,"byteLength":4160,"byteOffset":316704,"target":34962},{"buffer":0,"byteLength":4160,"byteOffset":320864,"target":34962},{"buffer":0,"byteLength":660,"byteOffset":325024,"target":34963},{"buffer":0,"byteLength":3768,"byteOffset":325684,"target":34962},{"buffer":0,"byteLength":3768,"byteOffset":329452,"target":34962},{"buffer":0,"byteLength":2512,"byteOffset":333220,"target":34962},{"buffer":0,"byteLength":2512,"byteOffset":335732,"target":34962}],"buffers":[{"byteLength":338244,"uri":"SM_Spoon_Jar.bin"}],"images":[{"name":"FlatNormal","uri":"FlatNormal.tga"}],"materials":[{"alphaMode":"OPAQUE","doubleSided":false,"extras":{"fromFBX":{"isTruePBR":false,"shadingModel":"Phong"}},"name":"MI_Spoon_Jar","normalTexture":{"index":0,"texCoord":0},"pbrMetallicRoughness":{"baseColorFactor":[0.21586050093174,0.21586050093174,0.21586050093174,1],"metallicFactor":0.400000005960464,"roughnessFactor":0.301511347293854}},{"alphaMode":"OPAQUE","doubleSided":false,"extras":{"fromFBX":{"isTruePBR":false,"shadingModel":"Lambert"}},"name":"DefaultMaterial","pbrMetallicRoughness":{"baseColorFactor":[0.5,0.5,0.5,1],"metallicFactor":0.200000002980232,"roughnessFactor":0.800000011920929}}],"meshes":[{"name":"SM_Spoon_Jar_LOD0","primitives":[{"attributes":{"NORMAL":3,"POSITION":2,"TANGENT":4,"TEXCOORD_0":5,"TEXCOORD_1":6},"indices":1,"material":0,"mode":4}]},{"name":"SM_Spoon_Jar_LOD1","primitives":[{"attributes":{"NORMAL":9,"POSITION":8,"TANGENT":10,"TEXCOORD_0":11,"TEXCOORD_1":12},"indices":7,"material":0,"mode":4}]},{"name":"SM_Spoon_Jar_LOD2","primitives":[{"attributes":{"NORMAL":15,"POSITION":14,"TANGENT":16,"TEXCOORD_0":17,"TEXCOORD_1":18},"indices":13,"material":0,"mode":4}]},{"name":"SM_Spoon_Jar_LOD3","primitives":[{"attributes":{"NORMAL":21,"POSITION":20,"TANGENT":22,"TEXCOORD_0":23,"TEXCOORD_1":24},"indices":19,"material":0,"mode":4}]},{"name":"SM_Spoon_Jar_ConvexHulls","primitives":[{"attributes":{"NORMAL":27,"POSITION":26,"TEXCOORD_0":28,"TEXCOORD_1":29},"indices":25,"material":1,"mode":4}]}],"nodes":[{"children":[1,2,3,4,5],"name":"Spoon_Jar_26","originalUnits":0.00999999977648258,"pivot":[0,0,0],"rotation":[0,0,0,1],"scale":[1,1,1],"translation":[0,0,0]},{"mesh":0,"name":"SM_Spoon_Jar_LOD0","originalUnits":0.00999999977648258,"pivot":[0,0,0],"rotation":[0,0,0,1],"scale":[1,1,1],"translation":[0,0,0]},{"mesh":4,"name":"SM_Spoon_Jar_ConvexHulls","originalUnits":0.00999999977648258,"pivot":[0,0,0],"rotation":[0,0,0,1],"scale":[1,1,1],"translation":[0,0,0]},{"mesh":1,"name":"SM_Spoon_Jar_LOD1","originalUnits":0.00999999977648258,"pivot":[0,0,0],"rotation":[0,0,0,1],"scale":[1,1,1],"translation":[0,0,0]},{"mesh":2,"name":"SM_Spoon_Jar_LOD2","originalUnits":0.00999999977648258,"pivot":[0,0,0],"rotation":[0,0,0,1],"scale":[1,1,1],"translation":[0,0,0]},{"mesh":3,"name":"SM_Spoon_Jar_LOD3","originalUnits":0.00999999977648258,"pivot":[0,0,0],"rotation":[0,0,0,1],"scale":[1,1,1],"translation":[0,0,0]}],"samplers":[{}],"scene":0,"scenes":[{"name":"Root Scene","nodes":[0]}],"textures":[{"name":"T_Default_N","sampler":0,"source":0}]}