{"accessors":[{"bufferView":0,"byteOffset":0,"componentType":5126,"count":1,"max":[0],"min":[0],"type":"SCALAR"},{"bufferView":1,"byteOffset":0,"componentType":5123,"count":780,"type":"SCALAR"},{"bufferView":2,"byteOffset":0,"componentType":5126,"count":154,"max":[0.0241999737918377,0.0653642565011978,0.0664289444684982],"min":[-0.02184880524874,-0.0467387586832,-0.05684887245297],"type":"VEC3"},{"bufferView":3,"byteOffset":0,"componentType":5126,"count":154,"type":"VEC3"},{"bufferView":4,"byteOffset":0,"componentType":5126,"count":154,"type":"VEC4"},{"bufferView":5,"byteOffset":0,"componentType":5126,"count":154,"type":"VEC2"},{"bufferView":6,"byteOffset":0,"componentType":5126,"count":154,"type":"VEC2"},{"bufferView":7,"byteOffset":0,"componentType":5123,"count":582,"type":"SCALAR"},{"bufferView":8,"byteOffset":0,"componentType":5126,"count":115,"max":[0.0241999737918377,0.0653642565011978,0.066428929567337],"min":[-0.02184880524874,-0.0467387586832,-0.05684551224113],"type":"VEC3"},{"bufferView":9,"byteOffset":0,"componentType":5126,"count":115,"type":"VEC3"},{"bufferView":10,"byteOffset":0,"componentType":5126,"count":115,"type":"VEC4"},{"bufferView":11,"byteOffset":0,"componentType":5126,"count":115,"type":"VEC2"},{"bufferView":12,"byteOffset":0,"componentType":5126,"count":115,"type":"VEC2"},{"bufferView":13,"byteOffset":0,"componentType":5123,"count":390,"type":"SCALAR"},{"bufferView":14,"byteOffset":0,"componentType":5126,"count":79,"max":[0.0241999737918377,0.0653642565011978,0.066428929567337],"min":[-0.02183856256306,-0.04674903675914,-0.05684551224113],"type":"VEC3"},{"bufferView":15,"byteOffset":0,"componentType":5126,"count":79,"type":"VEC3"},{"bufferView":16,"byteOffset":0,"componentType":5126,"count":79,"type":"VEC4"},{"bufferView":17,"byteOffset":0,"componentType":5126,"count":79,"type":"VEC2"},{"bufferView":18,"byteOffset":0,"componentType":5126,"count":79,"type":"VEC2"},{"bufferView":19,"byteOffset":0,"componentType":5123,"count":192,"type":"SCALAR"},{"bufferView":20,"byteOffset":0,"componentType":5126,"count":43,"max":[0.0241999737918377,0.0653642565011978,0.066428929567337],"min":[-0.02183856256306,-0.04674903675914,-0.05684551224113],"type":"VEC3"},{"bufferView":21,"byteOffset":0,"componentType":5126,"count":43,"type":"VEC3"},{"bufferView":22,"byteOffset":0,"componentType":5126,"count":43,"type":"VEC4"},{"bufferView":23,"byteOffset":0,"componentType":5126,"count":43,"type":"VEC2"},{"bufferView":24,"byteOffset":0,"componentType":5126,"count":43,"type":"VEC2"},{"bufferView":25,"byteOffset":0,"componentType":5123,"count":300,"type":"SCALAR"},{"bufferView":26,"byteOffset":0,"componentType":5126,"count":284,"max":[0.0253202226012945,0.06638053804636,0.0669172331690788],"min":[-0.02249399200082,-0.04763790592551,-0.05595587193966],"type":"VEC3"},{"bufferView":27,"byteOffset":0,"componentType":5126,"count":284,"type":"VEC3"},{"bufferView":28,"byteOffset":0,"componentType":5126,"count":284,"type":"VEC2"},{"bufferView":29,"byteOffset":0,"componentType":5126,"count":284,"type":"VEC2"}],"animations":[{"channels":[],"name":"Unreal Take","samplers":[]}],"asset":{"generator":"FBX2glTF v0.13.0","version":"2.0"},"bufferViews":[{"buffer":0,"byteLength":4,"byteOffset":0},{"buffer":0,"byteLength":1560,"byteOffset":4,"target":34963},{"buffer":0,"byteLength":1848,"byteOffset":1564,"target":34962},{"buffer":0,"byteLength":1848,"byteOffset":3412,"target":34962},{"buffer":0,"byteLength":2464,"byteOffset":5260,"target":34962},{"buffer":0,"byteLength":1232,"byteOffset":7724,"target":34962},{"buffer":0,"byteLength":1232,"byteOffset":8956,"target":34962},{"buffer":0,"byteLength":1164,"byteOffset":10188,"target":34963},{"buffer":0,"byteLength":1380,"byteOffset":11352,"target":34962},{"buffer":0,"byteLength":1380,"byteOffset":12732,"target":34962},{"buffer":0,"byteLength":1840,"byteOffset":14112,"target":34962},{"buffer":0,"byteLength":920,"byteOffset":15952,"target":34962},{"buffer":0,"byteLength":920,"byteOffset":16872,"target":34962},{"buffer":0,"byteLength":780,"byteOffset":17792,"target":34963},{"buffer":0,"byteLength":948,"byteOffset":18572,"target":34962},{"buffer":0,"byteLength":948,"byteOffset":19520,"target":34962},{"buffer":0,"byteLength":1264,"byteOffset":20468,"target":34962},{"buffer":0,"byteLength":632,"byteOffset":21732,"target":34962},{"buffer":0,"byteLength":632,"byteOffset":22364,"target":34962},{"buffer":0,"byteLength":384,"byteOffset":22996,"target":34963},{"buffer":0,"byteLength":516,"byteOffset":23380,"target":34962},{"buffer":0,"byteLength":516,"byteOffset":23896,"target":34962},{"buffer":0,"byteLength":688,"byteOffset":24412,"target":34962},{"buffer":0,"byteLength":344,"byteOffset":25100,"target":34962},{"buffer":0,"byteLength":344,"byteOffset":25444,"target":34962},{"buffer":0,"byteLength":600,"byteOffset":25788,"target":34963},{"buffer":0,"byteLength":3408,"byteOffset":26388,"target":34962},{"buffer":0,"byteLength":3408,"byteOffset":29796,"target":34962},{"buffer":0,"byteLength":2272,"byteOffset":33204,"target":34962},{"buffer":0,"byteLength":2272,"byteOffset":35476,"target":34962}],"buffers":[{"byteLength":37748,"uri":"SM_StickyNotes_01.bin"}],"images":[{"name":"T_Heavy_Fabric01_N","uri":"T_Heavy_Fabric01_N.tga"}],"materials":[{"alphaMode":"OPAQUE","doubleSided":false,"extras":{"fromFBX":{"isTruePBR":false,"shadingModel":"Phong"}},"name":"MI_Sticky_Note_Extra","normalTexture":{"index":0,"texCoord":0},"pbrMetallicRoughness":{"baseColorFactor":[0.21586050093174,0.21586050093174,0.21586050093174,1],"metallicFactor":0.400000005960464,"roughnessFactor":0.301511347293854}},{"alphaMode":"OPAQUE","doubleSided":false,"extras":{"fromFBX":{"isTruePBR":false,"shadingModel":"Lambert"}},"name":"DefaultMaterial","pbrMetallicRoughness":{"baseColorFactor":[0.5,0.5,0.5,1],"metallicFactor":0.200000002980232,"roughnessFactor":0.800000011920929}}],"meshes":[{"name":"SM_StickyNotes_01_LOD0","primitives":[{"attributes":{"NORMAL":3,"POSITION":2,"TANGENT":4,"TEXCOORD_0":5,"TEXCOORD_1":6},"indices":1,"material":0,"mode":4}]},{"name":"SM_StickyNotes_01_LOD1","primitives":[{"attributes":{"NORMAL":9,"POSITION":8,"TANGENT":10,"TEXCOORD_0":11,"TEXCOORD_1":12},"indices":7,"material":0,"mode":4}]},{"name":"SM_StickyNotes_01_LOD2","primitives":[{"attributes":{"NORMAL":15,"POSITION":14,"TANGENT":16,"TEXCOORD_0":17,"TEXCOORD_1":18},"indices":13,"material":0,"mode":4}]},{"name":"SM_StickyNotes_01_LOD3","primitives":[{"attributes":{"NORMAL":21,"POSITION":20,"TANGENT":22,"TEXCOORD_0":23,"TEXCOORD_1":24},"indices":19,"material":0,"mode":4}]},{"name":"SM_StickyNotes_01_ConvexHulls","primitives":[{"attributes":{"NORMAL":27,"POSITION":26,"TEXCOORD_0":28,"TEXCOORD_1":29},"indices":25,"material":1,"mode":4}]}],"nodes":[{"children":[1,2,3,4,5],"name":"Extra_Sticky_Notes_Sticky_Note_06_17","originalUnits":0.00999999977648258,"pivot":[0,0,0],"rotation":[0,0,0,1],"scale":[1,1,1],"translation":[0,0,0]},{"mesh":0,"name":"SM_StickyNotes_01_LOD0","originalUnits":0.00999999977648258,"pivot":[0,0,0],"rotation":[0,0,0,1],"scale":[1,1,1],"translation":[0,0,0]},{"mesh":4,"name":"SM_StickyNotes_01_ConvexHulls","originalUnits":0.00999999977648258,"pivot":[0,0,0],"rotation":[0,0,0,1],"scale":[1,1,1],"translation":[0,0,0]},{"mesh":1,"name":"SM_StickyNotes_01_LOD1","originalUnits":0.00999999977648258,"pivot":[0,0,0],"rotation":[0,0,0,1],"scale":[1,1,1],"translation":[0,0,0]},{"mesh":2,"name":"SM_StickyNotes_01_LOD2","originalUnits":0.00999999977648258,"pivot":[0,0,0],"rotation":[0,0,0,1],"scale":[1,1,1],"translation":[0,0,0]},{"mesh":3,"name":"SM_StickyNotes_01_LOD3","originalUnits":0.00999999977648258,"pivot":[0,0,0],"rotation":[0,0,0,1],"scale":[1,1,1],"translation":[0,0,0]}],"samplers":[{}],"scene":0,"scenes":[{"name":"Root Scene","nodes":[0]}],"textures":[{"name":"T_Heavy_Fabric01_N","sampler":0,"source":0}]}