{"accessors":[{"bufferView":0,"byteOffset":0,"componentType":5126,"count":1,"max":[0],"min":[0],"type":"SCALAR"},{"bufferView":1,"byteOffset":0,"componentType":5123,"count":6882,"type":"SCALAR"},{"bufferView":2,"byteOffset":0,"componentType":5126,"count":1453,"max":[0.26955509185791,1.12937426567078,0.388599127531052],"min":[-0.26959022879601,-0.00197275704704,-0.38875737786293],"type":"VEC3"},{"bufferView":3,"byteOffset":0,"componentType":5126,"count":1453,"type":"VEC3"},{"bufferView":4,"byteOffset":0,"componentType":5126,"count":1453,"type":"VEC4"},{"bufferView":5,"byteOffset":0,"componentType":5126,"count":1453,"type":"VEC2"},{"bufferView":6,"byteOffset":0,"componentType":5126,"count":1453,"type":"VEC2"},{"bufferView":7,"byteOffset":0,"componentType":5123,"count":5160,"type":"SCALAR"},{"bufferView":8,"byteOffset":0,"componentType":5126,"count":1162,"max":[0.26955509185791,1.12937426567078,0.388599127531052],"min":[-0.26959022879601,-0.00197275704704,-0.38875737786293],"type":"VEC3"},{"bufferView":9,"byteOffset":0,"componentType":5126,"count":1162,"type":"VEC3"},{"bufferView":10,"byteOffset":0,"componentType":5126,"count":1162,"type":"VEC4"},{"bufferView":11,"byteOffset":0,"componentType":5126,"count":1162,"type":"VEC2"},{"bufferView":12,"byteOffset":0,"componentType":5126,"count":1162,"type":"VEC2"},{"bufferView":13,"byteOffset":0,"componentType":5123,"count":3441,"type":"SCALAR"},{"bufferView":14,"byteOffset":0,"componentType":5126,"count":847,"max":[0.26955509185791,1.12937426567078,0.388599127531052],"min":[-0.26959022879601,-0.00197275704704,-0.38875737786293],"type":"VEC3"},{"bufferView":15,"byteOffset":0,"componentType":5126,"count":847,"type":"VEC3"},{"bufferView":16,"byteOffset":0,"componentType":5126,"count":847,"type":"VEC4"},{"bufferView":17,"byteOffset":0,"componentType":5126,"count":847,"type":"VEC2"},{"bufferView":18,"byteOffset":0,"componentType":5126,"count":847,"type":"VEC2"},{"bufferView":19,"byteOffset":0,"componentType":5123,"count":1722,"type":"SCALAR"},{"bufferView":20,"byteOffset":0,"componentType":5126,"count":482,"max":[0.26955509185791,1.12937426567078,0.388599127531052],"min":[-0.26959022879601,-0.00220664055087,-0.38875737786293],"type":"VEC3"},{"bufferView":21,"byteOffset":0,"componentType":5126,"count":482,"type":"VEC3"},{"bufferView":22,"byteOffset":0,"componentType":5126,"count":482,"type":"VEC4"},{"bufferView":23,"byteOffset":0,"componentType":5126,"count":482,"type":"VEC2"},{"bufferView":24,"byteOffset":0,"componentType":5126,"count":482,"type":"VEC2"},{"bufferView":25,"byteOffset":0,"componentType":5123,"count":330,"type":"SCALAR"},{"bufferView":26,"byteOffset":0,"componentType":5126,"count":314,"max":[0.268622994422913,1.12937426567078,0.389528065919876],"min":[-0.27149477601051,-0.00510742515326,-0.39197847247124],"type":"VEC3"},{"bufferView":27,"byteOffset":0,"componentType":5126,"count":314,"type":"VEC3"},{"bufferView":28,"byteOffset":0,"componentType":5126,"count":314,"type":"VEC2"},{"bufferView":29,"byteOffset":0,"componentType":5126,"count":314,"type":"VEC2"}],"animations":[{"channels":[],"name":"Unreal Take","samplers":[]}],"asset":{"generator":"FBX2glTF v0.13.0","version":"2.0"},"bufferViews":[{"buffer":0,"byteLength":4,"byteOffset":0},{"buffer":0,"byteLength":13764,"byteOffset":4,"target":34963},{"buffer":0,"byteLength":17436,"byteOffset":13768,"target":34962},{"buffer":0,"byteLength":17436,"byteOffset":31204,"target":34962},{"buffer":0,"byteLength":23248,"byteOffset":48640,"target":34962},{"buffer":0,"byteLength":11624,"byteOffset":71888,"target":34962},{"buffer":0,"byteLength":11624,"byteOffset":83512,"target":34962},{"buffer":0,"byteLength":10320,"byteOffset":95136,"target":34963},{"buffer":0,"byteLength":13944,"byteOffset":105456,"target":34962},{"buffer":0,"byteLength":13944,"byteOffset":119400,"target":34962},{"buffer":0,"byteLength":18592,"byteOffset":133344,"target":34962},{"buffer":0,"byteLength":9296,"byteOffset":151936,"target":34962},{"buffer":0,"byteLength":9296,"byteOffset":161232,"target":34962},{"buffer":0,"byteLength":6882,"byteOffset":170528,"target":34963},{"buffer":0,"byteLength":10164,"byteOffset":177412,"target":34962},{"buffer":0,"byteLength":10164,"byteOffset":187576,"target":34962},{"buffer":0,"byteLength":13552,"byteOffset":197740,"target":34962},{"buffer":0,"byteLength":6776,"byteOffset":211292,"target":34962},{"buffer":0,"byteLength":6776,"byteOffset":218068,"target":34962},{"buffer":0,"byteLength":3444,"byteOffset":224844,"target":34963},{"buffer":0,"byteLength":5784,"byteOffset":228288,"target":34962},{"buffer":0,"byteLength":5784,"byteOffset":234072,"target":34962},{"buffer":0,"byteLength":7712,"byteOffset":239856,"target":34962},{"buffer":0,"byteLength":3856,"byteOffset":247568,"target":34962},{"buffer":0,"byteLength":3856,"byteOffset":251424,"target":34962},{"buffer":0,"byteLength":660,"byteOffset":255280,"target":34963},{"buffer":0,"byteLength":3768,"byteOffset":255940,"target":34962},{"buffer":0,"byteLength":3768,"byteOffset":259708,"target":34962},{"buffer":0,"byteLength":2512,"byteOffset":263476,"target":34962},{"buffer":0,"byteLength":2512,"byteOffset":265988,"target":34962}],"buffers":[{"byteLength":268500,"uri":"SM_TVSet.bin"}],"images":[{"name":"T_TVSet_N","uri":"T_TVSet_N.tga"}],"materials":[{"alphaMode":"OPAQUE","doubleSided":false,"extras":{"fromFBX":{"isTruePBR":false,"shadingModel":"Phong"}},"name":"MI_TV","normalTexture":{"index":0,"texCoord":0},"pbrMetallicRoughness":{"baseColorFactor":[0.21586050093174,0.21586050093174,0.21586050093174,1],"metallicFactor":0.400000005960464,"roughnessFactor":0.301511347293854}},{"alphaMode":"OPAQUE","doubleSided":false,"extras":{"fromFBX":{"isTruePBR":false,"shadingModel":"Lambert"}},"name":"DefaultMaterial","pbrMetallicRoughness":{"baseColorFactor":[0.5,0.5,0.5,1],"metallicFactor":0.200000002980232,"roughnessFactor":0.800000011920929}}],"meshes":[{"name":"SM_TVSet_LOD0","primitives":[{"attributes":{"NORMAL":3,"POSITION":2,"TANGENT":4,"TEXCOORD_0":5,"TEXCOORD_1":6},"indices":1,"material":0,"mode":4}]},{"name":"SM_TVSet_LOD1","primitives":[{"attributes":{"NORMAL":9,"POSITION":8,"TANGENT":10,"TEXCOORD_0":11,"TEXCOORD_1":12},"indices":7,"material":0,"mode":4}]},{"name":"SM_TVSet_LOD2","primitives":[{"attributes":{"NORMAL":15,"POSITION":14,"TANGENT":16,"TEXCOORD_0":17,"TEXCOORD_1":18},"indices":13,"material":0,"mode":4}]},{"name":"SM_TVSet_LOD3","primitives":[{"attributes":{"NORMAL":21,"POSITION":20,"TANGENT":22,"TEXCOORD_0":23,"TEXCOORD_1":24},"indices":19,"material":0,"mode":4}]},{"name":"SM_TVSet_ConvexHulls","primitives":[{"attributes":{"NORMAL":27,"POSITION":26,"TEXCOORD_0":28,"TEXCOORD_1":29},"indices":25,"material":1,"mode":4}]}],"nodes":[{"children":[1,2,3,4,5],"name":"Assets_Proxy_LR_Table_Proxy_180","originalUnits":0.00999999977648258,"pivot":[0,0,0],"rotation":[0,0,0,1],"scale":[1,1,1],"translation":[0,0,0]},{"mesh":0,"name":"SM_TVSet_LOD0","originalUnits":0.00999999977648258,"pivot":[0,0,0],"rotation":[0,0,0,1],"scale":[1,1,1],"translation":[0,0,0]},{"mesh":4,"name":"SM_TVSet_ConvexHulls","originalUnits":0.00999999977648258,"pivot":[0,0,0],"rotation":[0,0,0,1],"scale":[1,1,1],"translation":[0,0,0]},{"mesh":1,"name":"SM_TVSet_LOD1","originalUnits":0.00999999977648258,"pivot":[0,0,0],"rotation":[0,0,0,1],"scale":[1,1,1],"translation":[0,0,0]},{"mesh":2,"name":"SM_TVSet_LOD2","originalUnits":0.00999999977648258,"pivot":[0,0,0],"rotation":[0,0,0,1],"scale":[1,1,1],"translation":[0,0,0]},{"mesh":3,"name":"SM_TVSet_LOD3","originalUnits":0.00999999977648258,"pivot":[0,0,0],"rotation":[0,0,0,1],"scale":[1,1,1],"translation":[0,0,0]}],"samplers":[{}],"scene":0,"scenes":[{"name":"Root Scene","nodes":[0]}],"textures":[{"name":"T_TVSet_N","sampler":0,"source":0}]}