{"accessors":[{"bufferView":0,"byteOffset":0,"componentType":5126,"count":1,"max":[0],"min":[0],"type":"SCALAR"},{"bufferView":1,"byteOffset":0,"componentType":5123,"count":4320,"type":"SCALAR"},{"bufferView":2,"byteOffset":0,"componentType":5126,"count":1309,"max":[0.157274097204208,0.366221696138382,0.294871240854263],"min":[-0.15727420151234,-0.0000000162061,-0.28116798400879],"type":"VEC3"},{"bufferView":3,"byteOffset":0,"componentType":5126,"count":1309,"type":"VEC3"},{"bufferView":4,"byteOffset":0,"componentType":5126,"count":1309,"type":"VEC4"},{"bufferView":5,"byteOffset":0,"componentType":5126,"count":1309,"type":"VEC2"},{"bufferView":6,"byteOffset":0,"componentType":5126,"count":1309,"type":"VEC2"},{"bufferView":7,"byteOffset":0,"componentType":5123,"count":3240,"type":"SCALAR"},{"bufferView":8,"byteOffset":0,"componentType":5126,"count":1058,"max":[0.157274097204208,0.366221696138382,0.294871240854263],"min":[-0.15727420151234,-0.00001174263889,-0.28116798400879],"type":"VEC3"},{"bufferView":9,"byteOffset":0,"componentType":5126,"count":1058,"type":"VEC3"},{"bufferView":10,"byteOffset":0,"componentType":5126,"count":1058,"type":"VEC4"},{"bufferView":11,"byteOffset":0,"componentType":5126,"count":1058,"type":"VEC2"},{"bufferView":12,"byteOffset":0,"componentType":5126,"count":1058,"type":"VEC2"},{"bufferView":13,"byteOffset":0,"componentType":5123,"count":2160,"type":"SCALAR"},{"bufferView":14,"byteOffset":0,"componentType":5126,"count":780,"max":[0.157274097204208,0.36622679233551,0.295055776834488],"min":[-0.15727420151234,-0.00001174263889,-0.28116798400879],"type":"VEC3"},{"bufferView":15,"byteOffset":0,"componentType":5126,"count":780,"type":"VEC3"},{"bufferView":16,"byteOffset":0,"componentType":5126,"count":780,"type":"VEC4"},{"bufferView":17,"byteOffset":0,"componentType":5126,"count":780,"type":"VEC2"},{"bufferView":18,"byteOffset":0,"componentType":5126,"count":780,"type":"VEC2"},{"bufferView":19,"byteOffset":0,"componentType":5123,"count":1080,"type":"SCALAR"},{"bufferView":20,"byteOffset":0,"componentType":5126,"count":446,"max":[0.157274097204208,0.366240710020065,0.295037508010864],"min":[-0.15727420151234,-0.00001174263889,-0.28116798400879],"type":"VEC3"},{"bufferView":21,"byteOffset":0,"componentType":5126,"count":446,"type":"VEC3"},{"bufferView":22,"byteOffset":0,"componentType":5126,"count":446,"type":"VEC4"},{"bufferView":23,"byteOffset":0,"componentType":5126,"count":446,"type":"VEC2"},{"bufferView":24,"byteOffset":0,"componentType":5126,"count":446,"type":"VEC2"},{"bufferView":25,"byteOffset":0,"componentType":5123,"count":288,"type":"SCALAR"},{"bufferView":26,"byteOffset":0,"componentType":5126,"count":274,"max":[0.157272160053253,0.372704982757568,0.299075394868851],"min":[-0.15720771253109,-0.00634064013138,-0.28116798400879],"type":"VEC3"},{"bufferView":27,"byteOffset":0,"componentType":5126,"count":274,"type":"VEC3"},{"bufferView":28,"byteOffset":0,"componentType":5126,"count":274,"type":"VEC2"},{"bufferView":29,"byteOffset":0,"componentType":5126,"count":274,"type":"VEC2"}],"animations":[{"channels":[],"name":"Unreal Take","samplers":[]}],"asset":{"generator":"FBX2glTF v0.13.0","version":"2.0"},"bufferViews":[{"buffer":0,"byteLength":4,"byteOffset":0},{"buffer":0,"byteLength":8640,"byteOffset":4,"target":34963},{"buffer":0,"byteLength":15708,"byteOffset":8644,"target":34962},{"buffer":0,"byteLength":15708,"byteOffset":24352,"target":34962},{"buffer":0,"byteLength":20944,"byteOffset":40060,"target":34962},{"buffer":0,"byteLength":10472,"byteOffset":61004,"target":34962},{"buffer":0,"byteLength":10472,"byteOffset":71476,"target":34962},{"buffer":0,"byteLength":6480,"byteOffset":81948,"target":34963},{"buffer":0,"byteLength":12696,"byteOffset":88428,"target":34962},{"buffer":0,"byteLength":12696,"byteOffset":101124,"target":34962},{"buffer":0,"byteLength":16928,"byteOffset":113820,"target":34962},{"buffer":0,"byteLength":8464,"byteOffset":130748,"target":34962},{"buffer":0,"byteLength":8464,"byteOffset":139212,"target":34962},{"buffer":0,"byteLength":4320,"byteOffset":147676,"target":34963},{"buffer":0,"byteLength":9360,"byteOffset":151996,"target":34962},{"buffer":0,"byteLength":9360,"byteOffset":161356,"target":34962},{"buffer":0,"byteLength":12480,"byteOffset":170716,"target":34962},{"buffer":0,"byteLength":6240,"byteOffset":183196,"target":34962},{"buffer":0,"byteLength":6240,"byteOffset":189436,"target":34962},{"buffer":0,"byteLength":2160,"byteOffset":195676,"target":34963},{"buffer":0,"byteLength":5352,"byteOffset":197836,"target":34962},{"buffer":0,"byteLength":5352,"byteOffset":203188,"target":34962},{"buffer":0,"byteLength":7136,"byteOffset":208540,"target":34962},{"buffer":0,"byteLength":3568,"byteOffset":215676,"target":34962},{"buffer":0,"byteLength":3568,"byteOffset":219244,"target":34962},{"buffer":0,"byteLength":576,"byteOffset":222812,"target":34963},{"buffer":0,"byteLength":3288,"byteOffset":223388,"target":34962},{"buffer":0,"byteLength":3288,"byteOffset":226676,"target":34962},{"buffer":0,"byteLength":2192,"byteOffset":229964,"target":34962},{"buffer":0,"byteLength":2192,"byteOffset":232156,"target":34962}],"buffers":[{"byteLength":234348,"uri":"SM_Toaster.bin"}],"images":[{"name":"FlatNormal","uri":"FlatNormal.tga"}],"materials":[{"alphaMode":"OPAQUE","doubleSided":false,"extras":{"fromFBX":{"isTruePBR":false,"shadingModel":"Phong"}},"name":"MI_Kitchen_Props_A","normalTexture":{"index":0,"texCoord":0},"pbrMetallicRoughness":{"baseColorFactor":[0.21586050093174,0.21586050093174,0.21586050093174,1],"metallicFactor":0.400000005960464,"roughnessFactor":0.301511347293854}},{"alphaMode":"OPAQUE","doubleSided":false,"extras":{"fromFBX":{"isTruePBR":false,"shadingModel":"Lambert"}},"name":"DefaultMaterial","pbrMetallicRoughness":{"baseColorFactor":[0.5,0.5,0.5,1],"metallicFactor":0.200000002980232,"roughnessFactor":0.800000011920929}}],"meshes":[{"name":"SM_Toaster_LOD0","primitives":[{"attributes":{"NORMAL":3,"POSITION":2,"TANGENT":4,"TEXCOORD_0":5,"TEXCOORD_1":6},"indices":1,"material":0,"mode":4}]},{"name":"SM_Toaster_LOD1","primitives":[{"attributes":{"NORMAL":9,"POSITION":8,"TANGENT":10,"TEXCOORD_0":11,"TEXCOORD_1":12},"indices":7,"material":0,"mode":4}]},{"name":"SM_Toaster_LOD2","primitives":[{"attributes":{"NORMAL":15,"POSITION":14,"TANGENT":16,"TEXCOORD_0":17,"TEXCOORD_1":18},"indices":13,"material":0,"mode":4}]},{"name":"SM_Toaster_LOD3","primitives":[{"attributes":{"NORMAL":21,"POSITION":20,"TANGENT":22,"TEXCOORD_0":23,"TEXCOORD_1":24},"indices":19,"material":0,"mode":4}]},{"name":"SM_Toaster_ConvexHulls","primitives":[{"attributes":{"NORMAL":27,"POSITION":26,"TEXCOORD_0":28,"TEXCOORD_1":29},"indices":25,"material":1,"mode":4}]}],"nodes":[{"children":[1,2,3,4,5],"name":"Kitchen_Props_A_Toaster_5","originalUnits":0.00999999977648258,"pivot":[0,0,0],"rotation":[0,0,0,1],"scale":[1,1,1],"translation":[0,0,0]},{"mesh":0,"name":"SM_Toaster_LOD0","originalUnits":0.00999999977648258,"pivot":[0,0,0],"rotation":[0,0,0,1],"scale":[1,1,1],"translation":[0,0,0]},{"mesh":4,"name":"SM_Toaster_ConvexHulls","originalUnits":0.00999999977648258,"pivot":[0,0,0],"rotation":[0,0,0,1],"scale":[1,1,1],"translation":[0,0,0]},{"mesh":1,"name":"SM_Toaster_LOD1","originalUnits":0.00999999977648258,"pivot":[0,0,0],"rotation":[0,0,0,1],"scale":[1,1,1],"translation":[0,0,0]},{"mesh":2,"name":"SM_Toaster_LOD2","originalUnits":0.00999999977648258,"pivot":[0,0,0],"rotation":[0,0,0,1],"scale":[1,1,1],"translation":[0,0,0]},{"mesh":3,"name":"SM_Toaster_LOD3","originalUnits":0.00999999977648258,"pivot":[0,0,0],"rotation":[0,0,0,1],"scale":[1,1,1],"translation":[0,0,0]}],"samplers":[{}],"scene":0,"scenes":[{"name":"Root Scene","nodes":[0]}],"textures":[{"name":"T_Default_N","sampler":0,"source":0}]}