{"accessors":[{"bufferView":0,"byteOffset":0,"componentType":5126,"count":1,"max":[0],"min":[0],"type":"SCALAR"},{"bufferView":1,"byteOffset":0,"componentType":5123,"count":12315,"type":"SCALAR"},{"bufferView":2,"byteOffset":0,"componentType":5126,"count":2421,"max":[0.236588925123215,0.591456055641174,0.174299120903015],"min":[-0.23721671104431,-0.00000002274909,-0.17797540128231],"type":"VEC3"},{"bufferView":3,"byteOffset":0,"componentType":5126,"count":2421,"type":"VEC3"},{"bufferView":4,"byteOffset":0,"componentType":5126,"count":2421,"type":"VEC4"},{"bufferView":5,"byteOffset":0,"componentType":5126,"count":2421,"type":"VEC2"},{"bufferView":6,"byteOffset":0,"componentType":5126,"count":2421,"type":"VEC2"},{"bufferView":7,"byteOffset":0,"componentType":5123,"count":9237,"type":"SCALAR"},{"bufferView":8,"byteOffset":0,"componentType":5126,"count":1873,"max":[0.236588925123215,0.591456055641174,0.174299120903015],"min":[-0.23721671104431,-0.00000264704886,-0.17797540128231],"type":"VEC3"},{"bufferView":9,"byteOffset":0,"componentType":5126,"count":1873,"type":"VEC3"},{"bufferView":10,"byteOffset":0,"componentType":5126,"count":1873,"type":"VEC4"},{"bufferView":11,"byteOffset":0,"componentType":5126,"count":1873,"type":"VEC2"},{"bufferView":12,"byteOffset":0,"componentType":5126,"count":1873,"type":"VEC2"},{"bufferView":13,"byteOffset":0,"componentType":5123,"count":6159,"type":"SCALAR"},{"bufferView":14,"byteOffset":0,"componentType":5126,"count":1301,"max":[0.236588925123215,0.590759754180908,0.174299120903015],"min":[-0.23721671104431,-0.00003307470979,-0.17797540128231],"type":"VEC3"},{"bufferView":15,"byteOffset":0,"componentType":5126,"count":1301,"type":"VEC3"},{"bufferView":16,"byteOffset":0,"componentType":5126,"count":1301,"type":"VEC4"},{"bufferView":17,"byteOffset":0,"componentType":5126,"count":1301,"type":"VEC2"},{"bufferView":18,"byteOffset":0,"componentType":5126,"count":1301,"type":"VEC2"},{"bufferView":19,"byteOffset":0,"componentType":5123,"count":3081,"type":"SCALAR"},{"bufferView":20,"byteOffset":0,"componentType":5126,"count":726,"max":[0.2359529286623,0.591350257396698,0.173941150307655],"min":[-0.23900701105595,-0.0000596987993,-0.17791946232319],"type":"VEC3"},{"bufferView":21,"byteOffset":0,"componentType":5126,"count":726,"type":"VEC3"},{"bufferView":22,"byteOffset":0,"componentType":5126,"count":726,"type":"VEC4"},{"bufferView":23,"byteOffset":0,"componentType":5126,"count":726,"type":"VEC2"},{"bufferView":24,"byteOffset":0,"componentType":5126,"count":726,"type":"VEC2"},{"bufferView":25,"byteOffset":0,"componentType":5123,"count":330,"type":"SCALAR"},{"bufferView":26,"byteOffset":0,"componentType":5126,"count":310,"max":[0.243686378002167,0.600297331809998,0.186479166150093],"min":[-0.24803142249584,0.00086984905647113,-0.18529362976551],"type":"VEC3"},{"bufferView":27,"byteOffset":0,"componentType":5126,"count":310,"type":"VEC3"},{"bufferView":28,"byteOffset":0,"componentType":5126,"count":310,"type":"VEC2"},{"bufferView":29,"byteOffset":0,"componentType":5126,"count":310,"type":"VEC2"}],"animations":[{"channels":[],"name":"Unreal Take","samplers":[]}],"asset":{"generator":"FBX2glTF v0.13.0","version":"2.0"},"bufferViews":[{"buffer":0,"byteLength":4,"byteOffset":0},{"buffer":0,"byteLength":24630,"byteOffset":4,"target":34963},{"buffer":0,"byteLength":29052,"byteOffset":24636,"target":34962},{"buffer":0,"byteLength":29052,"byteOffset":53688,"target":34962},{"buffer":0,"byteLength":38736,"byteOffset":82740,"target":34962},{"buffer":0,"byteLength":19368,"byteOffset":121476,"target":34962},{"buffer":0,"byteLength":19368,"byteOffset":140844,"target":34962},{"buffer":0,"byteLength":18474,"byteOffset":160212,"target":34963},{"buffer":0,"byteLength":22476,"byteOffset":178688,"target":34962},{"buffer":0,"byteLength":22476,"byteOffset":201164,"target":34962},{"buffer":0,"byteLength":29968,"byteOffset":223640,"target":34962},{"buffer":0,"byteLength":14984,"byteOffset":253608,"target":34962},{"buffer":0,"byteLength":14984,"byteOffset":268592,"target":34962},{"buffer":0,"byteLength":12318,"byteOffset":283576,"target":34963},{"buffer":0,"byteLength":15612,"byteOffset":295896,"target":34962},{"buffer":0,"byteLength":15612,"byteOffset":311508,"target":34962},{"buffer":0,"byteLength":20816,"byteOffset":327120,"target":34962},{"buffer":0,"byteLength":10408,"byteOffset":347936,"target":34962},{"buffer":0,"byteLength":10408,"byteOffset":358344,"target":34962},{"buffer":0,"byteLength":6162,"byteOffset":368752,"target":34963},{"buffer":0,"byteLength":8712,"byteOffset":374916,"target":34962},{"buffer":0,"byteLength":8712,"byteOffset":383628,"target":34962},{"buffer":0,"byteLength":11616,"byteOffset":392340,"target":34962},{"buffer":0,"byteLength":5808,"byteOffset":403956,"target":34962},{"buffer":0,"byteLength":5808,"byteOffset":409764,"target":34962},{"buffer":0,"byteLength":660,"byteOffset":415572,"target":34963},{"buffer":0,"byteLength":3720,"byteOffset":416232,"target":34962},{"buffer":0,"byteLength":3720,"byteOffset":419952,"target":34962},{"buffer":0,"byteLength":2480,"byteOffset":423672,"target":34962},{"buffer":0,"byteLength":2480,"byteOffset":426152,"target":34962}],"buffers":[{"byteLength":428632,"uri":"SM_Trash_Can.bin"}],"images":[{"name":"FlatNormal","uri":"FlatNormal.tga"}],"materials":[{"alphaMode":"OPAQUE","doubleSided":false,"extras":{"fromFBX":{"isTruePBR":false,"shadingModel":"Phong"}},"name":"MI_Trash_Can","normalTexture":{"index":0,"texCoord":0},"pbrMetallicRoughness":{"baseColorFactor":[0.21586050093174,0.21586050093174,0.21586050093174,1],"metallicFactor":0.400000005960464,"roughnessFactor":0.301511347293854}},{"alphaMode":"OPAQUE","doubleSided":false,"extras":{"fromFBX":{"isTruePBR":false,"shadingModel":"Lambert"}},"name":"DefaultMaterial","pbrMetallicRoughness":{"baseColorFactor":[0.5,0.5,0.5,1],"metallicFactor":0.200000002980232,"roughnessFactor":0.800000011920929}}],"meshes":[{"name":"SM_Trash_Can_LOD0","primitives":[{"attributes":{"NORMAL":3,"POSITION":2,"TANGENT":4,"TEXCOORD_0":5,"TEXCOORD_1":6},"indices":1,"material":0,"mode":4}]},{"name":"SM_Trash_Can_LOD1","primitives":[{"attributes":{"NORMAL":9,"POSITION":8,"TANGENT":10,"TEXCOORD_0":11,"TEXCOORD_1":12},"indices":7,"material":0,"mode":4}]},{"name":"SM_Trash_Can_LOD2","primitives":[{"attributes":{"NORMAL":15,"POSITION":14,"TANGENT":16,"TEXCOORD_0":17,"TEXCOORD_1":18},"indices":13,"material":0,"mode":4}]},{"name":"SM_Trash_Can_LOD3","primitives":[{"attributes":{"NORMAL":21,"POSITION":20,"TANGENT":22,"TEXCOORD_0":23,"TEXCOORD_1":24},"indices":19,"material":0,"mode":4}]},{"name":"SM_Trash_Can_ConvexHulls","primitives":[{"attributes":{"NORMAL":27,"POSITION":26,"TEXCOORD_0":28,"TEXCOORD_1":29},"indices":25,"material":1,"mode":4}]}],"nodes":[{"children":[1,2,3,4,5],"name":"SM_Trash_Can_189","originalUnits":0.00999999977648258,"pivot":[0,0,0],"rotation":[0,0,0,1],"scale":[1,1,1],"translation":[0,0,0]},{"mesh":0,"name":"SM_Trash_Can_LOD0","originalUnits":0.00999999977648258,"pivot":[0,0,0],"rotation":[0,0,0,1],"scale":[1,1,1],"translation":[0,0,0]},{"mesh":4,"name":"SM_Trash_Can_ConvexHulls","originalUnits":0.00999999977648258,"pivot":[0,0,0],"rotation":[0,0,0,1],"scale":[1,1,1],"translation":[0,0,0]},{"mesh":1,"name":"SM_Trash_Can_LOD1","originalUnits":0.00999999977648258,"pivot":[0,0,0],"rotation":[0,0,0,1],"scale":[1,1,1],"translation":[0,0,0]},{"mesh":2,"name":"SM_Trash_Can_LOD2","originalUnits":0.00999999977648258,"pivot":[0,0,0],"rotation":[0,0,0,1],"scale":[1,1,1],"translation":[0,0,0]},{"mesh":3,"name":"SM_Trash_Can_LOD3","originalUnits":0.00999999977648258,"pivot":[0,0,0],"rotation":[0,0,0,1],"scale":[1,1,1],"translation":[0,0,0]}],"samplers":[{}],"scene":0,"scenes":[{"name":"Root Scene","nodes":[0]}],"textures":[{"name":"T_Default_N","sampler":0,"source":0}]}