{"accessors":[{"bufferView":0,"byteOffset":0,"componentType":5126,"count":1,"max":[0],"min":[0],"type":"SCALAR"},{"bufferView":1,"byteOffset":0,"componentType":5123,"count":2562,"type":"SCALAR"},{"bufferView":2,"byteOffset":0,"componentType":5126,"count":668,"max":[0.635721147060394,1.49970352649689,0.511153936386108],"min":[-0.63572132587433,0.00496807834133506,-0.51115393638611],"type":"VEC3"},{"bufferView":3,"byteOffset":0,"componentType":5126,"count":668,"type":"VEC3"},{"bufferView":4,"byteOffset":0,"componentType":5126,"count":668,"type":"VEC4"},{"bufferView":5,"byteOffset":0,"componentType":5126,"count":668,"type":"VEC2"},{"bufferView":6,"byteOffset":0,"componentType":5126,"count":668,"type":"VEC2"},{"bufferView":7,"byteOffset":0,"componentType":5123,"count":1920,"type":"SCALAR"},{"bufferView":8,"byteOffset":0,"componentType":5126,"count":555,"max":[0.635721147060394,1.49970352649689,0.511153936386108],"min":[-0.63572132587433,0.00496807834133506,-0.51115393638611],"type":"VEC3"},{"bufferView":9,"byteOffset":0,"componentType":5126,"count":555,"type":"VEC3"},{"bufferView":10,"byteOffset":0,"componentType":5126,"count":555,"type":"VEC4"},{"bufferView":11,"byteOffset":0,"componentType":5126,"count":555,"type":"VEC2"},{"bufferView":12,"byteOffset":0,"componentType":5126,"count":555,"type":"VEC2"},{"bufferView":13,"byteOffset":0,"componentType":5123,"count":1278,"type":"SCALAR"},{"bufferView":14,"byteOffset":0,"componentType":5126,"count":434,"max":[0.635721147060394,1.49970352649689,0.511153936386108],"min":[-0.63815528154373,0.00496807834133506,-0.51115393638611],"type":"VEC3"},{"bufferView":15,"byteOffset":0,"componentType":5126,"count":434,"type":"VEC3"},{"bufferView":16,"byteOffset":0,"componentType":5126,"count":434,"type":"VEC4"},{"bufferView":17,"byteOffset":0,"componentType":5126,"count":434,"type":"VEC2"},{"bufferView":18,"byteOffset":0,"componentType":5126,"count":434,"type":"VEC2"},{"bufferView":19,"byteOffset":0,"componentType":5123,"count":642,"type":"SCALAR"},{"bufferView":20,"byteOffset":0,"componentType":5126,"count":285,"max":[0.635721147060394,1.49970352649689,0.511153936386108],"min":[-0.6475487947464,0.00496807834133506,-0.51115393638611],"type":"VEC3"},{"bufferView":21,"byteOffset":0,"componentType":5126,"count":285,"type":"VEC3"},{"bufferView":22,"byteOffset":0,"componentType":5126,"count":285,"type":"VEC4"},{"bufferView":23,"byteOffset":0,"componentType":5126,"count":285,"type":"VEC2"},{"bufferView":24,"byteOffset":0,"componentType":5126,"count":285,"type":"VEC2"},{"bufferView":25,"byteOffset":0,"componentType":5123,"count":420,"type":"SCALAR"},{"bufferView":26,"byteOffset":0,"componentType":5126,"count":394,"max":[0.637018501758575,1.49904608726501,0.502591490745544],"min":[-0.6181361079216,0.0049681649543345,-0.50450390577316],"type":"VEC3"},{"bufferView":27,"byteOffset":0,"componentType":5126,"count":394,"type":"VEC3"},{"bufferView":28,"byteOffset":0,"componentType":5126,"count":394,"type":"VEC2"},{"bufferView":29,"byteOffset":0,"componentType":5126,"count":394,"type":"VEC2"}],"animations":[{"channels":[],"name":"Unreal Take","samplers":[]}],"asset":{"generator":"FBX2glTF v0.13.0","version":"2.0"},"bufferViews":[{"buffer":0,"byteLength":4,"byteOffset":0},{"buffer":0,"byteLength":5124,"byteOffset":4,"target":34963},{"buffer":0,"byteLength":8016,"byteOffset":5128,"target":34962},{"buffer":0,"byteLength":8016,"byteOffset":13144,"target":34962},{"buffer":0,"byteLength":10688,"byteOffset":21160,"target":34962},{"buffer":0,"byteLength":5344,"byteOffset":31848,"target":34962},{"buffer":0,"byteLength":5344,"byteOffset":37192,"target":34962},{"buffer":0,"byteLength":3840,"byteOffset":42536,"target":34963},{"buffer":0,"byteLength":6660,"byteOffset":46376,"target":34962},{"buffer":0,"byteLength":6660,"byteOffset":53036,"target":34962},{"buffer":0,"byteLength":8880,"byteOffset":59696,"target":34962},{"buffer":0,"byteLength":4440,"byteOffset":68576,"target":34962},{"buffer":0,"byteLength":4440,"byteOffset":73016,"target":34962},{"buffer":0,"byteLength":2556,"byteOffset":77456,"target":34963},{"buffer":0,"byteLength":5208,"byteOffset":80012,"target":34962},{"buffer":0,"byteLength":5208,"byteOffset":85220,"target":34962},{"buffer":0,"byteLength":6944,"byteOffset":90428,"target":34962},{"buffer":0,"byteLength":3472,"byteOffset":97372,"target":34962},{"buffer":0,"byteLength":3472,"byteOffset":100844,"target":34962},{"buffer":0,"byteLength":1284,"byteOffset":104316,"target":34963},{"buffer":0,"byteLength":3420,"byteOffset":105600,"target":34962},{"buffer":0,"byteLength":3420,"byteOffset":109020,"target":34962},{"buffer":0,"byteLength":4560,"byteOffset":112440,"target":34962},{"buffer":0,"byteLength":2280,"byteOffset":117000,"target":34962},{"buffer":0,"byteLength":2280,"byteOffset":119280,"target":34962},{"buffer":0,"byteLength":840,"byteOffset":121560,"target":34963},{"buffer":0,"byteLength":4728,"byteOffset":122400,"target":34962},{"buffer":0,"byteLength":4728,"byteOffset":127128,"target":34962},{"buffer":0,"byteLength":3152,"byteOffset":131856,"target":34962},{"buffer":0,"byteLength":3152,"byteOffset":135008,"target":34962}],"buffers":[{"byteLength":138160,"uri":"SM_Toilet.bin"}],"images":[{"name":"T_ToiletParts_N","uri":"T_ToiletParts_N.png"}],"materials":[{"alphaMode":"OPAQUE","doubleSided":false,"extras":{"fromFBX":{"isTruePBR":false,"shadingModel":"Phong"}},"name":"MI_ToiletParts","normalTexture":{"index":0,"texCoord":0},"pbrMetallicRoughness":{"baseColorFactor":[0.21586050093174,0.21586050093174,0.21586050093174,1],"metallicFactor":0.400000005960464,"roughnessFactor":0.301511347293854}},{"alphaMode":"OPAQUE","doubleSided":false,"extras":{"fromFBX":{"isTruePBR":false,"shadingModel":"Lambert"}},"name":"DefaultMaterial","pbrMetallicRoughness":{"baseColorFactor":[0.5,0.5,0.5,1],"metallicFactor":0.200000002980232,"roughnessFactor":0.800000011920929}}],"meshes":[{"name":"SM_Toilet_LOD0","primitives":[{"attributes":{"NORMAL":3,"POSITION":2,"TANGENT":4,"TEXCOORD_0":5,"TEXCOORD_1":6},"indices":1,"material":0,"mode":4}]},{"name":"SM_Toilet_LOD1","primitives":[{"attributes":{"NORMAL":9,"POSITION":8,"TANGENT":10,"TEXCOORD_0":11,"TEXCOORD_1":12},"indices":7,"material":0,"mode":4}]},{"name":"SM_Toilet_LOD2","primitives":[{"attributes":{"NORMAL":15,"POSITION":14,"TANGENT":16,"TEXCOORD_0":17,"TEXCOORD_1":18},"indices":13,"material":0,"mode":4}]},{"name":"SM_Toilet_LOD3","primitives":[{"attributes":{"NORMAL":21,"POSITION":20,"TANGENT":22,"TEXCOORD_0":23,"TEXCOORD_1":24},"indices":19,"material":0,"mode":4}]},{"name":"SM_Toilet_ConvexHulls","primitives":[{"attributes":{"NORMAL":27,"POSITION":26,"TEXCOORD_0":28,"TEXCOORD_1":29},"indices":25,"material":1,"mode":4}]}],"nodes":[{"children":[1,2,3,4,5],"name":"Toilet_29","originalUnits":0.00999999977648258,"pivot":[0,0,0],"rotation":[0,0,0,1],"scale":[1,1,1],"translation":[0,0,0]},{"mesh":0,"name":"SM_Toilet_LOD0","originalUnits":0.00999999977648258,"pivot":[0,0,0],"rotation":[0,0,0,1],"scale":[1,1,1],"translation":[0,0,0]},{"mesh":4,"name":"SM_Toilet_ConvexHulls","originalUnits":0.00999999977648258,"pivot":[0,0,0],"rotation":[0,0,0,1],"scale":[1,1,1],"translation":[0,0,0]},{"mesh":1,"name":"SM_Toilet_LOD1","originalUnits":0.00999999977648258,"pivot":[0,0,0],"rotation":[0,0,0,1],"scale":[1,1,1],"translation":[0,0,0]},{"mesh":2,"name":"SM_Toilet_LOD2","originalUnits":0.00999999977648258,"pivot":[0,0,0],"rotation":[0,0,0,1],"scale":[1,1,1],"translation":[0,0,0]},{"mesh":3,"name":"SM_Toilet_LOD3","originalUnits":0.00999999977648258,"pivot":[0,0,0],"rotation":[0,0,0,1],"scale":[1,1,1],"translation":[0,0,0]}],"samplers":[{}],"scene":0,"scenes":[{"name":"Root Scene","nodes":[0]}],"textures":[{"name":"T_ToiletParts_N","sampler":0,"source":0}]}