{"accessors":[{"bufferView":0,"byteOffset":0,"componentType":5126,"count":1,"max":[0],"min":[0],"type":"SCALAR"},{"bufferView":1,"byteOffset":0,"componentType":5123,"count":5520,"type":"SCALAR"},{"bufferView":2,"byteOffset":0,"componentType":5126,"count":1130,"max":[0.0804174616932869,0.169695988297462,0.0798449367284775],"min":[-0.08041746169329,0.00080016138963401,-0.07984495162964],"type":"VEC3"},{"bufferView":3,"byteOffset":0,"componentType":5126,"count":1130,"type":"VEC3"},{"bufferView":4,"byteOffset":0,"componentType":5126,"count":1130,"type":"VEC4"},{"bufferView":5,"byteOffset":0,"componentType":5126,"count":1130,"type":"VEC2"},{"bufferView":6,"byteOffset":0,"componentType":5126,"count":1130,"type":"VEC2"},{"bufferView":7,"byteOffset":0,"componentType":5123,"count":4137,"type":"SCALAR"},{"bufferView":8,"byteOffset":0,"componentType":5126,"count":890,"max":[0.0804174616932869,0.169695988297462,0.0798449367284775],"min":[-0.08041746169329,0.00080016138963401,-0.07984495162964],"type":"VEC3"},{"bufferView":9,"byteOffset":0,"componentType":5126,"count":890,"type":"VEC3"},{"bufferView":10,"byteOffset":0,"componentType":5126,"count":890,"type":"VEC4"},{"bufferView":11,"byteOffset":0,"componentType":5126,"count":890,"type":"VEC2"},{"bufferView":12,"byteOffset":0,"componentType":5126,"count":890,"type":"VEC2"},{"bufferView":13,"byteOffset":0,"componentType":5123,"count":2757,"type":"SCALAR"},{"bufferView":14,"byteOffset":0,"componentType":5126,"count":643,"max":[0.0804174616932869,0.169695988297462,0.0798449367284775],"min":[-0.08041746169329,0.00080016138963401,-0.07984495162964],"type":"VEC3"},{"bufferView":15,"byteOffset":0,"componentType":5126,"count":643,"type":"VEC3"},{"bufferView":16,"byteOffset":0,"componentType":5126,"count":643,"type":"VEC4"},{"bufferView":17,"byteOffset":0,"componentType":5126,"count":643,"type":"VEC2"},{"bufferView":18,"byteOffset":0,"componentType":5126,"count":643,"type":"VEC2"},{"bufferView":19,"byteOffset":0,"componentType":5123,"count":1380,"type":"SCALAR"},{"bufferView":20,"byteOffset":0,"componentType":5126,"count":371,"max":[0.0804174616932869,0.170232430100441,0.0798449367284775],"min":[-0.08041746169329,0.00080016138963401,-0.07984495162964],"type":"VEC3"},{"bufferView":21,"byteOffset":0,"componentType":5126,"count":371,"type":"VEC3"},{"bufferView":22,"byteOffset":0,"componentType":5126,"count":371,"type":"VEC4"},{"bufferView":23,"byteOffset":0,"componentType":5126,"count":371,"type":"VEC2"},{"bufferView":24,"byteOffset":0,"componentType":5126,"count":371,"type":"VEC2"},{"bufferView":25,"byteOffset":0,"componentType":5123,"count":84,"type":"SCALAR"},{"bufferView":26,"byteOffset":0,"componentType":5126,"count":84,"max":[0.0789904072880745,0.171406909823418,0.077951543033123],"min":[-0.07866504043341,0.00141182832885534,-0.07846879959106],"type":"VEC3"},{"bufferView":27,"byteOffset":0,"componentType":5126,"count":84,"type":"VEC3"},{"bufferView":28,"byteOffset":0,"componentType":5126,"count":84,"type":"VEC2"},{"bufferView":29,"byteOffset":0,"componentType":5126,"count":84,"type":"VEC2"}],"animations":[{"channels":[],"name":"Unreal Take","samplers":[]}],"asset":{"generator":"FBX2glTF v0.13.0","version":"2.0"},"bufferViews":[{"buffer":0,"byteLength":4,"byteOffset":0},{"buffer":0,"byteLength":11040,"byteOffset":4,"target":34963},{"buffer":0,"byteLength":13560,"byteOffset":11044,"target":34962},{"buffer":0,"byteLength":13560,"byteOffset":24604,"target":34962},{"buffer":0,"byteLength":18080,"byteOffset":38164,"target":34962},{"buffer":0,"byteLength":9040,"byteOffset":56244,"target":34962},{"buffer":0,"byteLength":9040,"byteOffset":65284,"target":34962},{"buffer":0,"byteLength":8274,"byteOffset":74324,"target":34963},{"buffer":0,"byteLength":10680,"byteOffset":82600,"target":34962},{"buffer":0,"byteLength":10680,"byteOffset":93280,"target":34962},{"buffer":0,"byteLength":14240,"byteOffset":103960,"target":34962},{"buffer":0,"byteLength":7120,"byteOffset":118200,"target":34962},{"buffer":0,"byteLength":7120,"byteOffset":125320,"target":34962},{"buffer":0,"byteLength":5514,"byteOffset":132440,"target":34963},{"buffer":0,"byteLength":7716,"byteOffset":137956,"target":34962},{"buffer":0,"byteLength":7716,"byteOffset":145672,"target":34962},{"buffer":0,"byteLength":10288,"byteOffset":153388,"target":34962},{"buffer":0,"byteLength":5144,"byteOffset":163676,"target":34962},{"buffer":0,"byteLength":5144,"byteOffset":168820,"target":34962},{"buffer":0,"byteLength":2760,"byteOffset":173964,"target":34963},{"buffer":0,"byteLength":4452,"byteOffset":176724,"target":34962},{"buffer":0,"byteLength":4452,"byteOffset":181176,"target":34962},{"buffer":0,"byteLength":5936,"byteOffset":185628,"target":34962},{"buffer":0,"byteLength":2968,"byteOffset":191564,"target":34962},{"buffer":0,"byteLength":2968,"byteOffset":194532,"target":34962},{"buffer":0,"byteLength":168,"byteOffset":197500,"target":34963},{"buffer":0,"byteLength":1008,"byteOffset":197668,"target":34962},{"buffer":0,"byteLength":1008,"byteOffset":198676,"target":34962},{"buffer":0,"byteLength":672,"byteOffset":199684,"target":34962},{"buffer":0,"byteLength":672,"byteOffset":200356,"target":34962}],"buffers":[{"byteLength":201028,"uri":"SM_Timer.bin"}],"images":[{"name":"FlatNormal","uri":"FlatNormal.tga"}],"materials":[{"alphaMode":"OPAQUE","doubleSided":false,"extras":{"fromFBX":{"isTruePBR":false,"shadingModel":"Phong"}},"name":"MI_Kitchen_Props_A","normalTexture":{"index":0,"texCoord":0},"pbrMetallicRoughness":{"baseColorFactor":[0.21586050093174,0.21586050093174,0.21586050093174,1],"metallicFactor":0.400000005960464,"roughnessFactor":0.301511347293854}},{"alphaMode":"OPAQUE","doubleSided":false,"extras":{"fromFBX":{"isTruePBR":false,"shadingModel":"Lambert"}},"name":"DefaultMaterial","pbrMetallicRoughness":{"baseColorFactor":[0.5,0.5,0.5,1],"metallicFactor":0.200000002980232,"roughnessFactor":0.800000011920929}}],"meshes":[{"name":"SM_Timer_LOD0","primitives":[{"attributes":{"NORMAL":3,"POSITION":2,"TANGENT":4,"TEXCOORD_0":5,"TEXCOORD_1":6},"indices":1,"material":0,"mode":4}]},{"name":"SM_Timer_LOD1","primitives":[{"attributes":{"NORMAL":9,"POSITION":8,"TANGENT":10,"TEXCOORD_0":11,"TEXCOORD_1":12},"indices":7,"material":0,"mode":4}]},{"name":"SM_Timer_LOD2","primitives":[{"attributes":{"NORMAL":15,"POSITION":14,"TANGENT":16,"TEXCOORD_0":17,"TEXCOORD_1":18},"indices":13,"material":0,"mode":4}]},{"name":"SM_Timer_LOD3","primitives":[{"attributes":{"NORMAL":21,"POSITION":20,"TANGENT":22,"TEXCOORD_0":23,"TEXCOORD_1":24},"indices":19,"material":0,"mode":4}]},{"name":"SM_Timer_ConvexHulls","primitives":[{"attributes":{"NORMAL":27,"POSITION":26,"TEXCOORD_0":28,"TEXCOORD_1":29},"indices":25,"material":1,"mode":4}]}],"nodes":[{"children":[1,2,3,4,5],"name":"SM_Timer_186","originalUnits":0.00999999977648258,"pivot":[0,0,0],"rotation":[0,0,0,1],"scale":[1,1,1],"translation":[0,0,0]},{"mesh":0,"name":"SM_Timer_LOD0","originalUnits":0.00999999977648258,"pivot":[0,0,0],"rotation":[0,0,0,1],"scale":[1,1,1],"translation":[0,0,0]},{"mesh":4,"name":"SM_Timer_ConvexHulls","originalUnits":0.00999999977648258,"pivot":[0,0,0],"rotation":[0,0,0,1],"scale":[1,1,1],"translation":[0,0,0]},{"mesh":1,"name":"SM_Timer_LOD1","originalUnits":0.00999999977648258,"pivot":[0,0,0],"rotation":[0,0,0,1],"scale":[1,1,1],"translation":[0,0,0]},{"mesh":2,"name":"SM_Timer_LOD2","originalUnits":0.00999999977648258,"pivot":[0,0,0],"rotation":[0,0,0,1],"scale":[1,1,1],"translation":[0,0,0]},{"mesh":3,"name":"SM_Timer_LOD3","originalUnits":0.00999999977648258,"pivot":[0,0,0],"rotation":[0,0,0,1],"scale":[1,1,1],"translation":[0,0,0]}],"samplers":[{}],"scene":0,"scenes":[{"name":"Root Scene","nodes":[0]}],"textures":[{"name":"T_Default_N","sampler":0,"source":0}]}