{"accessors":[{"bufferView":0,"byteOffset":0,"componentType":5126,"count":1,"max":[0],"min":[0],"type":"SCALAR"},{"bufferView":1,"byteOffset":0,"componentType":5123,"count":612,"type":"SCALAR"},{"bufferView":2,"byteOffset":0,"componentType":5126,"count":210,"max":[0.269555062055588,0.48396098613739,0.388599127531052],"min":[-0.26959019899368,-0.00197275704704,-0.38875734806061],"type":"VEC3"},{"bufferView":3,"byteOffset":0,"componentType":5126,"count":210,"type":"VEC3"},{"bufferView":4,"byteOffset":0,"componentType":5126,"count":210,"type":"VEC4"},{"bufferView":5,"byteOffset":0,"componentType":5126,"count":210,"type":"VEC2"},{"bufferView":6,"byteOffset":0,"componentType":5126,"count":210,"type":"VEC2"},{"bufferView":7,"byteOffset":0,"componentType":5123,"count":459,"type":"SCALAR"},{"bufferView":8,"byteOffset":0,"componentType":5126,"count":159,"max":[0.269555062055588,0.48396098613739,0.388599127531052],"min":[-0.26959019899368,-0.00220560329035,-0.38875734806061],"type":"VEC3"},{"bufferView":9,"byteOffset":0,"componentType":5126,"count":159,"type":"VEC3"},{"bufferView":10,"byteOffset":0,"componentType":5126,"count":159,"type":"VEC4"},{"bufferView":11,"byteOffset":0,"componentType":5126,"count":159,"type":"VEC2"},{"bufferView":12,"byteOffset":0,"componentType":5126,"count":159,"type":"VEC2"},{"bufferView":13,"byteOffset":0,"componentType":5123,"count":306,"type":"SCALAR"},{"bufferView":14,"byteOffset":0,"componentType":5126,"count":108,"max":[0.269555062055588,0.48396098613739,0.388599127531052],"min":[-0.26959019899368,-0.00280747516081,-0.38875734806061],"type":"VEC3"},{"bufferView":15,"byteOffset":0,"componentType":5126,"count":108,"type":"VEC3"},{"bufferView":16,"byteOffset":0,"componentType":5126,"count":108,"type":"VEC4"},{"bufferView":17,"byteOffset":0,"componentType":5126,"count":108,"type":"VEC2"},{"bufferView":18,"byteOffset":0,"componentType":5126,"count":108,"type":"VEC2"},{"bufferView":19,"byteOffset":0,"componentType":5123,"count":153,"type":"SCALAR"},{"bufferView":20,"byteOffset":0,"componentType":5126,"count":65,"max":[0.269847720861435,0.48396098613739,0.388785004615784],"min":[-0.26990377902985,-0.00485558155924,-0.3889377117157],"type":"VEC3"},{"bufferView":21,"byteOffset":0,"componentType":5126,"count":65,"type":"VEC3"},{"bufferView":22,"byteOffset":0,"componentType":5126,"count":65,"type":"VEC4"},{"bufferView":23,"byteOffset":0,"componentType":5126,"count":65,"type":"VEC2"},{"bufferView":24,"byteOffset":0,"componentType":5126,"count":65,"type":"VEC2"},{"bufferView":25,"byteOffset":0,"componentType":5123,"count":210,"type":"SCALAR"},{"bufferView":26,"byteOffset":0,"componentType":5126,"count":194,"max":[0.272824883460999,0.490596354007721,0.39211517572403],"min":[-0.27225577831268,-0.0057286452502,-0.39213848114014],"type":"VEC3"},{"bufferView":27,"byteOffset":0,"componentType":5126,"count":194,"type":"VEC3"},{"bufferView":28,"byteOffset":0,"componentType":5126,"count":194,"type":"VEC2"},{"bufferView":29,"byteOffset":0,"componentType":5126,"count":194,"type":"VEC2"}],"animations":[{"channels":[],"name":"Unreal Take","samplers":[]}],"asset":{"generator":"FBX2glTF v0.13.0","version":"2.0"},"bufferViews":[{"buffer":0,"byteLength":4,"byteOffset":0},{"buffer":0,"byteLength":1224,"byteOffset":4,"target":34963},{"buffer":0,"byteLength":2520,"byteOffset":1228,"target":34962},{"buffer":0,"byteLength":2520,"byteOffset":3748,"target":34962},{"buffer":0,"byteLength":3360,"byteOffset":6268,"target":34962},{"buffer":0,"byteLength":1680,"byteOffset":9628,"target":34962},{"buffer":0,"byteLength":1680,"byteOffset":11308,"target":34962},{"buffer":0,"byteLength":918,"byteOffset":12988,"target":34963},{"buffer":0,"byteLength":1908,"byteOffset":13908,"target":34962},{"buffer":0,"byteLength":1908,"byteOffset":15816,"target":34962},{"buffer":0,"byteLength":2544,"byteOffset":17724,"target":34962},{"buffer":0,"byteLength":1272,"byteOffset":20268,"target":34962},{"buffer":0,"byteLength":1272,"byteOffset":21540,"target":34962},{"buffer":0,"byteLength":612,"byteOffset":22812,"target":34963},{"buffer":0,"byteLength":1296,"byteOffset":23424,"target":34962},{"buffer":0,"byteLength":1296,"byteOffset":24720,"target":34962},{"buffer":0,"byteLength":1728,"byteOffset":26016,"target":34962},{"buffer":0,"byteLength":864,"byteOffset":27744,"target":34962},{"buffer":0,"byteLength":864,"byteOffset":28608,"target":34962},{"buffer":0,"byteLength":306,"byteOffset":29472,"target":34963},{"buffer":0,"byteLength":780,"byteOffset":29780,"target":34962},{"buffer":0,"byteLength":780,"byteOffset":30560,"target":34962},{"buffer":0,"byteLength":1040,"byteOffset":31340,"target":34962},{"buffer":0,"byteLength":520,"byteOffset":32380,"target":34962},{"buffer":0,"byteLength":520,"byteOffset":32900,"target":34962},{"buffer":0,"byteLength":420,"byteOffset":33420,"target":34963},{"buffer":0,"byteLength":2328,"byteOffset":33840,"target":34962},{"buffer":0,"byteLength":2328,"byteOffset":36168,"target":34962},{"buffer":0,"byteLength":1552,"byteOffset":38496,"target":34962},{"buffer":0,"byteLength":1552,"byteOffset":40048,"target":34962}],"buffers":[{"byteLength":41600,"uri":"SM_TableMin.bin"}],"images":[{"name":"T_TVSet_N","uri":"T_TVSet_N.tga"}],"materials":[{"alphaMode":"OPAQUE","doubleSided":false,"extras":{"fromFBX":{"isTruePBR":false,"shadingModel":"Phong"}},"name":"MI_TV","normalTexture":{"index":0,"texCoord":0},"pbrMetallicRoughness":{"baseColorFactor":[0.21586050093174,0.21586050093174,0.21586050093174,1],"metallicFactor":0.400000005960464,"roughnessFactor":0.301511347293854}},{"alphaMode":"OPAQUE","doubleSided":false,"extras":{"fromFBX":{"isTruePBR":false,"shadingModel":"Lambert"}},"name":"DefaultMaterial","pbrMetallicRoughness":{"baseColorFactor":[0.5,0.5,0.5,1],"metallicFactor":0.200000002980232,"roughnessFactor":0.800000011920929}}],"meshes":[{"name":"SM_TableMin_LOD0","primitives":[{"attributes":{"NORMAL":3,"POSITION":2,"TANGENT":4,"TEXCOORD_0":5,"TEXCOORD_1":6},"indices":1,"material":0,"mode":4}]},{"name":"SM_TableMin_LOD1","primitives":[{"attributes":{"NORMAL":9,"POSITION":8,"TANGENT":10,"TEXCOORD_0":11,"TEXCOORD_1":12},"indices":7,"material":0,"mode":4}]},{"name":"SM_TableMin_LOD2","primitives":[{"attributes":{"NORMAL":15,"POSITION":14,"TANGENT":16,"TEXCOORD_0":17,"TEXCOORD_1":18},"indices":13,"material":0,"mode":4}]},{"name":"SM_TableMin_LOD3","primitives":[{"attributes":{"NORMAL":21,"POSITION":20,"TANGENT":22,"TEXCOORD_0":23,"TEXCOORD_1":24},"indices":19,"material":0,"mode":4}]},{"name":"SM_TableMin_ConvexHulls","primitives":[{"attributes":{"NORMAL":27,"POSITION":26,"TEXCOORD_0":28,"TEXCOORD_1":29},"indices":25,"material":1,"mode":4}]}],"nodes":[{"children":[1,2,3,4,5],"name":"SM_TableMin_60","originalUnits":0.00999999977648258,"pivot":[0,0,0],"rotation":[0,0,0,1],"scale":[1,1,1],"translation":[0,0,0]},{"mesh":0,"name":"SM_TableMin_LOD0","originalUnits":0.00999999977648258,"pivot":[0,0,0],"rotation":[0,0,0,1],"scale":[1,1,1],"translation":[0,0,0]},{"mesh":4,"name":"SM_TableMin_ConvexHulls","originalUnits":0.00999999977648258,"pivot":[0,0,0],"rotation":[0,0,0,1],"scale":[1,1,1],"translation":[0,0,0]},{"mesh":1,"name":"SM_TableMin_LOD1","originalUnits":0.00999999977648258,"pivot":[0,0,0],"rotation":[0,0,0,1],"scale":[1,1,1],"translation":[0,0,0]},{"mesh":2,"name":"SM_TableMin_LOD2","originalUnits":0.00999999977648258,"pivot":[0,0,0],"rotation":[0,0,0,1],"scale":[1,1,1],"translation":[0,0,0]},{"mesh":3,"name":"SM_TableMin_LOD3","originalUnits":0.00999999977648258,"pivot":[0,0,0],"rotation":[0,0,0,1],"scale":[1,1,1],"translation":[0,0,0]}],"samplers":[{}],"scene":0,"scenes":[{"name":"Root Scene","nodes":[0]}],"textures":[{"name":"T_TVSet_N","sampler":0,"source":0}]}