{"accessors":[{"bufferView":0,"byteOffset":0,"componentType":5126,"count":1,"max":[0],"min":[0],"type":"SCALAR"},{"bufferView":1,"byteOffset":0,"componentType":5123,"count":10608,"type":"SCALAR"},{"bufferView":2,"byteOffset":0,"componentType":5126,"count":2864,"max":[0.301098257303238,0.866030931472778,0.306306183338165],"min":[-0.30109834671021,-0.00480630621314,-0.31847104430199],"type":"VEC3"},{"bufferView":3,"byteOffset":0,"componentType":5126,"count":2864,"type":"VEC3"},{"bufferView":4,"byteOffset":0,"componentType":5126,"count":2864,"type":"VEC4"},{"bufferView":5,"byteOffset":0,"componentType":5126,"count":2864,"type":"VEC2"},{"bufferView":6,"byteOffset":0,"componentType":5126,"count":2864,"type":"VEC2"},{"bufferView":7,"byteOffset":0,"componentType":5123,"count":7956,"type":"SCALAR"},{"bufferView":8,"byteOffset":0,"componentType":5126,"count":2362,"max":[0.30110576748848,0.866030931472778,0.30631297826767],"min":[-0.30109828710556,-0.00480630621314,-0.31847104430199],"type":"VEC3"},{"bufferView":9,"byteOffset":0,"componentType":5126,"count":2362,"type":"VEC3"},{"bufferView":10,"byteOffset":0,"componentType":5126,"count":2362,"type":"VEC4"},{"bufferView":11,"byteOffset":0,"componentType":5126,"count":2362,"type":"VEC2"},{"bufferView":12,"byteOffset":0,"componentType":5126,"count":2362,"type":"VEC2"},{"bufferView":13,"byteOffset":0,"componentType":5123,"count":5304,"type":"SCALAR"},{"bufferView":14,"byteOffset":0,"componentType":5126,"count":1813,"max":[0.30110576748848,0.866030931472778,0.30631297826767],"min":[-0.30111038684845,-0.00480630621314,-0.31845298409462],"type":"VEC3"},{"bufferView":15,"byteOffset":0,"componentType":5126,"count":1813,"type":"VEC3"},{"bufferView":16,"byteOffset":0,"componentType":5126,"count":1813,"type":"VEC4"},{"bufferView":17,"byteOffset":0,"componentType":5126,"count":1813,"type":"VEC2"},{"bufferView":18,"byteOffset":0,"componentType":5126,"count":1813,"type":"VEC2"},{"bufferView":19,"byteOffset":0,"componentType":5123,"count":2652,"type":"SCALAR"},{"bufferView":20,"byteOffset":0,"componentType":5126,"count":1082,"max":[0.301421999931335,0.866030931472778,0.306383430957794],"min":[-0.30149257183075,-0.0056126145646,-0.31845298409462],"type":"VEC3"},{"bufferView":21,"byteOffset":0,"componentType":5126,"count":1082,"type":"VEC3"},{"bufferView":22,"byteOffset":0,"componentType":5126,"count":1082,"type":"VEC4"},{"bufferView":23,"byteOffset":0,"componentType":5126,"count":1082,"type":"VEC2"},{"bufferView":24,"byteOffset":0,"componentType":5126,"count":1082,"type":"VEC2"},{"bufferView":25,"byteOffset":0,"componentType":5123,"count":306,"type":"SCALAR"},{"bufferView":26,"byteOffset":0,"componentType":5126,"count":302,"max":[0.300051778554916,0.866030931472778,0.315208435058594],"min":[-0.29797631502152,-0.01770481467247,-0.32810378074646],"type":"VEC3"},{"bufferView":27,"byteOffset":0,"componentType":5126,"count":302,"type":"VEC3"},{"bufferView":28,"byteOffset":0,"componentType":5126,"count":302,"type":"VEC2"},{"bufferView":29,"byteOffset":0,"componentType":5126,"count":302,"type":"VEC2"}],"animations":[{"channels":[],"name":"Unreal Take","samplers":[]}],"asset":{"generator":"FBX2glTF v0.13.0","version":"2.0"},"bufferViews":[{"buffer":0,"byteLength":4,"byteOffset":0},{"buffer":0,"byteLength":21216,"byteOffset":4,"target":34963},{"buffer":0,"byteLength":34368,"byteOffset":21220,"target":34962},{"buffer":0,"byteLength":34368,"byteOffset":55588,"target":34962},{"buffer":0,"byteLength":45824,"byteOffset":89956,"target":34962},{"buffer":0,"byteLength":22912,"byteOffset":135780,"target":34962},{"buffer":0,"byteLength":22912,"byteOffset":158692,"target":34962},{"buffer":0,"byteLength":15912,"byteOffset":181604,"target":34963},{"buffer":0,"byteLength":28344,"byteOffset":197516,"target":34962},{"buffer":0,"byteLength":28344,"byteOffset":225860,"target":34962},{"buffer":0,"byteLength":37792,"byteOffset":254204,"target":34962},{"buffer":0,"byteLength":18896,"byteOffset":291996,"target":34962},{"buffer":0,"byteLength":18896,"byteOffset":310892,"target":34962},{"buffer":0,"byteLength":10608,"byteOffset":329788,"target":34963},{"buffer":0,"byteLength":21756,"byteOffset":340396,"target":34962},{"buffer":0,"byteLength":21756,"byteOffset":362152,"target":34962},{"buffer":0,"byteLength":29008,"byteOffset":383908,"target":34962},{"buffer":0,"byteLength":14504,"byteOffset":412916,"target":34962},{"buffer":0,"byteLength":14504,"byteOffset":427420,"target":34962},{"buffer":0,"byteLength":5304,"byteOffset":441924,"target":34963},{"buffer":0,"byteLength":12984,"byteOffset":447228,"target":34962},{"buffer":0,"byteLength":12984,"byteOffset":460212,"target":34962},{"buffer":0,"byteLength":17312,"byteOffset":473196,"target":34962},{"buffer":0,"byteLength":8656,"byteOffset":490508,"target":34962},{"buffer":0,"byteLength":8656,"byteOffset":499164,"target":34962},{"buffer":0,"byteLength":612,"byteOffset":507820,"target":34963},{"buffer":0,"byteLength":3624,"byteOffset":508432,"target":34962},{"buffer":0,"byteLength":3624,"byteOffset":512056,"target":34962},{"buffer":0,"byteLength":2416,"byteOffset":515680,"target":34962},{"buffer":0,"byteLength":2416,"byteOffset":518096,"target":34962}],"buffers":[{"byteLength":520512,"uri":"SM_TableBasse_01.bin"}],"images":[{"name":"T_TableBasse_01_N","uri":"T_TableBasse_01_N.tga"}],"materials":[{"alphaMode":"OPAQUE","doubleSided":false,"extras":{"fromFBX":{"isTruePBR":false,"shadingModel":"Phong"}},"name":"MI_Table","normalTexture":{"index":0,"texCoord":0},"pbrMetallicRoughness":{"baseColorFactor":[0.21586050093174,0.21586050093174,0.21586050093174,1],"metallicFactor":0.400000005960464,"roughnessFactor":0.301511347293854}},{"alphaMode":"OPAQUE","doubleSided":false,"extras":{"fromFBX":{"isTruePBR":false,"shadingModel":"Lambert"}},"name":"DefaultMaterial","pbrMetallicRoughness":{"baseColorFactor":[0.5,0.5,0.5,1],"metallicFactor":0.200000002980232,"roughnessFactor":0.800000011920929}}],"meshes":[{"name":"SM_TableBasse_01_LOD0","primitives":[{"attributes":{"NORMAL":3,"POSITION":2,"TANGENT":4,"TEXCOORD_0":5,"TEXCOORD_1":6},"indices":1,"material":0,"mode":4}]},{"name":"SM_TableBasse_01_LOD1","primitives":[{"attributes":{"NORMAL":9,"POSITION":8,"TANGENT":10,"TEXCOORD_0":11,"TEXCOORD_1":12},"indices":7,"material":0,"mode":4}]},{"name":"SM_TableBasse_01_LOD2","primitives":[{"attributes":{"NORMAL":15,"POSITION":14,"TANGENT":16,"TEXCOORD_0":17,"TEXCOORD_1":18},"indices":13,"material":0,"mode":4}]},{"name":"SM_TableBasse_01_LOD3","primitives":[{"attributes":{"NORMAL":21,"POSITION":20,"TANGENT":22,"TEXCOORD_0":23,"TEXCOORD_1":24},"indices":19,"material":0,"mode":4}]},{"name":"SM_TableBasse_01_ConvexHulls","primitives":[{"attributes":{"NORMAL":27,"POSITION":26,"TEXCOORD_0":28,"TEXCOORD_1":29},"indices":25,"material":1,"mode":4}]}],"nodes":[{"children":[1,2,3,4,5],"name":"SM_TableBasse_143","originalUnits":0.00999999977648258,"pivot":[0,0,0],"rotation":[0,0,0,1],"scale":[1,1,1],"translation":[0,0,0]},{"mesh":0,"name":"SM_TableBasse_01_LOD0","originalUnits":0.00999999977648258,"pivot":[0,0,0],"rotation":[0,0,0,1],"scale":[1,1,1],"translation":[0,0,0]},{"mesh":4,"name":"SM_TableBasse_01_ConvexHulls","originalUnits":0.00999999977648258,"pivot":[0,0,0],"rotation":[0,0,0,1],"scale":[1,1,1],"translation":[0,0,0]},{"mesh":1,"name":"SM_TableBasse_01_LOD1","originalUnits":0.00999999977648258,"pivot":[0,0,0],"rotation":[0,0,0,1],"scale":[1,1,1],"translation":[0,0,0]},{"mesh":2,"name":"SM_TableBasse_01_LOD2","originalUnits":0.00999999977648258,"pivot":[0,0,0],"rotation":[0,0,0,1],"scale":[1,1,1],"translation":[0,0,0]},{"mesh":3,"name":"SM_TableBasse_01_LOD3","originalUnits":0.00999999977648258,"pivot":[0,0,0],"rotation":[0,0,0,1],"scale":[1,1,1],"translation":[0,0,0]}],"samplers":[{}],"scene":0,"scenes":[{"name":"Root Scene","nodes":[0]}],"textures":[{"name":"T_TableBasse_01_N","sampler":0,"source":0}]}