{"accessors":[{"bufferView":0,"byteOffset":0,"componentType":5126,"count":1,"max":[0],"min":[0],"type":"SCALAR"},{"bufferView":1,"byteOffset":0,"componentType":5123,"count":636,"type":"SCALAR"},{"bufferView":2,"byteOffset":0,"componentType":5126,"count":272,"max":[0.605040371417999,0.0885075107216835,0.108950704336166],"min":[-0.6050398349762,-0.08850737661123,-0.10895041376352],"type":"VEC3"},{"bufferView":3,"byteOffset":0,"componentType":5126,"count":272,"type":"VEC3"},{"bufferView":4,"byteOffset":0,"componentType":5126,"count":272,"type":"VEC4"},{"bufferView":5,"byteOffset":0,"componentType":5126,"count":272,"type":"VEC2"},{"bufferView":6,"byteOffset":0,"componentType":5126,"count":272,"type":"VEC2"},{"bufferView":7,"byteOffset":0,"componentType":5123,"count":474,"type":"SCALAR"},{"bufferView":8,"byteOffset":0,"componentType":5126,"count":226,"max":[0.605040371417999,0.0885075107216835,0.108950704336166],"min":[-0.6050398349762,-0.08850737661123,-0.10895041376352],"type":"VEC3"},{"bufferView":9,"byteOffset":0,"componentType":5126,"count":226,"type":"VEC3"},{"bufferView":10,"byteOffset":0,"componentType":5126,"count":226,"type":"VEC4"},{"bufferView":11,"byteOffset":0,"componentType":5126,"count":226,"type":"VEC2"},{"bufferView":12,"byteOffset":0,"componentType":5126,"count":226,"type":"VEC2"},{"bufferView":13,"byteOffset":0,"componentType":5123,"count":318,"type":"SCALAR"},{"bufferView":14,"byteOffset":0,"componentType":5126,"count":174,"max":[0.605577051639557,0.0889827311038971,0.10892952978611],"min":[-0.60557556152344,-0.08898354321718,-0.10895041376352],"type":"VEC3"},{"bufferView":15,"byteOffset":0,"componentType":5126,"count":174,"type":"VEC3"},{"bufferView":16,"byteOffset":0,"componentType":5126,"count":174,"type":"VEC4"},{"bufferView":17,"byteOffset":0,"componentType":5126,"count":174,"type":"VEC2"},{"bufferView":18,"byteOffset":0,"componentType":5126,"count":174,"type":"VEC2"},{"bufferView":19,"byteOffset":0,"componentType":5123,"count":156,"type":"SCALAR"},{"bufferView":20,"byteOffset":0,"componentType":5126,"count":104,"max":[0.605577051639557,0.0889827311038971,0.10892952978611],"min":[-0.60557556152344,-0.08898354321718,-0.10895041376352],"type":"VEC3"},{"bufferView":21,"byteOffset":0,"componentType":5126,"count":104,"type":"VEC3"},{"bufferView":22,"byteOffset":0,"componentType":5126,"count":104,"type":"VEC4"},{"bufferView":23,"byteOffset":0,"componentType":5126,"count":104,"type":"VEC2"},{"bufferView":24,"byteOffset":0,"componentType":5126,"count":104,"type":"VEC2"},{"bufferView":25,"byteOffset":0,"componentType":5123,"count":126,"type":"SCALAR"},{"bufferView":26,"byteOffset":0,"componentType":5126,"count":70,"max":[0.606145083904266,0.0899956002831459,0.109950713813305],"min":[-0.60624980926514,-0.08950737863779,-0.10995041579008],"type":"VEC3"},{"bufferView":27,"byteOffset":0,"componentType":5126,"count":70,"type":"VEC3"},{"bufferView":28,"byteOffset":0,"componentType":5126,"count":70,"type":"VEC2"},{"bufferView":29,"byteOffset":0,"componentType":5126,"count":70,"type":"VEC2"}],"animations":[{"channels":[],"name":"Unreal Take","samplers":[]}],"asset":{"generator":"FBX2glTF v0.13.0","version":"2.0"},"bufferViews":[{"buffer":0,"byteLength":4,"byteOffset":0},{"buffer":0,"byteLength":1272,"byteOffset":4,"target":34963},{"buffer":0,"byteLength":3264,"byteOffset":1276,"target":34962},{"buffer":0,"byteLength":3264,"byteOffset":4540,"target":34962},{"buffer":0,"byteLength":4352,"byteOffset":7804,"target":34962},{"buffer":0,"byteLength":2176,"byteOffset":12156,"target":34962},{"buffer":0,"byteLength":2176,"byteOffset":14332,"target":34962},{"buffer":0,"byteLength":948,"byteOffset":16508,"target":34963},{"buffer":0,"byteLength":2712,"byteOffset":17456,"target":34962},{"buffer":0,"byteLength":2712,"byteOffset":20168,"target":34962},{"buffer":0,"byteLength":3616,"byteOffset":22880,"target":34962},{"buffer":0,"byteLength":1808,"byteOffset":26496,"target":34962},{"buffer":0,"byteLength":1808,"byteOffset":28304,"target":34962},{"buffer":0,"byteLength":636,"byteOffset":30112,"target":34963},{"buffer":0,"byteLength":2088,"byteOffset":30748,"target":34962},{"buffer":0,"byteLength":2088,"byteOffset":32836,"target":34962},{"buffer":0,"byteLength":2784,"byteOffset":34924,"target":34962},{"buffer":0,"byteLength":1392,"byteOffset":37708,"target":34962},{"buffer":0,"byteLength":1392,"byteOffset":39100,"target":34962},{"buffer":0,"byteLength":312,"byteOffset":40492,"target":34963},{"buffer":0,"byteLength":1248,"byteOffset":40804,"target":34962},{"buffer":0,"byteLength":1248,"byteOffset":42052,"target":34962},{"buffer":0,"byteLength":1664,"byteOffset":43300,"target":34962},{"buffer":0,"byteLength":832,"byteOffset":44964,"target":34962},{"buffer":0,"byteLength":832,"byteOffset":45796,"target":34962},{"buffer":0,"byteLength":252,"byteOffset":46628,"target":34963},{"buffer":0,"byteLength":840,"byteOffset":46880,"target":34962},{"buffer":0,"byteLength":840,"byteOffset":47720,"target":34962},{"buffer":0,"byteLength":560,"byteOffset":48560,"target":34962},{"buffer":0,"byteLength":560,"byteOffset":49120,"target":34962}],"buffers":[{"byteLength":49680,"uri":"SM_Towel_Rack.bin"}],"images":[{"name":"T_Fill_N","uri":"T_Fill_N.png"}],"materials":[{"alphaMode":"OPAQUE","doubleSided":false,"extras":{"fromFBX":{"isTruePBR":false,"shadingModel":"Phong"}},"name":"MM_Base01","normalTexture":{"index":0,"texCoord":0},"pbrMetallicRoughness":{"baseColorFactor":[0.21586050093174,0.21586050093174,0.21586050093174,1],"metallicFactor":0.400000005960464,"roughnessFactor":0.301511347293854}},{"alphaMode":"OPAQUE","doubleSided":false,"extras":{"fromFBX":{"isTruePBR":false,"shadingModel":"Lambert"}},"name":"DefaultMaterial","pbrMetallicRoughness":{"baseColorFactor":[0.5,0.5,0.5,1],"metallicFactor":0.200000002980232,"roughnessFactor":0.800000011920929}}],"meshes":[{"name":"SM_Towel_Rack_LOD0","primitives":[{"attributes":{"NORMAL":3,"POSITION":2,"TANGENT":4,"TEXCOORD_0":5,"TEXCOORD_1":6},"indices":1,"material":0,"mode":4}]},{"name":"SM_Towel_Rack_LOD1","primitives":[{"attributes":{"NORMAL":9,"POSITION":8,"TANGENT":10,"TEXCOORD_0":11,"TEXCOORD_1":12},"indices":7,"material":0,"mode":4}]},{"name":"SM_Towel_Rack_LOD2","primitives":[{"attributes":{"NORMAL":15,"POSITION":14,"TANGENT":16,"TEXCOORD_0":17,"TEXCOORD_1":18},"indices":13,"material":0,"mode":4}]},{"name":"SM_Towel_Rack_LOD3","primitives":[{"attributes":{"NORMAL":21,"POSITION":20,"TANGENT":22,"TEXCOORD_0":23,"TEXCOORD_1":24},"indices":19,"material":0,"mode":4}]},{"name":"SM_Towel_Rack_ConvexHulls","primitives":[{"attributes":{"NORMAL":27,"POSITION":26,"TEXCOORD_0":28,"TEXCOORD_1":29},"indices":25,"material":1,"mode":4}]}],"nodes":[{"children":[1,2,3,4,5],"name":"Bathroom_Towel_Rack2_19","originalUnits":0.00999999977648258,"pivot":[0,0,0],"rotation":[0,0,0,1],"scale":[1,1,1],"translation":[0,0,0]},{"mesh":0,"name":"SM_Towel_Rack_LOD0","originalUnits":0.00999999977648258,"pivot":[0,0,0],"rotation":[0,0,0,1],"scale":[1,1,1],"translation":[0,0,0]},{"mesh":4,"name":"SM_Towel_Rack_ConvexHulls","originalUnits":0.00999999977648258,"pivot":[0,0,0],"rotation":[0,0,0,1],"scale":[1,1,1],"translation":[0,0,0]},{"mesh":1,"name":"SM_Towel_Rack_LOD1","originalUnits":0.00999999977648258,"pivot":[0,0,0],"rotation":[0,0,0,1],"scale":[1,1,1],"translation":[0,0,0]},{"mesh":2,"name":"SM_Towel_Rack_LOD2","originalUnits":0.00999999977648258,"pivot":[0,0,0],"rotation":[0,0,0,1],"scale":[1,1,1],"translation":[0,0,0]},{"mesh":3,"name":"SM_Towel_Rack_LOD3","originalUnits":0.00999999977648258,"pivot":[0,0,0],"rotation":[0,0,0,1],"scale":[1,1,1],"translation":[0,0,0]}],"samplers":[{}],"scene":0,"scenes":[{"name":"Root Scene","nodes":[0]}],"textures":[{"name":"T_Fill_N","sampler":0,"source":0}]}