{"accessors":[{"bufferView":0,"byteOffset":0,"componentType":5126,"count":1,"max":[0],"min":[0],"type":"SCALAR"},{"bufferView":1,"byteOffset":0,"componentType":5123,"count":93054,"type":"SCALAR"},{"bufferView":2,"byteOffset":0,"componentType":5126,"count":16795,"max":[0.412780672311783,1.3031017780304,0.347522050142288],"min":[-0.40469440817833,-0.0007465594681,-0.34800460934639],"type":"VEC3"},{"bufferView":3,"byteOffset":0,"componentType":5126,"count":16795,"type":"VEC3"},{"bufferView":4,"byteOffset":0,"componentType":5126,"count":16795,"type":"VEC4"},{"bufferView":5,"byteOffset":0,"componentType":5126,"count":16795,"type":"VEC2"},{"bufferView":6,"byteOffset":0,"componentType":5126,"count":16795,"type":"VEC2"},{"bufferView":7,"byteOffset":0,"componentType":5123,"count":69792,"type":"SCALAR"},{"bufferView":8,"byteOffset":0,"componentType":5126,"count":12755,"max":[0.412819385528564,1.3031017780304,0.347561597824097],"min":[-0.40469440817833,-0.00074777420377,-0.34798395633697],"type":"VEC3"},{"bufferView":9,"byteOffset":0,"componentType":5126,"count":12755,"type":"VEC3"},{"bufferView":10,"byteOffset":0,"componentType":5126,"count":12755,"type":"VEC4"},{"bufferView":11,"byteOffset":0,"componentType":5126,"count":12755,"type":"VEC2"},{"bufferView":12,"byteOffset":0,"componentType":5126,"count":12755,"type":"VEC2"},{"bufferView":13,"byteOffset":0,"componentType":5123,"count":46524,"type":"SCALAR"},{"bufferView":14,"byteOffset":0,"componentType":5126,"count":8684,"max":[0.412951350212097,1.30306589603424,0.347491949796677],"min":[-0.40490347146988,-0.00074777420377,-0.34817972779274],"type":"VEC3"},{"bufferView":15,"byteOffset":0,"componentType":5126,"count":8684,"type":"VEC3"},{"bufferView":16,"byteOffset":0,"componentType":5126,"count":8684,"type":"VEC4"},{"bufferView":17,"byteOffset":0,"componentType":5126,"count":8684,"type":"VEC2"},{"bufferView":18,"byteOffset":0,"componentType":5126,"count":8684,"type":"VEC2"},{"bufferView":19,"byteOffset":0,"componentType":5123,"count":23262,"type":"SCALAR"},{"bufferView":20,"byteOffset":0,"componentType":5126,"count":4563,"max":[0.413117527961731,1.30329251289368,0.34715747833252],"min":[-0.40519964694977,-0.0007531074807,-0.34817972779274],"type":"VEC3"},{"bufferView":21,"byteOffset":0,"componentType":5126,"count":4563,"type":"VEC3"},{"bufferView":22,"byteOffset":0,"componentType":5126,"count":4563,"type":"VEC4"},{"bufferView":23,"byteOffset":0,"componentType":5126,"count":4563,"type":"VEC2"},{"bufferView":24,"byteOffset":0,"componentType":5126,"count":4563,"type":"VEC2"},{"bufferView":25,"byteOffset":0,"componentType":5123,"count":594,"type":"SCALAR"},{"bufferView":26,"byteOffset":0,"componentType":5126,"count":586,"max":[0.416581153869629,1.29831540584564,0.349216848611832],"min":[-0.40427687764168,-0.00688866665587,-0.35028955340385],"type":"VEC3"},{"bufferView":27,"byteOffset":0,"componentType":5126,"count":586,"type":"VEC3"},{"bufferView":28,"byteOffset":0,"componentType":5126,"count":586,"type":"VEC2"},{"bufferView":29,"byteOffset":0,"componentType":5126,"count":586,"type":"VEC2"}],"animations":[{"channels":[],"name":"Unreal Take","samplers":[]}],"asset":{"generator":"FBX2glTF v0.13.0","version":"2.0"},"bufferViews":[{"buffer":0,"byteLength":4,"byteOffset":0},{"buffer":0,"byteLength":186108,"byteOffset":4,"target":34963},{"buffer":0,"byteLength":201540,"byteOffset":186112,"target":34962},{"buffer":0,"byteLength":201540,"byteOffset":387652,"target":34962},{"buffer":0,"byteLength":268720,"byteOffset":589192,"target":34962},{"buffer":0,"byteLength":134360,"byteOffset":857912,"target":34962},{"buffer":0,"byteLength":134360,"byteOffset":992272,"target":34962},{"buffer":0,"byteLength":139584,"byteOffset":1126632,"target":34963},{"buffer":0,"byteLength":153060,"byteOffset":1266216,"target":34962},{"buffer":0,"byteLength":153060,"byteOffset":1419276,"target":34962},{"buffer":0,"byteLength":204080,"byteOffset":1572336,"target":34962},{"buffer":0,"byteLength":102040,"byteOffset":1776416,"target":34962},{"buffer":0,"byteLength":102040,"byteOffset":1878456,"target":34962},{"buffer":0,"byteLength":93048,"byteOffset":1980496,"target":34963},{"buffer":0,"byteLength":104208,"byteOffset":2073544,"target":34962},{"buffer":0,"byteLength":104208,"byteOffset":2177752,"target":34962},{"buffer":0,"byteLength":138944,"byteOffset":2281960,"target":34962},{"buffer":0,"byteLength":69472,"byteOffset":2420904,"target":34962},{"buffer":0,"byteLength":69472,"byteOffset":2490376,"target":34962},{"buffer":0,"byteLength":46524,"byteOffset":2559848,"target":34963},{"buffer":0,"byteLength":54756,"byteOffset":2606372,"target":34962},{"buffer":0,"byteLength":54756,"byteOffset":2661128,"target":34962},{"buffer":0,"byteLength":73008,"byteOffset":2715884,"target":34962},{"buffer":0,"byteLength":36504,"byteOffset":2788892,"target":34962},{"buffer":0,"byteLength":36504,"byteOffset":2825396,"target":34962},{"buffer":0,"byteLength":1188,"byteOffset":2861900,"target":34963},{"buffer":0,"byteLength":7032,"byteOffset":2863088,"target":34962},{"buffer":0,"byteLength":7032,"byteOffset":2870120,"target":34962},{"buffer":0,"byteLength":4688,"byteOffset":2877152,"target":34962},{"buffer":0,"byteLength":4688,"byteOffset":2881840,"target":34962}],"buffers":[{"byteLength":2886528,"uri":"SM_Vintage_Chair.bin"}],"images":[{"name":"FlatNormal","uri":"FlatNormal.tga"}],"materials":[{"alphaMode":"OPAQUE","doubleSided":false,"extras":{"fromFBX":{"isTruePBR":false,"shadingModel":"Phong"}},"name":"MI_Vintage_Dining_Chair","normalTexture":{"index":0,"texCoord":0},"pbrMetallicRoughness":{"baseColorFactor":[0.21586050093174,0.21586050093174,0.21586050093174,1],"metallicFactor":0.400000005960464,"roughnessFactor":0.301511347293854}},{"alphaMode":"OPAQUE","doubleSided":false,"extras":{"fromFBX":{"isTruePBR":false,"shadingModel":"Lambert"}},"name":"DefaultMaterial","pbrMetallicRoughness":{"baseColorFactor":[0.5,0.5,0.5,1],"metallicFactor":0.200000002980232,"roughnessFactor":0.800000011920929}}],"meshes":[{"name":"SM_Vintage_Chair_LOD0","primitives":[{"attributes":{"NORMAL":3,"POSITION":2,"TANGENT":4,"TEXCOORD_0":5,"TEXCOORD_1":6},"indices":1,"material":0,"mode":4}]},{"name":"SM_Vintage_Chair_LOD1","primitives":[{"attributes":{"NORMAL":9,"POSITION":8,"TANGENT":10,"TEXCOORD_0":11,"TEXCOORD_1":12},"indices":7,"material":0,"mode":4}]},{"name":"SM_Vintage_Chair_LOD2","primitives":[{"attributes":{"NORMAL":15,"POSITION":14,"TANGENT":16,"TEXCOORD_0":17,"TEXCOORD_1":18},"indices":13,"material":0,"mode":4}]},{"name":"SM_Vintage_Chair_LOD3","primitives":[{"attributes":{"NORMAL":21,"POSITION":20,"TANGENT":22,"TEXCOORD_0":23,"TEXCOORD_1":24},"indices":19,"material":0,"mode":4}]},{"name":"SM_Vintage_Chair_ConvexHulls","primitives":[{"attributes":{"NORMAL":27,"POSITION":26,"TEXCOORD_0":28,"TEXCOORD_1":29},"indices":25,"material":1,"mode":4}]}],"nodes":[{"children":[1,2,3,4,5],"name":"Vintage_Dining_Chair8","originalUnits":0.00999999977648258,"pivot":[0,0,0],"rotation":[0,0,0,1],"scale":[1,1,1],"translation":[0,0,0]},{"mesh":0,"name":"SM_Vintage_Chair_LOD0","originalUnits":0.00999999977648258,"pivot":[0,0,0],"rotation":[0,0,0,1],"scale":[1,1,1],"translation":[0,0,0]},{"mesh":4,"name":"SM_Vintage_Chair_ConvexHulls","originalUnits":0.00999999977648258,"pivot":[0,0,0],"rotation":[0,0,0,1],"scale":[1,1,1],"translation":[0,0,0]},{"mesh":1,"name":"SM_Vintage_Chair_LOD1","originalUnits":0.00999999977648258,"pivot":[0,0,0],"rotation":[0,0,0,1],"scale":[1,1,1],"translation":[0,0,0]},{"mesh":2,"name":"SM_Vintage_Chair_LOD2","originalUnits":0.00999999977648258,"pivot":[0,0,0],"rotation":[0,0,0,1],"scale":[1,1,1],"translation":[0,0,0]},{"mesh":3,"name":"SM_Vintage_Chair_LOD3","originalUnits":0.00999999977648258,"pivot":[0,0,0],"rotation":[0,0,0,1],"scale":[1,1,1],"translation":[0,0,0]}],"samplers":[{}],"scene":0,"scenes":[{"name":"Root Scene","nodes":[0]}],"textures":[{"name":"T_Default_N","sampler":0,"source":0}]}