{"accessors":[{"bufferView":0,"byteOffset":0,"componentType":5126,"count":1,"max":[0],"min":[0],"type":"SCALAR"},{"bufferView":1,"byteOffset":0,"componentType":5123,"count":456,"type":"SCALAR"},{"bufferView":2,"byteOffset":0,"componentType":5126,"count":152,"max":[1.03099977970123,1.01471650600433,0.740121722221375],"min":[-1.03100025653839,0.902449250221252,-0.74012172222137],"type":"VEC3"},{"bufferView":3,"byteOffset":0,"componentType":5126,"count":152,"type":"VEC3"},{"bufferView":4,"byteOffset":0,"componentType":5126,"count":152,"type":"VEC4"},{"bufferView":5,"byteOffset":0,"componentType":5126,"count":152,"type":"VEC2"},{"bufferView":6,"byteOffset":0,"componentType":5126,"count":152,"type":"VEC2"},{"bufferView":7,"byteOffset":0,"componentType":5123,"count":384,"type":"SCALAR"},{"bufferView":8,"byteOffset":0,"componentType":5126,"count":136,"max":[1.03099977970123,1.01471650600433,0.74012303352356],"min":[-1.03100025653839,0.902449250221252,-0.74012172222137],"type":"VEC3"},{"bufferView":9,"byteOffset":0,"componentType":5126,"count":136,"type":"VEC3"},{"bufferView":10,"byteOffset":0,"componentType":5126,"count":136,"type":"VEC4"},{"bufferView":11,"byteOffset":0,"componentType":5126,"count":136,"type":"VEC2"},{"bufferView":12,"byteOffset":0,"componentType":5126,"count":136,"type":"VEC2"},{"bufferView":13,"byteOffset":0,"componentType":5123,"count":384,"type":"SCALAR"},{"bufferView":14,"byteOffset":0,"componentType":5126,"count":136,"max":[1.03099977970123,1.01471650600433,0.74012303352356],"min":[-1.03100025653839,0.902449250221252,-0.74012172222137],"type":"VEC3"},{"bufferView":15,"byteOffset":0,"componentType":5126,"count":136,"type":"VEC3"},{"bufferView":16,"byteOffset":0,"componentType":5126,"count":136,"type":"VEC4"},{"bufferView":17,"byteOffset":0,"componentType":5126,"count":136,"type":"VEC2"},{"bufferView":18,"byteOffset":0,"componentType":5126,"count":136,"type":"VEC2"},{"bufferView":19,"byteOffset":0,"componentType":5123,"count":384,"type":"SCALAR"},{"bufferView":20,"byteOffset":0,"componentType":5126,"count":136,"max":[1.03099977970123,1.01471650600433,0.74012303352356],"min":[-1.03100025653839,0.902449250221252,-0.74012172222137],"type":"VEC3"},{"bufferView":21,"byteOffset":0,"componentType":5126,"count":136,"type":"VEC3"},{"bufferView":22,"byteOffset":0,"componentType":5126,"count":136,"type":"VEC4"},{"bufferView":23,"byteOffset":0,"componentType":5126,"count":136,"type":"VEC2"},{"bufferView":24,"byteOffset":0,"componentType":5126,"count":136,"type":"VEC2"},{"bufferView":25,"byteOffset":0,"componentType":5123,"count":65472,"type":"SCALAR"},{"bufferView":26,"byteOffset":0,"componentType":5126,"count":13454,"max":[1.0436863899231,1.01562559604645,0.750318288803101],"min":[-1.04368674755096,-0.0058481041342,-0.7503182888031],"type":"VEC3"},{"bufferView":27,"byteOffset":0,"componentType":5126,"count":13454,"type":"VEC3"},{"bufferView":28,"byteOffset":0,"componentType":5126,"count":13454,"type":"VEC4"},{"bufferView":29,"byteOffset":0,"componentType":5126,"count":13454,"type":"VEC2"},{"bufferView":30,"byteOffset":0,"componentType":5126,"count":13454,"type":"VEC2"},{"bufferView":31,"byteOffset":0,"componentType":5123,"count":49062,"type":"SCALAR"},{"bufferView":32,"byteOffset":0,"componentType":5126,"count":10669,"max":[1.0436863899231,1.01562559604645,0.750317990779877],"min":[-1.04368674755096,-0.0058481041342,-0.7503182888031],"type":"VEC3"},{"bufferView":33,"byteOffset":0,"componentType":5126,"count":10669,"type":"VEC3"},{"bufferView":34,"byteOffset":0,"componentType":5126,"count":10669,"type":"VEC4"},{"bufferView":35,"byteOffset":0,"componentType":5126,"count":10669,"type":"VEC2"},{"bufferView":36,"byteOffset":0,"componentType":5126,"count":10669,"type":"VEC2"},{"bufferView":37,"byteOffset":0,"componentType":5123,"count":32577,"type":"SCALAR"},{"bufferView":38,"byteOffset":0,"componentType":5126,"count":7788,"max":[1.0436863899231,1.01562559604645,0.750317990779877],"min":[-1.04368674755096,-0.00584809342399,-0.7503182888031],"type":"VEC3"},{"bufferView":39,"byteOffset":0,"componentType":5126,"count":7788,"type":"VEC3"},{"bufferView":40,"byteOffset":0,"componentType":5126,"count":7788,"type":"VEC4"},{"bufferView":41,"byteOffset":0,"componentType":5126,"count":7788,"type":"VEC2"},{"bufferView":42,"byteOffset":0,"componentType":5126,"count":7788,"type":"VEC2"},{"bufferView":43,"byteOffset":0,"componentType":5123,"count":16095,"type":"SCALAR"},{"bufferView":44,"byteOffset":0,"componentType":5126,"count":4463,"max":[1.0436863899231,1.01571655273438,0.750317990779877],"min":[-1.04368674755096,-0.00584836304188,-0.7503182888031],"type":"VEC3"},{"bufferView":45,"byteOffset":0,"componentType":5126,"count":4463,"type":"VEC3"},{"bufferView":46,"byteOffset":0,"componentType":5126,"count":4463,"type":"VEC4"},{"bufferView":47,"byteOffset":0,"componentType":5126,"count":4463,"type":"VEC2"},{"bufferView":48,"byteOffset":0,"componentType":5126,"count":4463,"type":"VEC2"},{"bufferView":49,"byteOffset":0,"componentType":5123,"count":306,"type":"SCALAR"},{"bufferView":50,"byteOffset":0,"componentType":5126,"count":300,"max":[1.04749512672424,1.01562559604645,0.747178018093109],"min":[-1.0399512052536,-0.0096284840256,-0.74487310647965],"type":"VEC3"},{"bufferView":51,"byteOffset":0,"componentType":5126,"count":300,"type":"VEC3"},{"bufferView":52,"byteOffset":0,"componentType":5126,"count":300,"type":"VEC2"},{"bufferView":53,"byteOffset":0,"componentType":5126,"count":300,"type":"VEC2"}],"animations":[{"channels":[],"name":"Unreal Take","samplers":[]}],"asset":{"generator":"FBX2glTF v0.13.0","version":"2.0"},"bufferViews":[{"buffer":0,"byteLength":4,"byteOffset":0},{"buffer":0,"byteLength":912,"byteOffset":4,"target":34963},{"buffer":0,"byteLength":1824,"byteOffset":916,"target":34962},{"buffer":0,"byteLength":1824,"byteOffset":2740,"target":34962},{"buffer":0,"byteLength":2432,"byteOffset":4564,"target":34962},{"buffer":0,"byteLength":1216,"byteOffset":6996,"target":34962},{"buffer":0,"byteLength":1216,"byteOffset":8212,"target":34962},{"buffer":0,"byteLength":768,"byteOffset":9428,"target":34963},{"buffer":0,"byteLength":1632,"byteOffset":10196,"target":34962},{"buffer":0,"byteLength":1632,"byteOffset":11828,"target":34962},{"buffer":0,"byteLength":2176,"byteOffset":13460,"target":34962},{"buffer":0,"byteLength":1088,"byteOffset":15636,"target":34962},{"buffer":0,"byteLength":1088,"byteOffset":16724,"target":34962},{"buffer":0,"byteLength":768,"byteOffset":17812,"target":34963},{"buffer":0,"byteLength":1632,"byteOffset":18580,"target":34962},{"buffer":0,"byteLength":1632,"byteOffset":20212,"target":34962},{"buffer":0,"byteLength":2176,"byteOffset":21844,"target":34962},{"buffer":0,"byteLength":1088,"byteOffset":24020,"target":34962},{"buffer":0,"byteLength":1088,"byteOffset":25108,"target":34962},{"buffer":0,"byteLength":768,"byteOffset":26196,"target":34963},{"buffer":0,"byteLength":1632,"byteOffset":26964,"target":34962},{"buffer":0,"byteLength":1632,"byteOffset":28596,"target":34962},{"buffer":0,"byteLength":2176,"byteOffset":30228,"target":34962},{"buffer":0,"byteLength":1088,"byteOffset":32404,"target":34962},{"buffer":0,"byteLength":1088,"byteOffset":33492,"target":34962},{"buffer":0,"byteLength":130944,"byteOffset":34580,"target":34963},{"buffer":0,"byteLength":161448,"byteOffset":165524,"target":34962},{"buffer":0,"byteLength":161448,"byteOffset":326972,"target":34962},{"buffer":0,"byteLength":215264,"byteOffset":488420,"target":34962},{"buffer":0,"byteLength":107632,"byteOffset":703684,"target":34962},{"buffer":0,"byteLength":107632,"byteOffset":811316,"target":34962},{"buffer":0,"byteLength":98124,"byteOffset":918948,"target":34963},{"buffer":0,"byteLength":128028,"byteOffset":1017072,"target":34962},{"buffer":0,"byteLength":128028,"byteOffset":1145100,"target":34962},{"buffer":0,"byteLength":170704,"byteOffset":1273128,"target":34962},{"buffer":0,"byteLength":85352,"byteOffset":1443832,"target":34962},{"buffer":0,"byteLength":85352,"byteOffset":1529184,"target":34962},{"buffer":0,"byteLength":65154,"byteOffset":1614536,"target":34963},{"buffer":0,"byteLength":93456,"byteOffset":1679692,"target":34962},{"buffer":0,"byteLength":93456,"byteOffset":1773148,"target":34962},{"buffer":0,"byteLength":124608,"byteOffset":1866604,"target":34962},{"buffer":0,"byteLength":62304,"byteOffset":1991212,"target":34962},{"buffer":0,"byteLength":62304,"byteOffset":2053516,"target":34962},{"buffer":0,"byteLength":32190,"byteOffset":2115820,"target":34963},{"buffer":0,"byteLength":53556,"byteOffset":2148012,"target":34962},{"buffer":0,"byteLength":53556,"byteOffset":2201568,"target":34962},{"buffer":0,"byteLength":71408,"byteOffset":2255124,"target":34962},{"buffer":0,"byteLength":35704,"byteOffset":2326532,"target":34962},{"buffer":0,"byteLength":35704,"byteOffset":2362236,"target":34962},{"buffer":0,"byteLength":612,"byteOffset":2397940,"target":34963},{"buffer":0,"byteLength":3600,"byteOffset":2398552,"target":34962},{"buffer":0,"byteLength":3600,"byteOffset":2402152,"target":34962},{"buffer":0,"byteLength":2400,"byteOffset":2405752,"target":34962},{"buffer":0,"byteLength":2400,"byteOffset":2408152,"target":34962}],"buffers":[{"byteLength":2410552,"uri":"SM_Vintage_Dining_Table.bin"}],"materials":[{"alphaMode":"OPAQUE","doubleSided":false,"extras":{"fromFBX":{"isTruePBR":false,"shadingModel":"Phong"}},"name":"MM_Table_Top","pbrMetallicRoughness":{"baseColorFactor":[0.614583015441895,0.0896269977092743,0.0896269977092743,1],"metallicFactor":0.400000005960464,"roughnessFactor":0.301511347293854}},{"alphaMode":"OPAQUE","doubleSided":false,"extras":{"fromFBX":{"isTruePBR":false,"shadingModel":"Phong"}},"name":"MM_Chrome","pbrMetallicRoughness":{"baseColorFactor":[0,0,0,1],"metallicFactor":0.400000005960464,"roughnessFactor":0.301511347293854}},{"alphaMode":"OPAQUE","doubleSided":false,"extras":{"fromFBX":{"isTruePBR":false,"shadingModel":"Lambert"}},"name":"DefaultMaterial","pbrMetallicRoughness":{"baseColorFactor":[0.5,0.5,0.5,1],"metallicFactor":0.200000002980232,"roughnessFactor":0.800000011920929}}],"meshes":[{"name":"SM_Vintage_Dining_Table_LOD0","primitives":[{"attributes":{"NORMAL":3,"POSITION":2,"TANGENT":4,"TEXCOORD_0":5,"TEXCOORD_1":6},"indices":1,"material":0,"mode":4},{"attributes":{"NORMAL":27,"POSITION":26,"TANGENT":28,"TEXCOORD_0":29,"TEXCOORD_1":30},"indices":25,"material":1,"mode":4}]},{"name":"SM_Vintage_Dining_Table_LOD1","primitives":[{"attributes":{"NORMAL":9,"POSITION":8,"TANGENT":10,"TEXCOORD_0":11,"TEXCOORD_1":12},"indices":7,"material":0,"mode":4},{"attributes":{"NORMAL":33,"POSITION":32,"TANGENT":34,"TEXCOORD_0":35,"TEXCOORD_1":36},"indices":31,"material":1,"mode":4}]},{"name":"SM_Vintage_Dining_Table_LOD2","primitives":[{"attributes":{"NORMAL":15,"POSITION":14,"TANGENT":16,"TEXCOORD_0":17,"TEXCOORD_1":18},"indices":13,"material":0,"mode":4},{"attributes":{"NORMAL":39,"POSITION":38,"TANGENT":40,"TEXCOORD_0":41,"TEXCOORD_1":42},"indices":37,"material":1,"mode":4}]},{"name":"SM_Vintage_Dining_Table_LOD3","primitives":[{"attributes":{"NORMAL":21,"POSITION":20,"TANGENT":22,"TEXCOORD_0":23,"TEXCOORD_1":24},"indices":19,"material":0,"mode":4},{"attributes":{"NORMAL":45,"POSITION":44,"TANGENT":46,"TEXCOORD_0":47,"TEXCOORD_1":48},"indices":43,"material":1,"mode":4}]},{"name":"SM_Vintage_Dining_Table_ConvexHulls","primitives":[{"attributes":{"NORMAL":51,"POSITION":50,"TEXCOORD_0":52,"TEXCOORD_1":53},"indices":49,"material":2,"mode":4}]}],"nodes":[{"children":[1,2,3,4,5],"name":"Vintage_Dining_Table_2","originalUnits":0.00999999977648258,"pivot":[0,0,0],"rotation":[0,0,0,1],"scale":[1,1,1],"translation":[0,0,0]},{"mesh":0,"name":"SM_Vintage_Dining_Table_LOD0","originalUnits":0.00999999977648258,"pivot":[0,0,0],"rotation":[0,0,0,1],"scale":[1,1,1],"translation":[0,0,0]},{"mesh":4,"name":"SM_Vintage_Dining_Table_ConvexHulls","originalUnits":0.00999999977648258,"pivot":[0,0,0],"rotation":[0,0,0,1],"scale":[1,1,1],"translation":[0,0,0]},{"mesh":1,"name":"SM_Vintage_Dining_Table_LOD1","originalUnits":0.00999999977648258,"pivot":[0,0,0],"rotation":[0,0,0,1],"scale":[1,1,1],"translation":[0,0,0]},{"mesh":2,"name":"SM_Vintage_Dining_Table_LOD2","originalUnits":0.00999999977648258,"pivot":[0,0,0],"rotation":[0,0,0,1],"scale":[1,1,1],"translation":[0,0,0]},{"mesh":3,"name":"SM_Vintage_Dining_Table_LOD3","originalUnits":0.00999999977648258,"pivot":[0,0,0],"rotation":[0,0,0,1],"scale":[1,1,1],"translation":[0,0,0]}],"samplers":[{}],"scene":0,"scenes":[{"name":"Root Scene","nodes":[0]}]}