{"accessors":[{"bufferView":0,"byteOffset":0,"componentType":5126,"count":1,"max":[0],"min":[0],"type":"SCALAR"},{"bufferView":1,"byteOffset":0,"componentType":5123,"count":25182,"type":"SCALAR"},{"bufferView":2,"byteOffset":0,"componentType":5126,"count":4620,"max":[0.124372348189354,0.0500405766069889,0.123858742415905],"min":[-0.12437236309052,-0.05004059150815,-0.12385874241591],"type":"VEC3"},{"bufferView":3,"byteOffset":0,"componentType":5126,"count":4620,"type":"VEC3"},{"bufferView":4,"byteOffset":0,"componentType":5126,"count":4620,"type":"VEC4"},{"bufferView":5,"byteOffset":0,"componentType":5126,"count":4620,"type":"VEC2"},{"bufferView":6,"byteOffset":0,"componentType":5126,"count":4620,"type":"VEC2"},{"bufferView":7,"byteOffset":0,"componentType":5123,"count":18888,"type":"SCALAR"},{"bufferView":8,"byteOffset":0,"componentType":5126,"count":3569,"max":[0.124372348189354,0.0500405766069889,0.123858742415905],"min":[-0.12437236309052,-0.05004683509469,-0.12385874241591],"type":"VEC3"},{"bufferView":9,"byteOffset":0,"componentType":5126,"count":3569,"type":"VEC3"},{"bufferView":10,"byteOffset":0,"componentType":5126,"count":3569,"type":"VEC4"},{"bufferView":11,"byteOffset":0,"componentType":5126,"count":3569,"type":"VEC2"},{"bufferView":12,"byteOffset":0,"componentType":5126,"count":3569,"type":"VEC2"},{"bufferView":13,"byteOffset":0,"componentType":5123,"count":12588,"type":"SCALAR"},{"bufferView":14,"byteOffset":0,"componentType":5126,"count":2472,"max":[0.124372348189354,0.0500405766069889,0.12388052046299],"min":[-0.12437236309052,-0.05001286044717,-0.12400620430708],"type":"VEC3"},{"bufferView":15,"byteOffset":0,"componentType":5126,"count":2472,"type":"VEC3"},{"bufferView":16,"byteOffset":0,"componentType":5126,"count":2472,"type":"VEC4"},{"bufferView":17,"byteOffset":0,"componentType":5126,"count":2472,"type":"VEC2"},{"bufferView":18,"byteOffset":0,"componentType":5126,"count":2472,"type":"VEC2"},{"bufferView":19,"byteOffset":0,"componentType":5123,"count":6294,"type":"SCALAR"},{"bufferView":20,"byteOffset":0,"componentType":5126,"count":1292,"max":[0.124517112970352,0.0501057058572769,0.124327749013901],"min":[-0.12468604743481,-0.05002441257238,-0.12506856024265],"type":"VEC3"},{"bufferView":21,"byteOffset":0,"componentType":5126,"count":1292,"type":"VEC3"},{"bufferView":22,"byteOffset":0,"componentType":5126,"count":1292,"type":"VEC4"},{"bufferView":23,"byteOffset":0,"componentType":5126,"count":1292,"type":"VEC2"},{"bufferView":24,"byteOffset":0,"componentType":5126,"count":1292,"type":"VEC2"},{"bufferView":25,"byteOffset":0,"componentType":5123,"count":336,"type":"SCALAR"},{"bufferView":26,"byteOffset":0,"componentType":5126,"count":336,"max":[0.122970648109913,0.0513379164040089,0.123625122010708],"min":[-0.12273782491684,-0.04957491904497,-0.12249011546373],"type":"VEC3"},{"bufferView":27,"byteOffset":0,"componentType":5126,"count":336,"type":"VEC3"},{"bufferView":28,"byteOffset":0,"componentType":5126,"count":336,"type":"VEC2"},{"bufferView":29,"byteOffset":0,"componentType":5126,"count":336,"type":"VEC2"}],"animations":[{"channels":[],"name":"Unreal Take","samplers":[]}],"asset":{"generator":"FBX2glTF v0.13.0","version":"2.0"},"bufferViews":[{"buffer":0,"byteLength":4,"byteOffset":0},{"buffer":0,"byteLength":50364,"byteOffset":4,"target":34963},{"buffer":0,"byteLength":55440,"byteOffset":50368,"target":34962},{"buffer":0,"byteLength":55440,"byteOffset":105808,"target":34962},{"buffer":0,"byteLength":73920,"byteOffset":161248,"target":34962},{"buffer":0,"byteLength":36960,"byteOffset":235168,"target":34962},{"buffer":0,"byteLength":36960,"byteOffset":272128,"target":34962},{"buffer":0,"byteLength":37776,"byteOffset":309088,"target":34963},{"buffer":0,"byteLength":42828,"byteOffset":346864,"target":34962},{"buffer":0,"byteLength":42828,"byteOffset":389692,"target":34962},{"buffer":0,"byteLength":57104,"byteOffset":432520,"target":34962},{"buffer":0,"byteLength":28552,"byteOffset":489624,"target":34962},{"buffer":0,"byteLength":28552,"byteOffset":518176,"target":34962},{"buffer":0,"byteLength":25176,"byteOffset":546728,"target":34963},{"buffer":0,"byteLength":29664,"byteOffset":571904,"target":34962},{"buffer":0,"byteLength":29664,"byteOffset":601568,"target":34962},{"buffer":0,"byteLength":39552,"byteOffset":631232,"target":34962},{"buffer":0,"byteLength":19776,"byteOffset":670784,"target":34962},{"buffer":0,"byteLength":19776,"byteOffset":690560,"target":34962},{"buffer":0,"byteLength":12588,"byteOffset":710336,"target":34963},{"buffer":0,"byteLength":15504,"byteOffset":722924,"target":34962},{"buffer":0,"byteLength":15504,"byteOffset":738428,"target":34962},{"buffer":0,"byteLength":20672,"byteOffset":753932,"target":34962},{"buffer":0,"byteLength":10336,"byteOffset":774604,"target":34962},{"buffer":0,"byteLength":10336,"byteOffset":784940,"target":34962},{"buffer":0,"byteLength":672,"byteOffset":795276,"target":34963},{"buffer":0,"byteLength":4032,"byteOffset":795948,"target":34962},{"buffer":0,"byteLength":4032,"byteOffset":799980,"target":34962},{"buffer":0,"byteLength":2688,"byteOffset":804012,"target":34962},{"buffer":0,"byteLength":2688,"byteOffset":806700,"target":34962}],"buffers":[{"byteLength":809388,"uri":"SM_Wood_Bowl_A.bin"}],"images":[{"name":"FlatNormal","uri":"FlatNormal.tga"}],"materials":[{"alphaMode":"OPAQUE","doubleSided":false,"extras":{"fromFBX":{"isTruePBR":false,"shadingModel":"Phong"}},"name":"MI_Wood_Bowl_A","normalTexture":{"index":0,"texCoord":0},"pbrMetallicRoughness":{"baseColorFactor":[0.21586050093174,0.21586050093174,0.21586050093174,1],"metallicFactor":0.400000005960464,"roughnessFactor":0.301511347293854}},{"alphaMode":"OPAQUE","doubleSided":false,"extras":{"fromFBX":{"isTruePBR":false,"shadingModel":"Lambert"}},"name":"DefaultMaterial","pbrMetallicRoughness":{"baseColorFactor":[0.5,0.5,0.5,1],"metallicFactor":0.200000002980232,"roughnessFactor":0.800000011920929}}],"meshes":[{"name":"SM_Wood_Bowl_A_LOD0","primitives":[{"attributes":{"NORMAL":3,"POSITION":2,"TANGENT":4,"TEXCOORD_0":5,"TEXCOORD_1":6},"indices":1,"material":0,"mode":4}]},{"name":"SM_Wood_Bowl_A_LOD1","primitives":[{"attributes":{"NORMAL":9,"POSITION":8,"TANGENT":10,"TEXCOORD_0":11,"TEXCOORD_1":12},"indices":7,"material":0,"mode":4}]},{"name":"SM_Wood_Bowl_A_LOD2","primitives":[{"attributes":{"NORMAL":15,"POSITION":14,"TANGENT":16,"TEXCOORD_0":17,"TEXCOORD_1":18},"indices":13,"material":0,"mode":4}]},{"name":"SM_Wood_Bowl_A_LOD3","primitives":[{"attributes":{"NORMAL":21,"POSITION":20,"TANGENT":22,"TEXCOORD_0":23,"TEXCOORD_1":24},"indices":19,"material":0,"mode":4}]},{"name":"SM_Wood_Bowl_A_ConvexHulls","primitives":[{"attributes":{"NORMAL":27,"POSITION":26,"TEXCOORD_0":28,"TEXCOORD_1":29},"indices":25,"material":1,"mode":4}]}],"nodes":[{"children":[1,2,3,4,5],"name":"Wood_Bowl_A10","originalUnits":0.00999999977648258,"pivot":[0,0,0],"rotation":[0,0,0,1],"scale":[1,1,1],"translation":[0,0,0]},{"mesh":0,"name":"SM_Wood_Bowl_A_LOD0","originalUnits":0.00999999977648258,"pivot":[0,0,0],"rotation":[0,0,0,1],"scale":[1,1,1],"translation":[0,0,0]},{"mesh":4,"name":"SM_Wood_Bowl_A_ConvexHulls","originalUnits":0.00999999977648258,"pivot":[0,0,0],"rotation":[0,0,0,1],"scale":[1,1,1],"translation":[0,0,0]},{"mesh":1,"name":"SM_Wood_Bowl_A_LOD1","originalUnits":0.00999999977648258,"pivot":[0,0,0],"rotation":[0,0,0,1],"scale":[1,1,1],"translation":[0,0,0]},{"mesh":2,"name":"SM_Wood_Bowl_A_LOD2","originalUnits":0.00999999977648258,"pivot":[0,0,0],"rotation":[0,0,0,1],"scale":[1,1,1],"translation":[0,0,0]},{"mesh":3,"name":"SM_Wood_Bowl_A_LOD3","originalUnits":0.00999999977648258,"pivot":[0,0,0],"rotation":[0,0,0,1],"scale":[1,1,1],"translation":[0,0,0]}],"samplers":[{}],"scene":0,"scenes":[{"name":"Root Scene","nodes":[0]}],"textures":[{"name":"T_Default_N","sampler":0,"source":0}]}