{"accessors":[{"bufferView":0,"byteOffset":0,"componentType":5126,"count":1,"max":[0],"min":[0],"type":"SCALAR"},{"bufferView":1,"byteOffset":0,"componentType":5123,"count":186,"type":"SCALAR"},{"bufferView":2,"byteOffset":0,"componentType":5126,"count":94,"max":[11.9006471633911,1.99170875549316,0.0365240462124348],"min":[5.27390289306641,1.79980552196503,-5.46898651123047],"type":"VEC3"},{"bufferView":3,"byteOffset":0,"componentType":5126,"count":94,"type":"VEC3"},{"bufferView":4,"byteOffset":0,"componentType":5126,"count":94,"type":"VEC4"},{"bufferView":5,"byteOffset":0,"componentType":5126,"count":94,"type":"VEC2"},{"bufferView":6,"byteOffset":0,"componentType":5126,"count":94,"type":"VEC2"},{"bufferView":7,"byteOffset":0,"componentType":5123,"count":138,"type":"SCALAR"},{"bufferView":8,"byteOffset":0,"componentType":5126,"count":76,"max":[11.9006471633911,1.99170875549316,0.0365240462124348],"min":[5.27390289306641,1.79980552196503,-5.46898794174194],"type":"VEC3"},{"bufferView":9,"byteOffset":0,"componentType":5126,"count":76,"type":"VEC3"},{"bufferView":10,"byteOffset":0,"componentType":5126,"count":76,"type":"VEC4"},{"bufferView":11,"byteOffset":0,"componentType":5126,"count":76,"type":"VEC2"},{"bufferView":12,"byteOffset":0,"componentType":5126,"count":76,"type":"VEC2"},{"bufferView":13,"byteOffset":0,"componentType":5123,"count":93,"type":"SCALAR"},{"bufferView":14,"byteOffset":0,"componentType":5126,"count":59,"max":[11.9006471633911,1.99170875549316,0.0365240313112736],"min":[5.27390289306641,1.75787317752838,-5.46898603439331],"type":"VEC3"},{"bufferView":15,"byteOffset":0,"componentType":5126,"count":59,"type":"VEC3"},{"bufferView":16,"byteOffset":0,"componentType":5126,"count":59,"type":"VEC4"},{"bufferView":17,"byteOffset":0,"componentType":5126,"count":59,"type":"VEC2"},{"bufferView":18,"byteOffset":0,"componentType":5126,"count":59,"type":"VEC2"},{"bufferView":19,"byteOffset":0,"componentType":5123,"count":48,"type":"SCALAR"},{"bufferView":20,"byteOffset":0,"componentType":5126,"count":37,"max":[11.878867149353,2.01607918739319,0.0365240313112736],"min":[5.33608436584473,1.76545798778534,-5.43053197860718],"type":"VEC3"},{"bufferView":21,"byteOffset":0,"componentType":5126,"count":37,"type":"VEC3"},{"bufferView":22,"byteOffset":0,"componentType":5126,"count":37,"type":"VEC4"},{"bufferView":23,"byteOffset":0,"componentType":5126,"count":37,"type":"VEC2"},{"bufferView":24,"byteOffset":0,"componentType":5126,"count":37,"type":"VEC2"}],"animations":[{"channels":[],"name":"Unreal Take","samplers":[]}],"asset":{"generator":"FBX2glTF v0.13.0","version":"2.0"},"bufferViews":[{"buffer":0,"byteLength":4,"byteOffset":0},{"buffer":0,"byteLength":372,"byteOffset":4,"target":34963},{"buffer":0,"byteLength":1128,"byteOffset":376,"target":34962},{"buffer":0,"byteLength":1128,"byteOffset":1504,"target":34962},{"buffer":0,"byteLength":1504,"byteOffset":2632,"target":34962},{"buffer":0,"byteLength":752,"byteOffset":4136,"target":34962},{"buffer":0,"byteLength":752,"byteOffset":4888,"target":34962},{"buffer":0,"byteLength":276,"byteOffset":5640,"target":34963},{"buffer":0,"byteLength":912,"byteOffset":5916,"target":34962},{"buffer":0,"byteLength":912,"byteOffset":6828,"target":34962},{"buffer":0,"byteLength":1216,"byteOffset":7740,"target":34962},{"buffer":0,"byteLength":608,"byteOffset":8956,"target":34962},{"buffer":0,"byteLength":608,"byteOffset":9564,"target":34962},{"buffer":0,"byteLength":186,"byteOffset":10172,"target":34963},{"buffer":0,"byteLength":708,"byteOffset":10360,"target":34962},{"buffer":0,"byteLength":708,"byteOffset":11068,"target":34962},{"buffer":0,"byteLength":944,"byteOffset":11776,"target":34962},{"buffer":0,"byteLength":472,"byteOffset":12720,"target":34962},{"buffer":0,"byteLength":472,"byteOffset":13192,"target":34962},{"buffer":0,"byteLength":96,"byteOffset":13664,"target":34963},{"buffer":0,"byteLength":444,"byteOffset":13760,"target":34962},{"buffer":0,"byteLength":444,"byteOffset":14204,"target":34962},{"buffer":0,"byteLength":592,"byteOffset":14648,"target":34962},{"buffer":0,"byteLength":296,"byteOffset":15240,"target":34962},{"buffer":0,"byteLength":296,"byteOffset":15536,"target":34962}],"buffers":[{"byteLength":15832,"uri":"SM_Walls_Trim.bin"}],"materials":[{"alphaMode":"OPAQUE","doubleSided":false,"extras":{"fromFBX":{"isTruePBR":false,"shadingModel":"Phong"}},"name":"MM_Base_Mat_3","pbrMetallicRoughness":{"baseColorFactor":[0.175208002328873,0.213541999459267,0.164605006575584,1],"metallicFactor":0.400000005960464,"roughnessFactor":0.301511347293854}}],"meshes":[{"name":"SM_Walls_Trim_LOD0","primitives":[{"attributes":{"NORMAL":3,"POSITION":2,"TANGENT":4,"TEXCOORD_0":5,"TEXCOORD_1":6},"indices":1,"material":0,"mode":4}]},{"name":"SM_Walls_Trim_LOD1","primitives":[{"attributes":{"NORMAL":9,"POSITION":8,"TANGENT":10,"TEXCOORD_0":11,"TEXCOORD_1":12},"indices":7,"material":0,"mode":4}]},{"name":"SM_Walls_Trim_LOD2","primitives":[{"attributes":{"NORMAL":15,"POSITION":14,"TANGENT":16,"TEXCOORD_0":17,"TEXCOORD_1":18},"indices":13,"material":0,"mode":4}]},{"name":"SM_Walls_Trim_LOD3","primitives":[{"attributes":{"NORMAL":21,"POSITION":20,"TANGENT":22,"TEXCOORD_0":23,"TEXCOORD_1":24},"indices":19,"material":0,"mode":4}]}],"nodes":[{"children":[1,2,3,4,5],"name":"Bathroom_Walls_Trim_SM_2","originalUnits":0.00999999977648258,"pivot":[0,0,0],"rotation":[0,0,0,1],"scale":[1,1,1],"translation":[0,0,0]},{"mesh":0,"name":"SM_Walls_Trim_LOD0","originalUnits":0.00999999977648258,"pivot":[0,0,0],"rotation":[0,0,0,1],"scale":[1,1,1],"translation":[0,0,0]},{"name":"SM_Walls_Trim_ConvexHulls","originalUnits":0.00999999977648258,"pivot":[0,0,0],"rotation":[0,0,0,1],"scale":[1,1,1],"translation":[0,0,0]},{"mesh":1,"name":"SM_Walls_Trim_LOD1","originalUnits":0.00999999977648258,"pivot":[0,0,0],"rotation":[0,0,0,1],"scale":[1,1,1],"translation":[0,0,0]},{"mesh":2,"name":"SM_Walls_Trim_LOD2","originalUnits":0.00999999977648258,"pivot":[0,0,0],"rotation":[0,0,0,1],"scale":[1,1,1],"translation":[0,0,0]},{"mesh":3,"name":"SM_Walls_Trim_LOD3","originalUnits":0.00999999977648258,"pivot":[0,0,0],"rotation":[0,0,0,1],"scale":[1,1,1],"translation":[0,0,0]}],"samplers":[{}],"scene":0,"scenes":[{"name":"Root Scene","nodes":[0]}]}