{"accessors":[{"bufferView":0,"byteOffset":0,"componentType":5126,"count":1,"max":[0],"min":[0],"type":"SCALAR"},{"bufferView":1,"byteOffset":0,"componentType":5123,"count":432,"type":"SCALAR"},{"bufferView":2,"byteOffset":0,"componentType":5126,"count":240,"max":[0.886249840259552,1.02657389640808,0.158032909035683],"min":[-0.88625019788742,-1.02657401561737,-0.15803292393684],"type":"VEC3"},{"bufferView":3,"byteOffset":0,"componentType":5126,"count":240,"type":"VEC3"},{"bufferView":4,"byteOffset":0,"componentType":5126,"count":240,"type":"VEC4"},{"bufferView":5,"byteOffset":0,"componentType":5126,"count":240,"type":"VEC2"},{"bufferView":6,"byteOffset":0,"componentType":5126,"count":240,"type":"VEC2"},{"bufferView":7,"byteOffset":0,"componentType":5123,"count":324,"type":"SCALAR"},{"bufferView":8,"byteOffset":0,"componentType":5126,"count":205,"max":[0.885095834732056,1.02812349796295,0.158032909035683],"min":[-0.88621741533279,-1.02657401561737,-0.15866255760193],"type":"VEC3"},{"bufferView":9,"byteOffset":0,"componentType":5126,"count":205,"type":"VEC3"},{"bufferView":10,"byteOffset":0,"componentType":5126,"count":205,"type":"VEC4"},{"bufferView":11,"byteOffset":0,"componentType":5126,"count":205,"type":"VEC2"},{"bufferView":12,"byteOffset":0,"componentType":5126,"count":205,"type":"VEC2"},{"bufferView":13,"byteOffset":0,"componentType":5123,"count":216,"type":"SCALAR"},{"bufferView":14,"byteOffset":0,"componentType":5126,"count":154,"max":[0.944666266441345,1.11234307289124,0.158032909035683],"min":[-0.92559379339218,-1.0469331741333,-0.19596564769745],"type":"VEC3"},{"bufferView":15,"byteOffset":0,"componentType":5126,"count":154,"type":"VEC3"},{"bufferView":16,"byteOffset":0,"componentType":5126,"count":154,"type":"VEC4"},{"bufferView":17,"byteOffset":0,"componentType":5126,"count":154,"type":"VEC2"},{"bufferView":18,"byteOffset":0,"componentType":5126,"count":154,"type":"VEC2"},{"bufferView":19,"byteOffset":0,"componentType":5123,"count":108,"type":"SCALAR"},{"bufferView":20,"byteOffset":0,"componentType":5126,"count":92,"max":[0.945637702941895,1.1338723897934,0.240294381976128],"min":[-0.9807368516922,-1.09299266338348,-0.20651586353779],"type":"VEC3"},{"bufferView":21,"byteOffset":0,"componentType":5126,"count":92,"type":"VEC3"},{"bufferView":22,"byteOffset":0,"componentType":5126,"count":92,"type":"VEC4"},{"bufferView":23,"byteOffset":0,"componentType":5126,"count":92,"type":"VEC2"},{"bufferView":24,"byteOffset":0,"componentType":5126,"count":92,"type":"VEC2"},{"bufferView":25,"byteOffset":0,"componentType":5123,"count":96,"type":"SCALAR"},{"bufferView":26,"byteOffset":0,"componentType":5126,"count":58,"max":[0.887374877929688,1.02874958515167,0.159374818205833],"min":[-0.88749992847443,-1.02757370471954,-0.1590329259634],"type":"VEC3"},{"bufferView":27,"byteOffset":0,"componentType":5126,"count":58,"type":"VEC3"},{"bufferView":28,"byteOffset":0,"componentType":5126,"count":58,"type":"VEC2"},{"bufferView":29,"byteOffset":0,"componentType":5126,"count":58,"type":"VEC2"}],"animations":[{"channels":[],"name":"Unreal Take","samplers":[]}],"asset":{"generator":"FBX2glTF v0.13.0","version":"2.0"},"bufferViews":[{"buffer":0,"byteLength":4,"byteOffset":0},{"buffer":0,"byteLength":864,"byteOffset":4,"target":34963},{"buffer":0,"byteLength":2880,"byteOffset":868,"target":34962},{"buffer":0,"byteLength":2880,"byteOffset":3748,"target":34962},{"buffer":0,"byteLength":3840,"byteOffset":6628,"target":34962},{"buffer":0,"byteLength":1920,"byteOffset":10468,"target":34962},{"buffer":0,"byteLength":1920,"byteOffset":12388,"target":34962},{"buffer":0,"byteLength":648,"byteOffset":14308,"target":34963},{"buffer":0,"byteLength":2460,"byteOffset":14956,"target":34962},{"buffer":0,"byteLength":2460,"byteOffset":17416,"target":34962},{"buffer":0,"byteLength":3280,"byteOffset":19876,"target":34962},{"buffer":0,"byteLength":1640,"byteOffset":23156,"target":34962},{"buffer":0,"byteLength":1640,"byteOffset":24796,"target":34962},{"buffer":0,"byteLength":432,"byteOffset":26436,"target":34963},{"buffer":0,"byteLength":1848,"byteOffset":26868,"target":34962},{"buffer":0,"byteLength":1848,"byteOffset":28716,"target":34962},{"buffer":0,"byteLength":2464,"byteOffset":30564,"target":34962},{"buffer":0,"byteLength":1232,"byteOffset":33028,"target":34962},{"buffer":0,"byteLength":1232,"byteOffset":34260,"target":34962},{"buffer":0,"byteLength":216,"byteOffset":35492,"target":34963},{"buffer":0,"byteLength":1104,"byteOffset":35708,"target":34962},{"buffer":0,"byteLength":1104,"byteOffset":36812,"target":34962},{"buffer":0,"byteLength":1472,"byteOffset":37916,"target":34962},{"buffer":0,"byteLength":736,"byteOffset":39388,"target":34962},{"buffer":0,"byteLength":736,"byteOffset":40124,"target":34962},{"buffer":0,"byteLength":192,"byteOffset":40860,"target":34963},{"buffer":0,"byteLength":696,"byteOffset":41052,"target":34962},{"buffer":0,"byteLength":696,"byteOffset":41748,"target":34962},{"buffer":0,"byteLength":464,"byteOffset":42444,"target":34962},{"buffer":0,"byteLength":464,"byteOffset":42908,"target":34962}],"buffers":[{"byteLength":43372,"uri":"SM_Window.bin"}],"materials":[{"alphaMode":"OPAQUE","doubleSided":false,"extras":{"fromFBX":{"isTruePBR":false,"shadingModel":"Phong"}},"name":"MM_Wood_03","pbrMetallicRoughness":{"baseColorFactor":[0.25,0.126736000180244,0.0651040002703667,1],"metallicFactor":0.400000005960464,"roughnessFactor":0.301511347293854}},{"alphaMode":"OPAQUE","doubleSided":false,"extras":{"fromFBX":{"isTruePBR":false,"shadingModel":"Lambert"}},"name":"DefaultMaterial","pbrMetallicRoughness":{"baseColorFactor":[0.5,0.5,0.5,1],"metallicFactor":0.200000002980232,"roughnessFactor":0.800000011920929}}],"meshes":[{"name":"SM_Window_LOD0","primitives":[{"attributes":{"NORMAL":3,"POSITION":2,"TANGENT":4,"TEXCOORD_0":5,"TEXCOORD_1":6},"indices":1,"material":0,"mode":4}]},{"name":"SM_Window_LOD1","primitives":[{"attributes":{"NORMAL":9,"POSITION":8,"TANGENT":10,"TEXCOORD_0":11,"TEXCOORD_1":12},"indices":7,"material":0,"mode":4}]},{"name":"SM_Window_LOD2","primitives":[{"attributes":{"NORMAL":15,"POSITION":14,"TANGENT":16,"TEXCOORD_0":17,"TEXCOORD_1":18},"indices":13,"material":0,"mode":4}]},{"name":"SM_Window_LOD3","primitives":[{"attributes":{"NORMAL":21,"POSITION":20,"TANGENT":22,"TEXCOORD_0":23,"TEXCOORD_1":24},"indices":19,"material":0,"mode":4}]},{"name":"SM_Window_ConvexHulls","primitives":[{"attributes":{"NORMAL":27,"POSITION":26,"TEXCOORD_0":28,"TEXCOORD_1":29},"indices":25,"material":1,"mode":4}]}],"nodes":[{"children":[1,2,3,4,5],"name":"Assets_Proxy_LR_Window_Proxy_100","originalUnits":0.00999999977648258,"pivot":[0,0,0],"rotation":[0,0,0,1],"scale":[1,1,1],"translation":[0,0,0]},{"mesh":0,"name":"SM_Window_LOD0","originalUnits":0.00999999977648258,"pivot":[0,0,0],"rotation":[0,0,0,1],"scale":[1,1,1],"translation":[0,0,0]},{"mesh":4,"name":"SM_Window_ConvexHulls","originalUnits":0.00999999977648258,"pivot":[0,0,0],"rotation":[0,0,0,1],"scale":[1,1,1],"translation":[0,0,0]},{"mesh":1,"name":"SM_Window_LOD1","originalUnits":0.00999999977648258,"pivot":[0,0,0],"rotation":[0,0,0,1],"scale":[1,1,1],"translation":[0,0,0]},{"mesh":2,"name":"SM_Window_LOD2","originalUnits":0.00999999977648258,"pivot":[0,0,0],"rotation":[0,0,0,1],"scale":[1,1,1],"translation":[0,0,0]},{"mesh":3,"name":"SM_Window_LOD3","originalUnits":0.00999999977648258,"pivot":[0,0,0],"rotation":[0,0,0,1],"scale":[1,1,1],"translation":[0,0,0]}],"samplers":[{}],"scene":0,"scenes":[{"name":"Root Scene","nodes":[0]}]}